<?xml version="1.0" encoding="utf-8"?>
<svg xmlns="http://www.w3.org/2000/svg" xmlns:xlink="http://www.w3.org/1999/xlink" width="528" height="336" viewBox="0 0 2112 1344">
<defs>
  <clipPath id="clip810">
    <rect x="0" y="0" width="2112" height="1344"/>
  </clipPath>
</defs>
<path clip-path="url(#clip810)" d="M0 1344 L2112 1344 L2112 2.13163e-14 L0 2.13163e-14  Z" fill="#ffffff" fill-rule="evenodd" fill-opacity="1"/>
<defs>
  <clipPath id="clip811">
    <rect x="252" y="120" width="1814" height="1054"/>
  </clipPath>
</defs>
<path clip-path="url(#clip810)" d="M252.164 1173.47 L2064.76 1173.47 L2064.76 120.723 L252.164 120.723  Z" fill="#ffffff" fill-rule="evenodd" fill-opacity="1"/>
<polyline clip-path="url(#clip811)" style="stroke:#000000; stroke-linecap:round; stroke-linejoin:round; stroke-width:2; stroke-opacity:0.1; fill:none" points="303.464,1173.47 303.464,120.723 "/>
<polyline clip-path="url(#clip811)" style="stroke:#000000; stroke-linecap:round; stroke-linejoin:round; stroke-width:2; stroke-opacity:0.1; fill:none" points="730.962,1173.47 730.962,120.723 "/>
<polyline clip-path="url(#clip811)" style="stroke:#000000; stroke-linecap:round; stroke-linejoin:round; stroke-width:2; stroke-opacity:0.1; fill:none" points="1158.46,1173.47 1158.46,120.723 "/>
<polyline clip-path="url(#clip811)" style="stroke:#000000; stroke-linecap:round; stroke-linejoin:round; stroke-width:2; stroke-opacity:0.1; fill:none" points="1585.96,1173.47 1585.96,120.723 "/>
<polyline clip-path="url(#clip811)" style="stroke:#000000; stroke-linecap:round; stroke-linejoin:round; stroke-width:2; stroke-opacity:0.1; fill:none" points="2013.46,1173.47 2013.46,120.723 "/>
<polyline clip-path="url(#clip811)" style="stroke:#000000; stroke-linecap:round; stroke-linejoin:round; stroke-width:2; stroke-opacity:0.1; fill:none" points="252.164,1126.63 2064.76,1126.63 "/>
<polyline clip-path="url(#clip811)" style="stroke:#000000; stroke-linecap:round; stroke-linejoin:round; stroke-width:2; stroke-opacity:0.1; fill:none" points="252.164,969.525 2064.76,969.525 "/>
<polyline clip-path="url(#clip811)" style="stroke:#000000; stroke-linecap:round; stroke-linejoin:round; stroke-width:2; stroke-opacity:0.1; fill:none" points="252.164,812.419 2064.76,812.419 "/>
<polyline clip-path="url(#clip811)" style="stroke:#000000; stroke-linecap:round; stroke-linejoin:round; stroke-width:2; stroke-opacity:0.1; fill:none" points="252.164,655.312 2064.76,655.312 "/>
<polyline clip-path="url(#clip811)" style="stroke:#000000; stroke-linecap:round; stroke-linejoin:round; stroke-width:2; stroke-opacity:0.1; fill:none" points="252.164,498.206 2064.76,498.206 "/>
<polyline clip-path="url(#clip811)" style="stroke:#000000; stroke-linecap:round; stroke-linejoin:round; stroke-width:2; stroke-opacity:0.1; fill:none" points="252.164,341.099 2064.76,341.099 "/>
<polyline clip-path="url(#clip811)" style="stroke:#000000; stroke-linecap:round; stroke-linejoin:round; stroke-width:2; stroke-opacity:0.1; fill:none" points="252.164,183.993 2064.76,183.993 "/>
<polyline clip-path="url(#clip810)" style="stroke:#000000; stroke-linecap:round; stroke-linejoin:round; stroke-width:4; stroke-opacity:1; fill:none" points="252.164,1173.47 2064.76,1173.47 "/>
<polyline clip-path="url(#clip810)" style="stroke:#000000; stroke-linecap:round; stroke-linejoin:round; stroke-width:4; stroke-opacity:1; fill:none" points="303.464,1173.47 303.464,1154.57 "/>
<polyline clip-path="url(#clip810)" style="stroke:#000000; stroke-linecap:round; stroke-linejoin:round; stroke-width:4; stroke-opacity:1; fill:none" points="730.962,1173.47 730.962,1154.57 "/>
<polyline clip-path="url(#clip810)" style="stroke:#000000; stroke-linecap:round; stroke-linejoin:round; stroke-width:4; stroke-opacity:1; fill:none" points="1158.46,1173.47 1158.46,1154.57 "/>
<polyline clip-path="url(#clip810)" style="stroke:#000000; stroke-linecap:round; stroke-linejoin:round; stroke-width:4; stroke-opacity:1; fill:none" points="1585.96,1173.47 1585.96,1154.57 "/>
<polyline clip-path="url(#clip810)" style="stroke:#000000; stroke-linecap:round; stroke-linejoin:round; stroke-width:4; stroke-opacity:1; fill:none" points="2013.46,1173.47 2013.46,1154.57 "/>
<path clip-path="url(#clip810)" d="M265.767 1202.09 Q262.156 1202.09 260.327 1205.65 Q258.522 1209.19 258.522 1216.32 Q258.522 1223.43 260.327 1226.99 Q262.156 1230.53 265.767 1230.53 Q269.401 1230.53 271.207 1226.99 Q273.036 1223.43 273.036 1216.32 Q273.036 1209.19 271.207 1205.65 Q269.401 1202.09 265.767 1202.09 M265.767 1198.38 Q271.577 1198.38 274.633 1202.99 Q277.712 1207.57 277.712 1216.32 Q277.712 1225.05 274.633 1229.65 Q271.577 1234.24 265.767 1234.24 Q259.957 1234.24 256.878 1229.65 Q253.823 1225.05 253.823 1216.32 Q253.823 1207.57 256.878 1202.99 Q259.957 1198.38 265.767 1198.38 Z" fill="#000000" fill-rule="nonzero" fill-opacity="1" /><path clip-path="url(#clip810)" d="M285.929 1227.69 L290.813 1227.69 L290.813 1233.57 L285.929 1233.57 L285.929 1227.69 Z" fill="#000000" fill-rule="nonzero" fill-opacity="1" /><path clip-path="url(#clip810)" d="M310.998 1202.09 Q307.387 1202.09 305.559 1205.65 Q303.753 1209.19 303.753 1216.32 Q303.753 1223.43 305.559 1226.99 Q307.387 1230.53 310.998 1230.53 Q314.633 1230.53 316.438 1226.99 Q318.267 1223.43 318.267 1216.32 Q318.267 1209.19 316.438 1205.65 Q314.633 1202.09 310.998 1202.09 M310.998 1198.38 Q316.809 1198.38 319.864 1202.99 Q322.943 1207.57 322.943 1216.32 Q322.943 1225.05 319.864 1229.65 Q316.809 1234.24 310.998 1234.24 Q305.188 1234.24 302.11 1229.65 Q299.054 1225.05 299.054 1216.32 Q299.054 1207.57 302.11 1202.99 Q305.188 1198.38 310.998 1198.38 Z" fill="#000000" fill-rule="nonzero" fill-opacity="1" /><path clip-path="url(#clip810)" d="M341.16 1202.09 Q337.549 1202.09 335.721 1205.65 Q333.915 1209.19 333.915 1216.32 Q333.915 1223.43 335.721 1226.99 Q337.549 1230.53 341.16 1230.53 Q344.795 1230.53 346.6 1226.99 Q348.429 1223.43 348.429 1216.32 Q348.429 1209.19 346.6 1205.65 Q344.795 1202.09 341.16 1202.09 M341.16 1198.38 Q346.971 1198.38 350.026 1202.99 Q353.105 1207.57 353.105 1216.32 Q353.105 1225.05 350.026 1229.65 Q346.971 1234.24 341.16 1234.24 Q335.35 1234.24 332.272 1229.65 Q329.216 1225.05 329.216 1216.32 Q329.216 1207.57 332.272 1202.99 Q335.35 1198.38 341.16 1198.38 Z" fill="#000000" fill-rule="nonzero" fill-opacity="1" /><path clip-path="url(#clip810)" d="M693.763 1202.09 Q690.152 1202.09 688.323 1205.65 Q686.518 1209.19 686.518 1216.32 Q686.518 1223.43 688.323 1226.99 Q690.152 1230.53 693.763 1230.53 Q697.397 1230.53 699.203 1226.99 Q701.031 1223.43 701.031 1216.32 Q701.031 1209.19 699.203 1205.65 Q697.397 1202.09 693.763 1202.09 M693.763 1198.38 Q699.573 1198.38 702.629 1202.99 Q705.707 1207.57 705.707 1216.32 Q705.707 1225.05 702.629 1229.65 Q699.573 1234.24 693.763 1234.24 Q687.953 1234.24 684.874 1229.65 Q681.819 1225.05 681.819 1216.32 Q681.819 1207.57 684.874 1202.99 Q687.953 1198.38 693.763 1198.38 Z" fill="#000000" fill-rule="nonzero" fill-opacity="1" /><path clip-path="url(#clip810)" d="M713.925 1227.69 L718.809 1227.69 L718.809 1233.57 L713.925 1233.57 L713.925 1227.69 Z" fill="#000000" fill-rule="nonzero" fill-opacity="1" /><path clip-path="url(#clip810)" d="M733.022 1229.63 L749.341 1229.63 L749.341 1233.57 L727.397 1233.57 L727.397 1229.63 Q730.059 1226.88 734.642 1222.25 Q739.249 1217.59 740.429 1216.25 Q742.675 1213.73 743.554 1211.99 Q744.457 1210.23 744.457 1208.54 Q744.457 1205.79 742.513 1204.05 Q740.591 1202.32 737.49 1202.32 Q735.291 1202.32 732.837 1203.08 Q730.406 1203.84 727.629 1205.4 L727.629 1200.67 Q730.453 1199.54 732.906 1198.96 Q735.36 1198.38 737.397 1198.38 Q742.767 1198.38 745.962 1201.07 Q749.156 1203.75 749.156 1208.24 Q749.156 1210.37 748.346 1212.29 Q747.559 1214.19 745.453 1216.78 Q744.874 1217.46 741.772 1220.67 Q738.67 1223.87 733.022 1229.63 Z" fill="#000000" fill-rule="nonzero" fill-opacity="1" /><path clip-path="url(#clip810)" d="M759.202 1199.01 L777.559 1199.01 L777.559 1202.94 L763.485 1202.94 L763.485 1211.41 Q764.503 1211.07 765.522 1210.9 Q766.54 1210.72 767.559 1210.72 Q773.346 1210.72 776.726 1213.89 Q780.105 1217.06 780.105 1222.48 Q780.105 1228.06 776.633 1231.16 Q773.161 1234.24 766.841 1234.24 Q764.665 1234.24 762.397 1233.87 Q760.152 1233.5 757.744 1232.76 L757.744 1228.06 Q759.827 1229.19 762.05 1229.75 Q764.272 1230.3 766.749 1230.3 Q770.753 1230.3 773.091 1228.2 Q775.429 1226.09 775.429 1222.48 Q775.429 1218.87 773.091 1216.76 Q770.753 1214.65 766.749 1214.65 Q764.874 1214.65 762.999 1215.07 Q761.147 1215.49 759.202 1216.37 L759.202 1199.01 Z" fill="#000000" fill-rule="nonzero" fill-opacity="1" /><path clip-path="url(#clip810)" d="M1120.76 1202.09 Q1117.15 1202.09 1115.32 1205.65 Q1113.52 1209.19 1113.52 1216.32 Q1113.52 1223.43 1115.32 1226.99 Q1117.15 1230.53 1120.76 1230.53 Q1124.4 1230.53 1126.2 1226.99 Q1128.03 1223.43 1128.03 1216.32 Q1128.03 1209.19 1126.2 1205.65 Q1124.4 1202.09 1120.76 1202.09 M1120.76 1198.38 Q1126.57 1198.38 1129.63 1202.99 Q1132.71 1207.57 1132.71 1216.32 Q1132.71 1225.05 1129.63 1229.65 Q1126.57 1234.24 1120.76 1234.24 Q1114.95 1234.24 1111.87 1229.65 Q1108.82 1225.05 1108.82 1216.32 Q1108.82 1207.57 1111.87 1202.99 Q1114.95 1198.38 1120.76 1198.38 Z" fill="#000000" fill-rule="nonzero" fill-opacity="1" /><path clip-path="url(#clip810)" d="M1140.93 1227.69 L1145.81 1227.69 L1145.81 1233.57 L1140.93 1233.57 L1140.93 1227.69 Z" fill="#000000" fill-rule="nonzero" fill-opacity="1" /><path clip-path="url(#clip810)" d="M1156.04 1199.01 L1174.4 1199.01 L1174.4 1202.94 L1160.32 1202.94 L1160.32 1211.41 Q1161.34 1211.07 1162.36 1210.9 Q1163.38 1210.72 1164.4 1210.72 Q1170.18 1210.72 1173.56 1213.89 Q1176.94 1217.06 1176.94 1222.48 Q1176.94 1228.06 1173.47 1231.16 Q1170 1234.24 1163.68 1234.24 Q1161.5 1234.24 1159.24 1233.87 Q1156.99 1233.5 1154.58 1232.76 L1154.58 1228.06 Q1156.67 1229.19 1158.89 1229.75 Q1161.11 1230.3 1163.59 1230.3 Q1167.59 1230.3 1169.93 1228.2 Q1172.27 1226.09 1172.27 1222.48 Q1172.27 1218.87 1169.93 1216.76 Q1167.59 1214.65 1163.59 1214.65 Q1161.71 1214.65 1159.84 1215.07 Q1157.99 1215.49 1156.04 1216.37 L1156.04 1199.01 Z" fill="#000000" fill-rule="nonzero" fill-opacity="1" /><path clip-path="url(#clip810)" d="M1196.16 1202.09 Q1192.55 1202.09 1190.72 1205.65 Q1188.91 1209.19 1188.91 1216.32 Q1188.91 1223.43 1190.72 1226.99 Q1192.55 1230.53 1196.16 1230.53 Q1199.79 1230.53 1201.6 1226.99 Q1203.43 1223.43 1203.43 1216.32 Q1203.43 1209.19 1201.6 1205.65 Q1199.79 1202.09 1196.16 1202.09 M1196.16 1198.38 Q1201.97 1198.38 1205.02 1202.99 Q1208.1 1207.57 1208.1 1216.32 Q1208.1 1225.05 1205.02 1229.65 Q1201.97 1234.24 1196.16 1234.24 Q1190.35 1234.24 1187.27 1229.65 Q1184.21 1225.05 1184.21 1216.32 Q1184.21 1207.57 1187.27 1202.99 Q1190.35 1198.38 1196.16 1198.38 Z" fill="#000000" fill-rule="nonzero" fill-opacity="1" /><path clip-path="url(#clip810)" d="M1548.76 1202.09 Q1545.15 1202.09 1543.32 1205.65 Q1541.51 1209.19 1541.51 1216.32 Q1541.51 1223.43 1543.32 1226.99 Q1545.15 1230.53 1548.76 1230.53 Q1552.39 1230.53 1554.2 1226.99 Q1556.03 1223.43 1556.03 1216.32 Q1556.03 1209.19 1554.2 1205.65 Q1552.39 1202.09 1548.76 1202.09 M1548.76 1198.38 Q1554.57 1198.38 1557.62 1202.99 Q1560.7 1207.57 1560.7 1216.32 Q1560.7 1225.05 1557.62 1229.65 Q1554.57 1234.24 1548.76 1234.24 Q1542.95 1234.24 1539.87 1229.65 Q1536.81 1225.05 1536.81 1216.32 Q1536.81 1207.57 1539.87 1202.99 Q1542.95 1198.38 1548.76 1198.38 Z" fill="#000000" fill-rule="nonzero" fill-opacity="1" /><path clip-path="url(#clip810)" d="M1568.92 1227.69 L1573.81 1227.69 L1573.81 1233.57 L1568.92 1233.57 L1568.92 1227.69 Z" fill="#000000" fill-rule="nonzero" fill-opacity="1" /><path clip-path="url(#clip810)" d="M1582.81 1199.01 L1605.03 1199.01 L1605.03 1201 L1592.49 1233.57 L1587.6 1233.57 L1599.41 1202.94 L1582.81 1202.94 L1582.81 1199.01 Z" fill="#000000" fill-rule="nonzero" fill-opacity="1" /><path clip-path="url(#clip810)" d="M1614.2 1199.01 L1632.56 1199.01 L1632.56 1202.94 L1618.48 1202.94 L1618.48 1211.41 Q1619.5 1211.07 1620.52 1210.9 Q1621.54 1210.72 1622.56 1210.72 Q1628.34 1210.72 1631.72 1213.89 Q1635.1 1217.06 1635.1 1222.48 Q1635.1 1228.06 1631.63 1231.16 Q1628.16 1234.24 1621.84 1234.24 Q1619.66 1234.24 1617.39 1233.87 Q1615.15 1233.5 1612.74 1232.76 L1612.74 1228.06 Q1614.82 1229.19 1617.05 1229.75 Q1619.27 1230.3 1621.74 1230.3 Q1625.75 1230.3 1628.09 1228.2 Q1630.43 1226.09 1630.43 1222.48 Q1630.43 1218.87 1628.09 1216.76 Q1625.75 1214.65 1621.74 1214.65 Q1619.87 1214.65 1617.99 1215.07 Q1616.14 1215.49 1614.2 1216.37 L1614.2 1199.01 Z" fill="#000000" fill-rule="nonzero" fill-opacity="1" /><path clip-path="url(#clip810)" d="M1965.53 1229.63 L1973.17 1229.63 L1973.17 1203.27 L1964.86 1204.93 L1964.86 1200.67 L1973.12 1199.01 L1977.8 1199.01 L1977.8 1229.63 L1985.44 1229.63 L1985.44 1233.57 L1965.53 1233.57 L1965.53 1229.63 Z" fill="#000000" fill-rule="nonzero" fill-opacity="1" /><path clip-path="url(#clip810)" d="M1994.88 1227.69 L1999.76 1227.69 L1999.76 1233.57 L1994.88 1233.57 L1994.88 1227.69 Z" fill="#000000" fill-rule="nonzero" fill-opacity="1" /><path clip-path="url(#clip810)" d="M2019.95 1202.09 Q2016.34 1202.09 2014.51 1205.65 Q2012.7 1209.19 2012.7 1216.32 Q2012.7 1223.43 2014.51 1226.99 Q2016.34 1230.53 2019.95 1230.53 Q2023.58 1230.53 2025.39 1226.99 Q2027.22 1223.43 2027.22 1216.32 Q2027.22 1209.19 2025.39 1205.65 Q2023.58 1202.09 2019.95 1202.09 M2019.95 1198.38 Q2025.76 1198.38 2028.81 1202.99 Q2031.89 1207.57 2031.89 1216.32 Q2031.89 1225.05 2028.81 1229.65 Q2025.76 1234.24 2019.95 1234.24 Q2014.14 1234.24 2011.06 1229.65 Q2008 1225.05 2008 1216.32 Q2008 1207.57 2011.06 1202.99 Q2014.14 1198.38 2019.95 1198.38 Z" fill="#000000" fill-rule="nonzero" fill-opacity="1" /><path clip-path="url(#clip810)" d="M2050.11 1202.09 Q2046.5 1202.09 2044.67 1205.65 Q2042.87 1209.19 2042.87 1216.32 Q2042.87 1223.43 2044.67 1226.99 Q2046.5 1230.53 2050.11 1230.53 Q2053.75 1230.53 2055.55 1226.99 Q2057.38 1223.43 2057.38 1216.32 Q2057.38 1209.19 2055.55 1205.65 Q2053.75 1202.09 2050.11 1202.09 M2050.11 1198.38 Q2055.92 1198.38 2058.98 1202.99 Q2062.06 1207.57 2062.06 1216.32 Q2062.06 1225.05 2058.98 1229.65 Q2055.92 1234.24 2050.11 1234.24 Q2044.3 1234.24 2041.22 1229.65 Q2038.17 1225.05 2038.17 1216.32 Q2038.17 1207.57 2041.22 1202.99 Q2044.3 1198.38 2050.11 1198.38 Z" fill="#000000" fill-rule="nonzero" fill-opacity="1" /><path clip-path="url(#clip810)" d="M1175.07 1278.37 L1162.18 1295.71 L1175.74 1314.01 L1168.84 1314.01 L1158.46 1300.01 L1148.08 1314.01 L1141.18 1314.01 L1155.02 1295.36 L1142.35 1278.37 L1149.26 1278.37 L1158.71 1291.07 L1168.17 1278.37 L1175.07 1278.37 Z" fill="#000000" fill-rule="nonzero" fill-opacity="1" /><polyline clip-path="url(#clip810)" style="stroke:#000000; stroke-linecap:round; stroke-linejoin:round; stroke-width:4; stroke-opacity:1; fill:none" points="252.164,1173.47 252.164,120.723 "/>
<polyline clip-path="url(#clip810)" style="stroke:#000000; stroke-linecap:round; stroke-linejoin:round; stroke-width:4; stroke-opacity:1; fill:none" points="252.164,1126.63 271.062,1126.63 "/>
<polyline clip-path="url(#clip810)" style="stroke:#000000; stroke-linecap:round; stroke-linejoin:round; stroke-width:4; stroke-opacity:1; fill:none" points="252.164,969.525 271.062,969.525 "/>
<polyline clip-path="url(#clip810)" style="stroke:#000000; stroke-linecap:round; stroke-linejoin:round; stroke-width:4; stroke-opacity:1; fill:none" points="252.164,812.419 271.062,812.419 "/>
<polyline clip-path="url(#clip810)" style="stroke:#000000; stroke-linecap:round; stroke-linejoin:round; stroke-width:4; stroke-opacity:1; fill:none" points="252.164,655.312 271.062,655.312 "/>
<polyline clip-path="url(#clip810)" style="stroke:#000000; stroke-linecap:round; stroke-linejoin:round; stroke-width:4; stroke-opacity:1; fill:none" points="252.164,498.206 271.062,498.206 "/>
<polyline clip-path="url(#clip810)" style="stroke:#000000; stroke-linecap:round; stroke-linejoin:round; stroke-width:4; stroke-opacity:1; fill:none" points="252.164,341.099 271.062,341.099 "/>
<polyline clip-path="url(#clip810)" style="stroke:#000000; stroke-linecap:round; stroke-linejoin:round; stroke-width:4; stroke-opacity:1; fill:none" points="252.164,183.993 271.062,183.993 "/>
<path clip-path="url(#clip810)" d="M114.536 1127.08 L144.211 1127.08 L144.211 1131.02 L114.536 1131.02 L114.536 1127.08 Z" fill="#000000" fill-rule="nonzero" fill-opacity="1" /><path clip-path="url(#clip810)" d="M155.114 1139.98 L162.753 1139.98 L162.753 1113.61 L154.443 1115.28 L154.443 1111.02 L162.707 1109.35 L167.382 1109.35 L167.382 1139.98 L175.021 1139.98 L175.021 1143.91 L155.114 1143.91 L155.114 1139.98 Z" fill="#000000" fill-rule="nonzero" fill-opacity="1" /><path clip-path="url(#clip810)" d="M184.466 1138.03 L189.35 1138.03 L189.35 1143.91 L184.466 1143.91 L184.466 1138.03 Z" fill="#000000" fill-rule="nonzero" fill-opacity="1" /><path clip-path="url(#clip810)" d="M199.581 1109.35 L217.938 1109.35 L217.938 1113.29 L203.864 1113.29 L203.864 1121.76 Q204.882 1121.41 205.901 1121.25 Q206.919 1121.06 207.938 1121.06 Q213.725 1121.06 217.104 1124.24 Q220.484 1127.41 220.484 1132.82 Q220.484 1138.4 217.012 1141.5 Q213.54 1144.58 207.22 1144.58 Q205.044 1144.58 202.776 1144.21 Q200.53 1143.84 198.123 1143.1 L198.123 1138.4 Q200.206 1139.54 202.429 1140.09 Q204.651 1140.65 207.128 1140.65 Q211.132 1140.65 213.47 1138.54 Q215.808 1136.43 215.808 1132.82 Q215.808 1129.21 213.47 1127.11 Q211.132 1125 207.128 1125 Q205.253 1125 203.378 1125.42 Q201.526 1125.83 199.581 1126.71 L199.581 1109.35 Z" fill="#000000" fill-rule="nonzero" fill-opacity="1" /><path clip-path="url(#clip810)" d="M113.54 969.976 L143.216 969.976 L143.216 973.911 L113.54 973.911 L113.54 969.976 Z" fill="#000000" fill-rule="nonzero" fill-opacity="1" /><path clip-path="url(#clip810)" d="M154.119 982.87 L161.757 982.87 L161.757 956.504 L153.447 958.171 L153.447 953.912 L161.711 952.245 L166.387 952.245 L166.387 982.87 L174.026 982.87 L174.026 986.805 L154.119 986.805 L154.119 982.87 Z" fill="#000000" fill-rule="nonzero" fill-opacity="1" /><path clip-path="url(#clip810)" d="M183.47 980.925 L188.355 980.925 L188.355 986.805 L183.47 986.805 L183.47 980.925 Z" fill="#000000" fill-rule="nonzero" fill-opacity="1" /><path clip-path="url(#clip810)" d="M208.54 955.324 Q204.929 955.324 203.1 958.888 Q201.294 962.43 201.294 969.56 Q201.294 976.666 203.1 980.231 Q204.929 983.773 208.54 983.773 Q212.174 983.773 213.979 980.231 Q215.808 976.666 215.808 969.56 Q215.808 962.43 213.979 958.888 Q212.174 955.324 208.54 955.324 M208.54 951.62 Q214.35 951.62 217.405 956.226 Q220.484 960.81 220.484 969.56 Q220.484 978.286 217.405 982.893 Q214.35 987.476 208.54 987.476 Q202.729 987.476 199.651 982.893 Q196.595 978.286 196.595 969.56 Q196.595 960.81 199.651 956.226 Q202.729 951.62 208.54 951.62 Z" fill="#000000" fill-rule="nonzero" fill-opacity="1" /><path clip-path="url(#clip810)" d="M114.536 812.87 L144.211 812.87 L144.211 816.805 L114.536 816.805 L114.536 812.87 Z" fill="#000000" fill-rule="nonzero" fill-opacity="1" /><path clip-path="url(#clip810)" d="M164.304 798.217 Q160.693 798.217 158.864 801.782 Q157.058 805.324 157.058 812.453 Q157.058 819.56 158.864 823.125 Q160.693 826.666 164.304 826.666 Q167.938 826.666 169.744 823.125 Q171.572 819.56 171.572 812.453 Q171.572 805.324 169.744 801.782 Q167.938 798.217 164.304 798.217 M164.304 794.514 Q170.114 794.514 173.169 799.12 Q176.248 803.703 176.248 812.453 Q176.248 821.18 173.169 825.787 Q170.114 830.37 164.304 830.37 Q158.494 830.37 155.415 825.787 Q152.359 821.18 152.359 812.453 Q152.359 803.703 155.415 799.12 Q158.494 794.514 164.304 794.514 Z" fill="#000000" fill-rule="nonzero" fill-opacity="1" /><path clip-path="url(#clip810)" d="M184.466 823.819 L189.35 823.819 L189.35 829.699 L184.466 829.699 L184.466 823.819 Z" fill="#000000" fill-rule="nonzero" fill-opacity="1" /><path clip-path="url(#clip810)" d="M199.581 795.139 L217.938 795.139 L217.938 799.074 L203.864 799.074 L203.864 807.546 Q204.882 807.199 205.901 807.037 Q206.919 806.851 207.938 806.851 Q213.725 806.851 217.104 810.023 Q220.484 813.194 220.484 818.611 Q220.484 824.189 217.012 827.291 Q213.54 830.37 207.22 830.37 Q205.044 830.37 202.776 829.999 Q200.53 829.629 198.123 828.888 L198.123 824.189 Q200.206 825.324 202.429 825.879 Q204.651 826.435 207.128 826.435 Q211.132 826.435 213.47 824.328 Q215.808 822.222 215.808 818.611 Q215.808 815 213.47 812.893 Q211.132 810.787 207.128 810.787 Q205.253 810.787 203.378 811.203 Q201.526 811.62 199.581 812.5 L199.581 795.139 Z" fill="#000000" fill-rule="nonzero" fill-opacity="1" /><path clip-path="url(#clip810)" d="M163.308 641.111 Q159.697 641.111 157.869 644.676 Q156.063 648.217 156.063 655.347 Q156.063 662.453 157.869 666.018 Q159.697 669.56 163.308 669.56 Q166.943 669.56 168.748 666.018 Q170.577 662.453 170.577 655.347 Q170.577 648.217 168.748 644.676 Q166.943 641.111 163.308 641.111 M163.308 637.407 Q169.119 637.407 172.174 642.014 Q175.253 646.597 175.253 655.347 Q175.253 664.074 172.174 668.68 Q169.119 673.263 163.308 673.263 Q157.498 673.263 154.42 668.68 Q151.364 664.074 151.364 655.347 Q151.364 646.597 154.42 642.014 Q157.498 637.407 163.308 637.407 Z" fill="#000000" fill-rule="nonzero" fill-opacity="1" /><path clip-path="url(#clip810)" d="M183.47 666.713 L188.355 666.713 L188.355 672.592 L183.47 672.592 L183.47 666.713 Z" fill="#000000" fill-rule="nonzero" fill-opacity="1" /><path clip-path="url(#clip810)" d="M208.54 641.111 Q204.929 641.111 203.1 644.676 Q201.294 648.217 201.294 655.347 Q201.294 662.453 203.1 666.018 Q204.929 669.56 208.54 669.56 Q212.174 669.56 213.979 666.018 Q215.808 662.453 215.808 655.347 Q215.808 648.217 213.979 644.676 Q212.174 641.111 208.54 641.111 M208.54 637.407 Q214.35 637.407 217.405 642.014 Q220.484 646.597 220.484 655.347 Q220.484 664.074 217.405 668.68 Q214.35 673.263 208.54 673.263 Q202.729 673.263 199.651 668.68 Q196.595 664.074 196.595 655.347 Q196.595 646.597 199.651 642.014 Q202.729 637.407 208.54 637.407 Z" fill="#000000" fill-rule="nonzero" fill-opacity="1" /><path clip-path="url(#clip810)" d="M164.304 484.005 Q160.693 484.005 158.864 487.569 Q157.058 491.111 157.058 498.241 Q157.058 505.347 158.864 508.912 Q160.693 512.453 164.304 512.453 Q167.938 512.453 169.744 508.912 Q171.572 505.347 171.572 498.241 Q171.572 491.111 169.744 487.569 Q167.938 484.005 164.304 484.005 M164.304 480.301 Q170.114 480.301 173.169 484.907 Q176.248 489.491 176.248 498.241 Q176.248 506.967 173.169 511.574 Q170.114 516.157 164.304 516.157 Q158.494 516.157 155.415 511.574 Q152.359 506.967 152.359 498.241 Q152.359 489.491 155.415 484.907 Q158.494 480.301 164.304 480.301 Z" fill="#000000" fill-rule="nonzero" fill-opacity="1" /><path clip-path="url(#clip810)" d="M184.466 509.606 L189.35 509.606 L189.35 515.486 L184.466 515.486 L184.466 509.606 Z" fill="#000000" fill-rule="nonzero" fill-opacity="1" /><path clip-path="url(#clip810)" d="M199.581 480.926 L217.938 480.926 L217.938 484.861 L203.864 484.861 L203.864 493.333 Q204.882 492.986 205.901 492.824 Q206.919 492.639 207.938 492.639 Q213.725 492.639 217.104 495.81 Q220.484 498.981 220.484 504.398 Q220.484 509.977 217.012 513.078 Q213.54 516.157 207.22 516.157 Q205.044 516.157 202.776 515.787 Q200.53 515.416 198.123 514.676 L198.123 509.977 Q200.206 511.111 202.429 511.666 Q204.651 512.222 207.128 512.222 Q211.132 512.222 213.47 510.115 Q215.808 508.009 215.808 504.398 Q215.808 500.787 213.47 498.68 Q211.132 496.574 207.128 496.574 Q205.253 496.574 203.378 496.991 Q201.526 497.407 199.581 498.287 L199.581 480.926 Z" fill="#000000" fill-rule="nonzero" fill-opacity="1" /><path clip-path="url(#clip810)" d="M154.119 354.444 L161.757 354.444 L161.757 328.079 L153.447 329.745 L153.447 325.486 L161.711 323.819 L166.387 323.819 L166.387 354.444 L174.026 354.444 L174.026 358.379 L154.119 358.379 L154.119 354.444 Z" fill="#000000" fill-rule="nonzero" fill-opacity="1" /><path clip-path="url(#clip810)" d="M183.47 352.5 L188.355 352.5 L188.355 358.379 L183.47 358.379 L183.47 352.5 Z" fill="#000000" fill-rule="nonzero" fill-opacity="1" /><path clip-path="url(#clip810)" d="M208.54 326.898 Q204.929 326.898 203.1 330.463 Q201.294 334.005 201.294 341.134 Q201.294 348.241 203.1 351.805 Q204.929 355.347 208.54 355.347 Q212.174 355.347 213.979 351.805 Q215.808 348.241 215.808 341.134 Q215.808 334.005 213.979 330.463 Q212.174 326.898 208.54 326.898 M208.54 323.194 Q214.35 323.194 217.405 327.801 Q220.484 332.384 220.484 341.134 Q220.484 349.861 217.405 354.467 Q214.35 359.051 208.54 359.051 Q202.729 359.051 199.651 354.467 Q196.595 349.861 196.595 341.134 Q196.595 332.384 199.651 327.801 Q202.729 323.194 208.54 323.194 Z" fill="#000000" fill-rule="nonzero" fill-opacity="1" /><path clip-path="url(#clip810)" d="M155.114 197.338 L162.753 197.338 L162.753 170.972 L154.443 172.639 L154.443 168.38 L162.707 166.713 L167.382 166.713 L167.382 197.338 L175.021 197.338 L175.021 201.273 L155.114 201.273 L155.114 197.338 Z" fill="#000000" fill-rule="nonzero" fill-opacity="1" /><path clip-path="url(#clip810)" d="M184.466 195.393 L189.35 195.393 L189.35 201.273 L184.466 201.273 L184.466 195.393 Z" fill="#000000" fill-rule="nonzero" fill-opacity="1" /><path clip-path="url(#clip810)" d="M199.581 166.713 L217.938 166.713 L217.938 170.648 L203.864 170.648 L203.864 179.12 Q204.882 178.773 205.901 178.611 Q206.919 178.426 207.938 178.426 Q213.725 178.426 217.104 181.597 Q220.484 184.769 220.484 190.185 Q220.484 195.764 217.012 198.866 Q213.54 201.944 207.22 201.944 Q205.044 201.944 202.776 201.574 Q200.53 201.204 198.123 200.463 L198.123 195.764 Q200.206 196.898 202.429 197.454 Q204.651 198.009 207.128 198.009 Q211.132 198.009 213.47 195.903 Q215.808 193.796 215.808 190.185 Q215.808 186.574 213.47 184.468 Q211.132 182.361 207.128 182.361 Q205.253 182.361 203.378 182.778 Q201.526 183.194 199.581 184.074 L199.581 166.713 Z" fill="#000000" fill-rule="nonzero" fill-opacity="1" /><path clip-path="url(#clip810)" d="M15.2462 649.452 L15.2462 644.742 L27.2137 636.944 L27.2137 641.368 L19.4158 647.097 L27.2137 652.826 L27.2137 657.25 L15.2462 649.452 M70.9143 645.41 Q77.28 647.893 79.2216 650.248 Q81.1631 652.603 81.1631 656.55 L81.1631 661.229 L76.2615 661.229 L76.2615 657.791 Q76.2615 655.372 75.1157 654.036 Q73.9699 652.699 69.7048 651.075 L67.0312 650.025 L31.9562 664.443 L31.9562 658.237 L59.838 647.097 L31.9562 635.957 L31.9562 629.75 L70.9143 645.41 Z" fill="#000000" fill-rule="nonzero" fill-opacity="1" /><path clip-path="url(#clip810)" d="M686.388 18.8205 L686.388 41.5461 L696.677 41.5461 Q702.389 41.5461 705.508 38.5889 Q708.627 35.6318 708.627 30.163 Q708.627 24.7348 705.508 21.7777 Q702.389 18.8205 696.677 18.8205 L686.388 18.8205 M678.205 12.096 L696.677 12.096 Q706.845 12.096 712.03 16.714 Q717.256 21.2916 717.256 30.163 Q717.256 39.1155 712.03 43.6931 Q706.845 48.2706 696.677 48.2706 L686.388 48.2706 L686.388 72.576 L678.205 72.576 L678.205 12.096 Z" fill="#000000" fill-rule="nonzero" fill-opacity="1" /><path clip-path="url(#clip810)" d="M752.742 34.1734 Q751.486 33.4443 749.987 33.1202 Q748.529 32.7556 746.746 32.7556 Q740.427 32.7556 737.024 36.8875 Q733.662 40.9789 733.662 48.6757 L733.662 72.576 L726.168 72.576 L726.168 27.2059 L733.662 27.2059 L733.662 34.2544 Q736.011 30.1225 739.779 28.1376 Q743.546 26.1121 748.934 26.1121 Q749.703 26.1121 750.635 26.2337 Q751.567 26.3147 752.701 26.5172 L752.742 34.1734 Z" fill="#000000" fill-rule="nonzero" fill-opacity="1" /><path clip-path="url(#clip810)" d="M797.545 48.0275 L797.545 51.6733 L763.274 51.6733 Q763.76 59.3701 767.892 63.421 Q772.064 67.4314 779.478 67.4314 Q783.772 67.4314 787.782 66.3781 Q791.833 65.3249 795.803 63.2184 L795.803 70.267 Q791.792 71.9684 787.579 72.8596 Q783.366 73.7508 779.032 73.7508 Q768.176 73.7508 761.816 67.4314 Q755.496 61.1119 755.496 50.3365 Q755.496 39.1965 761.492 32.6746 Q767.527 26.1121 777.736 26.1121 Q786.891 26.1121 792.197 32.0264 Q797.545 37.9003 797.545 48.0275 M790.091 45.84 Q790.01 39.7232 786.648 36.0774 Q783.326 32.4315 777.817 32.4315 Q771.578 32.4315 767.811 35.9558 Q764.084 39.4801 763.517 45.8805 L790.091 45.84 Z" fill="#000000" fill-rule="nonzero" fill-opacity="1" /><path clip-path="url(#clip810)" d="M839.634 34.0924 L839.634 9.54393 L847.087 9.54393 L847.087 72.576 L839.634 72.576 L839.634 65.7705 Q837.284 69.8214 833.679 71.8063 Q830.114 73.7508 825.091 73.7508 Q816.867 73.7508 811.682 67.1883 Q806.538 60.6258 806.538 49.9314 Q806.538 39.2371 811.682 32.6746 Q816.867 26.1121 825.091 26.1121 Q830.114 26.1121 833.679 28.0971 Q837.284 30.0415 839.634 34.0924 M814.234 49.9314 Q814.234 58.1548 817.597 62.8538 Q820.999 67.5124 826.914 67.5124 Q832.828 67.5124 836.231 62.8538 Q839.634 58.1548 839.634 49.9314 Q839.634 41.7081 836.231 37.0496 Q832.828 32.3505 826.914 32.3505 Q820.999 32.3505 817.597 37.0496 Q814.234 41.7081 814.234 49.9314 Z" fill="#000000" fill-rule="nonzero" fill-opacity="1" /><path clip-path="url(#clip810)" d="M862.44 27.2059 L869.894 27.2059 L869.894 72.576 L862.44 72.576 L862.44 27.2059 M862.44 9.54393 L869.894 9.54393 L869.894 18.9825 L862.44 18.9825 L862.44 9.54393 Z" fill="#000000" fill-rule="nonzero" fill-opacity="1" /><path clip-path="url(#clip810)" d="M918.14 28.9478 L918.14 35.9153 Q914.98 34.1734 911.78 33.3227 Q908.62 32.4315 905.38 32.4315 Q898.129 32.4315 894.118 37.0496 Q890.108 41.6271 890.108 49.9314 Q890.108 58.2358 894.118 62.8538 Q898.129 67.4314 905.38 67.4314 Q908.62 67.4314 911.78 66.5807 Q914.98 65.6895 918.14 63.9476 L918.14 70.8341 Q915.021 72.2924 911.659 73.0216 Q908.337 73.7508 904.57 73.7508 Q894.321 73.7508 888.285 67.3098 Q882.249 60.8689 882.249 49.9314 Q882.249 38.832 888.325 32.472 Q894.442 26.1121 905.056 26.1121 Q908.499 26.1121 911.78 26.8413 Q915.061 27.5299 918.14 28.9478 Z" fill="#000000" fill-rule="nonzero" fill-opacity="1" /><path clip-path="url(#clip810)" d="M938.476 14.324 L938.476 27.2059 L953.829 27.2059 L953.829 32.9987 L938.476 32.9987 L938.476 57.6282 Q938.476 63.1779 939.974 64.7578 Q941.514 66.3376 946.172 66.3376 L953.829 66.3376 L953.829 72.576 L946.172 72.576 Q937.544 72.576 934.263 69.3758 Q930.981 66.1351 930.981 57.6282 L930.981 32.9987 L925.513 32.9987 L925.513 27.2059 L930.981 27.2059 L930.981 14.324 L938.476 14.324 Z" fill="#000000" fill-rule="nonzero" fill-opacity="1" /><path clip-path="url(#clip810)" d="M963.632 27.2059 L971.085 27.2059 L971.085 72.576 L963.632 72.576 L963.632 27.2059 M963.632 9.54393 L971.085 9.54393 L971.085 18.9825 L963.632 18.9825 L963.632 9.54393 Z" fill="#000000" fill-rule="nonzero" fill-opacity="1" /><path clip-path="url(#clip810)" d="M1004.26 32.4315 Q998.267 32.4315 994.783 37.1306 Q991.299 41.7891 991.299 49.9314 Q991.299 58.0738 994.743 62.7728 Q998.226 67.4314 1004.26 67.4314 Q1010.22 67.4314 1013.7 62.7323 Q1017.18 58.0333 1017.18 49.9314 Q1017.18 41.8701 1013.7 37.1711 Q1010.22 32.4315 1004.26 32.4315 M1004.26 26.1121 Q1013.98 26.1121 1019.53 32.4315 Q1025.08 38.7509 1025.08 49.9314 Q1025.08 61.0714 1019.53 67.4314 Q1013.98 73.7508 1004.26 73.7508 Q994.5 73.7508 988.95 67.4314 Q983.441 61.0714 983.441 49.9314 Q983.441 38.7509 988.95 32.4315 Q994.5 26.1121 1004.26 26.1121 Z" fill="#000000" fill-rule="nonzero" fill-opacity="1" /><path clip-path="url(#clip810)" d="M1075.15 45.1919 L1075.15 72.576 L1067.7 72.576 L1067.7 45.4349 Q1067.7 38.994 1065.19 35.7938 Q1062.68 32.5936 1057.65 32.5936 Q1051.62 32.5936 1048.13 36.4419 Q1044.65 40.2903 1044.65 46.9338 L1044.65 72.576 L1037.16 72.576 L1037.16 27.2059 L1044.65 27.2059 L1044.65 34.2544 Q1047.32 30.163 1050.93 28.1376 Q1054.57 26.1121 1059.31 26.1121 Q1067.13 26.1121 1071.14 30.9732 Q1075.15 35.7938 1075.15 45.1919 Z" fill="#000000" fill-rule="nonzero" fill-opacity="1" /><path clip-path="url(#clip810)" d="M1118.94 28.5427 L1118.94 35.5912 Q1115.78 33.9709 1112.38 33.1607 Q1108.98 32.3505 1105.33 32.3505 Q1099.78 32.3505 1096.99 34.0519 Q1094.23 35.7533 1094.23 39.156 Q1094.23 41.7486 1096.22 43.2475 Q1098.2 44.7058 1104.2 46.0426 L1106.75 46.6097 Q1114.69 48.3111 1118.01 51.4303 Q1121.37 54.509 1121.37 60.0587 Q1121.37 66.3781 1116.35 70.0644 Q1111.37 73.7508 1102.62 73.7508 Q1098.97 73.7508 1095 73.0216 Q1091.07 72.3329 1086.7 70.9151 L1086.7 63.2184 Q1090.83 65.3654 1094.84 66.4591 Q1098.85 67.5124 1102.78 67.5124 Q1108.05 67.5124 1110.88 65.73 Q1113.72 63.9071 1113.72 60.6258 Q1113.72 57.5877 1111.65 55.9673 Q1109.63 54.3469 1102.7 52.8481 L1100.11 52.2405 Q1093.18 50.7821 1090.1 47.7845 Q1087.02 44.7463 1087.02 39.4801 Q1087.02 33.0797 1091.56 29.5959 Q1096.1 26.1121 1104.44 26.1121 Q1108.57 26.1121 1112.22 26.7198 Q1115.86 27.3274 1118.94 28.5427 Z" fill="#000000" fill-rule="nonzero" fill-opacity="1" /><path clip-path="url(#clip810)" d="M1180.23 49.7694 Q1171.2 49.7694 1167.72 51.8354 Q1164.23 53.9013 1164.23 58.8839 Q1164.23 62.8538 1166.83 65.2034 Q1169.46 67.5124 1173.95 67.5124 Q1180.15 67.5124 1183.88 63.1374 Q1187.65 58.7219 1187.65 51.4303 L1187.65 49.7694 L1180.23 49.7694 M1195.1 46.6907 L1195.1 72.576 L1187.65 72.576 L1187.65 65.6895 Q1185.09 69.8214 1181.29 71.8063 Q1177.48 73.7508 1171.97 73.7508 Q1165 73.7508 1160.87 69.8619 Q1156.78 65.9325 1156.78 59.3701 Q1156.78 51.7138 1161.88 47.825 Q1167.03 43.9361 1177.2 43.9361 L1187.65 43.9361 L1187.65 43.2069 Q1187.65 38.0623 1184.24 35.2672 Q1180.88 32.4315 1174.76 32.4315 Q1170.88 32.4315 1167.19 33.3632 Q1163.5 34.295 1160.1 36.1584 L1160.1 29.2718 Q1164.19 27.692 1168.04 26.9223 Q1171.89 26.1121 1175.53 26.1121 Q1185.38 26.1121 1190.24 31.2163 Q1195.1 36.3204 1195.1 46.6907 Z" fill="#000000" fill-rule="nonzero" fill-opacity="1" /><path clip-path="url(#clip810)" d="M1217.83 14.324 L1217.83 27.2059 L1233.18 27.2059 L1233.18 32.9987 L1217.83 32.9987 L1217.83 57.6282 Q1217.83 63.1779 1219.32 64.7578 Q1220.86 66.3376 1225.52 66.3376 L1233.18 66.3376 L1233.18 72.576 L1225.52 72.576 Q1216.89 72.576 1213.61 69.3758 Q1210.33 66.1351 1210.33 57.6282 L1210.33 32.9987 L1204.86 32.9987 L1204.86 27.2059 L1210.33 27.2059 L1210.33 14.324 L1217.83 14.324 Z" fill="#000000" fill-rule="nonzero" fill-opacity="1" /><path clip-path="url(#clip810)" d="M1307.07 45.1919 L1307.07 72.576 L1299.61 72.576 L1299.61 45.4349 Q1299.61 38.994 1297.1 35.7938 Q1294.59 32.5936 1289.57 32.5936 Q1283.53 32.5936 1280.05 36.4419 Q1276.56 40.2903 1276.56 46.9338 L1276.56 72.576 L1269.07 72.576 L1269.07 27.2059 L1276.56 27.2059 L1276.56 34.2544 Q1279.24 30.163 1282.84 28.1376 Q1286.49 26.1121 1291.23 26.1121 Q1299.05 26.1121 1303.06 30.9732 Q1307.07 35.7938 1307.07 45.1919 Z" fill="#000000" fill-rule="nonzero" fill-opacity="1" /><path clip-path="url(#clip810)" d="M1360.74 48.0275 L1360.74 51.6733 L1326.47 51.6733 Q1326.96 59.3701 1331.09 63.421 Q1335.26 67.4314 1342.67 67.4314 Q1346.97 67.4314 1350.98 66.3781 Q1355.03 65.3249 1359 63.2184 L1359 70.267 Q1354.99 71.9684 1350.78 72.8596 Q1346.56 73.7508 1342.23 73.7508 Q1331.37 73.7508 1325.01 67.4314 Q1318.69 61.1119 1318.69 50.3365 Q1318.69 39.1965 1324.69 32.6746 Q1330.72 26.1121 1340.93 26.1121 Q1350.09 26.1121 1355.39 32.0264 Q1360.74 37.9003 1360.74 48.0275 M1353.29 45.84 Q1353.21 39.7232 1349.84 36.0774 Q1346.52 32.4315 1341.01 32.4315 Q1334.78 32.4315 1331.01 35.9558 Q1327.28 39.4801 1326.71 45.8805 L1353.29 45.84 Z" fill="#000000" fill-rule="nonzero" fill-opacity="1" /><path clip-path="url(#clip810)" d="M1368.64 27.2059 L1376.09 27.2059 L1385.41 62.6108 L1394.69 27.2059 L1403.48 27.2059 L1412.8 62.6108 L1422.07 27.2059 L1429.53 27.2059 L1417.66 72.576 L1408.87 72.576 L1399.1 35.3887 L1389.3 72.576 L1380.51 72.576 L1368.64 27.2059 Z" fill="#000000" fill-rule="nonzero" fill-opacity="1" /><path clip-path="url(#clip810)" d="M1497.05 34.0924 L1497.05 9.54393 L1504.51 9.54393 L1504.51 72.576 L1497.05 72.576 L1497.05 65.7705 Q1494.71 69.8214 1491.1 71.8063 Q1487.54 73.7508 1482.51 73.7508 Q1474.29 73.7508 1469.1 67.1883 Q1463.96 60.6258 1463.96 49.9314 Q1463.96 39.2371 1469.1 32.6746 Q1474.29 26.1121 1482.51 26.1121 Q1487.54 26.1121 1491.1 28.0971 Q1494.71 30.0415 1497.05 34.0924 M1471.66 49.9314 Q1471.66 58.1548 1475.02 62.8538 Q1478.42 67.5124 1484.33 67.5124 Q1490.25 67.5124 1493.65 62.8538 Q1497.05 58.1548 1497.05 49.9314 Q1497.05 41.7081 1493.65 37.0496 Q1490.25 32.3505 1484.33 32.3505 Q1478.42 32.3505 1475.02 37.0496 Q1471.66 41.7081 1471.66 49.9314 Z" fill="#000000" fill-rule="nonzero" fill-opacity="1" /><path clip-path="url(#clip810)" d="M1540.48 49.7694 Q1531.45 49.7694 1527.96 51.8354 Q1524.48 53.9013 1524.48 58.8839 Q1524.48 62.8538 1527.07 65.2034 Q1529.71 67.5124 1534.2 67.5124 Q1540.4 67.5124 1544.13 63.1374 Q1547.89 58.7219 1547.89 51.4303 L1547.89 49.7694 L1540.48 49.7694 M1555.35 46.6907 L1555.35 72.576 L1547.89 72.576 L1547.89 65.6895 Q1545.34 69.8214 1541.53 71.8063 Q1537.73 73.7508 1532.22 73.7508 Q1525.25 73.7508 1521.12 69.8619 Q1517.03 65.9325 1517.03 59.3701 Q1517.03 51.7138 1522.13 47.825 Q1527.27 43.9361 1537.44 43.9361 L1547.89 43.9361 L1547.89 43.2069 Q1547.89 38.0623 1544.49 35.2672 Q1541.13 32.4315 1535.01 32.4315 Q1531.12 32.4315 1527.44 33.3632 Q1523.75 34.295 1520.35 36.1584 L1520.35 29.2718 Q1524.44 27.692 1528.29 26.9223 Q1532.14 26.1121 1535.78 26.1121 Q1545.63 26.1121 1550.49 31.2163 Q1555.35 36.3204 1555.35 46.6907 Z" fill="#000000" fill-rule="nonzero" fill-opacity="1" /><path clip-path="url(#clip810)" d="M1578.07 14.324 L1578.07 27.2059 L1593.43 27.2059 L1593.43 32.9987 L1578.07 32.9987 L1578.07 57.6282 Q1578.07 63.1779 1579.57 64.7578 Q1581.11 66.3376 1585.77 66.3376 L1593.43 66.3376 L1593.43 72.576 L1585.77 72.576 Q1577.14 72.576 1573.86 69.3758 Q1570.58 66.1351 1570.58 57.6282 L1570.58 32.9987 L1565.11 32.9987 L1565.11 27.2059 L1570.58 27.2059 L1570.58 14.324 L1578.07 14.324 Z" fill="#000000" fill-rule="nonzero" fill-opacity="1" /><path clip-path="url(#clip810)" d="M1623.85 49.7694 Q1614.81 49.7694 1611.33 51.8354 Q1607.85 53.9013 1607.85 58.8839 Q1607.85 62.8538 1610.44 65.2034 Q1613.07 67.5124 1617.57 67.5124 Q1623.77 67.5124 1627.49 63.1374 Q1631.26 58.7219 1631.26 51.4303 L1631.26 49.7694 L1623.85 49.7694 M1638.71 46.6907 L1638.71 72.576 L1631.26 72.576 L1631.26 65.6895 Q1628.71 69.8214 1624.9 71.8063 Q1621.09 73.7508 1615.58 73.7508 Q1608.62 73.7508 1604.48 69.8619 Q1600.39 65.9325 1600.39 59.3701 Q1600.39 51.7138 1605.5 47.825 Q1610.64 43.9361 1620.81 43.9361 L1631.26 43.9361 L1631.26 43.2069 Q1631.26 38.0623 1627.86 35.2672 Q1624.5 32.4315 1618.38 32.4315 Q1614.49 32.4315 1610.8 33.3632 Q1607.12 34.295 1603.72 36.1584 L1603.72 29.2718 Q1607.81 27.692 1611.65 26.9223 Q1615.5 26.1121 1619.15 26.1121 Q1628.99 26.1121 1633.85 31.2163 Q1638.71 36.3204 1638.71 46.6907 Z" fill="#000000" fill-rule="nonzero" fill-opacity="1" /><path clip-path="url(#clip811)" d="M303.464 712.338 L338.362 660.523 L373.259 612.243 L408.157 572.151 L443.055 538.879 L477.953 507.198 L512.851 475.66 L547.748 447.644 L582.646 424.04 L617.544 403.987 L652.442 390.972 L687.34 385.099 L722.237 383.506 L757.135 387.999 L792.033 396.188 L826.931 405.3 L861.829 418.656 L896.726 437.415 L931.624 458.948 L966.522 484.346 L1001.42 516.875 L1036.32 556.048 L1071.22 598.562 L1106.11 643.044 L1141.01 689.891 L1175.91 737.758 L1210.81 782.254 L1245.7 819.33 L1280.6 850.777 L1315.5 879.302 L1350.4 905.26 L1385.3 927.18 L1420.19 945.169 L1455.09 962.643 L1489.99 978.999 L1524.89 989.964 L1559.78 996.13 L1594.68 998.325 L1629.58 992.85 L1664.48 978.706 L1699.38 961.171 L1734.27 941.634 L1769.17 918.717 L1804.07 894.087 L1838.97 867.971 L1873.86 836.996 L1908.76 801.441 L1943.66 766.676 L1978.56 736.263 L2013.46 717.277 L2013.46 598.399 L1978.56 650.076 L1943.66 693.699 L1908.76 730.276 L1873.86 761.166 L1838.97 789.698 L1804.07 816.534 L1769.17 839.781 L1734.27 861.158 L1699.38 882.975 L1664.48 900.821 L1629.58 912.043 L1594.68 918.245 L1559.78 918.496 L1524.89 911.347 L1489.99 899.901 L1455.09 886.698 L1420.19 868.646 L1385.3 846.207 L1350.4 823.374 L1315.5 799.072 L1280.6 770.247 L1245.7 735.669 L1210.81 696.464 L1175.91 653.886 L1141.01 607.776 L1106.11 558.805 L1071.22 510.69 L1036.32 468.86 L1001.42 434.889 L966.522 404.983 L931.624 377.846 L896.726 355.935 L861.829 339.627 L826.931 325.738 L792.033 314.896 L757.135 310.042 L722.237 309.159 L687.34 311.135 L652.442 319.021 L617.544 330.86 L582.646 347.35 L547.748 370.848 L512.851 397.49 L477.953 425.067 L443.055 454.013 L408.157 481.685 L373.259 502.759 L338.362 515.794 L303.464 523.214  Z" fill="#009af9" fill-rule="evenodd" fill-opacity="0.2"/>
<polyline clip-path="url(#clip811)" style="stroke:#009af9; stroke-linecap:round; stroke-linejoin:round; stroke-width:8; stroke-opacity:1; fill:none" points="303.464,617.776 338.362,588.158 373.259,557.501 408.157,526.918 443.055,496.446 477.953,466.132 512.851,436.575 547.748,409.246 582.646,385.695 617.544,367.423 652.442,354.997 687.34,348.117 722.237,346.333 757.135,349.02 792.033,355.542 826.931,365.519 861.829,379.141 896.726,396.675 931.624,418.397 966.522,444.664 1001.42,475.882 1036.32,512.454 1071.22,554.626 1106.11,600.925 1141.01,648.834 1175.91,695.822 1210.81,739.359 1245.7,777.5 1280.6,810.512 1315.5,839.187 1350.4,864.317 1385.3,886.693 1420.19,906.908 1455.09,924.671 1489.99,939.45 1524.89,950.655 1559.78,957.313 1594.68,958.285 1629.58,952.446 1664.48,939.763 1699.38,922.073 1734.27,901.396 1769.17,879.249 1804.07,855.31 1838.97,828.835 1873.86,799.081 1908.76,765.859 1943.66,730.188 1978.56,693.169 2013.46,657.838 "/>
<circle clip-path="url(#clip811)" cx="304.687" cy="581.976" r="7.2" fill="#808080" fill-rule="evenodd" fill-opacity="0.3" stroke="#000000" stroke-opacity="0.3" stroke-width="2.688"/>
<circle clip-path="url(#clip811)" cx="330.986" cy="557.267" r="7.2" fill="#808080" fill-rule="evenodd" fill-opacity="0.3" stroke="#000000" stroke-opacity="0.3" stroke-width="2.688"/>
<circle clip-path="url(#clip811)" cx="349.608" cy="616.055" r="7.2" fill="#808080" fill-rule="evenodd" fill-opacity="0.3" stroke="#000000" stroke-opacity="0.3" stroke-width="2.688"/>
<circle clip-path="url(#clip811)" cx="366.678" cy="635.174" r="7.2" fill="#808080" fill-rule="evenodd" fill-opacity="0.3" stroke="#000000" stroke-opacity="0.3" stroke-width="2.688"/>
<circle clip-path="url(#clip811)" cx="376.109" cy="451.125" r="7.2" fill="#808080" fill-rule="evenodd" fill-opacity="0.3" stroke="#000000" stroke-opacity="0.3" stroke-width="2.688"/>
<circle clip-path="url(#clip811)" cx="386.371" cy="560.28" r="7.2" fill="#808080" fill-rule="evenodd" fill-opacity="0.3" stroke="#000000" stroke-opacity="0.3" stroke-width="2.688"/>
<circle clip-path="url(#clip811)" cx="391.218" cy="576.123" r="7.2" fill="#808080" fill-rule="evenodd" fill-opacity="0.3" stroke="#000000" stroke-opacity="0.3" stroke-width="2.688"/>
<circle clip-path="url(#clip811)" cx="398.023" cy="493.609" r="7.2" fill="#808080" fill-rule="evenodd" fill-opacity="0.3" stroke="#000000" stroke-opacity="0.3" stroke-width="2.688"/>
<circle clip-path="url(#clip811)" cx="404.026" cy="668.074" r="7.2" fill="#808080" fill-rule="evenodd" fill-opacity="0.3" stroke="#000000" stroke-opacity="0.3" stroke-width="2.688"/>
<circle clip-path="url(#clip811)" cx="406.822" cy="430.624" r="7.2" fill="#808080" fill-rule="evenodd" fill-opacity="0.3" stroke="#000000" stroke-opacity="0.3" stroke-width="2.688"/>
<circle clip-path="url(#clip811)" cx="427.713" cy="702.812" r="7.2" fill="#808080" fill-rule="evenodd" fill-opacity="0.3" stroke="#000000" stroke-opacity="0.3" stroke-width="2.688"/>
<circle clip-path="url(#clip811)" cx="455.779" cy="391.591" r="7.2" fill="#808080" fill-rule="evenodd" fill-opacity="0.3" stroke="#000000" stroke-opacity="0.3" stroke-width="2.688"/>
<circle clip-path="url(#clip811)" cx="460.073" cy="452.918" r="7.2" fill="#808080" fill-rule="evenodd" fill-opacity="0.3" stroke="#000000" stroke-opacity="0.3" stroke-width="2.688"/>
<circle clip-path="url(#clip811)" cx="464.941" cy="445.527" r="7.2" fill="#808080" fill-rule="evenodd" fill-opacity="0.3" stroke="#000000" stroke-opacity="0.3" stroke-width="2.688"/>
<circle clip-path="url(#clip811)" cx="465.939" cy="615.683" r="7.2" fill="#808080" fill-rule="evenodd" fill-opacity="0.3" stroke="#000000" stroke-opacity="0.3" stroke-width="2.688"/>
<circle clip-path="url(#clip811)" cx="468.957" cy="575.471" r="7.2" fill="#808080" fill-rule="evenodd" fill-opacity="0.3" stroke="#000000" stroke-opacity="0.3" stroke-width="2.688"/>
<circle clip-path="url(#clip811)" cx="482.94" cy="507.428" r="7.2" fill="#808080" fill-rule="evenodd" fill-opacity="0.3" stroke="#000000" stroke-opacity="0.3" stroke-width="2.688"/>
<circle clip-path="url(#clip811)" cx="495.147" cy="326.42" r="7.2" fill="#808080" fill-rule="evenodd" fill-opacity="0.3" stroke="#000000" stroke-opacity="0.3" stroke-width="2.688"/>
<circle clip-path="url(#clip811)" cx="503.958" cy="392.908" r="7.2" fill="#808080" fill-rule="evenodd" fill-opacity="0.3" stroke="#000000" stroke-opacity="0.3" stroke-width="2.688"/>
<circle clip-path="url(#clip811)" cx="504.099" cy="484.968" r="7.2" fill="#808080" fill-rule="evenodd" fill-opacity="0.3" stroke="#000000" stroke-opacity="0.3" stroke-width="2.688"/>
<circle clip-path="url(#clip811)" cx="508.934" cy="444.758" r="7.2" fill="#808080" fill-rule="evenodd" fill-opacity="0.3" stroke="#000000" stroke-opacity="0.3" stroke-width="2.688"/>
<circle clip-path="url(#clip811)" cx="531.405" cy="243.011" r="7.2" fill="#808080" fill-rule="evenodd" fill-opacity="0.3" stroke="#000000" stroke-opacity="0.3" stroke-width="2.688"/>
<circle clip-path="url(#clip811)" cx="532.412" cy="437.604" r="7.2" fill="#808080" fill-rule="evenodd" fill-opacity="0.3" stroke="#000000" stroke-opacity="0.3" stroke-width="2.688"/>
<circle clip-path="url(#clip811)" cx="538.291" cy="325.811" r="7.2" fill="#808080" fill-rule="evenodd" fill-opacity="0.3" stroke="#000000" stroke-opacity="0.3" stroke-width="2.688"/>
<circle clip-path="url(#clip811)" cx="546.886" cy="447.093" r="7.2" fill="#808080" fill-rule="evenodd" fill-opacity="0.3" stroke="#000000" stroke-opacity="0.3" stroke-width="2.688"/>
<circle clip-path="url(#clip811)" cx="583.106" cy="417.532" r="7.2" fill="#808080" fill-rule="evenodd" fill-opacity="0.3" stroke="#000000" stroke-opacity="0.3" stroke-width="2.688"/>
<circle clip-path="url(#clip811)" cx="588.073" cy="418.005" r="7.2" fill="#808080" fill-rule="evenodd" fill-opacity="0.3" stroke="#000000" stroke-opacity="0.3" stroke-width="2.688"/>
<circle clip-path="url(#clip811)" cx="591.463" cy="478.968" r="7.2" fill="#808080" fill-rule="evenodd" fill-opacity="0.3" stroke="#000000" stroke-opacity="0.3" stroke-width="2.688"/>
<circle clip-path="url(#clip811)" cx="597.943" cy="294.77" r="7.2" fill="#808080" fill-rule="evenodd" fill-opacity="0.3" stroke="#000000" stroke-opacity="0.3" stroke-width="2.688"/>
<circle clip-path="url(#clip811)" cx="600.275" cy="588.547" r="7.2" fill="#808080" fill-rule="evenodd" fill-opacity="0.3" stroke="#000000" stroke-opacity="0.3" stroke-width="2.688"/>
<circle clip-path="url(#clip811)" cx="615.191" cy="234.757" r="7.2" fill="#808080" fill-rule="evenodd" fill-opacity="0.3" stroke="#000000" stroke-opacity="0.3" stroke-width="2.688"/>
<circle clip-path="url(#clip811)" cx="615.634" cy="312.819" r="7.2" fill="#808080" fill-rule="evenodd" fill-opacity="0.3" stroke="#000000" stroke-opacity="0.3" stroke-width="2.688"/>
<circle clip-path="url(#clip811)" cx="617.126" cy="317.486" r="7.2" fill="#808080" fill-rule="evenodd" fill-opacity="0.3" stroke="#000000" stroke-opacity="0.3" stroke-width="2.688"/>
<circle clip-path="url(#clip811)" cx="630.538" cy="418.904" r="7.2" fill="#808080" fill-rule="evenodd" fill-opacity="0.3" stroke="#000000" stroke-opacity="0.3" stroke-width="2.688"/>
<circle clip-path="url(#clip811)" cx="630.758" cy="267.059" r="7.2" fill="#808080" fill-rule="evenodd" fill-opacity="0.3" stroke="#000000" stroke-opacity="0.3" stroke-width="2.688"/>
<circle clip-path="url(#clip811)" cx="631.579" cy="339.449" r="7.2" fill="#808080" fill-rule="evenodd" fill-opacity="0.3" stroke="#000000" stroke-opacity="0.3" stroke-width="2.688"/>
<circle clip-path="url(#clip811)" cx="634.34" cy="382.695" r="7.2" fill="#808080" fill-rule="evenodd" fill-opacity="0.3" stroke="#000000" stroke-opacity="0.3" stroke-width="2.688"/>
<circle clip-path="url(#clip811)" cx="642.179" cy="378.415" r="7.2" fill="#808080" fill-rule="evenodd" fill-opacity="0.3" stroke="#000000" stroke-opacity="0.3" stroke-width="2.688"/>
<circle clip-path="url(#clip811)" cx="643.913" cy="285.95" r="7.2" fill="#808080" fill-rule="evenodd" fill-opacity="0.3" stroke="#000000" stroke-opacity="0.3" stroke-width="2.688"/>
<circle clip-path="url(#clip811)" cx="644.124" cy="397.702" r="7.2" fill="#808080" fill-rule="evenodd" fill-opacity="0.3" stroke="#000000" stroke-opacity="0.3" stroke-width="2.688"/>
<circle clip-path="url(#clip811)" cx="659.603" cy="353.403" r="7.2" fill="#808080" fill-rule="evenodd" fill-opacity="0.3" stroke="#000000" stroke-opacity="0.3" stroke-width="2.688"/>
<circle clip-path="url(#clip811)" cx="661.675" cy="293.154" r="7.2" fill="#808080" fill-rule="evenodd" fill-opacity="0.3" stroke="#000000" stroke-opacity="0.3" stroke-width="2.688"/>
<circle clip-path="url(#clip811)" cx="664.663" cy="325.048" r="7.2" fill="#808080" fill-rule="evenodd" fill-opacity="0.3" stroke="#000000" stroke-opacity="0.3" stroke-width="2.688"/>
<circle clip-path="url(#clip811)" cx="679.884" cy="266.013" r="7.2" fill="#808080" fill-rule="evenodd" fill-opacity="0.3" stroke="#000000" stroke-opacity="0.3" stroke-width="2.688"/>
<circle clip-path="url(#clip811)" cx="686.867" cy="489.97" r="7.2" fill="#808080" fill-rule="evenodd" fill-opacity="0.3" stroke="#000000" stroke-opacity="0.3" stroke-width="2.688"/>
<circle clip-path="url(#clip811)" cx="696.884" cy="454.101" r="7.2" fill="#808080" fill-rule="evenodd" fill-opacity="0.3" stroke="#000000" stroke-opacity="0.3" stroke-width="2.688"/>
<circle clip-path="url(#clip811)" cx="703.221" cy="253.046" r="7.2" fill="#808080" fill-rule="evenodd" fill-opacity="0.3" stroke="#000000" stroke-opacity="0.3" stroke-width="2.688"/>
<circle clip-path="url(#clip811)" cx="704.498" cy="414.942" r="7.2" fill="#808080" fill-rule="evenodd" fill-opacity="0.3" stroke="#000000" stroke-opacity="0.3" stroke-width="2.688"/>
<circle clip-path="url(#clip811)" cx="715.521" cy="491.708" r="7.2" fill="#808080" fill-rule="evenodd" fill-opacity="0.3" stroke="#000000" stroke-opacity="0.3" stroke-width="2.688"/>
<circle clip-path="url(#clip811)" cx="730.247" cy="198.613" r="7.2" fill="#808080" fill-rule="evenodd" fill-opacity="0.3" stroke="#000000" stroke-opacity="0.3" stroke-width="2.688"/>
<circle clip-path="url(#clip811)" cx="733.388" cy="238.555" r="7.2" fill="#808080" fill-rule="evenodd" fill-opacity="0.3" stroke="#000000" stroke-opacity="0.3" stroke-width="2.688"/>
<circle clip-path="url(#clip811)" cx="744.938" cy="366.309" r="7.2" fill="#808080" fill-rule="evenodd" fill-opacity="0.3" stroke="#000000" stroke-opacity="0.3" stroke-width="2.688"/>
<circle clip-path="url(#clip811)" cx="745.086" cy="367.254" r="7.2" fill="#808080" fill-rule="evenodd" fill-opacity="0.3" stroke="#000000" stroke-opacity="0.3" stroke-width="2.688"/>
<circle clip-path="url(#clip811)" cx="745.643" cy="352.92" r="7.2" fill="#808080" fill-rule="evenodd" fill-opacity="0.3" stroke="#000000" stroke-opacity="0.3" stroke-width="2.688"/>
<circle clip-path="url(#clip811)" cx="753.445" cy="485.107" r="7.2" fill="#808080" fill-rule="evenodd" fill-opacity="0.3" stroke="#000000" stroke-opacity="0.3" stroke-width="2.688"/>
<circle clip-path="url(#clip811)" cx="758.307" cy="150.518" r="7.2" fill="#808080" fill-rule="evenodd" fill-opacity="0.3" stroke="#000000" stroke-opacity="0.3" stroke-width="2.688"/>
<circle clip-path="url(#clip811)" cx="782.677" cy="322.181" r="7.2" fill="#808080" fill-rule="evenodd" fill-opacity="0.3" stroke="#000000" stroke-opacity="0.3" stroke-width="2.688"/>
<circle clip-path="url(#clip811)" cx="785.438" cy="372.877" r="7.2" fill="#808080" fill-rule="evenodd" fill-opacity="0.3" stroke="#000000" stroke-opacity="0.3" stroke-width="2.688"/>
<circle clip-path="url(#clip811)" cx="796.655" cy="429.299" r="7.2" fill="#808080" fill-rule="evenodd" fill-opacity="0.3" stroke="#000000" stroke-opacity="0.3" stroke-width="2.688"/>
<circle clip-path="url(#clip811)" cx="819.758" cy="278.887" r="7.2" fill="#808080" fill-rule="evenodd" fill-opacity="0.3" stroke="#000000" stroke-opacity="0.3" stroke-width="2.688"/>
<circle clip-path="url(#clip811)" cx="830.951" cy="328.788" r="7.2" fill="#808080" fill-rule="evenodd" fill-opacity="0.3" stroke="#000000" stroke-opacity="0.3" stroke-width="2.688"/>
<circle clip-path="url(#clip811)" cx="834.924" cy="438.044" r="7.2" fill="#808080" fill-rule="evenodd" fill-opacity="0.3" stroke="#000000" stroke-opacity="0.3" stroke-width="2.688"/>
<circle clip-path="url(#clip811)" cx="844.612" cy="502.737" r="7.2" fill="#808080" fill-rule="evenodd" fill-opacity="0.3" stroke="#000000" stroke-opacity="0.3" stroke-width="2.688"/>
<circle clip-path="url(#clip811)" cx="853.503" cy="437.109" r="7.2" fill="#808080" fill-rule="evenodd" fill-opacity="0.3" stroke="#000000" stroke-opacity="0.3" stroke-width="2.688"/>
<circle clip-path="url(#clip811)" cx="865.261" cy="451.024" r="7.2" fill="#808080" fill-rule="evenodd" fill-opacity="0.3" stroke="#000000" stroke-opacity="0.3" stroke-width="2.688"/>
<circle clip-path="url(#clip811)" cx="878.153" cy="332.476" r="7.2" fill="#808080" fill-rule="evenodd" fill-opacity="0.3" stroke="#000000" stroke-opacity="0.3" stroke-width="2.688"/>
<circle clip-path="url(#clip811)" cx="879.702" cy="368.718" r="7.2" fill="#808080" fill-rule="evenodd" fill-opacity="0.3" stroke="#000000" stroke-opacity="0.3" stroke-width="2.688"/>
<circle clip-path="url(#clip811)" cx="889.909" cy="394.271" r="7.2" fill="#808080" fill-rule="evenodd" fill-opacity="0.3" stroke="#000000" stroke-opacity="0.3" stroke-width="2.688"/>
<circle clip-path="url(#clip811)" cx="893.624" cy="441.027" r="7.2" fill="#808080" fill-rule="evenodd" fill-opacity="0.3" stroke="#000000" stroke-opacity="0.3" stroke-width="2.688"/>
<circle clip-path="url(#clip811)" cx="897.7" cy="354.45" r="7.2" fill="#808080" fill-rule="evenodd" fill-opacity="0.3" stroke="#000000" stroke-opacity="0.3" stroke-width="2.688"/>
<circle clip-path="url(#clip811)" cx="902.672" cy="338.139" r="7.2" fill="#808080" fill-rule="evenodd" fill-opacity="0.3" stroke="#000000" stroke-opacity="0.3" stroke-width="2.688"/>
<circle clip-path="url(#clip811)" cx="904.465" cy="518.958" r="7.2" fill="#808080" fill-rule="evenodd" fill-opacity="0.3" stroke="#000000" stroke-opacity="0.3" stroke-width="2.688"/>
<circle clip-path="url(#clip811)" cx="935.033" cy="309.74" r="7.2" fill="#808080" fill-rule="evenodd" fill-opacity="0.3" stroke="#000000" stroke-opacity="0.3" stroke-width="2.688"/>
<circle clip-path="url(#clip811)" cx="942.458" cy="432.521" r="7.2" fill="#808080" fill-rule="evenodd" fill-opacity="0.3" stroke="#000000" stroke-opacity="0.3" stroke-width="2.688"/>
<circle clip-path="url(#clip811)" cx="963.148" cy="477.803" r="7.2" fill="#808080" fill-rule="evenodd" fill-opacity="0.3" stroke="#000000" stroke-opacity="0.3" stroke-width="2.688"/>
<circle clip-path="url(#clip811)" cx="968.599" cy="489.435" r="7.2" fill="#808080" fill-rule="evenodd" fill-opacity="0.3" stroke="#000000" stroke-opacity="0.3" stroke-width="2.688"/>
<circle clip-path="url(#clip811)" cx="971.495" cy="493.801" r="7.2" fill="#808080" fill-rule="evenodd" fill-opacity="0.3" stroke="#000000" stroke-opacity="0.3" stroke-width="2.688"/>
<circle clip-path="url(#clip811)" cx="980.287" cy="381.158" r="7.2" fill="#808080" fill-rule="evenodd" fill-opacity="0.3" stroke="#000000" stroke-opacity="0.3" stroke-width="2.688"/>
<circle clip-path="url(#clip811)" cx="988.099" cy="385.471" r="7.2" fill="#808080" fill-rule="evenodd" fill-opacity="0.3" stroke="#000000" stroke-opacity="0.3" stroke-width="2.688"/>
<circle clip-path="url(#clip811)" cx="991.257" cy="265.546" r="7.2" fill="#808080" fill-rule="evenodd" fill-opacity="0.3" stroke="#000000" stroke-opacity="0.3" stroke-width="2.688"/>
<circle clip-path="url(#clip811)" cx="1013.24" cy="436.477" r="7.2" fill="#808080" fill-rule="evenodd" fill-opacity="0.3" stroke="#000000" stroke-opacity="0.3" stroke-width="2.688"/>
<circle clip-path="url(#clip811)" cx="1013.77" cy="662.088" r="7.2" fill="#808080" fill-rule="evenodd" fill-opacity="0.3" stroke="#000000" stroke-opacity="0.3" stroke-width="2.688"/>
<circle clip-path="url(#clip811)" cx="1017.04" cy="649.289" r="7.2" fill="#808080" fill-rule="evenodd" fill-opacity="0.3" stroke="#000000" stroke-opacity="0.3" stroke-width="2.688"/>
<circle clip-path="url(#clip811)" cx="1026.36" cy="301.707" r="7.2" fill="#808080" fill-rule="evenodd" fill-opacity="0.3" stroke="#000000" stroke-opacity="0.3" stroke-width="2.688"/>
<circle clip-path="url(#clip811)" cx="1026.55" cy="512.425" r="7.2" fill="#808080" fill-rule="evenodd" fill-opacity="0.3" stroke="#000000" stroke-opacity="0.3" stroke-width="2.688"/>
<circle clip-path="url(#clip811)" cx="1045.45" cy="522.21" r="7.2" fill="#808080" fill-rule="evenodd" fill-opacity="0.3" stroke="#000000" stroke-opacity="0.3" stroke-width="2.688"/>
<circle clip-path="url(#clip811)" cx="1051.45" cy="423.745" r="7.2" fill="#808080" fill-rule="evenodd" fill-opacity="0.3" stroke="#000000" stroke-opacity="0.3" stroke-width="2.688"/>
<circle clip-path="url(#clip811)" cx="1077.67" cy="508.272" r="7.2" fill="#808080" fill-rule="evenodd" fill-opacity="0.3" stroke="#000000" stroke-opacity="0.3" stroke-width="2.688"/>
<circle clip-path="url(#clip811)" cx="1110.54" cy="702.475" r="7.2" fill="#808080" fill-rule="evenodd" fill-opacity="0.3" stroke="#000000" stroke-opacity="0.3" stroke-width="2.688"/>
<circle clip-path="url(#clip811)" cx="1129.43" cy="626.76" r="7.2" fill="#808080" fill-rule="evenodd" fill-opacity="0.3" stroke="#000000" stroke-opacity="0.3" stroke-width="2.688"/>
<circle clip-path="url(#clip811)" cx="1133.9" cy="617.321" r="7.2" fill="#808080" fill-rule="evenodd" fill-opacity="0.3" stroke="#000000" stroke-opacity="0.3" stroke-width="2.688"/>
<circle clip-path="url(#clip811)" cx="1163.31" cy="600.03" r="7.2" fill="#808080" fill-rule="evenodd" fill-opacity="0.3" stroke="#000000" stroke-opacity="0.3" stroke-width="2.688"/>
<circle clip-path="url(#clip811)" cx="1165.33" cy="598.705" r="7.2" fill="#808080" fill-rule="evenodd" fill-opacity="0.3" stroke="#000000" stroke-opacity="0.3" stroke-width="2.688"/>
<circle clip-path="url(#clip811)" cx="1166.06" cy="714.196" r="7.2" fill="#808080" fill-rule="evenodd" fill-opacity="0.3" stroke="#000000" stroke-opacity="0.3" stroke-width="2.688"/>
<circle clip-path="url(#clip811)" cx="1177.71" cy="681.2" r="7.2" fill="#808080" fill-rule="evenodd" fill-opacity="0.3" stroke="#000000" stroke-opacity="0.3" stroke-width="2.688"/>
<circle clip-path="url(#clip811)" cx="1178.13" cy="894.38" r="7.2" fill="#808080" fill-rule="evenodd" fill-opacity="0.3" stroke="#000000" stroke-opacity="0.3" stroke-width="2.688"/>
<circle clip-path="url(#clip811)" cx="1184.53" cy="637.65" r="7.2" fill="#808080" fill-rule="evenodd" fill-opacity="0.3" stroke="#000000" stroke-opacity="0.3" stroke-width="2.688"/>
<circle clip-path="url(#clip811)" cx="1202.26" cy="885.22" r="7.2" fill="#808080" fill-rule="evenodd" fill-opacity="0.3" stroke="#000000" stroke-opacity="0.3" stroke-width="2.688"/>
<circle clip-path="url(#clip811)" cx="1204.66" cy="779.591" r="7.2" fill="#808080" fill-rule="evenodd" fill-opacity="0.3" stroke="#000000" stroke-opacity="0.3" stroke-width="2.688"/>
<circle clip-path="url(#clip811)" cx="1209.75" cy="750.562" r="7.2" fill="#808080" fill-rule="evenodd" fill-opacity="0.3" stroke="#000000" stroke-opacity="0.3" stroke-width="2.688"/>
<circle clip-path="url(#clip811)" cx="1210.55" cy="748.661" r="7.2" fill="#808080" fill-rule="evenodd" fill-opacity="0.3" stroke="#000000" stroke-opacity="0.3" stroke-width="2.688"/>
<circle clip-path="url(#clip811)" cx="1231.87" cy="787.74" r="7.2" fill="#808080" fill-rule="evenodd" fill-opacity="0.3" stroke="#000000" stroke-opacity="0.3" stroke-width="2.688"/>
<circle clip-path="url(#clip811)" cx="1235" cy="750.092" r="7.2" fill="#808080" fill-rule="evenodd" fill-opacity="0.3" stroke="#000000" stroke-opacity="0.3" stroke-width="2.688"/>
<circle clip-path="url(#clip811)" cx="1237.76" cy="833.545" r="7.2" fill="#808080" fill-rule="evenodd" fill-opacity="0.3" stroke="#000000" stroke-opacity="0.3" stroke-width="2.688"/>
<circle clip-path="url(#clip811)" cx="1265.75" cy="805.163" r="7.2" fill="#808080" fill-rule="evenodd" fill-opacity="0.3" stroke="#000000" stroke-opacity="0.3" stroke-width="2.688"/>
<circle clip-path="url(#clip811)" cx="1295.62" cy="795.132" r="7.2" fill="#808080" fill-rule="evenodd" fill-opacity="0.3" stroke="#000000" stroke-opacity="0.3" stroke-width="2.688"/>
<circle clip-path="url(#clip811)" cx="1301.37" cy="769.457" r="7.2" fill="#808080" fill-rule="evenodd" fill-opacity="0.3" stroke="#000000" stroke-opacity="0.3" stroke-width="2.688"/>
<circle clip-path="url(#clip811)" cx="1312.6" cy="731.574" r="7.2" fill="#808080" fill-rule="evenodd" fill-opacity="0.3" stroke="#000000" stroke-opacity="0.3" stroke-width="2.688"/>
<circle clip-path="url(#clip811)" cx="1324.33" cy="846.774" r="7.2" fill="#808080" fill-rule="evenodd" fill-opacity="0.3" stroke="#000000" stroke-opacity="0.3" stroke-width="2.688"/>
<circle clip-path="url(#clip811)" cx="1336.29" cy="942.618" r="7.2" fill="#808080" fill-rule="evenodd" fill-opacity="0.3" stroke="#000000" stroke-opacity="0.3" stroke-width="2.688"/>
<circle clip-path="url(#clip811)" cx="1363.2" cy="780.956" r="7.2" fill="#808080" fill-rule="evenodd" fill-opacity="0.3" stroke="#000000" stroke-opacity="0.3" stroke-width="2.688"/>
<circle clip-path="url(#clip811)" cx="1368.19" cy="895.639" r="7.2" fill="#808080" fill-rule="evenodd" fill-opacity="0.3" stroke="#000000" stroke-opacity="0.3" stroke-width="2.688"/>
<circle clip-path="url(#clip811)" cx="1371.26" cy="1129.3" r="7.2" fill="#808080" fill-rule="evenodd" fill-opacity="0.3" stroke="#000000" stroke-opacity="0.3" stroke-width="2.688"/>
<circle clip-path="url(#clip811)" cx="1379.36" cy="974.786" r="7.2" fill="#808080" fill-rule="evenodd" fill-opacity="0.3" stroke="#000000" stroke-opacity="0.3" stroke-width="2.688"/>
<circle clip-path="url(#clip811)" cx="1389.28" cy="788.034" r="7.2" fill="#808080" fill-rule="evenodd" fill-opacity="0.3" stroke="#000000" stroke-opacity="0.3" stroke-width="2.688"/>
<circle clip-path="url(#clip811)" cx="1395.42" cy="989.502" r="7.2" fill="#808080" fill-rule="evenodd" fill-opacity="0.3" stroke="#000000" stroke-opacity="0.3" stroke-width="2.688"/>
<circle clip-path="url(#clip811)" cx="1401.66" cy="913.363" r="7.2" fill="#808080" fill-rule="evenodd" fill-opacity="0.3" stroke="#000000" stroke-opacity="0.3" stroke-width="2.688"/>
<circle clip-path="url(#clip811)" cx="1411.14" cy="906.59" r="7.2" fill="#808080" fill-rule="evenodd" fill-opacity="0.3" stroke="#000000" stroke-opacity="0.3" stroke-width="2.688"/>
<circle clip-path="url(#clip811)" cx="1415.83" cy="925.757" r="7.2" fill="#808080" fill-rule="evenodd" fill-opacity="0.3" stroke="#000000" stroke-opacity="0.3" stroke-width="2.688"/>
<circle clip-path="url(#clip811)" cx="1417.87" cy="877.163" r="7.2" fill="#808080" fill-rule="evenodd" fill-opacity="0.3" stroke="#000000" stroke-opacity="0.3" stroke-width="2.688"/>
<circle clip-path="url(#clip811)" cx="1428.59" cy="802.642" r="7.2" fill="#808080" fill-rule="evenodd" fill-opacity="0.3" stroke="#000000" stroke-opacity="0.3" stroke-width="2.688"/>
<circle clip-path="url(#clip811)" cx="1429.51" cy="676.19" r="7.2" fill="#808080" fill-rule="evenodd" fill-opacity="0.3" stroke="#000000" stroke-opacity="0.3" stroke-width="2.688"/>
<circle clip-path="url(#clip811)" cx="1431.99" cy="971.492" r="7.2" fill="#808080" fill-rule="evenodd" fill-opacity="0.3" stroke="#000000" stroke-opacity="0.3" stroke-width="2.688"/>
<circle clip-path="url(#clip811)" cx="1435.51" cy="748.579" r="7.2" fill="#808080" fill-rule="evenodd" fill-opacity="0.3" stroke="#000000" stroke-opacity="0.3" stroke-width="2.688"/>
<circle clip-path="url(#clip811)" cx="1466.77" cy="893.513" r="7.2" fill="#808080" fill-rule="evenodd" fill-opacity="0.3" stroke="#000000" stroke-opacity="0.3" stroke-width="2.688"/>
<circle clip-path="url(#clip811)" cx="1474.56" cy="960.095" r="7.2" fill="#808080" fill-rule="evenodd" fill-opacity="0.3" stroke="#000000" stroke-opacity="0.3" stroke-width="2.688"/>
<circle clip-path="url(#clip811)" cx="1474.67" cy="955.571" r="7.2" fill="#808080" fill-rule="evenodd" fill-opacity="0.3" stroke="#000000" stroke-opacity="0.3" stroke-width="2.688"/>
<circle clip-path="url(#clip811)" cx="1480.22" cy="935.187" r="7.2" fill="#808080" fill-rule="evenodd" fill-opacity="0.3" stroke="#000000" stroke-opacity="0.3" stroke-width="2.688"/>
<circle clip-path="url(#clip811)" cx="1497.43" cy="1000.75" r="7.2" fill="#808080" fill-rule="evenodd" fill-opacity="0.3" stroke="#000000" stroke-opacity="0.3" stroke-width="2.688"/>
<circle clip-path="url(#clip811)" cx="1498.04" cy="853.761" r="7.2" fill="#808080" fill-rule="evenodd" fill-opacity="0.3" stroke="#000000" stroke-opacity="0.3" stroke-width="2.688"/>
<circle clip-path="url(#clip811)" cx="1500.39" cy="820.456" r="7.2" fill="#808080" fill-rule="evenodd" fill-opacity="0.3" stroke="#000000" stroke-opacity="0.3" stroke-width="2.688"/>
<circle clip-path="url(#clip811)" cx="1523.55" cy="1037.28" r="7.2" fill="#808080" fill-rule="evenodd" fill-opacity="0.3" stroke="#000000" stroke-opacity="0.3" stroke-width="2.688"/>
<circle clip-path="url(#clip811)" cx="1523.79" cy="973.101" r="7.2" fill="#808080" fill-rule="evenodd" fill-opacity="0.3" stroke="#000000" stroke-opacity="0.3" stroke-width="2.688"/>
<circle clip-path="url(#clip811)" cx="1531.54" cy="948.828" r="7.2" fill="#808080" fill-rule="evenodd" fill-opacity="0.3" stroke="#000000" stroke-opacity="0.3" stroke-width="2.688"/>
<circle clip-path="url(#clip811)" cx="1546.13" cy="1031.29" r="7.2" fill="#808080" fill-rule="evenodd" fill-opacity="0.3" stroke="#000000" stroke-opacity="0.3" stroke-width="2.688"/>
<circle clip-path="url(#clip811)" cx="1548.17" cy="1006.28" r="7.2" fill="#808080" fill-rule="evenodd" fill-opacity="0.3" stroke="#000000" stroke-opacity="0.3" stroke-width="2.688"/>
<circle clip-path="url(#clip811)" cx="1555.85" cy="897.952" r="7.2" fill="#808080" fill-rule="evenodd" fill-opacity="0.3" stroke="#000000" stroke-opacity="0.3" stroke-width="2.688"/>
<circle clip-path="url(#clip811)" cx="1576.07" cy="1069.81" r="7.2" fill="#808080" fill-rule="evenodd" fill-opacity="0.3" stroke="#000000" stroke-opacity="0.3" stroke-width="2.688"/>
<circle clip-path="url(#clip811)" cx="1589.58" cy="933.205" r="7.2" fill="#808080" fill-rule="evenodd" fill-opacity="0.3" stroke="#000000" stroke-opacity="0.3" stroke-width="2.688"/>
<circle clip-path="url(#clip811)" cx="1593.32" cy="1128.07" r="7.2" fill="#808080" fill-rule="evenodd" fill-opacity="0.3" stroke="#000000" stroke-opacity="0.3" stroke-width="2.688"/>
<circle clip-path="url(#clip811)" cx="1598.44" cy="1143.68" r="7.2" fill="#808080" fill-rule="evenodd" fill-opacity="0.3" stroke="#000000" stroke-opacity="0.3" stroke-width="2.688"/>
<circle clip-path="url(#clip811)" cx="1599.01" cy="1030.27" r="7.2" fill="#808080" fill-rule="evenodd" fill-opacity="0.3" stroke="#000000" stroke-opacity="0.3" stroke-width="2.688"/>
<circle clip-path="url(#clip811)" cx="1618.91" cy="1016.57" r="7.2" fill="#808080" fill-rule="evenodd" fill-opacity="0.3" stroke="#000000" stroke-opacity="0.3" stroke-width="2.688"/>
<circle clip-path="url(#clip811)" cx="1621.3" cy="828.709" r="7.2" fill="#808080" fill-rule="evenodd" fill-opacity="0.3" stroke="#000000" stroke-opacity="0.3" stroke-width="2.688"/>
<circle clip-path="url(#clip811)" cx="1627.03" cy="877.455" r="7.2" fill="#808080" fill-rule="evenodd" fill-opacity="0.3" stroke="#000000" stroke-opacity="0.3" stroke-width="2.688"/>
<circle clip-path="url(#clip811)" cx="1632.65" cy="883.128" r="7.2" fill="#808080" fill-rule="evenodd" fill-opacity="0.3" stroke="#000000" stroke-opacity="0.3" stroke-width="2.688"/>
<circle clip-path="url(#clip811)" cx="1665.32" cy="997.915" r="7.2" fill="#808080" fill-rule="evenodd" fill-opacity="0.3" stroke="#000000" stroke-opacity="0.3" stroke-width="2.688"/>
<circle clip-path="url(#clip811)" cx="1674.97" cy="916.94" r="7.2" fill="#808080" fill-rule="evenodd" fill-opacity="0.3" stroke="#000000" stroke-opacity="0.3" stroke-width="2.688"/>
<circle clip-path="url(#clip811)" cx="1675.85" cy="837.203" r="7.2" fill="#808080" fill-rule="evenodd" fill-opacity="0.3" stroke="#000000" stroke-opacity="0.3" stroke-width="2.688"/>
<circle clip-path="url(#clip811)" cx="1676.18" cy="798.455" r="7.2" fill="#808080" fill-rule="evenodd" fill-opacity="0.3" stroke="#000000" stroke-opacity="0.3" stroke-width="2.688"/>
<circle clip-path="url(#clip811)" cx="1692.01" cy="1104.98" r="7.2" fill="#808080" fill-rule="evenodd" fill-opacity="0.3" stroke="#000000" stroke-opacity="0.3" stroke-width="2.688"/>
<circle clip-path="url(#clip811)" cx="1700.91" cy="826.962" r="7.2" fill="#808080" fill-rule="evenodd" fill-opacity="0.3" stroke="#000000" stroke-opacity="0.3" stroke-width="2.688"/>
<circle clip-path="url(#clip811)" cx="1710.91" cy="1060.98" r="7.2" fill="#808080" fill-rule="evenodd" fill-opacity="0.3" stroke="#000000" stroke-opacity="0.3" stroke-width="2.688"/>
<circle clip-path="url(#clip811)" cx="1717.32" cy="1038.51" r="7.2" fill="#808080" fill-rule="evenodd" fill-opacity="0.3" stroke="#000000" stroke-opacity="0.3" stroke-width="2.688"/>
<circle clip-path="url(#clip811)" cx="1718.9" cy="668.868" r="7.2" fill="#808080" fill-rule="evenodd" fill-opacity="0.3" stroke="#000000" stroke-opacity="0.3" stroke-width="2.688"/>
<circle clip-path="url(#clip811)" cx="1720.77" cy="701.251" r="7.2" fill="#808080" fill-rule="evenodd" fill-opacity="0.3" stroke="#000000" stroke-opacity="0.3" stroke-width="2.688"/>
<circle clip-path="url(#clip811)" cx="1732.1" cy="987.894" r="7.2" fill="#808080" fill-rule="evenodd" fill-opacity="0.3" stroke="#000000" stroke-opacity="0.3" stroke-width="2.688"/>
<circle clip-path="url(#clip811)" cx="1735.3" cy="1026.99" r="7.2" fill="#808080" fill-rule="evenodd" fill-opacity="0.3" stroke="#000000" stroke-opacity="0.3" stroke-width="2.688"/>
<circle clip-path="url(#clip811)" cx="1740.37" cy="817.991" r="7.2" fill="#808080" fill-rule="evenodd" fill-opacity="0.3" stroke="#000000" stroke-opacity="0.3" stroke-width="2.688"/>
<circle clip-path="url(#clip811)" cx="1755.6" cy="817.331" r="7.2" fill="#808080" fill-rule="evenodd" fill-opacity="0.3" stroke="#000000" stroke-opacity="0.3" stroke-width="2.688"/>
<circle clip-path="url(#clip811)" cx="1761.76" cy="786.22" r="7.2" fill="#808080" fill-rule="evenodd" fill-opacity="0.3" stroke="#000000" stroke-opacity="0.3" stroke-width="2.688"/>
<circle clip-path="url(#clip811)" cx="1789.53" cy="999.698" r="7.2" fill="#808080" fill-rule="evenodd" fill-opacity="0.3" stroke="#000000" stroke-opacity="0.3" stroke-width="2.688"/>
<circle clip-path="url(#clip811)" cx="1805.24" cy="918.631" r="7.2" fill="#808080" fill-rule="evenodd" fill-opacity="0.3" stroke="#000000" stroke-opacity="0.3" stroke-width="2.688"/>
<circle clip-path="url(#clip811)" cx="1807.23" cy="835.909" r="7.2" fill="#808080" fill-rule="evenodd" fill-opacity="0.3" stroke="#000000" stroke-opacity="0.3" stroke-width="2.688"/>
<circle clip-path="url(#clip811)" cx="1811.74" cy="812.76" r="7.2" fill="#808080" fill-rule="evenodd" fill-opacity="0.3" stroke="#000000" stroke-opacity="0.3" stroke-width="2.688"/>
<circle clip-path="url(#clip811)" cx="1819.36" cy="874.305" r="7.2" fill="#808080" fill-rule="evenodd" fill-opacity="0.3" stroke="#000000" stroke-opacity="0.3" stroke-width="2.688"/>
<circle clip-path="url(#clip811)" cx="1829.04" cy="890.033" r="7.2" fill="#808080" fill-rule="evenodd" fill-opacity="0.3" stroke="#000000" stroke-opacity="0.3" stroke-width="2.688"/>
<circle clip-path="url(#clip811)" cx="1834.82" cy="818.067" r="7.2" fill="#808080" fill-rule="evenodd" fill-opacity="0.3" stroke="#000000" stroke-opacity="0.3" stroke-width="2.688"/>
<circle clip-path="url(#clip811)" cx="1835.34" cy="886.501" r="7.2" fill="#808080" fill-rule="evenodd" fill-opacity="0.3" stroke="#000000" stroke-opacity="0.3" stroke-width="2.688"/>
<circle clip-path="url(#clip811)" cx="1846.42" cy="806.959" r="7.2" fill="#808080" fill-rule="evenodd" fill-opacity="0.3" stroke="#000000" stroke-opacity="0.3" stroke-width="2.688"/>
<circle clip-path="url(#clip811)" cx="1856.69" cy="680.842" r="7.2" fill="#808080" fill-rule="evenodd" fill-opacity="0.3" stroke="#000000" stroke-opacity="0.3" stroke-width="2.688"/>
<circle clip-path="url(#clip811)" cx="1874.2" cy="793.38" r="7.2" fill="#808080" fill-rule="evenodd" fill-opacity="0.3" stroke="#000000" stroke-opacity="0.3" stroke-width="2.688"/>
<circle clip-path="url(#clip811)" cx="1882.26" cy="815.68" r="7.2" fill="#808080" fill-rule="evenodd" fill-opacity="0.3" stroke="#000000" stroke-opacity="0.3" stroke-width="2.688"/>
<circle clip-path="url(#clip811)" cx="1899.17" cy="972.475" r="7.2" fill="#808080" fill-rule="evenodd" fill-opacity="0.3" stroke="#000000" stroke-opacity="0.3" stroke-width="2.688"/>
<circle clip-path="url(#clip811)" cx="1902.59" cy="856.003" r="7.2" fill="#808080" fill-rule="evenodd" fill-opacity="0.3" stroke="#000000" stroke-opacity="0.3" stroke-width="2.688"/>
<circle clip-path="url(#clip811)" cx="1903.13" cy="624.853" r="7.2" fill="#808080" fill-rule="evenodd" fill-opacity="0.3" stroke="#000000" stroke-opacity="0.3" stroke-width="2.688"/>
<circle clip-path="url(#clip811)" cx="1904.15" cy="1004.77" r="7.2" fill="#808080" fill-rule="evenodd" fill-opacity="0.3" stroke="#000000" stroke-opacity="0.3" stroke-width="2.688"/>
<circle clip-path="url(#clip811)" cx="1906.22" cy="787.13" r="7.2" fill="#808080" fill-rule="evenodd" fill-opacity="0.3" stroke="#000000" stroke-opacity="0.3" stroke-width="2.688"/>
<circle clip-path="url(#clip811)" cx="1910.6" cy="603.055" r="7.2" fill="#808080" fill-rule="evenodd" fill-opacity="0.3" stroke="#000000" stroke-opacity="0.3" stroke-width="2.688"/>
<circle clip-path="url(#clip811)" cx="1912.49" cy="737.566" r="7.2" fill="#808080" fill-rule="evenodd" fill-opacity="0.3" stroke="#000000" stroke-opacity="0.3" stroke-width="2.688"/>
<circle clip-path="url(#clip811)" cx="1914.22" cy="578.738" r="7.2" fill="#808080" fill-rule="evenodd" fill-opacity="0.3" stroke="#000000" stroke-opacity="0.3" stroke-width="2.688"/>
<circle clip-path="url(#clip811)" cx="1925.68" cy="655.704" r="7.2" fill="#808080" fill-rule="evenodd" fill-opacity="0.3" stroke="#000000" stroke-opacity="0.3" stroke-width="2.688"/>
<circle clip-path="url(#clip811)" cx="1927.14" cy="836.366" r="7.2" fill="#808080" fill-rule="evenodd" fill-opacity="0.3" stroke="#000000" stroke-opacity="0.3" stroke-width="2.688"/>
<circle clip-path="url(#clip811)" cx="1938.69" cy="899.379" r="7.2" fill="#808080" fill-rule="evenodd" fill-opacity="0.3" stroke="#000000" stroke-opacity="0.3" stroke-width="2.688"/>
<circle clip-path="url(#clip811)" cx="1941.25" cy="807.195" r="7.2" fill="#808080" fill-rule="evenodd" fill-opacity="0.3" stroke="#000000" stroke-opacity="0.3" stroke-width="2.688"/>
<circle clip-path="url(#clip811)" cx="1946" cy="581.229" r="7.2" fill="#808080" fill-rule="evenodd" fill-opacity="0.3" stroke="#000000" stroke-opacity="0.3" stroke-width="2.688"/>
<circle clip-path="url(#clip811)" cx="1956.07" cy="812.255" r="7.2" fill="#808080" fill-rule="evenodd" fill-opacity="0.3" stroke="#000000" stroke-opacity="0.3" stroke-width="2.688"/>
<circle clip-path="url(#clip811)" cx="1975.35" cy="680.773" r="7.2" fill="#808080" fill-rule="evenodd" fill-opacity="0.3" stroke="#000000" stroke-opacity="0.3" stroke-width="2.688"/>
<circle clip-path="url(#clip811)" cx="1975.97" cy="670.685" r="7.2" fill="#808080" fill-rule="evenodd" fill-opacity="0.3" stroke="#000000" stroke-opacity="0.3" stroke-width="2.688"/>
<circle clip-path="url(#clip811)" cx="1976.93" cy="635.839" r="7.2" fill="#808080" fill-rule="evenodd" fill-opacity="0.3" stroke="#000000" stroke-opacity="0.3" stroke-width="2.688"/>
<circle clip-path="url(#clip811)" cx="1977.42" cy="915.845" r="7.2" fill="#808080" fill-rule="evenodd" fill-opacity="0.3" stroke="#000000" stroke-opacity="0.3" stroke-width="2.688"/>
<circle clip-path="url(#clip811)" cx="1980.55" cy="451.617" r="7.2" fill="#808080" fill-rule="evenodd" fill-opacity="0.3" stroke="#000000" stroke-opacity="0.3" stroke-width="2.688"/>
<circle clip-path="url(#clip811)" cx="1980.65" cy="711.956" r="7.2" fill="#808080" fill-rule="evenodd" fill-opacity="0.3" stroke="#000000" stroke-opacity="0.3" stroke-width="2.688"/>
<circle clip-path="url(#clip811)" cx="1987.76" cy="619.897" r="7.2" fill="#808080" fill-rule="evenodd" fill-opacity="0.3" stroke="#000000" stroke-opacity="0.3" stroke-width="2.688"/>
<circle clip-path="url(#clip811)" cx="1991.61" cy="729.468" r="7.2" fill="#808080" fill-rule="evenodd" fill-opacity="0.3" stroke="#000000" stroke-opacity="0.3" stroke-width="2.688"/>
<circle clip-path="url(#clip811)" cx="1993.97" cy="617.204" r="7.2" fill="#808080" fill-rule="evenodd" fill-opacity="0.3" stroke="#000000" stroke-opacity="0.3" stroke-width="2.688"/>
<circle clip-path="url(#clip811)" cx="1995.18" cy="562.691" r="7.2" fill="#808080" fill-rule="evenodd" fill-opacity="0.3" stroke="#000000" stroke-opacity="0.3" stroke-width="2.688"/>
<circle clip-path="url(#clip811)" cx="2010.57" cy="768.517" r="7.2" fill="#808080" fill-rule="evenodd" fill-opacity="0.3" stroke="#000000" stroke-opacity="0.3" stroke-width="2.688"/>
<circle clip-path="url(#clip811)" cx="2010.97" cy="596.92" r="7.2" fill="#808080" fill-rule="evenodd" fill-opacity="0.3" stroke="#000000" stroke-opacity="0.3" stroke-width="2.688"/>
<circle clip-path="url(#clip811)" cx="2011.34" cy="711.523" r="7.2" fill="#808080" fill-rule="evenodd" fill-opacity="0.3" stroke="#000000" stroke-opacity="0.3" stroke-width="2.688"/>
<path clip-path="url(#clip810)" d="M1445.46 311.335 L2004.34 311.335 L2004.34 155.815 L1445.46 155.815  Z" fill="#ffffff" fill-rule="evenodd" fill-opacity="1"/>
<polyline clip-path="url(#clip810)" style="stroke:#000000; stroke-linecap:round; stroke-linejoin:round; stroke-width:4; stroke-opacity:1; fill:none" points="1445.46,311.335 2004.34,311.335 2004.34,155.815 1445.46,155.815 1445.46,311.335 "/>
<polyline clip-path="url(#clip810)" style="stroke:#009af9; stroke-linecap:round; stroke-linejoin:round; stroke-width:8; stroke-opacity:1; fill:none" points="1465.6,207.655 1586.44,207.655 "/>
<path clip-path="url(#clip810)" d="M1610.86 221.046 L1610.86 234.796 L1606.58 234.796 L1606.58 199.009 L1610.86 199.009 L1610.86 202.944 Q1612.21 200.629 1614.24 199.518 Q1616.3 198.384 1619.15 198.384 Q1623.87 198.384 1626.81 202.134 Q1629.78 205.884 1629.78 211.995 Q1629.78 218.106 1626.81 221.856 Q1623.87 225.606 1619.15 225.606 Q1616.3 225.606 1614.24 224.495 Q1612.21 223.361 1610.86 221.046 M1625.36 211.995 Q1625.36 207.296 1623.41 204.634 Q1621.49 201.949 1618.11 201.949 Q1614.73 201.949 1612.79 204.634 Q1610.86 207.296 1610.86 211.995 Q1610.86 216.694 1612.79 219.379 Q1614.73 222.041 1618.11 222.041 Q1621.49 222.041 1623.41 219.379 Q1625.36 216.694 1625.36 211.995 Z" fill="#000000" fill-rule="nonzero" fill-opacity="1" /><path clip-path="url(#clip810)" d="M1651.86 202.99 Q1651.14 202.574 1650.29 202.388 Q1649.45 202.18 1648.43 202.18 Q1644.82 202.18 1642.88 204.541 Q1640.96 206.879 1640.96 211.277 L1640.96 224.935 L1636.67 224.935 L1636.67 199.009 L1640.96 199.009 L1640.96 203.037 Q1642.3 200.675 1644.45 199.541 Q1646.61 198.384 1649.68 198.384 Q1650.12 198.384 1650.66 198.453 Q1651.19 198.5 1651.84 198.615 L1651.86 202.99 Z" fill="#000000" fill-rule="nonzero" fill-opacity="1" /><path clip-path="url(#clip810)" d="M1677.46 210.907 L1677.46 212.99 L1657.88 212.99 Q1658.16 217.388 1660.52 219.703 Q1662.9 221.995 1667.14 221.995 Q1669.59 221.995 1671.88 221.393 Q1674.2 220.791 1676.47 219.587 L1676.47 223.615 Q1674.17 224.587 1671.77 225.097 Q1669.36 225.606 1666.88 225.606 Q1660.68 225.606 1657.05 221.995 Q1653.43 218.384 1653.43 212.226 Q1653.43 205.861 1656.86 202.134 Q1660.31 198.384 1666.14 198.384 Q1671.37 198.384 1674.41 201.763 Q1677.46 205.12 1677.46 210.907 M1673.2 209.657 Q1673.16 206.162 1671.23 204.078 Q1669.34 201.995 1666.19 201.995 Q1662.62 201.995 1660.47 204.009 Q1658.34 206.023 1658.02 209.68 L1673.2 209.657 Z" fill="#000000" fill-rule="nonzero" fill-opacity="1" /><path clip-path="url(#clip810)" d="M1701.51 202.944 L1701.51 188.916 L1705.77 188.916 L1705.77 224.935 L1701.51 224.935 L1701.51 221.046 Q1700.17 223.361 1698.11 224.495 Q1696.07 225.606 1693.2 225.606 Q1688.5 225.606 1685.54 221.856 Q1682.6 218.106 1682.6 211.995 Q1682.6 205.884 1685.54 202.134 Q1688.5 198.384 1693.2 198.384 Q1696.07 198.384 1698.11 199.518 Q1700.17 200.629 1701.51 202.944 M1687 211.995 Q1687 216.694 1688.92 219.379 Q1690.86 222.041 1694.24 222.041 Q1697.62 222.041 1699.57 219.379 Q1701.51 216.694 1701.51 211.995 Q1701.51 207.296 1699.57 204.634 Q1697.62 201.949 1694.24 201.949 Q1690.86 201.949 1688.92 204.634 Q1687 207.296 1687 211.995 Z" fill="#000000" fill-rule="nonzero" fill-opacity="1" /><path clip-path="url(#clip810)" d="M1714.54 199.009 L1718.8 199.009 L1718.8 224.935 L1714.54 224.935 L1714.54 199.009 M1714.54 188.916 L1718.8 188.916 L1718.8 194.31 L1714.54 194.31 L1714.54 188.916 Z" fill="#000000" fill-rule="nonzero" fill-opacity="1" /><path clip-path="url(#clip810)" d="M1746.37 200.004 L1746.37 203.986 Q1744.57 202.99 1742.74 202.504 Q1740.93 201.995 1739.08 201.995 Q1734.94 201.995 1732.65 204.634 Q1730.36 207.25 1730.36 211.995 Q1730.36 216.74 1732.65 219.379 Q1734.94 221.995 1739.08 221.995 Q1740.93 221.995 1742.74 221.509 Q1744.57 220.999 1746.37 220.004 L1746.37 223.939 Q1744.59 224.773 1742.67 225.189 Q1740.77 225.606 1738.62 225.606 Q1732.76 225.606 1729.31 221.925 Q1725.86 218.245 1725.86 211.995 Q1725.86 205.652 1729.34 202.018 Q1732.83 198.384 1738.9 198.384 Q1740.86 198.384 1742.74 198.801 Q1744.61 199.194 1746.37 200.004 Z" fill="#000000" fill-rule="nonzero" fill-opacity="1" /><path clip-path="url(#clip810)" d="M1757.99 191.648 L1757.99 199.009 L1766.77 199.009 L1766.77 202.319 L1757.99 202.319 L1757.99 216.393 Q1757.99 219.564 1758.85 220.467 Q1759.73 221.37 1762.39 221.37 L1766.77 221.37 L1766.77 224.935 L1762.39 224.935 Q1757.46 224.935 1755.59 223.106 Q1753.71 221.254 1753.71 216.393 L1753.71 202.319 L1750.59 202.319 L1750.59 199.009 L1753.71 199.009 L1753.71 191.648 L1757.99 191.648 Z" fill="#000000" fill-rule="nonzero" fill-opacity="1" /><path clip-path="url(#clip810)" d="M1794.54 210.907 L1794.54 212.99 L1774.96 212.99 Q1775.24 217.388 1777.6 219.703 Q1779.98 221.995 1784.22 221.995 Q1786.67 221.995 1788.97 221.393 Q1791.28 220.791 1793.55 219.587 L1793.55 223.615 Q1791.26 224.587 1788.85 225.097 Q1786.44 225.606 1783.97 225.606 Q1777.76 225.606 1774.13 221.995 Q1770.52 218.384 1770.52 212.226 Q1770.52 205.861 1773.94 202.134 Q1777.39 198.384 1783.23 198.384 Q1788.46 198.384 1791.49 201.763 Q1794.54 205.12 1794.54 210.907 M1790.29 209.657 Q1790.24 206.162 1788.32 204.078 Q1786.42 201.995 1783.27 201.995 Q1779.71 201.995 1777.55 204.009 Q1775.42 206.023 1775.1 209.68 L1790.29 209.657 Z" fill="#000000" fill-rule="nonzero" fill-opacity="1" /><path clip-path="url(#clip810)" d="M1818.6 202.944 L1818.6 188.916 L1822.85 188.916 L1822.85 224.935 L1818.6 224.935 L1818.6 221.046 Q1817.25 223.361 1815.19 224.495 Q1813.16 225.606 1810.29 225.606 Q1805.59 225.606 1802.62 221.856 Q1799.68 218.106 1799.68 211.995 Q1799.68 205.884 1802.62 202.134 Q1805.59 198.384 1810.29 198.384 Q1813.16 198.384 1815.19 199.518 Q1817.25 200.629 1818.6 202.944 M1804.08 211.995 Q1804.08 216.694 1806 219.379 Q1807.95 222.041 1811.33 222.041 Q1814.71 222.041 1816.65 219.379 Q1818.6 216.694 1818.6 211.995 Q1818.6 207.296 1816.65 204.634 Q1814.71 201.949 1811.33 201.949 Q1807.95 201.949 1806 204.634 Q1804.08 207.296 1804.08 211.995 Z" fill="#000000" fill-rule="nonzero" fill-opacity="1" /><path clip-path="url(#clip810)" d="M1864.03 195.213 L1864.03 204.171 L1876.93 204.171 L1876.93 208.106 L1864.03 208.106 L1864.03 217.064 L1860.15 217.064 L1860.15 208.106 L1847.25 208.106 L1847.25 204.171 L1860.15 204.171 L1860.15 195.213 L1864.03 195.213 M1847.25 220.999 L1876.93 220.999 L1876.93 224.935 L1847.25 224.935 L1847.25 220.999 Z" fill="#000000" fill-rule="nonzero" fill-opacity="1" /><path clip-path="url(#clip810)" d="M1906.12 220.999 L1922.44 220.999 L1922.44 224.935 L1900.49 224.935 L1900.49 220.999 Q1903.16 218.245 1907.74 213.615 Q1912.34 208.962 1913.53 207.62 Q1915.77 205.097 1916.65 203.361 Q1917.55 201.601 1917.55 199.912 Q1917.55 197.157 1915.61 195.421 Q1913.69 193.685 1910.59 193.685 Q1908.39 193.685 1905.93 194.449 Q1903.5 195.213 1900.72 196.763 L1900.72 192.041 Q1903.55 190.907 1906 190.328 Q1908.46 189.75 1910.49 189.75 Q1915.86 189.75 1919.06 192.435 Q1922.25 195.12 1922.25 199.611 Q1922.25 201.74 1921.44 203.662 Q1920.65 205.56 1918.55 208.152 Q1917.97 208.824 1914.87 212.041 Q1911.77 215.236 1906.12 220.999 Z" fill="#000000" fill-rule="nonzero" fill-opacity="1" /><path clip-path="url(#clip810)" d="M1952.55 191.509 L1952.55 196.069 Q1949.89 194.796 1947.53 194.171 Q1945.17 193.546 1942.97 193.546 Q1939.15 193.546 1937.07 195.027 Q1935.01 196.509 1935.01 199.24 Q1935.01 201.532 1936.37 202.713 Q1937.76 203.87 1941.6 204.588 L1944.43 205.166 Q1949.66 206.162 1952.14 208.685 Q1954.64 211.185 1954.64 215.398 Q1954.64 220.421 1951.26 223.013 Q1947.9 225.606 1941.4 225.606 Q1938.94 225.606 1936.16 225.05 Q1933.41 224.495 1930.45 223.407 L1930.45 218.592 Q1933.29 220.189 1936.03 220.999 Q1938.76 221.81 1941.4 221.81 Q1945.4 221.81 1947.58 220.236 Q1949.75 218.662 1949.75 215.745 Q1949.75 213.199 1948.18 211.763 Q1946.63 210.328 1943.06 209.611 L1940.22 209.055 Q1934.98 208.013 1932.65 205.791 Q1930.31 203.569 1930.31 199.611 Q1930.31 195.027 1933.53 192.389 Q1936.77 189.75 1942.44 189.75 Q1944.87 189.75 1947.39 190.189 Q1949.91 190.629 1952.55 191.509 Z" fill="#000000" fill-rule="nonzero" fill-opacity="1" /><path clip-path="url(#clip810)" d="M1961.93 190.375 L1983.78 190.375 L1983.78 194.31 L1966.6 194.31 L1966.6 204.541 L1983.06 204.541 L1983.06 208.476 L1966.6 208.476 L1966.6 220.999 L1984.2 220.999 L1984.2 224.935 L1961.93 224.935 L1961.93 190.375 Z" fill="#000000" fill-rule="nonzero" fill-opacity="1" /><circle clip-path="url(#clip810)" cx="1526.02" cy="259.495" r="18.432" fill="#808080" fill-rule="evenodd" fill-opacity="0.3" stroke="#000000" stroke-opacity="0.3" stroke-width="6.88128"/>
<path clip-path="url(#clip810)" d="M1618.48 253.835 Q1615.05 253.835 1613.06 256.52 Q1611.07 259.182 1611.07 263.835 Q1611.07 268.488 1613.04 271.173 Q1615.03 273.835 1618.48 273.835 Q1621.88 273.835 1623.87 271.15 Q1625.86 268.464 1625.86 263.835 Q1625.86 259.228 1623.87 256.543 Q1621.88 253.835 1618.48 253.835 M1618.48 250.224 Q1624.04 250.224 1627.21 253.835 Q1630.38 257.446 1630.38 263.835 Q1630.38 270.201 1627.21 273.835 Q1624.04 277.446 1618.48 277.446 Q1612.9 277.446 1609.73 273.835 Q1606.58 270.201 1606.58 263.835 Q1606.58 257.446 1609.73 253.835 Q1612.9 250.224 1618.48 250.224 Z" fill="#000000" fill-rule="nonzero" fill-opacity="1" /><path clip-path="url(#clip810)" d="M1656.05 263.835 Q1656.05 259.136 1654.11 256.474 Q1652.18 253.789 1648.8 253.789 Q1645.42 253.789 1643.48 256.474 Q1641.56 259.136 1641.56 263.835 Q1641.56 268.534 1643.48 271.219 Q1645.42 273.881 1648.8 273.881 Q1652.18 273.881 1654.11 271.219 Q1656.05 268.534 1656.05 263.835 M1641.56 254.784 Q1642.9 252.469 1644.94 251.358 Q1647 250.224 1649.85 250.224 Q1654.57 250.224 1657.51 253.974 Q1660.47 257.724 1660.47 263.835 Q1660.47 269.946 1657.51 273.696 Q1654.57 277.446 1649.85 277.446 Q1647 277.446 1644.94 276.335 Q1642.9 275.201 1641.56 272.886 L1641.56 276.775 L1637.28 276.775 L1637.28 240.756 L1641.56 240.756 L1641.56 254.784 Z" fill="#000000" fill-rule="nonzero" fill-opacity="1" /><path clip-path="url(#clip810)" d="M1684.06 251.613 L1684.06 255.64 Q1682.25 254.715 1680.31 254.252 Q1678.36 253.789 1676.28 253.789 Q1673.11 253.789 1671.51 254.761 Q1669.94 255.733 1669.94 257.678 Q1669.94 259.159 1671.07 260.015 Q1672.21 260.849 1675.63 261.613 L1677.09 261.937 Q1681.63 262.909 1683.53 264.691 Q1685.45 266.451 1685.45 269.622 Q1685.45 273.233 1682.58 275.339 Q1679.73 277.446 1674.73 277.446 Q1672.65 277.446 1670.38 277.029 Q1668.13 276.636 1665.63 275.826 L1665.63 271.427 Q1667.99 272.654 1670.29 273.279 Q1672.58 273.881 1674.82 273.881 Q1677.83 273.881 1679.45 272.863 Q1681.07 271.821 1681.07 269.946 Q1681.07 268.21 1679.89 267.284 Q1678.73 266.358 1674.78 265.502 L1673.3 265.154 Q1669.34 264.321 1667.58 262.608 Q1665.82 260.872 1665.82 257.863 Q1665.82 254.205 1668.41 252.215 Q1671 250.224 1675.77 250.224 Q1678.13 250.224 1680.22 250.571 Q1682.3 250.918 1684.06 251.613 Z" fill="#000000" fill-rule="nonzero" fill-opacity="1" /><path clip-path="url(#clip810)" d="M1714.41 262.747 L1714.41 264.83 L1694.82 264.83 Q1695.1 269.228 1697.46 271.543 Q1699.85 273.835 1704.08 273.835 Q1706.54 273.835 1708.83 273.233 Q1711.14 272.631 1713.41 271.427 L1713.41 275.455 Q1711.12 276.427 1708.71 276.937 Q1706.3 277.446 1703.83 277.446 Q1697.62 277.446 1693.99 273.835 Q1690.38 270.224 1690.38 264.066 Q1690.38 257.701 1693.8 253.974 Q1697.25 250.224 1703.09 250.224 Q1708.32 250.224 1711.35 253.603 Q1714.41 256.96 1714.41 262.747 M1710.15 261.497 Q1710.1 258.002 1708.18 255.918 Q1706.28 253.835 1703.13 253.835 Q1699.57 253.835 1697.42 255.849 Q1695.29 257.863 1694.96 261.52 L1710.15 261.497 Z" fill="#000000" fill-rule="nonzero" fill-opacity="1" /><path clip-path="url(#clip810)" d="M1736.42 254.83 Q1735.7 254.414 1734.85 254.228 Q1734.01 254.02 1732.99 254.02 Q1729.38 254.02 1727.44 256.381 Q1725.52 258.719 1725.52 263.117 L1725.52 276.775 L1721.23 276.775 L1721.23 250.849 L1725.52 250.849 L1725.52 254.877 Q1726.86 252.515 1729.01 251.381 Q1731.17 250.224 1734.24 250.224 Q1734.68 250.224 1735.22 250.293 Q1735.75 250.34 1736.4 250.455 L1736.42 254.83 Z" fill="#000000" fill-rule="nonzero" fill-opacity="1" /><path clip-path="url(#clip810)" d="M1737.83 250.849 L1742.35 250.849 L1750.45 272.608 L1758.55 250.849 L1763.06 250.849 L1753.34 276.775 L1747.55 276.775 L1737.83 250.849 Z" fill="#000000" fill-rule="nonzero" fill-opacity="1" /><path clip-path="url(#clip810)" d="M1791.12 262.747 L1791.12 264.83 L1771.54 264.83 Q1771.81 269.228 1774.17 271.543 Q1776.56 273.835 1780.79 273.835 Q1783.25 273.835 1785.54 273.233 Q1787.85 272.631 1790.12 271.427 L1790.12 275.455 Q1787.83 276.427 1785.42 276.937 Q1783.02 277.446 1780.54 277.446 Q1774.34 277.446 1770.7 273.835 Q1767.09 270.224 1767.09 264.066 Q1767.09 257.701 1770.52 253.974 Q1773.97 250.224 1779.8 250.224 Q1785.03 250.224 1788.06 253.603 Q1791.12 256.96 1791.12 262.747 M1786.86 261.497 Q1786.81 258.002 1784.89 255.918 Q1782.99 253.835 1779.85 253.835 Q1776.28 253.835 1774.13 255.849 Q1772 257.863 1771.67 261.52 L1786.86 261.497 Z" fill="#000000" fill-rule="nonzero" fill-opacity="1" /><path clip-path="url(#clip810)" d="M1815.17 254.784 L1815.17 240.756 L1819.43 240.756 L1819.43 276.775 L1815.17 276.775 L1815.17 272.886 Q1813.83 275.201 1811.77 276.335 Q1809.73 277.446 1806.86 277.446 Q1802.16 277.446 1799.2 273.696 Q1796.26 269.946 1796.26 263.835 Q1796.26 257.724 1799.2 253.974 Q1802.16 250.224 1806.86 250.224 Q1809.73 250.224 1811.77 251.358 Q1813.83 252.469 1815.17 254.784 M1800.66 263.835 Q1800.66 268.534 1802.58 271.219 Q1804.52 273.881 1807.9 273.881 Q1811.28 273.881 1813.22 271.219 Q1815.17 268.534 1815.17 263.835 Q1815.17 259.136 1813.22 256.474 Q1811.28 253.789 1807.9 253.789 Q1804.52 253.789 1802.58 256.474 Q1800.66 259.136 1800.66 263.835 Z" fill="#000000" fill-rule="nonzero" fill-opacity="1" /></svg>
