<?xml version="1.0" encoding="utf-8"?>
<svg xmlns="http://www.w3.org/2000/svg" xmlns:xlink="http://www.w3.org/1999/xlink" width="528" height="336" viewBox="0 0 2112 1344">
<defs>
  <clipPath id="clip170">
    <rect x="0" y="0" width="2112" height="1344"/>
  </clipPath>
</defs>
<path clip-path="url(#clip170)" d="M0 1344 L2112 1344 L2112 2.13163e-14 L0 2.13163e-14  Z" fill="#ffffff" fill-rule="evenodd" fill-opacity="1"/>
<defs>
  <clipPath id="clip171">
    <rect x="252" y="120" width="1814" height="1054"/>
  </clipPath>
</defs>
<path clip-path="url(#clip170)" d="M252.164 1173.47 L2064.76 1173.47 L2064.76 120.723 L252.164 120.723  Z" fill="#ffffff" fill-rule="evenodd" fill-opacity="1"/>
<polyline clip-path="url(#clip171)" style="stroke:#000000; stroke-linecap:round; stroke-linejoin:round; stroke-width:2; stroke-opacity:0.1; fill:none" points="303.464,1173.47 303.464,120.723 "/>
<polyline clip-path="url(#clip171)" style="stroke:#000000; stroke-linecap:round; stroke-linejoin:round; stroke-width:2; stroke-opacity:0.1; fill:none" points="730.962,1173.47 730.962,120.723 "/>
<polyline clip-path="url(#clip171)" style="stroke:#000000; stroke-linecap:round; stroke-linejoin:round; stroke-width:2; stroke-opacity:0.1; fill:none" points="1158.46,1173.47 1158.46,120.723 "/>
<polyline clip-path="url(#clip171)" style="stroke:#000000; stroke-linecap:round; stroke-linejoin:round; stroke-width:2; stroke-opacity:0.1; fill:none" points="1585.96,1173.47 1585.96,120.723 "/>
<polyline clip-path="url(#clip171)" style="stroke:#000000; stroke-linecap:round; stroke-linejoin:round; stroke-width:2; stroke-opacity:0.1; fill:none" points="2013.46,1173.47 2013.46,120.723 "/>
<polyline clip-path="url(#clip171)" style="stroke:#000000; stroke-linecap:round; stroke-linejoin:round; stroke-width:2; stroke-opacity:0.1; fill:none" points="252.164,1090.47 2064.76,1090.47 "/>
<polyline clip-path="url(#clip171)" style="stroke:#000000; stroke-linecap:round; stroke-linejoin:round; stroke-width:2; stroke-opacity:0.1; fill:none" points="252.164,931.648 2064.76,931.648 "/>
<polyline clip-path="url(#clip171)" style="stroke:#000000; stroke-linecap:round; stroke-linejoin:round; stroke-width:2; stroke-opacity:0.1; fill:none" points="252.164,772.823 2064.76,772.823 "/>
<polyline clip-path="url(#clip171)" style="stroke:#000000; stroke-linecap:round; stroke-linejoin:round; stroke-width:2; stroke-opacity:0.1; fill:none" points="252.164,613.999 2064.76,613.999 "/>
<polyline clip-path="url(#clip171)" style="stroke:#000000; stroke-linecap:round; stroke-linejoin:round; stroke-width:2; stroke-opacity:0.1; fill:none" points="252.164,455.174 2064.76,455.174 "/>
<polyline clip-path="url(#clip171)" style="stroke:#000000; stroke-linecap:round; stroke-linejoin:round; stroke-width:2; stroke-opacity:0.1; fill:none" points="252.164,296.35 2064.76,296.35 "/>
<polyline clip-path="url(#clip171)" style="stroke:#000000; stroke-linecap:round; stroke-linejoin:round; stroke-width:2; stroke-opacity:0.1; fill:none" points="252.164,137.526 2064.76,137.526 "/>
<polyline clip-path="url(#clip170)" style="stroke:#000000; stroke-linecap:round; stroke-linejoin:round; stroke-width:4; stroke-opacity:1; fill:none" points="252.164,1173.47 2064.76,1173.47 "/>
<polyline clip-path="url(#clip170)" style="stroke:#000000; stroke-linecap:round; stroke-linejoin:round; stroke-width:4; stroke-opacity:1; fill:none" points="303.464,1173.47 303.464,1154.57 "/>
<polyline clip-path="url(#clip170)" style="stroke:#000000; stroke-linecap:round; stroke-linejoin:round; stroke-width:4; stroke-opacity:1; fill:none" points="730.962,1173.47 730.962,1154.57 "/>
<polyline clip-path="url(#clip170)" style="stroke:#000000; stroke-linecap:round; stroke-linejoin:round; stroke-width:4; stroke-opacity:1; fill:none" points="1158.46,1173.47 1158.46,1154.57 "/>
<polyline clip-path="url(#clip170)" style="stroke:#000000; stroke-linecap:round; stroke-linejoin:round; stroke-width:4; stroke-opacity:1; fill:none" points="1585.96,1173.47 1585.96,1154.57 "/>
<polyline clip-path="url(#clip170)" style="stroke:#000000; stroke-linecap:round; stroke-linejoin:round; stroke-width:4; stroke-opacity:1; fill:none" points="2013.46,1173.47 2013.46,1154.57 "/>
<path clip-path="url(#clip170)" d="M265.767 1202.09 Q262.156 1202.09 260.327 1205.65 Q258.522 1209.19 258.522 1216.32 Q258.522 1223.43 260.327 1226.99 Q262.156 1230.53 265.767 1230.53 Q269.401 1230.53 271.207 1226.99 Q273.036 1223.43 273.036 1216.32 Q273.036 1209.19 271.207 1205.65 Q269.401 1202.09 265.767 1202.09 M265.767 1198.38 Q271.577 1198.38 274.633 1202.99 Q277.712 1207.57 277.712 1216.32 Q277.712 1225.05 274.633 1229.65 Q271.577 1234.24 265.767 1234.24 Q259.957 1234.24 256.878 1229.65 Q253.823 1225.05 253.823 1216.32 Q253.823 1207.57 256.878 1202.99 Q259.957 1198.38 265.767 1198.38 Z" fill="#000000" fill-rule="nonzero" fill-opacity="1" /><path clip-path="url(#clip170)" d="M285.929 1227.69 L290.813 1227.69 L290.813 1233.57 L285.929 1233.57 L285.929 1227.69 Z" fill="#000000" fill-rule="nonzero" fill-opacity="1" /><path clip-path="url(#clip170)" d="M310.998 1202.09 Q307.387 1202.09 305.559 1205.65 Q303.753 1209.19 303.753 1216.32 Q303.753 1223.43 305.559 1226.99 Q307.387 1230.53 310.998 1230.53 Q314.633 1230.53 316.438 1226.99 Q318.267 1223.43 318.267 1216.32 Q318.267 1209.19 316.438 1205.65 Q314.633 1202.09 310.998 1202.09 M310.998 1198.38 Q316.809 1198.38 319.864 1202.99 Q322.943 1207.57 322.943 1216.32 Q322.943 1225.05 319.864 1229.65 Q316.809 1234.24 310.998 1234.24 Q305.188 1234.24 302.11 1229.65 Q299.054 1225.05 299.054 1216.32 Q299.054 1207.57 302.11 1202.99 Q305.188 1198.38 310.998 1198.38 Z" fill="#000000" fill-rule="nonzero" fill-opacity="1" /><path clip-path="url(#clip170)" d="M341.16 1202.09 Q337.549 1202.09 335.721 1205.65 Q333.915 1209.19 333.915 1216.32 Q333.915 1223.43 335.721 1226.99 Q337.549 1230.53 341.16 1230.53 Q344.795 1230.53 346.6 1226.99 Q348.429 1223.43 348.429 1216.32 Q348.429 1209.19 346.6 1205.65 Q344.795 1202.09 341.16 1202.09 M341.16 1198.38 Q346.971 1198.38 350.026 1202.99 Q353.105 1207.57 353.105 1216.32 Q353.105 1225.05 350.026 1229.65 Q346.971 1234.24 341.16 1234.24 Q335.35 1234.24 332.272 1229.65 Q329.216 1225.05 329.216 1216.32 Q329.216 1207.57 332.272 1202.99 Q335.35 1198.38 341.16 1198.38 Z" fill="#000000" fill-rule="nonzero" fill-opacity="1" /><path clip-path="url(#clip170)" d="M693.763 1202.09 Q690.152 1202.09 688.323 1205.65 Q686.518 1209.19 686.518 1216.32 Q686.518 1223.43 688.323 1226.99 Q690.152 1230.53 693.763 1230.53 Q697.397 1230.53 699.203 1226.99 Q701.031 1223.43 701.031 1216.32 Q701.031 1209.19 699.203 1205.65 Q697.397 1202.09 693.763 1202.09 M693.763 1198.38 Q699.573 1198.38 702.629 1202.99 Q705.707 1207.57 705.707 1216.32 Q705.707 1225.05 702.629 1229.65 Q699.573 1234.24 693.763 1234.24 Q687.953 1234.24 684.874 1229.65 Q681.819 1225.05 681.819 1216.32 Q681.819 1207.57 684.874 1202.99 Q687.953 1198.38 693.763 1198.38 Z" fill="#000000" fill-rule="nonzero" fill-opacity="1" /><path clip-path="url(#clip170)" d="M713.925 1227.69 L718.809 1227.69 L718.809 1233.57 L713.925 1233.57 L713.925 1227.69 Z" fill="#000000" fill-rule="nonzero" fill-opacity="1" /><path clip-path="url(#clip170)" d="M733.022 1229.63 L749.341 1229.63 L749.341 1233.57 L727.397 1233.57 L727.397 1229.63 Q730.059 1226.88 734.642 1222.25 Q739.249 1217.59 740.429 1216.25 Q742.675 1213.73 743.554 1211.99 Q744.457 1210.23 744.457 1208.54 Q744.457 1205.79 742.513 1204.05 Q740.591 1202.32 737.49 1202.32 Q735.291 1202.32 732.837 1203.08 Q730.406 1203.84 727.629 1205.4 L727.629 1200.67 Q730.453 1199.54 732.906 1198.96 Q735.36 1198.38 737.397 1198.38 Q742.767 1198.38 745.962 1201.07 Q749.156 1203.75 749.156 1208.24 Q749.156 1210.37 748.346 1212.29 Q747.559 1214.19 745.453 1216.78 Q744.874 1217.46 741.772 1220.67 Q738.67 1223.87 733.022 1229.63 Z" fill="#000000" fill-rule="nonzero" fill-opacity="1" /><path clip-path="url(#clip170)" d="M759.202 1199.01 L777.559 1199.01 L777.559 1202.94 L763.485 1202.94 L763.485 1211.41 Q764.503 1211.07 765.522 1210.9 Q766.54 1210.72 767.559 1210.72 Q773.346 1210.72 776.726 1213.89 Q780.105 1217.06 780.105 1222.48 Q780.105 1228.06 776.633 1231.16 Q773.161 1234.24 766.841 1234.24 Q764.665 1234.24 762.397 1233.87 Q760.152 1233.5 757.744 1232.76 L757.744 1228.06 Q759.827 1229.19 762.05 1229.75 Q764.272 1230.3 766.749 1230.3 Q770.753 1230.3 773.091 1228.2 Q775.429 1226.09 775.429 1222.48 Q775.429 1218.87 773.091 1216.76 Q770.753 1214.65 766.749 1214.65 Q764.874 1214.65 762.999 1215.07 Q761.147 1215.49 759.202 1216.37 L759.202 1199.01 Z" fill="#000000" fill-rule="nonzero" fill-opacity="1" /><path clip-path="url(#clip170)" d="M1120.76 1202.09 Q1117.15 1202.09 1115.32 1205.65 Q1113.52 1209.19 1113.52 1216.32 Q1113.52 1223.43 1115.32 1226.99 Q1117.15 1230.53 1120.76 1230.53 Q1124.4 1230.53 1126.2 1226.99 Q1128.03 1223.43 1128.03 1216.32 Q1128.03 1209.19 1126.2 1205.65 Q1124.4 1202.09 1120.76 1202.09 M1120.76 1198.38 Q1126.57 1198.38 1129.63 1202.99 Q1132.71 1207.57 1132.71 1216.32 Q1132.71 1225.05 1129.63 1229.65 Q1126.57 1234.24 1120.76 1234.24 Q1114.95 1234.24 1111.87 1229.65 Q1108.82 1225.05 1108.82 1216.32 Q1108.82 1207.57 1111.87 1202.99 Q1114.95 1198.38 1120.76 1198.38 Z" fill="#000000" fill-rule="nonzero" fill-opacity="1" /><path clip-path="url(#clip170)" d="M1140.93 1227.69 L1145.81 1227.69 L1145.81 1233.57 L1140.93 1233.57 L1140.93 1227.69 Z" fill="#000000" fill-rule="nonzero" fill-opacity="1" /><path clip-path="url(#clip170)" d="M1156.04 1199.01 L1174.4 1199.01 L1174.4 1202.94 L1160.32 1202.94 L1160.32 1211.41 Q1161.34 1211.07 1162.36 1210.9 Q1163.38 1210.72 1164.4 1210.72 Q1170.18 1210.72 1173.56 1213.89 Q1176.94 1217.06 1176.94 1222.48 Q1176.94 1228.06 1173.47 1231.16 Q1170 1234.24 1163.68 1234.24 Q1161.5 1234.24 1159.24 1233.87 Q1156.99 1233.5 1154.58 1232.76 L1154.58 1228.06 Q1156.67 1229.19 1158.89 1229.75 Q1161.11 1230.3 1163.59 1230.3 Q1167.59 1230.3 1169.93 1228.2 Q1172.27 1226.09 1172.27 1222.48 Q1172.27 1218.87 1169.93 1216.76 Q1167.59 1214.65 1163.59 1214.65 Q1161.71 1214.65 1159.84 1215.07 Q1157.99 1215.49 1156.04 1216.37 L1156.04 1199.01 Z" fill="#000000" fill-rule="nonzero" fill-opacity="1" /><path clip-path="url(#clip170)" d="M1196.16 1202.09 Q1192.55 1202.09 1190.72 1205.65 Q1188.91 1209.19 1188.91 1216.32 Q1188.91 1223.43 1190.72 1226.99 Q1192.55 1230.53 1196.16 1230.53 Q1199.79 1230.53 1201.6 1226.99 Q1203.43 1223.43 1203.43 1216.32 Q1203.43 1209.19 1201.6 1205.65 Q1199.79 1202.09 1196.16 1202.09 M1196.16 1198.38 Q1201.97 1198.38 1205.02 1202.99 Q1208.1 1207.57 1208.1 1216.32 Q1208.1 1225.05 1205.02 1229.65 Q1201.97 1234.24 1196.16 1234.24 Q1190.35 1234.24 1187.27 1229.65 Q1184.21 1225.05 1184.21 1216.32 Q1184.21 1207.57 1187.27 1202.99 Q1190.35 1198.38 1196.16 1198.38 Z" fill="#000000" fill-rule="nonzero" fill-opacity="1" /><path clip-path="url(#clip170)" d="M1548.76 1202.09 Q1545.15 1202.09 1543.32 1205.65 Q1541.51 1209.19 1541.51 1216.32 Q1541.51 1223.43 1543.32 1226.99 Q1545.15 1230.53 1548.76 1230.53 Q1552.39 1230.53 1554.2 1226.99 Q1556.03 1223.43 1556.03 1216.32 Q1556.03 1209.19 1554.2 1205.65 Q1552.39 1202.09 1548.76 1202.09 M1548.76 1198.38 Q1554.57 1198.38 1557.62 1202.99 Q1560.7 1207.57 1560.7 1216.32 Q1560.7 1225.05 1557.62 1229.65 Q1554.57 1234.24 1548.76 1234.24 Q1542.95 1234.24 1539.87 1229.65 Q1536.81 1225.05 1536.81 1216.32 Q1536.81 1207.57 1539.87 1202.99 Q1542.95 1198.38 1548.76 1198.38 Z" fill="#000000" fill-rule="nonzero" fill-opacity="1" /><path clip-path="url(#clip170)" d="M1568.92 1227.69 L1573.81 1227.69 L1573.81 1233.57 L1568.92 1233.57 L1568.92 1227.69 Z" fill="#000000" fill-rule="nonzero" fill-opacity="1" /><path clip-path="url(#clip170)" d="M1582.81 1199.01 L1605.03 1199.01 L1605.03 1201 L1592.49 1233.57 L1587.6 1233.57 L1599.41 1202.94 L1582.81 1202.94 L1582.81 1199.01 Z" fill="#000000" fill-rule="nonzero" fill-opacity="1" /><path clip-path="url(#clip170)" d="M1614.2 1199.01 L1632.56 1199.01 L1632.56 1202.94 L1618.48 1202.94 L1618.48 1211.41 Q1619.5 1211.07 1620.52 1210.9 Q1621.54 1210.72 1622.56 1210.72 Q1628.34 1210.72 1631.72 1213.89 Q1635.1 1217.06 1635.1 1222.48 Q1635.1 1228.06 1631.63 1231.16 Q1628.16 1234.24 1621.84 1234.24 Q1619.66 1234.24 1617.39 1233.87 Q1615.15 1233.5 1612.74 1232.76 L1612.74 1228.06 Q1614.82 1229.19 1617.05 1229.75 Q1619.27 1230.3 1621.74 1230.3 Q1625.75 1230.3 1628.09 1228.2 Q1630.43 1226.09 1630.43 1222.48 Q1630.43 1218.87 1628.09 1216.76 Q1625.75 1214.65 1621.74 1214.65 Q1619.87 1214.65 1617.99 1215.07 Q1616.14 1215.49 1614.2 1216.37 L1614.2 1199.01 Z" fill="#000000" fill-rule="nonzero" fill-opacity="1" /><path clip-path="url(#clip170)" d="M1965.53 1229.63 L1973.17 1229.63 L1973.17 1203.27 L1964.86 1204.93 L1964.86 1200.67 L1973.12 1199.01 L1977.8 1199.01 L1977.8 1229.63 L1985.44 1229.63 L1985.44 1233.57 L1965.53 1233.57 L1965.53 1229.63 Z" fill="#000000" fill-rule="nonzero" fill-opacity="1" /><path clip-path="url(#clip170)" d="M1994.88 1227.69 L1999.76 1227.69 L1999.76 1233.57 L1994.88 1233.57 L1994.88 1227.69 Z" fill="#000000" fill-rule="nonzero" fill-opacity="1" /><path clip-path="url(#clip170)" d="M2019.95 1202.09 Q2016.34 1202.09 2014.51 1205.65 Q2012.7 1209.19 2012.7 1216.32 Q2012.7 1223.43 2014.51 1226.99 Q2016.34 1230.53 2019.95 1230.53 Q2023.58 1230.53 2025.39 1226.99 Q2027.22 1223.43 2027.22 1216.32 Q2027.22 1209.19 2025.39 1205.65 Q2023.58 1202.09 2019.95 1202.09 M2019.95 1198.38 Q2025.76 1198.38 2028.81 1202.99 Q2031.89 1207.57 2031.89 1216.32 Q2031.89 1225.05 2028.81 1229.65 Q2025.76 1234.24 2019.95 1234.24 Q2014.14 1234.24 2011.06 1229.65 Q2008 1225.05 2008 1216.32 Q2008 1207.57 2011.06 1202.99 Q2014.14 1198.38 2019.95 1198.38 Z" fill="#000000" fill-rule="nonzero" fill-opacity="1" /><path clip-path="url(#clip170)" d="M2050.11 1202.09 Q2046.5 1202.09 2044.67 1205.65 Q2042.87 1209.19 2042.87 1216.32 Q2042.87 1223.43 2044.67 1226.99 Q2046.5 1230.53 2050.11 1230.53 Q2053.75 1230.53 2055.55 1226.99 Q2057.38 1223.43 2057.38 1216.32 Q2057.38 1209.19 2055.55 1205.65 Q2053.75 1202.09 2050.11 1202.09 M2050.11 1198.38 Q2055.92 1198.38 2058.98 1202.99 Q2062.06 1207.57 2062.06 1216.32 Q2062.06 1225.05 2058.98 1229.65 Q2055.92 1234.24 2050.11 1234.24 Q2044.3 1234.24 2041.22 1229.65 Q2038.17 1225.05 2038.17 1216.32 Q2038.17 1207.57 2041.22 1202.99 Q2044.3 1198.38 2050.11 1198.38 Z" fill="#000000" fill-rule="nonzero" fill-opacity="1" /><path clip-path="url(#clip170)" d="M1175.07 1278.37 L1162.18 1295.71 L1175.74 1314.01 L1168.84 1314.01 L1158.46 1300.01 L1148.08 1314.01 L1141.18 1314.01 L1155.02 1295.36 L1142.35 1278.37 L1149.26 1278.37 L1158.71 1291.07 L1168.17 1278.37 L1175.07 1278.37 Z" fill="#000000" fill-rule="nonzero" fill-opacity="1" /><polyline clip-path="url(#clip170)" style="stroke:#000000; stroke-linecap:round; stroke-linejoin:round; stroke-width:4; stroke-opacity:1; fill:none" points="252.164,1173.47 252.164,120.723 "/>
<polyline clip-path="url(#clip170)" style="stroke:#000000; stroke-linecap:round; stroke-linejoin:round; stroke-width:4; stroke-opacity:1; fill:none" points="252.164,1090.47 271.062,1090.47 "/>
<polyline clip-path="url(#clip170)" style="stroke:#000000; stroke-linecap:round; stroke-linejoin:round; stroke-width:4; stroke-opacity:1; fill:none" points="252.164,931.648 271.062,931.648 "/>
<polyline clip-path="url(#clip170)" style="stroke:#000000; stroke-linecap:round; stroke-linejoin:round; stroke-width:4; stroke-opacity:1; fill:none" points="252.164,772.823 271.062,772.823 "/>
<polyline clip-path="url(#clip170)" style="stroke:#000000; stroke-linecap:round; stroke-linejoin:round; stroke-width:4; stroke-opacity:1; fill:none" points="252.164,613.999 271.062,613.999 "/>
<polyline clip-path="url(#clip170)" style="stroke:#000000; stroke-linecap:round; stroke-linejoin:round; stroke-width:4; stroke-opacity:1; fill:none" points="252.164,455.174 271.062,455.174 "/>
<polyline clip-path="url(#clip170)" style="stroke:#000000; stroke-linecap:round; stroke-linejoin:round; stroke-width:4; stroke-opacity:1; fill:none" points="252.164,296.35 271.062,296.35 "/>
<polyline clip-path="url(#clip170)" style="stroke:#000000; stroke-linecap:round; stroke-linejoin:round; stroke-width:4; stroke-opacity:1; fill:none" points="252.164,137.526 271.062,137.526 "/>
<path clip-path="url(#clip170)" d="M114.536 1090.92 L144.211 1090.92 L144.211 1094.86 L114.536 1094.86 L114.536 1090.92 Z" fill="#000000" fill-rule="nonzero" fill-opacity="1" /><path clip-path="url(#clip170)" d="M155.114 1103.82 L162.753 1103.82 L162.753 1077.45 L154.443 1079.12 L154.443 1074.86 L162.707 1073.19 L167.382 1073.19 L167.382 1103.82 L175.021 1103.82 L175.021 1107.75 L155.114 1107.75 L155.114 1103.82 Z" fill="#000000" fill-rule="nonzero" fill-opacity="1" /><path clip-path="url(#clip170)" d="M184.466 1101.87 L189.35 1101.87 L189.35 1107.75 L184.466 1107.75 L184.466 1101.87 Z" fill="#000000" fill-rule="nonzero" fill-opacity="1" /><path clip-path="url(#clip170)" d="M199.581 1073.19 L217.938 1073.19 L217.938 1077.13 L203.864 1077.13 L203.864 1085.6 Q204.882 1085.25 205.901 1085.09 Q206.919 1084.91 207.938 1084.91 Q213.725 1084.91 217.104 1088.08 Q220.484 1091.25 220.484 1096.66 Q220.484 1102.24 217.012 1105.35 Q213.54 1108.42 207.22 1108.42 Q205.044 1108.42 202.776 1108.05 Q200.53 1107.68 198.123 1106.94 L198.123 1102.24 Q200.206 1103.38 202.429 1103.93 Q204.651 1104.49 207.128 1104.49 Q211.132 1104.49 213.47 1102.38 Q215.808 1100.28 215.808 1096.66 Q215.808 1093.05 213.47 1090.95 Q211.132 1088.84 207.128 1088.84 Q205.253 1088.84 203.378 1089.26 Q201.526 1089.67 199.581 1090.55 L199.581 1073.19 Z" fill="#000000" fill-rule="nonzero" fill-opacity="1" /><path clip-path="url(#clip170)" d="M113.54 932.099 L143.216 932.099 L143.216 936.034 L113.54 936.034 L113.54 932.099 Z" fill="#000000" fill-rule="nonzero" fill-opacity="1" /><path clip-path="url(#clip170)" d="M154.119 944.993 L161.757 944.993 L161.757 918.627 L153.447 920.294 L153.447 916.035 L161.711 914.368 L166.387 914.368 L166.387 944.993 L174.026 944.993 L174.026 948.928 L154.119 948.928 L154.119 944.993 Z" fill="#000000" fill-rule="nonzero" fill-opacity="1" /><path clip-path="url(#clip170)" d="M183.47 943.048 L188.355 943.048 L188.355 948.928 L183.47 948.928 L183.47 943.048 Z" fill="#000000" fill-rule="nonzero" fill-opacity="1" /><path clip-path="url(#clip170)" d="M208.54 917.447 Q204.929 917.447 203.1 921.011 Q201.294 924.553 201.294 931.683 Q201.294 938.789 203.1 942.354 Q204.929 945.896 208.54 945.896 Q212.174 945.896 213.979 942.354 Q215.808 938.789 215.808 931.683 Q215.808 924.553 213.979 921.011 Q212.174 917.447 208.54 917.447 M208.54 913.743 Q214.35 913.743 217.405 918.349 Q220.484 922.933 220.484 931.683 Q220.484 940.409 217.405 945.016 Q214.35 949.599 208.54 949.599 Q202.729 949.599 199.651 945.016 Q196.595 940.409 196.595 931.683 Q196.595 922.933 199.651 918.349 Q202.729 913.743 208.54 913.743 Z" fill="#000000" fill-rule="nonzero" fill-opacity="1" /><path clip-path="url(#clip170)" d="M114.536 773.275 L144.211 773.275 L144.211 777.21 L114.536 777.21 L114.536 773.275 Z" fill="#000000" fill-rule="nonzero" fill-opacity="1" /><path clip-path="url(#clip170)" d="M164.304 758.622 Q160.693 758.622 158.864 762.187 Q157.058 765.729 157.058 772.858 Q157.058 779.965 158.864 783.529 Q160.693 787.071 164.304 787.071 Q167.938 787.071 169.744 783.529 Q171.572 779.965 171.572 772.858 Q171.572 765.729 169.744 762.187 Q167.938 758.622 164.304 758.622 M164.304 754.918 Q170.114 754.918 173.169 759.525 Q176.248 764.108 176.248 772.858 Q176.248 781.585 173.169 786.191 Q170.114 790.775 164.304 790.775 Q158.494 790.775 155.415 786.191 Q152.359 781.585 152.359 772.858 Q152.359 764.108 155.415 759.525 Q158.494 754.918 164.304 754.918 Z" fill="#000000" fill-rule="nonzero" fill-opacity="1" /><path clip-path="url(#clip170)" d="M184.466 784.224 L189.35 784.224 L189.35 790.103 L184.466 790.103 L184.466 784.224 Z" fill="#000000" fill-rule="nonzero" fill-opacity="1" /><path clip-path="url(#clip170)" d="M199.581 755.543 L217.938 755.543 L217.938 759.479 L203.864 759.479 L203.864 767.951 Q204.882 767.604 205.901 767.442 Q206.919 767.256 207.938 767.256 Q213.725 767.256 217.104 770.428 Q220.484 773.599 220.484 779.016 Q220.484 784.594 217.012 787.696 Q213.54 790.775 207.22 790.775 Q205.044 790.775 202.776 790.404 Q200.53 790.034 198.123 789.293 L198.123 784.594 Q200.206 785.728 202.429 786.284 Q204.651 786.84 207.128 786.84 Q211.132 786.84 213.47 784.733 Q215.808 782.627 215.808 779.016 Q215.808 775.404 213.47 773.298 Q211.132 771.192 207.128 771.192 Q205.253 771.192 203.378 771.608 Q201.526 772.025 199.581 772.904 L199.581 755.543 Z" fill="#000000" fill-rule="nonzero" fill-opacity="1" /><path clip-path="url(#clip170)" d="M163.308 599.798 Q159.697 599.798 157.869 603.362 Q156.063 606.904 156.063 614.034 Q156.063 621.14 157.869 624.705 Q159.697 628.247 163.308 628.247 Q166.943 628.247 168.748 624.705 Q170.577 621.14 170.577 614.034 Q170.577 606.904 168.748 603.362 Q166.943 599.798 163.308 599.798 M163.308 596.094 Q169.119 596.094 172.174 600.7 Q175.253 605.284 175.253 614.034 Q175.253 622.76 172.174 627.367 Q169.119 631.95 163.308 631.95 Q157.498 631.95 154.42 627.367 Q151.364 622.76 151.364 614.034 Q151.364 605.284 154.42 600.7 Q157.498 596.094 163.308 596.094 Z" fill="#000000" fill-rule="nonzero" fill-opacity="1" /><path clip-path="url(#clip170)" d="M183.47 625.399 L188.355 625.399 L188.355 631.279 L183.47 631.279 L183.47 625.399 Z" fill="#000000" fill-rule="nonzero" fill-opacity="1" /><path clip-path="url(#clip170)" d="M208.54 599.798 Q204.929 599.798 203.1 603.362 Q201.294 606.904 201.294 614.034 Q201.294 621.14 203.1 624.705 Q204.929 628.247 208.54 628.247 Q212.174 628.247 213.979 624.705 Q215.808 621.14 215.808 614.034 Q215.808 606.904 213.979 603.362 Q212.174 599.798 208.54 599.798 M208.54 596.094 Q214.35 596.094 217.405 600.7 Q220.484 605.284 220.484 614.034 Q220.484 622.76 217.405 627.367 Q214.35 631.95 208.54 631.95 Q202.729 631.95 199.651 627.367 Q196.595 622.76 196.595 614.034 Q196.595 605.284 199.651 600.7 Q202.729 596.094 208.54 596.094 Z" fill="#000000" fill-rule="nonzero" fill-opacity="1" /><path clip-path="url(#clip170)" d="M164.304 440.973 Q160.693 440.973 158.864 444.538 Q157.058 448.08 157.058 455.209 Q157.058 462.316 158.864 465.88 Q160.693 469.422 164.304 469.422 Q167.938 469.422 169.744 465.88 Q171.572 462.316 171.572 455.209 Q171.572 448.08 169.744 444.538 Q167.938 440.973 164.304 440.973 M164.304 437.269 Q170.114 437.269 173.169 441.876 Q176.248 446.459 176.248 455.209 Q176.248 463.936 173.169 468.542 Q170.114 473.126 164.304 473.126 Q158.494 473.126 155.415 468.542 Q152.359 463.936 152.359 455.209 Q152.359 446.459 155.415 441.876 Q158.494 437.269 164.304 437.269 Z" fill="#000000" fill-rule="nonzero" fill-opacity="1" /><path clip-path="url(#clip170)" d="M184.466 466.575 L189.35 466.575 L189.35 472.454 L184.466 472.454 L184.466 466.575 Z" fill="#000000" fill-rule="nonzero" fill-opacity="1" /><path clip-path="url(#clip170)" d="M199.581 437.894 L217.938 437.894 L217.938 441.83 L203.864 441.83 L203.864 450.302 Q204.882 449.955 205.901 449.793 Q206.919 449.607 207.938 449.607 Q213.725 449.607 217.104 452.779 Q220.484 455.95 220.484 461.367 Q220.484 466.945 217.012 470.047 Q213.54 473.126 207.22 473.126 Q205.044 473.126 202.776 472.755 Q200.53 472.385 198.123 471.644 L198.123 466.945 Q200.206 468.08 202.429 468.635 Q204.651 469.191 207.128 469.191 Q211.132 469.191 213.47 467.084 Q215.808 464.978 215.808 461.367 Q215.808 457.755 213.47 455.649 Q211.132 453.543 207.128 453.543 Q205.253 453.543 203.378 453.959 Q201.526 454.376 199.581 455.256 L199.581 437.894 Z" fill="#000000" fill-rule="nonzero" fill-opacity="1" /><path clip-path="url(#clip170)" d="M154.119 309.695 L161.757 309.695 L161.757 283.329 L153.447 284.996 L153.447 280.737 L161.711 279.07 L166.387 279.07 L166.387 309.695 L174.026 309.695 L174.026 313.63 L154.119 313.63 L154.119 309.695 Z" fill="#000000" fill-rule="nonzero" fill-opacity="1" /><path clip-path="url(#clip170)" d="M183.47 307.75 L188.355 307.75 L188.355 313.63 L183.47 313.63 L183.47 307.75 Z" fill="#000000" fill-rule="nonzero" fill-opacity="1" /><path clip-path="url(#clip170)" d="M208.54 282.149 Q204.929 282.149 203.1 285.713 Q201.294 289.255 201.294 296.385 Q201.294 303.491 203.1 307.056 Q204.929 310.598 208.54 310.598 Q212.174 310.598 213.979 307.056 Q215.808 303.491 215.808 296.385 Q215.808 289.255 213.979 285.713 Q212.174 282.149 208.54 282.149 M208.54 278.445 Q214.35 278.445 217.405 283.051 Q220.484 287.635 220.484 296.385 Q220.484 305.112 217.405 309.718 Q214.35 314.301 208.54 314.301 Q202.729 314.301 199.651 309.718 Q196.595 305.112 196.595 296.385 Q196.595 287.635 199.651 283.051 Q202.729 278.445 208.54 278.445 Z" fill="#000000" fill-rule="nonzero" fill-opacity="1" /><path clip-path="url(#clip170)" d="M155.114 150.87 L162.753 150.87 L162.753 124.505 L154.443 126.171 L154.443 121.912 L162.707 120.246 L167.382 120.246 L167.382 150.87 L175.021 150.87 L175.021 154.806 L155.114 154.806 L155.114 150.87 Z" fill="#000000" fill-rule="nonzero" fill-opacity="1" /><path clip-path="url(#clip170)" d="M184.466 148.926 L189.35 148.926 L189.35 154.806 L184.466 154.806 L184.466 148.926 Z" fill="#000000" fill-rule="nonzero" fill-opacity="1" /><path clip-path="url(#clip170)" d="M199.581 120.246 L217.938 120.246 L217.938 124.181 L203.864 124.181 L203.864 132.653 Q204.882 132.306 205.901 132.144 Q206.919 131.958 207.938 131.958 Q213.725 131.958 217.104 135.13 Q220.484 138.301 220.484 143.718 Q220.484 149.296 217.012 152.398 Q213.54 155.477 207.22 155.477 Q205.044 155.477 202.776 155.106 Q200.53 154.736 198.123 153.995 L198.123 149.296 Q200.206 150.431 202.429 150.986 Q204.651 151.542 207.128 151.542 Q211.132 151.542 213.47 149.435 Q215.808 147.329 215.808 143.718 Q215.808 140.107 213.47 138 Q211.132 135.894 207.128 135.894 Q205.253 135.894 203.378 136.31 Q201.526 136.727 199.581 137.607 L199.581 120.246 Z" fill="#000000" fill-rule="nonzero" fill-opacity="1" /><path clip-path="url(#clip170)" d="M15.2462 649.452 L15.2462 644.742 L27.2137 636.944 L27.2137 641.368 L19.4158 647.097 L27.2137 652.826 L27.2137 657.25 L15.2462 649.452 M70.9143 645.41 Q77.28 647.893 79.2216 650.248 Q81.1631 652.603 81.1631 656.55 L81.1631 661.229 L76.2615 661.229 L76.2615 657.791 Q76.2615 655.372 75.1157 654.036 Q73.9699 652.699 69.7048 651.075 L67.0312 650.025 L31.9562 664.443 L31.9562 658.237 L59.838 647.097 L31.9562 635.957 L31.9562 629.75 L70.9143 645.41 Z" fill="#000000" fill-rule="nonzero" fill-opacity="1" /><path clip-path="url(#clip170)" d="M686.388 18.8205 L686.388 41.5461 L696.677 41.5461 Q702.389 41.5461 705.508 38.5889 Q708.627 35.6318 708.627 30.163 Q708.627 24.7348 705.508 21.7777 Q702.389 18.8205 696.677 18.8205 L686.388 18.8205 M678.205 12.096 L696.677 12.096 Q706.845 12.096 712.03 16.714 Q717.256 21.2916 717.256 30.163 Q717.256 39.1155 712.03 43.6931 Q706.845 48.2706 696.677 48.2706 L686.388 48.2706 L686.388 72.576 L678.205 72.576 L678.205 12.096 Z" fill="#000000" fill-rule="nonzero" fill-opacity="1" /><path clip-path="url(#clip170)" d="M752.742 34.1734 Q751.486 33.4443 749.987 33.1202 Q748.529 32.7556 746.746 32.7556 Q740.427 32.7556 737.024 36.8875 Q733.662 40.9789 733.662 48.6757 L733.662 72.576 L726.168 72.576 L726.168 27.2059 L733.662 27.2059 L733.662 34.2544 Q736.011 30.1225 739.779 28.1376 Q743.546 26.1121 748.934 26.1121 Q749.703 26.1121 750.635 26.2337 Q751.567 26.3147 752.701 26.5172 L752.742 34.1734 Z" fill="#000000" fill-rule="nonzero" fill-opacity="1" /><path clip-path="url(#clip170)" d="M797.545 48.0275 L797.545 51.6733 L763.274 51.6733 Q763.76 59.3701 767.892 63.421 Q772.064 67.4314 779.478 67.4314 Q783.772 67.4314 787.782 66.3781 Q791.833 65.3249 795.803 63.2184 L795.803 70.267 Q791.792 71.9684 787.579 72.8596 Q783.366 73.7508 779.032 73.7508 Q768.176 73.7508 761.816 67.4314 Q755.496 61.1119 755.496 50.3365 Q755.496 39.1965 761.492 32.6746 Q767.527 26.1121 777.736 26.1121 Q786.891 26.1121 792.197 32.0264 Q797.545 37.9003 797.545 48.0275 M790.091 45.84 Q790.01 39.7232 786.648 36.0774 Q783.326 32.4315 777.817 32.4315 Q771.578 32.4315 767.811 35.9558 Q764.084 39.4801 763.517 45.8805 L790.091 45.84 Z" fill="#000000" fill-rule="nonzero" fill-opacity="1" /><path clip-path="url(#clip170)" d="M839.634 34.0924 L839.634 9.54393 L847.087 9.54393 L847.087 72.576 L839.634 72.576 L839.634 65.7705 Q837.284 69.8214 833.679 71.8063 Q830.114 73.7508 825.091 73.7508 Q816.867 73.7508 811.682 67.1883 Q806.538 60.6258 806.538 49.9314 Q806.538 39.2371 811.682 32.6746 Q816.867 26.1121 825.091 26.1121 Q830.114 26.1121 833.679 28.0971 Q837.284 30.0415 839.634 34.0924 M814.234 49.9314 Q814.234 58.1548 817.597 62.8538 Q820.999 67.5124 826.914 67.5124 Q832.828 67.5124 836.231 62.8538 Q839.634 58.1548 839.634 49.9314 Q839.634 41.7081 836.231 37.0496 Q832.828 32.3505 826.914 32.3505 Q820.999 32.3505 817.597 37.0496 Q814.234 41.7081 814.234 49.9314 Z" fill="#000000" fill-rule="nonzero" fill-opacity="1" /><path clip-path="url(#clip170)" d="M862.44 27.2059 L869.894 27.2059 L869.894 72.576 L862.44 72.576 L862.44 27.2059 M862.44 9.54393 L869.894 9.54393 L869.894 18.9825 L862.44 18.9825 L862.44 9.54393 Z" fill="#000000" fill-rule="nonzero" fill-opacity="1" /><path clip-path="url(#clip170)" d="M918.14 28.9478 L918.14 35.9153 Q914.98 34.1734 911.78 33.3227 Q908.62 32.4315 905.38 32.4315 Q898.129 32.4315 894.118 37.0496 Q890.108 41.6271 890.108 49.9314 Q890.108 58.2358 894.118 62.8538 Q898.129 67.4314 905.38 67.4314 Q908.62 67.4314 911.78 66.5807 Q914.98 65.6895 918.14 63.9476 L918.14 70.8341 Q915.021 72.2924 911.659 73.0216 Q908.337 73.7508 904.57 73.7508 Q894.321 73.7508 888.285 67.3098 Q882.249 60.8689 882.249 49.9314 Q882.249 38.832 888.325 32.472 Q894.442 26.1121 905.056 26.1121 Q908.499 26.1121 911.78 26.8413 Q915.061 27.5299 918.14 28.9478 Z" fill="#000000" fill-rule="nonzero" fill-opacity="1" /><path clip-path="url(#clip170)" d="M938.476 14.324 L938.476 27.2059 L953.829 27.2059 L953.829 32.9987 L938.476 32.9987 L938.476 57.6282 Q938.476 63.1779 939.974 64.7578 Q941.514 66.3376 946.172 66.3376 L953.829 66.3376 L953.829 72.576 L946.172 72.576 Q937.544 72.576 934.263 69.3758 Q930.981 66.1351 930.981 57.6282 L930.981 32.9987 L925.513 32.9987 L925.513 27.2059 L930.981 27.2059 L930.981 14.324 L938.476 14.324 Z" fill="#000000" fill-rule="nonzero" fill-opacity="1" /><path clip-path="url(#clip170)" d="M963.632 27.2059 L971.085 27.2059 L971.085 72.576 L963.632 72.576 L963.632 27.2059 M963.632 9.54393 L971.085 9.54393 L971.085 18.9825 L963.632 18.9825 L963.632 9.54393 Z" fill="#000000" fill-rule="nonzero" fill-opacity="1" /><path clip-path="url(#clip170)" d="M1004.26 32.4315 Q998.267 32.4315 994.783 37.1306 Q991.299 41.7891 991.299 49.9314 Q991.299 58.0738 994.743 62.7728 Q998.226 67.4314 1004.26 67.4314 Q1010.22 67.4314 1013.7 62.7323 Q1017.18 58.0333 1017.18 49.9314 Q1017.18 41.8701 1013.7 37.1711 Q1010.22 32.4315 1004.26 32.4315 M1004.26 26.1121 Q1013.98 26.1121 1019.53 32.4315 Q1025.08 38.7509 1025.08 49.9314 Q1025.08 61.0714 1019.53 67.4314 Q1013.98 73.7508 1004.26 73.7508 Q994.5 73.7508 988.95 67.4314 Q983.441 61.0714 983.441 49.9314 Q983.441 38.7509 988.95 32.4315 Q994.5 26.1121 1004.26 26.1121 Z" fill="#000000" fill-rule="nonzero" fill-opacity="1" /><path clip-path="url(#clip170)" d="M1075.15 45.1919 L1075.15 72.576 L1067.7 72.576 L1067.7 45.4349 Q1067.7 38.994 1065.19 35.7938 Q1062.68 32.5936 1057.65 32.5936 Q1051.62 32.5936 1048.13 36.4419 Q1044.65 40.2903 1044.65 46.9338 L1044.65 72.576 L1037.16 72.576 L1037.16 27.2059 L1044.65 27.2059 L1044.65 34.2544 Q1047.32 30.163 1050.93 28.1376 Q1054.57 26.1121 1059.31 26.1121 Q1067.13 26.1121 1071.14 30.9732 Q1075.15 35.7938 1075.15 45.1919 Z" fill="#000000" fill-rule="nonzero" fill-opacity="1" /><path clip-path="url(#clip170)" d="M1118.94 28.5427 L1118.94 35.5912 Q1115.78 33.9709 1112.38 33.1607 Q1108.98 32.3505 1105.33 32.3505 Q1099.78 32.3505 1096.99 34.0519 Q1094.23 35.7533 1094.23 39.156 Q1094.23 41.7486 1096.22 43.2475 Q1098.2 44.7058 1104.2 46.0426 L1106.75 46.6097 Q1114.69 48.3111 1118.01 51.4303 Q1121.37 54.509 1121.37 60.0587 Q1121.37 66.3781 1116.35 70.0644 Q1111.37 73.7508 1102.62 73.7508 Q1098.97 73.7508 1095 73.0216 Q1091.07 72.3329 1086.7 70.9151 L1086.7 63.2184 Q1090.83 65.3654 1094.84 66.4591 Q1098.85 67.5124 1102.78 67.5124 Q1108.05 67.5124 1110.88 65.73 Q1113.72 63.9071 1113.72 60.6258 Q1113.72 57.5877 1111.65 55.9673 Q1109.63 54.3469 1102.7 52.8481 L1100.11 52.2405 Q1093.18 50.7821 1090.1 47.7845 Q1087.02 44.7463 1087.02 39.4801 Q1087.02 33.0797 1091.56 29.5959 Q1096.1 26.1121 1104.44 26.1121 Q1108.57 26.1121 1112.22 26.7198 Q1115.86 27.3274 1118.94 28.5427 Z" fill="#000000" fill-rule="nonzero" fill-opacity="1" /><path clip-path="url(#clip170)" d="M1180.23 49.7694 Q1171.2 49.7694 1167.72 51.8354 Q1164.23 53.9013 1164.23 58.8839 Q1164.23 62.8538 1166.83 65.2034 Q1169.46 67.5124 1173.95 67.5124 Q1180.15 67.5124 1183.88 63.1374 Q1187.65 58.7219 1187.65 51.4303 L1187.65 49.7694 L1180.23 49.7694 M1195.1 46.6907 L1195.1 72.576 L1187.65 72.576 L1187.65 65.6895 Q1185.09 69.8214 1181.29 71.8063 Q1177.48 73.7508 1171.97 73.7508 Q1165 73.7508 1160.87 69.8619 Q1156.78 65.9325 1156.78 59.3701 Q1156.78 51.7138 1161.88 47.825 Q1167.03 43.9361 1177.2 43.9361 L1187.65 43.9361 L1187.65 43.2069 Q1187.65 38.0623 1184.24 35.2672 Q1180.88 32.4315 1174.76 32.4315 Q1170.88 32.4315 1167.19 33.3632 Q1163.5 34.295 1160.1 36.1584 L1160.1 29.2718 Q1164.19 27.692 1168.04 26.9223 Q1171.89 26.1121 1175.53 26.1121 Q1185.38 26.1121 1190.24 31.2163 Q1195.1 36.3204 1195.1 46.6907 Z" fill="#000000" fill-rule="nonzero" fill-opacity="1" /><path clip-path="url(#clip170)" d="M1217.83 14.324 L1217.83 27.2059 L1233.18 27.2059 L1233.18 32.9987 L1217.83 32.9987 L1217.83 57.6282 Q1217.83 63.1779 1219.32 64.7578 Q1220.86 66.3376 1225.52 66.3376 L1233.18 66.3376 L1233.18 72.576 L1225.52 72.576 Q1216.89 72.576 1213.61 69.3758 Q1210.33 66.1351 1210.33 57.6282 L1210.33 32.9987 L1204.86 32.9987 L1204.86 27.2059 L1210.33 27.2059 L1210.33 14.324 L1217.83 14.324 Z" fill="#000000" fill-rule="nonzero" fill-opacity="1" /><path clip-path="url(#clip170)" d="M1307.07 45.1919 L1307.07 72.576 L1299.61 72.576 L1299.61 45.4349 Q1299.61 38.994 1297.1 35.7938 Q1294.59 32.5936 1289.57 32.5936 Q1283.53 32.5936 1280.05 36.4419 Q1276.56 40.2903 1276.56 46.9338 L1276.56 72.576 L1269.07 72.576 L1269.07 27.2059 L1276.56 27.2059 L1276.56 34.2544 Q1279.24 30.163 1282.84 28.1376 Q1286.49 26.1121 1291.23 26.1121 Q1299.05 26.1121 1303.06 30.9732 Q1307.07 35.7938 1307.07 45.1919 Z" fill="#000000" fill-rule="nonzero" fill-opacity="1" /><path clip-path="url(#clip170)" d="M1360.74 48.0275 L1360.74 51.6733 L1326.47 51.6733 Q1326.96 59.3701 1331.09 63.421 Q1335.26 67.4314 1342.67 67.4314 Q1346.97 67.4314 1350.98 66.3781 Q1355.03 65.3249 1359 63.2184 L1359 70.267 Q1354.99 71.9684 1350.78 72.8596 Q1346.56 73.7508 1342.23 73.7508 Q1331.37 73.7508 1325.01 67.4314 Q1318.69 61.1119 1318.69 50.3365 Q1318.69 39.1965 1324.69 32.6746 Q1330.72 26.1121 1340.93 26.1121 Q1350.09 26.1121 1355.39 32.0264 Q1360.74 37.9003 1360.74 48.0275 M1353.29 45.84 Q1353.21 39.7232 1349.84 36.0774 Q1346.52 32.4315 1341.01 32.4315 Q1334.78 32.4315 1331.01 35.9558 Q1327.28 39.4801 1326.71 45.8805 L1353.29 45.84 Z" fill="#000000" fill-rule="nonzero" fill-opacity="1" /><path clip-path="url(#clip170)" d="M1368.64 27.2059 L1376.09 27.2059 L1385.41 62.6108 L1394.69 27.2059 L1403.48 27.2059 L1412.8 62.6108 L1422.07 27.2059 L1429.53 27.2059 L1417.66 72.576 L1408.87 72.576 L1399.1 35.3887 L1389.3 72.576 L1380.51 72.576 L1368.64 27.2059 Z" fill="#000000" fill-rule="nonzero" fill-opacity="1" /><path clip-path="url(#clip170)" d="M1497.05 34.0924 L1497.05 9.54393 L1504.51 9.54393 L1504.51 72.576 L1497.05 72.576 L1497.05 65.7705 Q1494.71 69.8214 1491.1 71.8063 Q1487.54 73.7508 1482.51 73.7508 Q1474.29 73.7508 1469.1 67.1883 Q1463.96 60.6258 1463.96 49.9314 Q1463.96 39.2371 1469.1 32.6746 Q1474.29 26.1121 1482.51 26.1121 Q1487.54 26.1121 1491.1 28.0971 Q1494.71 30.0415 1497.05 34.0924 M1471.66 49.9314 Q1471.66 58.1548 1475.02 62.8538 Q1478.42 67.5124 1484.33 67.5124 Q1490.25 67.5124 1493.65 62.8538 Q1497.05 58.1548 1497.05 49.9314 Q1497.05 41.7081 1493.65 37.0496 Q1490.25 32.3505 1484.33 32.3505 Q1478.42 32.3505 1475.02 37.0496 Q1471.66 41.7081 1471.66 49.9314 Z" fill="#000000" fill-rule="nonzero" fill-opacity="1" /><path clip-path="url(#clip170)" d="M1540.48 49.7694 Q1531.45 49.7694 1527.96 51.8354 Q1524.48 53.9013 1524.48 58.8839 Q1524.48 62.8538 1527.07 65.2034 Q1529.71 67.5124 1534.2 67.5124 Q1540.4 67.5124 1544.13 63.1374 Q1547.89 58.7219 1547.89 51.4303 L1547.89 49.7694 L1540.48 49.7694 M1555.35 46.6907 L1555.35 72.576 L1547.89 72.576 L1547.89 65.6895 Q1545.34 69.8214 1541.53 71.8063 Q1537.73 73.7508 1532.22 73.7508 Q1525.25 73.7508 1521.12 69.8619 Q1517.03 65.9325 1517.03 59.3701 Q1517.03 51.7138 1522.13 47.825 Q1527.27 43.9361 1537.44 43.9361 L1547.89 43.9361 L1547.89 43.2069 Q1547.89 38.0623 1544.49 35.2672 Q1541.13 32.4315 1535.01 32.4315 Q1531.12 32.4315 1527.44 33.3632 Q1523.75 34.295 1520.35 36.1584 L1520.35 29.2718 Q1524.44 27.692 1528.29 26.9223 Q1532.14 26.1121 1535.78 26.1121 Q1545.63 26.1121 1550.49 31.2163 Q1555.35 36.3204 1555.35 46.6907 Z" fill="#000000" fill-rule="nonzero" fill-opacity="1" /><path clip-path="url(#clip170)" d="M1578.07 14.324 L1578.07 27.2059 L1593.43 27.2059 L1593.43 32.9987 L1578.07 32.9987 L1578.07 57.6282 Q1578.07 63.1779 1579.57 64.7578 Q1581.11 66.3376 1585.77 66.3376 L1593.43 66.3376 L1593.43 72.576 L1585.77 72.576 Q1577.14 72.576 1573.86 69.3758 Q1570.58 66.1351 1570.58 57.6282 L1570.58 32.9987 L1565.11 32.9987 L1565.11 27.2059 L1570.58 27.2059 L1570.58 14.324 L1578.07 14.324 Z" fill="#000000" fill-rule="nonzero" fill-opacity="1" /><path clip-path="url(#clip170)" d="M1623.85 49.7694 Q1614.81 49.7694 1611.33 51.8354 Q1607.85 53.9013 1607.85 58.8839 Q1607.85 62.8538 1610.44 65.2034 Q1613.07 67.5124 1617.57 67.5124 Q1623.77 67.5124 1627.49 63.1374 Q1631.26 58.7219 1631.26 51.4303 L1631.26 49.7694 L1623.85 49.7694 M1638.71 46.6907 L1638.71 72.576 L1631.26 72.576 L1631.26 65.6895 Q1628.71 69.8214 1624.9 71.8063 Q1621.09 73.7508 1615.58 73.7508 Q1608.62 73.7508 1604.48 69.8619 Q1600.39 65.9325 1600.39 59.3701 Q1600.39 51.7138 1605.5 47.825 Q1610.64 43.9361 1620.81 43.9361 L1631.26 43.9361 L1631.26 43.2069 Q1631.26 38.0623 1627.86 35.2672 Q1624.5 32.4315 1618.38 32.4315 Q1614.49 32.4315 1610.8 33.3632 Q1607.12 34.295 1603.72 36.1584 L1603.72 29.2718 Q1607.81 27.692 1611.65 26.9223 Q1615.5 26.1121 1619.15 26.1121 Q1628.99 26.1121 1633.85 31.2163 Q1638.71 36.3204 1638.71 46.6907 Z" fill="#000000" fill-rule="nonzero" fill-opacity="1" /><path clip-path="url(#clip171)" d="M303.464 647.542 L338.362 610.501 L373.259 579.815 L408.157 553.859 L443.055 526.247 L477.953 493.678 L512.851 460.995 L547.748 431.264 L582.646 403.431 L617.544 380.591 L652.442 365.484 L687.34 356.128 L722.237 351.269 L757.135 352.424 L792.033 359.856 L826.931 371.096 L861.829 382.948 L896.726 396.79 L931.624 416.69 L966.522 443.174 L1001.42 474.213 L1036.32 510.333 L1071.22 552.114 L1106.11 595.565 L1141.01 636.419 L1175.91 676.404 L1210.81 717.193 L1245.7 756.945 L1280.6 793.024 L1315.5 827.462 L1350.4 860.897 L1385.3 889.336 L1420.19 912.75 L1455.09 932.786 L1489.99 946.815 L1524.89 953.684 L1559.78 958.468 L1594.68 960.848 L1629.58 960.952 L1664.48 954.637 L1699.38 940.246 L1734.27 921.435 L1769.17 896.89 L1804.07 865.439 L1838.97 830.869 L1873.86 796.384 L1908.76 763.74 L1943.66 738.121 L1978.56 724.025 L2013.46 720.328 L2013.46 581.305 L1978.56 605.697 L1943.66 653.762 L1908.76 691.945 L1873.86 725.529 L1838.97 758.015 L1804.07 788.384 L1769.17 817.057 L1734.27 845.072 L1699.38 868.859 L1664.48 884.941 L1629.58 894.91 L1594.68 898.095 L1559.78 894.966 L1524.89 888.158 L1489.99 875.586 L1455.09 860.48 L1420.19 841.653 L1385.3 816.986 L1350.4 788.64 L1315.5 757.513 L1280.6 721.163 L1245.7 681.836 L1210.81 642.909 L1175.91 602.546 L1141.01 559.63 L1106.11 516.561 L1071.22 476.143 L1036.32 437.133 L1001.42 399.232 L966.522 366.68 L931.624 341.615 L896.726 320.411 L861.829 301.72 L826.931 287.788 L792.033 279.718 L757.135 275.808 L722.237 275.18 L687.34 279.684 L652.442 292.365 L617.544 311.762 L582.646 333.8 L547.748 359.026 L512.851 388.039 L477.953 416.252 L443.055 442.974 L408.157 470.319 L373.259 495.574 L338.362 513.608 L303.464 523.492  Z" fill="#009af9" fill-rule="evenodd" fill-opacity="0.2"/>
<polyline clip-path="url(#clip171)" style="stroke:#009af9; stroke-linecap:round; stroke-linejoin:round; stroke-width:8; stroke-opacity:1; fill:none" points="303.464,585.517 338.362,562.054 373.259,537.695 408.157,512.089 443.055,484.611 477.953,454.965 512.851,424.517 547.748,395.145 582.646,368.616 617.544,346.177 652.442,328.924 687.34,317.906 722.237,313.224 757.135,314.116 792.033,319.787 826.931,329.442 861.829,342.334 896.726,358.6 931.624,379.152 966.522,404.927 1001.42,436.723 1036.32,473.733 1071.22,514.128 1106.11,556.063 1141.01,598.024 1175.91,639.475 1210.81,680.051 1245.7,719.39 1280.6,757.094 1315.5,792.487 1350.4,824.769 1385.3,853.161 1420.19,877.202 1455.09,896.633 1489.99,911.201 1524.89,920.921 1559.78,926.717 1594.68,929.472 1629.58,927.931 1664.48,919.789 1699.38,904.552 1734.27,883.253 1769.17,856.974 1804.07,826.911 1838.97,794.442 1873.86,760.957 1908.76,727.843 1943.66,695.942 1978.56,664.861 2013.46,650.816 "/>
<circle clip-path="url(#clip171)" cx="303.872" cy="499.077" r="7.2" fill="#808080" fill-rule="evenodd" fill-opacity="0.3" stroke="#000000" stroke-opacity="0.3" stroke-width="2.688"/>
<circle clip-path="url(#clip171)" cx="305.825" cy="511.684" r="7.2" fill="#808080" fill-rule="evenodd" fill-opacity="0.3" stroke="#000000" stroke-opacity="0.3" stroke-width="2.688"/>
<circle clip-path="url(#clip171)" cx="306.149" cy="706.465" r="7.2" fill="#808080" fill-rule="evenodd" fill-opacity="0.3" stroke="#000000" stroke-opacity="0.3" stroke-width="2.688"/>
<circle clip-path="url(#clip171)" cx="307.351" cy="433.312" r="7.2" fill="#808080" fill-rule="evenodd" fill-opacity="0.3" stroke="#000000" stroke-opacity="0.3" stroke-width="2.688"/>
<circle clip-path="url(#clip171)" cx="310.215" cy="669.659" r="7.2" fill="#808080" fill-rule="evenodd" fill-opacity="0.3" stroke="#000000" stroke-opacity="0.3" stroke-width="2.688"/>
<circle clip-path="url(#clip171)" cx="316.005" cy="589.311" r="7.2" fill="#808080" fill-rule="evenodd" fill-opacity="0.3" stroke="#000000" stroke-opacity="0.3" stroke-width="2.688"/>
<circle clip-path="url(#clip171)" cx="316.947" cy="638.507" r="7.2" fill="#808080" fill-rule="evenodd" fill-opacity="0.3" stroke="#000000" stroke-opacity="0.3" stroke-width="2.688"/>
<circle clip-path="url(#clip171)" cx="353.2" cy="567.93" r="7.2" fill="#808080" fill-rule="evenodd" fill-opacity="0.3" stroke="#000000" stroke-opacity="0.3" stroke-width="2.688"/>
<circle clip-path="url(#clip171)" cx="367.471" cy="522.045" r="7.2" fill="#808080" fill-rule="evenodd" fill-opacity="0.3" stroke="#000000" stroke-opacity="0.3" stroke-width="2.688"/>
<circle clip-path="url(#clip171)" cx="370.045" cy="525.705" r="7.2" fill="#808080" fill-rule="evenodd" fill-opacity="0.3" stroke="#000000" stroke-opacity="0.3" stroke-width="2.688"/>
<circle clip-path="url(#clip171)" cx="376.974" cy="531.631" r="7.2" fill="#808080" fill-rule="evenodd" fill-opacity="0.3" stroke="#000000" stroke-opacity="0.3" stroke-width="2.688"/>
<circle clip-path="url(#clip171)" cx="394.315" cy="499.62" r="7.2" fill="#808080" fill-rule="evenodd" fill-opacity="0.3" stroke="#000000" stroke-opacity="0.3" stroke-width="2.688"/>
<circle clip-path="url(#clip171)" cx="427.016" cy="520.955" r="7.2" fill="#808080" fill-rule="evenodd" fill-opacity="0.3" stroke="#000000" stroke-opacity="0.3" stroke-width="2.688"/>
<circle clip-path="url(#clip171)" cx="440.715" cy="508.557" r="7.2" fill="#808080" fill-rule="evenodd" fill-opacity="0.3" stroke="#000000" stroke-opacity="0.3" stroke-width="2.688"/>
<circle clip-path="url(#clip171)" cx="444.431" cy="615.019" r="7.2" fill="#808080" fill-rule="evenodd" fill-opacity="0.3" stroke="#000000" stroke-opacity="0.3" stroke-width="2.688"/>
<circle clip-path="url(#clip171)" cx="449.86" cy="487.687" r="7.2" fill="#808080" fill-rule="evenodd" fill-opacity="0.3" stroke="#000000" stroke-opacity="0.3" stroke-width="2.688"/>
<circle clip-path="url(#clip171)" cx="457.33" cy="492.68" r="7.2" fill="#808080" fill-rule="evenodd" fill-opacity="0.3" stroke="#000000" stroke-opacity="0.3" stroke-width="2.688"/>
<circle clip-path="url(#clip171)" cx="495.51" cy="150.518" r="7.2" fill="#808080" fill-rule="evenodd" fill-opacity="0.3" stroke="#000000" stroke-opacity="0.3" stroke-width="2.688"/>
<circle clip-path="url(#clip171)" cx="497.922" cy="535.662" r="7.2" fill="#808080" fill-rule="evenodd" fill-opacity="0.3" stroke="#000000" stroke-opacity="0.3" stroke-width="2.688"/>
<circle clip-path="url(#clip171)" cx="502.122" cy="389.101" r="7.2" fill="#808080" fill-rule="evenodd" fill-opacity="0.3" stroke="#000000" stroke-opacity="0.3" stroke-width="2.688"/>
<circle clip-path="url(#clip171)" cx="504.366" cy="542.57" r="7.2" fill="#808080" fill-rule="evenodd" fill-opacity="0.3" stroke="#000000" stroke-opacity="0.3" stroke-width="2.688"/>
<circle clip-path="url(#clip171)" cx="523.834" cy="524.114" r="7.2" fill="#808080" fill-rule="evenodd" fill-opacity="0.3" stroke="#000000" stroke-opacity="0.3" stroke-width="2.688"/>
<circle clip-path="url(#clip171)" cx="524.205" cy="371.807" r="7.2" fill="#808080" fill-rule="evenodd" fill-opacity="0.3" stroke="#000000" stroke-opacity="0.3" stroke-width="2.688"/>
<circle clip-path="url(#clip171)" cx="531.456" cy="472.919" r="7.2" fill="#808080" fill-rule="evenodd" fill-opacity="0.3" stroke="#000000" stroke-opacity="0.3" stroke-width="2.688"/>
<circle clip-path="url(#clip171)" cx="533.743" cy="376.341" r="7.2" fill="#808080" fill-rule="evenodd" fill-opacity="0.3" stroke="#000000" stroke-opacity="0.3" stroke-width="2.688"/>
<circle clip-path="url(#clip171)" cx="535.533" cy="415.598" r="7.2" fill="#808080" fill-rule="evenodd" fill-opacity="0.3" stroke="#000000" stroke-opacity="0.3" stroke-width="2.688"/>
<circle clip-path="url(#clip171)" cx="536.861" cy="432.25" r="7.2" fill="#808080" fill-rule="evenodd" fill-opacity="0.3" stroke="#000000" stroke-opacity="0.3" stroke-width="2.688"/>
<circle clip-path="url(#clip171)" cx="540.657" cy="563.836" r="7.2" fill="#808080" fill-rule="evenodd" fill-opacity="0.3" stroke="#000000" stroke-opacity="0.3" stroke-width="2.688"/>
<circle clip-path="url(#clip171)" cx="543.682" cy="485.35" r="7.2" fill="#808080" fill-rule="evenodd" fill-opacity="0.3" stroke="#000000" stroke-opacity="0.3" stroke-width="2.688"/>
<circle clip-path="url(#clip171)" cx="557.306" cy="341.743" r="7.2" fill="#808080" fill-rule="evenodd" fill-opacity="0.3" stroke="#000000" stroke-opacity="0.3" stroke-width="2.688"/>
<circle clip-path="url(#clip171)" cx="558.376" cy="304.017" r="7.2" fill="#808080" fill-rule="evenodd" fill-opacity="0.3" stroke="#000000" stroke-opacity="0.3" stroke-width="2.688"/>
<circle clip-path="url(#clip171)" cx="573.48" cy="395.031" r="7.2" fill="#808080" fill-rule="evenodd" fill-opacity="0.3" stroke="#000000" stroke-opacity="0.3" stroke-width="2.688"/>
<circle clip-path="url(#clip171)" cx="594.44" cy="335.479" r="7.2" fill="#808080" fill-rule="evenodd" fill-opacity="0.3" stroke="#000000" stroke-opacity="0.3" stroke-width="2.688"/>
<circle clip-path="url(#clip171)" cx="596.324" cy="227.429" r="7.2" fill="#808080" fill-rule="evenodd" fill-opacity="0.3" stroke="#000000" stroke-opacity="0.3" stroke-width="2.688"/>
<circle clip-path="url(#clip171)" cx="610.503" cy="189.75" r="7.2" fill="#808080" fill-rule="evenodd" fill-opacity="0.3" stroke="#000000" stroke-opacity="0.3" stroke-width="2.688"/>
<circle clip-path="url(#clip171)" cx="621.697" cy="426.158" r="7.2" fill="#808080" fill-rule="evenodd" fill-opacity="0.3" stroke="#000000" stroke-opacity="0.3" stroke-width="2.688"/>
<circle clip-path="url(#clip171)" cx="624.718" cy="331.428" r="7.2" fill="#808080" fill-rule="evenodd" fill-opacity="0.3" stroke="#000000" stroke-opacity="0.3" stroke-width="2.688"/>
<circle clip-path="url(#clip171)" cx="627.463" cy="204.548" r="7.2" fill="#808080" fill-rule="evenodd" fill-opacity="0.3" stroke="#000000" stroke-opacity="0.3" stroke-width="2.688"/>
<circle clip-path="url(#clip171)" cx="636.359" cy="360.111" r="7.2" fill="#808080" fill-rule="evenodd" fill-opacity="0.3" stroke="#000000" stroke-opacity="0.3" stroke-width="2.688"/>
<circle clip-path="url(#clip171)" cx="640.323" cy="318.804" r="7.2" fill="#808080" fill-rule="evenodd" fill-opacity="0.3" stroke="#000000" stroke-opacity="0.3" stroke-width="2.688"/>
<circle clip-path="url(#clip171)" cx="641.034" cy="321.74" r="7.2" fill="#808080" fill-rule="evenodd" fill-opacity="0.3" stroke="#000000" stroke-opacity="0.3" stroke-width="2.688"/>
<circle clip-path="url(#clip171)" cx="658.559" cy="392.116" r="7.2" fill="#808080" fill-rule="evenodd" fill-opacity="0.3" stroke="#000000" stroke-opacity="0.3" stroke-width="2.688"/>
<circle clip-path="url(#clip171)" cx="660.117" cy="349.428" r="7.2" fill="#808080" fill-rule="evenodd" fill-opacity="0.3" stroke="#000000" stroke-opacity="0.3" stroke-width="2.688"/>
<circle clip-path="url(#clip171)" cx="673.481" cy="306.215" r="7.2" fill="#808080" fill-rule="evenodd" fill-opacity="0.3" stroke="#000000" stroke-opacity="0.3" stroke-width="2.688"/>
<circle clip-path="url(#clip171)" cx="673.792" cy="342.772" r="7.2" fill="#808080" fill-rule="evenodd" fill-opacity="0.3" stroke="#000000" stroke-opacity="0.3" stroke-width="2.688"/>
<circle clip-path="url(#clip171)" cx="674.802" cy="196.989" r="7.2" fill="#808080" fill-rule="evenodd" fill-opacity="0.3" stroke="#000000" stroke-opacity="0.3" stroke-width="2.688"/>
<circle clip-path="url(#clip171)" cx="702.787" cy="343.887" r="7.2" fill="#808080" fill-rule="evenodd" fill-opacity="0.3" stroke="#000000" stroke-opacity="0.3" stroke-width="2.688"/>
<circle clip-path="url(#clip171)" cx="703.095" cy="339.292" r="7.2" fill="#808080" fill-rule="evenodd" fill-opacity="0.3" stroke="#000000" stroke-opacity="0.3" stroke-width="2.688"/>
<circle clip-path="url(#clip171)" cx="714.793" cy="230.503" r="7.2" fill="#808080" fill-rule="evenodd" fill-opacity="0.3" stroke="#000000" stroke-opacity="0.3" stroke-width="2.688"/>
<circle clip-path="url(#clip171)" cx="740.245" cy="397.201" r="7.2" fill="#808080" fill-rule="evenodd" fill-opacity="0.3" stroke="#000000" stroke-opacity="0.3" stroke-width="2.688"/>
<circle clip-path="url(#clip171)" cx="746.797" cy="300.766" r="7.2" fill="#808080" fill-rule="evenodd" fill-opacity="0.3" stroke="#000000" stroke-opacity="0.3" stroke-width="2.688"/>
<circle clip-path="url(#clip171)" cx="749.922" cy="444.975" r="7.2" fill="#808080" fill-rule="evenodd" fill-opacity="0.3" stroke="#000000" stroke-opacity="0.3" stroke-width="2.688"/>
<circle clip-path="url(#clip171)" cx="767.362" cy="187.962" r="7.2" fill="#808080" fill-rule="evenodd" fill-opacity="0.3" stroke="#000000" stroke-opacity="0.3" stroke-width="2.688"/>
<circle clip-path="url(#clip171)" cx="792.76" cy="330.581" r="7.2" fill="#808080" fill-rule="evenodd" fill-opacity="0.3" stroke="#000000" stroke-opacity="0.3" stroke-width="2.688"/>
<circle clip-path="url(#clip171)" cx="795.514" cy="349.827" r="7.2" fill="#808080" fill-rule="evenodd" fill-opacity="0.3" stroke="#000000" stroke-opacity="0.3" stroke-width="2.688"/>
<circle clip-path="url(#clip171)" cx="805.558" cy="426.207" r="7.2" fill="#808080" fill-rule="evenodd" fill-opacity="0.3" stroke="#000000" stroke-opacity="0.3" stroke-width="2.688"/>
<circle clip-path="url(#clip171)" cx="825.385" cy="316.017" r="7.2" fill="#808080" fill-rule="evenodd" fill-opacity="0.3" stroke="#000000" stroke-opacity="0.3" stroke-width="2.688"/>
<circle clip-path="url(#clip171)" cx="845.489" cy="400.326" r="7.2" fill="#808080" fill-rule="evenodd" fill-opacity="0.3" stroke="#000000" stroke-opacity="0.3" stroke-width="2.688"/>
<circle clip-path="url(#clip171)" cx="845.623" cy="374.966" r="7.2" fill="#808080" fill-rule="evenodd" fill-opacity="0.3" stroke="#000000" stroke-opacity="0.3" stroke-width="2.688"/>
<circle clip-path="url(#clip171)" cx="857.648" cy="207.44" r="7.2" fill="#808080" fill-rule="evenodd" fill-opacity="0.3" stroke="#000000" stroke-opacity="0.3" stroke-width="2.688"/>
<circle clip-path="url(#clip171)" cx="873.014" cy="355.373" r="7.2" fill="#808080" fill-rule="evenodd" fill-opacity="0.3" stroke="#000000" stroke-opacity="0.3" stroke-width="2.688"/>
<circle clip-path="url(#clip171)" cx="873.622" cy="441.136" r="7.2" fill="#808080" fill-rule="evenodd" fill-opacity="0.3" stroke="#000000" stroke-opacity="0.3" stroke-width="2.688"/>
<circle clip-path="url(#clip171)" cx="896.401" cy="337.702" r="7.2" fill="#808080" fill-rule="evenodd" fill-opacity="0.3" stroke="#000000" stroke-opacity="0.3" stroke-width="2.688"/>
<circle clip-path="url(#clip171)" cx="911.65" cy="398.391" r="7.2" fill="#808080" fill-rule="evenodd" fill-opacity="0.3" stroke="#000000" stroke-opacity="0.3" stroke-width="2.688"/>
<circle clip-path="url(#clip171)" cx="913.456" cy="308.903" r="7.2" fill="#808080" fill-rule="evenodd" fill-opacity="0.3" stroke="#000000" stroke-opacity="0.3" stroke-width="2.688"/>
<circle clip-path="url(#clip171)" cx="917.399" cy="231.512" r="7.2" fill="#808080" fill-rule="evenodd" fill-opacity="0.3" stroke="#000000" stroke-opacity="0.3" stroke-width="2.688"/>
<circle clip-path="url(#clip171)" cx="945.549" cy="484.678" r="7.2" fill="#808080" fill-rule="evenodd" fill-opacity="0.3" stroke="#000000" stroke-opacity="0.3" stroke-width="2.688"/>
<circle clip-path="url(#clip171)" cx="952.507" cy="352.587" r="7.2" fill="#808080" fill-rule="evenodd" fill-opacity="0.3" stroke="#000000" stroke-opacity="0.3" stroke-width="2.688"/>
<circle clip-path="url(#clip171)" cx="967.126" cy="400.537" r="7.2" fill="#808080" fill-rule="evenodd" fill-opacity="0.3" stroke="#000000" stroke-opacity="0.3" stroke-width="2.688"/>
<circle clip-path="url(#clip171)" cx="968.557" cy="324.561" r="7.2" fill="#808080" fill-rule="evenodd" fill-opacity="0.3" stroke="#000000" stroke-opacity="0.3" stroke-width="2.688"/>
<circle clip-path="url(#clip171)" cx="970.709" cy="433.732" r="7.2" fill="#808080" fill-rule="evenodd" fill-opacity="0.3" stroke="#000000" stroke-opacity="0.3" stroke-width="2.688"/>
<circle clip-path="url(#clip171)" cx="977.955" cy="338.704" r="7.2" fill="#808080" fill-rule="evenodd" fill-opacity="0.3" stroke="#000000" stroke-opacity="0.3" stroke-width="2.688"/>
<circle clip-path="url(#clip171)" cx="978.865" cy="585.562" r="7.2" fill="#808080" fill-rule="evenodd" fill-opacity="0.3" stroke="#000000" stroke-opacity="0.3" stroke-width="2.688"/>
<circle clip-path="url(#clip171)" cx="984.871" cy="263.856" r="7.2" fill="#808080" fill-rule="evenodd" fill-opacity="0.3" stroke="#000000" stroke-opacity="0.3" stroke-width="2.688"/>
<circle clip-path="url(#clip171)" cx="1005.65" cy="362.457" r="7.2" fill="#808080" fill-rule="evenodd" fill-opacity="0.3" stroke="#000000" stroke-opacity="0.3" stroke-width="2.688"/>
<circle clip-path="url(#clip171)" cx="1007.76" cy="461.329" r="7.2" fill="#808080" fill-rule="evenodd" fill-opacity="0.3" stroke="#000000" stroke-opacity="0.3" stroke-width="2.688"/>
<circle clip-path="url(#clip171)" cx="1011.49" cy="588.756" r="7.2" fill="#808080" fill-rule="evenodd" fill-opacity="0.3" stroke="#000000" stroke-opacity="0.3" stroke-width="2.688"/>
<circle clip-path="url(#clip171)" cx="1034.48" cy="412.968" r="7.2" fill="#808080" fill-rule="evenodd" fill-opacity="0.3" stroke="#000000" stroke-opacity="0.3" stroke-width="2.688"/>
<circle clip-path="url(#clip171)" cx="1041.76" cy="435.876" r="7.2" fill="#808080" fill-rule="evenodd" fill-opacity="0.3" stroke="#000000" stroke-opacity="0.3" stroke-width="2.688"/>
<circle clip-path="url(#clip171)" cx="1048.63" cy="489.866" r="7.2" fill="#808080" fill-rule="evenodd" fill-opacity="0.3" stroke="#000000" stroke-opacity="0.3" stroke-width="2.688"/>
<circle clip-path="url(#clip171)" cx="1067.78" cy="495.673" r="7.2" fill="#808080" fill-rule="evenodd" fill-opacity="0.3" stroke="#000000" stroke-opacity="0.3" stroke-width="2.688"/>
<circle clip-path="url(#clip171)" cx="1076.19" cy="575.09" r="7.2" fill="#808080" fill-rule="evenodd" fill-opacity="0.3" stroke="#000000" stroke-opacity="0.3" stroke-width="2.688"/>
<circle clip-path="url(#clip171)" cx="1077.63" cy="485.894" r="7.2" fill="#808080" fill-rule="evenodd" fill-opacity="0.3" stroke="#000000" stroke-opacity="0.3" stroke-width="2.688"/>
<circle clip-path="url(#clip171)" cx="1086.2" cy="502.567" r="7.2" fill="#808080" fill-rule="evenodd" fill-opacity="0.3" stroke="#000000" stroke-opacity="0.3" stroke-width="2.688"/>
<circle clip-path="url(#clip171)" cx="1093.98" cy="566.055" r="7.2" fill="#808080" fill-rule="evenodd" fill-opacity="0.3" stroke="#000000" stroke-opacity="0.3" stroke-width="2.688"/>
<circle clip-path="url(#clip171)" cx="1097.02" cy="670.231" r="7.2" fill="#808080" fill-rule="evenodd" fill-opacity="0.3" stroke="#000000" stroke-opacity="0.3" stroke-width="2.688"/>
<circle clip-path="url(#clip171)" cx="1115.71" cy="497.524" r="7.2" fill="#808080" fill-rule="evenodd" fill-opacity="0.3" stroke="#000000" stroke-opacity="0.3" stroke-width="2.688"/>
<circle clip-path="url(#clip171)" cx="1123.23" cy="520.184" r="7.2" fill="#808080" fill-rule="evenodd" fill-opacity="0.3" stroke="#000000" stroke-opacity="0.3" stroke-width="2.688"/>
<circle clip-path="url(#clip171)" cx="1124.79" cy="654.497" r="7.2" fill="#808080" fill-rule="evenodd" fill-opacity="0.3" stroke="#000000" stroke-opacity="0.3" stroke-width="2.688"/>
<circle clip-path="url(#clip171)" cx="1182.76" cy="794.282" r="7.2" fill="#808080" fill-rule="evenodd" fill-opacity="0.3" stroke="#000000" stroke-opacity="0.3" stroke-width="2.688"/>
<circle clip-path="url(#clip171)" cx="1183.1" cy="623.184" r="7.2" fill="#808080" fill-rule="evenodd" fill-opacity="0.3" stroke="#000000" stroke-opacity="0.3" stroke-width="2.688"/>
<circle clip-path="url(#clip171)" cx="1183.11" cy="675.611" r="7.2" fill="#808080" fill-rule="evenodd" fill-opacity="0.3" stroke="#000000" stroke-opacity="0.3" stroke-width="2.688"/>
<circle clip-path="url(#clip171)" cx="1184.22" cy="619.946" r="7.2" fill="#808080" fill-rule="evenodd" fill-opacity="0.3" stroke="#000000" stroke-opacity="0.3" stroke-width="2.688"/>
<circle clip-path="url(#clip171)" cx="1191.11" cy="775.332" r="7.2" fill="#808080" fill-rule="evenodd" fill-opacity="0.3" stroke="#000000" stroke-opacity="0.3" stroke-width="2.688"/>
<circle clip-path="url(#clip171)" cx="1212.97" cy="768.595" r="7.2" fill="#808080" fill-rule="evenodd" fill-opacity="0.3" stroke="#000000" stroke-opacity="0.3" stroke-width="2.688"/>
<circle clip-path="url(#clip171)" cx="1218.71" cy="580.284" r="7.2" fill="#808080" fill-rule="evenodd" fill-opacity="0.3" stroke="#000000" stroke-opacity="0.3" stroke-width="2.688"/>
<circle clip-path="url(#clip171)" cx="1219.61" cy="646.296" r="7.2" fill="#808080" fill-rule="evenodd" fill-opacity="0.3" stroke="#000000" stroke-opacity="0.3" stroke-width="2.688"/>
<circle clip-path="url(#clip171)" cx="1219.66" cy="628.941" r="7.2" fill="#808080" fill-rule="evenodd" fill-opacity="0.3" stroke="#000000" stroke-opacity="0.3" stroke-width="2.688"/>
<circle clip-path="url(#clip171)" cx="1222.37" cy="514.932" r="7.2" fill="#808080" fill-rule="evenodd" fill-opacity="0.3" stroke="#000000" stroke-opacity="0.3" stroke-width="2.688"/>
<circle clip-path="url(#clip171)" cx="1244.8" cy="700.819" r="7.2" fill="#808080" fill-rule="evenodd" fill-opacity="0.3" stroke="#000000" stroke-opacity="0.3" stroke-width="2.688"/>
<circle clip-path="url(#clip171)" cx="1261.63" cy="922.228" r="7.2" fill="#808080" fill-rule="evenodd" fill-opacity="0.3" stroke="#000000" stroke-opacity="0.3" stroke-width="2.688"/>
<circle clip-path="url(#clip171)" cx="1267.3" cy="705.862" r="7.2" fill="#808080" fill-rule="evenodd" fill-opacity="0.3" stroke="#000000" stroke-opacity="0.3" stroke-width="2.688"/>
<circle clip-path="url(#clip171)" cx="1272.15" cy="631.252" r="7.2" fill="#808080" fill-rule="evenodd" fill-opacity="0.3" stroke="#000000" stroke-opacity="0.3" stroke-width="2.688"/>
<circle clip-path="url(#clip171)" cx="1284.1" cy="559.229" r="7.2" fill="#808080" fill-rule="evenodd" fill-opacity="0.3" stroke="#000000" stroke-opacity="0.3" stroke-width="2.688"/>
<circle clip-path="url(#clip171)" cx="1294.95" cy="897.922" r="7.2" fill="#808080" fill-rule="evenodd" fill-opacity="0.3" stroke="#000000" stroke-opacity="0.3" stroke-width="2.688"/>
<circle clip-path="url(#clip171)" cx="1298" cy="879.495" r="7.2" fill="#808080" fill-rule="evenodd" fill-opacity="0.3" stroke="#000000" stroke-opacity="0.3" stroke-width="2.688"/>
<circle clip-path="url(#clip171)" cx="1311.81" cy="850.922" r="7.2" fill="#808080" fill-rule="evenodd" fill-opacity="0.3" stroke="#000000" stroke-opacity="0.3" stroke-width="2.688"/>
<circle clip-path="url(#clip171)" cx="1316.3" cy="888.515" r="7.2" fill="#808080" fill-rule="evenodd" fill-opacity="0.3" stroke="#000000" stroke-opacity="0.3" stroke-width="2.688"/>
<circle clip-path="url(#clip171)" cx="1332.48" cy="865.085" r="7.2" fill="#808080" fill-rule="evenodd" fill-opacity="0.3" stroke="#000000" stroke-opacity="0.3" stroke-width="2.688"/>
<circle clip-path="url(#clip171)" cx="1335.4" cy="823.938" r="7.2" fill="#808080" fill-rule="evenodd" fill-opacity="0.3" stroke="#000000" stroke-opacity="0.3" stroke-width="2.688"/>
<circle clip-path="url(#clip171)" cx="1344.74" cy="929.308" r="7.2" fill="#808080" fill-rule="evenodd" fill-opacity="0.3" stroke="#000000" stroke-opacity="0.3" stroke-width="2.688"/>
<circle clip-path="url(#clip171)" cx="1349.6" cy="625.086" r="7.2" fill="#808080" fill-rule="evenodd" fill-opacity="0.3" stroke="#000000" stroke-opacity="0.3" stroke-width="2.688"/>
<circle clip-path="url(#clip171)" cx="1350.21" cy="809.468" r="7.2" fill="#808080" fill-rule="evenodd" fill-opacity="0.3" stroke="#000000" stroke-opacity="0.3" stroke-width="2.688"/>
<circle clip-path="url(#clip171)" cx="1361.67" cy="837.764" r="7.2" fill="#808080" fill-rule="evenodd" fill-opacity="0.3" stroke="#000000" stroke-opacity="0.3" stroke-width="2.688"/>
<circle clip-path="url(#clip171)" cx="1362.22" cy="782.988" r="7.2" fill="#808080" fill-rule="evenodd" fill-opacity="0.3" stroke="#000000" stroke-opacity="0.3" stroke-width="2.688"/>
<circle clip-path="url(#clip171)" cx="1369.84" cy="833.08" r="7.2" fill="#808080" fill-rule="evenodd" fill-opacity="0.3" stroke="#000000" stroke-opacity="0.3" stroke-width="2.688"/>
<circle clip-path="url(#clip171)" cx="1374.34" cy="852.949" r="7.2" fill="#808080" fill-rule="evenodd" fill-opacity="0.3" stroke="#000000" stroke-opacity="0.3" stroke-width="2.688"/>
<circle clip-path="url(#clip171)" cx="1383.34" cy="706.874" r="7.2" fill="#808080" fill-rule="evenodd" fill-opacity="0.3" stroke="#000000" stroke-opacity="0.3" stroke-width="2.688"/>
<circle clip-path="url(#clip171)" cx="1397.82" cy="879.407" r="7.2" fill="#808080" fill-rule="evenodd" fill-opacity="0.3" stroke="#000000" stroke-opacity="0.3" stroke-width="2.688"/>
<circle clip-path="url(#clip171)" cx="1400.84" cy="983.278" r="7.2" fill="#808080" fill-rule="evenodd" fill-opacity="0.3" stroke="#000000" stroke-opacity="0.3" stroke-width="2.688"/>
<circle clip-path="url(#clip171)" cx="1407.49" cy="829.01" r="7.2" fill="#808080" fill-rule="evenodd" fill-opacity="0.3" stroke="#000000" stroke-opacity="0.3" stroke-width="2.688"/>
<circle clip-path="url(#clip171)" cx="1426.92" cy="912.432" r="7.2" fill="#808080" fill-rule="evenodd" fill-opacity="0.3" stroke="#000000" stroke-opacity="0.3" stroke-width="2.688"/>
<circle clip-path="url(#clip171)" cx="1444.76" cy="939.571" r="7.2" fill="#808080" fill-rule="evenodd" fill-opacity="0.3" stroke="#000000" stroke-opacity="0.3" stroke-width="2.688"/>
<circle clip-path="url(#clip171)" cx="1458.75" cy="999.362" r="7.2" fill="#808080" fill-rule="evenodd" fill-opacity="0.3" stroke="#000000" stroke-opacity="0.3" stroke-width="2.688"/>
<circle clip-path="url(#clip171)" cx="1461.6" cy="858.239" r="7.2" fill="#808080" fill-rule="evenodd" fill-opacity="0.3" stroke="#000000" stroke-opacity="0.3" stroke-width="2.688"/>
<circle clip-path="url(#clip171)" cx="1463.85" cy="916.792" r="7.2" fill="#808080" fill-rule="evenodd" fill-opacity="0.3" stroke="#000000" stroke-opacity="0.3" stroke-width="2.688"/>
<circle clip-path="url(#clip171)" cx="1466.54" cy="852.415" r="7.2" fill="#808080" fill-rule="evenodd" fill-opacity="0.3" stroke="#000000" stroke-opacity="0.3" stroke-width="2.688"/>
<circle clip-path="url(#clip171)" cx="1475.1" cy="927.991" r="7.2" fill="#808080" fill-rule="evenodd" fill-opacity="0.3" stroke="#000000" stroke-opacity="0.3" stroke-width="2.688"/>
<circle clip-path="url(#clip171)" cx="1488.84" cy="974.388" r="7.2" fill="#808080" fill-rule="evenodd" fill-opacity="0.3" stroke="#000000" stroke-opacity="0.3" stroke-width="2.688"/>
<circle clip-path="url(#clip171)" cx="1509.12" cy="799.93" r="7.2" fill="#808080" fill-rule="evenodd" fill-opacity="0.3" stroke="#000000" stroke-opacity="0.3" stroke-width="2.688"/>
<circle clip-path="url(#clip171)" cx="1533.14" cy="951.582" r="7.2" fill="#808080" fill-rule="evenodd" fill-opacity="0.3" stroke="#000000" stroke-opacity="0.3" stroke-width="2.688"/>
<circle clip-path="url(#clip171)" cx="1533.56" cy="835.443" r="7.2" fill="#808080" fill-rule="evenodd" fill-opacity="0.3" stroke="#000000" stroke-opacity="0.3" stroke-width="2.688"/>
<circle clip-path="url(#clip171)" cx="1533.6" cy="1040.29" r="7.2" fill="#808080" fill-rule="evenodd" fill-opacity="0.3" stroke="#000000" stroke-opacity="0.3" stroke-width="2.688"/>
<circle clip-path="url(#clip171)" cx="1534.07" cy="970.311" r="7.2" fill="#808080" fill-rule="evenodd" fill-opacity="0.3" stroke="#000000" stroke-opacity="0.3" stroke-width="2.688"/>
<circle clip-path="url(#clip171)" cx="1542.35" cy="953.246" r="7.2" fill="#808080" fill-rule="evenodd" fill-opacity="0.3" stroke="#000000" stroke-opacity="0.3" stroke-width="2.688"/>
<circle clip-path="url(#clip171)" cx="1551.3" cy="966.332" r="7.2" fill="#808080" fill-rule="evenodd" fill-opacity="0.3" stroke="#000000" stroke-opacity="0.3" stroke-width="2.688"/>
<circle clip-path="url(#clip171)" cx="1554.01" cy="800.937" r="7.2" fill="#808080" fill-rule="evenodd" fill-opacity="0.3" stroke="#000000" stroke-opacity="0.3" stroke-width="2.688"/>
<circle clip-path="url(#clip171)" cx="1557.31" cy="932.059" r="7.2" fill="#808080" fill-rule="evenodd" fill-opacity="0.3" stroke="#000000" stroke-opacity="0.3" stroke-width="2.688"/>
<circle clip-path="url(#clip171)" cx="1557.79" cy="906.675" r="7.2" fill="#808080" fill-rule="evenodd" fill-opacity="0.3" stroke="#000000" stroke-opacity="0.3" stroke-width="2.688"/>
<circle clip-path="url(#clip171)" cx="1558.76" cy="1019.87" r="7.2" fill="#808080" fill-rule="evenodd" fill-opacity="0.3" stroke="#000000" stroke-opacity="0.3" stroke-width="2.688"/>
<circle clip-path="url(#clip171)" cx="1563.02" cy="1000.01" r="7.2" fill="#808080" fill-rule="evenodd" fill-opacity="0.3" stroke="#000000" stroke-opacity="0.3" stroke-width="2.688"/>
<circle clip-path="url(#clip171)" cx="1564.75" cy="835.573" r="7.2" fill="#808080" fill-rule="evenodd" fill-opacity="0.3" stroke="#000000" stroke-opacity="0.3" stroke-width="2.688"/>
<circle clip-path="url(#clip171)" cx="1568.61" cy="811.076" r="7.2" fill="#808080" fill-rule="evenodd" fill-opacity="0.3" stroke="#000000" stroke-opacity="0.3" stroke-width="2.688"/>
<circle clip-path="url(#clip171)" cx="1572.73" cy="812.263" r="7.2" fill="#808080" fill-rule="evenodd" fill-opacity="0.3" stroke="#000000" stroke-opacity="0.3" stroke-width="2.688"/>
<circle clip-path="url(#clip171)" cx="1574.31" cy="1062.92" r="7.2" fill="#808080" fill-rule="evenodd" fill-opacity="0.3" stroke="#000000" stroke-opacity="0.3" stroke-width="2.688"/>
<circle clip-path="url(#clip171)" cx="1575.65" cy="736.07" r="7.2" fill="#808080" fill-rule="evenodd" fill-opacity="0.3" stroke="#000000" stroke-opacity="0.3" stroke-width="2.688"/>
<circle clip-path="url(#clip171)" cx="1581.45" cy="834.702" r="7.2" fill="#808080" fill-rule="evenodd" fill-opacity="0.3" stroke="#000000" stroke-opacity="0.3" stroke-width="2.688"/>
<circle clip-path="url(#clip171)" cx="1583.9" cy="934.185" r="7.2" fill="#808080" fill-rule="evenodd" fill-opacity="0.3" stroke="#000000" stroke-opacity="0.3" stroke-width="2.688"/>
<circle clip-path="url(#clip171)" cx="1588.56" cy="864.583" r="7.2" fill="#808080" fill-rule="evenodd" fill-opacity="0.3" stroke="#000000" stroke-opacity="0.3" stroke-width="2.688"/>
<circle clip-path="url(#clip171)" cx="1602.28" cy="1023.64" r="7.2" fill="#808080" fill-rule="evenodd" fill-opacity="0.3" stroke="#000000" stroke-opacity="0.3" stroke-width="2.688"/>
<circle clip-path="url(#clip171)" cx="1610.77" cy="1034.79" r="7.2" fill="#808080" fill-rule="evenodd" fill-opacity="0.3" stroke="#000000" stroke-opacity="0.3" stroke-width="2.688"/>
<circle clip-path="url(#clip171)" cx="1618.5" cy="924.705" r="7.2" fill="#808080" fill-rule="evenodd" fill-opacity="0.3" stroke="#000000" stroke-opacity="0.3" stroke-width="2.688"/>
<circle clip-path="url(#clip171)" cx="1630.12" cy="1041.69" r="7.2" fill="#808080" fill-rule="evenodd" fill-opacity="0.3" stroke="#000000" stroke-opacity="0.3" stroke-width="2.688"/>
<circle clip-path="url(#clip171)" cx="1630.12" cy="909.368" r="7.2" fill="#808080" fill-rule="evenodd" fill-opacity="0.3" stroke="#000000" stroke-opacity="0.3" stroke-width="2.688"/>
<circle clip-path="url(#clip171)" cx="1635.22" cy="802.794" r="7.2" fill="#808080" fill-rule="evenodd" fill-opacity="0.3" stroke="#000000" stroke-opacity="0.3" stroke-width="2.688"/>
<circle clip-path="url(#clip171)" cx="1636.18" cy="1024.78" r="7.2" fill="#808080" fill-rule="evenodd" fill-opacity="0.3" stroke="#000000" stroke-opacity="0.3" stroke-width="2.688"/>
<circle clip-path="url(#clip171)" cx="1644.28" cy="994.75" r="7.2" fill="#808080" fill-rule="evenodd" fill-opacity="0.3" stroke="#000000" stroke-opacity="0.3" stroke-width="2.688"/>
<circle clip-path="url(#clip171)" cx="1645.28" cy="919.694" r="7.2" fill="#808080" fill-rule="evenodd" fill-opacity="0.3" stroke="#000000" stroke-opacity="0.3" stroke-width="2.688"/>
<circle clip-path="url(#clip171)" cx="1659.81" cy="1016.99" r="7.2" fill="#808080" fill-rule="evenodd" fill-opacity="0.3" stroke="#000000" stroke-opacity="0.3" stroke-width="2.688"/>
<circle clip-path="url(#clip171)" cx="1661.88" cy="955.894" r="7.2" fill="#808080" fill-rule="evenodd" fill-opacity="0.3" stroke="#000000" stroke-opacity="0.3" stroke-width="2.688"/>
<circle clip-path="url(#clip171)" cx="1690.36" cy="825.391" r="7.2" fill="#808080" fill-rule="evenodd" fill-opacity="0.3" stroke="#000000" stroke-opacity="0.3" stroke-width="2.688"/>
<circle clip-path="url(#clip171)" cx="1700.92" cy="811.334" r="7.2" fill="#808080" fill-rule="evenodd" fill-opacity="0.3" stroke="#000000" stroke-opacity="0.3" stroke-width="2.688"/>
<circle clip-path="url(#clip171)" cx="1708.06" cy="863.634" r="7.2" fill="#808080" fill-rule="evenodd" fill-opacity="0.3" stroke="#000000" stroke-opacity="0.3" stroke-width="2.688"/>
<circle clip-path="url(#clip171)" cx="1713.66" cy="1073.76" r="7.2" fill="#808080" fill-rule="evenodd" fill-opacity="0.3" stroke="#000000" stroke-opacity="0.3" stroke-width="2.688"/>
<circle clip-path="url(#clip171)" cx="1719.61" cy="899.254" r="7.2" fill="#808080" fill-rule="evenodd" fill-opacity="0.3" stroke="#000000" stroke-opacity="0.3" stroke-width="2.688"/>
<circle clip-path="url(#clip171)" cx="1720.95" cy="791.901" r="7.2" fill="#808080" fill-rule="evenodd" fill-opacity="0.3" stroke="#000000" stroke-opacity="0.3" stroke-width="2.688"/>
<circle clip-path="url(#clip171)" cx="1723.52" cy="814.432" r="7.2" fill="#808080" fill-rule="evenodd" fill-opacity="0.3" stroke="#000000" stroke-opacity="0.3" stroke-width="2.688"/>
<circle clip-path="url(#clip171)" cx="1727.74" cy="907.69" r="7.2" fill="#808080" fill-rule="evenodd" fill-opacity="0.3" stroke="#000000" stroke-opacity="0.3" stroke-width="2.688"/>
<circle clip-path="url(#clip171)" cx="1733.02" cy="1143.68" r="7.2" fill="#808080" fill-rule="evenodd" fill-opacity="0.3" stroke="#000000" stroke-opacity="0.3" stroke-width="2.688"/>
<circle clip-path="url(#clip171)" cx="1734.39" cy="879.755" r="7.2" fill="#808080" fill-rule="evenodd" fill-opacity="0.3" stroke="#000000" stroke-opacity="0.3" stroke-width="2.688"/>
<circle clip-path="url(#clip171)" cx="1756.43" cy="816.67" r="7.2" fill="#808080" fill-rule="evenodd" fill-opacity="0.3" stroke="#000000" stroke-opacity="0.3" stroke-width="2.688"/>
<circle clip-path="url(#clip171)" cx="1757.78" cy="866.05" r="7.2" fill="#808080" fill-rule="evenodd" fill-opacity="0.3" stroke="#000000" stroke-opacity="0.3" stroke-width="2.688"/>
<circle clip-path="url(#clip171)" cx="1778.55" cy="840.372" r="7.2" fill="#808080" fill-rule="evenodd" fill-opacity="0.3" stroke="#000000" stroke-opacity="0.3" stroke-width="2.688"/>
<circle clip-path="url(#clip171)" cx="1821.52" cy="778.782" r="7.2" fill="#808080" fill-rule="evenodd" fill-opacity="0.3" stroke="#000000" stroke-opacity="0.3" stroke-width="2.688"/>
<circle clip-path="url(#clip171)" cx="1848.67" cy="832.581" r="7.2" fill="#808080" fill-rule="evenodd" fill-opacity="0.3" stroke="#000000" stroke-opacity="0.3" stroke-width="2.688"/>
<circle clip-path="url(#clip171)" cx="1849.35" cy="669.306" r="7.2" fill="#808080" fill-rule="evenodd" fill-opacity="0.3" stroke="#000000" stroke-opacity="0.3" stroke-width="2.688"/>
<circle clip-path="url(#clip171)" cx="1852.27" cy="746.498" r="7.2" fill="#808080" fill-rule="evenodd" fill-opacity="0.3" stroke="#000000" stroke-opacity="0.3" stroke-width="2.688"/>
<circle clip-path="url(#clip171)" cx="1853.75" cy="908.312" r="7.2" fill="#808080" fill-rule="evenodd" fill-opacity="0.3" stroke="#000000" stroke-opacity="0.3" stroke-width="2.688"/>
<circle clip-path="url(#clip171)" cx="1867.78" cy="644.372" r="7.2" fill="#808080" fill-rule="evenodd" fill-opacity="0.3" stroke="#000000" stroke-opacity="0.3" stroke-width="2.688"/>
<circle clip-path="url(#clip171)" cx="1873.07" cy="655.901" r="7.2" fill="#808080" fill-rule="evenodd" fill-opacity="0.3" stroke="#000000" stroke-opacity="0.3" stroke-width="2.688"/>
<circle clip-path="url(#clip171)" cx="1873.33" cy="691.885" r="7.2" fill="#808080" fill-rule="evenodd" fill-opacity="0.3" stroke="#000000" stroke-opacity="0.3" stroke-width="2.688"/>
<circle clip-path="url(#clip171)" cx="1875.3" cy="926.858" r="7.2" fill="#808080" fill-rule="evenodd" fill-opacity="0.3" stroke="#000000" stroke-opacity="0.3" stroke-width="2.688"/>
<circle clip-path="url(#clip171)" cx="1886.31" cy="811.313" r="7.2" fill="#808080" fill-rule="evenodd" fill-opacity="0.3" stroke="#000000" stroke-opacity="0.3" stroke-width="2.688"/>
<circle clip-path="url(#clip171)" cx="1898.95" cy="683.183" r="7.2" fill="#808080" fill-rule="evenodd" fill-opacity="0.3" stroke="#000000" stroke-opacity="0.3" stroke-width="2.688"/>
<circle clip-path="url(#clip171)" cx="1901.75" cy="736.586" r="7.2" fill="#808080" fill-rule="evenodd" fill-opacity="0.3" stroke="#000000" stroke-opacity="0.3" stroke-width="2.688"/>
<circle clip-path="url(#clip171)" cx="1902" cy="707.313" r="7.2" fill="#808080" fill-rule="evenodd" fill-opacity="0.3" stroke="#000000" stroke-opacity="0.3" stroke-width="2.688"/>
<circle clip-path="url(#clip171)" cx="1905.86" cy="501.954" r="7.2" fill="#808080" fill-rule="evenodd" fill-opacity="0.3" stroke="#000000" stroke-opacity="0.3" stroke-width="2.688"/>
<circle clip-path="url(#clip171)" cx="1906.39" cy="813.756" r="7.2" fill="#808080" fill-rule="evenodd" fill-opacity="0.3" stroke="#000000" stroke-opacity="0.3" stroke-width="2.688"/>
<circle clip-path="url(#clip171)" cx="1910.88" cy="932.283" r="7.2" fill="#808080" fill-rule="evenodd" fill-opacity="0.3" stroke="#000000" stroke-opacity="0.3" stroke-width="2.688"/>
<circle clip-path="url(#clip171)" cx="1915.06" cy="700.281" r="7.2" fill="#808080" fill-rule="evenodd" fill-opacity="0.3" stroke="#000000" stroke-opacity="0.3" stroke-width="2.688"/>
<circle clip-path="url(#clip171)" cx="1918.93" cy="787.648" r="7.2" fill="#808080" fill-rule="evenodd" fill-opacity="0.3" stroke="#000000" stroke-opacity="0.3" stroke-width="2.688"/>
<circle clip-path="url(#clip171)" cx="1922.26" cy="675.955" r="7.2" fill="#808080" fill-rule="evenodd" fill-opacity="0.3" stroke="#000000" stroke-opacity="0.3" stroke-width="2.688"/>
<circle clip-path="url(#clip171)" cx="1940.91" cy="775.086" r="7.2" fill="#808080" fill-rule="evenodd" fill-opacity="0.3" stroke="#000000" stroke-opacity="0.3" stroke-width="2.688"/>
<circle clip-path="url(#clip171)" cx="1949.45" cy="477.219" r="7.2" fill="#808080" fill-rule="evenodd" fill-opacity="0.3" stroke="#000000" stroke-opacity="0.3" stroke-width="2.688"/>
<circle clip-path="url(#clip171)" cx="1949.52" cy="699.732" r="7.2" fill="#808080" fill-rule="evenodd" fill-opacity="0.3" stroke="#000000" stroke-opacity="0.3" stroke-width="2.688"/>
<circle clip-path="url(#clip171)" cx="1963.81" cy="717.112" r="7.2" fill="#808080" fill-rule="evenodd" fill-opacity="0.3" stroke="#000000" stroke-opacity="0.3" stroke-width="2.688"/>
<circle clip-path="url(#clip171)" cx="1968.21" cy="682.41" r="7.2" fill="#808080" fill-rule="evenodd" fill-opacity="0.3" stroke="#000000" stroke-opacity="0.3" stroke-width="2.688"/>
<circle clip-path="url(#clip171)" cx="1976.22" cy="575.123" r="7.2" fill="#808080" fill-rule="evenodd" fill-opacity="0.3" stroke="#000000" stroke-opacity="0.3" stroke-width="2.688"/>
<circle clip-path="url(#clip171)" cx="1984.07" cy="638.951" r="7.2" fill="#808080" fill-rule="evenodd" fill-opacity="0.3" stroke="#000000" stroke-opacity="0.3" stroke-width="2.688"/>
<circle clip-path="url(#clip171)" cx="1994.46" cy="791.064" r="7.2" fill="#808080" fill-rule="evenodd" fill-opacity="0.3" stroke="#000000" stroke-opacity="0.3" stroke-width="2.688"/>
<path clip-path="url(#clip170)" d="M1445.46 311.335 L2004.34 311.335 L2004.34 155.815 L1445.46 155.815  Z" fill="#ffffff" fill-rule="evenodd" fill-opacity="1"/>
<polyline clip-path="url(#clip170)" style="stroke:#000000; stroke-linecap:round; stroke-linejoin:round; stroke-width:4; stroke-opacity:1; fill:none" points="1445.46,311.335 2004.34,311.335 2004.34,155.815 1445.46,155.815 1445.46,311.335 "/>
<polyline clip-path="url(#clip170)" style="stroke:#009af9; stroke-linecap:round; stroke-linejoin:round; stroke-width:8; stroke-opacity:1; fill:none" points="1465.6,207.655 1586.44,207.655 "/>
<path clip-path="url(#clip170)" d="M1610.86 221.046 L1610.86 234.796 L1606.58 234.796 L1606.58 199.009 L1610.86 199.009 L1610.86 202.944 Q1612.21 200.629 1614.24 199.518 Q1616.3 198.384 1619.15 198.384 Q1623.87 198.384 1626.81 202.134 Q1629.78 205.884 1629.78 211.995 Q1629.78 218.106 1626.81 221.856 Q1623.87 225.606 1619.15 225.606 Q1616.3 225.606 1614.24 224.495 Q1612.21 223.361 1610.86 221.046 M1625.36 211.995 Q1625.36 207.296 1623.41 204.634 Q1621.49 201.949 1618.11 201.949 Q1614.73 201.949 1612.79 204.634 Q1610.86 207.296 1610.86 211.995 Q1610.86 216.694 1612.79 219.379 Q1614.73 222.041 1618.11 222.041 Q1621.49 222.041 1623.41 219.379 Q1625.36 216.694 1625.36 211.995 Z" fill="#000000" fill-rule="nonzero" fill-opacity="1" /><path clip-path="url(#clip170)" d="M1651.86 202.99 Q1651.14 202.574 1650.29 202.388 Q1649.45 202.18 1648.43 202.18 Q1644.82 202.18 1642.88 204.541 Q1640.96 206.879 1640.96 211.277 L1640.96 224.935 L1636.67 224.935 L1636.67 199.009 L1640.96 199.009 L1640.96 203.037 Q1642.3 200.675 1644.45 199.541 Q1646.61 198.384 1649.68 198.384 Q1650.12 198.384 1650.66 198.453 Q1651.19 198.5 1651.84 198.615 L1651.86 202.99 Z" fill="#000000" fill-rule="nonzero" fill-opacity="1" /><path clip-path="url(#clip170)" d="M1677.46 210.907 L1677.46 212.99 L1657.88 212.99 Q1658.16 217.388 1660.52 219.703 Q1662.9 221.995 1667.14 221.995 Q1669.59 221.995 1671.88 221.393 Q1674.2 220.791 1676.47 219.587 L1676.47 223.615 Q1674.17 224.587 1671.77 225.097 Q1669.36 225.606 1666.88 225.606 Q1660.68 225.606 1657.05 221.995 Q1653.43 218.384 1653.43 212.226 Q1653.43 205.861 1656.86 202.134 Q1660.31 198.384 1666.14 198.384 Q1671.37 198.384 1674.41 201.763 Q1677.46 205.12 1677.46 210.907 M1673.2 209.657 Q1673.16 206.162 1671.23 204.078 Q1669.34 201.995 1666.19 201.995 Q1662.62 201.995 1660.47 204.009 Q1658.34 206.023 1658.02 209.68 L1673.2 209.657 Z" fill="#000000" fill-rule="nonzero" fill-opacity="1" /><path clip-path="url(#clip170)" d="M1701.51 202.944 L1701.51 188.916 L1705.77 188.916 L1705.77 224.935 L1701.51 224.935 L1701.51 221.046 Q1700.17 223.361 1698.11 224.495 Q1696.07 225.606 1693.2 225.606 Q1688.5 225.606 1685.54 221.856 Q1682.6 218.106 1682.6 211.995 Q1682.6 205.884 1685.54 202.134 Q1688.5 198.384 1693.2 198.384 Q1696.07 198.384 1698.11 199.518 Q1700.17 200.629 1701.51 202.944 M1687 211.995 Q1687 216.694 1688.92 219.379 Q1690.86 222.041 1694.24 222.041 Q1697.62 222.041 1699.57 219.379 Q1701.51 216.694 1701.51 211.995 Q1701.51 207.296 1699.57 204.634 Q1697.62 201.949 1694.24 201.949 Q1690.86 201.949 1688.92 204.634 Q1687 207.296 1687 211.995 Z" fill="#000000" fill-rule="nonzero" fill-opacity="1" /><path clip-path="url(#clip170)" d="M1714.54 199.009 L1718.8 199.009 L1718.8 224.935 L1714.54 224.935 L1714.54 199.009 M1714.54 188.916 L1718.8 188.916 L1718.8 194.31 L1714.54 194.31 L1714.54 188.916 Z" fill="#000000" fill-rule="nonzero" fill-opacity="1" /><path clip-path="url(#clip170)" d="M1746.37 200.004 L1746.37 203.986 Q1744.57 202.99 1742.74 202.504 Q1740.93 201.995 1739.08 201.995 Q1734.94 201.995 1732.65 204.634 Q1730.36 207.25 1730.36 211.995 Q1730.36 216.74 1732.65 219.379 Q1734.94 221.995 1739.08 221.995 Q1740.93 221.995 1742.74 221.509 Q1744.57 220.999 1746.37 220.004 L1746.37 223.939 Q1744.59 224.773 1742.67 225.189 Q1740.77 225.606 1738.62 225.606 Q1732.76 225.606 1729.31 221.925 Q1725.86 218.245 1725.86 211.995 Q1725.86 205.652 1729.34 202.018 Q1732.83 198.384 1738.9 198.384 Q1740.86 198.384 1742.74 198.801 Q1744.61 199.194 1746.37 200.004 Z" fill="#000000" fill-rule="nonzero" fill-opacity="1" /><path clip-path="url(#clip170)" d="M1757.99 191.648 L1757.99 199.009 L1766.77 199.009 L1766.77 202.319 L1757.99 202.319 L1757.99 216.393 Q1757.99 219.564 1758.85 220.467 Q1759.73 221.37 1762.39 221.37 L1766.77 221.37 L1766.77 224.935 L1762.39 224.935 Q1757.46 224.935 1755.59 223.106 Q1753.71 221.254 1753.71 216.393 L1753.71 202.319 L1750.59 202.319 L1750.59 199.009 L1753.71 199.009 L1753.71 191.648 L1757.99 191.648 Z" fill="#000000" fill-rule="nonzero" fill-opacity="1" /><path clip-path="url(#clip170)" d="M1794.54 210.907 L1794.54 212.99 L1774.96 212.99 Q1775.24 217.388 1777.6 219.703 Q1779.98 221.995 1784.22 221.995 Q1786.67 221.995 1788.97 221.393 Q1791.28 220.791 1793.55 219.587 L1793.55 223.615 Q1791.26 224.587 1788.85 225.097 Q1786.44 225.606 1783.97 225.606 Q1777.76 225.606 1774.13 221.995 Q1770.52 218.384 1770.52 212.226 Q1770.52 205.861 1773.94 202.134 Q1777.39 198.384 1783.23 198.384 Q1788.46 198.384 1791.49 201.763 Q1794.54 205.12 1794.54 210.907 M1790.29 209.657 Q1790.24 206.162 1788.32 204.078 Q1786.42 201.995 1783.27 201.995 Q1779.71 201.995 1777.55 204.009 Q1775.42 206.023 1775.1 209.68 L1790.29 209.657 Z" fill="#000000" fill-rule="nonzero" fill-opacity="1" /><path clip-path="url(#clip170)" d="M1818.6 202.944 L1818.6 188.916 L1822.85 188.916 L1822.85 224.935 L1818.6 224.935 L1818.6 221.046 Q1817.25 223.361 1815.19 224.495 Q1813.16 225.606 1810.29 225.606 Q1805.59 225.606 1802.62 221.856 Q1799.68 218.106 1799.68 211.995 Q1799.68 205.884 1802.62 202.134 Q1805.59 198.384 1810.29 198.384 Q1813.16 198.384 1815.19 199.518 Q1817.25 200.629 1818.6 202.944 M1804.08 211.995 Q1804.08 216.694 1806 219.379 Q1807.95 222.041 1811.33 222.041 Q1814.71 222.041 1816.65 219.379 Q1818.6 216.694 1818.6 211.995 Q1818.6 207.296 1816.65 204.634 Q1814.71 201.949 1811.33 201.949 Q1807.95 201.949 1806 204.634 Q1804.08 207.296 1804.08 211.995 Z" fill="#000000" fill-rule="nonzero" fill-opacity="1" /><path clip-path="url(#clip170)" d="M1864.03 195.213 L1864.03 204.171 L1876.93 204.171 L1876.93 208.106 L1864.03 208.106 L1864.03 217.064 L1860.15 217.064 L1860.15 208.106 L1847.25 208.106 L1847.25 204.171 L1860.15 204.171 L1860.15 195.213 L1864.03 195.213 M1847.25 220.999 L1876.93 220.999 L1876.93 224.935 L1847.25 224.935 L1847.25 220.999 Z" fill="#000000" fill-rule="nonzero" fill-opacity="1" /><path clip-path="url(#clip170)" d="M1906.12 220.999 L1922.44 220.999 L1922.44 224.935 L1900.49 224.935 L1900.49 220.999 Q1903.16 218.245 1907.74 213.615 Q1912.34 208.962 1913.53 207.62 Q1915.77 205.097 1916.65 203.361 Q1917.55 201.601 1917.55 199.912 Q1917.55 197.157 1915.61 195.421 Q1913.69 193.685 1910.59 193.685 Q1908.39 193.685 1905.93 194.449 Q1903.5 195.213 1900.72 196.763 L1900.72 192.041 Q1903.55 190.907 1906 190.328 Q1908.46 189.75 1910.49 189.75 Q1915.86 189.75 1919.06 192.435 Q1922.25 195.12 1922.25 199.611 Q1922.25 201.74 1921.44 203.662 Q1920.65 205.56 1918.55 208.152 Q1917.97 208.824 1914.87 212.041 Q1911.77 215.236 1906.12 220.999 Z" fill="#000000" fill-rule="nonzero" fill-opacity="1" /><path clip-path="url(#clip170)" d="M1952.55 191.509 L1952.55 196.069 Q1949.89 194.796 1947.53 194.171 Q1945.17 193.546 1942.97 193.546 Q1939.15 193.546 1937.07 195.027 Q1935.01 196.509 1935.01 199.24 Q1935.01 201.532 1936.37 202.713 Q1937.76 203.87 1941.6 204.588 L1944.43 205.166 Q1949.66 206.162 1952.14 208.685 Q1954.64 211.185 1954.64 215.398 Q1954.64 220.421 1951.26 223.013 Q1947.9 225.606 1941.4 225.606 Q1938.94 225.606 1936.16 225.05 Q1933.41 224.495 1930.45 223.407 L1930.45 218.592 Q1933.29 220.189 1936.03 220.999 Q1938.76 221.81 1941.4 221.81 Q1945.4 221.81 1947.58 220.236 Q1949.75 218.662 1949.75 215.745 Q1949.75 213.199 1948.18 211.763 Q1946.63 210.328 1943.06 209.611 L1940.22 209.055 Q1934.98 208.013 1932.65 205.791 Q1930.31 203.569 1930.31 199.611 Q1930.31 195.027 1933.53 192.389 Q1936.77 189.75 1942.44 189.75 Q1944.87 189.75 1947.39 190.189 Q1949.91 190.629 1952.55 191.509 Z" fill="#000000" fill-rule="nonzero" fill-opacity="1" /><path clip-path="url(#clip170)" d="M1961.93 190.375 L1983.78 190.375 L1983.78 194.31 L1966.6 194.31 L1966.6 204.541 L1983.06 204.541 L1983.06 208.476 L1966.6 208.476 L1966.6 220.999 L1984.2 220.999 L1984.2 224.935 L1961.93 224.935 L1961.93 190.375 Z" fill="#000000" fill-rule="nonzero" fill-opacity="1" /><circle clip-path="url(#clip170)" cx="1526.02" cy="259.495" r="18.432" fill="#808080" fill-rule="evenodd" fill-opacity="0.3" stroke="#000000" stroke-opacity="0.3" stroke-width="6.88128"/>
<path clip-path="url(#clip170)" d="M1618.48 253.835 Q1615.05 253.835 1613.06 256.52 Q1611.07 259.182 1611.07 263.835 Q1611.07 268.488 1613.04 271.173 Q1615.03 273.835 1618.48 273.835 Q1621.88 273.835 1623.87 271.15 Q1625.86 268.464 1625.86 263.835 Q1625.86 259.228 1623.87 256.543 Q1621.88 253.835 1618.48 253.835 M1618.48 250.224 Q1624.04 250.224 1627.21 253.835 Q1630.38 257.446 1630.38 263.835 Q1630.38 270.201 1627.21 273.835 Q1624.04 277.446 1618.48 277.446 Q1612.9 277.446 1609.73 273.835 Q1606.58 270.201 1606.58 263.835 Q1606.58 257.446 1609.73 253.835 Q1612.9 250.224 1618.48 250.224 Z" fill="#000000" fill-rule="nonzero" fill-opacity="1" /><path clip-path="url(#clip170)" d="M1656.05 263.835 Q1656.05 259.136 1654.11 256.474 Q1652.18 253.789 1648.8 253.789 Q1645.42 253.789 1643.48 256.474 Q1641.56 259.136 1641.56 263.835 Q1641.56 268.534 1643.48 271.219 Q1645.42 273.881 1648.8 273.881 Q1652.18 273.881 1654.11 271.219 Q1656.05 268.534 1656.05 263.835 M1641.56 254.784 Q1642.9 252.469 1644.94 251.358 Q1647 250.224 1649.85 250.224 Q1654.57 250.224 1657.51 253.974 Q1660.47 257.724 1660.47 263.835 Q1660.47 269.946 1657.51 273.696 Q1654.57 277.446 1649.85 277.446 Q1647 277.446 1644.94 276.335 Q1642.9 275.201 1641.56 272.886 L1641.56 276.775 L1637.28 276.775 L1637.28 240.756 L1641.56 240.756 L1641.56 254.784 Z" fill="#000000" fill-rule="nonzero" fill-opacity="1" /><path clip-path="url(#clip170)" d="M1684.06 251.613 L1684.06 255.64 Q1682.25 254.715 1680.31 254.252 Q1678.36 253.789 1676.28 253.789 Q1673.11 253.789 1671.51 254.761 Q1669.94 255.733 1669.94 257.678 Q1669.94 259.159 1671.07 260.015 Q1672.21 260.849 1675.63 261.613 L1677.09 261.937 Q1681.63 262.909 1683.53 264.691 Q1685.45 266.451 1685.45 269.622 Q1685.45 273.233 1682.58 275.339 Q1679.73 277.446 1674.73 277.446 Q1672.65 277.446 1670.38 277.029 Q1668.13 276.636 1665.63 275.826 L1665.63 271.427 Q1667.99 272.654 1670.29 273.279 Q1672.58 273.881 1674.82 273.881 Q1677.83 273.881 1679.45 272.863 Q1681.07 271.821 1681.07 269.946 Q1681.07 268.21 1679.89 267.284 Q1678.73 266.358 1674.78 265.502 L1673.3 265.154 Q1669.34 264.321 1667.58 262.608 Q1665.82 260.872 1665.82 257.863 Q1665.82 254.205 1668.41 252.215 Q1671 250.224 1675.77 250.224 Q1678.13 250.224 1680.22 250.571 Q1682.3 250.918 1684.06 251.613 Z" fill="#000000" fill-rule="nonzero" fill-opacity="1" /><path clip-path="url(#clip170)" d="M1714.41 262.747 L1714.41 264.83 L1694.82 264.83 Q1695.1 269.228 1697.46 271.543 Q1699.85 273.835 1704.08 273.835 Q1706.54 273.835 1708.83 273.233 Q1711.14 272.631 1713.41 271.427 L1713.41 275.455 Q1711.12 276.427 1708.71 276.937 Q1706.3 277.446 1703.83 277.446 Q1697.62 277.446 1693.99 273.835 Q1690.38 270.224 1690.38 264.066 Q1690.38 257.701 1693.8 253.974 Q1697.25 250.224 1703.09 250.224 Q1708.32 250.224 1711.35 253.603 Q1714.41 256.96 1714.41 262.747 M1710.15 261.497 Q1710.1 258.002 1708.18 255.918 Q1706.28 253.835 1703.13 253.835 Q1699.57 253.835 1697.42 255.849 Q1695.29 257.863 1694.96 261.52 L1710.15 261.497 Z" fill="#000000" fill-rule="nonzero" fill-opacity="1" /><path clip-path="url(#clip170)" d="M1736.42 254.83 Q1735.7 254.414 1734.85 254.228 Q1734.01 254.02 1732.99 254.02 Q1729.38 254.02 1727.44 256.381 Q1725.52 258.719 1725.52 263.117 L1725.52 276.775 L1721.23 276.775 L1721.23 250.849 L1725.52 250.849 L1725.52 254.877 Q1726.86 252.515 1729.01 251.381 Q1731.17 250.224 1734.24 250.224 Q1734.68 250.224 1735.22 250.293 Q1735.75 250.34 1736.4 250.455 L1736.42 254.83 Z" fill="#000000" fill-rule="nonzero" fill-opacity="1" /><path clip-path="url(#clip170)" d="M1737.83 250.849 L1742.35 250.849 L1750.45 272.608 L1758.55 250.849 L1763.06 250.849 L1753.34 276.775 L1747.55 276.775 L1737.83 250.849 Z" fill="#000000" fill-rule="nonzero" fill-opacity="1" /><path clip-path="url(#clip170)" d="M1791.12 262.747 L1791.12 264.83 L1771.54 264.83 Q1771.81 269.228 1774.17 271.543 Q1776.56 273.835 1780.79 273.835 Q1783.25 273.835 1785.54 273.233 Q1787.85 272.631 1790.12 271.427 L1790.12 275.455 Q1787.83 276.427 1785.42 276.937 Q1783.02 277.446 1780.54 277.446 Q1774.34 277.446 1770.7 273.835 Q1767.09 270.224 1767.09 264.066 Q1767.09 257.701 1770.52 253.974 Q1773.97 250.224 1779.8 250.224 Q1785.03 250.224 1788.06 253.603 Q1791.12 256.96 1791.12 262.747 M1786.86 261.497 Q1786.81 258.002 1784.89 255.918 Q1782.99 253.835 1779.85 253.835 Q1776.28 253.835 1774.13 255.849 Q1772 257.863 1771.67 261.52 L1786.86 261.497 Z" fill="#000000" fill-rule="nonzero" fill-opacity="1" /><path clip-path="url(#clip170)" d="M1815.17 254.784 L1815.17 240.756 L1819.43 240.756 L1819.43 276.775 L1815.17 276.775 L1815.17 272.886 Q1813.83 275.201 1811.77 276.335 Q1809.73 277.446 1806.86 277.446 Q1802.16 277.446 1799.2 273.696 Q1796.26 269.946 1796.26 263.835 Q1796.26 257.724 1799.2 253.974 Q1802.16 250.224 1806.86 250.224 Q1809.73 250.224 1811.77 251.358 Q1813.83 252.469 1815.17 254.784 M1800.66 263.835 Q1800.66 268.534 1802.58 271.219 Q1804.52 273.881 1807.9 273.881 Q1811.28 273.881 1813.22 271.219 Q1815.17 268.534 1815.17 263.835 Q1815.17 259.136 1813.22 256.474 Q1811.28 253.789 1807.9 253.789 Q1804.52 253.789 1802.58 256.474 Q1800.66 259.136 1800.66 263.835 Z" fill="#000000" fill-rule="nonzero" fill-opacity="1" /></svg>
