<?xml version="1.0" encoding="utf-8"?>
<svg xmlns="http://www.w3.org/2000/svg" xmlns:xlink="http://www.w3.org/1999/xlink" width="672" height="480" viewBox="0 0 2688 1920">
<defs>
  <clipPath id="clip600">
    <rect x="0" y="0" width="2688" height="1920"/>
  </clipPath>
</defs>
<path clip-path="url(#clip600)" d="M0 1920 L2688 1920 L2688 -4.26326e-14 L0 -4.26326e-14  Z" fill="#ffffff" fill-rule="evenodd" fill-opacity="1"/>
<defs>
  <clipPath id="clip601">
    <rect x="263" y="127" width="2378" height="1607"/>
  </clipPath>
</defs>
<path clip-path="url(#clip600)" d="M263.478 1734.12 L2640.76 1734.12 L2640.76 127.792 L263.478 127.792  Z" fill="#ffffff" fill-rule="evenodd" fill-opacity="1"/>
<polyline clip-path="url(#clip601)" style="stroke:#000000; stroke-linecap:round; stroke-linejoin:round; stroke-width:2; stroke-opacity:0.1; fill:none" points="330.456,1734.12 330.456,127.792 "/>
<polyline clip-path="url(#clip601)" style="stroke:#000000; stroke-linecap:round; stroke-linejoin:round; stroke-width:2; stroke-opacity:0.1; fill:none" points="891.892,1734.12 891.892,127.792 "/>
<polyline clip-path="url(#clip601)" style="stroke:#000000; stroke-linecap:round; stroke-linejoin:round; stroke-width:2; stroke-opacity:0.1; fill:none" points="1453.33,1734.12 1453.33,127.792 "/>
<polyline clip-path="url(#clip601)" style="stroke:#000000; stroke-linecap:round; stroke-linejoin:round; stroke-width:2; stroke-opacity:0.1; fill:none" points="2014.76,1734.12 2014.76,127.792 "/>
<polyline clip-path="url(#clip601)" style="stroke:#000000; stroke-linecap:round; stroke-linejoin:round; stroke-width:2; stroke-opacity:0.1; fill:none" points="2576.2,1734.12 2576.2,127.792 "/>
<polyline clip-path="url(#clip601)" style="stroke:#000000; stroke-linecap:round; stroke-linejoin:round; stroke-width:2; stroke-opacity:0.1; fill:none" points="263.478,1607.98 2640.76,1607.98 "/>
<polyline clip-path="url(#clip601)" style="stroke:#000000; stroke-linecap:round; stroke-linejoin:round; stroke-width:2; stroke-opacity:0.1; fill:none" points="263.478,1229.11 2640.76,1229.11 "/>
<polyline clip-path="url(#clip601)" style="stroke:#000000; stroke-linecap:round; stroke-linejoin:round; stroke-width:2; stroke-opacity:0.1; fill:none" points="263.478,850.247 2640.76,850.247 "/>
<polyline clip-path="url(#clip601)" style="stroke:#000000; stroke-linecap:round; stroke-linejoin:round; stroke-width:2; stroke-opacity:0.1; fill:none" points="263.478,471.379 2640.76,471.379 "/>
<polyline clip-path="url(#clip600)" style="stroke:#000000; stroke-linecap:round; stroke-linejoin:round; stroke-width:4; stroke-opacity:1; fill:none" points="263.478,1734.12 2640.76,1734.12 "/>
<polyline clip-path="url(#clip600)" style="stroke:#000000; stroke-linecap:round; stroke-linejoin:round; stroke-width:4; stroke-opacity:1; fill:none" points="330.456,1734.12 330.456,1715.22 "/>
<polyline clip-path="url(#clip600)" style="stroke:#000000; stroke-linecap:round; stroke-linejoin:round; stroke-width:4; stroke-opacity:1; fill:none" points="891.892,1734.12 891.892,1715.22 "/>
<polyline clip-path="url(#clip600)" style="stroke:#000000; stroke-linecap:round; stroke-linejoin:round; stroke-width:4; stroke-opacity:1; fill:none" points="1453.33,1734.12 1453.33,1715.22 "/>
<polyline clip-path="url(#clip600)" style="stroke:#000000; stroke-linecap:round; stroke-linejoin:round; stroke-width:4; stroke-opacity:1; fill:none" points="2014.76,1734.12 2014.76,1715.22 "/>
<polyline clip-path="url(#clip600)" style="stroke:#000000; stroke-linecap:round; stroke-linejoin:round; stroke-width:4; stroke-opacity:1; fill:none" points="2576.2,1734.12 2576.2,1715.22 "/>
<path clip-path="url(#clip600)" d="M292.759 1767.34 Q289.148 1767.34 287.319 1770.9 Q285.514 1774.45 285.514 1781.58 Q285.514 1788.68 287.319 1792.25 Q289.148 1795.79 292.759 1795.79 Q296.393 1795.79 298.199 1792.25 Q300.028 1788.68 300.028 1781.58 Q300.028 1774.45 298.199 1770.9 Q296.393 1767.34 292.759 1767.34 M292.759 1763.64 Q298.569 1763.64 301.625 1768.24 Q304.704 1772.83 304.704 1781.58 Q304.704 1790.3 301.625 1794.91 Q298.569 1799.49 292.759 1799.49 Q286.949 1799.49 283.87 1794.91 Q280.815 1790.3 280.815 1781.58 Q280.815 1772.83 283.87 1768.24 Q286.949 1763.64 292.759 1763.64 Z" fill="#000000" fill-rule="nonzero" fill-opacity="1" /><path clip-path="url(#clip600)" d="M312.921 1792.94 L317.805 1792.94 L317.805 1798.82 L312.921 1798.82 L312.921 1792.94 Z" fill="#000000" fill-rule="nonzero" fill-opacity="1" /><path clip-path="url(#clip600)" d="M337.99 1767.34 Q334.379 1767.34 332.551 1770.9 Q330.745 1774.45 330.745 1781.58 Q330.745 1788.68 332.551 1792.25 Q334.379 1795.79 337.99 1795.79 Q341.625 1795.79 343.43 1792.25 Q345.259 1788.68 345.259 1781.58 Q345.259 1774.45 343.43 1770.9 Q341.625 1767.34 337.99 1767.34 M337.99 1763.64 Q343.801 1763.64 346.856 1768.24 Q349.935 1772.83 349.935 1781.58 Q349.935 1790.3 346.856 1794.91 Q343.801 1799.49 337.99 1799.49 Q332.18 1799.49 329.102 1794.91 Q326.046 1790.3 326.046 1781.58 Q326.046 1772.83 329.102 1768.24 Q332.18 1763.64 337.99 1763.64 Z" fill="#000000" fill-rule="nonzero" fill-opacity="1" /><path clip-path="url(#clip600)" d="M368.152 1767.34 Q364.541 1767.34 362.712 1770.9 Q360.907 1774.45 360.907 1781.58 Q360.907 1788.68 362.712 1792.25 Q364.541 1795.79 368.152 1795.79 Q371.786 1795.79 373.592 1792.25 Q375.421 1788.68 375.421 1781.58 Q375.421 1774.45 373.592 1770.9 Q371.786 1767.34 368.152 1767.34 M368.152 1763.64 Q373.962 1763.64 377.018 1768.24 Q380.097 1772.83 380.097 1781.58 Q380.097 1790.3 377.018 1794.91 Q373.962 1799.49 368.152 1799.49 Q362.342 1799.49 359.263 1794.91 Q356.208 1790.3 356.208 1781.58 Q356.208 1772.83 359.263 1768.24 Q362.342 1763.64 368.152 1763.64 Z" fill="#000000" fill-rule="nonzero" fill-opacity="1" /><path clip-path="url(#clip600)" d="M854.693 1767.34 Q851.082 1767.34 849.253 1770.9 Q847.448 1774.45 847.448 1781.58 Q847.448 1788.68 849.253 1792.25 Q851.082 1795.79 854.693 1795.79 Q858.327 1795.79 860.133 1792.25 Q861.961 1788.68 861.961 1781.58 Q861.961 1774.45 860.133 1770.9 Q858.327 1767.34 854.693 1767.34 M854.693 1763.64 Q860.503 1763.64 863.559 1768.24 Q866.637 1772.83 866.637 1781.58 Q866.637 1790.3 863.559 1794.91 Q860.503 1799.49 854.693 1799.49 Q848.883 1799.49 845.804 1794.91 Q842.749 1790.3 842.749 1781.58 Q842.749 1772.83 845.804 1768.24 Q848.883 1763.64 854.693 1763.64 Z" fill="#000000" fill-rule="nonzero" fill-opacity="1" /><path clip-path="url(#clip600)" d="M874.855 1792.94 L879.739 1792.94 L879.739 1798.82 L874.855 1798.82 L874.855 1792.94 Z" fill="#000000" fill-rule="nonzero" fill-opacity="1" /><path clip-path="url(#clip600)" d="M893.952 1794.89 L910.271 1794.89 L910.271 1798.82 L888.327 1798.82 L888.327 1794.89 Q890.989 1792.13 895.572 1787.5 Q900.179 1782.85 901.359 1781.51 Q903.605 1778.98 904.484 1777.25 Q905.387 1775.49 905.387 1773.8 Q905.387 1771.04 903.443 1769.31 Q901.521 1767.57 898.42 1767.57 Q896.221 1767.57 893.767 1768.34 Q891.336 1769.1 888.559 1770.65 L888.559 1765.93 Q891.383 1764.79 893.836 1764.21 Q896.29 1763.64 898.327 1763.64 Q903.697 1763.64 906.892 1766.32 Q910.086 1769.01 910.086 1773.5 Q910.086 1775.63 909.276 1777.55 Q908.489 1779.45 906.383 1782.04 Q905.804 1782.71 902.702 1785.93 Q899.6 1789.12 893.952 1794.89 Z" fill="#000000" fill-rule="nonzero" fill-opacity="1" /><path clip-path="url(#clip600)" d="M920.132 1764.26 L938.489 1764.26 L938.489 1768.2 L924.415 1768.2 L924.415 1776.67 Q925.433 1776.32 926.452 1776.16 Q927.47 1775.97 928.489 1775.97 Q934.276 1775.97 937.656 1779.15 Q941.035 1782.32 941.035 1787.73 Q941.035 1793.31 937.563 1796.41 Q934.091 1799.49 927.771 1799.49 Q925.595 1799.49 923.327 1799.12 Q921.082 1798.75 918.674 1798.01 L918.674 1793.31 Q920.757 1794.45 922.98 1795 Q925.202 1795.56 927.679 1795.56 Q931.683 1795.56 934.021 1793.45 Q936.359 1791.34 936.359 1787.73 Q936.359 1784.12 934.021 1782.02 Q931.683 1779.91 927.679 1779.91 Q925.804 1779.91 923.929 1780.33 Q922.077 1780.74 920.132 1781.62 L920.132 1764.26 Z" fill="#000000" fill-rule="nonzero" fill-opacity="1" /><path clip-path="url(#clip600)" d="M1415.63 1767.34 Q1412.02 1767.34 1410.19 1770.9 Q1408.39 1774.45 1408.39 1781.58 Q1408.39 1788.68 1410.19 1792.25 Q1412.02 1795.79 1415.63 1795.79 Q1419.27 1795.79 1421.07 1792.25 Q1422.9 1788.68 1422.9 1781.58 Q1422.9 1774.45 1421.07 1770.9 Q1419.27 1767.34 1415.63 1767.34 M1415.63 1763.64 Q1421.44 1763.64 1424.5 1768.24 Q1427.58 1772.83 1427.58 1781.58 Q1427.58 1790.3 1424.5 1794.91 Q1421.44 1799.49 1415.63 1799.49 Q1409.82 1799.49 1406.74 1794.91 Q1403.69 1790.3 1403.69 1781.58 Q1403.69 1772.83 1406.74 1768.24 Q1409.82 1763.64 1415.63 1763.64 Z" fill="#000000" fill-rule="nonzero" fill-opacity="1" /><path clip-path="url(#clip600)" d="M1435.79 1792.94 L1440.68 1792.94 L1440.68 1798.82 L1435.79 1798.82 L1435.79 1792.94 Z" fill="#000000" fill-rule="nonzero" fill-opacity="1" /><path clip-path="url(#clip600)" d="M1450.91 1764.26 L1469.27 1764.26 L1469.27 1768.2 L1455.19 1768.2 L1455.19 1776.67 Q1456.21 1776.32 1457.23 1776.16 Q1458.25 1775.97 1459.27 1775.97 Q1465.05 1775.97 1468.43 1779.15 Q1471.81 1782.32 1471.81 1787.73 Q1471.81 1793.31 1468.34 1796.41 Q1464.87 1799.49 1458.55 1799.49 Q1456.37 1799.49 1454.1 1799.12 Q1451.86 1798.75 1449.45 1798.01 L1449.45 1793.31 Q1451.53 1794.45 1453.76 1795 Q1455.98 1795.56 1458.46 1795.56 Q1462.46 1795.56 1464.8 1793.45 Q1467.14 1791.34 1467.14 1787.73 Q1467.14 1784.12 1464.8 1782.02 Q1462.46 1779.91 1458.46 1779.91 Q1456.58 1779.91 1454.71 1780.33 Q1452.85 1780.74 1450.91 1781.62 L1450.91 1764.26 Z" fill="#000000" fill-rule="nonzero" fill-opacity="1" /><path clip-path="url(#clip600)" d="M1491.02 1767.34 Q1487.41 1767.34 1485.58 1770.9 Q1483.78 1774.45 1483.78 1781.58 Q1483.78 1788.68 1485.58 1792.25 Q1487.41 1795.79 1491.02 1795.79 Q1494.66 1795.79 1496.46 1792.25 Q1498.29 1788.68 1498.29 1781.58 Q1498.29 1774.45 1496.46 1770.9 Q1494.66 1767.34 1491.02 1767.34 M1491.02 1763.64 Q1496.83 1763.64 1499.89 1768.24 Q1502.97 1772.83 1502.97 1781.58 Q1502.97 1790.3 1499.89 1794.91 Q1496.83 1799.49 1491.02 1799.49 Q1485.21 1799.49 1482.14 1794.91 Q1479.08 1790.3 1479.08 1781.58 Q1479.08 1772.83 1482.14 1768.24 Q1485.21 1763.64 1491.02 1763.64 Z" fill="#000000" fill-rule="nonzero" fill-opacity="1" /><path clip-path="url(#clip600)" d="M1977.57 1767.34 Q1973.95 1767.34 1972.13 1770.9 Q1970.32 1774.45 1970.32 1781.58 Q1970.32 1788.68 1972.13 1792.25 Q1973.95 1795.79 1977.57 1795.79 Q1981.2 1795.79 1983.01 1792.25 Q1984.83 1788.68 1984.83 1781.58 Q1984.83 1774.45 1983.01 1770.9 Q1981.2 1767.34 1977.57 1767.34 M1977.57 1763.64 Q1983.38 1763.64 1986.43 1768.24 Q1989.51 1772.83 1989.51 1781.58 Q1989.51 1790.3 1986.43 1794.91 Q1983.38 1799.49 1977.57 1799.49 Q1971.76 1799.49 1968.68 1794.91 Q1965.62 1790.3 1965.62 1781.58 Q1965.62 1772.83 1968.68 1768.24 Q1971.76 1763.64 1977.57 1763.64 Z" fill="#000000" fill-rule="nonzero" fill-opacity="1" /><path clip-path="url(#clip600)" d="M1997.73 1792.94 L2002.61 1792.94 L2002.61 1798.82 L1997.73 1798.82 L1997.73 1792.94 Z" fill="#000000" fill-rule="nonzero" fill-opacity="1" /><path clip-path="url(#clip600)" d="M2011.62 1764.26 L2033.84 1764.26 L2033.84 1766.25 L2021.29 1798.82 L2016.41 1798.82 L2028.21 1768.2 L2011.62 1768.2 L2011.62 1764.26 Z" fill="#000000" fill-rule="nonzero" fill-opacity="1" /><path clip-path="url(#clip600)" d="M2043 1764.26 L2061.36 1764.26 L2061.36 1768.2 L2047.29 1768.2 L2047.29 1776.67 Q2048.31 1776.32 2049.32 1776.16 Q2050.34 1775.97 2051.36 1775.97 Q2057.15 1775.97 2060.53 1779.15 Q2063.91 1782.32 2063.91 1787.73 Q2063.91 1793.31 2060.44 1796.41 Q2056.96 1799.49 2050.64 1799.49 Q2048.47 1799.49 2046.2 1799.12 Q2043.95 1798.75 2041.55 1798.01 L2041.55 1793.31 Q2043.63 1794.45 2045.85 1795 Q2048.07 1795.56 2050.55 1795.56 Q2054.56 1795.56 2056.89 1793.45 Q2059.23 1791.34 2059.23 1787.73 Q2059.23 1784.12 2056.89 1782.02 Q2054.56 1779.91 2050.55 1779.91 Q2048.68 1779.91 2046.8 1780.33 Q2044.95 1780.74 2043 1781.62 L2043 1764.26 Z" fill="#000000" fill-rule="nonzero" fill-opacity="1" /><path clip-path="url(#clip600)" d="M2528.27 1794.89 L2535.91 1794.89 L2535.91 1768.52 L2527.6 1770.19 L2527.6 1765.93 L2535.87 1764.26 L2540.54 1764.26 L2540.54 1794.89 L2548.18 1794.89 L2548.18 1798.82 L2528.27 1798.82 L2528.27 1794.89 Z" fill="#000000" fill-rule="nonzero" fill-opacity="1" /><path clip-path="url(#clip600)" d="M2557.62 1792.94 L2562.51 1792.94 L2562.51 1798.82 L2557.62 1798.82 L2557.62 1792.94 Z" fill="#000000" fill-rule="nonzero" fill-opacity="1" /><path clip-path="url(#clip600)" d="M2582.69 1767.34 Q2579.08 1767.34 2577.25 1770.9 Q2575.45 1774.45 2575.45 1781.58 Q2575.45 1788.68 2577.25 1792.25 Q2579.08 1795.79 2582.69 1795.79 Q2586.33 1795.79 2588.13 1792.25 Q2589.96 1788.68 2589.96 1781.58 Q2589.96 1774.45 2588.13 1770.9 Q2586.33 1767.34 2582.69 1767.34 M2582.69 1763.64 Q2588.5 1763.64 2591.56 1768.24 Q2594.64 1772.83 2594.64 1781.58 Q2594.64 1790.3 2591.56 1794.91 Q2588.5 1799.49 2582.69 1799.49 Q2576.88 1799.49 2573.8 1794.91 Q2570.75 1790.3 2570.75 1781.58 Q2570.75 1772.83 2573.8 1768.24 Q2576.88 1763.64 2582.69 1763.64 Z" fill="#000000" fill-rule="nonzero" fill-opacity="1" /><path clip-path="url(#clip600)" d="M2612.86 1767.34 Q2609.24 1767.34 2607.42 1770.9 Q2605.61 1774.45 2605.61 1781.58 Q2605.61 1788.68 2607.42 1792.25 Q2609.24 1795.79 2612.86 1795.79 Q2616.49 1795.79 2618.3 1792.25 Q2620.12 1788.68 2620.12 1781.58 Q2620.12 1774.45 2618.3 1770.9 Q2616.49 1767.34 2612.86 1767.34 M2612.86 1763.64 Q2618.67 1763.64 2621.72 1768.24 Q2624.8 1772.83 2624.8 1781.58 Q2624.8 1790.3 2621.72 1794.91 Q2618.67 1799.49 2612.86 1799.49 Q2607.05 1799.49 2603.97 1794.91 Q2600.91 1790.3 2600.91 1781.58 Q2600.91 1772.83 2603.97 1768.24 Q2607.05 1763.64 2612.86 1763.64 Z" fill="#000000" fill-rule="nonzero" fill-opacity="1" /><path clip-path="url(#clip600)" d="M1468.73 1847.65 L1455.84 1865 L1469.4 1883.3 L1462.49 1883.3 L1452.12 1869.3 L1441.74 1883.3 L1434.83 1883.3 L1448.68 1864.65 L1436.01 1847.65 L1442.92 1847.65 L1452.37 1860.35 L1461.82 1847.65 L1468.73 1847.65 Z" fill="#000000" fill-rule="nonzero" fill-opacity="1" /><polyline clip-path="url(#clip600)" style="stroke:#000000; stroke-linecap:round; stroke-linejoin:round; stroke-width:4; stroke-opacity:1; fill:none" points="263.478,1734.12 263.478,127.792 "/>
<polyline clip-path="url(#clip600)" style="stroke:#000000; stroke-linecap:round; stroke-linejoin:round; stroke-width:4; stroke-opacity:1; fill:none" points="263.478,1607.98 282.376,1607.98 "/>
<polyline clip-path="url(#clip600)" style="stroke:#000000; stroke-linecap:round; stroke-linejoin:round; stroke-width:4; stroke-opacity:1; fill:none" points="263.478,1229.11 282.376,1229.11 "/>
<polyline clip-path="url(#clip600)" style="stroke:#000000; stroke-linecap:round; stroke-linejoin:round; stroke-width:4; stroke-opacity:1; fill:none" points="263.478,850.247 282.376,850.247 "/>
<polyline clip-path="url(#clip600)" style="stroke:#000000; stroke-linecap:round; stroke-linejoin:round; stroke-width:4; stroke-opacity:1; fill:none" points="263.478,471.379 282.376,471.379 "/>
<path clip-path="url(#clip600)" d="M116.214 1608.43 L145.89 1608.43 L145.89 1612.37 L116.214 1612.37 L116.214 1608.43 Z" fill="#000000" fill-rule="nonzero" fill-opacity="1" /><path clip-path="url(#clip600)" d="M156.793 1621.33 L164.432 1621.33 L164.432 1594.96 L156.122 1596.63 L156.122 1592.37 L164.385 1590.7 L169.061 1590.7 L169.061 1621.33 L176.7 1621.33 L176.7 1625.26 L156.793 1625.26 L156.793 1621.33 Z" fill="#000000" fill-rule="nonzero" fill-opacity="1" /><path clip-path="url(#clip600)" d="M186.145 1619.38 L191.029 1619.38 L191.029 1625.26 L186.145 1625.26 L186.145 1619.38 Z" fill="#000000" fill-rule="nonzero" fill-opacity="1" /><path clip-path="url(#clip600)" d="M211.214 1593.78 Q207.603 1593.78 205.774 1597.35 Q203.969 1600.89 203.969 1608.02 Q203.969 1615.12 205.774 1618.69 Q207.603 1622.23 211.214 1622.23 Q214.848 1622.23 216.654 1618.69 Q218.482 1615.12 218.482 1608.02 Q218.482 1600.89 216.654 1597.35 Q214.848 1593.78 211.214 1593.78 M211.214 1590.08 Q217.024 1590.08 220.08 1594.68 Q223.158 1599.27 223.158 1608.02 Q223.158 1616.74 220.08 1621.35 Q217.024 1625.93 211.214 1625.93 Q205.404 1625.93 202.325 1621.35 Q199.27 1616.74 199.27 1608.02 Q199.27 1599.27 202.325 1594.68 Q205.404 1590.08 211.214 1590.08 Z" fill="#000000" fill-rule="nonzero" fill-opacity="1" /><path clip-path="url(#clip600)" d="M117.21 1229.57 L146.886 1229.57 L146.886 1233.5 L117.21 1233.5 L117.21 1229.57 Z" fill="#000000" fill-rule="nonzero" fill-opacity="1" /><path clip-path="url(#clip600)" d="M166.978 1214.91 Q163.367 1214.91 161.538 1218.48 Q159.733 1222.02 159.733 1229.15 Q159.733 1236.26 161.538 1239.82 Q163.367 1243.36 166.978 1243.36 Q170.612 1243.36 172.418 1239.82 Q174.247 1236.26 174.247 1229.15 Q174.247 1222.02 172.418 1218.48 Q170.612 1214.91 166.978 1214.91 M166.978 1211.21 Q172.788 1211.21 175.844 1215.82 Q178.922 1220.4 178.922 1229.15 Q178.922 1237.88 175.844 1242.48 Q172.788 1247.07 166.978 1247.07 Q161.168 1247.07 158.089 1242.48 Q155.034 1237.88 155.034 1229.15 Q155.034 1220.4 158.089 1215.82 Q161.168 1211.21 166.978 1211.21 Z" fill="#000000" fill-rule="nonzero" fill-opacity="1" /><path clip-path="url(#clip600)" d="M187.14 1240.51 L192.024 1240.51 L192.024 1246.39 L187.14 1246.39 L187.14 1240.51 Z" fill="#000000" fill-rule="nonzero" fill-opacity="1" /><path clip-path="url(#clip600)" d="M202.256 1211.83 L220.612 1211.83 L220.612 1215.77 L206.538 1215.77 L206.538 1224.24 Q207.557 1223.89 208.575 1223.73 Q209.594 1223.55 210.612 1223.55 Q216.399 1223.55 219.779 1226.72 Q223.158 1229.89 223.158 1235.31 Q223.158 1240.88 219.686 1243.99 Q216.214 1247.07 209.894 1247.07 Q207.719 1247.07 205.45 1246.7 Q203.205 1246.32 200.797 1245.58 L200.797 1240.88 Q202.881 1242.02 205.103 1242.57 Q207.325 1243.13 209.802 1243.13 Q213.807 1243.13 216.144 1241.02 Q218.482 1238.92 218.482 1235.31 Q218.482 1231.7 216.144 1229.59 Q213.807 1227.48 209.802 1227.48 Q207.927 1227.48 206.052 1227.9 Q204.2 1228.32 202.256 1229.2 L202.256 1211.83 Z" fill="#000000" fill-rule="nonzero" fill-opacity="1" /><path clip-path="url(#clip600)" d="M165.983 836.046 Q162.372 836.046 160.543 839.61 Q158.737 843.152 158.737 850.282 Q158.737 857.388 160.543 860.953 Q162.372 864.494 165.983 864.494 Q169.617 864.494 171.422 860.953 Q173.251 857.388 173.251 850.282 Q173.251 843.152 171.422 839.61 Q169.617 836.046 165.983 836.046 M165.983 832.342 Q171.793 832.342 174.848 836.948 Q177.927 841.532 177.927 850.282 Q177.927 859.008 174.848 863.615 Q171.793 868.198 165.983 868.198 Q160.173 868.198 157.094 863.615 Q154.038 859.008 154.038 850.282 Q154.038 841.532 157.094 836.948 Q160.173 832.342 165.983 832.342 Z" fill="#000000" fill-rule="nonzero" fill-opacity="1" /><path clip-path="url(#clip600)" d="M186.145 861.647 L191.029 861.647 L191.029 867.527 L186.145 867.527 L186.145 861.647 Z" fill="#000000" fill-rule="nonzero" fill-opacity="1" /><path clip-path="url(#clip600)" d="M211.214 836.046 Q207.603 836.046 205.774 839.61 Q203.969 843.152 203.969 850.282 Q203.969 857.388 205.774 860.953 Q207.603 864.494 211.214 864.494 Q214.848 864.494 216.654 860.953 Q218.482 857.388 218.482 850.282 Q218.482 843.152 216.654 839.61 Q214.848 836.046 211.214 836.046 M211.214 832.342 Q217.024 832.342 220.08 836.948 Q223.158 841.532 223.158 850.282 Q223.158 859.008 220.08 863.615 Q217.024 868.198 211.214 868.198 Q205.404 868.198 202.325 863.615 Q199.27 859.008 199.27 850.282 Q199.27 841.532 202.325 836.948 Q205.404 832.342 211.214 832.342 Z" fill="#000000" fill-rule="nonzero" fill-opacity="1" /><path clip-path="url(#clip600)" d="M166.978 457.178 Q163.367 457.178 161.538 460.743 Q159.733 464.285 159.733 471.414 Q159.733 478.521 161.538 482.085 Q163.367 485.627 166.978 485.627 Q170.612 485.627 172.418 482.085 Q174.247 478.521 174.247 471.414 Q174.247 464.285 172.418 460.743 Q170.612 457.178 166.978 457.178 M166.978 453.474 Q172.788 453.474 175.844 458.081 Q178.922 462.664 178.922 471.414 Q178.922 480.141 175.844 484.747 Q172.788 489.331 166.978 489.331 Q161.168 489.331 158.089 484.747 Q155.034 480.141 155.034 471.414 Q155.034 462.664 158.089 458.081 Q161.168 453.474 166.978 453.474 Z" fill="#000000" fill-rule="nonzero" fill-opacity="1" /><path clip-path="url(#clip600)" d="M187.14 482.78 L192.024 482.78 L192.024 488.659 L187.14 488.659 L187.14 482.78 Z" fill="#000000" fill-rule="nonzero" fill-opacity="1" /><path clip-path="url(#clip600)" d="M202.256 454.099 L220.612 454.099 L220.612 458.035 L206.538 458.035 L206.538 466.507 Q207.557 466.16 208.575 465.998 Q209.594 465.812 210.612 465.812 Q216.399 465.812 219.779 468.984 Q223.158 472.155 223.158 477.572 Q223.158 483.15 219.686 486.252 Q216.214 489.331 209.894 489.331 Q207.719 489.331 205.45 488.96 Q203.205 488.59 200.797 487.849 L200.797 483.15 Q202.881 484.284 205.103 484.84 Q207.325 485.396 209.802 485.396 Q213.807 485.396 216.144 483.289 Q218.482 481.183 218.482 477.572 Q218.482 473.96 216.144 471.854 Q213.807 469.748 209.802 469.748 Q207.927 469.748 206.052 470.164 Q204.2 470.581 202.256 471.46 L202.256 454.099 Z" fill="#000000" fill-rule="nonzero" fill-opacity="1" /><path clip-path="url(#clip600)" d="M12.1132 1140.72 L16.983 1140.72 L16.983 1146.32 Q16.983 1149.47 18.2562 1150.71 Q19.5293 1151.92 22.8395 1151.92 L25.9905 1151.92 L25.9905 1142.28 L30.542 1142.28 L30.542 1151.92 L61.6384 1151.92 L61.6384 1157.81 L30.542 1157.81 L30.542 1163.41 L25.9905 1163.41 L25.9905 1157.81 L23.5079 1157.81 Q17.5559 1157.81 14.8505 1155.04 Q12.1132 1152.27 12.1132 1146.26 L12.1132 1140.72 Z" fill="#000000" fill-rule="nonzero" fill-opacity="1" /><path clip-path="url(#clip600)" d="M12.1769 1121.75 Q19.4975 1126.02 26.6589 1128.08 Q33.8203 1130.15 41.1727 1130.15 Q48.5251 1130.15 55.7502 1128.08 Q62.9434 1125.98 70.2321 1121.75 L70.2321 1126.84 Q62.7524 1131.62 55.5274 1134 Q48.3023 1136.36 41.1727 1136.36 Q34.0749 1136.36 26.8817 1134 Q19.6884 1131.65 12.1769 1126.84 L12.1769 1121.75 Z" fill="#000000" fill-rule="nonzero" fill-opacity="1" /><path clip-path="url(#clip600)" d="M25.9905 1080.76 L43.337 1093.65 L61.6384 1080.09 L61.6384 1086.99 L47.6339 1097.37 L61.6384 1107.75 L61.6384 1114.65 L42.9869 1100.81 L25.9905 1113.48 L25.9905 1106.57 L38.6901 1097.12 L25.9905 1087.66 L25.9905 1080.76 Z" fill="#000000" fill-rule="nonzero" fill-opacity="1" /><path clip-path="url(#clip600)" d="M12.1769 1072.73 L12.1769 1067.64 Q19.6884 1062.87 26.8817 1060.51 Q34.0749 1058.13 41.1727 1058.13 Q48.3023 1058.13 55.5274 1060.51 Q62.7524 1062.87 70.2321 1067.64 L70.2321 1072.73 Q62.9434 1068.5 55.7502 1066.43 Q48.5251 1064.33 41.1727 1064.33 Q33.8203 1064.33 26.6589 1066.43 Q19.4975 1068.5 12.1769 1072.73 Z" fill="#000000" fill-rule="nonzero" fill-opacity="1" /><path clip-path="url(#clip600)" d="M12.1132 1026.2 L12.1132 1012.71 L16.6647 1012.71 L16.6647 1020.34 L65.6807 1020.34 L65.6807 1012.71 L70.2321 1012.71 L70.2321 1026.2 L12.1132 1026.2 Z" fill="#000000" fill-rule="nonzero" fill-opacity="1" /><path clip-path="url(#clip600)" d="M12.1132 1000.23 L12.1132 994.373 L61.6384 994.373 L61.6384 1000.23 L12.1132 1000.23 Z" fill="#000000" fill-rule="nonzero" fill-opacity="1" /><path clip-path="url(#clip600)" d="M30.0964 968.305 Q30.0964 973.016 33.7885 975.753 Q37.4488 978.49 43.8463 978.49 Q50.2438 978.49 53.9359 975.785 Q57.5962 973.048 57.5962 968.305 Q57.5962 963.627 53.9041 960.889 Q50.212 958.152 43.8463 958.152 Q37.5124 958.152 33.8203 960.889 Q30.0964 963.627 30.0964 968.305 M25.1311 968.305 Q25.1311 960.666 30.0964 956.306 Q35.0616 951.945 43.8463 951.945 Q52.5991 951.945 57.5962 956.306 Q62.5615 960.666 62.5615 968.305 Q62.5615 975.976 57.5962 980.337 Q52.5991 984.665 43.8463 984.665 Q35.0616 984.665 30.0964 980.337 Q25.1311 975.976 25.1311 968.305 Z" fill="#000000" fill-rule="nonzero" fill-opacity="1" /><path clip-path="url(#clip600)" d="M43.4007 918.78 Q37.035 918.78 33.5338 921.422 Q30.0327 924.032 30.0327 928.774 Q30.0327 933.485 33.5338 936.127 Q37.035 938.737 43.4007 938.737 Q49.7346 938.737 53.2357 936.127 Q56.7368 933.485 56.7368 928.774 Q56.7368 924.032 53.2357 921.422 Q49.7346 918.78 43.4007 918.78 M57.2143 912.924 Q66.3172 912.924 70.7414 916.966 Q75.1974 921.008 75.1974 929.347 Q75.1974 932.435 74.72 935.172 Q74.2744 937.909 73.3195 940.487 L67.6222 940.487 Q69.0227 937.909 69.6911 935.395 Q70.3595 932.88 70.3595 930.27 Q70.3595 924.509 67.3358 921.645 Q64.3439 918.78 58.2646 918.78 L55.3682 918.78 Q58.5192 920.594 60.0788 923.427 Q61.6384 926.26 61.6384 930.207 Q61.6384 936.763 56.6414 940.774 Q51.6443 944.784 43.4007 944.784 Q35.1253 944.784 30.1282 940.774 Q25.1311 936.763 25.1311 930.207 Q25.1311 926.26 26.6907 923.427 Q28.2503 920.594 31.4013 918.78 L25.9905 918.78 L25.9905 912.924 L57.2143 912.924 Z" fill="#000000" fill-rule="nonzero" fill-opacity="1" /><path clip-path="url(#clip600)" d="M27.0408 857.415 L32.579 857.415 Q31.3059 859.897 30.6693 862.571 Q30.0327 865.245 30.0327 868.109 Q30.0327 872.47 31.3695 874.666 Q32.7063 876.83 35.3799 876.83 Q37.4169 876.83 38.5946 875.271 Q39.7404 873.711 40.7908 869 L41.2364 866.995 Q42.5732 860.757 45.0239 858.147 Q47.4429 855.505 51.8034 855.505 Q56.7687 855.505 59.6651 859.452 Q62.5615 863.367 62.5615 870.242 Q62.5615 873.106 61.9886 876.225 Q61.4475 879.313 60.3335 882.75 L54.2861 882.75 Q55.973 879.504 56.8323 876.353 Q57.6599 873.202 57.6599 870.114 Q57.6599 865.977 56.2594 863.749 Q54.8271 861.521 52.249 861.521 Q49.8619 861.521 48.5887 863.144 Q47.3156 864.735 46.1379 870.178 L45.6605 872.215 Q44.5147 877.658 42.1594 880.077 Q39.7722 882.496 35.6345 882.496 Q30.6056 882.496 27.8684 878.931 Q25.1311 875.366 25.1311 868.809 Q25.1311 865.563 25.6085 862.698 Q26.086 859.834 27.0408 857.415 Z" fill="#000000" fill-rule="nonzero" fill-opacity="1" /><path clip-path="url(#clip600)" d="M27.3591 820.525 L32.8336 820.525 Q31.465 823.008 30.7966 825.523 Q30.0964 828.005 30.0964 830.551 Q30.0964 836.249 33.7248 839.4 Q37.3214 842.551 43.8463 842.551 Q50.3711 842.551 53.9996 839.4 Q57.5962 836.249 57.5962 830.551 Q57.5962 828.005 56.9278 825.523 Q56.2276 823.008 54.859 820.525 L60.2698 820.525 Q61.4156 822.976 61.9886 825.618 Q62.5615 828.228 62.5615 831.188 Q62.5615 839.241 57.5007 843.983 Q52.44 848.726 43.8463 848.726 Q35.1253 848.726 30.1282 843.951 Q25.1311 839.145 25.1311 830.806 Q25.1311 828.101 25.704 825.523 Q26.2451 822.944 27.3591 820.525 Z" fill="#000000" fill-rule="nonzero" fill-opacity="1" /><path clip-path="url(#clip600)" d="M43.719 794.14 Q43.719 801.237 45.3422 803.975 Q46.9655 806.712 50.8804 806.712 Q53.9996 806.712 55.8457 804.675 Q57.6599 802.606 57.6599 799.073 Q57.6599 794.203 54.2224 791.275 Q50.7531 788.315 45.0239 788.315 L43.719 788.315 L43.719 794.14 M41.3 782.459 L61.6384 782.459 L61.6384 788.315 L56.2276 788.315 Q59.4741 790.32 61.0337 793.312 Q62.5615 796.304 62.5615 800.633 Q62.5615 806.107 59.5059 809.354 Q56.4186 812.568 51.2623 812.568 Q45.2467 812.568 42.1912 808.558 Q39.1357 804.516 39.1357 796.527 L39.1357 788.315 L38.5628 788.315 Q34.5205 788.315 32.3244 790.989 Q30.0964 793.63 30.0964 798.436 Q30.0964 801.492 30.8284 804.388 Q31.5605 807.285 33.0246 809.958 L27.6137 809.958 Q26.3724 806.744 25.7677 803.72 Q25.1311 800.696 25.1311 797.832 Q25.1311 790.097 29.1415 786.278 Q33.1519 782.459 41.3 782.459 Z" fill="#000000" fill-rule="nonzero" fill-opacity="1" /><path clip-path="url(#clip600)" d="M12.1132 770.396 L12.1132 764.539 L61.6384 764.539 L61.6384 770.396 L12.1132 770.396 Z" fill="#000000" fill-rule="nonzero" fill-opacity="1" /><path clip-path="url(#clip600)" d="M42.3504 721.793 L45.2149 721.793 L45.2149 748.72 Q51.2623 748.338 54.4452 745.092 Q57.5962 741.813 57.5962 735.989 Q57.5962 732.615 56.7687 729.464 Q55.9411 726.281 54.2861 723.162 L59.8242 723.162 Q61.161 726.313 61.8612 729.623 Q62.5615 732.933 62.5615 736.339 Q62.5615 744.869 57.5962 749.866 Q52.631 754.831 44.1646 754.831 Q35.4117 754.831 30.2873 750.121 Q25.1311 745.378 25.1311 737.358 Q25.1311 730.164 29.7781 725.995 Q34.3932 721.793 42.3504 721.793 M40.6316 727.65 Q35.8255 727.713 32.9609 730.355 Q30.0964 732.965 30.0964 737.294 Q30.0964 742.195 32.8654 745.155 Q35.6345 748.084 40.6634 748.529 L40.6316 727.65 Z" fill="#000000" fill-rule="nonzero" fill-opacity="1" /><path clip-path="url(#clip600)" d="M12.1132 698.495 L70.2321 698.495 L70.2321 711.99 L65.6807 711.99 L65.6807 704.383 L16.6647 704.383 L16.6647 711.99 L12.1132 711.99 L12.1132 698.495 Z" fill="#000000" fill-rule="nonzero" fill-opacity="1" /><path clip-path="url(#clip600)" d="M733.426 63.9476 L733.426 47.7034 L720.058 47.7034 L720.058 40.9789 L741.528 40.9789 L741.528 66.9452 Q736.788 70.3075 731.076 72.0494 Q725.365 73.7508 718.883 73.7508 Q704.705 73.7508 696.684 65.4869 Q688.704 57.1826 688.704 42.3968 Q688.704 27.5705 696.684 19.3066 Q704.705 11.0023 718.883 11.0023 Q724.798 11.0023 730.104 12.4606 Q735.451 13.9189 739.948 16.7545 L739.948 25.464 Q735.411 21.6156 730.307 19.6712 Q725.203 17.7268 719.572 17.7268 Q708.472 17.7268 702.882 23.9246 Q697.332 30.1225 697.332 42.3968 Q697.332 54.6305 702.882 60.8284 Q708.472 67.0263 719.572 67.0263 Q723.906 67.0263 727.309 66.2971 Q730.712 65.5274 733.426 63.9476 Z" fill="#000000" fill-rule="nonzero" fill-opacity="1" /><path clip-path="url(#clip600)" d="M776.771 49.7694 Q767.737 49.7694 764.253 51.8354 Q760.77 53.9013 760.77 58.8839 Q760.77 62.8538 763.362 65.2034 Q765.995 67.5124 770.492 67.5124 Q776.69 67.5124 780.416 63.1374 Q784.184 58.7219 784.184 51.4303 L784.184 49.7694 L776.771 49.7694 M791.637 46.6907 L791.637 72.576 L784.184 72.576 L784.184 65.6895 Q781.632 69.8214 777.824 71.8063 Q774.016 73.7508 768.507 73.7508 Q761.539 73.7508 757.407 69.8619 Q753.316 65.9325 753.316 59.3701 Q753.316 51.7138 758.42 47.825 Q763.565 43.9361 773.732 43.9361 L784.184 43.9361 L784.184 43.2069 Q784.184 38.0623 780.781 35.2672 Q777.419 32.4315 771.302 32.4315 Q767.413 32.4315 763.727 33.3632 Q760.04 34.295 756.638 36.1584 L756.638 29.2718 Q760.729 27.692 764.577 26.9223 Q768.426 26.1121 772.072 26.1121 Q781.915 26.1121 786.776 31.2163 Q791.637 36.3204 791.637 46.6907 Z" fill="#000000" fill-rule="nonzero" fill-opacity="1" /><path clip-path="url(#clip600)" d="M842.314 35.9153 Q845.109 30.8922 848.998 28.5022 Q852.887 26.1121 858.153 26.1121 Q865.242 26.1121 869.091 31.0947 Q872.939 36.0368 872.939 45.1919 L872.939 72.576 L865.445 72.576 L865.445 45.4349 Q865.445 38.913 863.136 35.7533 Q860.827 32.5936 856.087 32.5936 Q850.295 32.5936 846.932 36.4419 Q843.57 40.2903 843.57 46.9338 L843.57 72.576 L836.076 72.576 L836.076 45.4349 Q836.076 38.8725 833.767 35.7533 Q831.458 32.5936 826.637 32.5936 Q820.925 32.5936 817.563 36.4824 Q814.201 40.3308 814.201 46.9338 L814.201 72.576 L806.707 72.576 L806.707 27.2059 L814.201 27.2059 L814.201 34.2544 Q816.753 30.082 820.318 28.0971 Q823.883 26.1121 828.784 26.1121 Q833.726 26.1121 837.17 28.6237 Q840.653 31.1352 842.314 35.9153 Z" fill="#000000" fill-rule="nonzero" fill-opacity="1" /><path clip-path="url(#clip600)" d="M923.13 35.9153 Q925.925 30.8922 929.814 28.5022 Q933.703 26.1121 938.969 26.1121 Q946.058 26.1121 949.906 31.0947 Q953.755 36.0368 953.755 45.1919 L953.755 72.576 L946.26 72.576 L946.26 45.4349 Q946.26 38.913 943.951 35.7533 Q941.642 32.5936 936.903 32.5936 Q931.11 32.5936 927.748 36.4419 Q924.386 40.2903 924.386 46.9338 L924.386 72.576 L916.891 72.576 L916.891 45.4349 Q916.891 38.8725 914.582 35.7533 Q912.273 32.5936 907.453 32.5936 Q901.741 32.5936 898.379 36.4824 Q895.017 40.3308 895.017 46.9338 L895.017 72.576 L887.522 72.576 L887.522 27.2059 L895.017 27.2059 L895.017 34.2544 Q897.569 30.082 901.133 28.0971 Q904.698 26.1121 909.6 26.1121 Q914.542 26.1121 917.985 28.6237 Q921.469 31.1352 923.13 35.9153 Z" fill="#000000" fill-rule="nonzero" fill-opacity="1" /><path clip-path="url(#clip600)" d="M989.241 49.7694 Q980.207 49.7694 976.723 51.8354 Q973.239 53.9013 973.239 58.8839 Q973.239 62.8538 975.832 65.2034 Q978.465 67.5124 982.962 67.5124 Q989.16 67.5124 992.886 63.1374 Q996.654 58.7219 996.654 51.4303 L996.654 49.7694 L989.241 49.7694 M1004.11 46.6907 L1004.11 72.576 L996.654 72.576 L996.654 65.6895 Q994.102 69.8214 990.294 71.8063 Q986.486 73.7508 980.977 73.7508 Q974.009 73.7508 969.877 69.8619 Q965.786 65.9325 965.786 59.3701 Q965.786 51.7138 970.89 47.825 Q976.035 43.9361 986.202 43.9361 L996.654 43.9361 L996.654 43.2069 Q996.654 38.0623 993.251 35.2672 Q989.889 32.4315 983.772 32.4315 Q979.883 32.4315 976.197 33.3632 Q972.51 34.295 969.108 36.1584 L969.108 29.2718 Q973.199 27.692 977.047 26.9223 Q980.896 26.1121 984.541 26.1121 Q994.385 26.1121 999.246 31.2163 Q1004.11 36.3204 1004.11 46.6907 Z" fill="#000000" fill-rule="nonzero" fill-opacity="1" /><path clip-path="url(#clip600)" d="M1087.39 63.9476 L1087.39 47.7034 L1074.03 47.7034 L1074.03 40.9789 L1095.5 40.9789 L1095.5 66.9452 Q1090.76 70.3075 1085.04 72.0494 Q1079.33 73.7508 1072.85 73.7508 Q1058.67 73.7508 1050.65 65.4869 Q1042.67 57.1826 1042.67 42.3968 Q1042.67 27.5705 1050.65 19.3066 Q1058.67 11.0023 1072.85 11.0023 Q1078.77 11.0023 1084.07 12.4606 Q1089.42 13.9189 1093.92 16.7545 L1093.92 25.464 Q1089.38 21.6156 1084.27 19.6712 Q1079.17 17.7268 1073.54 17.7268 Q1062.44 17.7268 1056.85 23.9246 Q1051.3 30.1225 1051.3 42.3968 Q1051.3 54.6305 1056.85 60.8284 Q1062.44 67.0263 1073.54 67.0263 Q1077.87 67.0263 1081.28 66.2971 Q1084.68 65.5274 1087.39 63.9476 Z" fill="#000000" fill-rule="nonzero" fill-opacity="1" /><path clip-path="url(#clip600)" d="M1130.66 20.1573 L1119.56 50.2555 L1141.8 50.2555 L1130.66 20.1573 M1126.04 12.096 L1135.32 12.096 L1158.37 72.576 L1149.86 72.576 L1144.35 57.061 L1117.09 57.061 L1111.58 72.576 L1102.95 72.576 L1126.04 12.096 Z" fill="#000000" fill-rule="nonzero" fill-opacity="1" /><path clip-path="url(#clip600)" d="M1167.2 12.096 L1179.39 12.096 L1194.82 53.2532 L1210.34 12.096 L1222.53 12.096 L1222.53 72.576 L1214.55 72.576 L1214.55 19.4686 L1198.96 60.9499 L1190.73 60.9499 L1175.14 19.4686 L1175.14 72.576 L1167.2 72.576 L1167.2 12.096 Z" fill="#000000" fill-rule="nonzero" fill-opacity="1" /><path clip-path="url(#clip600)" d="M1261.06 46.9338 L1335.92 46.9338 L1335.92 52.7671 L1261.06 52.7671 L1261.06 46.9338 Z" fill="#000000" fill-rule="nonzero" fill-opacity="1" /><path clip-path="url(#clip600)" d="M1403.08 28.5427 L1403.08 35.5912 Q1399.92 33.9709 1396.52 33.1607 Q1393.12 32.3505 1389.47 32.3505 Q1383.92 32.3505 1381.13 34.0519 Q1378.37 35.7533 1378.37 39.156 Q1378.37 41.7486 1380.36 43.2475 Q1382.34 44.7058 1388.34 46.0426 L1390.89 46.6097 Q1398.83 48.3111 1402.15 51.4303 Q1405.51 54.509 1405.51 60.0587 Q1405.51 66.3781 1400.49 70.0644 Q1395.51 73.7508 1386.76 73.7508 Q1383.11 73.7508 1379.14 73.0216 Q1375.21 72.3329 1370.84 70.9151 L1370.84 63.2184 Q1374.97 65.3654 1378.98 66.4591 Q1382.99 67.5124 1386.92 67.5124 Q1392.18 67.5124 1395.02 65.73 Q1397.86 63.9071 1397.86 60.6258 Q1397.86 57.5877 1395.79 55.9673 Q1393.76 54.3469 1386.84 52.8481 L1384.24 52.2405 Q1377.32 50.7821 1374.24 47.7845 Q1371.16 44.7463 1371.16 39.4801 Q1371.16 33.0797 1375.7 29.5959 Q1380.23 26.1121 1388.58 26.1121 Q1392.71 26.1121 1396.36 26.7198 Q1400 27.3274 1403.08 28.5427 Z" fill="#000000" fill-rule="nonzero" fill-opacity="1" /><path clip-path="url(#clip600)" d="M1452.7 35.9153 Q1455.5 30.8922 1459.39 28.5022 Q1463.28 26.1121 1468.54 26.1121 Q1475.63 26.1121 1479.48 31.0947 Q1483.33 36.0368 1483.33 45.1919 L1483.33 72.576 L1475.84 72.576 L1475.84 45.4349 Q1475.84 38.913 1473.53 35.7533 Q1471.22 32.5936 1466.48 32.5936 Q1460.68 32.5936 1457.32 36.4419 Q1453.96 40.2903 1453.96 46.9338 L1453.96 72.576 L1446.47 72.576 L1446.47 45.4349 Q1446.47 38.8725 1444.16 35.7533 Q1441.85 32.5936 1437.03 32.5936 Q1431.32 32.5936 1427.95 36.4824 Q1424.59 40.3308 1424.59 46.9338 L1424.59 72.576 L1417.1 72.576 L1417.1 27.2059 L1424.59 27.2059 L1424.59 34.2544 Q1427.14 30.082 1430.71 28.0971 Q1434.27 26.1121 1439.17 26.1121 Q1444.12 26.1121 1447.56 28.6237 Q1451.04 31.1352 1452.7 35.9153 Z" fill="#000000" fill-rule="nonzero" fill-opacity="1" /><path clip-path="url(#clip600)" d="M1515.78 32.4315 Q1509.78 32.4315 1506.3 37.1306 Q1502.81 41.7891 1502.81 49.9314 Q1502.81 58.0738 1506.26 62.7728 Q1509.74 67.4314 1515.78 67.4314 Q1521.73 67.4314 1525.22 62.7323 Q1528.7 58.0333 1528.7 49.9314 Q1528.7 41.8701 1525.22 37.1711 Q1521.73 32.4315 1515.78 32.4315 M1515.78 26.1121 Q1525.5 26.1121 1531.05 32.4315 Q1536.6 38.7509 1536.6 49.9314 Q1536.6 61.0714 1531.05 67.4314 Q1525.5 73.7508 1515.78 73.7508 Q1506.01 73.7508 1500.46 67.4314 Q1494.96 61.0714 1494.96 49.9314 Q1494.96 38.7509 1500.46 32.4315 Q1506.01 26.1121 1515.78 26.1121 Z" fill="#000000" fill-rule="nonzero" fill-opacity="1" /><path clip-path="url(#clip600)" d="M1566.53 32.4315 Q1560.54 32.4315 1557.06 37.1306 Q1553.57 41.7891 1553.57 49.9314 Q1553.57 58.0738 1557.02 62.7728 Q1560.5 67.4314 1566.53 67.4314 Q1572.49 67.4314 1575.97 62.7323 Q1579.46 58.0333 1579.46 49.9314 Q1579.46 41.8701 1575.97 37.1711 Q1572.49 32.4315 1566.53 32.4315 M1566.53 26.1121 Q1576.26 26.1121 1581.81 32.4315 Q1587.36 38.7509 1587.36 49.9314 Q1587.36 61.0714 1581.81 67.4314 Q1576.26 73.7508 1566.53 73.7508 Q1556.77 73.7508 1551.22 67.4314 Q1545.71 61.0714 1545.71 49.9314 Q1545.71 38.7509 1551.22 32.4315 Q1556.77 26.1121 1566.53 26.1121 Z" fill="#000000" fill-rule="nonzero" fill-opacity="1" /><path clip-path="url(#clip600)" d="M1607.08 14.324 L1607.08 27.2059 L1622.44 27.2059 L1622.44 32.9987 L1607.08 32.9987 L1607.08 57.6282 Q1607.08 63.1779 1608.58 64.7578 Q1610.12 66.3376 1614.78 66.3376 L1622.44 66.3376 L1622.44 72.576 L1614.78 72.576 Q1606.15 72.576 1602.87 69.3758 Q1599.59 66.1351 1599.59 57.6282 L1599.59 32.9987 L1594.12 32.9987 L1594.12 27.2059 L1599.59 27.2059 L1599.59 14.324 L1607.08 14.324 Z" fill="#000000" fill-rule="nonzero" fill-opacity="1" /><path clip-path="url(#clip600)" d="M1669.95 45.1919 L1669.95 72.576 L1662.5 72.576 L1662.5 45.4349 Q1662.5 38.994 1659.99 35.7938 Q1657.48 32.5936 1652.45 32.5936 Q1646.42 32.5936 1642.93 36.4419 Q1639.45 40.2903 1639.45 46.9338 L1639.45 72.576 L1631.96 72.576 L1631.96 9.54393 L1639.45 9.54393 L1639.45 34.2544 Q1642.12 30.163 1645.73 28.1376 Q1649.38 26.1121 1654.12 26.1121 Q1661.93 26.1121 1665.94 30.9732 Q1669.95 35.7938 1669.95 45.1919 Z" fill="#000000" fill-rule="nonzero" fill-opacity="1" /><path clip-path="url(#clip600)" d="M1728.77 32.4315 Q1722.78 32.4315 1719.29 37.1306 Q1715.81 41.7891 1715.81 49.9314 Q1715.81 58.0738 1719.25 62.7728 Q1722.74 67.4314 1728.77 67.4314 Q1734.73 67.4314 1738.21 62.7323 Q1741.7 58.0333 1741.7 49.9314 Q1741.7 41.8701 1738.21 37.1711 Q1734.73 32.4315 1728.77 32.4315 M1728.77 26.1121 Q1738.5 26.1121 1744.05 32.4315 Q1749.6 38.7509 1749.6 49.9314 Q1749.6 61.0714 1744.05 67.4314 Q1738.5 73.7508 1728.77 73.7508 Q1719.01 73.7508 1713.46 67.4314 Q1707.95 61.0714 1707.95 49.9314 Q1707.95 38.7509 1713.46 32.4315 Q1719.01 26.1121 1728.77 26.1121 Z" fill="#000000" fill-rule="nonzero" fill-opacity="1" /><path clip-path="url(#clip600)" d="M1799.66 45.1919 L1799.66 72.576 L1792.21 72.576 L1792.21 45.4349 Q1792.21 38.994 1789.7 35.7938 Q1787.19 32.5936 1782.16 32.5936 Q1776.13 32.5936 1772.64 36.4419 Q1769.16 40.2903 1769.16 46.9338 L1769.16 72.576 L1761.67 72.576 L1761.67 27.2059 L1769.16 27.2059 L1769.16 34.2544 Q1771.83 30.163 1775.44 28.1376 Q1779.09 26.1121 1783.83 26.1121 Q1791.64 26.1121 1795.65 30.9732 Q1799.66 35.7938 1799.66 45.1919 Z" fill="#000000" fill-rule="nonzero" fill-opacity="1" /><path clip-path="url(#clip600)" d="M1840.9 9.54393 L1848.36 9.54393 L1848.36 72.576 L1840.9 72.576 L1840.9 9.54393 Z" fill="#000000" fill-rule="nonzero" fill-opacity="1" /><path clip-path="url(#clip600)" d="M1863.95 27.2059 L1871.41 27.2059 L1871.41 72.576 L1863.95 72.576 L1863.95 27.2059 M1863.95 9.54393 L1871.41 9.54393 L1871.41 18.9825 L1863.95 18.9825 L1863.95 9.54393 Z" fill="#000000" fill-rule="nonzero" fill-opacity="1" /><path clip-path="url(#clip600)" d="M1924.72 45.1919 L1924.72 72.576 L1917.26 72.576 L1917.26 45.4349 Q1917.26 38.994 1914.75 35.7938 Q1912.24 32.5936 1907.22 32.5936 Q1901.18 32.5936 1897.7 36.4419 Q1894.21 40.2903 1894.21 46.9338 L1894.21 72.576 L1886.72 72.576 L1886.72 27.2059 L1894.21 27.2059 L1894.21 34.2544 Q1896.89 30.163 1900.49 28.1376 Q1904.14 26.1121 1908.88 26.1121 Q1916.7 26.1121 1920.71 30.9732 Q1924.72 35.7938 1924.72 45.1919 Z" fill="#000000" fill-rule="nonzero" fill-opacity="1" /><path clip-path="url(#clip600)" d="M1939.3 9.54393 L1946.79 9.54393 L1946.79 46.7717 L1969.03 27.2059 L1978.55 27.2059 L1954.49 48.4326 L1979.57 72.576 L1969.84 72.576 L1946.79 50.4176 L1946.79 72.576 L1939.3 72.576 L1939.3 9.54393 Z" fill="#000000" fill-rule="nonzero" fill-opacity="1" /><path clip-path="url(#clip600)" d="M2042.92 28.5427 L2042.92 35.5912 Q2039.76 33.9709 2036.36 33.1607 Q2032.96 32.3505 2029.31 32.3505 Q2023.76 32.3505 2020.97 34.0519 Q2018.21 35.7533 2018.21 39.156 Q2018.21 41.7486 2020.2 43.2475 Q2022.18 44.7058 2028.18 46.0426 L2030.73 46.6097 Q2038.67 48.3111 2041.99 51.4303 Q2045.35 54.509 2045.35 60.0587 Q2045.35 66.3781 2040.33 70.0644 Q2035.35 73.7508 2026.6 73.7508 Q2022.95 73.7508 2018.98 73.0216 Q2015.05 72.3329 2010.68 70.9151 L2010.68 63.2184 Q2014.81 65.3654 2018.82 66.4591 Q2022.83 67.5124 2026.76 67.5124 Q2032.02 67.5124 2034.86 65.73 Q2037.7 63.9071 2037.7 60.6258 Q2037.7 57.5877 2035.63 55.9673 Q2033.6 54.3469 2026.68 52.8481 L2024.08 52.2405 Q2017.16 50.7821 2014.08 47.7845 Q2011 44.7463 2011 39.4801 Q2011 33.0797 2015.54 29.5959 Q2020.07 26.1121 2028.42 26.1121 Q2032.55 26.1121 2036.2 26.7198 Q2039.84 27.3274 2042.92 28.5427 Z" fill="#000000" fill-rule="nonzero" fill-opacity="1" /><path clip-path="url(#clip600)" d="M2089.87 28.9478 L2089.87 35.9153 Q2086.71 34.1734 2083.51 33.3227 Q2080.35 32.4315 2077.11 32.4315 Q2069.86 32.4315 2065.85 37.0496 Q2061.84 41.6271 2061.84 49.9314 Q2061.84 58.2358 2065.85 62.8538 Q2069.86 67.4314 2077.11 67.4314 Q2080.35 67.4314 2083.51 66.5807 Q2086.71 65.6895 2089.87 63.9476 L2089.87 70.8341 Q2086.75 72.2924 2083.39 73.0216 Q2080.07 73.7508 2076.3 73.7508 Q2066.05 73.7508 2060.02 67.3098 Q2053.98 60.8689 2053.98 49.9314 Q2053.98 38.832 2060.06 32.472 Q2066.17 26.1121 2076.79 26.1121 Q2080.23 26.1121 2083.51 26.8413 Q2086.79 27.5299 2089.87 28.9478 Z" fill="#000000" fill-rule="nonzero" fill-opacity="1" /><path clip-path="url(#clip600)" d="M2123.45 49.7694 Q2114.42 49.7694 2110.94 51.8354 Q2107.45 53.9013 2107.45 58.8839 Q2107.45 62.8538 2110.04 65.2034 Q2112.68 67.5124 2117.17 67.5124 Q2123.37 67.5124 2127.1 63.1374 Q2130.87 58.7219 2130.87 51.4303 L2130.87 49.7694 L2123.45 49.7694 M2138.32 46.6907 L2138.32 72.576 L2130.87 72.576 L2130.87 65.6895 Q2128.31 69.8214 2124.51 71.8063 Q2120.7 73.7508 2115.19 73.7508 Q2108.22 73.7508 2104.09 69.8619 Q2100 65.9325 2100 59.3701 Q2100 51.7138 2105.1 47.825 Q2110.25 43.9361 2120.42 43.9361 L2130.87 43.9361 L2130.87 43.2069 Q2130.87 38.0623 2127.46 35.2672 Q2124.1 32.4315 2117.98 32.4315 Q2114.1 32.4315 2110.41 33.3632 Q2106.72 34.295 2103.32 36.1584 L2103.32 29.2718 Q2107.41 27.692 2111.26 26.9223 Q2115.11 26.1121 2118.75 26.1121 Q2128.6 26.1121 2133.46 31.2163 Q2138.32 36.3204 2138.32 46.6907 Z" fill="#000000" fill-rule="nonzero" fill-opacity="1" /><path clip-path="url(#clip600)" d="M2153.67 9.54393 L2161.13 9.54393 L2161.13 72.576 L2153.67 72.576 L2153.67 9.54393 Z" fill="#000000" fill-rule="nonzero" fill-opacity="1" /><path clip-path="url(#clip600)" d="M2215.53 48.0275 L2215.53 51.6733 L2181.26 51.6733 Q2181.75 59.3701 2185.88 63.421 Q2190.05 67.4314 2197.46 67.4314 Q2201.76 67.4314 2205.77 66.3781 Q2209.82 65.3249 2213.79 63.2184 L2213.79 70.267 Q2209.78 71.9684 2205.57 72.8596 Q2201.35 73.7508 2197.02 73.7508 Q2186.16 73.7508 2179.8 67.4314 Q2173.48 61.1119 2173.48 50.3365 Q2173.48 39.1965 2179.48 32.6746 Q2185.51 26.1121 2195.72 26.1121 Q2204.88 26.1121 2210.18 32.0264 Q2215.53 37.9003 2215.53 48.0275 M2208.08 45.84 Q2208 39.7232 2204.63 36.0774 Q2201.31 32.4315 2195.8 32.4315 Q2189.56 32.4315 2185.8 35.9558 Q2182.07 39.4801 2181.5 45.8805 L2208.08 45.84 Z" fill="#000000" fill-rule="nonzero" fill-opacity="1" /><path clip-path="url(#clip601)" d="M330.76 1139.92 L342.03 1111.22 L353.3 1083.08 L364.57 1055.63 L375.839 1029.03 L387.109 1003.41 L398.379 978.871 L409.649 955.517 L420.919 933.404 L432.189 912.55 L443.459 892.934 L454.729 874.495 L465.999 857.144 L477.269 840.771 L488.539 825.262 L499.809 810.51 L511.079 796.436 L522.348 783.007 L533.618 770.224 L544.888 758.106 L556.158 746.674 L567.428 735.947 L578.698 725.929 L589.968 716.606 L601.238 707.939 L612.508 699.864 L623.778 692.299 L635.048 685.141 L646.318 678.282 L657.588 671.611 L668.857 665.03 L680.127 658.501 L691.397 652.098 L702.667 645.918 L713.937 640.064 L725.207 634.627 L736.477 629.678 L747.747 625.263 L759.017 621.394 L770.287 618.051 L781.557 615.184 L792.827 612.719 L804.097 610.571 L815.366 608.654 L826.636 606.892 L837.906 605.257 L849.176 603.821 L860.446 602.698 L871.716 601.991 L882.986 601.777 L894.256 602.097 L905.526 602.943 L916.796 604.265 L928.066 605.972 L939.336 607.953 L950.606 610.095 L961.875 612.31 L973.145 614.624 L984.415 617.136 L995.685 619.938 L1006.96 623.082 L1018.23 626.57 L1029.49 630.34 L1040.76 634.277 L1052.03 638.224 L1063.3 642.006 L1074.57 645.537 L1085.84 648.876 L1097.11 652.12 L1108.38 655.38 L1119.65 658.765 L1130.92 662.372 L1142.19 666.27 L1153.46 670.501 L1164.73 675.075 L1176 679.969 L1187.27 685.14 L1198.54 690.533 L1209.81 696.098 L1221.08 701.801 L1232.35 707.677 L1243.62 713.882 L1254.89 720.588 L1266.16 727.932 L1277.43 735.991 L1288.7 744.778 L1299.97 754.24 L1311.24 764.276 L1322.51 774.763 L1333.78 785.616 L1345.05 796.841 L1356.32 808.484 L1367.59 820.602 L1378.86 833.251 L1390.13 846.467 L1401.4 860.259 L1412.67 874.602 L1423.94 889.437 L1435.21 904.67 L1446.48 920.185 L1457.75 935.846 L1469.02 951.515 L1480.29 967.069 L1491.56 982.472 L1502.83 997.726 L1514.1 1012.85 L1525.37 1027.88 L1536.64 1042.84 L1547.91 1057.75 L1559.18 1072.64 L1570.45 1087.51 L1581.72 1102.35 L1592.99 1117.1 L1604.26 1131.72 L1615.53 1146.12 L1626.8 1160.2 L1638.07 1173.86 L1649.34 1186.97 L1660.61 1199.42 L1671.88 1211.1 L1683.15 1221.9 L1694.42 1231.86 L1705.69 1241.09 L1716.96 1249.72 L1728.23 1257.88 L1739.5 1265.69 L1750.77 1273.23 L1762.04 1280.6 L1773.31 1287.85 L1784.58 1294.99 L1795.85 1302.03 L1807.12 1308.95 L1818.39 1315.7 L1829.66 1322.24 L1840.93 1328.52 L1852.2 1334.49 L1863.47 1340.12 L1874.74 1345.45 L1886.01 1350.51 L1897.28 1355.36 L1908.55 1360.07 L1919.82 1364.69 L1931.09 1369.27 L1942.36 1373.85 L1953.63 1378.43 L1964.9 1382.99 L1976.17 1387.52 L1987.44 1391.95 L1998.71 1396.2 L2009.98 1400.18 L2021.25 1403.79 L2032.52 1406.92 L2043.79 1409.47 L2055.06 1411.35 L2066.33 1412.51 L2077.6 1413 L2088.87 1412.86 L2100.14 1412.14 L2111.41 1410.91 L2122.68 1409.22 L2133.95 1407.13 L2145.22 1404.66 L2156.49 1401.86 L2167.76 1398.73 L2179.03 1395.25 L2190.3 1391.42 L2201.57 1387.18 L2212.84 1382.49 L2224.11 1377.26 L2235.38 1371.43 L2246.65 1364.92 L2257.92 1357.65 L2269.19 1349.55 L2280.46 1340.54 L2291.73 1330.62 L2303 1319.84 L2314.27 1308.34 L2325.54 1296.23 L2336.81 1283.66 L2348.08 1270.75 L2359.35 1257.63 L2370.62 1244.39 L2381.89 1231.13 L2393.16 1217.94 L2404.43 1204.88 L2415.7 1192.02 L2426.97 1179.42 L2438.24 1167.15 L2449.51 1155.3 L2460.78 1143.98 L2472.05 1133.36 L2483.32 1123.62 L2494.59 1114.94 L2505.85 1107.42 L2517.12 1101.12 L2528.39 1096.01 L2539.66 1092.01 L2550.93 1089.01 L2562.2 1086.85 L2573.47 1085.36 L2573.47 736.208 L2562.2 761.446 L2550.93 786.012 L2539.66 809.744 L2528.39 832.496 L2517.12 854.148 L2505.85 874.625 L2494.59 893.909 L2483.32 912.052 L2472.05 929.171 L2460.78 945.44 L2449.51 961.032 L2438.24 976.033 L2426.97 990.486 L2415.7 1004.4 L2404.43 1017.78 L2393.16 1030.6 L2381.89 1042.85 L2370.62 1054.53 L2359.35 1065.63 L2348.08 1076.18 L2336.81 1086.2 L2325.54 1095.74 L2314.27 1104.86 L2303 1113.6 L2291.73 1122.02 L2280.46 1130.17 L2269.19 1138.06 L2257.92 1145.68 L2246.65 1152.98 L2235.38 1159.91 L2224.11 1166.41 L2212.84 1172.41 L2201.57 1177.86 L2190.3 1182.72 L2179.03 1186.93 L2167.76 1190.48 L2156.49 1193.36 L2145.22 1195.59 L2133.95 1197.19 L2122.68 1198.2 L2111.41 1198.68 L2100.14 1198.71 L2088.87 1198.36 L2077.6 1197.7 L2066.33 1196.81 L2055.06 1195.76 L2043.79 1194.59 L2032.52 1193.3 L2021.25 1191.85 L2009.98 1190.17 L1998.71 1188.19 L1987.44 1185.86 L1976.17 1183.12 L1964.9 1179.95 L1953.63 1176.33 L1942.36 1172.26 L1931.09 1167.78 L1919.82 1162.95 L1908.55 1157.83 L1897.28 1152.52 L1886.01 1147.11 L1874.74 1141.72 L1863.47 1136.43 L1852.2 1131.35 L1840.93 1126.51 L1829.66 1121.81 L1818.39 1117.13 L1807.12 1112.34 L1795.85 1107.31 L1784.58 1101.92 L1773.31 1096.06 L1762.04 1089.66 L1750.77 1082.64 L1739.5 1075 L1728.23 1066.72 L1716.96 1057.82 L1705.69 1048.34 L1694.42 1038.33 L1683.15 1027.83 L1671.88 1016.88 L1660.61 1005.5 L1649.34 993.698 L1638.07 981.454 L1626.8 968.746 L1615.53 955.554 L1604.26 941.864 L1592.99 927.674 L1581.72 913 L1570.45 897.879 L1559.18 882.37 L1547.91 866.552 L1536.64 850.525 L1525.37 834.402 L1514.1 818.308 L1502.83 802.371 L1491.56 786.716 L1480.29 771.46 L1469.02 756.704 L1457.75 742.498 L1446.48 728.778 L1435.21 715.455 L1423.94 702.446 L1412.67 689.684 L1401.4 677.127 L1390.13 664.767 L1378.86 652.628 L1367.59 640.771 L1356.32 629.283 L1345.05 618.27 L1333.78 607.84 L1322.51 598.091 L1311.24 589.071 L1299.97 580.679 L1288.7 572.736 L1277.43 565.089 L1266.16 557.633 L1254.89 550.325 L1243.62 543.192 L1232.35 536.316 L1221.08 529.815 L1209.81 523.796 L1198.54 518.246 L1187.27 513.093 L1176 508.243 L1164.73 503.598 L1153.46 499.073 L1142.19 494.605 L1130.92 490.16 L1119.65 485.737 L1108.38 481.365 L1097.11 477.098 L1085.84 473.003 L1074.57 469.148 L1063.3 465.59 L1052.03 462.347 L1040.76 459.345 L1029.49 456.457 L1018.23 453.573 L1006.96 450.624 L995.685 447.599 L984.415 444.544 L973.145 441.563 L961.875 438.792 L950.606 436.378 L939.336 434.387 L928.066 432.758 L916.796 431.402 L905.526 430.233 L894.256 429.188 L882.986 428.241 L871.716 427.41 L860.446 426.761 L849.176 426.397 L837.906 426.448 L826.636 427.05 L815.366 428.296 L804.097 430.147 L792.827 432.516 L781.557 435.301 L770.287 438.405 L759.017 441.74 L747.747 445.243 L736.477 448.881 L725.207 452.652 L713.937 456.588 L702.667 460.748 L691.397 465.209 L680.127 470.06 L668.857 475.386 L657.588 481.251 L646.318 487.649 L635.048 494.53 L623.778 501.833 L612.508 509.496 L601.238 517.469 L589.968 525.715 L578.698 534.22 L567.428 542.995 L556.158 552.074 L544.888 561.509 L533.618 571.368 L522.348 581.723 L511.079 592.639 L499.809 604.167 L488.539 616.29 L477.269 628.856 L465.999 641.675 L454.729 654.546 L443.459 667.273 L432.189 679.681 L420.919 691.623 L409.649 702.993 L398.379 713.723 L387.109 723.787 L375.839 733.188 L364.57 741.957 L353.3 750.141 L342.03 757.797 L330.76 764.99  Z" fill="#009af9" fill-rule="evenodd" fill-opacity="0.2"/>
<polyline clip-path="url(#clip601)" style="stroke:#009af9; stroke-linecap:round; stroke-linejoin:round; stroke-width:8; stroke-opacity:1; fill:none" points="330.76,952.453 342.03,934.51 353.3,916.61 364.57,898.796 375.839,881.11 387.109,863.596 398.379,846.297 409.649,829.255 420.919,812.514 432.189,796.116 443.459,780.104 454.729,764.521 465.999,749.41 477.269,734.814 488.539,720.776 499.809,707.338 511.079,694.537 522.348,682.365 533.618,670.796 544.888,659.807 556.158,649.374 567.428,639.471 578.698,630.075 589.968,621.16 601.238,612.704 612.508,604.68 623.778,597.066 635.048,589.836 646.318,582.965 657.588,576.431 668.857,570.208 680.127,564.281 691.397,558.653 702.667,553.333 713.937,548.326 725.207,543.639 736.477,539.279 747.747,535.253 759.017,531.567 770.287,528.228 781.557,525.242 792.827,522.617 804.097,520.359 815.366,518.475 826.636,516.971 837.906,515.852 849.176,515.109 860.446,514.73 871.716,514.7 882.986,515.009 894.256,515.643 905.526,516.588 916.796,517.833 928.066,519.365 939.336,521.17 950.606,523.237 961.875,525.551 973.145,528.093 984.415,530.84 995.685,533.768 1006.96,536.853 1018.23,540.071 1029.49,543.398 1040.76,546.811 1052.03,550.285 1063.3,553.798 1074.57,557.343 1085.84,560.94 1097.11,564.609 1108.38,568.373 1119.65,572.251 1130.92,576.266 1142.19,580.437 1153.46,584.787 1164.73,589.336 1176,594.106 1187.27,599.117 1198.54,604.39 1209.81,609.947 1221.08,615.808 1232.35,621.996 1243.62,628.537 1254.89,635.457 1266.16,642.782 1277.43,650.54 1288.7,658.757 1299.97,667.459 1311.24,676.674 1322.51,686.427 1333.78,696.728 1345.05,707.556 1356.32,718.883 1367.59,730.687 1378.86,742.939 1390.13,755.617 1401.4,768.693 1412.67,782.143 1423.94,795.941 1435.21,810.063 1446.48,824.481 1457.75,839.172 1469.02,854.109 1480.29,869.265 1491.56,884.594 1502.83,900.049 1514.1,915.58 1525.37,931.14 1536.64,946.68 1547.91,962.152 1559.18,977.507 1570.45,992.697 1581.72,1007.67 1592.99,1022.39 1604.26,1036.79 1615.53,1050.84 1626.8,1064.47 1638.07,1077.66 1649.34,1090.34 1660.61,1102.46 1671.88,1113.99 1683.15,1124.86 1694.42,1135.09 1705.69,1144.72 1716.96,1153.77 1728.23,1162.3 1739.5,1170.34 1750.77,1177.94 1762.04,1185.13 1773.31,1191.95 1784.58,1198.46 1795.85,1204.67 1807.12,1210.65 1818.39,1216.42 1829.66,1222.03 1840.93,1227.51 1852.2,1232.92 1863.47,1238.28 1874.74,1243.58 1886.01,1248.81 1897.28,1253.94 1908.55,1258.95 1919.82,1263.82 1931.09,1268.53 1942.36,1273.06 1953.63,1277.38 1964.9,1281.47 1976.17,1285.32 1987.44,1288.9 1998.71,1292.19 2009.98,1295.17 2021.25,1297.82 2032.52,1300.11 2043.79,1302.03 2055.06,1303.55 2066.33,1304.66 2077.6,1305.35 2088.87,1305.61 2100.14,1305.43 2111.41,1304.8 2122.68,1303.71 2133.95,1302.16 2145.22,1300.13 2156.49,1297.61 2167.76,1294.6 2179.03,1291.09 2190.3,1287.07 2201.57,1282.52 2212.84,1277.45 2224.11,1271.84 2235.38,1265.67 2246.65,1258.95 2257.92,1251.67 2269.19,1243.8 2280.46,1235.36 2291.73,1226.32 2303,1216.72 2314.27,1206.6 2325.54,1195.99 2336.81,1184.93 2348.08,1173.46 2359.35,1161.63 2370.62,1149.46 2381.89,1136.99 2393.16,1124.27 2404.43,1111.33 2415.7,1098.21 2426.97,1084.95 2438.24,1071.59 2449.51,1058.16 2460.78,1044.71 2472.05,1031.27 2483.32,1017.84 2494.59,1004.42 2505.85,991.022 2517.12,977.633 2528.39,964.252 2539.66,950.879 2550.93,937.512 2562.2,924.148 2573.47,910.786 "/>
<polyline clip-path="url(#clip601)" style="stroke:#ff0000; stroke-linecap:round; stroke-linejoin:round; stroke-width:8; stroke-opacity:1; fill:none" stroke-dasharray="32, 20" points="330.76,930.277 331.872,927.919 339.921,910.858 344.153,901.891 357.329,874.003 357.874,872.851 359.262,869.918 387.109,811.319 402.752,778.697 419.021,745.079 422.551,737.833 428.624,725.412 434.316,713.824 452.994,676.199 454.999,672.2 455.297,671.606 458.207,665.819 462.763,656.791 473.986,634.75 478.731,625.516 490.471,602.908 500.689,583.516 502.526,580.061 511.953,562.471 531.196,527.374 536.619,517.691 543.785,505.041 575.467,451.232 581.168,441.938 581.373,441.605 589.389,428.755 591.312,425.708 610.897,395.538 613.754,391.269 627.547,371.148 637.925,356.558 645.219,346.593 652.559,336.809 653.43,335.666 662.759,323.631 665.077,320.705 665.485,320.194 666.054,319.479 666.67,318.71 672.488,311.523 689.241,291.753 707.393,271.918 717.477,261.629 717.892,261.217 723.389,255.844 726.467,252.906 733.478,246.4 737.199,243.055 742.21,238.667 749.943,232.163 750.211,231.943 755.514,227.68 765.146,220.332 781.814,208.839 783.647,207.671 790.133,203.69 805.036,195.45 820.72,188.16 824.214,186.73 827.535,185.437 829.033,184.875 829.969,184.531 853.12,177.641 866.588,175.085 868.39,174.825 870.621,174.529 877.011,173.844 877.62,173.791 880.346,173.583 884.632,173.343 896.645,173.254 897.221,173.271 904.194,173.636 906.971,173.861 916.077,174.921 929.018,177.271 930.78,177.668 931.548,177.846 940.64,180.224 945.619,181.732 951.336,183.643 959.517,186.709 965.713,189.291 968.179,190.381 973.961,193.074 978.735,195.444 986.459,199.555 991.789,202.591 997.166,205.818 999.623,207.347 1004.69,210.608 1005.07,210.857 1010.47,214.507 1013.06,216.313 1016.26,218.596 1023.37,223.877 1034.66,232.837 1036.63,234.47 1042.61,239.563 1050.37,246.462 1055.43,251.131 1058.77,254.283 1059.17,254.674 1083.42,279.4 1092.54,289.483 1116.94,318.492 1117.78,319.537 1120.67,323.188 1133.14,339.341 1135.8,342.874 1137.39,345.011 1155.26,369.759 1166.82,386.519 1166.84,386.541 1168.23,388.599 1172.01,394.226 1172.65,395.188 1186.5,416.344 1188.94,420.156 1198.55,435.392 1204.04,444.247 1205.35,446.377 1205.59,446.768 1220.87,472.118 1220.93,472.219 1224.17,477.714 1237.5,500.674 1242.74,509.866 1243.76,511.658 1243.83,511.778 1255.44,532.5 1255.8,533.149 1264.86,549.636 1264.93,549.759 1275.07,568.493 1275.53,569.348 1284.2,585.607 1286.36,589.682 1297.41,610.752 1302.47,620.516 1304.39,624.228 1307.98,631.2 1308,631.255 1311.42,637.917 1314.65,644.238 1324.24,663.174 1328.01,670.654 1329.31,673.254 1329.78,674.185 1334.73,684.084 1339.28,693.215 1340.47,695.612 1377.73,771.847 1383.2,783.199 1391.96,801.452 1406.22,831.345 1418.08,856.318 1422.82,866.313 1424.29,869.432 1425.62,872.231 1439.26,901.106 1450.65,925.244 1453.62,931.545 1458.37,941.603 1460.95,947.074 1463.81,953.135 1470.4,967.093 1499.48,1028.5 1503.37,1036.66 1505.68,1041.51 1534.84,1102.24 1551.16,1135.74 1551.21,1135.84 1565.7,1165.25 1573.11,1180.13 1578.94,1191.77 1593.72,1220.96 1601.99,1237.08 1616.69,1265.32 1621.54,1274.52 1625.49,1281.96 1634.71,1299.16 1639.46,1307.92 1642.11,1312.79 1665.58,1354.91 1668.57,1360.15 1670.07,1362.76 1676.45,1373.81 1678.6,1377.51 1683.53,1385.9 1688.37,1394.06 1698.07,1410.17 1703.42,1418.9 1703.54,1419.09 1712.22,1433.03 1712.99,1434.25 1713.04,1434.32 1714.55,1436.71 1732.12,1463.82 1757.38,1500.53 1770.66,1518.7 1770.66,1518.7 1808.14,1565.53 1814.26,1572.52 1816.69,1575.25 1823.24,1582.45 1839.27,1599.14 1848.06,1607.73 1851.87,1611.31 1854.76,1613.99 1860.15,1618.86 1861.02,1619.63 1872.45,1629.38 1883.9,1638.43 1906.97,1654.45 1913.8,1658.63 1915.52,1659.63 1929.35,1667.12 1936.31,1670.48 1941.32,1672.71 1952.67,1677.25 1985.59,1686.13 1986.59,1686.3 1987.6,1686.47 1993.07,1687.26 1998.92,1687.91 1999.98,1688.01 2014.01,1688.65 2024.81,1688.36 2043.17,1686.27 2050.2,1684.94 2056.46,1683.51 2066.52,1680.73 2102.43,1665.98 2130.92,1648.99 2142.81,1640.55 2147.38,1637.1 2163.58,1623.92 2163.88,1623.66 2172.63,1615.94 2176.8,1612.11 2186.87,1602.5 2199.31,1589.87 2209.18,1579.29 2213.87,1574.1 2221.35,1565.57 2227.18,1558.74 2227.58,1558.26 2242.6,1539.85 2251.41,1528.55 2260.57,1516.42 2278.6,1491.43 2291.07,1473.29 2304.21,1453.48 2312.52,1440.57 2317.09,1433.37 2317.59,1432.58 2356.4,1368.08 2359.86,1362.07 2376.43,1332.73 2377,1331.7 2402.22,1285.36 2403.41,1283.13 2408.56,1273.44 2420.55,1250.56 2423.8,1244.31 2430.66,1231.01 2431.39,1229.6 2437.22,1218.2 2438.26,1216.15 2442.88,1207.05 2458.2,1176.56 2462.45,1168.02 2462.64,1167.65 2465.27,1162.34 2468.97,1154.86 2474.38,1143.87 2476.52,1139.52 2479.65,1133.13 2480.44,1131.51 2484.21,1123.81 2487.99,1116.03 2488.74,1114.5 2489.59,1112.75 2490.78,1110.3 2504.91,1081.06 2511.09,1068.2 2511.51,1067.31 2517.21,1055.42 2532.22,1023.92 2534.28,1019.59 2561.21,962.698 2565.23,954.167 2567.25,949.901 2573.47,936.701 "/>
<path clip-path="url(#clip600)" d="M2079.57 336.856 L2561.51 336.856 L2561.51 181.336 L2079.57 181.336  Z" fill="#ffffff" fill-rule="evenodd" fill-opacity="1"/>
<polyline clip-path="url(#clip600)" style="stroke:#000000; stroke-linecap:round; stroke-linejoin:round; stroke-width:4; stroke-opacity:1; fill:none" points="2079.57,336.856 2561.51,336.856 2561.51,181.336 2079.57,181.336 2079.57,336.856 "/>
<polyline clip-path="url(#clip600)" style="stroke:#009af9; stroke-linecap:round; stroke-linejoin:round; stroke-width:8; stroke-opacity:1; fill:none" points="2105.99,233.176 2264.47,233.176 "/>
<path clip-path="url(#clip600)" d="M2309.31 225.294 L2309.31 229.322 Q2307.51 228.396 2305.56 227.933 Q2303.62 227.47 2301.54 227.47 Q2298.36 227.47 2296.77 228.443 Q2295.19 229.415 2295.19 231.359 Q2295.19 232.841 2296.33 233.697 Q2297.46 234.53 2300.89 235.294 L2302.35 235.618 Q2306.88 236.591 2308.78 238.373 Q2310.7 240.132 2310.7 243.304 Q2310.7 246.915 2307.83 249.021 Q2304.98 251.128 2299.98 251.128 Q2297.9 251.128 2295.63 250.711 Q2293.39 250.317 2290.89 249.507 L2290.89 245.109 Q2293.25 246.336 2295.54 246.961 Q2297.83 247.563 2300.08 247.563 Q2303.09 247.563 2304.71 246.544 Q2306.33 245.503 2306.33 243.628 Q2306.33 241.892 2305.15 240.966 Q2303.99 240.04 2300.03 239.183 L2298.55 238.836 Q2294.59 238.003 2292.83 236.29 Q2291.07 234.554 2291.07 231.544 Q2291.07 227.887 2293.67 225.896 Q2296.26 223.906 2301.03 223.906 Q2303.39 223.906 2305.47 224.253 Q2307.55 224.6 2309.31 225.294 Z" fill="#000000" fill-rule="nonzero" fill-opacity="1" /><path clip-path="url(#clip600)" d="M2327.72 214.484 Q2324.61 219.808 2323.11 225.017 Q2321.6 230.225 2321.6 235.572 Q2321.6 240.919 2323.11 246.174 Q2324.64 251.405 2327.72 256.706 L2324.01 256.706 Q2320.54 251.266 2318.8 246.012 Q2317.09 240.757 2317.09 235.572 Q2317.09 230.41 2318.8 225.179 Q2320.52 219.947 2324.01 214.484 L2327.72 214.484 Z" fill="#000000" fill-rule="nonzero" fill-opacity="1" /><path clip-path="url(#clip600)" d="M2357.53 224.531 L2348.16 237.146 L2358.02 250.456 L2352.99 250.456 L2345.45 240.271 L2337.9 250.456 L2332.88 250.456 L2342.95 236.892 L2333.73 224.531 L2338.76 224.531 L2345.63 233.767 L2352.51 224.531 L2357.53 224.531 Z" fill="#000000" fill-rule="nonzero" fill-opacity="1" /><path clip-path="url(#clip600)" d="M2363.36 214.484 L2367.07 214.484 Q2370.54 219.947 2372.25 225.179 Q2373.99 230.41 2373.99 235.572 Q2373.99 240.757 2372.25 246.012 Q2370.54 251.266 2367.07 256.706 L2363.36 256.706 Q2366.44 251.405 2367.95 246.174 Q2369.48 240.919 2369.48 235.572 Q2369.48 230.225 2367.95 225.017 Q2366.44 219.808 2363.36 214.484 Z" fill="#000000" fill-rule="nonzero" fill-opacity="1" /><path clip-path="url(#clip600)" d="M2414.94 220.734 L2414.94 229.693 L2427.83 229.693 L2427.83 233.628 L2414.94 233.628 L2414.94 242.586 L2411.05 242.586 L2411.05 233.628 L2398.16 233.628 L2398.16 229.693 L2411.05 229.693 L2411.05 220.734 L2414.94 220.734 M2398.16 246.521 L2427.83 246.521 L2427.83 250.456 L2398.16 250.456 L2398.16 246.521 Z" fill="#000000" fill-rule="nonzero" fill-opacity="1" /><path clip-path="url(#clip600)" d="M2457.02 246.521 L2473.34 246.521 L2473.34 250.456 L2451.4 250.456 L2451.4 246.521 Q2454.06 243.767 2458.64 239.137 Q2463.25 234.484 2464.43 233.142 Q2466.67 230.618 2467.55 228.882 Q2468.46 227.123 2468.46 225.433 Q2468.46 222.679 2466.51 220.943 Q2464.59 219.206 2461.49 219.206 Q2459.29 219.206 2456.84 219.97 Q2454.41 220.734 2451.63 222.285 L2451.63 217.563 Q2454.45 216.429 2456.91 215.85 Q2459.36 215.271 2461.4 215.271 Q2466.77 215.271 2469.96 217.956 Q2473.16 220.642 2473.16 225.132 Q2473.16 227.262 2472.34 229.183 Q2471.56 231.081 2469.45 233.674 Q2468.87 234.345 2465.77 237.563 Q2462.67 240.757 2457.02 246.521 Z" fill="#000000" fill-rule="nonzero" fill-opacity="1" /><path clip-path="url(#clip600)" d="M2503.46 217.031 L2503.46 221.591 Q2500.79 220.318 2498.43 219.693 Q2496.07 219.068 2493.87 219.068 Q2490.05 219.068 2487.97 220.549 Q2485.91 222.031 2485.91 224.762 Q2485.91 227.054 2487.28 228.234 Q2488.66 229.392 2492.51 230.109 L2495.33 230.688 Q2500.56 231.683 2503.04 234.206 Q2505.54 236.706 2505.54 240.919 Q2505.54 245.942 2502.16 248.535 Q2498.8 251.128 2492.3 251.128 Q2489.84 251.128 2487.07 250.572 Q2484.31 250.016 2481.35 248.929 L2481.35 244.114 Q2484.2 245.711 2486.93 246.521 Q2489.66 247.331 2492.3 247.331 Q2496.3 247.331 2498.48 245.757 Q2500.65 244.183 2500.65 241.267 Q2500.65 238.72 2499.08 237.285 Q2497.53 235.85 2493.97 235.132 L2491.12 234.577 Q2485.89 233.535 2483.55 231.313 Q2481.21 229.091 2481.21 225.132 Q2481.21 220.549 2484.43 217.91 Q2487.67 215.271 2493.34 215.271 Q2495.77 215.271 2498.29 215.711 Q2500.82 216.151 2503.46 217.031 Z" fill="#000000" fill-rule="nonzero" fill-opacity="1" /><path clip-path="url(#clip600)" d="M2512.83 215.896 L2534.68 215.896 L2534.68 219.831 L2517.51 219.831 L2517.51 230.063 L2533.96 230.063 L2533.96 233.998 L2517.51 233.998 L2517.51 246.521 L2535.1 246.521 L2535.1 250.456 L2512.83 250.456 L2512.83 215.896 Z" fill="#000000" fill-rule="nonzero" fill-opacity="1" /><polyline clip-path="url(#clip600)" style="stroke:#ff0000; stroke-linecap:round; stroke-linejoin:round; stroke-width:8; stroke-opacity:1; fill:none" stroke-dasharray="32, 20" points="2105.99,285.016 2264.47,285.016 "/>
<path clip-path="url(#clip600)" d="M2298.29 269.009 L2298.29 276.371 L2307.07 276.371 L2307.07 279.681 L2298.29 279.681 L2298.29 293.755 Q2298.29 296.926 2299.15 297.829 Q2300.03 298.731 2302.69 298.731 L2307.07 298.731 L2307.07 302.296 L2302.69 302.296 Q2297.76 302.296 2295.89 300.468 Q2294.01 298.616 2294.01 293.755 L2294.01 279.681 L2290.89 279.681 L2290.89 276.371 L2294.01 276.371 L2294.01 269.009 L2298.29 269.009 Z" fill="#000000" fill-rule="nonzero" fill-opacity="1" /><path clip-path="url(#clip600)" d="M2327.69 280.352 Q2326.98 279.935 2326.12 279.75 Q2325.29 279.542 2324.27 279.542 Q2320.66 279.542 2318.71 281.903 Q2316.79 284.241 2316.79 288.639 L2316.79 302.296 L2312.51 302.296 L2312.51 276.371 L2316.79 276.371 L2316.79 280.398 Q2318.13 278.037 2320.29 276.903 Q2322.44 275.746 2325.52 275.746 Q2325.96 275.746 2326.49 275.815 Q2327.02 275.861 2327.67 275.977 L2327.69 280.352 Z" fill="#000000" fill-rule="nonzero" fill-opacity="1" /><path clip-path="url(#clip600)" d="M2331.72 292.065 L2331.72 276.371 L2335.98 276.371 L2335.98 291.903 Q2335.98 295.583 2337.41 297.435 Q2338.85 299.264 2341.72 299.264 Q2345.17 299.264 2347.16 297.065 Q2349.17 294.866 2349.17 291.069 L2349.17 276.371 L2353.43 276.371 L2353.43 302.296 L2349.17 302.296 L2349.17 298.315 Q2347.62 300.676 2345.56 301.833 Q2343.53 302.968 2340.82 302.968 Q2336.35 302.968 2334.04 300.19 Q2331.72 297.412 2331.72 292.065 M2342.44 275.746 L2342.44 275.746 Z" fill="#000000" fill-rule="nonzero" fill-opacity="1" /><path clip-path="url(#clip600)" d="M2384.38 288.269 L2384.38 290.352 L2364.8 290.352 Q2365.08 294.75 2367.44 297.065 Q2369.82 299.356 2374.06 299.356 Q2376.51 299.356 2378.8 298.755 Q2381.12 298.153 2383.39 296.949 L2383.39 300.977 Q2381.1 301.949 2378.69 302.458 Q2376.28 302.968 2373.8 302.968 Q2367.6 302.968 2363.97 299.356 Q2360.35 295.745 2360.35 289.588 Q2360.35 283.222 2363.78 279.495 Q2367.23 275.746 2373.06 275.746 Q2378.29 275.746 2381.33 279.125 Q2384.38 282.482 2384.38 288.269 M2380.12 287.019 Q2380.08 283.523 2378.16 281.44 Q2376.26 279.357 2373.11 279.357 Q2369.54 279.357 2367.39 281.37 Q2365.26 283.384 2364.94 287.042 L2380.12 287.019 Z" fill="#000000" fill-rule="nonzero" fill-opacity="1" /><path clip-path="url(#clip600)" d="M2419.57 266.278 L2419.57 269.82 L2415.49 269.82 Q2413.2 269.82 2412.3 270.746 Q2411.42 271.671 2411.42 274.079 L2411.42 276.371 L2418.43 276.371 L2418.43 279.681 L2411.42 279.681 L2411.42 302.296 L2407.14 302.296 L2407.14 279.681 L2403.06 279.681 L2403.06 276.371 L2407.14 276.371 L2407.14 274.565 Q2407.14 270.236 2409.15 268.269 Q2411.16 266.278 2415.54 266.278 L2419.57 266.278 Z" fill="#000000" fill-rule="nonzero" fill-opacity="1" /><path clip-path="url(#clip600)" d="M2433.36 266.324 Q2430.26 271.648 2428.76 276.857 Q2427.25 282.065 2427.25 287.412 Q2427.25 292.759 2428.76 298.014 Q2430.28 303.245 2433.36 308.546 L2429.66 308.546 Q2426.19 303.106 2424.45 297.852 Q2422.74 292.597 2422.74 287.412 Q2422.74 282.25 2424.45 277.019 Q2426.16 271.787 2429.66 266.324 L2433.36 266.324 Z" fill="#000000" fill-rule="nonzero" fill-opacity="1" /><path clip-path="url(#clip600)" d="M2463.18 276.371 L2453.8 288.986 L2463.66 302.296 L2458.64 302.296 L2451.09 292.111 L2443.55 302.296 L2438.53 302.296 L2448.59 288.732 L2439.38 276.371 L2444.41 276.371 L2451.28 285.607 L2458.16 276.371 L2463.18 276.371 Z" fill="#000000" fill-rule="nonzero" fill-opacity="1" /><path clip-path="url(#clip600)" d="M2469.01 266.324 L2472.72 266.324 Q2476.19 271.787 2477.9 277.019 Q2479.64 282.25 2479.64 287.412 Q2479.64 292.597 2477.9 297.852 Q2476.19 303.106 2472.72 308.546 L2469.01 308.546 Q2472.09 303.245 2473.59 298.014 Q2475.12 292.759 2475.12 287.412 Q2475.12 282.065 2473.59 276.857 Q2472.09 271.648 2469.01 266.324 Z" fill="#000000" fill-rule="nonzero" fill-opacity="1" /></svg>
