<?xml version="1.0" encoding="utf-8"?>
<svg xmlns="http://www.w3.org/2000/svg" xmlns:xlink="http://www.w3.org/1999/xlink" width="672" height="480" viewBox="0 0 2688 1920">
<defs>
  <clipPath id="clip600">
    <rect x="0" y="0" width="2688" height="1920"/>
  </clipPath>
</defs>
<path clip-path="url(#clip600)" d="M0 1920 L2688 1920 L2688 -4.26326e-14 L0 -4.26326e-14  Z" fill="#ffffff" fill-rule="evenodd" fill-opacity="1"/>
<defs>
  <clipPath id="clip601">
    <rect x="217" y="127" width="2425" height="1607"/>
  </clipPath>
</defs>
<path clip-path="url(#clip600)" d="M217.02 1734.12 L2640.76 1734.12 L2640.76 127.792 L217.02 127.792  Z" fill="#ffffff" fill-rule="evenodd" fill-opacity="1"/>
<polyline clip-path="url(#clip601)" style="stroke:#000000; stroke-linecap:round; stroke-linejoin:round; stroke-width:2; stroke-opacity:0.1; fill:none" points="274.19,1734.12 274.19,127.792 "/>
<polyline clip-path="url(#clip601)" style="stroke:#000000; stroke-linecap:round; stroke-linejoin:round; stroke-width:2; stroke-opacity:0.1; fill:none" points="850.646,1734.12 850.646,127.792 "/>
<polyline clip-path="url(#clip601)" style="stroke:#000000; stroke-linecap:round; stroke-linejoin:round; stroke-width:2; stroke-opacity:0.1; fill:none" points="1427.1,1734.12 1427.1,127.792 "/>
<polyline clip-path="url(#clip601)" style="stroke:#000000; stroke-linecap:round; stroke-linejoin:round; stroke-width:2; stroke-opacity:0.1; fill:none" points="2003.56,1734.12 2003.56,127.792 "/>
<polyline clip-path="url(#clip601)" style="stroke:#000000; stroke-linecap:round; stroke-linejoin:round; stroke-width:2; stroke-opacity:0.1; fill:none" points="2580.01,1734.12 2580.01,127.792 "/>
<polyline clip-path="url(#clip601)" style="stroke:#000000; stroke-linecap:round; stroke-linejoin:round; stroke-width:2; stroke-opacity:0.1; fill:none" points="217.02,1462.21 2640.76,1462.21 "/>
<polyline clip-path="url(#clip601)" style="stroke:#000000; stroke-linecap:round; stroke-linejoin:round; stroke-width:2; stroke-opacity:0.1; fill:none" points="217.02,1184.19 2640.76,1184.19 "/>
<polyline clip-path="url(#clip601)" style="stroke:#000000; stroke-linecap:round; stroke-linejoin:round; stroke-width:2; stroke-opacity:0.1; fill:none" points="217.02,906.174 2640.76,906.174 "/>
<polyline clip-path="url(#clip601)" style="stroke:#000000; stroke-linecap:round; stroke-linejoin:round; stroke-width:2; stroke-opacity:0.1; fill:none" points="217.02,628.157 2640.76,628.157 "/>
<polyline clip-path="url(#clip601)" style="stroke:#000000; stroke-linecap:round; stroke-linejoin:round; stroke-width:2; stroke-opacity:0.1; fill:none" points="217.02,350.14 2640.76,350.14 "/>
<polyline clip-path="url(#clip600)" style="stroke:#000000; stroke-linecap:round; stroke-linejoin:round; stroke-width:4; stroke-opacity:1; fill:none" points="217.02,1734.12 2640.76,1734.12 "/>
<polyline clip-path="url(#clip600)" style="stroke:#000000; stroke-linecap:round; stroke-linejoin:round; stroke-width:4; stroke-opacity:1; fill:none" points="274.19,1734.12 274.19,1715.22 "/>
<polyline clip-path="url(#clip600)" style="stroke:#000000; stroke-linecap:round; stroke-linejoin:round; stroke-width:4; stroke-opacity:1; fill:none" points="850.646,1734.12 850.646,1715.22 "/>
<polyline clip-path="url(#clip600)" style="stroke:#000000; stroke-linecap:round; stroke-linejoin:round; stroke-width:4; stroke-opacity:1; fill:none" points="1427.1,1734.12 1427.1,1715.22 "/>
<polyline clip-path="url(#clip600)" style="stroke:#000000; stroke-linecap:round; stroke-linejoin:round; stroke-width:4; stroke-opacity:1; fill:none" points="2003.56,1734.12 2003.56,1715.22 "/>
<polyline clip-path="url(#clip600)" style="stroke:#000000; stroke-linecap:round; stroke-linejoin:round; stroke-width:4; stroke-opacity:1; fill:none" points="2580.01,1734.12 2580.01,1715.22 "/>
<path clip-path="url(#clip600)" d="M236.494 1767.34 Q232.882 1767.34 231.054 1770.9 Q229.248 1774.45 229.248 1781.58 Q229.248 1788.68 231.054 1792.25 Q232.882 1795.79 236.494 1795.79 Q240.128 1795.79 241.933 1792.25 Q243.762 1788.68 243.762 1781.58 Q243.762 1774.45 241.933 1770.9 Q240.128 1767.34 236.494 1767.34 M236.494 1763.64 Q242.304 1763.64 245.359 1768.24 Q248.438 1772.83 248.438 1781.58 Q248.438 1790.3 245.359 1794.91 Q242.304 1799.49 236.494 1799.49 Q230.683 1799.49 227.605 1794.91 Q224.549 1790.3 224.549 1781.58 Q224.549 1772.83 227.605 1768.24 Q230.683 1763.64 236.494 1763.64 Z" fill="#000000" fill-rule="nonzero" fill-opacity="1" /><path clip-path="url(#clip600)" d="M256.656 1792.94 L261.54 1792.94 L261.54 1798.82 L256.656 1798.82 L256.656 1792.94 Z" fill="#000000" fill-rule="nonzero" fill-opacity="1" /><path clip-path="url(#clip600)" d="M281.725 1767.34 Q278.114 1767.34 276.285 1770.9 Q274.479 1774.45 274.479 1781.58 Q274.479 1788.68 276.285 1792.25 Q278.114 1795.79 281.725 1795.79 Q285.359 1795.79 287.165 1792.25 Q288.993 1788.68 288.993 1781.58 Q288.993 1774.45 287.165 1770.9 Q285.359 1767.34 281.725 1767.34 M281.725 1763.64 Q287.535 1763.64 290.591 1768.24 Q293.669 1772.83 293.669 1781.58 Q293.669 1790.3 290.591 1794.91 Q287.535 1799.49 281.725 1799.49 Q275.915 1799.49 272.836 1794.91 Q269.78 1790.3 269.78 1781.58 Q269.78 1772.83 272.836 1768.24 Q275.915 1763.64 281.725 1763.64 Z" fill="#000000" fill-rule="nonzero" fill-opacity="1" /><path clip-path="url(#clip600)" d="M311.887 1767.34 Q308.276 1767.34 306.447 1770.9 Q304.641 1774.45 304.641 1781.58 Q304.641 1788.68 306.447 1792.25 Q308.276 1795.79 311.887 1795.79 Q315.521 1795.79 317.326 1792.25 Q319.155 1788.68 319.155 1781.58 Q319.155 1774.45 317.326 1770.9 Q315.521 1767.34 311.887 1767.34 M311.887 1763.64 Q317.697 1763.64 320.752 1768.24 Q323.831 1772.83 323.831 1781.58 Q323.831 1790.3 320.752 1794.91 Q317.697 1799.49 311.887 1799.49 Q306.077 1799.49 302.998 1794.91 Q299.942 1790.3 299.942 1781.58 Q299.942 1772.83 302.998 1768.24 Q306.077 1763.64 311.887 1763.64 Z" fill="#000000" fill-rule="nonzero" fill-opacity="1" /><path clip-path="url(#clip600)" d="M813.447 1767.34 Q809.836 1767.34 808.007 1770.9 Q806.202 1774.45 806.202 1781.58 Q806.202 1788.68 808.007 1792.25 Q809.836 1795.79 813.447 1795.79 Q817.081 1795.79 818.887 1792.25 Q820.715 1788.68 820.715 1781.58 Q820.715 1774.45 818.887 1770.9 Q817.081 1767.34 813.447 1767.34 M813.447 1763.64 Q819.257 1763.64 822.313 1768.24 Q825.391 1772.83 825.391 1781.58 Q825.391 1790.3 822.313 1794.91 Q819.257 1799.49 813.447 1799.49 Q807.637 1799.49 804.558 1794.91 Q801.502 1790.3 801.502 1781.58 Q801.502 1772.83 804.558 1768.24 Q807.637 1763.64 813.447 1763.64 Z" fill="#000000" fill-rule="nonzero" fill-opacity="1" /><path clip-path="url(#clip600)" d="M833.609 1792.94 L838.493 1792.94 L838.493 1798.82 L833.609 1798.82 L833.609 1792.94 Z" fill="#000000" fill-rule="nonzero" fill-opacity="1" /><path clip-path="url(#clip600)" d="M852.706 1794.89 L869.025 1794.89 L869.025 1798.82 L847.081 1798.82 L847.081 1794.89 Q849.743 1792.13 854.326 1787.5 Q858.933 1782.85 860.113 1781.51 Q862.359 1778.98 863.238 1777.25 Q864.141 1775.49 864.141 1773.8 Q864.141 1771.04 862.197 1769.31 Q860.275 1767.57 857.173 1767.57 Q854.974 1767.57 852.521 1768.34 Q850.09 1769.1 847.312 1770.65 L847.312 1765.93 Q850.136 1764.79 852.59 1764.21 Q855.044 1763.64 857.081 1763.64 Q862.451 1763.64 865.646 1766.32 Q868.84 1769.01 868.84 1773.5 Q868.84 1775.63 868.03 1777.55 Q867.243 1779.45 865.136 1782.04 Q864.558 1782.71 861.456 1785.93 Q858.354 1789.12 852.706 1794.89 Z" fill="#000000" fill-rule="nonzero" fill-opacity="1" /><path clip-path="url(#clip600)" d="M878.886 1764.26 L897.243 1764.26 L897.243 1768.2 L883.169 1768.2 L883.169 1776.67 Q884.187 1776.32 885.206 1776.16 Q886.224 1775.97 887.243 1775.97 Q893.03 1775.97 896.409 1779.15 Q899.789 1782.32 899.789 1787.73 Q899.789 1793.31 896.317 1796.41 Q892.845 1799.49 886.525 1799.49 Q884.349 1799.49 882.081 1799.12 Q879.835 1798.75 877.428 1798.01 L877.428 1793.31 Q879.511 1794.45 881.734 1795 Q883.956 1795.56 886.433 1795.56 Q890.437 1795.56 892.775 1793.45 Q895.113 1791.34 895.113 1787.73 Q895.113 1784.12 892.775 1782.02 Q890.437 1779.91 886.433 1779.91 Q884.558 1779.91 882.683 1780.33 Q880.831 1780.74 878.886 1781.62 L878.886 1764.26 Z" fill="#000000" fill-rule="nonzero" fill-opacity="1" /><path clip-path="url(#clip600)" d="M1389.4 1767.34 Q1385.79 1767.34 1383.97 1770.9 Q1382.16 1774.45 1382.16 1781.58 Q1382.16 1788.68 1383.97 1792.25 Q1385.79 1795.79 1389.4 1795.79 Q1393.04 1795.79 1394.84 1792.25 Q1396.67 1788.68 1396.67 1781.58 Q1396.67 1774.45 1394.84 1770.9 Q1393.04 1767.34 1389.4 1767.34 M1389.4 1763.64 Q1395.21 1763.64 1398.27 1768.24 Q1401.35 1772.83 1401.35 1781.58 Q1401.35 1790.3 1398.27 1794.91 Q1395.21 1799.49 1389.4 1799.49 Q1383.59 1799.49 1380.52 1794.91 Q1377.46 1790.3 1377.46 1781.58 Q1377.46 1772.83 1380.52 1768.24 Q1383.59 1763.64 1389.4 1763.64 Z" fill="#000000" fill-rule="nonzero" fill-opacity="1" /><path clip-path="url(#clip600)" d="M1409.57 1792.94 L1414.45 1792.94 L1414.45 1798.82 L1409.57 1798.82 L1409.57 1792.94 Z" fill="#000000" fill-rule="nonzero" fill-opacity="1" /><path clip-path="url(#clip600)" d="M1424.68 1764.26 L1443.04 1764.26 L1443.04 1768.2 L1428.96 1768.2 L1428.96 1776.67 Q1429.98 1776.32 1431 1776.16 Q1432.02 1775.97 1433.04 1775.97 Q1438.83 1775.97 1442.21 1779.15 Q1445.59 1782.32 1445.59 1787.73 Q1445.59 1793.31 1442.11 1796.41 Q1438.64 1799.49 1432.32 1799.49 Q1430.15 1799.49 1427.88 1799.12 Q1425.63 1798.75 1423.22 1798.01 L1423.22 1793.31 Q1425.31 1794.45 1427.53 1795 Q1429.75 1795.56 1432.23 1795.56 Q1436.23 1795.56 1438.57 1793.45 Q1440.91 1791.34 1440.91 1787.73 Q1440.91 1784.12 1438.57 1782.02 Q1436.23 1779.91 1432.23 1779.91 Q1430.35 1779.91 1428.48 1780.33 Q1426.63 1780.74 1424.68 1781.62 L1424.68 1764.26 Z" fill="#000000" fill-rule="nonzero" fill-opacity="1" /><path clip-path="url(#clip600)" d="M1464.8 1767.34 Q1461.19 1767.34 1459.36 1770.9 Q1457.55 1774.45 1457.55 1781.58 Q1457.55 1788.68 1459.36 1792.25 Q1461.19 1795.79 1464.8 1795.79 Q1468.43 1795.79 1470.24 1792.25 Q1472.07 1788.68 1472.07 1781.58 Q1472.07 1774.45 1470.24 1770.9 Q1468.43 1767.34 1464.8 1767.34 M1464.8 1763.64 Q1470.61 1763.64 1473.66 1768.24 Q1476.74 1772.83 1476.74 1781.58 Q1476.74 1790.3 1473.66 1794.91 Q1470.61 1799.49 1464.8 1799.49 Q1458.99 1799.49 1455.91 1794.91 Q1452.85 1790.3 1452.85 1781.58 Q1452.85 1772.83 1455.91 1768.24 Q1458.99 1763.64 1464.8 1763.64 Z" fill="#000000" fill-rule="nonzero" fill-opacity="1" /><path clip-path="url(#clip600)" d="M1966.36 1767.34 Q1962.75 1767.34 1960.92 1770.9 Q1959.11 1774.45 1959.11 1781.58 Q1959.11 1788.68 1960.92 1792.25 Q1962.75 1795.79 1966.36 1795.79 Q1969.99 1795.79 1971.8 1792.25 Q1973.63 1788.68 1973.63 1781.58 Q1973.63 1774.45 1971.8 1770.9 Q1969.99 1767.34 1966.36 1767.34 M1966.36 1763.64 Q1972.17 1763.64 1975.22 1768.24 Q1978.3 1772.83 1978.3 1781.58 Q1978.3 1790.3 1975.22 1794.91 Q1972.17 1799.49 1966.36 1799.49 Q1960.55 1799.49 1957.47 1794.91 Q1954.41 1790.3 1954.41 1781.58 Q1954.41 1772.83 1957.47 1768.24 Q1960.55 1763.64 1966.36 1763.64 Z" fill="#000000" fill-rule="nonzero" fill-opacity="1" /><path clip-path="url(#clip600)" d="M1986.52 1792.94 L1991.4 1792.94 L1991.4 1798.82 L1986.52 1798.82 L1986.52 1792.94 Z" fill="#000000" fill-rule="nonzero" fill-opacity="1" /><path clip-path="url(#clip600)" d="M2000.41 1764.26 L2022.63 1764.26 L2022.63 1766.25 L2010.08 1798.82 L2005.2 1798.82 L2017.01 1768.2 L2000.41 1768.2 L2000.41 1764.26 Z" fill="#000000" fill-rule="nonzero" fill-opacity="1" /><path clip-path="url(#clip600)" d="M2031.8 1764.26 L2050.15 1764.26 L2050.15 1768.2 L2036.08 1768.2 L2036.08 1776.67 Q2037.1 1776.32 2038.12 1776.16 Q2039.14 1775.97 2040.15 1775.97 Q2045.94 1775.97 2049.32 1779.15 Q2052.7 1782.32 2052.7 1787.73 Q2052.7 1793.31 2049.23 1796.41 Q2045.76 1799.49 2039.44 1799.49 Q2037.26 1799.49 2034.99 1799.12 Q2032.75 1798.75 2030.34 1798.01 L2030.34 1793.31 Q2032.42 1794.45 2034.64 1795 Q2036.87 1795.56 2039.34 1795.56 Q2043.35 1795.56 2045.69 1793.45 Q2048.02 1791.34 2048.02 1787.73 Q2048.02 1784.12 2045.69 1782.02 Q2043.35 1779.91 2039.34 1779.91 Q2037.47 1779.91 2035.59 1780.33 Q2033.74 1780.74 2031.8 1781.62 L2031.8 1764.26 Z" fill="#000000" fill-rule="nonzero" fill-opacity="1" /><path clip-path="url(#clip600)" d="M2532.08 1794.89 L2539.72 1794.89 L2539.72 1768.52 L2531.41 1770.19 L2531.41 1765.93 L2539.68 1764.26 L2544.35 1764.26 L2544.35 1794.89 L2551.99 1794.89 L2551.99 1798.82 L2532.08 1798.82 L2532.08 1794.89 Z" fill="#000000" fill-rule="nonzero" fill-opacity="1" /><path clip-path="url(#clip600)" d="M2561.44 1792.94 L2566.32 1792.94 L2566.32 1798.82 L2561.44 1798.82 L2561.44 1792.94 Z" fill="#000000" fill-rule="nonzero" fill-opacity="1" /><path clip-path="url(#clip600)" d="M2586.51 1767.34 Q2582.89 1767.34 2581.07 1770.9 Q2579.26 1774.45 2579.26 1781.58 Q2579.26 1788.68 2581.07 1792.25 Q2582.89 1795.79 2586.51 1795.79 Q2590.14 1795.79 2591.95 1792.25 Q2593.77 1788.68 2593.77 1781.58 Q2593.77 1774.45 2591.95 1770.9 Q2590.14 1767.34 2586.51 1767.34 M2586.51 1763.64 Q2592.32 1763.64 2595.37 1768.24 Q2598.45 1772.83 2598.45 1781.58 Q2598.45 1790.3 2595.37 1794.91 Q2592.32 1799.49 2586.51 1799.49 Q2580.7 1799.49 2577.62 1794.91 Q2574.56 1790.3 2574.56 1781.58 Q2574.56 1772.83 2577.62 1768.24 Q2580.7 1763.64 2586.51 1763.64 Z" fill="#000000" fill-rule="nonzero" fill-opacity="1" /><path clip-path="url(#clip600)" d="M2616.67 1767.34 Q2613.06 1767.34 2611.23 1770.9 Q2609.42 1774.45 2609.42 1781.58 Q2609.42 1788.68 2611.23 1792.25 Q2613.06 1795.79 2616.67 1795.79 Q2620.3 1795.79 2622.11 1792.25 Q2623.94 1788.68 2623.94 1781.58 Q2623.94 1774.45 2622.11 1770.9 Q2620.3 1767.34 2616.67 1767.34 M2616.67 1763.64 Q2622.48 1763.64 2625.53 1768.24 Q2628.61 1772.83 2628.61 1781.58 Q2628.61 1790.3 2625.53 1794.91 Q2622.48 1799.49 2616.67 1799.49 Q2610.86 1799.49 2607.78 1794.91 Q2604.72 1790.3 2604.72 1781.58 Q2604.72 1772.83 2607.78 1768.24 Q2610.86 1763.64 2616.67 1763.64 Z" fill="#000000" fill-rule="nonzero" fill-opacity="1" /><path clip-path="url(#clip600)" d="M1445.5 1847.65 L1432.61 1865 L1446.17 1883.3 L1439.26 1883.3 L1428.89 1869.3 L1418.51 1883.3 L1411.61 1883.3 L1425.45 1864.65 L1412.78 1847.65 L1419.69 1847.65 L1429.14 1860.35 L1438.6 1847.65 L1445.5 1847.65 Z" fill="#000000" fill-rule="nonzero" fill-opacity="1" /><polyline clip-path="url(#clip600)" style="stroke:#000000; stroke-linecap:round; stroke-linejoin:round; stroke-width:4; stroke-opacity:1; fill:none" points="217.02,1734.12 217.02,127.792 "/>
<polyline clip-path="url(#clip600)" style="stroke:#000000; stroke-linecap:round; stroke-linejoin:round; stroke-width:4; stroke-opacity:1; fill:none" points="217.02,1462.21 235.918,1462.21 "/>
<polyline clip-path="url(#clip600)" style="stroke:#000000; stroke-linecap:round; stroke-linejoin:round; stroke-width:4; stroke-opacity:1; fill:none" points="217.02,1184.19 235.918,1184.19 "/>
<polyline clip-path="url(#clip600)" style="stroke:#000000; stroke-linecap:round; stroke-linejoin:round; stroke-width:4; stroke-opacity:1; fill:none" points="217.02,906.174 235.918,906.174 "/>
<polyline clip-path="url(#clip600)" style="stroke:#000000; stroke-linecap:round; stroke-linejoin:round; stroke-width:4; stroke-opacity:1; fill:none" points="217.02,628.157 235.918,628.157 "/>
<polyline clip-path="url(#clip600)" style="stroke:#000000; stroke-linecap:round; stroke-linejoin:round; stroke-width:4; stroke-opacity:1; fill:none" points="217.02,350.14 235.918,350.14 "/>
<path clip-path="url(#clip600)" d="M116.585 1462.66 L146.261 1462.66 L146.261 1466.59 L116.585 1466.59 L116.585 1462.66 Z" fill="#000000" fill-rule="nonzero" fill-opacity="1" /><path clip-path="url(#clip600)" d="M160.381 1475.55 L176.7 1475.55 L176.7 1479.49 L154.756 1479.49 L154.756 1475.55 Q157.418 1472.8 162.001 1468.17 Q166.608 1463.52 167.788 1462.17 Q170.034 1459.65 170.913 1457.91 Q171.816 1456.15 171.816 1454.46 Q171.816 1451.71 169.872 1449.97 Q167.95 1448.24 164.848 1448.24 Q162.649 1448.24 160.196 1449 Q157.765 1449.77 154.987 1451.32 L154.987 1446.59 Q157.811 1445.46 160.265 1444.88 Q162.719 1444.3 164.756 1444.3 Q170.126 1444.3 173.321 1446.99 Q176.515 1449.67 176.515 1454.16 Q176.515 1456.29 175.705 1458.21 Q174.918 1460.11 172.811 1462.71 Q172.233 1463.38 169.131 1466.59 Q166.029 1469.79 160.381 1475.55 Z" fill="#000000" fill-rule="nonzero" fill-opacity="1" /><path clip-path="url(#clip600)" d="M116.214 1184.64 L145.89 1184.64 L145.89 1188.58 L116.214 1188.58 L116.214 1184.64 Z" fill="#000000" fill-rule="nonzero" fill-opacity="1" /><path clip-path="url(#clip600)" d="M156.793 1197.54 L164.432 1197.54 L164.432 1171.17 L156.122 1172.84 L156.122 1168.58 L164.385 1166.91 L169.061 1166.91 L169.061 1197.54 L176.7 1197.54 L176.7 1201.47 L156.793 1201.47 L156.793 1197.54 Z" fill="#000000" fill-rule="nonzero" fill-opacity="1" /><path clip-path="url(#clip600)" d="M164.756 891.973 Q161.145 891.973 159.316 895.537 Q157.511 899.079 157.511 906.209 Q157.511 913.315 159.316 916.88 Q161.145 920.421 164.756 920.421 Q168.39 920.421 170.196 916.88 Q172.024 913.315 172.024 906.209 Q172.024 899.079 170.196 895.537 Q168.39 891.973 164.756 891.973 M164.756 888.269 Q170.566 888.269 173.622 892.875 Q176.7 897.459 176.7 906.209 Q176.7 914.935 173.622 919.542 Q170.566 924.125 164.756 924.125 Q158.946 924.125 155.867 919.542 Q152.811 914.935 152.811 906.209 Q152.811 897.459 155.867 892.875 Q158.946 888.269 164.756 888.269 Z" fill="#000000" fill-rule="nonzero" fill-opacity="1" /><path clip-path="url(#clip600)" d="M156.793 641.502 L164.432 641.502 L164.432 615.136 L156.122 616.803 L156.122 612.544 L164.385 610.877 L169.061 610.877 L169.061 641.502 L176.7 641.502 L176.7 645.437 L156.793 645.437 L156.793 641.502 Z" fill="#000000" fill-rule="nonzero" fill-opacity="1" /><path clip-path="url(#clip600)" d="M160.381 363.485 L176.7 363.485 L176.7 367.42 L154.756 367.42 L154.756 363.485 Q157.418 360.731 162.001 356.101 Q166.608 351.448 167.788 350.106 Q170.034 347.583 170.913 345.846 Q171.816 344.087 171.816 342.397 Q171.816 339.643 169.872 337.907 Q167.95 336.171 164.848 336.171 Q162.649 336.171 160.196 336.934 Q157.765 337.698 154.987 339.249 L154.987 334.527 Q157.811 333.393 160.265 332.814 Q162.719 332.235 164.756 332.235 Q170.126 332.235 173.321 334.921 Q176.515 337.606 176.515 342.096 Q176.515 344.226 175.705 346.147 Q174.918 348.045 172.811 350.638 Q172.233 351.309 169.131 354.527 Q166.029 357.721 160.381 363.485 Z" fill="#000000" fill-rule="nonzero" fill-opacity="1" /><path clip-path="url(#clip600)" d="M12.1132 1162.55 L16.983 1162.55 L16.983 1168.16 Q16.983 1171.31 18.2562 1172.55 Q19.5293 1173.76 22.8395 1173.76 L25.9905 1173.76 L25.9905 1164.11 L30.542 1164.11 L30.542 1173.76 L61.6384 1173.76 L61.6384 1179.65 L30.542 1179.65 L30.542 1185.25 L25.9905 1185.25 L25.9905 1179.65 L23.5079 1179.65 Q17.5559 1179.65 14.8505 1176.88 Q12.1132 1174.11 12.1132 1168.09 L12.1132 1162.55 Z" fill="#000000" fill-rule="nonzero" fill-opacity="1" /><path clip-path="url(#clip600)" d="M12.1769 1143.59 Q19.4975 1147.85 26.6589 1149.92 Q33.8203 1151.99 41.1727 1151.99 Q48.5251 1151.99 55.7502 1149.92 Q62.9434 1147.82 70.2321 1143.59 L70.2321 1148.68 Q62.7524 1153.45 55.5274 1155.84 Q48.3023 1158.19 41.1727 1158.19 Q34.0749 1158.19 26.8817 1155.84 Q19.6884 1153.48 12.1769 1148.68 L12.1769 1143.59 Z" fill="#000000" fill-rule="nonzero" fill-opacity="1" /><path clip-path="url(#clip600)" d="M25.9905 1102.59 L43.337 1115.48 L61.6384 1101.92 L61.6384 1108.83 L47.6339 1119.2 L61.6384 1129.58 L61.6384 1136.49 L42.9869 1122.64 L25.9905 1135.31 L25.9905 1128.4 L38.6901 1118.95 L25.9905 1109.5 L25.9905 1102.59 Z" fill="#000000" fill-rule="nonzero" fill-opacity="1" /><path clip-path="url(#clip600)" d="M12.1769 1094.57 L12.1769 1089.48 Q19.6884 1084.7 26.8817 1082.35 Q34.0749 1079.96 41.1727 1079.96 Q48.3023 1079.96 55.5274 1082.35 Q62.7524 1084.7 70.2321 1089.48 L70.2321 1094.57 Q62.9434 1090.34 55.7502 1088.27 Q48.5251 1086.17 41.1727 1086.17 Q33.8203 1086.17 26.6589 1088.27 Q19.4975 1090.34 12.1769 1094.57 Z" fill="#000000" fill-rule="nonzero" fill-opacity="1" /><path clip-path="url(#clip600)" d="M12.1132 1048.04 L12.1132 1034.54 L16.6647 1034.54 L16.6647 1042.18 L65.6807 1042.18 L65.6807 1034.54 L70.2321 1034.54 L70.2321 1048.04 L12.1132 1048.04 Z" fill="#000000" fill-rule="nonzero" fill-opacity="1" /><path clip-path="url(#clip600)" d="M12.1132 1022.06 L12.1132 1016.21 L61.6384 1016.21 L61.6384 1022.06 L12.1132 1022.06 Z" fill="#000000" fill-rule="nonzero" fill-opacity="1" /><path clip-path="url(#clip600)" d="M30.0964 990.14 Q30.0964 994.85 33.7885 997.588 Q37.4488 1000.32 43.8463 1000.32 Q50.2438 1000.32 53.9359 997.619 Q57.5962 994.882 57.5962 990.14 Q57.5962 985.461 53.9041 982.724 Q50.212 979.986 43.8463 979.986 Q37.5124 979.986 33.8203 982.724 Q30.0964 985.461 30.0964 990.14 M25.1311 990.14 Q25.1311 982.501 30.0964 978.14 Q35.0616 973.78 43.8463 973.78 Q52.5991 973.78 57.5962 978.14 Q62.5615 982.501 62.5615 990.14 Q62.5615 997.81 57.5962 1002.17 Q52.5991 1006.5 43.8463 1006.5 Q35.0616 1006.5 30.0964 1002.17 Q25.1311 997.81 25.1311 990.14 Z" fill="#000000" fill-rule="nonzero" fill-opacity="1" /><path clip-path="url(#clip600)" d="M43.4007 940.615 Q37.035 940.615 33.5338 943.256 Q30.0327 945.866 30.0327 950.609 Q30.0327 955.319 33.5338 957.961 Q37.035 960.571 43.4007 960.571 Q49.7346 960.571 53.2357 957.961 Q56.7368 955.319 56.7368 950.609 Q56.7368 945.866 53.2357 943.256 Q49.7346 940.615 43.4007 940.615 M57.2143 934.758 Q66.3172 934.758 70.7414 938.8 Q75.1974 942.843 75.1974 951.182 Q75.1974 954.269 74.72 957.006 Q74.2744 959.743 73.3195 962.322 L67.6222 962.322 Q69.0227 959.743 69.6911 957.229 Q70.3595 954.715 70.3595 952.105 Q70.3595 946.344 67.3358 943.479 Q64.3439 940.615 58.2646 940.615 L55.3682 940.615 Q58.5192 942.429 60.0788 945.261 Q61.6384 948.094 61.6384 952.041 Q61.6384 958.598 56.6414 962.608 Q51.6443 966.618 43.4007 966.618 Q35.1253 966.618 30.1282 962.608 Q25.1311 958.598 25.1311 952.041 Q25.1311 948.094 26.6907 945.261 Q28.2503 942.429 31.4013 940.615 L25.9905 940.615 L25.9905 934.758 L57.2143 934.758 Z" fill="#000000" fill-rule="nonzero" fill-opacity="1" /><path clip-path="url(#clip600)" d="M25.9905 922.695 L25.9905 916.839 L61.6384 916.839 L61.6384 922.695 L25.9905 922.695 M12.1132 922.695 L12.1132 916.839 L19.5293 916.839 L19.5293 922.695 L12.1132 922.695 Z" fill="#000000" fill-rule="nonzero" fill-opacity="1" /><path clip-path="url(#clip600)" d="M15.869 898.792 L25.9905 898.792 L25.9905 886.729 L30.542 886.729 L30.542 898.792 L49.8937 898.792 Q54.2542 898.792 55.4955 897.614 Q56.7368 896.405 56.7368 892.744 L56.7368 886.729 L61.6384 886.729 L61.6384 892.744 Q61.6384 899.524 59.124 902.102 Q56.5777 904.68 49.8937 904.68 L30.542 904.68 L30.542 908.977 L25.9905 908.977 L25.9905 904.68 L15.869 904.68 L15.869 898.792 Z" fill="#000000" fill-rule="nonzero" fill-opacity="1" /><path clip-path="url(#clip600)" d="M27.0408 835.58 L32.579 835.58 Q31.3059 838.063 30.6693 840.737 Q30.0327 843.41 30.0327 846.275 Q30.0327 850.635 31.3695 852.831 Q32.7063 854.996 35.3799 854.996 Q37.4169 854.996 38.5946 853.436 Q39.7404 851.877 40.7908 847.166 L41.2364 845.161 Q42.5732 838.922 45.0239 836.312 Q47.4429 833.671 51.8034 833.671 Q56.7687 833.671 59.6651 837.617 Q62.5615 841.532 62.5615 848.407 Q62.5615 851.272 61.9886 854.391 Q61.4475 857.478 60.3335 860.916 L54.2861 860.916 Q55.973 857.669 56.8323 854.518 Q57.6599 851.367 57.6599 848.28 Q57.6599 844.142 56.2594 841.914 Q54.8271 839.686 52.249 839.686 Q49.8619 839.686 48.5887 841.309 Q47.3156 842.901 46.1379 848.344 L45.6605 850.381 Q44.5147 855.823 42.1594 858.242 Q39.7722 860.661 35.6345 860.661 Q30.6056 860.661 27.8684 857.096 Q25.1311 853.532 25.1311 846.975 Q25.1311 843.728 25.6085 840.864 Q26.086 837.999 27.0408 835.58 Z" fill="#000000" fill-rule="nonzero" fill-opacity="1" /><path clip-path="url(#clip600)" d="M27.3591 798.691 L32.8336 798.691 Q31.465 801.174 30.7966 803.688 Q30.0964 806.171 30.0964 808.717 Q30.0964 814.414 33.7248 817.565 Q37.3214 820.716 43.8463 820.716 Q50.3711 820.716 53.9996 817.565 Q57.5962 814.414 57.5962 808.717 Q57.5962 806.171 56.9278 803.688 Q56.2276 801.174 54.859 798.691 L60.2698 798.691 Q61.4156 801.142 61.9886 803.784 Q62.5615 806.394 62.5615 809.354 Q62.5615 817.406 57.5007 822.149 Q52.44 826.891 43.8463 826.891 Q35.1253 826.891 30.1282 822.117 Q25.1311 817.311 25.1311 808.972 Q25.1311 806.266 25.704 803.688 Q26.2451 801.11 27.3591 798.691 Z" fill="#000000" fill-rule="nonzero" fill-opacity="1" /><path clip-path="url(#clip600)" d="M43.719 772.305 Q43.719 779.403 45.3422 782.14 Q46.9655 784.878 50.8804 784.878 Q53.9996 784.878 55.8457 782.84 Q57.6599 780.772 57.6599 777.239 Q57.6599 772.369 54.2224 769.441 Q50.7531 766.481 45.0239 766.481 L43.719 766.481 L43.719 772.305 M41.3 760.624 L61.6384 760.624 L61.6384 766.481 L56.2276 766.481 Q59.4741 768.486 61.0337 771.478 Q62.5615 774.47 62.5615 778.798 Q62.5615 784.273 59.5059 787.519 Q56.4186 790.734 51.2623 790.734 Q45.2467 790.734 42.1912 786.724 Q39.1357 782.681 39.1357 774.692 L39.1357 766.481 L38.5628 766.481 Q34.5205 766.481 32.3244 769.154 Q30.0964 771.796 30.0964 776.602 Q30.0964 779.658 30.8284 782.554 Q31.5605 785.45 33.0246 788.124 L27.6137 788.124 Q26.3724 784.909 25.7677 781.886 Q25.1311 778.862 25.1311 775.997 Q25.1311 768.263 29.1415 764.444 Q33.1519 760.624 41.3 760.624 Z" fill="#000000" fill-rule="nonzero" fill-opacity="1" /><path clip-path="url(#clip600)" d="M12.1132 748.561 L12.1132 742.705 L61.6384 742.705 L61.6384 748.561 L12.1132 748.561 Z" fill="#000000" fill-rule="nonzero" fill-opacity="1" /><path clip-path="url(#clip600)" d="M42.3504 699.959 L45.2149 699.959 L45.2149 726.886 Q51.2623 726.504 54.4452 723.257 Q57.5962 719.979 57.5962 714.155 Q57.5962 710.781 56.7687 707.63 Q55.9411 704.447 54.2861 701.328 L59.8242 701.328 Q61.161 704.479 61.8612 707.789 Q62.5615 711.099 62.5615 714.505 Q62.5615 723.035 57.5962 728.032 Q52.631 732.997 44.1646 732.997 Q35.4117 732.997 30.2873 728.286 Q25.1311 723.544 25.1311 715.523 Q25.1311 708.33 29.7781 704.16 Q34.3932 699.959 42.3504 699.959 M40.6316 705.815 Q35.8255 705.879 32.9609 708.521 Q30.0964 711.131 30.0964 715.459 Q30.0964 720.361 32.8654 723.321 Q35.6345 726.249 40.6634 726.695 L40.6316 705.815 Z" fill="#000000" fill-rule="nonzero" fill-opacity="1" /><path clip-path="url(#clip600)" d="M12.1132 676.66 L70.2321 676.66 L70.2321 690.156 L65.6807 690.156 L65.6807 682.549 L16.6647 682.549 L16.6647 690.156 L12.1132 690.156 L12.1132 676.66 Z" fill="#000000" fill-rule="nonzero" fill-opacity="1" /><path clip-path="url(#clip600)" d="M658.669 43.6931 L658.669 65.8515 L671.794 65.8515 Q678.397 65.8515 681.557 63.1374 Q684.757 60.3828 684.757 54.752 Q684.757 49.0808 681.557 46.4072 Q678.397 43.6931 671.794 43.6931 L658.669 43.6931 M658.669 18.8205 L658.669 37.0496 L670.782 37.0496 Q676.777 37.0496 679.694 34.8216 Q682.651 32.5531 682.651 27.935 Q682.651 23.3575 679.694 21.089 Q676.777 18.8205 670.782 18.8205 L658.669 18.8205 M650.487 12.096 L671.389 12.096 Q680.747 12.096 685.81 15.9849 Q690.874 19.8737 690.874 27.0438 Q690.874 32.5936 688.282 35.8748 Q685.689 39.156 680.666 39.9662 Q686.702 41.2625 690.023 45.3944 Q693.386 49.4858 693.386 55.6432 Q693.386 63.745 687.876 68.1605 Q682.367 72.576 672.199 72.576 L650.487 72.576 L650.487 12.096 Z" fill="#000000" fill-rule="nonzero" fill-opacity="1" /><path clip-path="url(#clip600)" d="M707.078 27.2059 L714.531 27.2059 L714.531 72.576 L707.078 72.576 L707.078 27.2059 M707.078 9.54393 L714.531 9.54393 L714.531 18.9825 L707.078 18.9825 L707.078 9.54393 Z" fill="#000000" fill-rule="nonzero" fill-opacity="1" /><path clip-path="url(#clip600)" d="M767.841 45.1919 L767.841 72.576 L760.388 72.576 L760.388 45.4349 Q760.388 38.994 757.876 35.7938 Q755.364 32.5936 750.341 32.5936 Q744.306 32.5936 740.822 36.4419 Q737.338 40.2903 737.338 46.9338 L737.338 72.576 L729.844 72.576 L729.844 27.2059 L737.338 27.2059 L737.338 34.2544 Q740.012 30.163 743.617 28.1376 Q747.263 26.1121 752.002 26.1121 Q759.82 26.1121 763.831 30.9732 Q767.841 35.7938 767.841 45.1919 Z" fill="#000000" fill-rule="nonzero" fill-opacity="1" /><path clip-path="url(#clip600)" d="M800.289 32.4315 Q794.294 32.4315 790.81 37.1306 Q787.326 41.7891 787.326 49.9314 Q787.326 58.0738 790.769 62.7728 Q794.253 67.4314 800.289 67.4314 Q806.244 67.4314 809.728 62.7323 Q813.211 58.0333 813.211 49.9314 Q813.211 41.8701 809.728 37.1711 Q806.244 32.4315 800.289 32.4315 M800.289 26.1121 Q810.011 26.1121 815.561 32.4315 Q821.111 38.7509 821.111 49.9314 Q821.111 61.0714 815.561 67.4314 Q810.011 73.7508 800.289 73.7508 Q790.526 73.7508 784.977 67.4314 Q779.467 61.0714 779.467 49.9314 Q779.467 38.7509 784.977 32.4315 Q790.526 26.1121 800.289 26.1121 Z" fill="#000000" fill-rule="nonzero" fill-opacity="1" /><path clip-path="url(#clip600)" d="M868.79 35.9153 Q871.585 30.8922 875.474 28.5022 Q879.363 26.1121 884.629 26.1121 Q891.718 26.1121 895.566 31.0947 Q899.415 36.0368 899.415 45.1919 L899.415 72.576 L891.92 72.576 L891.92 45.4349 Q891.92 38.913 889.611 35.7533 Q887.302 32.5936 882.563 32.5936 Q876.77 32.5936 873.408 36.4419 Q870.046 40.2903 870.046 46.9338 L870.046 72.576 L862.551 72.576 L862.551 45.4349 Q862.551 38.8725 860.242 35.7533 Q857.933 32.5936 853.113 32.5936 Q847.401 32.5936 844.039 36.4824 Q840.677 40.3308 840.677 46.9338 L840.677 72.576 L833.182 72.576 L833.182 27.2059 L840.677 27.2059 L840.677 34.2544 Q843.229 30.082 846.793 28.0971 Q850.358 26.1121 855.26 26.1121 Q860.202 26.1121 863.645 28.6237 Q867.129 31.1352 868.79 35.9153 Z" fill="#000000" fill-rule="nonzero" fill-opacity="1" /><path clip-path="url(#clip600)" d="M914.281 27.2059 L921.735 27.2059 L921.735 72.576 L914.281 72.576 L914.281 27.2059 M914.281 9.54393 L921.735 9.54393 L921.735 18.9825 L914.281 18.9825 L914.281 9.54393 Z" fill="#000000" fill-rule="nonzero" fill-opacity="1" /><path clip-path="url(#clip600)" d="M957.95 49.7694 Q948.917 49.7694 945.433 51.8354 Q941.949 53.9013 941.949 58.8839 Q941.949 62.8538 944.542 65.2034 Q947.175 67.5124 951.671 67.5124 Q957.869 67.5124 961.596 63.1374 Q965.363 58.7219 965.363 51.4303 L965.363 49.7694 L957.95 49.7694 M972.817 46.6907 L972.817 72.576 L965.363 72.576 L965.363 65.6895 Q962.811 69.8214 959.003 71.8063 Q955.196 73.7508 949.686 73.7508 Q942.719 73.7508 938.587 69.8619 Q934.495 65.9325 934.495 59.3701 Q934.495 51.7138 939.6 47.825 Q944.744 43.9361 954.912 43.9361 L965.363 43.9361 L965.363 43.2069 Q965.363 38.0623 961.961 35.2672 Q958.598 32.4315 952.481 32.4315 Q948.593 32.4315 944.906 33.3632 Q941.22 34.295 937.817 36.1584 L937.817 29.2718 Q941.909 27.692 945.757 26.9223 Q949.605 26.1121 953.251 26.1121 Q963.095 26.1121 967.956 31.2163 Q972.817 36.3204 972.817 46.6907 Z" fill="#000000" fill-rule="nonzero" fill-opacity="1" /><path clip-path="url(#clip600)" d="M988.17 9.54393 L995.624 9.54393 L995.624 72.576 L988.17 72.576 L988.17 9.54393 Z" fill="#000000" fill-rule="nonzero" fill-opacity="1" /><path clip-path="url(#clip600)" d="M1079.15 63.9476 L1079.15 47.7034 L1065.79 47.7034 L1065.79 40.9789 L1087.26 40.9789 L1087.26 66.9452 Q1082.52 70.3075 1076.8 72.0494 Q1071.09 73.7508 1064.61 73.7508 Q1050.43 73.7508 1042.41 65.4869 Q1034.43 57.1826 1034.43 42.3968 Q1034.43 27.5705 1042.41 19.3066 Q1050.43 11.0023 1064.61 11.0023 Q1070.52 11.0023 1075.83 12.4606 Q1081.18 13.9189 1085.68 16.7545 L1085.68 25.464 Q1081.14 21.6156 1076.03 19.6712 Q1070.93 17.7268 1065.3 17.7268 Q1054.2 17.7268 1048.61 23.9246 Q1043.06 30.1225 1043.06 42.3968 Q1043.06 54.6305 1048.61 60.8284 Q1054.2 67.0263 1065.3 67.0263 Q1069.63 67.0263 1073.04 66.2971 Q1076.44 65.5274 1079.15 63.9476 Z" fill="#000000" fill-rule="nonzero" fill-opacity="1" /><path clip-path="url(#clip600)" d="M1122.42 20.1573 L1111.32 50.2555 L1133.56 50.2555 L1122.42 20.1573 M1117.8 12.096 L1127.08 12.096 L1150.13 72.576 L1141.62 72.576 L1136.11 57.061 L1108.85 57.061 L1103.34 72.576 L1094.71 72.576 L1117.8 12.096 Z" fill="#000000" fill-rule="nonzero" fill-opacity="1" /><path clip-path="url(#clip600)" d="M1158.96 12.096 L1171.15 12.096 L1186.58 53.2532 L1202.1 12.096 L1214.29 12.096 L1214.29 72.576 L1206.31 72.576 L1206.31 19.4686 L1190.72 60.9499 L1182.49 60.9499 L1166.9 19.4686 L1166.9 72.576 L1158.96 72.576 L1158.96 12.096 Z" fill="#000000" fill-rule="nonzero" fill-opacity="1" /><path clip-path="url(#clip600)" d="M1252.82 46.9338 L1327.68 46.9338 L1327.68 52.7671 L1252.82 52.7671 L1252.82 46.9338 Z" fill="#000000" fill-rule="nonzero" fill-opacity="1" /><path clip-path="url(#clip600)" d="M1394.84 28.5427 L1394.84 35.5912 Q1391.68 33.9709 1388.28 33.1607 Q1384.87 32.3505 1381.23 32.3505 Q1375.68 32.3505 1372.88 34.0519 Q1370.13 35.7533 1370.13 39.156 Q1370.13 41.7486 1372.11 43.2475 Q1374.1 44.7058 1380.09 46.0426 L1382.65 46.6097 Q1390.59 48.3111 1393.91 51.4303 Q1397.27 54.509 1397.27 60.0587 Q1397.27 66.3781 1392.25 70.0644 Q1387.27 73.7508 1378.52 73.7508 Q1374.87 73.7508 1370.9 73.0216 Q1366.97 72.3329 1362.6 70.9151 L1362.6 63.2184 Q1366.73 65.3654 1370.74 66.4591 Q1374.75 67.5124 1378.68 67.5124 Q1383.94 67.5124 1386.78 65.73 Q1389.61 63.9071 1389.61 60.6258 Q1389.61 57.5877 1387.55 55.9673 Q1385.52 54.3469 1378.6 52.8481 L1376 52.2405 Q1369.08 50.7821 1366 47.7845 Q1362.92 44.7463 1362.92 39.4801 Q1362.92 33.0797 1367.46 29.5959 Q1371.99 26.1121 1380.34 26.1121 Q1384.47 26.1121 1388.12 26.7198 Q1391.76 27.3274 1394.84 28.5427 Z" fill="#000000" fill-rule="nonzero" fill-opacity="1" /><path clip-path="url(#clip600)" d="M1444.46 35.9153 Q1447.26 30.8922 1451.15 28.5022 Q1455.04 26.1121 1460.3 26.1121 Q1467.39 26.1121 1471.24 31.0947 Q1475.09 36.0368 1475.09 45.1919 L1475.09 72.576 L1467.59 72.576 L1467.59 45.4349 Q1467.59 38.913 1465.29 35.7533 Q1462.98 32.5936 1458.24 32.5936 Q1452.44 32.5936 1449.08 36.4419 Q1445.72 40.2903 1445.72 46.9338 L1445.72 72.576 L1438.23 72.576 L1438.23 45.4349 Q1438.23 38.8725 1435.92 35.7533 Q1433.61 32.5936 1428.79 32.5936 Q1423.08 32.5936 1419.71 36.4824 Q1416.35 40.3308 1416.35 46.9338 L1416.35 72.576 L1408.86 72.576 L1408.86 27.2059 L1416.35 27.2059 L1416.35 34.2544 Q1418.9 30.082 1422.47 28.0971 Q1426.03 26.1121 1430.93 26.1121 Q1435.88 26.1121 1439.32 28.6237 Q1442.8 31.1352 1444.46 35.9153 Z" fill="#000000" fill-rule="nonzero" fill-opacity="1" /><path clip-path="url(#clip600)" d="M1507.54 32.4315 Q1501.54 32.4315 1498.06 37.1306 Q1494.57 41.7891 1494.57 49.9314 Q1494.57 58.0738 1498.02 62.7728 Q1501.5 67.4314 1507.54 67.4314 Q1513.49 67.4314 1516.97 62.7323 Q1520.46 58.0333 1520.46 49.9314 Q1520.46 41.8701 1516.97 37.1711 Q1513.49 32.4315 1507.54 32.4315 M1507.54 26.1121 Q1517.26 26.1121 1522.81 32.4315 Q1528.36 38.7509 1528.36 49.9314 Q1528.36 61.0714 1522.81 67.4314 Q1517.26 73.7508 1507.54 73.7508 Q1497.77 73.7508 1492.22 67.4314 Q1486.71 61.0714 1486.71 49.9314 Q1486.71 38.7509 1492.22 32.4315 Q1497.77 26.1121 1507.54 26.1121 Z" fill="#000000" fill-rule="nonzero" fill-opacity="1" /><path clip-path="url(#clip600)" d="M1558.29 32.4315 Q1552.3 32.4315 1548.82 37.1306 Q1545.33 41.7891 1545.33 49.9314 Q1545.33 58.0738 1548.77 62.7728 Q1552.26 67.4314 1558.29 67.4314 Q1564.25 67.4314 1567.73 62.7323 Q1571.22 58.0333 1571.22 49.9314 Q1571.22 41.8701 1567.73 37.1711 Q1564.25 32.4315 1558.29 32.4315 M1558.29 26.1121 Q1568.02 26.1121 1573.57 32.4315 Q1579.12 38.7509 1579.12 49.9314 Q1579.12 61.0714 1573.57 67.4314 Q1568.02 73.7508 1558.29 73.7508 Q1548.53 73.7508 1542.98 67.4314 Q1537.47 61.0714 1537.47 49.9314 Q1537.47 38.7509 1542.98 32.4315 Q1548.53 26.1121 1558.29 26.1121 Z" fill="#000000" fill-rule="nonzero" fill-opacity="1" /><path clip-path="url(#clip600)" d="M1598.84 14.324 L1598.84 27.2059 L1614.2 27.2059 L1614.2 32.9987 L1598.84 32.9987 L1598.84 57.6282 Q1598.84 63.1779 1600.34 64.7578 Q1601.88 66.3376 1606.54 66.3376 L1614.2 66.3376 L1614.2 72.576 L1606.54 72.576 Q1597.91 72.576 1594.63 69.3758 Q1591.35 66.1351 1591.35 57.6282 L1591.35 32.9987 L1585.88 32.9987 L1585.88 27.2059 L1591.35 27.2059 L1591.35 14.324 L1598.84 14.324 Z" fill="#000000" fill-rule="nonzero" fill-opacity="1" /><path clip-path="url(#clip600)" d="M1661.71 45.1919 L1661.71 72.576 L1654.26 72.576 L1654.26 45.4349 Q1654.26 38.994 1651.75 35.7938 Q1649.24 32.5936 1644.21 32.5936 Q1638.18 32.5936 1634.69 36.4419 Q1631.21 40.2903 1631.21 46.9338 L1631.21 72.576 L1623.72 72.576 L1623.72 9.54393 L1631.21 9.54393 L1631.21 34.2544 Q1633.88 30.163 1637.49 28.1376 Q1641.14 26.1121 1645.87 26.1121 Q1653.69 26.1121 1657.7 30.9732 Q1661.71 35.7938 1661.71 45.1919 Z" fill="#000000" fill-rule="nonzero" fill-opacity="1" /><path clip-path="url(#clip600)" d="M1720.53 32.4315 Q1714.54 32.4315 1711.05 37.1306 Q1707.57 41.7891 1707.57 49.9314 Q1707.57 58.0738 1711.01 62.7728 Q1714.5 67.4314 1720.53 67.4314 Q1726.49 67.4314 1729.97 62.7323 Q1733.46 58.0333 1733.46 49.9314 Q1733.46 41.8701 1729.97 37.1711 Q1726.49 32.4315 1720.53 32.4315 M1720.53 26.1121 Q1730.26 26.1121 1735.8 32.4315 Q1741.35 38.7509 1741.35 49.9314 Q1741.35 61.0714 1735.8 67.4314 Q1730.26 73.7508 1720.53 73.7508 Q1710.77 73.7508 1705.22 67.4314 Q1699.71 61.0714 1699.71 49.9314 Q1699.71 38.7509 1705.22 32.4315 Q1710.77 26.1121 1720.53 26.1121 Z" fill="#000000" fill-rule="nonzero" fill-opacity="1" /><path clip-path="url(#clip600)" d="M1791.42 45.1919 L1791.42 72.576 L1783.97 72.576 L1783.97 45.4349 Q1783.97 38.994 1781.46 35.7938 Q1778.95 32.5936 1773.92 32.5936 Q1767.89 32.5936 1764.4 36.4419 Q1760.92 40.2903 1760.92 46.9338 L1760.92 72.576 L1753.43 72.576 L1753.43 27.2059 L1760.92 27.2059 L1760.92 34.2544 Q1763.59 30.163 1767.2 28.1376 Q1770.85 26.1121 1775.58 26.1121 Q1783.4 26.1121 1787.41 30.9732 Q1791.42 35.7938 1791.42 45.1919 Z" fill="#000000" fill-rule="nonzero" fill-opacity="1" /><path clip-path="url(#clip600)" d="M1832.66 9.54393 L1840.12 9.54393 L1840.12 72.576 L1832.66 72.576 L1832.66 9.54393 Z" fill="#000000" fill-rule="nonzero" fill-opacity="1" /><path clip-path="url(#clip600)" d="M1855.71 27.2059 L1863.17 27.2059 L1863.17 72.576 L1855.71 72.576 L1855.71 27.2059 M1855.71 9.54393 L1863.17 9.54393 L1863.17 18.9825 L1855.71 18.9825 L1855.71 9.54393 Z" fill="#000000" fill-rule="nonzero" fill-opacity="1" /><path clip-path="url(#clip600)" d="M1916.48 45.1919 L1916.48 72.576 L1909.02 72.576 L1909.02 45.4349 Q1909.02 38.994 1906.51 35.7938 Q1904 32.5936 1898.98 32.5936 Q1892.94 32.5936 1889.46 36.4419 Q1885.97 40.2903 1885.97 46.9338 L1885.97 72.576 L1878.48 72.576 L1878.48 27.2059 L1885.97 27.2059 L1885.97 34.2544 Q1888.65 30.163 1892.25 28.1376 Q1895.9 26.1121 1900.64 26.1121 Q1908.45 26.1121 1912.46 30.9732 Q1916.48 35.7938 1916.48 45.1919 Z" fill="#000000" fill-rule="nonzero" fill-opacity="1" /><path clip-path="url(#clip600)" d="M1931.06 9.54393 L1938.55 9.54393 L1938.55 46.7717 L1960.79 27.2059 L1970.31 27.2059 L1946.25 48.4326 L1971.32 72.576 L1961.6 72.576 L1938.55 50.4176 L1938.55 72.576 L1931.06 72.576 L1931.06 9.54393 Z" fill="#000000" fill-rule="nonzero" fill-opacity="1" /><path clip-path="url(#clip600)" d="M2034.68 28.5427 L2034.68 35.5912 Q2031.52 33.9709 2028.12 33.1607 Q2024.72 32.3505 2021.07 32.3505 Q2015.52 32.3505 2012.72 34.0519 Q2009.97 35.7533 2009.97 39.156 Q2009.97 41.7486 2011.95 43.2475 Q2013.94 44.7058 2019.94 46.0426 L2022.49 46.6097 Q2030.43 48.3111 2033.75 51.4303 Q2037.11 54.509 2037.11 60.0587 Q2037.11 66.3781 2032.09 70.0644 Q2027.11 73.7508 2018.36 73.7508 Q2014.71 73.7508 2010.74 73.0216 Q2006.81 72.3329 2002.44 70.9151 L2002.44 63.2184 Q2006.57 65.3654 2010.58 66.4591 Q2014.59 67.5124 2018.52 67.5124 Q2023.78 67.5124 2026.62 65.73 Q2029.45 63.9071 2029.45 60.6258 Q2029.45 57.5877 2027.39 55.9673 Q2025.36 54.3469 2018.44 52.8481 L2015.84 52.2405 Q2008.92 50.7821 2005.84 47.7845 Q2002.76 44.7463 2002.76 39.4801 Q2002.76 33.0797 2007.3 29.5959 Q2011.83 26.1121 2020.18 26.1121 Q2024.31 26.1121 2027.96 26.7198 Q2031.6 27.3274 2034.68 28.5427 Z" fill="#000000" fill-rule="nonzero" fill-opacity="1" /><path clip-path="url(#clip600)" d="M2081.63 28.9478 L2081.63 35.9153 Q2078.47 34.1734 2075.27 33.3227 Q2072.11 32.4315 2068.87 32.4315 Q2061.62 32.4315 2057.61 37.0496 Q2053.6 41.6271 2053.6 49.9314 Q2053.6 58.2358 2057.61 62.8538 Q2061.62 67.4314 2068.87 67.4314 Q2072.11 67.4314 2075.27 66.5807 Q2078.47 65.6895 2081.63 63.9476 L2081.63 70.8341 Q2078.51 72.2924 2075.15 73.0216 Q2071.83 73.7508 2068.06 73.7508 Q2057.81 73.7508 2051.78 67.3098 Q2045.74 60.8689 2045.74 49.9314 Q2045.74 38.832 2051.82 32.472 Q2057.93 26.1121 2068.55 26.1121 Q2071.99 26.1121 2075.27 26.8413 Q2078.55 27.5299 2081.63 28.9478 Z" fill="#000000" fill-rule="nonzero" fill-opacity="1" /><path clip-path="url(#clip600)" d="M2115.21 49.7694 Q2106.18 49.7694 2102.7 51.8354 Q2099.21 53.9013 2099.21 58.8839 Q2099.21 62.8538 2101.8 65.2034 Q2104.44 67.5124 2108.93 67.5124 Q2115.13 67.5124 2118.86 63.1374 Q2122.63 58.7219 2122.63 51.4303 L2122.63 49.7694 L2115.21 49.7694 M2130.08 46.6907 L2130.08 72.576 L2122.63 72.576 L2122.63 65.6895 Q2120.07 69.8214 2116.27 71.8063 Q2112.46 73.7508 2106.95 73.7508 Q2099.98 73.7508 2095.85 69.8619 Q2091.76 65.9325 2091.76 59.3701 Q2091.76 51.7138 2096.86 47.825 Q2102.01 43.9361 2112.17 43.9361 L2122.63 43.9361 L2122.63 43.2069 Q2122.63 38.0623 2119.22 35.2672 Q2115.86 32.4315 2109.74 32.4315 Q2105.85 32.4315 2102.17 33.3632 Q2098.48 34.295 2095.08 36.1584 L2095.08 29.2718 Q2099.17 27.692 2103.02 26.9223 Q2106.87 26.1121 2110.51 26.1121 Q2120.36 26.1121 2125.22 31.2163 Q2130.08 36.3204 2130.08 46.6907 Z" fill="#000000" fill-rule="nonzero" fill-opacity="1" /><path clip-path="url(#clip600)" d="M2145.43 9.54393 L2152.89 9.54393 L2152.89 72.576 L2145.43 72.576 L2145.43 9.54393 Z" fill="#000000" fill-rule="nonzero" fill-opacity="1" /><path clip-path="url(#clip600)" d="M2207.29 48.0275 L2207.29 51.6733 L2173.02 51.6733 Q2173.51 59.3701 2177.64 63.421 Q2181.81 67.4314 2189.22 67.4314 Q2193.52 67.4314 2197.53 66.3781 Q2201.58 65.3249 2205.55 63.2184 L2205.55 70.267 Q2201.54 71.9684 2197.32 72.8596 Q2193.11 73.7508 2188.78 73.7508 Q2177.92 73.7508 2171.56 67.4314 Q2165.24 61.1119 2165.24 50.3365 Q2165.24 39.1965 2171.24 32.6746 Q2177.27 26.1121 2187.48 26.1121 Q2196.64 26.1121 2201.94 32.0264 Q2207.29 37.9003 2207.29 48.0275 M2199.84 45.84 Q2199.75 39.7232 2196.39 36.0774 Q2193.07 32.4315 2187.56 32.4315 Q2181.32 32.4315 2177.56 35.9558 Q2173.83 39.4801 2173.26 45.8805 L2199.84 45.84 Z" fill="#000000" fill-rule="nonzero" fill-opacity="1" /><path clip-path="url(#clip601)" d="M285.617 1001.87 L297.107 976.673 L308.597 952.254 L320.087 928.756 L331.577 906.312 L343.067 885.036 L354.558 865.007 L366.048 846.267 L377.538 828.811 L389.028 812.582 L400.518 797.475 L412.008 783.341 L423.499 770.007 L434.989 757.293 L446.479 745.037 L457.969 733.172 L469.459 721.722 L480.949 710.726 L492.44 700.221 L503.93 690.226 L515.42 680.727 L526.91 671.672 L538.4 662.974 L549.89 654.514 L561.381 646.153 L572.871 637.75 L584.361 629.179 L595.851 620.436 L607.341 611.62 L618.831 602.855 L630.322 594.268 L641.812 585.982 L653.302 578.099 L664.792 570.698 L676.282 563.827 L687.772 557.503 L699.263 551.713 L710.753 546.42 L722.243 541.572 L733.733 537.108 L745.223 532.97 L756.713 529.124 L768.204 525.608 L779.694 522.547 L791.184 520.075 L802.674 518.322 L814.164 517.396 L825.654 517.375 L837.145 518.304 L848.635 520.186 L860.125 522.988 L871.615 526.641 L883.105 531.048 L894.595 536.099 L906.086 541.676 L917.576 547.711 L929.066 554.206 L940.556 561.191 L952.046 568.712 L963.536 576.825 L975.026 585.591 L986.517 595.067 L998.007 605.302 L1009.5 616.336 L1020.99 628.188 L1032.48 640.864 L1043.97 654.345 L1055.46 668.595 L1066.95 683.557 L1078.44 699.162 L1089.93 715.328 L1101.42 731.969 L1112.91 749 L1124.4 766.35 L1135.89 783.963 L1147.38 801.821 L1158.87 819.981 L1170.36 838.521 L1181.85 857.506 L1193.34 876.977 L1204.83 896.937 L1216.32 917.346 L1227.81 938.121 L1239.3 959.138 L1250.79 980.242 L1262.28 1001.26 L1273.77 1022.01 L1285.26 1042.32 L1296.75 1062.08 L1308.24 1081.37 L1319.73 1100.31 L1331.22 1119 L1342.71 1137.56 L1354.2 1156.08 L1365.69 1174.6 L1377.18 1193.14 L1388.67 1211.7 L1400.16 1230.23 L1411.65 1248.65 L1423.14 1266.88 L1434.63 1284.83 L1446.12 1302.41 L1457.61 1319.58 L1469.1 1336.38 L1480.59 1352.89 L1492.08 1369.17 L1503.57 1385.28 L1515.06 1401.28 L1526.55 1417.19 L1538.04 1433.02 L1549.53 1448.75 L1561.02 1464.34 L1572.52 1479.73 L1584.01 1494.84 L1595.5 1509.57 L1606.99 1523.83 L1618.48 1537.53 L1629.97 1550.57 L1641.46 1562.92 L1652.95 1574.62 L1664.44 1585.74 L1675.93 1596.33 L1687.42 1606.45 L1698.91 1616.13 L1710.4 1625.38 L1721.89 1634.22 L1733.38 1642.61 L1744.87 1650.5 L1756.36 1657.85 L1767.85 1664.57 L1779.34 1670.57 L1790.83 1675.77 L1802.32 1680.1 L1813.81 1683.5 L1825.3 1685.94 L1836.79 1687.53 L1848.28 1688.4 L1859.77 1688.65 L1871.26 1688.37 L1882.75 1687.57 L1894.24 1686.26 L1905.73 1684.37 L1917.22 1681.83 L1928.71 1678.54 L1940.2 1674.47 L1951.69 1669.66 L1963.18 1664.18 L1974.67 1658.11 L1986.16 1651.52 L1997.65 1644.52 L2009.14 1637.16 L2020.63 1629.54 L2032.12 1621.7 L2043.61 1613.7 L2055.1 1605.55 L2066.59 1597.27 L2078.08 1588.85 L2089.57 1580.29 L2101.06 1571.54 L2112.55 1562.57 L2124.04 1553.35 L2135.53 1543.84 L2147.02 1534.02 L2158.51 1523.91 L2170 1513.52 L2181.49 1502.92 L2192.98 1492.14 L2204.47 1481.23 L2215.96 1470.19 L2227.45 1459.03 L2238.94 1447.71 L2250.43 1436.17 L2261.93 1424.33 L2273.42 1412.08 L2284.91 1399.29 L2296.4 1385.83 L2307.89 1371.6 L2319.38 1356.57 L2330.87 1340.84 L2342.36 1324.54 L2353.85 1307.8 L2365.34 1290.75 L2376.83 1273.55 L2388.32 1256.32 L2399.81 1239.16 L2411.3 1222.17 L2422.79 1205.42 L2434.28 1188.98 L2445.77 1172.91 L2457.26 1157.26 L2468.75 1142.12 L2480.24 1127.6 L2491.73 1113.92 L2503.22 1101.33 L2514.71 1090.01 L2526.2 1080.06 L2537.69 1071.53 L2549.18 1064.36 L2560.67 1058.46 L2572.16 1053.68 L2572.16 504.886 L2560.67 540.425 L2549.18 574.754 L2537.69 607.634 L2526.2 638.869 L2514.71 668.326 L2503.22 695.943 L2491.73 721.74 L2480.24 745.809 L2468.75 768.296 L2457.26 789.351 L2445.77 809.067 L2434.28 827.501 L2422.79 844.694 L2411.3 860.681 L2399.81 875.5 L2388.32 889.207 L2376.83 901.873 L2365.34 913.585 L2353.85 924.45 L2342.36 934.583 L2330.87 944.103 L2319.38 953.123 L2307.89 961.746 L2296.4 970.047 L2284.91 978.048 L2273.42 985.726 L2261.93 993.046 L2250.43 999.983 L2238.94 1006.52 L2227.45 1012.68 L2215.96 1018.49 L2204.47 1024.01 L2192.98 1029.34 L2181.49 1034.58 L2170 1039.88 L2158.51 1045.37 L2147.02 1051.2 L2135.53 1057.48 L2124.04 1064.18 L2112.55 1071.23 L2101.06 1078.51 L2089.57 1085.94 L2078.08 1093.4 L2066.59 1100.8 L2055.1 1108.06 L2043.61 1115.11 L2032.12 1121.89 L2020.63 1128.35 L2009.14 1134.49 L1997.65 1140.29 L1986.16 1145.76 L1974.67 1150.9 L1963.18 1155.75 L1951.69 1160.31 L1940.2 1164.61 L1928.71 1168.63 L1917.22 1172.35 L1905.73 1175.69 L1894.24 1178.54 L1882.75 1180.77 L1871.26 1182.31 L1859.77 1183.11 L1848.28 1183.2 L1836.79 1182.6 L1825.3 1181.39 L1813.81 1179.69 L1802.32 1177.57 L1790.83 1175.05 L1779.34 1172.11 L1767.85 1168.71 L1756.36 1164.81 L1744.87 1160.36 L1733.38 1155.32 L1721.89 1149.68 L1710.4 1143.42 L1698.91 1136.57 L1687.42 1129.16 L1675.93 1121.25 L1664.44 1112.92 L1652.95 1104.25 L1641.46 1095.35 L1629.97 1086.32 L1618.48 1077.23 L1606.99 1068.08 L1595.5 1058.81 L1584.01 1049.35 L1572.52 1039.63 L1561.02 1029.57 L1549.53 1019.12 L1538.04 1008.24 L1526.55 996.917 L1515.06 985.155 L1503.57 972.986 L1492.08 960.463 L1480.59 947.661 L1469.1 934.668 L1457.61 921.577 L1446.12 908.479 L1434.63 895.436 L1423.14 882.401 L1411.65 869.267 L1400.16 855.922 L1388.67 842.257 L1377.18 828.181 L1365.69 813.627 L1354.2 798.559 L1342.71 782.977 L1331.22 766.914 L1319.73 750.433 L1308.24 733.621 L1296.75 716.573 L1285.26 699.386 L1273.77 682.124 L1262.28 664.766 L1250.79 647.252 L1239.3 629.509 L1227.81 611.471 L1216.32 593.093 L1204.83 574.361 L1193.34 555.299 L1181.85 535.977 L1170.36 516.507 L1158.87 497.039 L1147.38 477.747 L1135.89 458.819 L1124.4 440.403 L1112.91 422.537 L1101.42 405.212 L1089.93 388.404 L1078.44 372.076 L1066.95 356.191 L1055.46 340.713 L1043.97 325.621 L1032.48 310.907 L1020.99 296.581 L1009.5 282.674 L998.007 269.236 L986.517 256.338 L975.026 244.065 L963.536 232.514 L952.046 221.791 L940.556 212.004 L929.066 203.255 L917.576 195.641 L906.086 189.237 L894.595 184.092 L883.105 180.138 L871.615 177.222 L860.125 175.195 L848.635 173.923 L837.145 173.3 L825.654 173.254 L814.164 173.752 L802.674 174.798 L791.184 176.435 L779.694 178.734 L768.204 181.785 L756.713 185.686 L745.223 190.52 L733.733 196.27 L722.243 202.82 L710.753 210.036 L699.263 217.778 L687.772 225.917 L676.282 234.335 L664.792 242.943 L653.302 251.68 L641.812 260.515 L630.322 269.448 L618.831 278.505 L607.341 287.729 L595.851 297.169 L584.361 306.871 L572.871 316.857 L561.381 327.074 L549.89 337.387 L538.4 347.646 L526.91 357.705 L515.42 367.437 L503.93 376.749 L492.44 385.58 L480.949 393.911 L469.459 401.751 L457.969 409.129 L446.479 416.08 L434.989 422.617 L423.499 428.672 L412.008 434.084 L400.518 438.675 L389.028 442.273 L377.538 444.733 L366.048 445.95 L354.558 445.87 L343.067 444.49 L331.577 441.852 L320.087 438.039 L308.597 433.166 L297.107 427.369 L285.617 420.795  Z" fill="#009af9" fill-rule="evenodd" fill-opacity="0.2"/>
<polyline clip-path="url(#clip601)" style="stroke:#009af9; stroke-linecap:round; stroke-linejoin:round; stroke-width:8; stroke-opacity:1; fill:none" points="285.617,711.331 297.107,702.021 308.597,692.71 320.087,683.398 331.577,674.082 343.067,664.763 354.558,655.439 366.048,646.109 377.538,636.772 389.028,627.428 400.518,618.075 412.008,608.712 423.499,599.339 434.989,589.955 446.479,580.558 457.969,571.151 469.459,561.736 480.949,552.318 492.44,542.901 503.93,533.487 515.42,524.082 526.91,514.688 538.4,505.31 549.89,495.95 561.381,486.614 572.871,477.304 584.361,468.025 595.851,458.803 607.341,449.674 618.831,440.68 630.322,431.858 641.812,423.248 653.302,414.89 664.792,406.821 676.282,399.081 687.772,391.71 699.263,384.746 710.753,378.228 722.243,372.196 733.733,366.689 745.223,361.745 756.713,357.405 768.204,353.696 779.694,350.64 791.184,348.255 802.674,346.56 814.164,345.574 825.654,345.315 837.145,345.802 848.635,347.055 860.125,349.092 871.615,351.931 883.105,355.593 894.595,360.095 906.086,365.456 917.576,371.676 929.066,378.731 940.556,386.597 952.046,395.252 963.536,404.67 975.026,414.828 986.517,425.703 998.007,437.269 1009.5,449.505 1020.99,462.385 1032.48,475.886 1043.97,489.983 1055.46,504.654 1066.95,519.874 1078.44,535.619 1089.93,551.866 1101.42,568.59 1112.91,585.769 1124.4,603.377 1135.89,621.391 1147.38,639.784 1158.87,658.51 1170.36,677.514 1181.85,696.741 1193.34,716.138 1204.83,735.649 1216.32,755.22 1227.81,774.796 1239.3,794.323 1250.79,813.747 1262.28,833.013 1273.77,852.065 1285.26,870.851 1296.75,889.328 1308.24,907.498 1319.73,925.371 1331.22,942.959 1342.71,960.271 1354.2,977.319 1365.69,994.112 1377.18,1010.66 1388.67,1026.98 1400.16,1043.07 1411.65,1058.96 1423.14,1074.64 1434.63,1090.13 1446.12,1105.44 1457.61,1120.58 1469.1,1135.53 1480.59,1150.28 1492.08,1164.82 1503.57,1179.13 1515.06,1193.22 1526.55,1207.05 1538.04,1220.63 1549.53,1233.93 1561.02,1246.95 1572.52,1259.68 1584.01,1272.1 1595.5,1284.19 1606.99,1295.96 1618.48,1307.38 1629.97,1318.44 1641.46,1329.14 1652.95,1339.44 1664.44,1349.33 1675.93,1358.79 1687.42,1367.81 1698.91,1376.35 1710.4,1384.4 1721.89,1391.95 1733.38,1398.96 1744.87,1405.43 1756.36,1411.33 1767.85,1416.64 1779.34,1421.34 1790.83,1425.41 1802.32,1428.84 1813.81,1431.59 1825.3,1433.67 1836.79,1435.06 1848.28,1435.8 1859.77,1435.88 1871.26,1435.34 1882.75,1434.17 1894.24,1432.4 1905.73,1430.03 1917.22,1427.09 1928.71,1423.58 1940.2,1419.54 1951.69,1414.99 1963.18,1409.96 1974.67,1404.5 1986.16,1398.64 1997.65,1392.4 2009.14,1385.83 2020.63,1378.95 2032.12,1371.8 2043.61,1364.4 2055.1,1356.81 2066.59,1349.04 2078.08,1341.13 2089.57,1333.11 2101.06,1325.02 2112.55,1316.9 2124.04,1308.76 2135.53,1300.66 2147.02,1292.61 2158.51,1284.64 2170,1276.7 2181.49,1268.75 2192.98,1260.74 2204.47,1252.62 2215.96,1244.34 2227.45,1235.86 2238.94,1227.12 2250.43,1218.08 2261.93,1208.69 2273.42,1198.9 2284.91,1188.67 2296.4,1177.94 2307.89,1166.67 2319.38,1154.85 2330.87,1142.47 2342.36,1129.56 2353.85,1116.12 2365.34,1102.17 2376.83,1087.71 2388.32,1072.76 2399.81,1057.33 2411.3,1041.42 2422.79,1025.06 2434.28,1008.24 2445.77,990.989 2457.26,973.306 2468.75,955.207 2480.24,936.704 2491.73,917.832 2503.22,898.638 2514.71,879.168 2526.2,859.467 2537.69,839.582 2549.18,819.559 2560.67,799.443 2572.16,779.282 "/>
<polyline clip-path="url(#clip601)" style="stroke:#ff0000; stroke-linecap:round; stroke-linejoin:round; stroke-width:8; stroke-opacity:1; fill:none" stroke-dasharray="32, 20" points="285.617,886.132 294.652,872.456 297.356,868.365 299.512,865.105 310.591,848.38 316.682,839.204 327.541,822.892 337.544,807.928 337.656,807.76 339.482,805.036 344.388,797.73 357.395,778.452 363.432,769.556 373.885,754.24 387.909,733.885 393.599,725.696 396.967,720.867 401.163,714.874 407.176,706.33 412.229,699.189 413.393,697.55 438.133,663.224 443.664,655.694 460.704,632.856 462.348,630.683 469.52,621.266 488.542,596.822 492.952,591.27 497.241,585.913 507.723,573.007 509.714,570.586 513.545,565.955 519.797,558.476 521.589,556.35 528.884,547.785 531.577,544.658 537.319,538.056 539.849,535.175 556.948,516.171 558.35,514.649 562.825,509.831 574.556,497.48 575.267,496.744 578.266,493.66 593.434,478.48 599.75,472.372 611.668,461.196 615.863,457.372 631.26,443.841 632.807,442.525 635.248,440.467 636.888,439.096 638.343,437.886 639.466,436.959 640.344,436.236 658.81,421.663 690.027,399.82 696.09,395.995 698.992,394.214 705.047,390.599 712.124,386.551 728.283,378.031 739.64,372.652 749.876,368.239 751.341,367.642 757.108,365.372 758.667,364.781 759.736,364.382 775.314,359.082 778.521,358.113 781.723,357.186 789.136,355.2 803.352,352.019 811.396,350.586 817.121,349.727 830.097,348.28 831.995,348.126 840.722,347.612 842.114,347.559 849.5,347.411 858.936,347.55 872.525,348.396 874.337,348.567 880.98,349.307 881.047,349.315 889.809,350.572 915.836,356.158 920.43,357.431 936.814,362.666 939.971,363.798 945.785,365.989 978.306,380.713 983.783,383.6 986.488,385.069 997.054,391.074 1011.72,400.11 1030.16,412.619 1036.19,416.973 1056.47,432.589 1061.82,436.955 1077.2,450.045 1090.55,462.052 1100.11,471.006 1100.27,471.159 1108.5,479.111 1108.9,479.498 1131.32,502.254 1139.49,510.926 1140.79,512.321 1141.72,513.331 1150.21,522.597 1152.35,524.969 1154.59,527.459 1161.13,534.816 1162.18,536.009 1171.06,546.218 1172.28,547.641 1175.13,550.965 1181.21,558.139 1190.07,568.765 1196.92,577.11 1200.5,581.513 1205.39,587.583 1218.53,604.169 1223.05,609.957 1223.98,611.156 1242.33,635.166 1267.38,669.003 1281.41,688.457 1303.22,719.289 1308.73,727.185 1318.64,741.496 1327.09,753.774 1348.93,785.894 1349.25,786.362 1353.69,792.959 1356.43,797.029 1361.06,803.919 1371.57,819.624 1371.66,819.764 1374.11,823.436 1377.11,827.935 1389.76,846.955 1392.6,851.246 1397.96,859.338 1411.16,879.295 1417.82,889.375 1431.67,910.358 1439.25,921.85 1442.56,926.855 1444.96,930.485 1451.92,941.015 1452.68,942.167 1458.43,950.849 1500.09,1013.3 1508.33,1025.51 1520.74,1043.78 1526.33,1051.96 1527.66,1053.9 1544.22,1077.89 1549.72,1085.79 1557.41,1096.75 1558.29,1098.01 1563.04,1104.74 1591.97,1144.92 1598.47,1153.76 1600.49,1156.48 1600.58,1156.61 1604.04,1161.26 1612.24,1172.2 1619.99,1182.43 1628.85,1193.95 1634.89,1201.72 1642.75,1211.7 1645.86,1215.61 1647.77,1218 1657.13,1229.59 1668.5,1243.39 1669.89,1245.05 1687.53,1265.74 1693.52,1272.57 1711.77,1292.78 1719.83,1301.41 1721.24,1302.9 1768.59,1349.34 1773.93,1354.13 1775.35,1355.39 1785.96,1364.56 1786.89,1365.35 1805.4,1380.37 1807.11,1381.69 1812.01,1385.44 1813.99,1386.93 1816.87,1389.07 1819.78,1391.2 1832.94,1400.46 1840.08,1405.21 1841.7,1406.27 1844.53,1408.08 1854.08,1413.99 1876.99,1426.74 1889.15,1432.68 1891.74,1433.86 1892.32,1434.13 1896.95,1436.18 1900.71,1437.78 1902.63,1438.58 1904.32,1439.27 1907.45,1440.52 1912.58,1442.48 1918.54,1444.62 1918.69,1444.67 1920.6,1445.33 1921.49,1445.63 1921.5,1445.63 1934.35,1449.62 1935.47,1449.93 1946.62,1452.8 1946.78,1452.83 1951.97,1453.99 1976.59,1457.97 1998.33,1459.42 2004.42,1459.47 2025.5,1458.48 2033.78,1457.59 2036.91,1457.18 2046.45,1455.68 2053.6,1454.31 2070.84,1450.16 2075.09,1448.94 2078.68,1447.87 2091.43,1443.61 2096.08,1441.9 2127.46,1428.08 2129.91,1426.84 2146.76,1417.67 2157.39,1411.33 2166.01,1405.88 2171.29,1402.4 2173,1401.25 2217.29,1367.81 2221.28,1364.46 2223.15,1362.86 2226.58,1359.92 2229.92,1357.01 2239.05,1348.87 2252.21,1336.65 2260.78,1328.39 2261.59,1327.6 2266.99,1322.27 2270.66,1318.58 2272.56,1316.67 2273.34,1315.88 2285.46,1303.33 2290.53,1297.96 2294.98,1293.18 2300.19,1287.51 2305.69,1281.44 2323.57,1261.13 2333.71,1249.23 2340.07,1241.64 2351.32,1227.95 2363.27,1213.08 2365.22,1210.62 2369.1,1205.71 2374.25,1199.12 2376.29,1196.51 2388.93,1180.06 2391.13,1177.16 2392.02,1175.98 2416.55,1143 2416.58,1142.96 2429.56,1125.07 2447.83,1099.42 2456.39,1087.22 2458,1084.92 2465.04,1074.81 2470.95,1066.26 2471.81,1065.02 2477.06,1057.39 2484.92,1045.91 2485.89,1044.5 2486.49,1043.61 2489.45,1039.27 2497.85,1026.9 2505.65,1015.35 2511.08,1007.27 2519.77,994.306 2529.79,979.297 2533.14,974.263 2533.56,973.634 2534.11,972.803 2535.06,971.378 2536.78,968.792 2540.68,962.917 2542.33,960.439 2566.2,924.359 2569.78,918.938 2570.91,917.235 2572.16,915.339 "/>
<path clip-path="url(#clip600)" d="M2073.38 336.856 L2559.96 336.856 L2559.96 181.336 L2073.38 181.336  Z" fill="#ffffff" fill-rule="evenodd" fill-opacity="1"/>
<polyline clip-path="url(#clip600)" style="stroke:#000000; stroke-linecap:round; stroke-linejoin:round; stroke-width:4; stroke-opacity:1; fill:none" points="2073.38,336.856 2559.96,336.856 2559.96,181.336 2073.38,181.336 2073.38,336.856 "/>
<polyline clip-path="url(#clip600)" style="stroke:#009af9; stroke-linecap:round; stroke-linejoin:round; stroke-width:8; stroke-opacity:1; fill:none" points="2100.31,233.176 2261.89,233.176 "/>
<path clip-path="url(#clip600)" d="M2307.25 225.294 L2307.25 229.322 Q2305.44 228.396 2303.5 227.933 Q2301.55 227.47 2299.47 227.47 Q2296.3 227.47 2294.7 228.443 Q2293.13 229.415 2293.13 231.359 Q2293.13 232.841 2294.26 233.697 Q2295.4 234.53 2298.82 235.294 L2300.28 235.618 Q2304.82 236.591 2306.72 238.373 Q2308.64 240.132 2308.64 243.304 Q2308.64 246.915 2305.77 249.021 Q2302.92 251.128 2297.92 251.128 Q2295.84 251.128 2293.57 250.711 Q2291.32 250.317 2288.82 249.507 L2288.82 245.109 Q2291.18 246.336 2293.48 246.961 Q2295.77 247.563 2298.01 247.563 Q2301.02 247.563 2302.64 246.544 Q2304.26 245.503 2304.26 243.628 Q2304.26 241.892 2303.08 240.966 Q2301.92 240.04 2297.97 239.183 L2296.48 238.836 Q2292.53 238.003 2290.77 236.29 Q2289.01 234.554 2289.01 231.544 Q2289.01 227.887 2291.6 225.896 Q2294.19 223.906 2298.96 223.906 Q2301.32 223.906 2303.41 224.253 Q2305.49 224.6 2307.25 225.294 Z" fill="#000000" fill-rule="nonzero" fill-opacity="1" /><path clip-path="url(#clip600)" d="M2325.65 214.484 Q2322.55 219.808 2321.04 225.017 Q2319.54 230.225 2319.54 235.572 Q2319.54 240.919 2321.04 246.174 Q2322.57 251.405 2325.65 256.706 L2321.95 256.706 Q2318.48 251.266 2316.74 246.012 Q2315.03 240.757 2315.03 235.572 Q2315.03 230.41 2316.74 225.179 Q2318.45 219.947 2321.95 214.484 L2325.65 214.484 Z" fill="#000000" fill-rule="nonzero" fill-opacity="1" /><path clip-path="url(#clip600)" d="M2355.47 224.531 L2346.09 237.146 L2355.95 250.456 L2350.93 250.456 L2343.38 240.271 L2335.84 250.456 L2330.81 250.456 L2340.88 236.892 L2331.67 224.531 L2336.69 224.531 L2343.57 233.767 L2350.44 224.531 L2355.47 224.531 Z" fill="#000000" fill-rule="nonzero" fill-opacity="1" /><path clip-path="url(#clip600)" d="M2361.3 214.484 L2365 214.484 Q2368.48 219.947 2370.19 225.179 Q2371.92 230.41 2371.92 235.572 Q2371.92 240.757 2370.19 246.012 Q2368.48 251.266 2365 256.706 L2361.3 256.706 Q2364.38 251.405 2365.88 246.174 Q2367.41 240.919 2367.41 235.572 Q2367.41 230.225 2365.88 225.017 Q2364.38 219.808 2361.3 214.484 Z" fill="#000000" fill-rule="nonzero" fill-opacity="1" /><path clip-path="url(#clip600)" d="M2412.87 220.734 L2412.87 229.693 L2425.77 229.693 L2425.77 233.628 L2412.87 233.628 L2412.87 242.586 L2408.98 242.586 L2408.98 233.628 L2396.09 233.628 L2396.09 229.693 L2408.98 229.693 L2408.98 220.734 L2412.87 220.734 M2396.09 246.521 L2425.77 246.521 L2425.77 250.456 L2396.09 250.456 L2396.09 246.521 Z" fill="#000000" fill-rule="nonzero" fill-opacity="1" /><path clip-path="url(#clip600)" d="M2454.96 246.521 L2471.28 246.521 L2471.28 250.456 L2449.33 250.456 L2449.33 246.521 Q2451.99 243.767 2456.58 239.137 Q2461.18 234.484 2462.36 233.142 Q2464.61 230.618 2465.49 228.882 Q2466.39 227.123 2466.39 225.433 Q2466.39 222.679 2464.45 220.943 Q2462.53 219.206 2459.42 219.206 Q2457.22 219.206 2454.77 219.97 Q2452.34 220.734 2449.56 222.285 L2449.56 217.563 Q2452.39 216.429 2454.84 215.85 Q2457.29 215.271 2459.33 215.271 Q2464.7 215.271 2467.9 217.956 Q2471.09 220.642 2471.09 225.132 Q2471.09 227.262 2470.28 229.183 Q2469.49 231.081 2467.39 233.674 Q2466.81 234.345 2463.71 237.563 Q2460.6 240.757 2454.96 246.521 Z" fill="#000000" fill-rule="nonzero" fill-opacity="1" /><path clip-path="url(#clip600)" d="M2501.39 217.031 L2501.39 221.591 Q2498.73 220.318 2496.37 219.693 Q2494.01 219.068 2491.81 219.068 Q2487.99 219.068 2485.9 220.549 Q2483.84 222.031 2483.84 224.762 Q2483.84 227.054 2485.21 228.234 Q2486.6 229.392 2490.44 230.109 L2493.27 230.688 Q2498.5 231.683 2500.97 234.206 Q2503.47 236.706 2503.47 240.919 Q2503.47 245.942 2500.09 248.535 Q2496.74 251.128 2490.23 251.128 Q2487.78 251.128 2485 250.572 Q2482.25 250.016 2479.28 248.929 L2479.28 244.114 Q2482.13 245.711 2484.86 246.521 Q2487.59 247.331 2490.23 247.331 Q2494.24 247.331 2496.41 245.757 Q2498.59 244.183 2498.59 241.267 Q2498.59 238.72 2497.02 237.285 Q2495.47 235.85 2491.9 235.132 L2489.05 234.577 Q2483.82 233.535 2481.48 231.313 Q2479.15 229.091 2479.15 225.132 Q2479.15 220.549 2482.36 217.91 Q2485.6 215.271 2491.28 215.271 Q2493.71 215.271 2496.23 215.711 Q2498.75 216.151 2501.39 217.031 Z" fill="#000000" fill-rule="nonzero" fill-opacity="1" /><path clip-path="url(#clip600)" d="M2510.77 215.896 L2532.62 215.896 L2532.62 219.831 L2515.44 219.831 L2515.44 230.063 L2531.9 230.063 L2531.9 233.998 L2515.44 233.998 L2515.44 246.521 L2533.03 246.521 L2533.03 250.456 L2510.77 250.456 L2510.77 215.896 Z" fill="#000000" fill-rule="nonzero" fill-opacity="1" /><polyline clip-path="url(#clip600)" style="stroke:#ff0000; stroke-linecap:round; stroke-linejoin:round; stroke-width:8; stroke-opacity:1; fill:none" stroke-dasharray="32, 20" points="2100.31,285.016 2261.89,285.016 "/>
<path clip-path="url(#clip600)" d="M2296.23 269.009 L2296.23 276.371 L2305 276.371 L2305 279.681 L2296.23 279.681 L2296.23 293.755 Q2296.23 296.926 2297.09 297.829 Q2297.97 298.731 2300.63 298.731 L2305 298.731 L2305 302.296 L2300.63 302.296 Q2295.7 302.296 2293.82 300.468 Q2291.95 298.616 2291.95 293.755 L2291.95 279.681 L2288.82 279.681 L2288.82 276.371 L2291.95 276.371 L2291.95 269.009 L2296.23 269.009 Z" fill="#000000" fill-rule="nonzero" fill-opacity="1" /><path clip-path="url(#clip600)" d="M2325.63 280.352 Q2324.91 279.935 2324.05 279.75 Q2323.22 279.542 2322.2 279.542 Q2318.59 279.542 2316.65 281.903 Q2314.73 284.241 2314.73 288.639 L2314.73 302.296 L2310.44 302.296 L2310.44 276.371 L2314.73 276.371 L2314.73 280.398 Q2316.07 278.037 2318.22 276.903 Q2320.37 275.746 2323.45 275.746 Q2323.89 275.746 2324.42 275.815 Q2324.96 275.861 2325.6 275.977 L2325.63 280.352 Z" fill="#000000" fill-rule="nonzero" fill-opacity="1" /><path clip-path="url(#clip600)" d="M2329.66 292.065 L2329.66 276.371 L2333.92 276.371 L2333.92 291.903 Q2333.92 295.583 2335.35 297.435 Q2336.79 299.264 2339.66 299.264 Q2343.1 299.264 2345.1 297.065 Q2347.11 294.866 2347.11 291.069 L2347.11 276.371 L2351.37 276.371 L2351.37 302.296 L2347.11 302.296 L2347.11 298.315 Q2345.56 300.676 2343.5 301.833 Q2341.46 302.968 2338.75 302.968 Q2334.29 302.968 2331.97 300.19 Q2329.66 297.412 2329.66 292.065 M2340.37 275.746 L2340.37 275.746 Z" fill="#000000" fill-rule="nonzero" fill-opacity="1" /><path clip-path="url(#clip600)" d="M2382.32 288.269 L2382.32 290.352 L2362.73 290.352 Q2363.01 294.75 2365.37 297.065 Q2367.76 299.356 2371.99 299.356 Q2374.45 299.356 2376.74 298.755 Q2379.05 298.153 2381.32 296.949 L2381.32 300.977 Q2379.03 301.949 2376.62 302.458 Q2374.22 302.968 2371.74 302.968 Q2365.54 302.968 2361.9 299.356 Q2358.29 295.745 2358.29 289.588 Q2358.29 283.222 2361.72 279.495 Q2365.16 275.746 2371 275.746 Q2376.23 275.746 2379.26 279.125 Q2382.32 282.482 2382.32 288.269 M2378.06 287.019 Q2378.01 283.523 2376.09 281.44 Q2374.19 279.357 2371.04 279.357 Q2367.48 279.357 2365.33 281.37 Q2363.2 283.384 2362.87 287.042 L2378.06 287.019 Z" fill="#000000" fill-rule="nonzero" fill-opacity="1" /><path clip-path="url(#clip600)" d="M2417.5 266.278 L2417.5 269.82 L2413.43 269.82 Q2411.14 269.82 2410.23 270.746 Q2409.35 271.671 2409.35 274.079 L2409.35 276.371 L2416.37 276.371 L2416.37 279.681 L2409.35 279.681 L2409.35 302.296 L2405.07 302.296 L2405.07 279.681 L2401 279.681 L2401 276.371 L2405.07 276.371 L2405.07 274.565 Q2405.07 270.236 2407.09 268.269 Q2409.1 266.278 2413.47 266.278 L2417.5 266.278 Z" fill="#000000" fill-rule="nonzero" fill-opacity="1" /><path clip-path="url(#clip600)" d="M2431.3 266.324 Q2428.2 271.648 2426.69 276.857 Q2425.19 282.065 2425.19 287.412 Q2425.19 292.759 2426.69 298.014 Q2428.22 303.245 2431.3 308.546 L2427.6 308.546 Q2424.12 303.106 2422.39 297.852 Q2420.67 292.597 2420.67 287.412 Q2420.67 282.25 2422.39 277.019 Q2424.1 271.787 2427.6 266.324 L2431.3 266.324 Z" fill="#000000" fill-rule="nonzero" fill-opacity="1" /><path clip-path="url(#clip600)" d="M2461.11 276.371 L2451.74 288.986 L2461.6 302.296 L2456.58 302.296 L2449.03 292.111 L2441.48 302.296 L2436.46 302.296 L2446.53 288.732 L2437.32 276.371 L2442.34 276.371 L2449.22 285.607 L2456.09 276.371 L2461.11 276.371 Z" fill="#000000" fill-rule="nonzero" fill-opacity="1" /><path clip-path="url(#clip600)" d="M2466.95 266.324 L2470.65 266.324 Q2474.12 271.787 2475.84 277.019 Q2477.57 282.25 2477.57 287.412 Q2477.57 292.597 2475.84 297.852 Q2474.12 303.106 2470.65 308.546 L2466.95 308.546 Q2470.03 303.245 2471.53 298.014 Q2473.06 292.759 2473.06 287.412 Q2473.06 282.065 2471.53 276.857 Q2470.03 271.648 2466.95 266.324 Z" fill="#000000" fill-rule="nonzero" fill-opacity="1" /></svg>
