<?xml version="1.0" encoding="utf-8"?>
<svg xmlns="http://www.w3.org/2000/svg" xmlns:xlink="http://www.w3.org/1999/xlink" width="672" height="480" viewBox="0 0 2688 1920">
<defs>
  <clipPath id="clip620">
    <rect x="0" y="0" width="2688" height="1920"/>
  </clipPath>
</defs>
<path clip-path="url(#clip620)" d="M0 1920 L2688 1920 L2688 -4.26326e-14 L0 -4.26326e-14  Z" fill="#ffffff" fill-rule="evenodd" fill-opacity="1"/>
<defs>
  <clipPath id="clip621">
    <rect x="263" y="127" width="2378" height="1607"/>
  </clipPath>
</defs>
<path clip-path="url(#clip620)" d="M263.478 1734.12 L2640.76 1734.12 L2640.76 127.792 L263.478 127.792  Z" fill="#ffffff" fill-rule="evenodd" fill-opacity="1"/>
<polyline clip-path="url(#clip621)" style="stroke:#000000; stroke-linecap:round; stroke-linejoin:round; stroke-width:2; stroke-opacity:0.1; fill:none" points="330.222,1734.12 330.222,127.792 "/>
<polyline clip-path="url(#clip621)" style="stroke:#000000; stroke-linecap:round; stroke-linejoin:round; stroke-width:2; stroke-opacity:0.1; fill:none" points="892.975,1734.12 892.975,127.792 "/>
<polyline clip-path="url(#clip621)" style="stroke:#000000; stroke-linecap:round; stroke-linejoin:round; stroke-width:2; stroke-opacity:0.1; fill:none" points="1455.73,1734.12 1455.73,127.792 "/>
<polyline clip-path="url(#clip621)" style="stroke:#000000; stroke-linecap:round; stroke-linejoin:round; stroke-width:2; stroke-opacity:0.1; fill:none" points="2018.48,1734.12 2018.48,127.792 "/>
<polyline clip-path="url(#clip621)" style="stroke:#000000; stroke-linecap:round; stroke-linejoin:round; stroke-width:2; stroke-opacity:0.1; fill:none" points="2581.23,1734.12 2581.23,127.792 "/>
<polyline clip-path="url(#clip621)" style="stroke:#000000; stroke-linecap:round; stroke-linejoin:round; stroke-width:2; stroke-opacity:0.1; fill:none" points="263.478,1541.54 2640.76,1541.54 "/>
<polyline clip-path="url(#clip621)" style="stroke:#000000; stroke-linecap:round; stroke-linejoin:round; stroke-width:2; stroke-opacity:0.1; fill:none" points="263.478,1216.36 2640.76,1216.36 "/>
<polyline clip-path="url(#clip621)" style="stroke:#000000; stroke-linecap:round; stroke-linejoin:round; stroke-width:2; stroke-opacity:0.1; fill:none" points="263.478,891.179 2640.76,891.179 "/>
<polyline clip-path="url(#clip621)" style="stroke:#000000; stroke-linecap:round; stroke-linejoin:round; stroke-width:2; stroke-opacity:0.1; fill:none" points="263.478,566 2640.76,566 "/>
<polyline clip-path="url(#clip621)" style="stroke:#000000; stroke-linecap:round; stroke-linejoin:round; stroke-width:2; stroke-opacity:0.1; fill:none" points="263.478,240.822 2640.76,240.822 "/>
<polyline clip-path="url(#clip620)" style="stroke:#000000; stroke-linecap:round; stroke-linejoin:round; stroke-width:4; stroke-opacity:1; fill:none" points="263.478,1734.12 2640.76,1734.12 "/>
<polyline clip-path="url(#clip620)" style="stroke:#000000; stroke-linecap:round; stroke-linejoin:round; stroke-width:4; stroke-opacity:1; fill:none" points="330.222,1734.12 330.222,1715.22 "/>
<polyline clip-path="url(#clip620)" style="stroke:#000000; stroke-linecap:round; stroke-linejoin:round; stroke-width:4; stroke-opacity:1; fill:none" points="892.975,1734.12 892.975,1715.22 "/>
<polyline clip-path="url(#clip620)" style="stroke:#000000; stroke-linecap:round; stroke-linejoin:round; stroke-width:4; stroke-opacity:1; fill:none" points="1455.73,1734.12 1455.73,1715.22 "/>
<polyline clip-path="url(#clip620)" style="stroke:#000000; stroke-linecap:round; stroke-linejoin:round; stroke-width:4; stroke-opacity:1; fill:none" points="2018.48,1734.12 2018.48,1715.22 "/>
<polyline clip-path="url(#clip620)" style="stroke:#000000; stroke-linecap:round; stroke-linejoin:round; stroke-width:4; stroke-opacity:1; fill:none" points="2581.23,1734.12 2581.23,1715.22 "/>
<path clip-path="url(#clip620)" d="M292.525 1767.34 Q288.914 1767.34 287.086 1770.9 Q285.28 1774.45 285.28 1781.58 Q285.28 1788.68 287.086 1792.25 Q288.914 1795.79 292.525 1795.79 Q296.16 1795.79 297.965 1792.25 Q299.794 1788.68 299.794 1781.58 Q299.794 1774.45 297.965 1770.9 Q296.16 1767.34 292.525 1767.34 M292.525 1763.64 Q298.336 1763.64 301.391 1768.24 Q304.47 1772.83 304.47 1781.58 Q304.47 1790.3 301.391 1794.91 Q298.336 1799.49 292.525 1799.49 Q286.715 1799.49 283.637 1794.91 Q280.581 1790.3 280.581 1781.58 Q280.581 1772.83 283.637 1768.24 Q286.715 1763.64 292.525 1763.64 Z" fill="#000000" fill-rule="nonzero" fill-opacity="1" /><path clip-path="url(#clip620)" d="M312.687 1792.94 L317.572 1792.94 L317.572 1798.82 L312.687 1798.82 L312.687 1792.94 Z" fill="#000000" fill-rule="nonzero" fill-opacity="1" /><path clip-path="url(#clip620)" d="M337.757 1767.34 Q334.146 1767.34 332.317 1770.9 Q330.511 1774.45 330.511 1781.58 Q330.511 1788.68 332.317 1792.25 Q334.146 1795.79 337.757 1795.79 Q341.391 1795.79 343.196 1792.25 Q345.025 1788.68 345.025 1781.58 Q345.025 1774.45 343.196 1770.9 Q341.391 1767.34 337.757 1767.34 M337.757 1763.64 Q343.567 1763.64 346.622 1768.24 Q349.701 1772.83 349.701 1781.58 Q349.701 1790.3 346.622 1794.91 Q343.567 1799.49 337.757 1799.49 Q331.947 1799.49 328.868 1794.91 Q325.812 1790.3 325.812 1781.58 Q325.812 1772.83 328.868 1768.24 Q331.947 1763.64 337.757 1763.64 Z" fill="#000000" fill-rule="nonzero" fill-opacity="1" /><path clip-path="url(#clip620)" d="M367.919 1767.34 Q364.307 1767.34 362.479 1770.9 Q360.673 1774.45 360.673 1781.58 Q360.673 1788.68 362.479 1792.25 Q364.307 1795.79 367.919 1795.79 Q371.553 1795.79 373.358 1792.25 Q375.187 1788.68 375.187 1781.58 Q375.187 1774.45 373.358 1770.9 Q371.553 1767.34 367.919 1767.34 M367.919 1763.64 Q373.729 1763.64 376.784 1768.24 Q379.863 1772.83 379.863 1781.58 Q379.863 1790.3 376.784 1794.91 Q373.729 1799.49 367.919 1799.49 Q362.108 1799.49 359.03 1794.91 Q355.974 1790.3 355.974 1781.58 Q355.974 1772.83 359.03 1768.24 Q362.108 1763.64 367.919 1763.64 Z" fill="#000000" fill-rule="nonzero" fill-opacity="1" /><path clip-path="url(#clip620)" d="M855.776 1767.34 Q852.165 1767.34 850.336 1770.9 Q848.531 1774.45 848.531 1781.58 Q848.531 1788.68 850.336 1792.25 Q852.165 1795.79 855.776 1795.79 Q859.41 1795.79 861.216 1792.25 Q863.045 1788.68 863.045 1781.58 Q863.045 1774.45 861.216 1770.9 Q859.41 1767.34 855.776 1767.34 M855.776 1763.64 Q861.586 1763.64 864.642 1768.24 Q867.721 1772.83 867.721 1781.58 Q867.721 1790.3 864.642 1794.91 Q861.586 1799.49 855.776 1799.49 Q849.966 1799.49 846.887 1794.91 Q843.832 1790.3 843.832 1781.58 Q843.832 1772.83 846.887 1768.24 Q849.966 1763.64 855.776 1763.64 Z" fill="#000000" fill-rule="nonzero" fill-opacity="1" /><path clip-path="url(#clip620)" d="M875.938 1792.94 L880.822 1792.94 L880.822 1798.82 L875.938 1798.82 L875.938 1792.94 Z" fill="#000000" fill-rule="nonzero" fill-opacity="1" /><path clip-path="url(#clip620)" d="M895.035 1794.89 L911.355 1794.89 L911.355 1798.82 L889.41 1798.82 L889.41 1794.89 Q892.072 1792.13 896.656 1787.5 Q901.262 1782.85 902.443 1781.51 Q904.688 1778.98 905.568 1777.25 Q906.47 1775.49 906.47 1773.8 Q906.47 1771.04 904.526 1769.31 Q902.605 1767.57 899.503 1767.57 Q897.304 1767.57 894.85 1768.34 Q892.42 1769.1 889.642 1770.65 L889.642 1765.93 Q892.466 1764.79 894.92 1764.21 Q897.373 1763.64 899.41 1763.64 Q904.781 1763.64 907.975 1766.32 Q911.169 1769.01 911.169 1773.5 Q911.169 1775.63 910.359 1777.55 Q909.572 1779.45 907.466 1782.04 Q906.887 1782.71 903.785 1785.93 Q900.683 1789.12 895.035 1794.89 Z" fill="#000000" fill-rule="nonzero" fill-opacity="1" /><path clip-path="url(#clip620)" d="M921.216 1764.26 L939.572 1764.26 L939.572 1768.2 L925.498 1768.2 L925.498 1776.67 Q926.517 1776.32 927.535 1776.16 Q928.554 1775.97 929.572 1775.97 Q935.359 1775.97 938.739 1779.15 Q942.118 1782.32 942.118 1787.73 Q942.118 1793.31 938.646 1796.41 Q935.174 1799.49 928.855 1799.49 Q926.679 1799.49 924.41 1799.12 Q922.165 1798.75 919.757 1798.01 L919.757 1793.31 Q921.841 1794.45 924.063 1795 Q926.285 1795.56 928.762 1795.56 Q932.767 1795.56 935.105 1793.45 Q937.442 1791.34 937.442 1787.73 Q937.442 1784.12 935.105 1782.02 Q932.767 1779.91 928.762 1779.91 Q926.887 1779.91 925.012 1780.33 Q923.16 1780.74 921.216 1781.62 L921.216 1764.26 Z" fill="#000000" fill-rule="nonzero" fill-opacity="1" /><path clip-path="url(#clip620)" d="M1418.03 1767.34 Q1414.42 1767.34 1412.59 1770.9 Q1410.79 1774.45 1410.79 1781.58 Q1410.79 1788.68 1412.59 1792.25 Q1414.42 1795.79 1418.03 1795.79 Q1421.67 1795.79 1423.47 1792.25 Q1425.3 1788.68 1425.3 1781.58 Q1425.3 1774.45 1423.47 1770.9 Q1421.67 1767.34 1418.03 1767.34 M1418.03 1763.64 Q1423.84 1763.64 1426.9 1768.24 Q1429.98 1772.83 1429.98 1781.58 Q1429.98 1790.3 1426.9 1794.91 Q1423.84 1799.49 1418.03 1799.49 Q1412.22 1799.49 1409.14 1794.91 Q1406.09 1790.3 1406.09 1781.58 Q1406.09 1772.83 1409.14 1768.24 Q1412.22 1763.64 1418.03 1763.64 Z" fill="#000000" fill-rule="nonzero" fill-opacity="1" /><path clip-path="url(#clip620)" d="M1438.19 1792.94 L1443.08 1792.94 L1443.08 1798.82 L1438.19 1798.82 L1438.19 1792.94 Z" fill="#000000" fill-rule="nonzero" fill-opacity="1" /><path clip-path="url(#clip620)" d="M1453.31 1764.26 L1471.67 1764.26 L1471.67 1768.2 L1457.59 1768.2 L1457.59 1776.67 Q1458.61 1776.32 1459.63 1776.16 Q1460.65 1775.97 1461.67 1775.97 Q1467.45 1775.97 1470.83 1779.15 Q1474.21 1782.32 1474.21 1787.73 Q1474.21 1793.31 1470.74 1796.41 Q1467.27 1799.49 1460.95 1799.49 Q1458.77 1799.49 1456.5 1799.12 Q1454.26 1798.75 1451.85 1798.01 L1451.85 1793.31 Q1453.93 1794.45 1456.16 1795 Q1458.38 1795.56 1460.86 1795.56 Q1464.86 1795.56 1467.2 1793.45 Q1469.54 1791.34 1469.54 1787.73 Q1469.54 1784.12 1467.2 1782.02 Q1464.86 1779.91 1460.86 1779.91 Q1458.98 1779.91 1457.11 1780.33 Q1455.25 1780.74 1453.31 1781.62 L1453.31 1764.26 Z" fill="#000000" fill-rule="nonzero" fill-opacity="1" /><path clip-path="url(#clip620)" d="M1493.42 1767.34 Q1489.81 1767.34 1487.98 1770.9 Q1486.18 1774.45 1486.18 1781.58 Q1486.18 1788.68 1487.98 1792.25 Q1489.81 1795.79 1493.42 1795.79 Q1497.06 1795.79 1498.86 1792.25 Q1500.69 1788.68 1500.69 1781.58 Q1500.69 1774.45 1498.86 1770.9 Q1497.06 1767.34 1493.42 1767.34 M1493.42 1763.64 Q1499.23 1763.64 1502.29 1768.24 Q1505.37 1772.83 1505.37 1781.58 Q1505.37 1790.3 1502.29 1794.91 Q1499.23 1799.49 1493.42 1799.49 Q1487.61 1799.49 1484.54 1794.91 Q1481.48 1790.3 1481.48 1781.58 Q1481.48 1772.83 1484.54 1768.24 Q1487.61 1763.64 1493.42 1763.64 Z" fill="#000000" fill-rule="nonzero" fill-opacity="1" /><path clip-path="url(#clip620)" d="M1981.28 1767.34 Q1977.67 1767.34 1975.84 1770.9 Q1974.04 1774.45 1974.04 1781.58 Q1974.04 1788.68 1975.84 1792.25 Q1977.67 1795.79 1981.28 1795.79 Q1984.92 1795.79 1986.72 1792.25 Q1988.55 1788.68 1988.55 1781.58 Q1988.55 1774.45 1986.72 1770.9 Q1984.92 1767.34 1981.28 1767.34 M1981.28 1763.64 Q1987.09 1763.64 1990.15 1768.24 Q1993.23 1772.83 1993.23 1781.58 Q1993.23 1790.3 1990.15 1794.91 Q1987.09 1799.49 1981.28 1799.49 Q1975.47 1799.49 1972.39 1794.91 Q1969.34 1790.3 1969.34 1781.58 Q1969.34 1772.83 1972.39 1768.24 Q1975.47 1763.64 1981.28 1763.64 Z" fill="#000000" fill-rule="nonzero" fill-opacity="1" /><path clip-path="url(#clip620)" d="M2001.44 1792.94 L2006.33 1792.94 L2006.33 1798.82 L2001.44 1798.82 L2001.44 1792.94 Z" fill="#000000" fill-rule="nonzero" fill-opacity="1" /><path clip-path="url(#clip620)" d="M2015.33 1764.26 L2037.56 1764.26 L2037.56 1766.25 L2025.01 1798.82 L2020.12 1798.82 L2031.93 1768.2 L2015.33 1768.2 L2015.33 1764.26 Z" fill="#000000" fill-rule="nonzero" fill-opacity="1" /><path clip-path="url(#clip620)" d="M2046.72 1764.26 L2065.08 1764.26 L2065.08 1768.2 L2051 1768.2 L2051 1776.67 Q2052.02 1776.32 2053.04 1776.16 Q2054.06 1775.97 2055.08 1775.97 Q2060.87 1775.97 2064.24 1779.15 Q2067.62 1782.32 2067.62 1787.73 Q2067.62 1793.31 2064.15 1796.41 Q2060.68 1799.49 2054.36 1799.49 Q2052.18 1799.49 2049.92 1799.12 Q2047.67 1798.75 2045.26 1798.01 L2045.26 1793.31 Q2047.35 1794.45 2049.57 1795 Q2051.79 1795.56 2054.27 1795.56 Q2058.27 1795.56 2060.61 1793.45 Q2062.95 1791.34 2062.95 1787.73 Q2062.95 1784.12 2060.61 1782.02 Q2058.27 1779.91 2054.27 1779.91 Q2052.39 1779.91 2050.52 1780.33 Q2048.67 1780.74 2046.72 1781.62 L2046.72 1764.26 Z" fill="#000000" fill-rule="nonzero" fill-opacity="1" /><path clip-path="url(#clip620)" d="M2533.31 1794.89 L2540.95 1794.89 L2540.95 1768.52 L2532.64 1770.19 L2532.64 1765.93 L2540.9 1764.26 L2545.57 1764.26 L2545.57 1794.89 L2553.21 1794.89 L2553.21 1798.82 L2533.31 1798.82 L2533.31 1794.89 Z" fill="#000000" fill-rule="nonzero" fill-opacity="1" /><path clip-path="url(#clip620)" d="M2562.66 1792.94 L2567.54 1792.94 L2567.54 1798.82 L2562.66 1798.82 L2562.66 1792.94 Z" fill="#000000" fill-rule="nonzero" fill-opacity="1" /><path clip-path="url(#clip620)" d="M2587.73 1767.34 Q2584.12 1767.34 2582.29 1770.9 Q2580.48 1774.45 2580.48 1781.58 Q2580.48 1788.68 2582.29 1792.25 Q2584.12 1795.79 2587.73 1795.79 Q2591.36 1795.79 2593.17 1792.25 Q2595 1788.68 2595 1781.58 Q2595 1774.45 2593.17 1770.9 Q2591.36 1767.34 2587.73 1767.34 M2587.73 1763.64 Q2593.54 1763.64 2596.59 1768.24 Q2599.67 1772.83 2599.67 1781.58 Q2599.67 1790.3 2596.59 1794.91 Q2593.54 1799.49 2587.73 1799.49 Q2581.92 1799.49 2578.84 1794.91 Q2575.78 1790.3 2575.78 1781.58 Q2575.78 1772.83 2578.84 1768.24 Q2581.92 1763.64 2587.73 1763.64 Z" fill="#000000" fill-rule="nonzero" fill-opacity="1" /><path clip-path="url(#clip620)" d="M2617.89 1767.34 Q2614.28 1767.34 2612.45 1770.9 Q2610.64 1774.45 2610.64 1781.58 Q2610.64 1788.68 2612.45 1792.25 Q2614.28 1795.79 2617.89 1795.79 Q2621.52 1795.79 2623.33 1792.25 Q2625.16 1788.68 2625.16 1781.58 Q2625.16 1774.45 2623.33 1770.9 Q2621.52 1767.34 2617.89 1767.34 M2617.89 1763.64 Q2623.7 1763.64 2626.76 1768.24 Q2629.83 1772.83 2629.83 1781.58 Q2629.83 1790.3 2626.76 1794.91 Q2623.7 1799.49 2617.89 1799.49 Q2612.08 1799.49 2609 1794.91 Q2605.94 1790.3 2605.94 1781.58 Q2605.94 1772.83 2609 1768.24 Q2612.08 1763.64 2617.89 1763.64 Z" fill="#000000" fill-rule="nonzero" fill-opacity="1" /><path clip-path="url(#clip620)" d="M1468.73 1847.65 L1455.84 1865 L1469.4 1883.3 L1462.49 1883.3 L1452.12 1869.3 L1441.74 1883.3 L1434.83 1883.3 L1448.68 1864.65 L1436.01 1847.65 L1442.92 1847.65 L1452.37 1860.35 L1461.82 1847.65 L1468.73 1847.65 Z" fill="#000000" fill-rule="nonzero" fill-opacity="1" /><polyline clip-path="url(#clip620)" style="stroke:#000000; stroke-linecap:round; stroke-linejoin:round; stroke-width:4; stroke-opacity:1; fill:none" points="263.478,1734.12 263.478,127.792 "/>
<polyline clip-path="url(#clip620)" style="stroke:#000000; stroke-linecap:round; stroke-linejoin:round; stroke-width:4; stroke-opacity:1; fill:none" points="263.478,1541.54 282.376,1541.54 "/>
<polyline clip-path="url(#clip620)" style="stroke:#000000; stroke-linecap:round; stroke-linejoin:round; stroke-width:4; stroke-opacity:1; fill:none" points="263.478,1216.36 282.376,1216.36 "/>
<polyline clip-path="url(#clip620)" style="stroke:#000000; stroke-linecap:round; stroke-linejoin:round; stroke-width:4; stroke-opacity:1; fill:none" points="263.478,891.179 282.376,891.179 "/>
<polyline clip-path="url(#clip620)" style="stroke:#000000; stroke-linecap:round; stroke-linejoin:round; stroke-width:4; stroke-opacity:1; fill:none" points="263.478,566 282.376,566 "/>
<polyline clip-path="url(#clip620)" style="stroke:#000000; stroke-linecap:round; stroke-linejoin:round; stroke-width:4; stroke-opacity:1; fill:none" points="263.478,240.822 282.376,240.822 "/>
<path clip-path="url(#clip620)" d="M116.214 1541.99 L145.89 1541.99 L145.89 1545.92 L116.214 1545.92 L116.214 1541.99 Z" fill="#000000" fill-rule="nonzero" fill-opacity="1" /><path clip-path="url(#clip620)" d="M156.793 1554.88 L164.432 1554.88 L164.432 1528.52 L156.122 1530.18 L156.122 1525.92 L164.385 1524.26 L169.061 1524.26 L169.061 1554.88 L176.7 1554.88 L176.7 1558.82 L156.793 1558.82 L156.793 1554.88 Z" fill="#000000" fill-rule="nonzero" fill-opacity="1" /><path clip-path="url(#clip620)" d="M186.145 1552.94 L191.029 1552.94 L191.029 1558.82 L186.145 1558.82 L186.145 1552.94 Z" fill="#000000" fill-rule="nonzero" fill-opacity="1" /><path clip-path="url(#clip620)" d="M211.214 1527.33 Q207.603 1527.33 205.774 1530.9 Q203.969 1534.44 203.969 1541.57 Q203.969 1548.68 205.774 1552.24 Q207.603 1555.78 211.214 1555.78 Q214.848 1555.78 216.654 1552.24 Q218.482 1548.68 218.482 1541.57 Q218.482 1534.44 216.654 1530.9 Q214.848 1527.33 211.214 1527.33 M211.214 1523.63 Q217.024 1523.63 220.08 1528.24 Q223.158 1532.82 223.158 1541.57 Q223.158 1550.3 220.08 1554.9 Q217.024 1559.49 211.214 1559.49 Q205.404 1559.49 202.325 1554.9 Q199.27 1550.3 199.27 1541.57 Q199.27 1532.82 202.325 1528.24 Q205.404 1523.63 211.214 1523.63 Z" fill="#000000" fill-rule="nonzero" fill-opacity="1" /><path clip-path="url(#clip620)" d="M117.21 1216.81 L146.886 1216.81 L146.886 1220.74 L117.21 1220.74 L117.21 1216.81 Z" fill="#000000" fill-rule="nonzero" fill-opacity="1" /><path clip-path="url(#clip620)" d="M166.978 1202.16 Q163.367 1202.16 161.538 1205.72 Q159.733 1209.26 159.733 1216.39 Q159.733 1223.5 161.538 1227.06 Q163.367 1230.61 166.978 1230.61 Q170.612 1230.61 172.418 1227.06 Q174.247 1223.5 174.247 1216.39 Q174.247 1209.26 172.418 1205.72 Q170.612 1202.16 166.978 1202.16 M166.978 1198.45 Q172.788 1198.45 175.844 1203.06 Q178.922 1207.64 178.922 1216.39 Q178.922 1225.12 175.844 1229.73 Q172.788 1234.31 166.978 1234.31 Q161.168 1234.31 158.089 1229.73 Q155.034 1225.12 155.034 1216.39 Q155.034 1207.64 158.089 1203.06 Q161.168 1198.45 166.978 1198.45 Z" fill="#000000" fill-rule="nonzero" fill-opacity="1" /><path clip-path="url(#clip620)" d="M187.14 1227.76 L192.024 1227.76 L192.024 1233.64 L187.14 1233.64 L187.14 1227.76 Z" fill="#000000" fill-rule="nonzero" fill-opacity="1" /><path clip-path="url(#clip620)" d="M202.256 1199.08 L220.612 1199.08 L220.612 1203.01 L206.538 1203.01 L206.538 1211.48 Q207.557 1211.14 208.575 1210.98 Q209.594 1210.79 210.612 1210.79 Q216.399 1210.79 219.779 1213.96 Q223.158 1217.13 223.158 1222.55 Q223.158 1228.13 219.686 1231.23 Q216.214 1234.31 209.894 1234.31 Q207.719 1234.31 205.45 1233.94 Q203.205 1233.57 200.797 1232.83 L200.797 1228.13 Q202.881 1229.26 205.103 1229.82 Q207.325 1230.37 209.802 1230.37 Q213.807 1230.37 216.144 1228.27 Q218.482 1226.16 218.482 1222.55 Q218.482 1218.94 216.144 1216.83 Q213.807 1214.73 209.802 1214.73 Q207.927 1214.73 206.052 1215.14 Q204.2 1215.56 202.256 1216.44 L202.256 1199.08 Z" fill="#000000" fill-rule="nonzero" fill-opacity="1" /><path clip-path="url(#clip620)" d="M165.983 876.978 Q162.372 876.978 160.543 880.542 Q158.737 884.084 158.737 891.214 Q158.737 898.32 160.543 901.885 Q162.372 905.426 165.983 905.426 Q169.617 905.426 171.422 901.885 Q173.251 898.32 173.251 891.214 Q173.251 884.084 171.422 880.542 Q169.617 876.978 165.983 876.978 M165.983 873.274 Q171.793 873.274 174.848 877.88 Q177.927 882.464 177.927 891.214 Q177.927 899.94 174.848 904.547 Q171.793 909.13 165.983 909.13 Q160.173 909.13 157.094 904.547 Q154.038 899.94 154.038 891.214 Q154.038 882.464 157.094 877.88 Q160.173 873.274 165.983 873.274 Z" fill="#000000" fill-rule="nonzero" fill-opacity="1" /><path clip-path="url(#clip620)" d="M186.145 902.579 L191.029 902.579 L191.029 908.459 L186.145 908.459 L186.145 902.579 Z" fill="#000000" fill-rule="nonzero" fill-opacity="1" /><path clip-path="url(#clip620)" d="M211.214 876.978 Q207.603 876.978 205.774 880.542 Q203.969 884.084 203.969 891.214 Q203.969 898.32 205.774 901.885 Q207.603 905.426 211.214 905.426 Q214.848 905.426 216.654 901.885 Q218.482 898.32 218.482 891.214 Q218.482 884.084 216.654 880.542 Q214.848 876.978 211.214 876.978 M211.214 873.274 Q217.024 873.274 220.08 877.88 Q223.158 882.464 223.158 891.214 Q223.158 899.94 220.08 904.547 Q217.024 909.13 211.214 909.13 Q205.404 909.13 202.325 904.547 Q199.27 899.94 199.27 891.214 Q199.27 882.464 202.325 877.88 Q205.404 873.274 211.214 873.274 Z" fill="#000000" fill-rule="nonzero" fill-opacity="1" /><path clip-path="url(#clip620)" d="M166.978 551.799 Q163.367 551.799 161.538 555.364 Q159.733 558.905 159.733 566.035 Q159.733 573.141 161.538 576.706 Q163.367 580.248 166.978 580.248 Q170.612 580.248 172.418 576.706 Q174.247 573.141 174.247 566.035 Q174.247 558.905 172.418 555.364 Q170.612 551.799 166.978 551.799 M166.978 548.095 Q172.788 548.095 175.844 552.702 Q178.922 557.285 178.922 566.035 Q178.922 574.762 175.844 579.368 Q172.788 583.952 166.978 583.952 Q161.168 583.952 158.089 579.368 Q155.034 574.762 155.034 566.035 Q155.034 557.285 158.089 552.702 Q161.168 548.095 166.978 548.095 Z" fill="#000000" fill-rule="nonzero" fill-opacity="1" /><path clip-path="url(#clip620)" d="M187.14 577.401 L192.024 577.401 L192.024 583.28 L187.14 583.28 L187.14 577.401 Z" fill="#000000" fill-rule="nonzero" fill-opacity="1" /><path clip-path="url(#clip620)" d="M202.256 548.72 L220.612 548.72 L220.612 552.655 L206.538 552.655 L206.538 561.128 Q207.557 560.78 208.575 560.618 Q209.594 560.433 210.612 560.433 Q216.399 560.433 219.779 563.604 Q223.158 566.776 223.158 572.192 Q223.158 577.771 219.686 580.873 Q216.214 583.952 209.894 583.952 Q207.719 583.952 205.45 583.581 Q203.205 583.211 200.797 582.47 L200.797 577.771 Q202.881 578.905 205.103 579.461 Q207.325 580.016 209.802 580.016 Q213.807 580.016 216.144 577.91 Q218.482 575.803 218.482 572.192 Q218.482 568.581 216.144 566.475 Q213.807 564.368 209.802 564.368 Q207.927 564.368 206.052 564.785 Q204.2 565.202 202.256 566.081 L202.256 548.72 Z" fill="#000000" fill-rule="nonzero" fill-opacity="1" /><path clip-path="url(#clip620)" d="M156.793 254.167 L164.432 254.167 L164.432 227.801 L156.122 229.468 L156.122 225.208 L164.385 223.542 L169.061 223.542 L169.061 254.167 L176.7 254.167 L176.7 258.102 L156.793 258.102 L156.793 254.167 Z" fill="#000000" fill-rule="nonzero" fill-opacity="1" /><path clip-path="url(#clip620)" d="M186.145 252.222 L191.029 252.222 L191.029 258.102 L186.145 258.102 L186.145 252.222 Z" fill="#000000" fill-rule="nonzero" fill-opacity="1" /><path clip-path="url(#clip620)" d="M211.214 226.62 Q207.603 226.62 205.774 230.185 Q203.969 233.727 203.969 240.856 Q203.969 247.963 205.774 251.528 Q207.603 255.069 211.214 255.069 Q214.848 255.069 216.654 251.528 Q218.482 247.963 218.482 240.856 Q218.482 233.727 216.654 230.185 Q214.848 226.62 211.214 226.62 M211.214 222.917 Q217.024 222.917 220.08 227.523 Q223.158 232.106 223.158 240.856 Q223.158 249.583 220.08 254.19 Q217.024 258.773 211.214 258.773 Q205.404 258.773 202.325 254.19 Q199.27 249.583 199.27 240.856 Q199.27 232.106 202.325 227.523 Q205.404 222.917 211.214 222.917 Z" fill="#000000" fill-rule="nonzero" fill-opacity="1" /><path clip-path="url(#clip620)" d="M12.1132 960.905 L16.983 960.905 L16.983 966.507 Q16.983 969.658 18.2562 970.899 Q19.5293 972.109 22.8395 972.109 L25.9905 972.109 L25.9905 962.465 L30.542 962.465 L30.542 972.109 L61.6384 972.109 L61.6384 977.997 L30.542 977.997 L30.542 983.599 L25.9905 983.599 L25.9905 977.997 L23.5079 977.997 Q17.5559 977.997 14.8505 975.228 Q12.1132 972.459 12.1132 966.443 L12.1132 960.905 Z" fill="#000000" fill-rule="nonzero" fill-opacity="1" /><path clip-path="url(#clip620)" d="M12.1769 941.935 Q19.4975 946.2 26.6589 948.269 Q33.8203 950.338 41.1727 950.338 Q48.5251 950.338 55.7502 948.269 Q62.9434 946.169 70.2321 941.935 L70.2321 947.028 Q62.7524 951.802 55.5274 954.189 Q48.3023 956.545 41.1727 956.545 Q34.0749 956.545 26.8817 954.189 Q19.6884 951.834 12.1769 947.028 L12.1769 941.935 Z" fill="#000000" fill-rule="nonzero" fill-opacity="1" /><path clip-path="url(#clip620)" d="M25.9905 900.94 L43.337 913.831 L61.6384 900.272 L61.6384 907.179 L47.6339 917.555 L61.6384 927.931 L61.6384 934.838 L42.9869 920.992 L25.9905 933.66 L25.9905 926.753 L38.6901 917.3 L25.9905 907.847 L25.9905 900.94 Z" fill="#000000" fill-rule="nonzero" fill-opacity="1" /><path clip-path="url(#clip620)" d="M12.1769 892.919 L12.1769 887.827 Q19.6884 883.053 26.8817 880.697 Q34.0749 878.31 41.1727 878.31 Q48.3023 878.31 55.5274 880.697 Q62.7524 883.053 70.2321 887.827 L70.2321 892.919 Q62.9434 888.686 55.7502 886.617 Q48.5251 884.517 41.1727 884.517 Q33.8203 884.517 26.6589 886.617 Q19.4975 888.686 12.1769 892.919 Z" fill="#000000" fill-rule="nonzero" fill-opacity="1" /><path clip-path="url(#clip620)" d="M829.007 14.0809 L829.007 22.0612 Q824.348 19.8332 820.217 18.7395 Q816.085 17.6457 812.236 17.6457 Q805.552 17.6457 801.906 20.2383 Q798.301 22.8309 798.301 27.611 Q798.301 31.6214 800.691 33.6873 Q803.122 35.7128 809.846 36.9686 L814.788 37.9813 Q823.943 39.7232 828.278 44.1387 Q832.653 48.5136 832.653 55.8863 Q832.653 64.6767 826.739 69.2137 Q820.865 73.7508 809.482 73.7508 Q805.188 73.7508 800.327 72.7785 Q795.506 71.8063 790.321 69.9024 L790.321 61.4765 Q795.303 64.2716 800.084 65.6895 Q804.864 67.1073 809.482 67.1073 Q816.49 67.1073 820.298 64.3527 Q824.105 61.598 824.105 56.4939 Q824.105 52.0379 821.351 49.5264 Q818.637 47.0148 812.398 45.759 L807.416 44.7868 Q798.261 42.9639 794.169 39.075 Q790.078 35.1862 790.078 28.2591 Q790.078 20.2383 795.709 15.6203 Q801.38 11.0023 811.305 11.0023 Q815.558 11.0023 819.974 11.7719 Q824.389 12.5416 829.007 14.0809 Z" fill="#000000" fill-rule="nonzero" fill-opacity="1" /><path clip-path="url(#clip620)" d="M880.413 35.9153 Q883.208 30.8922 887.097 28.5022 Q890.986 26.1121 896.252 26.1121 Q903.341 26.1121 907.189 31.0947 Q911.038 36.0368 911.038 45.1919 L911.038 72.576 L903.544 72.576 L903.544 45.4349 Q903.544 38.913 901.235 35.7533 Q898.926 32.5936 894.186 32.5936 Q888.393 32.5936 885.031 36.4419 Q881.669 40.2903 881.669 46.9338 L881.669 72.576 L874.175 72.576 L874.175 45.4349 Q874.175 38.8725 871.866 35.7533 Q869.557 32.5936 864.736 32.5936 Q859.024 32.5936 855.662 36.4824 Q852.3 40.3308 852.3 46.9338 L852.3 72.576 L844.806 72.576 L844.806 27.2059 L852.3 27.2059 L852.3 34.2544 Q854.852 30.082 858.417 28.0971 Q861.981 26.1121 866.883 26.1121 Q871.825 26.1121 875.268 28.6237 Q878.752 31.1352 880.413 35.9153 Z" fill="#000000" fill-rule="nonzero" fill-opacity="1" /><path clip-path="url(#clip620)" d="M943.486 32.4315 Q937.49 32.4315 934.006 37.1306 Q930.523 41.7891 930.523 49.9314 Q930.523 58.0738 933.966 62.7728 Q937.45 67.4314 943.486 67.4314 Q949.44 67.4314 952.924 62.7323 Q956.408 58.0333 956.408 49.9314 Q956.408 41.8701 952.924 37.1711 Q949.44 32.4315 943.486 32.4315 M943.486 26.1121 Q953.208 26.1121 958.757 32.4315 Q964.307 38.7509 964.307 49.9314 Q964.307 61.0714 958.757 67.4314 Q953.208 73.7508 943.486 73.7508 Q933.723 73.7508 928.173 67.4314 Q922.664 61.0714 922.664 49.9314 Q922.664 38.7509 928.173 32.4315 Q933.723 26.1121 943.486 26.1121 Z" fill="#000000" fill-rule="nonzero" fill-opacity="1" /><path clip-path="url(#clip620)" d="M994.243 32.4315 Q988.248 32.4315 984.764 37.1306 Q981.281 41.7891 981.281 49.9314 Q981.281 58.0738 984.724 62.7728 Q988.208 67.4314 994.243 67.4314 Q1000.2 67.4314 1003.68 62.7323 Q1007.17 58.0333 1007.17 49.9314 Q1007.17 41.8701 1003.68 37.1711 Q1000.2 32.4315 994.243 32.4315 M994.243 26.1121 Q1003.97 26.1121 1009.52 32.4315 Q1015.07 38.7509 1015.07 49.9314 Q1015.07 61.0714 1009.52 67.4314 Q1003.97 73.7508 994.243 73.7508 Q984.481 73.7508 978.931 67.4314 Q973.422 61.0714 973.422 49.9314 Q973.422 38.7509 978.931 32.4315 Q984.481 26.1121 994.243 26.1121 Z" fill="#000000" fill-rule="nonzero" fill-opacity="1" /><path clip-path="url(#clip620)" d="M1034.79 14.324 L1034.79 27.2059 L1050.15 27.2059 L1050.15 32.9987 L1034.79 32.9987 L1034.79 57.6282 Q1034.79 63.1779 1036.29 64.7578 Q1037.83 66.3376 1042.49 66.3376 L1050.15 66.3376 L1050.15 72.576 L1042.49 72.576 Q1033.86 72.576 1030.58 69.3758 Q1027.3 66.1351 1027.3 57.6282 L1027.3 32.9987 L1021.83 32.9987 L1021.83 27.2059 L1027.3 27.2059 L1027.3 14.324 L1034.79 14.324 Z" fill="#000000" fill-rule="nonzero" fill-opacity="1" /><path clip-path="url(#clip620)" d="M1097.66 45.1919 L1097.66 72.576 L1090.21 72.576 L1090.21 45.4349 Q1090.21 38.994 1087.7 35.7938 Q1085.19 32.5936 1080.16 32.5936 Q1074.13 32.5936 1070.64 36.4419 Q1067.16 40.2903 1067.16 46.9338 L1067.16 72.576 L1059.67 72.576 L1059.67 9.54393 L1067.16 9.54393 L1067.16 34.2544 Q1069.83 30.163 1073.44 28.1376 Q1077.08 26.1121 1081.82 26.1121 Q1089.64 26.1121 1093.65 30.9732 Q1097.66 35.7938 1097.66 45.1919 Z" fill="#000000" fill-rule="nonzero" fill-opacity="1" /><path clip-path="url(#clip620)" d="M1177.71 48.0275 L1177.71 51.6733 L1143.44 51.6733 Q1143.92 59.3701 1148.06 63.421 Q1152.23 67.4314 1159.64 67.4314 Q1163.94 67.4314 1167.95 66.3781 Q1172 65.3249 1175.97 63.2184 L1175.97 70.267 Q1171.96 71.9684 1167.74 72.8596 Q1163.53 73.7508 1159.2 73.7508 Q1148.34 73.7508 1141.98 67.4314 Q1135.66 61.1119 1135.66 50.3365 Q1135.66 39.1965 1141.66 32.6746 Q1147.69 26.1121 1157.9 26.1121 Q1167.05 26.1121 1172.36 32.0264 Q1177.71 37.9003 1177.71 48.0275 M1170.26 45.84 Q1170.17 39.7232 1166.81 36.0774 Q1163.49 32.4315 1157.98 32.4315 Q1151.74 32.4315 1147.98 35.9558 Q1144.25 39.4801 1143.68 45.8805 L1170.26 45.84 Z" fill="#000000" fill-rule="nonzero" fill-opacity="1" /><path clip-path="url(#clip620)" d="M1218.87 28.5427 L1218.87 35.5912 Q1215.71 33.9709 1212.3 33.1607 Q1208.9 32.3505 1205.26 32.3505 Q1199.71 32.3505 1196.91 34.0519 Q1194.16 35.7533 1194.16 39.156 Q1194.16 41.7486 1196.14 43.2475 Q1198.13 44.7058 1204.12 46.0426 L1206.67 46.6097 Q1214.61 48.3111 1217.93 51.4303 Q1221.3 54.509 1221.3 60.0587 Q1221.3 66.3781 1216.27 70.0644 Q1211.29 73.7508 1202.54 73.7508 Q1198.9 73.7508 1194.93 73.0216 Q1191 72.3329 1186.62 70.9151 L1186.62 63.2184 Q1190.75 65.3654 1194.76 66.4591 Q1198.77 67.5124 1202.7 67.5124 Q1207.97 67.5124 1210.8 65.73 Q1213.64 63.9071 1213.64 60.6258 Q1213.64 57.5877 1211.57 55.9673 Q1209.55 54.3469 1202.62 52.8481 L1200.03 52.2405 Q1193.1 50.7821 1190.02 47.7845 Q1186.94 44.7463 1186.94 39.4801 Q1186.94 33.0797 1191.48 29.5959 Q1196.02 26.1121 1204.36 26.1121 Q1208.5 26.1121 1212.14 26.7198 Q1215.79 27.3274 1218.87 28.5427 Z" fill="#000000" fill-rule="nonzero" fill-opacity="1" /><path clip-path="url(#clip620)" d="M1240.54 14.324 L1240.54 27.2059 L1255.89 27.2059 L1255.89 32.9987 L1240.54 32.9987 L1240.54 57.6282 Q1240.54 63.1779 1242.04 64.7578 Q1243.58 66.3376 1248.24 66.3376 L1255.89 66.3376 L1255.89 72.576 L1248.24 72.576 Q1239.61 72.576 1236.33 69.3758 Q1233.04 66.1351 1233.04 57.6282 L1233.04 32.9987 L1227.58 32.9987 L1227.58 27.2059 L1233.04 27.2059 L1233.04 14.324 L1240.54 14.324 Z" fill="#000000" fill-rule="nonzero" fill-opacity="1" /><path clip-path="url(#clip620)" d="M1265.69 27.2059 L1273.15 27.2059 L1273.15 72.576 L1265.69 72.576 L1265.69 27.2059 M1265.69 9.54393 L1273.15 9.54393 L1273.15 18.9825 L1265.69 18.9825 L1265.69 9.54393 Z" fill="#000000" fill-rule="nonzero" fill-opacity="1" /><path clip-path="url(#clip620)" d="M1324.07 35.9153 Q1326.86 30.8922 1330.75 28.5022 Q1334.64 26.1121 1339.91 26.1121 Q1347 26.1121 1350.84 31.0947 Q1354.69 36.0368 1354.69 45.1919 L1354.69 72.576 L1347.2 72.576 L1347.2 45.4349 Q1347.2 38.913 1344.89 35.7533 Q1342.58 32.5936 1337.84 32.5936 Q1332.05 32.5936 1328.69 36.4419 Q1325.32 40.2903 1325.32 46.9338 L1325.32 72.576 L1317.83 72.576 L1317.83 45.4349 Q1317.83 38.8725 1315.52 35.7533 Q1313.21 32.5936 1308.39 32.5936 Q1302.68 32.5936 1299.32 36.4824 Q1295.95 40.3308 1295.95 46.9338 L1295.95 72.576 L1288.46 72.576 L1288.46 27.2059 L1295.95 27.2059 L1295.95 34.2544 Q1298.51 30.082 1302.07 28.0971 Q1305.64 26.1121 1310.54 26.1121 Q1315.48 26.1121 1318.92 28.6237 Q1322.41 31.1352 1324.07 35.9153 Z" fill="#000000" fill-rule="nonzero" fill-opacity="1" /><path clip-path="url(#clip620)" d="M1390.18 49.7694 Q1381.15 49.7694 1377.66 51.8354 Q1374.18 53.9013 1374.18 58.8839 Q1374.18 62.8538 1376.77 65.2034 Q1379.4 67.5124 1383.9 67.5124 Q1390.1 67.5124 1393.82 63.1374 Q1397.59 58.7219 1397.59 51.4303 L1397.59 49.7694 L1390.18 49.7694 M1405.05 46.6907 L1405.05 72.576 L1397.59 72.576 L1397.59 65.6895 Q1395.04 69.8214 1391.23 71.8063 Q1387.42 73.7508 1381.91 73.7508 Q1374.95 73.7508 1370.82 69.8619 Q1366.72 65.9325 1366.72 59.3701 Q1366.72 51.7138 1371.83 47.825 Q1376.97 43.9361 1387.14 43.9361 L1397.59 43.9361 L1397.59 43.2069 Q1397.59 38.0623 1394.19 35.2672 Q1390.83 32.4315 1384.71 32.4315 Q1380.82 32.4315 1377.13 33.3632 Q1373.45 34.295 1370.05 36.1584 L1370.05 29.2718 Q1374.14 27.692 1377.99 26.9223 Q1381.83 26.1121 1385.48 26.1121 Q1395.32 26.1121 1400.18 31.2163 Q1405.05 36.3204 1405.05 46.6907 Z" fill="#000000" fill-rule="nonzero" fill-opacity="1" /><path clip-path="url(#clip620)" d="M1427.77 14.324 L1427.77 27.2059 L1443.12 27.2059 L1443.12 32.9987 L1427.77 32.9987 L1427.77 57.6282 Q1427.77 63.1779 1429.27 64.7578 Q1430.81 66.3376 1435.47 66.3376 L1443.12 66.3376 L1443.12 72.576 L1435.47 72.576 Q1426.84 72.576 1423.56 69.3758 Q1420.28 66.1351 1420.28 57.6282 L1420.28 32.9987 L1414.81 32.9987 L1414.81 27.2059 L1420.28 27.2059 L1420.28 14.324 L1427.77 14.324 Z" fill="#000000" fill-rule="nonzero" fill-opacity="1" /><path clip-path="url(#clip620)" d="M1491.73 48.0275 L1491.73 51.6733 L1457.46 51.6733 Q1457.95 59.3701 1462.08 63.421 Q1466.25 67.4314 1473.67 67.4314 Q1477.96 67.4314 1481.97 66.3781 Q1486.02 65.3249 1489.99 63.2184 L1489.99 70.267 Q1485.98 71.9684 1481.77 72.8596 Q1477.56 73.7508 1473.22 73.7508 Q1462.37 73.7508 1456.01 67.4314 Q1449.69 61.1119 1449.69 50.3365 Q1449.69 39.1965 1455.68 32.6746 Q1461.72 26.1121 1471.93 26.1121 Q1481.08 26.1121 1486.39 32.0264 Q1491.73 37.9003 1491.73 48.0275 M1484.28 45.84 Q1484.2 39.7232 1480.84 36.0774 Q1477.52 32.4315 1472.01 32.4315 Q1465.77 32.4315 1462 35.9558 Q1458.27 39.4801 1457.71 45.8805 L1484.28 45.84 Z" fill="#000000" fill-rule="nonzero" fill-opacity="1" /><path clip-path="url(#clip620)" d="M1532.89 28.5427 L1532.89 35.5912 Q1529.73 33.9709 1526.33 33.1607 Q1522.93 32.3505 1519.28 32.3505 Q1513.73 32.3505 1510.94 34.0519 Q1508.18 35.7533 1508.18 39.156 Q1508.18 41.7486 1510.17 43.2475 Q1512.15 44.7058 1518.15 46.0426 L1520.7 46.6097 Q1528.64 48.3111 1531.96 51.4303 Q1535.32 54.509 1535.32 60.0587 Q1535.32 66.3781 1530.3 70.0644 Q1525.32 73.7508 1516.57 73.7508 Q1512.92 73.7508 1508.95 73.0216 Q1505.02 72.3329 1500.65 70.9151 L1500.65 63.2184 Q1504.78 65.3654 1508.79 66.4591 Q1512.8 67.5124 1516.73 67.5124 Q1522 67.5124 1524.83 65.73 Q1527.67 63.9071 1527.67 60.6258 Q1527.67 57.5877 1525.6 55.9673 Q1523.58 54.3469 1516.65 52.8481 L1514.06 52.2405 Q1507.13 50.7821 1504.05 47.7845 Q1500.97 44.7463 1500.97 39.4801 Q1500.97 33.0797 1505.51 29.5959 Q1510.05 26.1121 1518.39 26.1121 Q1522.52 26.1121 1526.17 26.7198 Q1529.81 27.3274 1532.89 28.5427 Z" fill="#000000" fill-rule="nonzero" fill-opacity="1" /><path clip-path="url(#clip620)" d="M1606.13 49.9314 Q1606.13 41.7081 1602.73 37.0496 Q1599.37 32.3505 1593.45 32.3505 Q1587.54 32.3505 1584.14 37.0496 Q1580.77 41.7081 1580.77 49.9314 Q1580.77 58.1548 1584.14 62.8538 Q1587.54 67.5124 1593.45 67.5124 Q1599.37 67.5124 1602.73 62.8538 Q1606.13 58.1548 1606.13 49.9314 M1580.77 34.0924 Q1583.12 30.0415 1586.69 28.0971 Q1590.29 26.1121 1595.28 26.1121 Q1603.54 26.1121 1608.68 32.6746 Q1613.87 39.2371 1613.87 49.9314 Q1613.87 60.6258 1608.68 67.1883 Q1603.54 73.7508 1595.28 73.7508 Q1590.29 73.7508 1586.69 71.8063 Q1583.12 69.8214 1580.77 65.7705 L1580.77 72.576 L1573.28 72.576 L1573.28 9.54393 L1580.77 9.54393 L1580.77 34.0924 Z" fill="#000000" fill-rule="nonzero" fill-opacity="1" /><path clip-path="url(#clip620)" d="M1645.1 76.7889 Q1641.94 84.8907 1638.94 87.3618 Q1635.95 89.8329 1630.92 89.8329 L1624.97 89.8329 L1624.97 83.5945 L1629.34 83.5945 Q1632.42 83.5945 1634.12 82.1361 Q1635.83 80.6778 1637.89 75.2496 L1639.23 71.8468 L1620.88 27.2059 L1628.78 27.2059 L1642.96 62.6918 L1657.13 27.2059 L1665.03 27.2059 L1645.1 76.7889 Z" fill="#000000" fill-rule="nonzero" fill-opacity="1" /><path clip-path="url(#clip620)" d="M1734.26 49.9314 Q1734.26 41.7081 1730.86 37.0496 Q1727.5 32.3505 1721.58 32.3505 Q1715.67 32.3505 1712.27 37.0496 Q1708.9 41.7081 1708.9 49.9314 Q1708.9 58.1548 1712.27 62.8538 Q1715.67 67.5124 1721.58 67.5124 Q1727.5 67.5124 1730.86 62.8538 Q1734.26 58.1548 1734.26 49.9314 M1708.9 34.0924 Q1711.25 30.0415 1714.82 28.0971 Q1718.42 26.1121 1723.41 26.1121 Q1731.67 26.1121 1736.81 32.6746 Q1742 39.2371 1742 49.9314 Q1742 60.6258 1736.81 67.1883 Q1731.67 73.7508 1723.41 73.7508 Q1718.42 73.7508 1714.82 71.8063 Q1711.25 69.8214 1708.9 65.7705 L1708.9 72.576 L1701.41 72.576 L1701.41 9.54393 L1708.9 9.54393 L1708.9 34.0924 Z" fill="#000000" fill-rule="nonzero" fill-opacity="1" /><path clip-path="url(#clip620)" d="M1774.97 49.7694 Q1765.94 49.7694 1762.46 51.8354 Q1758.97 53.9013 1758.97 58.8839 Q1758.97 62.8538 1761.57 65.2034 Q1764.2 67.5124 1768.7 67.5124 Q1774.89 67.5124 1778.62 63.1374 Q1782.39 58.7219 1782.39 51.4303 L1782.39 49.7694 L1774.97 49.7694 M1789.84 46.6907 L1789.84 72.576 L1782.39 72.576 L1782.39 65.6895 Q1779.84 69.8214 1776.03 71.8063 Q1772.22 73.7508 1766.71 73.7508 Q1759.74 73.7508 1755.61 69.8619 Q1751.52 65.9325 1751.52 59.3701 Q1751.52 51.7138 1756.62 47.825 Q1761.77 43.9361 1771.94 43.9361 L1782.39 43.9361 L1782.39 43.2069 Q1782.39 38.0623 1778.98 35.2672 Q1775.62 32.4315 1769.51 32.4315 Q1765.62 32.4315 1761.93 33.3632 Q1758.24 34.295 1754.84 36.1584 L1754.84 29.2718 Q1758.93 27.692 1762.78 26.9223 Q1766.63 26.1121 1770.28 26.1121 Q1780.12 26.1121 1784.98 31.2163 Q1789.84 36.3204 1789.84 46.6907 Z" fill="#000000" fill-rule="nonzero" fill-opacity="1" /><path clip-path="url(#clip620)" d="M1834.12 28.5427 L1834.12 35.5912 Q1830.96 33.9709 1827.55 33.1607 Q1824.15 32.3505 1820.51 32.3505 Q1814.96 32.3505 1812.16 34.0519 Q1809.41 35.7533 1809.41 39.156 Q1809.41 41.7486 1811.39 43.2475 Q1813.38 44.7058 1819.37 46.0426 L1821.92 46.6097 Q1829.86 48.3111 1833.19 51.4303 Q1836.55 54.509 1836.55 60.0587 Q1836.55 66.3781 1831.52 70.0644 Q1826.54 73.7508 1817.79 73.7508 Q1814.15 73.7508 1810.18 73.0216 Q1806.25 72.3329 1801.87 70.9151 L1801.87 63.2184 Q1806 65.3654 1810.01 66.4591 Q1814.02 67.5124 1817.95 67.5124 Q1823.22 67.5124 1826.06 65.73 Q1828.89 63.9071 1828.89 60.6258 Q1828.89 57.5877 1826.83 55.9673 Q1824.8 54.3469 1817.87 52.8481 L1815.28 52.2405 Q1808.35 50.7821 1805.27 47.7845 Q1802.2 44.7463 1802.2 39.4801 Q1802.2 33.0797 1806.73 29.5959 Q1811.27 26.1121 1819.62 26.1121 Q1823.75 26.1121 1827.39 26.7198 Q1831.04 27.3274 1834.12 28.5427 Z" fill="#000000" fill-rule="nonzero" fill-opacity="1" /><path clip-path="url(#clip620)" d="M1848.42 27.2059 L1855.87 27.2059 L1855.87 72.576 L1848.42 72.576 L1848.42 27.2059 M1848.42 9.54393 L1855.87 9.54393 L1855.87 18.9825 L1848.42 18.9825 L1848.42 9.54393 Z" fill="#000000" fill-rule="nonzero" fill-opacity="1" /><path clip-path="url(#clip620)" d="M1900.39 28.5427 L1900.39 35.5912 Q1897.23 33.9709 1893.83 33.1607 Q1890.42 32.3505 1886.78 32.3505 Q1881.23 32.3505 1878.43 34.0519 Q1875.68 35.7533 1875.68 39.156 Q1875.68 41.7486 1877.66 43.2475 Q1879.65 44.7058 1885.64 46.0426 L1888.2 46.6097 Q1896.14 48.3111 1899.46 51.4303 Q1902.82 54.509 1902.82 60.0587 Q1902.82 66.3781 1897.8 70.0644 Q1892.81 73.7508 1884.07 73.7508 Q1880.42 73.7508 1876.45 73.0216 Q1872.52 72.3329 1868.14 70.9151 L1868.14 63.2184 Q1872.28 65.3654 1876.29 66.4591 Q1880.3 67.5124 1884.23 67.5124 Q1889.49 67.5124 1892.33 65.73 Q1895.16 63.9071 1895.16 60.6258 Q1895.16 57.5877 1893.1 55.9673 Q1891.07 54.3469 1884.15 52.8481 L1881.55 52.2405 Q1874.63 50.7821 1871.55 47.7845 Q1868.47 44.7463 1868.47 39.4801 Q1868.47 33.0797 1873.01 29.5959 Q1877.54 26.1121 1885.89 26.1121 Q1890.02 26.1121 1893.67 26.7198 Q1897.31 27.3274 1900.39 28.5427 Z" fill="#000000" fill-rule="nonzero" fill-opacity="1" /><path clip-path="url(#clip620)" d="M1948.43 14.324 L1948.43 27.2059 L1963.79 27.2059 L1963.79 32.9987 L1948.43 32.9987 L1948.43 57.6282 Q1948.43 63.1779 1949.93 64.7578 Q1951.47 66.3376 1956.13 66.3376 L1963.79 66.3376 L1963.79 72.576 L1956.13 72.576 Q1947.5 72.576 1944.22 69.3758 Q1940.94 66.1351 1940.94 57.6282 L1940.94 32.9987 L1935.47 32.9987 L1935.47 27.2059 L1940.94 27.2059 L1940.94 14.324 L1948.43 14.324 Z" fill="#000000" fill-rule="nonzero" fill-opacity="1" /><path clip-path="url(#clip620)" d="M1992.47 76.7889 Q1989.31 84.8907 1986.31 87.3618 Q1983.31 89.8329 1978.29 89.8329 L1972.33 89.8329 L1972.33 83.5945 L1976.71 83.5945 Q1979.79 83.5945 1981.49 82.1361 Q1983.19 80.6778 1985.26 75.2496 L1986.59 71.8468 L1968.24 27.2059 L1976.14 27.2059 L1990.32 62.6918 L2004.5 27.2059 L2012.4 27.2059 L1992.47 76.7889 Z" fill="#000000" fill-rule="nonzero" fill-opacity="1" /><path clip-path="url(#clip620)" d="M2029.9 65.7705 L2029.9 89.8329 L2022.4 89.8329 L2022.4 27.2059 L2029.9 27.2059 L2029.9 34.0924 Q2032.25 30.0415 2035.81 28.0971 Q2039.42 26.1121 2044.4 26.1121 Q2052.66 26.1121 2057.81 32.6746 Q2062.99 39.2371 2062.99 49.9314 Q2062.99 60.6258 2057.81 67.1883 Q2052.66 73.7508 2044.4 73.7508 Q2039.42 73.7508 2035.81 71.8063 Q2032.25 69.8214 2029.9 65.7705 M2055.26 49.9314 Q2055.26 41.7081 2051.85 37.0496 Q2048.49 32.3505 2042.58 32.3505 Q2036.66 32.3505 2033.26 37.0496 Q2029.9 41.7081 2029.9 49.9314 Q2029.9 58.1548 2033.26 62.8538 Q2036.66 67.5124 2042.58 67.5124 Q2048.49 67.5124 2051.85 62.8538 Q2055.26 58.1548 2055.26 49.9314 Z" fill="#000000" fill-rule="nonzero" fill-opacity="1" /><path clip-path="url(#clip620)" d="M2114.16 48.0275 L2114.16 51.6733 L2079.89 51.6733 Q2080.37 59.3701 2084.5 63.421 Q2088.68 67.4314 2096.09 67.4314 Q2100.38 67.4314 2104.39 66.3781 Q2108.44 65.3249 2112.41 63.2184 L2112.41 70.267 Q2108.4 71.9684 2104.19 72.8596 Q2099.98 73.7508 2095.64 73.7508 Q2084.79 73.7508 2078.43 67.4314 Q2072.11 61.1119 2072.11 50.3365 Q2072.11 39.1965 2078.1 32.6746 Q2084.14 26.1121 2094.35 26.1121 Q2103.5 26.1121 2108.81 32.0264 Q2114.16 37.9003 2114.16 48.0275 M2106.7 45.84 Q2106.62 39.7232 2103.26 36.0774 Q2099.94 32.4315 2094.43 32.4315 Q2088.19 32.4315 2084.42 35.9558 Q2080.7 39.4801 2080.13 45.8805 L2106.7 45.84 Z" fill="#000000" fill-rule="nonzero" fill-opacity="1" /><polyline clip-path="url(#clip621)" style="stroke:#4682b4; stroke-linecap:round; stroke-linejoin:round; stroke-width:8; stroke-opacity:1; fill:none" points="330.76,968.689 342.03,903.632 353.3,839.745 364.57,777.386 375.839,716.912 387.109,658.681 398.379,603.051 409.649,550.381 420.919,501.027 432.189,455.348 443.459,413.679 454.729,376.086 465.999,342.468 477.269,312.718 488.539,286.733 499.809,264.406 511.079,245.633 522.348,230.309 533.618,218.329 544.888,209.587 556.158,203.979 567.428,201.399 578.698,201.742 589.968,204.903 601.238,210.756 612.508,219.111 623.778,229.765 635.048,242.518 646.318,257.167 657.588,273.511 668.857,291.347 680.127,310.428 691.397,330.447 702.667,351.09 713.937,372.045 725.207,392.999 736.477,413.64 747.747,433.653 759.017,452.73 770.287,470.637 781.557,487.24 792.827,502.411 804.097,516.021 815.366,527.941 826.636,538.044 837.906,546.2 849.176,552.281 860.446,556.159 871.716,557.705 882.986,556.791 894.256,553.287 905.526,547.147 916.796,538.604 928.066,527.948 939.336,515.473 950.606,501.47 961.875,486.233 973.145,470.052 984.415,453.22 995.685,436.03 1006.96,418.773 1018.23,401.742 1029.49,385.229 1040.76,369.526 1052.03,354.862 1063.3,341.159 1074.57,328.245 1085.84,315.949 1097.11,304.097 1108.38,292.519 1119.65,281.043 1130.92,269.497 1142.19,257.797 1153.46,246.242 1164.73,235.232 1176,225.169 1187.27,216.453 1198.54,209.485 1209.81,204.666 1221.08,202.398 1232.35,203.08 1243.62,207.114 1254.89,214.901 1266.16,226.836 1277.43,243.058 1288.7,263.369 1299.97,287.551 1311.24,315.382 1322.51,346.641 1333.78,381.109 1345.05,418.564 1356.32,458.787 1367.59,501.557 1378.86,546.654 1390.13,593.856 1401.4,642.931 1412.67,693.556 1423.94,745.381 1435.21,798.052 1446.48,851.217 1457.75,904.522 1469.02,957.616 1480.29,1010.14 1491.56,1061.76 1502.83,1112.1 1514.1,1160.82 1525.37,1207.7 1536.64,1252.63 1547.91,1295.49 1559.18,1336.19 1570.45,1374.61 1581.72,1410.66 1592.99,1444.22 1604.26,1475.2 1615.53,1503.49 1626.8,1529.03 1638.07,1551.76 1649.34,1571.59 1660.61,1588.45 1671.88,1602.28 1683.15,1613.01 1694.42,1620.57 1705.69,1624.88 1716.96,1625.87 1728.23,1623.48 1739.5,1617.8 1750.77,1609.12 1762.04,1597.73 1773.31,1583.92 1784.58,1567.99 1795.85,1550.24 1807.12,1530.97 1818.39,1510.46 1829.66,1489.02 1840.93,1466.93 1852.2,1444.51 1863.47,1422.03 1874.74,1399.81 1886.01,1378.12 1897.28,1357.18 1908.55,1337 1919.82,1317.59 1931.09,1298.94 1942.36,1281.06 1953.63,1263.95 1964.9,1247.61 1976.17,1232.05 1987.44,1217.25 1998.71,1203.25 2009.98,1190.31 2021.25,1178.88 2032.52,1169.44 2043.79,1162.46 2055.06,1158.41 2066.33,1157.75 2077.6,1160.96 2088.87,1168.5 2100.14,1180.84 2111.41,1197.95 2122.68,1219.3 2133.95,1244.26 2145.22,1272.26 2156.49,1302.69 2167.76,1334.96 2179.03,1368.47 2190.3,1402.62 2201.57,1436.82 2212.84,1470.47 2224.11,1503.03 2235.38,1534.13 2246.65,1563.38 2257.92,1590.42 2269.19,1614.87 2280.46,1636.36 2291.73,1654.53 2303,1668.99 2314.27,1679.39 2325.54,1685.34 2336.81,1686.48 2348.08,1682.44 2359.35,1672.84 2370.62,1657.34 2381.89,1636.08 2393.16,1609.67 2404.43,1578.75 2415.7,1543.96 2426.97,1505.91 2438.24,1465.26 2449.51,1422.63 2460.78,1378.54 2472.05,1333.13 2483.32,1286.5 2494.59,1238.72 2505.85,1189.87 2517.12,1140.04 2528.39,1089.3 2539.66,1037.74 2550.93,985.432 2562.2,932.466 2573.47,878.92 "/>
<polyline clip-path="url(#clip621)" style="stroke:#ff8c00; stroke-linecap:round; stroke-linejoin:round; stroke-width:8; stroke-opacity:1; fill:none" points="330.76,959.531 342.03,898.011 353.3,836.931 364.57,776.729 375.839,717.845 387.109,660.717 398.379,605.784 409.649,553.486 420.919,504.262 432.189,458.551 443.459,416.764 454.729,379.005 465.999,345.178 477.269,315.186 488.539,288.932 499.809,266.318 511.079,247.247 522.348,231.622 533.618,219.344 544.888,210.316 556.158,204.442 567.428,201.623 578.698,201.761 589.968,204.761 601.238,210.498 612.508,218.781 623.778,229.401 635.048,242.151 646.318,256.825 657.588,273.214 668.857,291.111 680.127,310.266 691.397,330.37 702.667,351.108 713.937,372.166 725.207,393.233 736.477,413.992 747.747,434.132 759.017,453.34 770.287,471.382 781.557,488.12 792.827,503.421 804.097,517.153 815.366,529.184 826.636,539.382 837.906,547.613 849.176,553.746 860.446,557.648 871.716,559.187 882.986,558.231 894.256,554.648 905.526,548.388 916.796,539.69 928.066,528.856 939.336,516.186 950.606,501.98 961.875,486.539 973.145,470.165 984.415,453.157 995.685,435.816 1006.96,418.443 1018.23,401.339 1029.49,384.804 1040.76,369.139 1052.03,354.578 1063.3,341.028 1074.57,328.298 1085.84,316.197 1097.11,304.533 1108.38,293.114 1119.65,281.75 1130.92,270.248 1142.19,258.511 1153.46,246.844 1164.73,235.661 1176,225.376 1187.27,216.404 1198.54,209.157 1209.81,204.05 1221.08,201.497 1232.35,201.913 1243.62,205.71 1254.89,213.303 1266.16,225.1 1277.43,241.245 1288.7,261.535 1299.97,285.743 1311.24,313.644 1322.51,345.009 1333.78,379.612 1345.05,417.226 1356.32,457.624 1367.59,500.579 1378.86,545.865 1390.13,593.254 1401.4,642.507 1412.67,693.3 1423.94,745.281 1435.21,798.096 1446.48,851.39 1457.75,904.81 1469.02,958.003 1480.29,1010.61 1491.56,1062.29 1502.83,1112.68 1514.1,1161.43 1525.37,1208.32 1536.64,1253.24 1547.91,1296.09 1559.18,1336.77 1570.45,1375.18 1581.72,1411.22 1592.99,1444.79 1604.26,1475.79 1615.53,1504.12 1626.8,1529.72 1638.07,1552.5 1649.34,1572.39 1660.61,1589.32 1671.88,1603.21 1683.15,1613.98 1694.42,1621.56 1705.69,1625.88 1716.96,1626.86 1728.23,1624.42 1739.5,1618.67 1750.77,1609.89 1762.04,1598.37 1773.31,1584.43 1784.58,1568.36 1795.85,1550.46 1807.12,1531.04 1818.39,1510.4 1829.66,1488.83 1840.93,1466.64 1852.2,1444.14 1863.47,1421.61 1874.74,1399.37 1886.01,1377.71 1897.28,1356.82 1908.55,1336.73 1919.82,1317.42 1931.09,1298.87 1942.36,1281.08 1953.63,1264.03 1964.9,1247.71 1976.17,1232.11 1987.44,1217.22 1998.71,1203.03 2009.98,1189.83 2021.25,1178.1 2032.52,1168.32 2043.79,1160.98 2055.06,1156.59 2066.33,1155.63 2077.6,1158.58 2088.87,1165.95 2100.14,1178.2 2111.41,1195.34 2122.68,1216.8 2133.95,1241.96 2145.22,1270.22 2156.49,1300.97 2167.76,1333.6 2179.03,1367.5 2190.3,1402.06 2201.57,1436.68 2212.84,1470.74 2224.11,1503.7 2235.38,1535.17 2246.65,1564.76 2257.92,1592.1 2269.19,1616.8 2280.46,1638.51 2291.73,1656.82 2303,1671.37 2314.27,1681.78 2325.54,1687.67 2336.81,1688.65 2348.08,1684.37 2359.35,1674.43 2370.62,1658.48 2381.89,1636.68 2393.16,1609.69 2404.43,1578.17 2415.7,1542.79 2426.97,1504.22 2438.24,1463.12 2449.51,1420.18 2460.78,1375.94 2472.05,1330.59 2483.32,1284.23 2494.59,1236.98 2505.85,1188.95 2517.12,1140.24 2528.39,1090.99 2539.66,1041.28 2550.93,991.24 2562.2,940.977 2573.47,890.602 "/>
<polyline clip-path="url(#clip621)" style="stroke:#008b00; stroke-linecap:round; stroke-linejoin:round; stroke-width:8; stroke-opacity:1; fill:none" points="330.76,1035.94 342.03,931.067 353.3,837.662 364.57,754.81 375.839,681.594 387.109,617.097 398.379,560.403 409.649,510.595 420.919,466.757 432.189,427.971 443.459,393.321 454.729,361.943 465.999,333.501 477.269,307.972 488.539,285.337 499.809,265.576 511.079,248.67 522.348,234.598 533.618,223.342 544.888,214.881 556.158,209.197 567.428,206.27 578.698,206.079 589.968,208.607 601.238,213.832 612.508,221.736 623.778,232.297 635.048,245.374 646.318,260.623 657.588,277.678 668.857,296.174 680.127,315.748 691.397,336.033 702.667,356.695 713.937,377.456 725.207,398.048 736.477,418.201 747.747,437.648 759.017,456.12 770.287,473.348 781.557,489.062 792.827,502.995 804.097,514.879 815.366,524.542 826.636,532.042 837.906,537.467 849.176,540.904 860.446,542.442 871.716,542.167 882.986,540.17 894.256,536.536 905.526,531.355 916.796,524.713 928.066,516.7 939.336,507.402 950.606,496.909 961.875,485.307 973.145,472.685 984.415,459.13 995.685,444.732 1006.96,429.604 1018.23,413.887 1029.49,397.722 1040.76,381.25 1052.03,364.615 1063.3,347.956 1074.57,331.417 1085.84,315.138 1097.11,299.263 1108.38,283.964 1119.65,269.445 1130.92,255.909 1142.19,243.56 1153.46,232.603 1164.73,223.241 1176,215.679 1187.27,210.119 1198.54,206.767 1209.81,205.827 1221.08,207.501 1232.35,211.996 1243.62,219.512 1254.89,230.179 1266.16,243.969 1277.43,260.836 1288.7,280.736 1299.97,303.622 1311.24,329.449 1322.51,358.172 1333.78,389.746 1345.05,424.125 1356.32,461.263 1367.59,501.116 1378.86,543.637 1390.13,588.71 1401.4,636.026 1412.67,685.24 1423.94,736.01 1435.21,787.992 1446.48,840.843 1457.75,894.22 1469.02,947.779 1480.29,1001.18 1491.56,1054.07 1502.83,1106.12 1514.1,1156.97 1525.37,1206.29 1536.64,1253.75 1547.91,1299.1 1559.18,1342.1 1570.45,1382.52 1581.72,1420.12 1592.99,1454.67 1604.26,1485.94 1615.53,1513.7 1626.8,1537.71 1638.07,1557.98 1649.34,1574.67 1660.61,1587.95 1671.88,1598.01 1683.15,1605.02 1694.42,1609.15 1705.69,1610.58 1716.96,1609.49 1728.23,1606.06 1739.5,1600.45 1750.77,1592.85 1762.04,1583.43 1773.31,1572.36 1784.58,1559.76 1795.85,1545.74 1807.12,1530.43 1818.39,1513.95 1829.66,1496.4 1840.93,1477.92 1852.2,1458.62 1863.47,1438.61 1874.74,1418.02 1886.01,1396.96 1897.28,1375.56 1908.55,1353.92 1919.82,1332.17 1931.09,1310.42 1942.36,1288.8 1953.63,1267.43 1964.9,1246.54 1976.17,1226.65 1987.44,1208.28 1998.71,1191.97 2009.98,1178.23 2021.25,1167.62 2032.52,1160.64 2043.79,1157.83 2055.06,1159.28 2066.33,1164.71 2077.6,1173.83 2088.87,1186.35 2100.14,1201.97 2111.41,1220.4 2122.68,1241.34 2133.95,1264.49 2145.22,1289.57 2156.49,1316.27 2167.76,1344.31 2179.03,1373.38 2190.3,1403.18 2201.57,1433.32 2212.84,1463.38 2224.11,1492.92 2235.38,1521.51 2246.65,1548.75 2257.92,1574.19 2269.19,1597.41 2280.46,1617.99 2291.73,1635.49 2303,1649.5 2314.27,1659.59 2325.54,1665.32 2336.81,1666.37 2348.08,1662.79 2359.35,1654.72 2370.62,1642.32 2381.89,1625.73 2393.16,1605.11 2404.43,1580.6 2415.7,1552.35 2426.97,1520.52 2438.24,1485.25 2449.51,1446.68 2460.78,1404.88 2472.05,1359.83 2483.32,1311.5 2494.59,1259.89 2505.85,1204.97 2517.12,1146.73 2528.39,1085.16 2539.66,1020.23 2550.93,951.93 2562.2,880.246 2573.47,805.158 "/>
<polyline clip-path="url(#clip621)" style="stroke:#800080; stroke-linecap:round; stroke-linejoin:round; stroke-width:8; stroke-opacity:1; fill:none" points="330.76,773.758 342.03,757.516 353.3,739.471 364.57,719.553 375.839,697.732 387.109,674.045 398.379,648.617 409.649,621.697 420.919,593.706 432.189,564.916 443.459,534.689 454.729,502.418 465.999,467.755 477.269,430.623 488.539,391.253 499.809,350.232 511.079,308.597 522.348,267.939 533.618,230.561 544.888,199.676 556.158,179.656 567.428,173.254 578.698,176.669 589.968,186.201 601.238,199.349 612.508,214.636 623.778,231.492 635.048,250.202 646.318,271.547 657.588,294.499 668.857,317.611 680.127,340.098 691.397,361.772 702.667,383.001 713.937,404.709 725.207,428.099 736.477,452.442 747.747,476.328 759.017,498.793 770.287,519.239 781.557,537.369 792.827,553.143 804.097,566.757 815.366,578.577 826.636,588.43 837.906,595.808 849.176,600.364 860.446,601.89 871.716,600.299 882.986,595.616 894.256,587.983 905.526,577.674 916.796,565.119 928.066,550.949 939.336,536.045 950.606,521.619 961.875,509.16 973.145,498.422 984.415,487.895 995.685,476.472 1006.96,463.433 1018.23,448.41 1029.49,431.377 1040.76,412.663 1052.03,392.998 1063.3,373.577 1074.57,356.163 1085.84,342.462 1097.11,331.167 1108.38,320.532 1119.65,309.474 1130.92,297.514 1142.19,284.761 1153.46,271.926 1164.73,260.386 1176,252.286 1187.27,248.784 1198.54,247.697 1209.81,247.114 1221.08,245.873 1232.35,243.48 1243.62,240.078 1254.89,236.464 1266.16,234.141 1277.43,235.422 1288.7,243.589 1299.97,262.815 1311.24,293.006 1322.51,330.348 1333.78,371.983 1345.05,415.959 1356.32,461.058 1367.59,506.661 1378.86,552.659 1390.13,599.398 1401.4,647.646 1412.67,698.294 1423.94,750.829 1435.21,804.391 1446.48,858.343 1457.75,912.171 1469.02,965.388 1480.29,1017.44 1491.56,1067.63 1502.83,1115.03 1514.1,1159.78 1525.37,1202.94 1536.64,1245.23 1547.91,1286.95 1559.18,1327.98 1570.45,1367.72 1581.72,1404.99 1592.99,1437.95 1604.26,1466.01 1615.53,1491.3 1626.8,1515.51 1638.07,1539.55 1649.34,1563.67 1660.61,1587.38 1671.88,1609.42 1683.15,1627.67 1694.42,1638.94 1705.69,1638.87 1716.96,1626.53 1728.23,1606.5 1739.5,1582.57 1750.77,1557.47 1762.04,1533.09 1773.31,1510.63 1784.58,1490.69 1795.85,1473.38 1807.12,1458.31 1818.39,1444.58 1829.66,1430.76 1840.93,1414.82 1852.2,1395.6 1863.47,1374.88 1874.74,1354.27 1886.01,1334.86 1897.28,1317.3 1908.55,1301.89 1919.82,1288.57 1931.09,1277 1942.36,1266.49 1953.63,1255.99 1964.9,1244.07 1976.17,1228.76 1987.44,1208.87 1998.71,1186.49 2009.98,1163.85 2021.25,1142.89 2032.52,1125.32 2043.79,1112.43 2055.06,1104.28 2066.33,1100.72 2077.6,1101.66 2088.87,1107.1 2100.14,1117.07 2111.41,1131.7 2122.68,1151.15 2133.95,1175.65 2145.22,1205.48 2156.49,1240.57 2167.76,1280.28 2179.03,1323.85 2190.3,1370.33 2201.57,1418.47 2212.84,1466.63 2224.11,1512.57 2235.38,1553.26 2246.65,1584.65 2257.92,1603.96 2269.19,1614.85 2280.46,1621.13 2291.73,1625.54 2303,1629.83 2314.27,1634.98 2325.54,1641.16 2336.81,1647.83 2348.08,1653.63 2359.35,1656.29 2370.62,1652.51 2381.89,1637.71 2393.16,1608.78 2404.43,1569.74 2415.7,1524.75 2426.97,1476.8 2438.24,1428.01 2449.51,1379.76 2460.78,1332.91 2472.05,1288.13 2483.32,1246 2494.59,1206.9 2505.85,1170.98 2517.12,1138.27 2528.39,1108.69 2539.66,1082.11 2550.93,1058.35 2562.2,1037.2 2573.47,1018.47 "/>
<polyline clip-path="url(#clip621)" style="stroke:#000000; stroke-linecap:round; stroke-linejoin:round; stroke-width:8; stroke-opacity:1; fill:none" stroke-dasharray="32, 20" points="330.76,888.738 333.33,877.073 333.757,875.136 335.338,867.963 339.11,850.867 346.731,816.408 347.971,810.821 369.723,714.005 372.288,702.802 378.507,675.866 395.695,603.503 396.995,598.172 403.419,572.158 414.48,528.765 417.869,515.851 426.99,482.047 439.051,439.651 442.53,427.941 449.817,404.199 467.421,351.501 482.473,311.989 489.418,295.57 492.865,287.856 510.898,252.286 515.79,244.043 522.936,233.091 525.116,230.008 532.313,220.684 532.769,220.138 578.588,191.61 583.029,191.529 586.204,191.747 591.733,192.665 594.688,193.432 607.773,199.061 620.315,207.7 620.804,208.097 630.349,216.726 633.358,219.777 634.628,221.109 635.715,222.272 635.78,222.342 637.026,223.699 637.463,224.182 642.46,229.909 646.442,234.748 657.519,249.405 664.377,259.288 665.785,261.387 666.926,263.105 685.612,293.143 685.669,293.239 688.183,297.522 689.191,299.25 713.26,342.359 715.137,345.826 715.74,346.942 716.568,348.475 734.404,381.722 747.68,406.339 749.14,409.019 751.964,414.18 753.118,416.279 754.39,418.588 756.73,422.817 768.44,443.538 773.659,452.49 774.595,454.075 791.791,481.861 797.665,490.696 799.716,493.692 806.068,502.667 817.308,517.332 817.718,517.835 819.047,519.452 855.886,553.925 856.291,554.185 871.691,561.997 883.238,565.16 898.509,565.729 905.195,564.677 913.821,562.159 914.787,561.796 917.934,560.501 937.356,548.785 940.892,545.982 974.326,510.118 977.95,505.301 991.173,486.398 1014.75,448.296 1017.27,443.949 1021.41,436.734 1030.4,420.69 1036.33,409.901 1039.88,403.38 1043.74,396.247 1043.91,395.921 1048.91,386.632 1059.74,366.415 1069.17,348.866 1078.56,331.587 1079.97,329.022 1080.77,327.57 1082.58,324.293 1087.51,315.46 1088.17,314.281 1094.41,303.317 1110.76,275.976 1120.57,260.784 1125.62,253.389 1130.83,246.088 1133.21,242.878 1138.4,236.138 1158.37,214.053 1175.45,200.675 1184.61,195.844 1200.13,191.708 1203.86,191.509 1205.74,191.528 1208.57,191.712 1218.11,193.711 1219.31,194.115 1227.22,197.65 1239.14,205.885 1254.57,221.815 1257.35,225.332 1262.25,232 1278.75,258.918 1292.52,286.612 1302.1,308.64 1311.15,331.468 1325.9,372.741 1326.96,375.899 1336.36,404.91 1346.13,437.036 1347.42,441.439 1349.33,447.963 1350.61,452.417 1360.6,488.035 1370.85,526.382 1374.85,541.82 1378.5,556.12 1399.45,641.785 1408.63,680.982 1409.35,684.104 1411.41,692.988 1415.17,709.374 1421.04,735.154 1429.29,771.824 1433.2,789.315 1454.09,883.751 1455.78,891.435 1487.72,1035.25 1488.16,1037.2 1488.17,1037.26 1489.64,1043.74 1494.25,1064.04 1498.71,1083.56 1524.93,1194.1 1527.48,1204.39 1535.05,1234.44 1536.23,1239.05 1536.29,1239.31 1539.86,1253.12 1545.31,1273.81 1550.31,1292.33 1552.59,1300.66 1562.48,1335.62 1567.42,1352.38 1569.39,1358.91 1578.6,1388.48 1591.54,1426.95 1594.03,1433.92 1599,1447.43 1605.39,1463.96 1616.08,1489.4 1621.12,1500.45 1623.74,1505.93 1635.41,1528.32 1639.42,1535.22 1657.6,1561.4 1663.51,1568.11 1684.81,1585.01 1687.51,1586.36 1688.65,1586.87 1700.95,1590.41 1707.34,1590.85 1708.14,1590.84 1723.23,1587.94 1723.49,1587.85 1723.96,1587.68 1733.98,1582.89 1739.91,1579.11 1751.75,1569.54 1770.82,1549 1774.8,1544 1783.55,1532.22 1793.1,1518.24 1809.12,1492.58 1832.61,1451.29 1851.02,1417.23 1854.78,1410.21 1857.74,1404.68 1861.28,1398.08 1872.55,1377.19 1890.63,1344.6 1917.33,1300.44 1939.37,1269.35 1948.95,1257.72 1949.5,1257.1 1949.55,1257.04 1950.18,1256.33 1961.08,1244.88 1972.85,1234.54 1976.42,1231.84 1977.3,1231.21 1980.77,1228.84 1981.4,1228.43 1982.68,1227.62 1988.29,1224.39 1990.56,1223.23 1995.65,1220.96 2001.07,1219.04 2003.15,1218.44 2004.92,1217.99 2012.54,1216.67 2015.77,1216.42 2021.91,1216.46 2034.36,1218.59 2039.97,1220.44 2051.14,1225.74 2061.32,1232.42 2076.61,1245.58 2076.61,1245.59 2083.33,1252.51 2084.59,1253.88 2095.26,1266.41 2096.58,1268.05 2098.05,1269.94 2115.71,1294.5 2118.42,1298.59 2128.24,1314.02 2140.92,1335.2 2155.92,1361.69 2169.82,1387.18 2177.21,1400.93 2179.21,1404.67 2186.59,1418.44 2194.42,1433.01 2196.18,1436.28 2199.57,1442.53 2205.13,1452.7 2212.08,1465.23 2213.87,1468.43 2218.27,1476.18 2242.88,1516.75 2244.67,1519.46 2247.93,1524.33 2272.01,1555.95 2282.36,1566.86 2286.93,1571.09 2288.45,1572.42 2322.63,1590.26 2322.87,1590.3 2326.32,1590.71 2328.57,1590.83 2339.74,1589.72 2364.31,1576.75 2365.21,1576 2369.05,1572.54 2370.99,1570.65 2389.46,1547.9 2396.44,1537.06 2396.78,1536.49 2399.36,1532.14 2412.51,1507.4 2413.86,1504.62 2430.49,1466.64 2434.18,1457.32 2434.52,1456.45 2439.59,1443.07 2440.29,1441.18 2446.21,1424.73 2447.45,1421.18 2451.7,1408.74 2456.8,1393.32 2459.09,1386.2 2461.18,1379.61 2485.74,1295.68 2494.5,1263.06 2496.98,1253.58 2497.06,1253.26 2508.6,1207.93 2515.88,1178.37 2521.67,1154.35 2532.22,1109.62 2542.2,1066.3 2542.56,1064.75 2556.23,1004.13 2573.47,926.38 "/>
<path clip-path="url(#clip620)" d="M342.721 492.376 L769.198 492.376 L769.198 181.336 L342.721 181.336  Z" fill="#ffffff" fill-rule="evenodd" fill-opacity="1"/>
<polyline clip-path="url(#clip620)" style="stroke:#000000; stroke-linecap:round; stroke-linejoin:round; stroke-width:4; stroke-opacity:1; fill:none" points="342.721,492.376 769.198,492.376 769.198,181.336 342.721,181.336 342.721,492.376 "/>
<polyline clip-path="url(#clip620)" style="stroke:#4682b4; stroke-linecap:round; stroke-linejoin:round; stroke-width:8; stroke-opacity:1; fill:none" points="369.135,233.176 527.62,233.176 "/>
<path clip-path="url(#clip620)" d="M561.442 217.169 L561.442 224.531 L570.215 224.531 L570.215 227.841 L561.442 227.841 L561.442 241.915 Q561.442 245.086 562.298 245.989 Q563.178 246.891 565.84 246.891 L570.215 246.891 L570.215 250.456 L565.84 250.456 Q560.909 250.456 559.034 248.628 Q557.159 246.776 557.159 241.915 L557.159 227.841 L554.034 227.841 L554.034 224.531 L557.159 224.531 L557.159 217.169 L561.442 217.169 Z" fill="#000000" fill-rule="nonzero" fill-opacity="1" /><path clip-path="url(#clip620)" d="M579.937 246.567 L579.937 260.317 L575.655 260.317 L575.655 224.531 L579.937 224.531 L579.937 228.466 Q581.28 226.151 583.317 225.04 Q585.377 223.906 588.224 223.906 Q592.946 223.906 595.886 227.655 Q598.849 231.405 598.849 237.517 Q598.849 243.628 595.886 247.378 Q592.946 251.128 588.224 251.128 Q585.377 251.128 583.317 250.016 Q581.28 248.882 579.937 246.567 M594.428 237.517 Q594.428 232.817 592.483 230.155 Q590.562 227.47 587.182 227.47 Q583.803 227.47 581.858 230.155 Q579.937 232.817 579.937 237.517 Q579.937 242.216 581.858 244.901 Q583.803 247.563 587.182 247.563 Q590.562 247.563 592.483 244.901 Q594.428 242.216 594.428 237.517 Z" fill="#000000" fill-rule="nonzero" fill-opacity="1" /><polyline clip-path="url(#clip620)" style="stroke:#ff8c00; stroke-linecap:round; stroke-linejoin:round; stroke-width:8; stroke-opacity:1; fill:none" points="369.135,285.016 527.62,285.016 "/>
<path clip-path="url(#clip620)" d="M574.544 277.366 L574.544 281.347 Q572.738 280.352 570.909 279.866 Q569.104 279.357 567.252 279.357 Q563.108 279.357 560.817 281.995 Q558.525 284.611 558.525 289.357 Q558.525 294.102 560.817 296.741 Q563.108 299.356 567.252 299.356 Q569.104 299.356 570.909 298.87 Q572.738 298.361 574.544 297.366 L574.544 301.301 Q572.761 302.134 570.84 302.551 Q568.942 302.968 566.789 302.968 Q560.933 302.968 557.484 299.287 Q554.034 295.607 554.034 289.357 Q554.034 283.014 557.507 279.38 Q561.002 275.746 567.067 275.746 Q569.034 275.746 570.909 276.162 Q572.784 276.556 574.544 277.366 Z" fill="#000000" fill-rule="nonzero" fill-opacity="1" /><path clip-path="url(#clip620)" d="M596.974 280.352 Q596.256 279.935 595.4 279.75 Q594.567 279.542 593.548 279.542 Q589.937 279.542 587.993 281.903 Q586.071 284.241 586.071 288.639 L586.071 302.296 L581.789 302.296 L581.789 276.371 L586.071 276.371 L586.071 280.398 Q587.414 278.037 589.567 276.903 Q591.719 275.746 594.798 275.746 Q595.238 275.746 595.77 275.815 Q596.303 275.861 596.951 275.977 L596.974 280.352 Z" fill="#000000" fill-rule="nonzero" fill-opacity="1" /><polyline clip-path="url(#clip620)" style="stroke:#008b00; stroke-linecap:round; stroke-linejoin:round; stroke-width:8; stroke-opacity:1; fill:none" points="369.135,336.856 527.62,336.856 "/>
<path clip-path="url(#clip620)" d="M558.317 350.247 L558.317 363.997 L554.034 363.997 L554.034 328.211 L558.317 328.211 L558.317 332.146 Q559.659 329.831 561.696 328.72 Q563.757 327.586 566.604 327.586 Q571.326 327.586 574.266 331.335 Q577.229 335.085 577.229 341.197 Q577.229 347.308 574.266 351.058 Q571.326 354.808 566.604 354.808 Q563.757 354.808 561.696 353.696 Q559.659 352.562 558.317 350.247 M572.808 341.197 Q572.808 336.497 570.863 333.835 Q568.942 331.15 565.562 331.15 Q562.183 331.15 560.238 333.835 Q558.317 336.497 558.317 341.197 Q558.317 345.896 560.238 348.581 Q562.183 351.243 565.562 351.243 Q568.942 351.243 570.863 348.581 Q572.808 345.896 572.808 341.197 Z" fill="#000000" fill-rule="nonzero" fill-opacity="1" /><path clip-path="url(#clip620)" d="M600.817 328.974 L600.817 333.002 Q599.011 332.076 597.067 331.613 Q595.122 331.15 593.039 331.15 Q589.868 331.15 588.27 332.123 Q586.696 333.095 586.696 335.039 Q586.696 336.521 587.831 337.377 Q588.965 338.21 592.391 338.974 L593.849 339.298 Q598.386 340.271 600.284 342.053 Q602.206 343.812 602.206 346.984 Q602.206 350.595 599.335 352.701 Q596.488 354.808 591.488 354.808 Q589.405 354.808 587.136 354.391 Q584.891 353.997 582.391 353.187 L582.391 348.789 Q584.752 350.016 587.044 350.641 Q589.335 351.243 591.581 351.243 Q594.59 351.243 596.21 350.224 Q597.831 349.183 597.831 347.308 Q597.831 345.572 596.65 344.646 Q595.493 343.72 591.534 342.863 L590.053 342.516 Q586.094 341.683 584.335 339.97 Q582.576 338.234 582.576 335.224 Q582.576 331.567 585.169 329.576 Q587.761 327.586 592.53 327.586 Q594.891 327.586 596.974 327.933 Q599.057 328.28 600.817 328.974 Z" fill="#000000" fill-rule="nonzero" fill-opacity="1" /><polyline clip-path="url(#clip620)" style="stroke:#800080; stroke-linecap:round; stroke-linejoin:round; stroke-width:8; stroke-opacity:1; fill:none" points="369.135,388.696 527.62,388.696 "/>
<path clip-path="url(#clip620)" d="M572.946 392.712 Q572.946 388.083 571.025 385.537 Q569.127 382.99 565.678 382.99 Q562.252 382.99 560.331 385.537 Q558.433 388.083 558.433 392.712 Q558.433 397.319 560.331 399.865 Q562.252 402.411 565.678 402.411 Q569.127 402.411 571.025 399.865 Q572.946 397.319 572.946 392.712 M577.206 402.759 Q577.206 409.379 574.266 412.597 Q571.326 415.837 565.261 415.837 Q563.016 415.837 561.025 415.49 Q559.034 415.166 557.159 414.472 L557.159 410.328 Q559.034 411.347 560.863 411.833 Q562.692 412.319 564.59 412.319 Q568.78 412.319 570.863 410.12 Q572.946 407.944 572.946 403.523 L572.946 401.416 Q571.627 403.708 569.567 404.842 Q567.507 405.976 564.636 405.976 Q559.868 405.976 556.951 402.342 Q554.034 398.708 554.034 392.712 Q554.034 386.694 556.951 383.06 Q559.868 379.426 564.636 379.426 Q567.507 379.426 569.567 380.56 Q571.627 381.694 572.946 383.986 L572.946 380.051 L577.206 380.051 L577.206 402.759 Z" fill="#000000" fill-rule="nonzero" fill-opacity="1" /><path clip-path="url(#clip620)" d="M590.099 402.087 L590.099 415.837 L585.817 415.837 L585.817 380.051 L590.099 380.051 L590.099 383.986 Q591.442 381.671 593.479 380.56 Q595.539 379.426 598.386 379.426 Q603.108 379.426 606.048 383.175 Q609.011 386.925 609.011 393.037 Q609.011 399.148 606.048 402.898 Q603.108 406.648 598.386 406.648 Q595.539 406.648 593.479 405.536 Q591.442 404.402 590.099 402.087 M604.59 393.037 Q604.59 388.337 602.645 385.675 Q600.724 382.99 597.344 382.99 Q593.965 382.99 592.02 385.675 Q590.099 388.337 590.099 393.037 Q590.099 397.736 592.02 400.421 Q593.965 403.083 597.344 403.083 Q600.724 403.083 602.645 400.421 Q604.59 397.736 604.59 393.037 Z" fill="#000000" fill-rule="nonzero" fill-opacity="1" /><polyline clip-path="url(#clip620)" style="stroke:#000000; stroke-linecap:round; stroke-linejoin:round; stroke-width:8; stroke-opacity:1; fill:none" stroke-dasharray="32, 20" points="369.135,440.536 527.62,440.536 "/>
<path clip-path="url(#clip620)" d="M561.442 424.529 L561.442 431.891 L570.215 431.891 L570.215 435.201 L561.442 435.201 L561.442 449.275 Q561.442 452.446 562.298 453.349 Q563.178 454.251 565.84 454.251 L570.215 454.251 L570.215 457.816 L565.84 457.816 Q560.909 457.816 559.034 455.988 Q557.159 454.136 557.159 449.275 L557.159 435.201 L554.034 435.201 L554.034 431.891 L557.159 431.891 L557.159 424.529 L561.442 424.529 Z" fill="#000000" fill-rule="nonzero" fill-opacity="1" /><path clip-path="url(#clip620)" d="M590.84 435.872 Q590.122 435.455 589.266 435.27 Q588.432 435.062 587.414 435.062 Q583.803 435.062 581.858 437.423 Q579.937 439.761 579.937 444.159 L579.937 457.816 L575.655 457.816 L575.655 431.891 L579.937 431.891 L579.937 435.918 Q581.28 433.557 583.432 432.423 Q585.585 431.266 588.664 431.266 Q589.104 431.266 589.636 431.335 Q590.169 431.381 590.817 431.497 L590.84 435.872 Z" fill="#000000" fill-rule="nonzero" fill-opacity="1" /><path clip-path="url(#clip620)" d="M594.868 447.585 L594.868 431.891 L599.127 431.891 L599.127 447.423 Q599.127 451.103 600.562 452.955 Q601.997 454.784 604.868 454.784 Q608.317 454.784 610.307 452.585 Q612.321 450.386 612.321 446.589 L612.321 431.891 L616.58 431.891 L616.58 457.816 L612.321 457.816 L612.321 453.835 Q610.77 456.196 608.71 457.353 Q606.673 458.488 603.965 458.488 Q599.497 458.488 597.182 455.71 Q594.868 452.932 594.868 447.585 M605.585 431.266 L605.585 431.266 Z" fill="#000000" fill-rule="nonzero" fill-opacity="1" /><path clip-path="url(#clip620)" d="M647.529 443.789 L647.529 445.872 L627.946 445.872 Q628.224 450.27 630.585 452.585 Q632.969 454.876 637.205 454.876 Q639.659 454.876 641.951 454.275 Q644.265 453.673 646.534 452.469 L646.534 456.497 Q644.242 457.469 641.835 457.978 Q639.428 458.488 636.951 458.488 Q630.747 458.488 627.113 454.876 Q623.502 451.265 623.502 445.108 Q623.502 438.742 626.928 435.015 Q630.377 431.266 636.21 431.266 Q641.441 431.266 644.474 434.645 Q647.529 438.002 647.529 443.789 M643.27 442.539 Q643.224 439.043 641.303 436.96 Q639.404 434.877 636.256 434.877 Q632.691 434.877 630.539 436.89 Q628.409 438.904 628.085 442.562 L643.27 442.539 Z" fill="#000000" fill-rule="nonzero" fill-opacity="1" /><path clip-path="url(#clip620)" d="M682.714 421.798 L682.714 425.34 L678.64 425.34 Q676.349 425.34 675.446 426.266 Q674.566 427.191 674.566 429.599 L674.566 431.891 L681.58 431.891 L681.58 435.201 L674.566 435.201 L674.566 457.816 L670.284 457.816 L670.284 435.201 L666.21 435.201 L666.21 431.891 L670.284 431.891 L670.284 430.085 Q670.284 425.756 672.298 423.789 Q674.312 421.798 678.687 421.798 L682.714 421.798 Z" fill="#000000" fill-rule="nonzero" fill-opacity="1" /><path clip-path="url(#clip620)" d="M696.511 421.844 Q693.409 427.168 691.904 432.377 Q690.399 437.585 690.399 442.932 Q690.399 448.279 691.904 453.534 Q693.432 458.765 696.511 464.066 L692.807 464.066 Q689.335 458.626 687.599 453.372 Q685.886 448.117 685.886 442.932 Q685.886 437.77 687.599 432.539 Q689.312 427.307 692.807 421.844 L696.511 421.844 Z" fill="#000000" fill-rule="nonzero" fill-opacity="1" /><path clip-path="url(#clip620)" d="M726.325 431.891 L716.95 444.506 L726.811 457.816 L721.788 457.816 L714.242 447.631 L706.696 457.816 L701.673 457.816 L711.742 444.252 L702.529 431.891 L707.552 431.891 L714.427 441.127 L721.302 431.891 L726.325 431.891 Z" fill="#000000" fill-rule="nonzero" fill-opacity="1" /><path clip-path="url(#clip620)" d="M732.159 421.844 L735.862 421.844 Q739.334 427.307 741.047 432.539 Q742.783 437.77 742.783 442.932 Q742.783 448.117 741.047 453.372 Q739.334 458.626 735.862 464.066 L732.159 464.066 Q735.237 458.765 736.742 453.534 Q738.27 448.279 738.27 442.932 Q738.27 437.585 736.742 432.377 Q735.237 427.168 732.159 421.844 Z" fill="#000000" fill-rule="nonzero" fill-opacity="1" /></svg>
