<?xml version="1.0" encoding="utf-8"?>
<svg xmlns="http://www.w3.org/2000/svg" xmlns:xlink="http://www.w3.org/1999/xlink" width="672" height="480" viewBox="0 0 2688 1920">
<defs>
  <clipPath id="clip870">
    <rect x="0" y="0" width="2688" height="1920"/>
  </clipPath>
</defs>
<path clip-path="url(#clip870)" d="M0 1920 L2688 1920 L2688 -4.26326e-14 L0 -4.26326e-14  Z" fill="#ffffff" fill-rule="evenodd" fill-opacity="1"/>
<defs>
  <clipPath id="clip871">
    <rect x="263" y="127" width="2378" height="1607"/>
  </clipPath>
</defs>
<path clip-path="url(#clip870)" d="M263.478 1734.12 L2640.76 1734.12 L2640.76 127.792 L263.478 127.792  Z" fill="#ffffff" fill-rule="evenodd" fill-opacity="1"/>
<polyline clip-path="url(#clip871)" style="stroke:#000000; stroke-linecap:round; stroke-linejoin:round; stroke-width:2; stroke-opacity:0.1; fill:none" points="330.76,1734.12 330.76,127.792 "/>
<polyline clip-path="url(#clip871)" style="stroke:#000000; stroke-linecap:round; stroke-linejoin:round; stroke-width:2; stroke-opacity:0.1; fill:none" points="891.438,1734.12 891.438,127.792 "/>
<polyline clip-path="url(#clip871)" style="stroke:#000000; stroke-linecap:round; stroke-linejoin:round; stroke-width:2; stroke-opacity:0.1; fill:none" points="1452.12,1734.12 1452.12,127.792 "/>
<polyline clip-path="url(#clip871)" style="stroke:#000000; stroke-linecap:round; stroke-linejoin:round; stroke-width:2; stroke-opacity:0.1; fill:none" points="2012.8,1734.12 2012.8,127.792 "/>
<polyline clip-path="url(#clip871)" style="stroke:#000000; stroke-linecap:round; stroke-linejoin:round; stroke-width:2; stroke-opacity:0.1; fill:none" points="2573.47,1734.12 2573.47,127.792 "/>
<polyline clip-path="url(#clip871)" style="stroke:#000000; stroke-linecap:round; stroke-linejoin:round; stroke-width:2; stroke-opacity:0.1; fill:none" points="263.478,1607.47 2640.76,1607.47 "/>
<polyline clip-path="url(#clip871)" style="stroke:#000000; stroke-linecap:round; stroke-linejoin:round; stroke-width:2; stroke-opacity:0.1; fill:none" points="263.478,1365.13 2640.76,1365.13 "/>
<polyline clip-path="url(#clip871)" style="stroke:#000000; stroke-linecap:round; stroke-linejoin:round; stroke-width:2; stroke-opacity:0.1; fill:none" points="263.478,1122.79 2640.76,1122.79 "/>
<polyline clip-path="url(#clip871)" style="stroke:#000000; stroke-linecap:round; stroke-linejoin:round; stroke-width:2; stroke-opacity:0.1; fill:none" points="263.478,880.452 2640.76,880.452 "/>
<polyline clip-path="url(#clip871)" style="stroke:#000000; stroke-linecap:round; stroke-linejoin:round; stroke-width:2; stroke-opacity:0.1; fill:none" points="263.478,638.112 2640.76,638.112 "/>
<polyline clip-path="url(#clip871)" style="stroke:#000000; stroke-linecap:round; stroke-linejoin:round; stroke-width:2; stroke-opacity:0.1; fill:none" points="263.478,395.771 2640.76,395.771 "/>
<polyline clip-path="url(#clip871)" style="stroke:#000000; stroke-linecap:round; stroke-linejoin:round; stroke-width:2; stroke-opacity:0.1; fill:none" points="263.478,153.43 2640.76,153.43 "/>
<polyline clip-path="url(#clip870)" style="stroke:#000000; stroke-linecap:round; stroke-linejoin:round; stroke-width:4; stroke-opacity:1; fill:none" points="263.478,1734.12 2640.76,1734.12 "/>
<polyline clip-path="url(#clip870)" style="stroke:#000000; stroke-linecap:round; stroke-linejoin:round; stroke-width:4; stroke-opacity:1; fill:none" points="330.76,1734.12 330.76,1715.22 "/>
<polyline clip-path="url(#clip870)" style="stroke:#000000; stroke-linecap:round; stroke-linejoin:round; stroke-width:4; stroke-opacity:1; fill:none" points="891.438,1734.12 891.438,1715.22 "/>
<polyline clip-path="url(#clip870)" style="stroke:#000000; stroke-linecap:round; stroke-linejoin:round; stroke-width:4; stroke-opacity:1; fill:none" points="1452.12,1734.12 1452.12,1715.22 "/>
<polyline clip-path="url(#clip870)" style="stroke:#000000; stroke-linecap:round; stroke-linejoin:round; stroke-width:4; stroke-opacity:1; fill:none" points="2012.8,1734.12 2012.8,1715.22 "/>
<polyline clip-path="url(#clip870)" style="stroke:#000000; stroke-linecap:round; stroke-linejoin:round; stroke-width:4; stroke-opacity:1; fill:none" points="2573.47,1734.12 2573.47,1715.22 "/>
<path clip-path="url(#clip870)" d="M293.063 1767.34 Q289.452 1767.34 287.623 1770.9 Q285.818 1774.45 285.818 1781.58 Q285.818 1788.68 287.623 1792.25 Q289.452 1795.79 293.063 1795.79 Q296.697 1795.79 298.503 1792.25 Q300.332 1788.68 300.332 1781.58 Q300.332 1774.45 298.503 1770.9 Q296.697 1767.34 293.063 1767.34 M293.063 1763.64 Q298.873 1763.64 301.929 1768.24 Q305.008 1772.83 305.008 1781.58 Q305.008 1790.3 301.929 1794.91 Q298.873 1799.49 293.063 1799.49 Q287.253 1799.49 284.174 1794.91 Q281.119 1790.3 281.119 1781.58 Q281.119 1772.83 284.174 1768.24 Q287.253 1763.64 293.063 1763.64 Z" fill="#000000" fill-rule="nonzero" fill-opacity="1" /><path clip-path="url(#clip870)" d="M313.225 1792.94 L318.109 1792.94 L318.109 1798.82 L313.225 1798.82 L313.225 1792.94 Z" fill="#000000" fill-rule="nonzero" fill-opacity="1" /><path clip-path="url(#clip870)" d="M338.294 1767.34 Q334.683 1767.34 332.855 1770.9 Q331.049 1774.45 331.049 1781.58 Q331.049 1788.68 332.855 1792.25 Q334.683 1795.79 338.294 1795.79 Q341.929 1795.79 343.734 1792.25 Q345.563 1788.68 345.563 1781.58 Q345.563 1774.45 343.734 1770.9 Q341.929 1767.34 338.294 1767.34 M338.294 1763.64 Q344.105 1763.64 347.16 1768.24 Q350.239 1772.83 350.239 1781.58 Q350.239 1790.3 347.16 1794.91 Q344.105 1799.49 338.294 1799.49 Q332.484 1799.49 329.406 1794.91 Q326.35 1790.3 326.35 1781.58 Q326.35 1772.83 329.406 1768.24 Q332.484 1763.64 338.294 1763.64 Z" fill="#000000" fill-rule="nonzero" fill-opacity="1" /><path clip-path="url(#clip870)" d="M368.456 1767.34 Q364.845 1767.34 363.017 1770.9 Q361.211 1774.45 361.211 1781.58 Q361.211 1788.68 363.017 1792.25 Q364.845 1795.79 368.456 1795.79 Q372.091 1795.79 373.896 1792.25 Q375.725 1788.68 375.725 1781.58 Q375.725 1774.45 373.896 1770.9 Q372.091 1767.34 368.456 1767.34 M368.456 1763.64 Q374.266 1763.64 377.322 1768.24 Q380.401 1772.83 380.401 1781.58 Q380.401 1790.3 377.322 1794.91 Q374.266 1799.49 368.456 1799.49 Q362.646 1799.49 359.567 1794.91 Q356.512 1790.3 356.512 1781.58 Q356.512 1772.83 359.567 1768.24 Q362.646 1763.64 368.456 1763.64 Z" fill="#000000" fill-rule="nonzero" fill-opacity="1" /><path clip-path="url(#clip870)" d="M854.24 1767.34 Q850.628 1767.34 848.8 1770.9 Q846.994 1774.45 846.994 1781.58 Q846.994 1788.68 848.8 1792.25 Q850.628 1795.79 854.24 1795.79 Q857.874 1795.79 859.679 1792.25 Q861.508 1788.68 861.508 1781.58 Q861.508 1774.45 859.679 1770.9 Q857.874 1767.34 854.24 1767.34 M854.24 1763.64 Q860.05 1763.64 863.105 1768.24 Q866.184 1772.83 866.184 1781.58 Q866.184 1790.3 863.105 1794.91 Q860.05 1799.49 854.24 1799.49 Q848.429 1799.49 845.351 1794.91 Q842.295 1790.3 842.295 1781.58 Q842.295 1772.83 845.351 1768.24 Q848.429 1763.64 854.24 1763.64 Z" fill="#000000" fill-rule="nonzero" fill-opacity="1" /><path clip-path="url(#clip870)" d="M874.401 1792.94 L879.286 1792.94 L879.286 1798.82 L874.401 1798.82 L874.401 1792.94 Z" fill="#000000" fill-rule="nonzero" fill-opacity="1" /><path clip-path="url(#clip870)" d="M893.499 1794.89 L909.818 1794.89 L909.818 1798.82 L887.874 1798.82 L887.874 1794.89 Q890.536 1792.13 895.119 1787.5 Q899.725 1782.85 900.906 1781.51 Q903.151 1778.98 904.031 1777.25 Q904.934 1775.49 904.934 1773.8 Q904.934 1771.04 902.989 1769.31 Q901.068 1767.57 897.966 1767.57 Q895.767 1767.57 893.313 1768.34 Q890.883 1769.1 888.105 1770.65 L888.105 1765.93 Q890.929 1764.79 893.383 1764.21 Q895.837 1763.64 897.874 1763.64 Q903.244 1763.64 906.438 1766.32 Q909.633 1769.01 909.633 1773.5 Q909.633 1775.63 908.823 1777.55 Q908.036 1779.45 905.929 1782.04 Q905.35 1782.71 902.249 1785.93 Q899.147 1789.12 893.499 1794.89 Z" fill="#000000" fill-rule="nonzero" fill-opacity="1" /><path clip-path="url(#clip870)" d="M919.679 1764.26 L938.035 1764.26 L938.035 1768.2 L923.961 1768.2 L923.961 1776.67 Q924.98 1776.32 925.998 1776.16 Q927.017 1775.97 928.035 1775.97 Q933.822 1775.97 937.202 1779.15 Q940.582 1782.32 940.582 1787.73 Q940.582 1793.31 937.109 1796.41 Q933.637 1799.49 927.318 1799.49 Q925.142 1799.49 922.873 1799.12 Q920.628 1798.75 918.221 1798.01 L918.221 1793.31 Q920.304 1794.45 922.526 1795 Q924.748 1795.56 927.225 1795.56 Q931.23 1795.56 933.568 1793.45 Q935.906 1791.34 935.906 1787.73 Q935.906 1784.12 933.568 1782.02 Q931.23 1779.91 927.225 1779.91 Q925.35 1779.91 923.475 1780.33 Q921.623 1780.74 919.679 1781.62 L919.679 1764.26 Z" fill="#000000" fill-rule="nonzero" fill-opacity="1" /><path clip-path="url(#clip870)" d="M1414.42 1767.34 Q1410.81 1767.34 1408.98 1770.9 Q1407.18 1774.45 1407.18 1781.58 Q1407.18 1788.68 1408.98 1792.25 Q1410.81 1795.79 1414.42 1795.79 Q1418.05 1795.79 1419.86 1792.25 Q1421.69 1788.68 1421.69 1781.58 Q1421.69 1774.45 1419.86 1770.9 Q1418.05 1767.34 1414.42 1767.34 M1414.42 1763.64 Q1420.23 1763.64 1423.29 1768.24 Q1426.36 1772.83 1426.36 1781.58 Q1426.36 1790.3 1423.29 1794.91 Q1420.23 1799.49 1414.42 1799.49 Q1408.61 1799.49 1405.53 1794.91 Q1402.48 1790.3 1402.48 1781.58 Q1402.48 1772.83 1405.53 1768.24 Q1408.61 1763.64 1414.42 1763.64 Z" fill="#000000" fill-rule="nonzero" fill-opacity="1" /><path clip-path="url(#clip870)" d="M1434.58 1792.94 L1439.47 1792.94 L1439.47 1798.82 L1434.58 1798.82 L1434.58 1792.94 Z" fill="#000000" fill-rule="nonzero" fill-opacity="1" /><path clip-path="url(#clip870)" d="M1449.7 1764.26 L1468.05 1764.26 L1468.05 1768.2 L1453.98 1768.2 L1453.98 1776.67 Q1455 1776.32 1456.02 1776.16 Q1457.04 1775.97 1458.05 1775.97 Q1463.84 1775.97 1467.22 1779.15 Q1470.6 1782.32 1470.6 1787.73 Q1470.6 1793.31 1467.13 1796.41 Q1463.66 1799.49 1457.34 1799.49 Q1455.16 1799.49 1452.89 1799.12 Q1450.65 1798.75 1448.24 1798.01 L1448.24 1793.31 Q1450.32 1794.45 1452.55 1795 Q1454.77 1795.56 1457.24 1795.56 Q1461.25 1795.56 1463.59 1793.45 Q1465.92 1791.34 1465.92 1787.73 Q1465.92 1784.12 1463.59 1782.02 Q1461.25 1779.91 1457.24 1779.91 Q1455.37 1779.91 1453.49 1780.33 Q1451.64 1780.74 1449.7 1781.62 L1449.7 1764.26 Z" fill="#000000" fill-rule="nonzero" fill-opacity="1" /><path clip-path="url(#clip870)" d="M1489.81 1767.34 Q1486.2 1767.34 1484.37 1770.9 Q1482.57 1774.45 1482.57 1781.58 Q1482.57 1788.68 1484.37 1792.25 Q1486.2 1795.79 1489.81 1795.79 Q1493.45 1795.79 1495.25 1792.25 Q1497.08 1788.68 1497.08 1781.58 Q1497.08 1774.45 1495.25 1770.9 Q1493.45 1767.34 1489.81 1767.34 M1489.81 1763.64 Q1495.62 1763.64 1498.68 1768.24 Q1501.76 1772.83 1501.76 1781.58 Q1501.76 1790.3 1498.68 1794.91 Q1495.62 1799.49 1489.81 1799.49 Q1484 1799.49 1480.92 1794.91 Q1477.87 1790.3 1477.87 1781.58 Q1477.87 1772.83 1480.92 1768.24 Q1484 1763.64 1489.81 1763.64 Z" fill="#000000" fill-rule="nonzero" fill-opacity="1" /><path clip-path="url(#clip870)" d="M1975.6 1767.34 Q1971.99 1767.34 1970.16 1770.9 Q1968.35 1774.45 1968.35 1781.58 Q1968.35 1788.68 1970.16 1792.25 Q1971.99 1795.79 1975.6 1795.79 Q1979.23 1795.79 1981.04 1792.25 Q1982.87 1788.68 1982.87 1781.58 Q1982.87 1774.45 1981.04 1770.9 Q1979.23 1767.34 1975.6 1767.34 M1975.6 1763.64 Q1981.41 1763.64 1984.46 1768.24 Q1987.54 1772.83 1987.54 1781.58 Q1987.54 1790.3 1984.46 1794.91 Q1981.41 1799.49 1975.6 1799.49 Q1969.79 1799.49 1966.71 1794.91 Q1963.65 1790.3 1963.65 1781.58 Q1963.65 1772.83 1966.71 1768.24 Q1969.79 1763.64 1975.6 1763.64 Z" fill="#000000" fill-rule="nonzero" fill-opacity="1" /><path clip-path="url(#clip870)" d="M1995.76 1792.94 L2000.64 1792.94 L2000.64 1798.82 L1995.76 1798.82 L1995.76 1792.94 Z" fill="#000000" fill-rule="nonzero" fill-opacity="1" /><path clip-path="url(#clip870)" d="M2009.65 1764.26 L2031.87 1764.26 L2031.87 1766.25 L2019.32 1798.82 L2014.44 1798.82 L2026.24 1768.2 L2009.65 1768.2 L2009.65 1764.26 Z" fill="#000000" fill-rule="nonzero" fill-opacity="1" /><path clip-path="url(#clip870)" d="M2041.04 1764.26 L2059.39 1764.26 L2059.39 1768.2 L2045.32 1768.2 L2045.32 1776.67 Q2046.34 1776.32 2047.36 1776.16 Q2048.37 1775.97 2049.39 1775.97 Q2055.18 1775.97 2058.56 1779.15 Q2061.94 1782.32 2061.94 1787.73 Q2061.94 1793.31 2058.47 1796.41 Q2054.99 1799.49 2048.68 1799.49 Q2046.5 1799.49 2044.23 1799.12 Q2041.99 1798.75 2039.58 1798.01 L2039.58 1793.31 Q2041.66 1794.45 2043.88 1795 Q2046.11 1795.56 2048.58 1795.56 Q2052.59 1795.56 2054.93 1793.45 Q2057.26 1791.34 2057.26 1787.73 Q2057.26 1784.12 2054.93 1782.02 Q2052.59 1779.91 2048.58 1779.91 Q2046.71 1779.91 2044.83 1780.33 Q2042.98 1780.74 2041.04 1781.62 L2041.04 1764.26 Z" fill="#000000" fill-rule="nonzero" fill-opacity="1" /><path clip-path="url(#clip870)" d="M2525.55 1794.89 L2533.19 1794.89 L2533.19 1768.52 L2524.88 1770.19 L2524.88 1765.93 L2533.14 1764.26 L2537.81 1764.26 L2537.81 1794.89 L2545.45 1794.89 L2545.45 1798.82 L2525.55 1798.82 L2525.55 1794.89 Z" fill="#000000" fill-rule="nonzero" fill-opacity="1" /><path clip-path="url(#clip870)" d="M2554.9 1792.94 L2559.78 1792.94 L2559.78 1798.82 L2554.9 1798.82 L2554.9 1792.94 Z" fill="#000000" fill-rule="nonzero" fill-opacity="1" /><path clip-path="url(#clip870)" d="M2579.97 1767.34 Q2576.36 1767.34 2574.53 1770.9 Q2572.72 1774.45 2572.72 1781.58 Q2572.72 1788.68 2574.53 1792.25 Q2576.36 1795.79 2579.97 1795.79 Q2583.6 1795.79 2585.41 1792.25 Q2587.24 1788.68 2587.24 1781.58 Q2587.24 1774.45 2585.41 1770.9 Q2583.6 1767.34 2579.97 1767.34 M2579.97 1763.64 Q2585.78 1763.64 2588.83 1768.24 Q2591.91 1772.83 2591.91 1781.58 Q2591.91 1790.3 2588.83 1794.91 Q2585.78 1799.49 2579.97 1799.49 Q2574.16 1799.49 2571.08 1794.91 Q2568.02 1790.3 2568.02 1781.58 Q2568.02 1772.83 2571.08 1768.24 Q2574.16 1763.64 2579.97 1763.64 Z" fill="#000000" fill-rule="nonzero" fill-opacity="1" /><path clip-path="url(#clip870)" d="M2610.13 1767.34 Q2606.52 1767.34 2604.69 1770.9 Q2602.88 1774.45 2602.88 1781.58 Q2602.88 1788.68 2604.69 1792.25 Q2606.52 1795.79 2610.13 1795.79 Q2613.76 1795.79 2615.57 1792.25 Q2617.4 1788.68 2617.4 1781.58 Q2617.4 1774.45 2615.57 1770.9 Q2613.76 1767.34 2610.13 1767.34 M2610.13 1763.64 Q2615.94 1763.64 2619 1768.24 Q2622.07 1772.83 2622.07 1781.58 Q2622.07 1790.3 2619 1794.91 Q2615.94 1799.49 2610.13 1799.49 Q2604.32 1799.49 2601.24 1794.91 Q2598.18 1790.3 2598.18 1781.58 Q2598.18 1772.83 2601.24 1768.24 Q2604.32 1763.64 2610.13 1763.64 Z" fill="#000000" fill-rule="nonzero" fill-opacity="1" /><path clip-path="url(#clip870)" d="M1468.73 1847.65 L1455.84 1865 L1469.4 1883.3 L1462.49 1883.3 L1452.12 1869.3 L1441.74 1883.3 L1434.83 1883.3 L1448.68 1864.65 L1436.01 1847.65 L1442.92 1847.65 L1452.37 1860.35 L1461.82 1847.65 L1468.73 1847.65 Z" fill="#000000" fill-rule="nonzero" fill-opacity="1" /><polyline clip-path="url(#clip870)" style="stroke:#000000; stroke-linecap:round; stroke-linejoin:round; stroke-width:4; stroke-opacity:1; fill:none" points="263.478,1734.12 263.478,127.792 "/>
<polyline clip-path="url(#clip870)" style="stroke:#000000; stroke-linecap:round; stroke-linejoin:round; stroke-width:4; stroke-opacity:1; fill:none" points="263.478,1607.47 282.376,1607.47 "/>
<polyline clip-path="url(#clip870)" style="stroke:#000000; stroke-linecap:round; stroke-linejoin:round; stroke-width:4; stroke-opacity:1; fill:none" points="263.478,1365.13 282.376,1365.13 "/>
<polyline clip-path="url(#clip870)" style="stroke:#000000; stroke-linecap:round; stroke-linejoin:round; stroke-width:4; stroke-opacity:1; fill:none" points="263.478,1122.79 282.376,1122.79 "/>
<polyline clip-path="url(#clip870)" style="stroke:#000000; stroke-linecap:round; stroke-linejoin:round; stroke-width:4; stroke-opacity:1; fill:none" points="263.478,880.452 282.376,880.452 "/>
<polyline clip-path="url(#clip870)" style="stroke:#000000; stroke-linecap:round; stroke-linejoin:round; stroke-width:4; stroke-opacity:1; fill:none" points="263.478,638.112 282.376,638.112 "/>
<polyline clip-path="url(#clip870)" style="stroke:#000000; stroke-linecap:round; stroke-linejoin:round; stroke-width:4; stroke-opacity:1; fill:none" points="263.478,395.771 282.376,395.771 "/>
<polyline clip-path="url(#clip870)" style="stroke:#000000; stroke-linecap:round; stroke-linejoin:round; stroke-width:4; stroke-opacity:1; fill:none" points="263.478,153.43 282.376,153.43 "/>
<path clip-path="url(#clip870)" d="M117.21 1607.93 L146.886 1607.93 L146.886 1611.86 L117.21 1611.86 L117.21 1607.93 Z" fill="#000000" fill-rule="nonzero" fill-opacity="1" /><path clip-path="url(#clip870)" d="M157.788 1620.82 L165.427 1620.82 L165.427 1594.45 L157.117 1596.12 L157.117 1591.86 L165.381 1590.19 L170.057 1590.19 L170.057 1620.82 L177.696 1620.82 L177.696 1624.75 L157.788 1624.75 L157.788 1620.82 Z" fill="#000000" fill-rule="nonzero" fill-opacity="1" /><path clip-path="url(#clip870)" d="M187.14 1618.88 L192.024 1618.88 L192.024 1624.75 L187.14 1624.75 L187.14 1618.88 Z" fill="#000000" fill-rule="nonzero" fill-opacity="1" /><path clip-path="url(#clip870)" d="M202.256 1590.19 L220.612 1590.19 L220.612 1594.13 L206.538 1594.13 L206.538 1602.6 Q207.557 1602.25 208.575 1602.09 Q209.594 1601.91 210.612 1601.91 Q216.399 1601.91 219.779 1605.08 Q223.158 1608.25 223.158 1613.67 Q223.158 1619.25 219.686 1622.35 Q216.214 1625.43 209.894 1625.43 Q207.719 1625.43 205.45 1625.06 Q203.205 1624.69 200.797 1623.94 L200.797 1619.25 Q202.881 1620.38 205.103 1620.94 Q207.325 1621.49 209.802 1621.49 Q213.807 1621.49 216.144 1619.38 Q218.482 1617.28 218.482 1613.67 Q218.482 1610.06 216.144 1607.95 Q213.807 1605.84 209.802 1605.84 Q207.927 1605.84 206.052 1606.26 Q204.2 1606.68 202.256 1607.56 L202.256 1590.19 Z" fill="#000000" fill-rule="nonzero" fill-opacity="1" /><path clip-path="url(#clip870)" d="M116.214 1365.59 L145.89 1365.59 L145.89 1369.52 L116.214 1369.52 L116.214 1365.59 Z" fill="#000000" fill-rule="nonzero" fill-opacity="1" /><path clip-path="url(#clip870)" d="M156.793 1378.48 L164.432 1378.48 L164.432 1352.11 L156.122 1353.78 L156.122 1349.52 L164.385 1347.85 L169.061 1347.85 L169.061 1378.48 L176.7 1378.48 L176.7 1382.41 L156.793 1382.41 L156.793 1378.48 Z" fill="#000000" fill-rule="nonzero" fill-opacity="1" /><path clip-path="url(#clip870)" d="M186.145 1376.53 L191.029 1376.53 L191.029 1382.41 L186.145 1382.41 L186.145 1376.53 Z" fill="#000000" fill-rule="nonzero" fill-opacity="1" /><path clip-path="url(#clip870)" d="M211.214 1350.93 Q207.603 1350.93 205.774 1354.5 Q203.969 1358.04 203.969 1365.17 Q203.969 1372.28 205.774 1375.84 Q207.603 1379.38 211.214 1379.38 Q214.848 1379.38 216.654 1375.84 Q218.482 1372.28 218.482 1365.17 Q218.482 1358.04 216.654 1354.5 Q214.848 1350.93 211.214 1350.93 M211.214 1347.23 Q217.024 1347.23 220.08 1351.84 Q223.158 1356.42 223.158 1365.17 Q223.158 1373.9 220.08 1378.5 Q217.024 1383.09 211.214 1383.09 Q205.404 1383.09 202.325 1378.5 Q199.27 1373.9 199.27 1365.17 Q199.27 1356.42 202.325 1351.84 Q205.404 1347.23 211.214 1347.23 Z" fill="#000000" fill-rule="nonzero" fill-opacity="1" /><path clip-path="url(#clip870)" d="M117.21 1123.24 L146.886 1123.24 L146.886 1127.18 L117.21 1127.18 L117.21 1123.24 Z" fill="#000000" fill-rule="nonzero" fill-opacity="1" /><path clip-path="url(#clip870)" d="M166.978 1108.59 Q163.367 1108.59 161.538 1112.16 Q159.733 1115.7 159.733 1122.83 Q159.733 1129.93 161.538 1133.5 Q163.367 1137.04 166.978 1137.04 Q170.612 1137.04 172.418 1133.5 Q174.247 1129.93 174.247 1122.83 Q174.247 1115.7 172.418 1112.16 Q170.612 1108.59 166.978 1108.59 M166.978 1104.89 Q172.788 1104.89 175.844 1109.49 Q178.922 1114.08 178.922 1122.83 Q178.922 1131.55 175.844 1136.16 Q172.788 1140.74 166.978 1140.74 Q161.168 1140.74 158.089 1136.16 Q155.034 1131.55 155.034 1122.83 Q155.034 1114.08 158.089 1109.49 Q161.168 1104.89 166.978 1104.89 Z" fill="#000000" fill-rule="nonzero" fill-opacity="1" /><path clip-path="url(#clip870)" d="M187.14 1134.19 L192.024 1134.19 L192.024 1140.07 L187.14 1140.07 L187.14 1134.19 Z" fill="#000000" fill-rule="nonzero" fill-opacity="1" /><path clip-path="url(#clip870)" d="M202.256 1105.51 L220.612 1105.51 L220.612 1109.45 L206.538 1109.45 L206.538 1117.92 Q207.557 1117.57 208.575 1117.41 Q209.594 1117.23 210.612 1117.23 Q216.399 1117.23 219.779 1120.4 Q223.158 1123.57 223.158 1128.99 Q223.158 1134.56 219.686 1137.67 Q216.214 1140.74 209.894 1140.74 Q207.719 1140.74 205.45 1140.37 Q203.205 1140 200.797 1139.26 L200.797 1134.56 Q202.881 1135.7 205.103 1136.25 Q207.325 1136.81 209.802 1136.81 Q213.807 1136.81 216.144 1134.7 Q218.482 1132.6 218.482 1128.99 Q218.482 1125.37 216.144 1123.27 Q213.807 1121.16 209.802 1121.16 Q207.927 1121.16 206.052 1121.58 Q204.2 1121.99 202.256 1122.87 L202.256 1105.51 Z" fill="#000000" fill-rule="nonzero" fill-opacity="1" /><path clip-path="url(#clip870)" d="M165.983 866.251 Q162.372 866.251 160.543 869.816 Q158.737 873.358 158.737 880.487 Q158.737 887.594 160.543 891.158 Q162.372 894.7 165.983 894.7 Q169.617 894.7 171.422 891.158 Q173.251 887.594 173.251 880.487 Q173.251 873.358 171.422 869.816 Q169.617 866.251 165.983 866.251 M165.983 862.547 Q171.793 862.547 174.848 867.154 Q177.927 871.737 177.927 880.487 Q177.927 889.214 174.848 893.82 Q171.793 898.404 165.983 898.404 Q160.173 898.404 157.094 893.82 Q154.038 889.214 154.038 880.487 Q154.038 871.737 157.094 867.154 Q160.173 862.547 165.983 862.547 Z" fill="#000000" fill-rule="nonzero" fill-opacity="1" /><path clip-path="url(#clip870)" d="M186.145 891.853 L191.029 891.853 L191.029 897.732 L186.145 897.732 L186.145 891.853 Z" fill="#000000" fill-rule="nonzero" fill-opacity="1" /><path clip-path="url(#clip870)" d="M211.214 866.251 Q207.603 866.251 205.774 869.816 Q203.969 873.358 203.969 880.487 Q203.969 887.594 205.774 891.158 Q207.603 894.7 211.214 894.7 Q214.848 894.7 216.654 891.158 Q218.482 887.594 218.482 880.487 Q218.482 873.358 216.654 869.816 Q214.848 866.251 211.214 866.251 M211.214 862.547 Q217.024 862.547 220.08 867.154 Q223.158 871.737 223.158 880.487 Q223.158 889.214 220.08 893.82 Q217.024 898.404 211.214 898.404 Q205.404 898.404 202.325 893.82 Q199.27 889.214 199.27 880.487 Q199.27 871.737 202.325 867.154 Q205.404 862.547 211.214 862.547 Z" fill="#000000" fill-rule="nonzero" fill-opacity="1" /><path clip-path="url(#clip870)" d="M166.978 623.91 Q163.367 623.91 161.538 627.475 Q159.733 631.017 159.733 638.146 Q159.733 645.253 161.538 648.818 Q163.367 652.359 166.978 652.359 Q170.612 652.359 172.418 648.818 Q174.247 645.253 174.247 638.146 Q174.247 631.017 172.418 627.475 Q170.612 623.91 166.978 623.91 M166.978 620.207 Q172.788 620.207 175.844 624.813 Q178.922 629.396 178.922 638.146 Q178.922 646.873 175.844 651.48 Q172.788 656.063 166.978 656.063 Q161.168 656.063 158.089 651.48 Q155.034 646.873 155.034 638.146 Q155.034 629.396 158.089 624.813 Q161.168 620.207 166.978 620.207 Z" fill="#000000" fill-rule="nonzero" fill-opacity="1" /><path clip-path="url(#clip870)" d="M187.14 649.512 L192.024 649.512 L192.024 655.392 L187.14 655.392 L187.14 649.512 Z" fill="#000000" fill-rule="nonzero" fill-opacity="1" /><path clip-path="url(#clip870)" d="M202.256 620.832 L220.612 620.832 L220.612 624.767 L206.538 624.767 L206.538 633.239 Q207.557 632.892 208.575 632.73 Q209.594 632.545 210.612 632.545 Q216.399 632.545 219.779 635.716 Q223.158 638.887 223.158 644.304 Q223.158 649.882 219.686 652.984 Q216.214 656.063 209.894 656.063 Q207.719 656.063 205.45 655.693 Q203.205 655.322 200.797 654.581 L200.797 649.882 Q202.881 651.017 205.103 651.572 Q207.325 652.128 209.802 652.128 Q213.807 652.128 216.144 650.021 Q218.482 647.915 218.482 644.304 Q218.482 640.693 216.144 638.586 Q213.807 636.48 209.802 636.48 Q207.927 636.48 206.052 636.896 Q204.2 637.313 202.256 638.193 L202.256 620.832 Z" fill="#000000" fill-rule="nonzero" fill-opacity="1" /><path clip-path="url(#clip870)" d="M156.793 409.116 L164.432 409.116 L164.432 382.75 L156.122 384.417 L156.122 380.157 L164.385 378.491 L169.061 378.491 L169.061 409.116 L176.7 409.116 L176.7 413.051 L156.793 413.051 L156.793 409.116 Z" fill="#000000" fill-rule="nonzero" fill-opacity="1" /><path clip-path="url(#clip870)" d="M186.145 407.171 L191.029 407.171 L191.029 413.051 L186.145 413.051 L186.145 407.171 Z" fill="#000000" fill-rule="nonzero" fill-opacity="1" /><path clip-path="url(#clip870)" d="M211.214 381.57 Q207.603 381.57 205.774 385.134 Q203.969 388.676 203.969 395.806 Q203.969 402.912 205.774 406.477 Q207.603 410.018 211.214 410.018 Q214.848 410.018 216.654 406.477 Q218.482 402.912 218.482 395.806 Q218.482 388.676 216.654 385.134 Q214.848 381.57 211.214 381.57 M211.214 377.866 Q217.024 377.866 220.08 382.472 Q223.158 387.056 223.158 395.806 Q223.158 404.532 220.08 409.139 Q217.024 413.722 211.214 413.722 Q205.404 413.722 202.325 409.139 Q199.27 404.532 199.27 395.806 Q199.27 387.056 202.325 382.472 Q205.404 377.866 211.214 377.866 Z" fill="#000000" fill-rule="nonzero" fill-opacity="1" /><path clip-path="url(#clip870)" d="M157.788 166.775 L165.427 166.775 L165.427 140.409 L157.117 142.076 L157.117 137.817 L165.381 136.15 L170.057 136.15 L170.057 166.775 L177.696 166.775 L177.696 170.71 L157.788 170.71 L157.788 166.775 Z" fill="#000000" fill-rule="nonzero" fill-opacity="1" /><path clip-path="url(#clip870)" d="M187.14 164.83 L192.024 164.83 L192.024 170.71 L187.14 170.71 L187.14 164.83 Z" fill="#000000" fill-rule="nonzero" fill-opacity="1" /><path clip-path="url(#clip870)" d="M202.256 136.15 L220.612 136.15 L220.612 140.085 L206.538 140.085 L206.538 148.557 Q207.557 148.21 208.575 148.048 Q209.594 147.863 210.612 147.863 Q216.399 147.863 219.779 151.034 Q223.158 154.206 223.158 159.622 Q223.158 165.201 219.686 168.303 Q216.214 171.381 209.894 171.381 Q207.719 171.381 205.45 171.011 Q203.205 170.641 200.797 169.9 L200.797 165.201 Q202.881 166.335 205.103 166.891 Q207.325 167.446 209.802 167.446 Q213.807 167.446 216.144 165.34 Q218.482 163.233 218.482 159.622 Q218.482 156.011 216.144 153.905 Q213.807 151.798 209.802 151.798 Q207.927 151.798 206.052 152.215 Q204.2 152.631 202.256 153.511 L202.256 136.15 Z" fill="#000000" fill-rule="nonzero" fill-opacity="1" /><path clip-path="url(#clip870)" d="M9.28051 933.31 L9.28051 928.599 L21.248 920.801 L21.248 925.225 L13.45 930.955 L21.248 936.684 L21.248 941.108 L9.28051 933.31 M64.9486 929.268 Q71.3143 931.75 73.2559 934.106 Q75.1974 936.461 75.1974 940.408 L75.1974 945.086 L70.2958 945.086 L70.2958 941.649 Q70.2958 939.23 69.15 937.893 Q68.0041 936.556 63.7391 934.933 L61.0655 933.883 L25.9905 948.301 L25.9905 942.095 L53.8723 930.955 L25.9905 919.815 L25.9905 913.608 L64.9486 929.268 Z" fill="#000000" fill-rule="nonzero" fill-opacity="1" /><path clip-path="url(#clip870)" d="M980.045 18.8205 L980.045 41.5461 L990.334 41.5461 Q996.046 41.5461 999.165 38.5889 Q1002.28 35.6318 1002.28 30.163 Q1002.28 24.7348 999.165 21.7777 Q996.046 18.8205 990.334 18.8205 L980.045 18.8205 M971.862 12.096 L990.334 12.096 Q1000.5 12.096 1005.69 16.714 Q1010.91 21.2916 1010.91 30.163 Q1010.91 39.1155 1005.69 43.6931 Q1000.5 48.2706 990.334 48.2706 L980.045 48.2706 L980.045 72.576 L971.862 72.576 L971.862 12.096 Z" fill="#000000" fill-rule="nonzero" fill-opacity="1" /><path clip-path="url(#clip870)" d="M1046.4 34.1734 Q1045.14 33.4443 1043.64 33.1202 Q1042.19 32.7556 1040.4 32.7556 Q1034.08 32.7556 1030.68 36.8875 Q1027.32 40.9789 1027.32 48.6757 L1027.32 72.576 L1019.82 72.576 L1019.82 27.2059 L1027.32 27.2059 L1027.32 34.2544 Q1029.67 30.1225 1033.44 28.1376 Q1037.2 26.1121 1042.59 26.1121 Q1043.36 26.1121 1044.29 26.2337 Q1045.22 26.3147 1046.36 26.5172 L1046.4 34.1734 Z" fill="#000000" fill-rule="nonzero" fill-opacity="1" /><path clip-path="url(#clip870)" d="M1091.2 48.0275 L1091.2 51.6733 L1056.93 51.6733 Q1057.42 59.3701 1061.55 63.421 Q1065.72 67.4314 1073.13 67.4314 Q1077.43 67.4314 1081.44 66.3781 Q1085.49 65.3249 1089.46 63.2184 L1089.46 70.267 Q1085.45 71.9684 1081.24 72.8596 Q1077.02 73.7508 1072.69 73.7508 Q1061.83 73.7508 1055.47 67.4314 Q1049.15 61.1119 1049.15 50.3365 Q1049.15 39.1965 1055.15 32.6746 Q1061.18 26.1121 1071.39 26.1121 Q1080.55 26.1121 1085.85 32.0264 Q1091.2 37.9003 1091.2 48.0275 M1083.75 45.84 Q1083.67 39.7232 1080.3 36.0774 Q1076.98 32.4315 1071.47 32.4315 Q1065.24 32.4315 1061.47 35.9558 Q1057.74 39.4801 1057.17 45.8805 L1083.75 45.84 Z" fill="#000000" fill-rule="nonzero" fill-opacity="1" /><path clip-path="url(#clip870)" d="M1133.29 34.0924 L1133.29 9.54393 L1140.74 9.54393 L1140.74 72.576 L1133.29 72.576 L1133.29 65.7705 Q1130.94 69.8214 1127.34 71.8063 Q1123.77 73.7508 1118.75 73.7508 Q1110.52 73.7508 1105.34 67.1883 Q1100.19 60.6258 1100.19 49.9314 Q1100.19 39.2371 1105.34 32.6746 Q1110.52 26.1121 1118.75 26.1121 Q1123.77 26.1121 1127.34 28.0971 Q1130.94 30.0415 1133.29 34.0924 M1107.89 49.9314 Q1107.89 58.1548 1111.25 62.8538 Q1114.66 67.5124 1120.57 67.5124 Q1126.49 67.5124 1129.89 62.8538 Q1133.29 58.1548 1133.29 49.9314 Q1133.29 41.7081 1129.89 37.0496 Q1126.49 32.3505 1120.57 32.3505 Q1114.66 32.3505 1111.25 37.0496 Q1107.89 41.7081 1107.89 49.9314 Z" fill="#000000" fill-rule="nonzero" fill-opacity="1" /><path clip-path="url(#clip870)" d="M1156.1 27.2059 L1163.55 27.2059 L1163.55 72.576 L1156.1 72.576 L1156.1 27.2059 M1156.1 9.54393 L1163.55 9.54393 L1163.55 18.9825 L1156.1 18.9825 L1156.1 9.54393 Z" fill="#000000" fill-rule="nonzero" fill-opacity="1" /><path clip-path="url(#clip870)" d="M1211.8 28.9478 L1211.8 35.9153 Q1208.64 34.1734 1205.44 33.3227 Q1202.28 32.4315 1199.04 32.4315 Q1191.79 32.4315 1187.78 37.0496 Q1183.76 41.6271 1183.76 49.9314 Q1183.76 58.2358 1187.78 62.8538 Q1191.79 67.4314 1199.04 67.4314 Q1202.28 67.4314 1205.44 66.5807 Q1208.64 65.6895 1211.8 63.9476 L1211.8 70.8341 Q1208.68 72.2924 1205.32 73.0216 Q1201.99 73.7508 1198.23 73.7508 Q1187.98 73.7508 1181.94 67.3098 Q1175.91 60.8689 1175.91 49.9314 Q1175.91 38.832 1181.98 32.472 Q1188.1 26.1121 1198.71 26.1121 Q1202.16 26.1121 1205.44 26.8413 Q1208.72 27.5299 1211.8 28.9478 Z" fill="#000000" fill-rule="nonzero" fill-opacity="1" /><path clip-path="url(#clip870)" d="M1232.13 14.324 L1232.13 27.2059 L1247.49 27.2059 L1247.49 32.9987 L1232.13 32.9987 L1232.13 57.6282 Q1232.13 63.1779 1233.63 64.7578 Q1235.17 66.3376 1239.83 66.3376 L1247.49 66.3376 L1247.49 72.576 L1239.83 72.576 Q1231.2 72.576 1227.92 69.3758 Q1224.64 66.1351 1224.64 57.6282 L1224.64 32.9987 L1219.17 32.9987 L1219.17 27.2059 L1224.64 27.2059 L1224.64 14.324 L1232.13 14.324 Z" fill="#000000" fill-rule="nonzero" fill-opacity="1" /><path clip-path="url(#clip870)" d="M1257.29 27.2059 L1264.74 27.2059 L1264.74 72.576 L1257.29 72.576 L1257.29 27.2059 M1257.29 9.54393 L1264.74 9.54393 L1264.74 18.9825 L1257.29 18.9825 L1257.29 9.54393 Z" fill="#000000" fill-rule="nonzero" fill-opacity="1" /><path clip-path="url(#clip870)" d="M1297.92 32.4315 Q1291.92 32.4315 1288.44 37.1306 Q1284.96 41.7891 1284.96 49.9314 Q1284.96 58.0738 1288.4 62.7728 Q1291.88 67.4314 1297.92 67.4314 Q1303.87 67.4314 1307.36 62.7323 Q1310.84 58.0333 1310.84 49.9314 Q1310.84 41.8701 1307.36 37.1711 Q1303.87 32.4315 1297.92 32.4315 M1297.92 26.1121 Q1307.64 26.1121 1313.19 32.4315 Q1318.74 38.7509 1318.74 49.9314 Q1318.74 61.0714 1313.19 67.4314 Q1307.64 73.7508 1297.92 73.7508 Q1288.16 73.7508 1282.61 67.4314 Q1277.1 61.0714 1277.1 49.9314 Q1277.1 38.7509 1282.61 32.4315 Q1288.16 26.1121 1297.92 26.1121 Z" fill="#000000" fill-rule="nonzero" fill-opacity="1" /><path clip-path="url(#clip870)" d="M1368.81 45.1919 L1368.81 72.576 L1361.36 72.576 L1361.36 45.4349 Q1361.36 38.994 1358.85 35.7938 Q1356.33 32.5936 1351.31 32.5936 Q1345.27 32.5936 1341.79 36.4419 Q1338.31 40.2903 1338.31 46.9338 L1338.31 72.576 L1330.81 72.576 L1330.81 27.2059 L1338.31 27.2059 L1338.31 34.2544 Q1340.98 30.163 1344.59 28.1376 Q1348.23 26.1121 1352.97 26.1121 Q1360.79 26.1121 1364.8 30.9732 Q1368.81 35.7938 1368.81 45.1919 Z" fill="#000000" fill-rule="nonzero" fill-opacity="1" /><path clip-path="url(#clip870)" d="M1412.6 28.5427 L1412.6 35.5912 Q1409.44 33.9709 1406.04 33.1607 Q1402.64 32.3505 1398.99 32.3505 Q1393.44 32.3505 1390.64 34.0519 Q1387.89 35.7533 1387.89 39.156 Q1387.89 41.7486 1389.87 43.2475 Q1391.86 44.7058 1397.86 46.0426 L1400.41 46.6097 Q1408.35 48.3111 1411.67 51.4303 Q1415.03 54.509 1415.03 60.0587 Q1415.03 66.3781 1410.01 70.0644 Q1405.03 73.7508 1396.28 73.7508 Q1392.63 73.7508 1388.66 73.0216 Q1384.73 72.3329 1380.36 70.9151 L1380.36 63.2184 Q1384.49 65.3654 1388.5 66.4591 Q1392.51 67.5124 1396.44 67.5124 Q1401.7 67.5124 1404.54 65.73 Q1407.37 63.9071 1407.37 60.6258 Q1407.37 57.5877 1405.31 55.9673 Q1403.28 54.3469 1396.36 52.8481 L1393.76 52.2405 Q1386.84 50.7821 1383.76 47.7845 Q1380.68 44.7463 1380.68 39.4801 Q1380.68 33.0797 1385.22 29.5959 Q1389.75 26.1121 1398.1 26.1121 Q1402.23 26.1121 1405.88 26.7198 Q1409.52 27.3274 1412.6 28.5427 Z" fill="#000000" fill-rule="nonzero" fill-opacity="1" /><path clip-path="url(#clip870)" d="M1473.89 49.7694 Q1464.86 49.7694 1461.37 51.8354 Q1457.89 53.9013 1457.89 58.8839 Q1457.89 62.8538 1460.48 65.2034 Q1463.12 67.5124 1467.61 67.5124 Q1473.81 67.5124 1477.54 63.1374 Q1481.3 58.7219 1481.3 51.4303 L1481.3 49.7694 L1473.89 49.7694 M1488.76 46.6907 L1488.76 72.576 L1481.3 72.576 L1481.3 65.6895 Q1478.75 69.8214 1474.94 71.8063 Q1471.14 73.7508 1465.63 73.7508 Q1458.66 73.7508 1454.53 69.8619 Q1450.44 65.9325 1450.44 59.3701 Q1450.44 51.7138 1455.54 47.825 Q1460.68 43.9361 1470.85 43.9361 L1481.3 43.9361 L1481.3 43.2069 Q1481.3 38.0623 1477.9 35.2672 Q1474.54 32.4315 1468.42 32.4315 Q1464.53 32.4315 1460.85 33.3632 Q1457.16 34.295 1453.76 36.1584 L1453.76 29.2718 Q1457.85 27.692 1461.7 26.9223 Q1465.55 26.1121 1469.19 26.1121 Q1479.04 26.1121 1483.9 31.2163 Q1488.76 36.3204 1488.76 46.6907 Z" fill="#000000" fill-rule="nonzero" fill-opacity="1" /><path clip-path="url(#clip870)" d="M1511.48 14.324 L1511.48 27.2059 L1526.84 27.2059 L1526.84 32.9987 L1511.48 32.9987 L1511.48 57.6282 Q1511.48 63.1779 1512.98 64.7578 Q1514.52 66.3376 1519.18 66.3376 L1526.84 66.3376 L1526.84 72.576 L1519.18 72.576 Q1510.55 72.576 1507.27 69.3758 Q1503.99 66.1351 1503.99 57.6282 L1503.99 32.9987 L1498.52 32.9987 L1498.52 27.2059 L1503.99 27.2059 L1503.99 14.324 L1511.48 14.324 Z" fill="#000000" fill-rule="nonzero" fill-opacity="1" /><path clip-path="url(#clip870)" d="M1600.72 45.1919 L1600.72 72.576 L1593.27 72.576 L1593.27 45.4349 Q1593.27 38.994 1590.76 35.7938 Q1588.25 32.5936 1583.22 32.5936 Q1577.19 32.5936 1573.71 36.4419 Q1570.22 40.2903 1570.22 46.9338 L1570.22 72.576 L1562.73 72.576 L1562.73 27.2059 L1570.22 27.2059 L1570.22 34.2544 Q1572.89 30.163 1576.5 28.1376 Q1580.15 26.1121 1584.89 26.1121 Q1592.7 26.1121 1596.71 30.9732 Q1600.72 35.7938 1600.72 45.1919 Z" fill="#000000" fill-rule="nonzero" fill-opacity="1" /><path clip-path="url(#clip870)" d="M1654.4 48.0275 L1654.4 51.6733 L1620.13 51.6733 Q1620.61 59.3701 1624.75 63.421 Q1628.92 67.4314 1636.33 67.4314 Q1640.63 67.4314 1644.64 66.3781 Q1648.69 65.3249 1652.66 63.2184 L1652.66 70.267 Q1648.65 71.9684 1644.43 72.8596 Q1640.22 73.7508 1635.89 73.7508 Q1625.03 73.7508 1618.67 67.4314 Q1612.35 61.1119 1612.35 50.3365 Q1612.35 39.1965 1618.35 32.6746 Q1624.38 26.1121 1634.59 26.1121 Q1643.75 26.1121 1649.05 32.0264 Q1654.4 37.9003 1654.4 48.0275 M1646.95 45.84 Q1646.86 39.7232 1643.5 36.0774 Q1640.18 32.4315 1634.67 32.4315 Q1628.43 32.4315 1624.67 35.9558 Q1620.94 39.4801 1620.37 45.8805 L1646.95 45.84 Z" fill="#000000" fill-rule="nonzero" fill-opacity="1" /><path clip-path="url(#clip870)" d="M1662.3 27.2059 L1669.75 27.2059 L1679.07 62.6108 L1688.35 27.2059 L1697.14 27.2059 L1706.45 62.6108 L1715.73 27.2059 L1723.18 27.2059 L1711.31 72.576 L1702.52 72.576 L1692.76 35.3887 L1682.96 72.576 L1674.17 72.576 L1662.3 27.2059 Z" fill="#000000" fill-rule="nonzero" fill-opacity="1" /><path clip-path="url(#clip870)" d="M1790.71 34.0924 L1790.71 9.54393 L1798.17 9.54393 L1798.17 72.576 L1790.71 72.576 L1790.71 65.7705 Q1788.36 69.8214 1784.76 71.8063 Q1781.19 73.7508 1776.17 73.7508 Q1767.95 73.7508 1762.76 67.1883 Q1757.62 60.6258 1757.62 49.9314 Q1757.62 39.2371 1762.76 32.6746 Q1767.95 26.1121 1776.17 26.1121 Q1781.19 26.1121 1784.76 28.0971 Q1788.36 30.0415 1790.71 34.0924 M1765.31 49.9314 Q1765.31 58.1548 1768.68 62.8538 Q1772.08 67.5124 1777.99 67.5124 Q1783.91 67.5124 1787.31 62.8538 Q1790.71 58.1548 1790.71 49.9314 Q1790.71 41.7081 1787.31 37.0496 Q1783.91 32.3505 1777.99 32.3505 Q1772.08 32.3505 1768.68 37.0496 Q1765.31 41.7081 1765.31 49.9314 Z" fill="#000000" fill-rule="nonzero" fill-opacity="1" /><path clip-path="url(#clip870)" d="M1834.14 49.7694 Q1825.1 49.7694 1821.62 51.8354 Q1818.14 53.9013 1818.14 58.8839 Q1818.14 62.8538 1820.73 65.2034 Q1823.36 67.5124 1827.86 67.5124 Q1834.06 67.5124 1837.78 63.1374 Q1841.55 58.7219 1841.55 51.4303 L1841.55 49.7694 L1834.14 49.7694 M1849 46.6907 L1849 72.576 L1841.55 72.576 L1841.55 65.6895 Q1839 69.8214 1835.19 71.8063 Q1831.38 73.7508 1825.87 73.7508 Q1818.91 73.7508 1814.77 69.8619 Q1810.68 65.9325 1810.68 59.3701 Q1810.68 51.7138 1815.79 47.825 Q1820.93 43.9361 1831.1 43.9361 L1841.55 43.9361 L1841.55 43.2069 Q1841.55 38.0623 1838.15 35.2672 Q1834.79 32.4315 1828.67 32.4315 Q1824.78 32.4315 1821.09 33.3632 Q1817.41 34.295 1814 36.1584 L1814 29.2718 Q1818.1 27.692 1821.94 26.9223 Q1825.79 26.1121 1829.44 26.1121 Q1839.28 26.1121 1844.14 31.2163 Q1849 36.3204 1849 46.6907 Z" fill="#000000" fill-rule="nonzero" fill-opacity="1" /><path clip-path="url(#clip870)" d="M1871.73 14.324 L1871.73 27.2059 L1887.08 27.2059 L1887.08 32.9987 L1871.73 32.9987 L1871.73 57.6282 Q1871.73 63.1779 1873.23 64.7578 Q1874.77 66.3376 1879.43 66.3376 L1887.08 66.3376 L1887.08 72.576 L1879.43 72.576 Q1870.8 72.576 1867.52 69.3758 Q1864.24 66.1351 1864.24 57.6282 L1864.24 32.9987 L1858.77 32.9987 L1858.77 27.2059 L1864.24 27.2059 L1864.24 14.324 L1871.73 14.324 Z" fill="#000000" fill-rule="nonzero" fill-opacity="1" /><path clip-path="url(#clip870)" d="M1917.51 49.7694 Q1908.47 49.7694 1904.99 51.8354 Q1901.5 53.9013 1901.5 58.8839 Q1901.5 62.8538 1904.1 65.2034 Q1906.73 67.5124 1911.23 67.5124 Q1917.42 67.5124 1921.15 63.1374 Q1924.92 58.7219 1924.92 51.4303 L1924.92 49.7694 L1917.51 49.7694 M1932.37 46.6907 L1932.37 72.576 L1924.92 72.576 L1924.92 65.6895 Q1922.37 69.8214 1918.56 71.8063 Q1914.75 73.7508 1909.24 73.7508 Q1902.27 73.7508 1898.14 69.8619 Q1894.05 65.9325 1894.05 59.3701 Q1894.05 51.7138 1899.15 47.825 Q1904.3 43.9361 1914.47 43.9361 L1924.92 43.9361 L1924.92 43.2069 Q1924.92 38.0623 1921.52 35.2672 Q1918.15 32.4315 1912.04 32.4315 Q1908.15 32.4315 1904.46 33.3632 Q1900.78 34.295 1897.37 36.1584 L1897.37 29.2718 Q1901.46 27.692 1905.31 26.9223 Q1909.16 26.1121 1912.81 26.1121 Q1922.65 26.1121 1927.51 31.2163 Q1932.37 36.3204 1932.37 46.6907 Z" fill="#000000" fill-rule="nonzero" fill-opacity="1" /><path clip-path="url(#clip871)" d="M330.76 931.634 L376.529 875.114 L422.299 828.294 L468.069 788.689 L513.839 746.556 L559.608 696.862 L605.378 646.993 L651.148 601.627 L696.917 559.159 L742.687 524.31 L788.457 501.258 L834.226 486.982 L879.996 479.568 L925.766 481.331 L971.535 492.671 L1017.31 509.821 L1063.07 527.906 L1108.84 549.026 L1154.61 579.39 L1200.38 619.802 L1246.15 667.162 L1291.92 722.274 L1337.69 786.026 L1383.46 852.324 L1429.23 914.661 L1475 975.672 L1520.77 1037.91 L1566.54 1098.56 L1612.31 1153.62 L1658.08 1206.16 L1703.85 1257.18 L1749.62 1300.57 L1795.39 1336.3 L1841.16 1366.87 L1886.93 1388.28 L1932.7 1398.76 L1978.47 1406.06 L2024.24 1409.69 L2070.01 1409.85 L2115.78 1400.21 L2161.55 1378.25 L2207.32 1349.55 L2253.09 1312.1 L2298.86 1264.11 L2344.63 1211.36 L2390.4 1158.74 L2436.17 1108.93 L2481.94 1069.84 L2527.7 1048.33 L2573.47 1042.69 L2573.47 830.567 L2527.7 867.784 L2481.94 941.125 L2436.17 999.386 L2390.4 1050.63 L2344.63 1100.2 L2298.86 1146.54 L2253.09 1190.29 L2207.32 1233.03 L2161.55 1269.33 L2115.78 1293.87 L2070.01 1309.08 L2024.24 1313.94 L1978.47 1309.16 L1932.7 1298.78 L1886.93 1279.59 L1841.16 1256.54 L1795.39 1227.82 L1749.62 1190.18 L1703.85 1146.93 L1658.08 1099.43 L1612.31 1043.97 L1566.54 983.96 L1520.77 924.564 L1475 862.977 L1429.23 797.494 L1383.46 731.777 L1337.69 670.106 L1291.92 610.584 L1246.15 552.752 L1200.38 503.083 L1154.61 464.838 L1108.84 432.484 L1063.07 403.964 L1017.31 382.706 L971.535 370.393 L925.766 364.427 L879.996 363.468 L834.226 370.342 L788.457 389.69 L742.687 419.287 L696.917 452.914 L651.148 491.404 L605.378 535.673 L559.608 578.722 L513.839 619.496 L468.069 661.219 L422.299 699.755 L376.529 727.271 L330.76 742.354  Z" fill="#009af9" fill-rule="evenodd" fill-opacity="0.2"/>
<polyline clip-path="url(#clip871)" style="stroke:#009af9; stroke-linecap:round; stroke-linejoin:round; stroke-width:8; stroke-opacity:1; fill:none" points="330.76,836.994 376.529,801.193 422.299,764.024 468.069,724.954 513.839,683.026 559.608,637.792 605.378,591.333 651.148,546.516 696.917,506.036 742.687,471.799 788.457,445.474 834.226,428.662 879.996,421.518 925.766,422.879 971.535,431.532 1017.31,446.264 1063.07,465.935 1108.84,490.755 1154.61,522.114 1200.38,561.442 1246.15,609.957 1291.92,666.429 1337.69,728.066 1383.46,792.051 1429.23,856.078 1475,919.324 1520.77,981.237 1566.54,1041.26 1612.31,1098.79 1658.08,1152.8 1703.85,1202.05 1749.62,1245.37 1795.39,1282.06 1841.16,1311.71 1886.93,1333.93 1932.7,1348.77 1978.47,1357.61 2024.24,1361.81 2070.01,1359.46 2115.78,1347.04 2161.55,1323.79 2207.32,1291.29 2253.09,1251.19 2298.86,1205.32 2344.63,1155.78 2390.4,1104.69 2436.17,1054.16 2481.94,1005.48 2527.7,958.06 2573.47,936.63 "/>
<circle clip-path="url(#clip871)" cx="331.296" cy="705.099" r="7.2" fill="#808080" fill-rule="evenodd" fill-opacity="0.3" stroke="#000000" stroke-opacity="0.3" stroke-width="3.84"/>
<circle clip-path="url(#clip871)" cx="333.857" cy="724.336" r="7.2" fill="#808080" fill-rule="evenodd" fill-opacity="0.3" stroke="#000000" stroke-opacity="0.3" stroke-width="3.84"/>
<circle clip-path="url(#clip871)" cx="334.282" cy="1021.54" r="7.2" fill="#808080" fill-rule="evenodd" fill-opacity="0.3" stroke="#000000" stroke-opacity="0.3" stroke-width="3.84"/>
<circle clip-path="url(#clip871)" cx="335.857" cy="604.753" r="7.2" fill="#808080" fill-rule="evenodd" fill-opacity="0.3" stroke="#000000" stroke-opacity="0.3" stroke-width="3.84"/>
<circle clip-path="url(#clip871)" cx="339.615" cy="965.381" r="7.2" fill="#808080" fill-rule="evenodd" fill-opacity="0.3" stroke="#000000" stroke-opacity="0.3" stroke-width="3.84"/>
<circle clip-path="url(#clip871)" cx="347.208" cy="842.783" r="7.2" fill="#808080" fill-rule="evenodd" fill-opacity="0.3" stroke="#000000" stroke-opacity="0.3" stroke-width="3.84"/>
<circle clip-path="url(#clip871)" cx="348.443" cy="917.848" r="7.2" fill="#808080" fill-rule="evenodd" fill-opacity="0.3" stroke="#000000" stroke-opacity="0.3" stroke-width="3.84"/>
<circle clip-path="url(#clip871)" cx="395.991" cy="810.159" r="7.2" fill="#808080" fill-rule="evenodd" fill-opacity="0.3" stroke="#000000" stroke-opacity="0.3" stroke-width="3.84"/>
<circle clip-path="url(#clip871)" cx="414.707" cy="740.146" r="7.2" fill="#808080" fill-rule="evenodd" fill-opacity="0.3" stroke="#000000" stroke-opacity="0.3" stroke-width="3.84"/>
<circle clip-path="url(#clip871)" cx="418.083" cy="745.73" r="7.2" fill="#808080" fill-rule="evenodd" fill-opacity="0.3" stroke="#000000" stroke-opacity="0.3" stroke-width="3.84"/>
<circle clip-path="url(#clip871)" cx="427.171" cy="754.771" r="7.2" fill="#808080" fill-rule="evenodd" fill-opacity="0.3" stroke="#000000" stroke-opacity="0.3" stroke-width="3.84"/>
<circle clip-path="url(#clip871)" cx="449.914" cy="705.929" r="7.2" fill="#808080" fill-rule="evenodd" fill-opacity="0.3" stroke="#000000" stroke-opacity="0.3" stroke-width="3.84"/>
<circle clip-path="url(#clip871)" cx="492.803" cy="738.482" r="7.2" fill="#808080" fill-rule="evenodd" fill-opacity="0.3" stroke="#000000" stroke-opacity="0.3" stroke-width="3.84"/>
<circle clip-path="url(#clip871)" cx="510.77" cy="719.565" r="7.2" fill="#808080" fill-rule="evenodd" fill-opacity="0.3" stroke="#000000" stroke-opacity="0.3" stroke-width="3.84"/>
<circle clip-path="url(#clip871)" cx="515.644" cy="882.009" r="7.2" fill="#808080" fill-rule="evenodd" fill-opacity="0.3" stroke="#000000" stroke-opacity="0.3" stroke-width="3.84"/>
<circle clip-path="url(#clip871)" cx="522.763" cy="687.72" r="7.2" fill="#808080" fill-rule="evenodd" fill-opacity="0.3" stroke="#000000" stroke-opacity="0.3" stroke-width="3.84"/>
<circle clip-path="url(#clip871)" cx="532.56" cy="695.339" r="7.2" fill="#808080" fill-rule="evenodd" fill-opacity="0.3" stroke="#000000" stroke-opacity="0.3" stroke-width="3.84"/>
<circle clip-path="url(#clip871)" cx="582.635" cy="173.254" r="7.2" fill="#808080" fill-rule="evenodd" fill-opacity="0.3" stroke="#000000" stroke-opacity="0.3" stroke-width="3.84"/>
<circle clip-path="url(#clip871)" cx="585.798" cy="760.922" r="7.2" fill="#808080" fill-rule="evenodd" fill-opacity="0.3" stroke="#000000" stroke-opacity="0.3" stroke-width="3.84"/>
<circle clip-path="url(#clip871)" cx="591.306" cy="537.294" r="7.2" fill="#808080" fill-rule="evenodd" fill-opacity="0.3" stroke="#000000" stroke-opacity="0.3" stroke-width="3.84"/>
<circle clip-path="url(#clip871)" cx="594.25" cy="771.464" r="7.2" fill="#808080" fill-rule="evenodd" fill-opacity="0.3" stroke="#000000" stroke-opacity="0.3" stroke-width="3.84"/>
<circle clip-path="url(#clip871)" cx="619.783" cy="743.303" r="7.2" fill="#808080" fill-rule="evenodd" fill-opacity="0.3" stroke="#000000" stroke-opacity="0.3" stroke-width="3.84"/>
<circle clip-path="url(#clip871)" cx="620.27" cy="510.907" r="7.2" fill="#808080" fill-rule="evenodd" fill-opacity="0.3" stroke="#000000" stroke-opacity="0.3" stroke-width="3.84"/>
<circle clip-path="url(#clip871)" cx="629.78" cy="665.187" r="7.2" fill="#808080" fill-rule="evenodd" fill-opacity="0.3" stroke="#000000" stroke-opacity="0.3" stroke-width="3.84"/>
<circle clip-path="url(#clip871)" cx="632.779" cy="517.825" r="7.2" fill="#808080" fill-rule="evenodd" fill-opacity="0.3" stroke="#000000" stroke-opacity="0.3" stroke-width="3.84"/>
<circle clip-path="url(#clip871)" cx="635.127" cy="577.724" r="7.2" fill="#808080" fill-rule="evenodd" fill-opacity="0.3" stroke="#000000" stroke-opacity="0.3" stroke-width="3.84"/>
<circle clip-path="url(#clip871)" cx="636.869" cy="603.132" r="7.2" fill="#808080" fill-rule="evenodd" fill-opacity="0.3" stroke="#000000" stroke-opacity="0.3" stroke-width="3.84"/>
<circle clip-path="url(#clip871)" cx="641.847" cy="803.912" r="7.2" fill="#808080" fill-rule="evenodd" fill-opacity="0.3" stroke="#000000" stroke-opacity="0.3" stroke-width="3.84"/>
<circle clip-path="url(#clip871)" cx="645.814" cy="684.154" r="7.2" fill="#808080" fill-rule="evenodd" fill-opacity="0.3" stroke="#000000" stroke-opacity="0.3" stroke-width="3.84"/>
<circle clip-path="url(#clip871)" cx="663.683" cy="465.033" r="7.2" fill="#808080" fill-rule="evenodd" fill-opacity="0.3" stroke="#000000" stroke-opacity="0.3" stroke-width="3.84"/>
<circle clip-path="url(#clip871)" cx="665.086" cy="407.47" r="7.2" fill="#808080" fill-rule="evenodd" fill-opacity="0.3" stroke="#000000" stroke-opacity="0.3" stroke-width="3.84"/>
<circle clip-path="url(#clip871)" cx="684.896" cy="546.342" r="7.2" fill="#808080" fill-rule="evenodd" fill-opacity="0.3" stroke="#000000" stroke-opacity="0.3" stroke-width="3.84"/>
<circle clip-path="url(#clip871)" cx="712.386" cy="455.475" r="7.2" fill="#808080" fill-rule="evenodd" fill-opacity="0.3" stroke="#000000" stroke-opacity="0.3" stroke-width="3.84"/>
<circle clip-path="url(#clip871)" cx="714.857" cy="290.608" r="7.2" fill="#808080" fill-rule="evenodd" fill-opacity="0.3" stroke="#000000" stroke-opacity="0.3" stroke-width="3.84"/>
<circle clip-path="url(#clip871)" cx="733.452" cy="233.116" r="7.2" fill="#808080" fill-rule="evenodd" fill-opacity="0.3" stroke="#000000" stroke-opacity="0.3" stroke-width="3.84"/>
<circle clip-path="url(#clip871)" cx="748.134" cy="593.837" r="7.2" fill="#808080" fill-rule="evenodd" fill-opacity="0.3" stroke="#000000" stroke-opacity="0.3" stroke-width="3.84"/>
<circle clip-path="url(#clip871)" cx="752.096" cy="449.295" r="7.2" fill="#808080" fill-rule="evenodd" fill-opacity="0.3" stroke="#000000" stroke-opacity="0.3" stroke-width="3.84"/>
<circle clip-path="url(#clip871)" cx="755.696" cy="255.696" r="7.2" fill="#808080" fill-rule="evenodd" fill-opacity="0.3" stroke="#000000" stroke-opacity="0.3" stroke-width="3.84"/>
<circle clip-path="url(#clip871)" cx="767.363" cy="493.061" r="7.2" fill="#808080" fill-rule="evenodd" fill-opacity="0.3" stroke="#000000" stroke-opacity="0.3" stroke-width="3.84"/>
<circle clip-path="url(#clip871)" cx="772.562" cy="430.033" r="7.2" fill="#808080" fill-rule="evenodd" fill-opacity="0.3" stroke="#000000" stroke-opacity="0.3" stroke-width="3.84"/>
<circle clip-path="url(#clip871)" cx="773.495" cy="434.511" r="7.2" fill="#808080" fill-rule="evenodd" fill-opacity="0.3" stroke="#000000" stroke-opacity="0.3" stroke-width="3.84"/>
<circle clip-path="url(#clip871)" cx="796.48" cy="541.894" r="7.2" fill="#808080" fill-rule="evenodd" fill-opacity="0.3" stroke="#000000" stroke-opacity="0.3" stroke-width="3.84"/>
<circle clip-path="url(#clip871)" cx="798.523" cy="476.759" r="7.2" fill="#808080" fill-rule="evenodd" fill-opacity="0.3" stroke="#000000" stroke-opacity="0.3" stroke-width="3.84"/>
<circle clip-path="url(#clip871)" cx="816.051" cy="410.823" r="7.2" fill="#808080" fill-rule="evenodd" fill-opacity="0.3" stroke="#000000" stroke-opacity="0.3" stroke-width="3.84"/>
<circle clip-path="url(#clip871)" cx="816.458" cy="466.604" r="7.2" fill="#808080" fill-rule="evenodd" fill-opacity="0.3" stroke="#000000" stroke-opacity="0.3" stroke-width="3.84"/>
<circle clip-path="url(#clip871)" cx="817.783" cy="244.162" r="7.2" fill="#808080" fill-rule="evenodd" fill-opacity="0.3" stroke="#000000" stroke-opacity="0.3" stroke-width="3.84"/>
<circle clip-path="url(#clip871)" cx="854.486" cy="468.304" r="7.2" fill="#808080" fill-rule="evenodd" fill-opacity="0.3" stroke="#000000" stroke-opacity="0.3" stroke-width="3.84"/>
<circle clip-path="url(#clip871)" cx="854.89" cy="461.294" r="7.2" fill="#808080" fill-rule="evenodd" fill-opacity="0.3" stroke="#000000" stroke-opacity="0.3" stroke-width="3.84"/>
<circle clip-path="url(#clip871)" cx="870.233" cy="295.299" r="7.2" fill="#808080" fill-rule="evenodd" fill-opacity="0.3" stroke="#000000" stroke-opacity="0.3" stroke-width="3.84"/>
<circle clip-path="url(#clip871)" cx="903.614" cy="549.653" r="7.2" fill="#808080" fill-rule="evenodd" fill-opacity="0.3" stroke="#000000" stroke-opacity="0.3" stroke-width="3.84"/>
<circle clip-path="url(#clip871)" cx="912.207" cy="402.509" r="7.2" fill="#808080" fill-rule="evenodd" fill-opacity="0.3" stroke="#000000" stroke-opacity="0.3" stroke-width="3.84"/>
<circle clip-path="url(#clip871)" cx="916.306" cy="622.548" r="7.2" fill="#808080" fill-rule="evenodd" fill-opacity="0.3" stroke="#000000" stroke-opacity="0.3" stroke-width="3.84"/>
<circle clip-path="url(#clip871)" cx="939.178" cy="230.388" r="7.2" fill="#808080" fill-rule="evenodd" fill-opacity="0.3" stroke="#000000" stroke-opacity="0.3" stroke-width="3.84"/>
<circle clip-path="url(#clip871)" cx="972.489" cy="448.002" r="7.2" fill="#808080" fill-rule="evenodd" fill-opacity="0.3" stroke="#000000" stroke-opacity="0.3" stroke-width="3.84"/>
<circle clip-path="url(#clip871)" cx="976.1" cy="477.368" r="7.2" fill="#808080" fill-rule="evenodd" fill-opacity="0.3" stroke="#000000" stroke-opacity="0.3" stroke-width="3.84"/>
<circle clip-path="url(#clip871)" cx="989.274" cy="593.911" r="7.2" fill="#808080" fill-rule="evenodd" fill-opacity="0.3" stroke="#000000" stroke-opacity="0.3" stroke-width="3.84"/>
<circle clip-path="url(#clip871)" cx="1015.28" cy="425.779" r="7.2" fill="#808080" fill-rule="evenodd" fill-opacity="0.3" stroke="#000000" stroke-opacity="0.3" stroke-width="3.84"/>
<circle clip-path="url(#clip871)" cx="1041.64" cy="554.421" r="7.2" fill="#808080" fill-rule="evenodd" fill-opacity="0.3" stroke="#000000" stroke-opacity="0.3" stroke-width="3.84"/>
<circle clip-path="url(#clip871)" cx="1041.82" cy="515.726" r="7.2" fill="#808080" fill-rule="evenodd" fill-opacity="0.3" stroke="#000000" stroke-opacity="0.3" stroke-width="3.84"/>
<circle clip-path="url(#clip871)" cx="1057.59" cy="260.108" r="7.2" fill="#808080" fill-rule="evenodd" fill-opacity="0.3" stroke="#000000" stroke-opacity="0.3" stroke-width="3.84"/>
<circle clip-path="url(#clip871)" cx="1077.75" cy="485.831" r="7.2" fill="#808080" fill-rule="evenodd" fill-opacity="0.3" stroke="#000000" stroke-opacity="0.3" stroke-width="3.84"/>
<circle clip-path="url(#clip871)" cx="1078.54" cy="616.691" r="7.2" fill="#808080" fill-rule="evenodd" fill-opacity="0.3" stroke="#000000" stroke-opacity="0.3" stroke-width="3.84"/>
<circle clip-path="url(#clip871)" cx="1108.42" cy="458.867" r="7.2" fill="#808080" fill-rule="evenodd" fill-opacity="0.3" stroke="#000000" stroke-opacity="0.3" stroke-width="3.84"/>
<circle clip-path="url(#clip871)" cx="1128.42" cy="551.469" r="7.2" fill="#808080" fill-rule="evenodd" fill-opacity="0.3" stroke="#000000" stroke-opacity="0.3" stroke-width="3.84"/>
<circle clip-path="url(#clip871)" cx="1130.79" cy="414.925" r="7.2" fill="#808080" fill-rule="evenodd" fill-opacity="0.3" stroke="#000000" stroke-opacity="0.3" stroke-width="3.84"/>
<circle clip-path="url(#clip871)" cx="1135.96" cy="296.839" r="7.2" fill="#808080" fill-rule="evenodd" fill-opacity="0.3" stroke="#000000" stroke-opacity="0.3" stroke-width="3.84"/>
<circle clip-path="url(#clip871)" cx="1172.88" cy="683.129" r="7.2" fill="#808080" fill-rule="evenodd" fill-opacity="0.3" stroke="#000000" stroke-opacity="0.3" stroke-width="3.84"/>
<circle clip-path="url(#clip871)" cx="1182" cy="481.58" r="7.2" fill="#808080" fill-rule="evenodd" fill-opacity="0.3" stroke="#000000" stroke-opacity="0.3" stroke-width="3.84"/>
<circle clip-path="url(#clip871)" cx="1201.18" cy="554.743" r="7.2" fill="#808080" fill-rule="evenodd" fill-opacity="0.3" stroke="#000000" stroke-opacity="0.3" stroke-width="3.84"/>
<circle clip-path="url(#clip871)" cx="1203.05" cy="438.817" r="7.2" fill="#808080" fill-rule="evenodd" fill-opacity="0.3" stroke="#000000" stroke-opacity="0.3" stroke-width="3.84"/>
<circle clip-path="url(#clip871)" cx="1205.87" cy="605.393" r="7.2" fill="#808080" fill-rule="evenodd" fill-opacity="0.3" stroke="#000000" stroke-opacity="0.3" stroke-width="3.84"/>
<circle clip-path="url(#clip871)" cx="1215.38" cy="460.396" r="7.2" fill="#808080" fill-rule="evenodd" fill-opacity="0.3" stroke="#000000" stroke-opacity="0.3" stroke-width="3.84"/>
<circle clip-path="url(#clip871)" cx="1216.57" cy="837.062" r="7.2" fill="#808080" fill-rule="evenodd" fill-opacity="0.3" stroke="#000000" stroke-opacity="0.3" stroke-width="3.84"/>
<circle clip-path="url(#clip871)" cx="1224.45" cy="346.19" r="7.2" fill="#808080" fill-rule="evenodd" fill-opacity="0.3" stroke="#000000" stroke-opacity="0.3" stroke-width="3.84"/>
<circle clip-path="url(#clip871)" cx="1251.7" cy="496.64" r="7.2" fill="#808080" fill-rule="evenodd" fill-opacity="0.3" stroke="#000000" stroke-opacity="0.3" stroke-width="3.84"/>
<circle clip-path="url(#clip871)" cx="1254.47" cy="647.502" r="7.2" fill="#808080" fill-rule="evenodd" fill-opacity="0.3" stroke="#000000" stroke-opacity="0.3" stroke-width="3.84"/>
<circle clip-path="url(#clip871)" cx="1259.36" cy="841.935" r="7.2" fill="#808080" fill-rule="evenodd" fill-opacity="0.3" stroke="#000000" stroke-opacity="0.3" stroke-width="3.84"/>
<circle clip-path="url(#clip871)" cx="1289.51" cy="573.711" r="7.2" fill="#808080" fill-rule="evenodd" fill-opacity="0.3" stroke="#000000" stroke-opacity="0.3" stroke-width="3.84"/>
<circle clip-path="url(#clip871)" cx="1299.05" cy="608.664" r="7.2" fill="#808080" fill-rule="evenodd" fill-opacity="0.3" stroke="#000000" stroke-opacity="0.3" stroke-width="3.84"/>
<circle clip-path="url(#clip871)" cx="1308.07" cy="691.045" r="7.2" fill="#808080" fill-rule="evenodd" fill-opacity="0.3" stroke="#000000" stroke-opacity="0.3" stroke-width="3.84"/>
<circle clip-path="url(#clip871)" cx="1333.19" cy="699.906" r="7.2" fill="#808080" fill-rule="evenodd" fill-opacity="0.3" stroke="#000000" stroke-opacity="0.3" stroke-width="3.84"/>
<circle clip-path="url(#clip871)" cx="1344.21" cy="821.084" r="7.2" fill="#808080" fill-rule="evenodd" fill-opacity="0.3" stroke="#000000" stroke-opacity="0.3" stroke-width="3.84"/>
<circle clip-path="url(#clip871)" cx="1346.11" cy="684.985" r="7.2" fill="#808080" fill-rule="evenodd" fill-opacity="0.3" stroke="#000000" stroke-opacity="0.3" stroke-width="3.84"/>
<circle clip-path="url(#clip871)" cx="1357.34" cy="710.424" r="7.2" fill="#808080" fill-rule="evenodd" fill-opacity="0.3" stroke="#000000" stroke-opacity="0.3" stroke-width="3.84"/>
<circle clip-path="url(#clip871)" cx="1367.55" cy="807.298" r="7.2" fill="#808080" fill-rule="evenodd" fill-opacity="0.3" stroke="#000000" stroke-opacity="0.3" stroke-width="3.84"/>
<circle clip-path="url(#clip871)" cx="1371.54" cy="966.254" r="7.2" fill="#808080" fill-rule="evenodd" fill-opacity="0.3" stroke="#000000" stroke-opacity="0.3" stroke-width="3.84"/>
<circle clip-path="url(#clip871)" cx="1396.04" cy="702.731" r="7.2" fill="#808080" fill-rule="evenodd" fill-opacity="0.3" stroke="#000000" stroke-opacity="0.3" stroke-width="3.84"/>
<circle clip-path="url(#clip871)" cx="1405.91" cy="737.306" r="7.2" fill="#808080" fill-rule="evenodd" fill-opacity="0.3" stroke="#000000" stroke-opacity="0.3" stroke-width="3.84"/>
<circle clip-path="url(#clip871)" cx="1407.96" cy="942.246" r="7.2" fill="#808080" fill-rule="evenodd" fill-opacity="0.3" stroke="#000000" stroke-opacity="0.3" stroke-width="3.84"/>
<circle clip-path="url(#clip871)" cx="1483.99" cy="1155.53" r="7.2" fill="#808080" fill-rule="evenodd" fill-opacity="0.3" stroke="#000000" stroke-opacity="0.3" stroke-width="3.84"/>
<circle clip-path="url(#clip871)" cx="1484.43" cy="894.467" r="7.2" fill="#808080" fill-rule="evenodd" fill-opacity="0.3" stroke="#000000" stroke-opacity="0.3" stroke-width="3.84"/>
<circle clip-path="url(#clip871)" cx="1484.44" cy="974.462" r="7.2" fill="#808080" fill-rule="evenodd" fill-opacity="0.3" stroke="#000000" stroke-opacity="0.3" stroke-width="3.84"/>
<circle clip-path="url(#clip871)" cx="1485.9" cy="889.526" r="7.2" fill="#808080" fill-rule="evenodd" fill-opacity="0.3" stroke="#000000" stroke-opacity="0.3" stroke-width="3.84"/>
<circle clip-path="url(#clip871)" cx="1494.94" cy="1126.62" r="7.2" fill="#808080" fill-rule="evenodd" fill-opacity="0.3" stroke="#000000" stroke-opacity="0.3" stroke-width="3.84"/>
<circle clip-path="url(#clip871)" cx="1523.6" cy="1116.34" r="7.2" fill="#808080" fill-rule="evenodd" fill-opacity="0.3" stroke="#000000" stroke-opacity="0.3" stroke-width="3.84"/>
<circle clip-path="url(#clip871)" cx="1531.14" cy="829.009" r="7.2" fill="#808080" fill-rule="evenodd" fill-opacity="0.3" stroke="#000000" stroke-opacity="0.3" stroke-width="3.84"/>
<circle clip-path="url(#clip871)" cx="1532.32" cy="929.733" r="7.2" fill="#808080" fill-rule="evenodd" fill-opacity="0.3" stroke="#000000" stroke-opacity="0.3" stroke-width="3.84"/>
<circle clip-path="url(#clip871)" cx="1532.38" cy="903.251" r="7.2" fill="#808080" fill-rule="evenodd" fill-opacity="0.3" stroke="#000000" stroke-opacity="0.3" stroke-width="3.84"/>
<circle clip-path="url(#clip871)" cx="1535.94" cy="729.292" r="7.2" fill="#808080" fill-rule="evenodd" fill-opacity="0.3" stroke="#000000" stroke-opacity="0.3" stroke-width="3.84"/>
<circle clip-path="url(#clip871)" cx="1565.36" cy="1012.93" r="7.2" fill="#808080" fill-rule="evenodd" fill-opacity="0.3" stroke="#000000" stroke-opacity="0.3" stroke-width="3.84"/>
<circle clip-path="url(#clip871)" cx="1587.43" cy="1350.76" r="7.2" fill="#808080" fill-rule="evenodd" fill-opacity="0.3" stroke="#000000" stroke-opacity="0.3" stroke-width="3.84"/>
<circle clip-path="url(#clip871)" cx="1594.86" cy="1020.62" r="7.2" fill="#808080" fill-rule="evenodd" fill-opacity="0.3" stroke="#000000" stroke-opacity="0.3" stroke-width="3.84"/>
<circle clip-path="url(#clip871)" cx="1601.23" cy="906.778" r="7.2" fill="#808080" fill-rule="evenodd" fill-opacity="0.3" stroke="#000000" stroke-opacity="0.3" stroke-width="3.84"/>
<circle clip-path="url(#clip871)" cx="1616.9" cy="796.881" r="7.2" fill="#808080" fill-rule="evenodd" fill-opacity="0.3" stroke="#000000" stroke-opacity="0.3" stroke-width="3.84"/>
<circle clip-path="url(#clip871)" cx="1631.13" cy="1313.67" r="7.2" fill="#808080" fill-rule="evenodd" fill-opacity="0.3" stroke="#000000" stroke-opacity="0.3" stroke-width="3.84"/>
<circle clip-path="url(#clip871)" cx="1635.13" cy="1285.56" r="7.2" fill="#808080" fill-rule="evenodd" fill-opacity="0.3" stroke="#000000" stroke-opacity="0.3" stroke-width="3.84"/>
<circle clip-path="url(#clip871)" cx="1653.24" cy="1241.96" r="7.2" fill="#808080" fill-rule="evenodd" fill-opacity="0.3" stroke="#000000" stroke-opacity="0.3" stroke-width="3.84"/>
<circle clip-path="url(#clip871)" cx="1659.13" cy="1299.32" r="7.2" fill="#808080" fill-rule="evenodd" fill-opacity="0.3" stroke="#000000" stroke-opacity="0.3" stroke-width="3.84"/>
<circle clip-path="url(#clip871)" cx="1680.35" cy="1263.57" r="7.2" fill="#808080" fill-rule="evenodd" fill-opacity="0.3" stroke="#000000" stroke-opacity="0.3" stroke-width="3.84"/>
<circle clip-path="url(#clip871)" cx="1684.18" cy="1200.79" r="7.2" fill="#808080" fill-rule="evenodd" fill-opacity="0.3" stroke="#000000" stroke-opacity="0.3" stroke-width="3.84"/>
<circle clip-path="url(#clip871)" cx="1696.43" cy="1361.56" r="7.2" fill="#808080" fill-rule="evenodd" fill-opacity="0.3" stroke="#000000" stroke-opacity="0.3" stroke-width="3.84"/>
<circle clip-path="url(#clip871)" cx="1702.8" cy="897.369" r="7.2" fill="#808080" fill-rule="evenodd" fill-opacity="0.3" stroke="#000000" stroke-opacity="0.3" stroke-width="3.84"/>
<circle clip-path="url(#clip871)" cx="1703.6" cy="1178.71" r="7.2" fill="#808080" fill-rule="evenodd" fill-opacity="0.3" stroke="#000000" stroke-opacity="0.3" stroke-width="3.84"/>
<circle clip-path="url(#clip871)" cx="1718.64" cy="1221.88" r="7.2" fill="#808080" fill-rule="evenodd" fill-opacity="0.3" stroke="#000000" stroke-opacity="0.3" stroke-width="3.84"/>
<circle clip-path="url(#clip871)" cx="1719.36" cy="1138.3" r="7.2" fill="#808080" fill-rule="evenodd" fill-opacity="0.3" stroke="#000000" stroke-opacity="0.3" stroke-width="3.84"/>
<circle clip-path="url(#clip871)" cx="1729.35" cy="1214.73" r="7.2" fill="#808080" fill-rule="evenodd" fill-opacity="0.3" stroke="#000000" stroke-opacity="0.3" stroke-width="3.84"/>
<circle clip-path="url(#clip871)" cx="1735.25" cy="1245.05" r="7.2" fill="#808080" fill-rule="evenodd" fill-opacity="0.3" stroke="#000000" stroke-opacity="0.3" stroke-width="3.84"/>
<circle clip-path="url(#clip871)" cx="1747.05" cy="1022.16" r="7.2" fill="#808080" fill-rule="evenodd" fill-opacity="0.3" stroke="#000000" stroke-opacity="0.3" stroke-width="3.84"/>
<circle clip-path="url(#clip871)" cx="1766.05" cy="1285.42" r="7.2" fill="#808080" fill-rule="evenodd" fill-opacity="0.3" stroke="#000000" stroke-opacity="0.3" stroke-width="3.84"/>
<circle clip-path="url(#clip871)" cx="1770.01" cy="1443.91" r="7.2" fill="#808080" fill-rule="evenodd" fill-opacity="0.3" stroke="#000000" stroke-opacity="0.3" stroke-width="3.84"/>
<circle clip-path="url(#clip871)" cx="1778.73" cy="1208.52" r="7.2" fill="#808080" fill-rule="evenodd" fill-opacity="0.3" stroke="#000000" stroke-opacity="0.3" stroke-width="3.84"/>
<circle clip-path="url(#clip871)" cx="1804.21" cy="1335.81" r="7.2" fill="#808080" fill-rule="evenodd" fill-opacity="0.3" stroke="#000000" stroke-opacity="0.3" stroke-width="3.84"/>
<circle clip-path="url(#clip871)" cx="1827.61" cy="1377.22" r="7.2" fill="#808080" fill-rule="evenodd" fill-opacity="0.3" stroke="#000000" stroke-opacity="0.3" stroke-width="3.84"/>
<circle clip-path="url(#clip871)" cx="1845.95" cy="1468.45" r="7.2" fill="#808080" fill-rule="evenodd" fill-opacity="0.3" stroke="#000000" stroke-opacity="0.3" stroke-width="3.84"/>
<circle clip-path="url(#clip871)" cx="1849.7" cy="1253.12" r="7.2" fill="#808080" fill-rule="evenodd" fill-opacity="0.3" stroke="#000000" stroke-opacity="0.3" stroke-width="3.84"/>
<circle clip-path="url(#clip871)" cx="1852.65" cy="1342.47" r="7.2" fill="#808080" fill-rule="evenodd" fill-opacity="0.3" stroke="#000000" stroke-opacity="0.3" stroke-width="3.84"/>
<circle clip-path="url(#clip871)" cx="1856.17" cy="1244.24" r="7.2" fill="#808080" fill-rule="evenodd" fill-opacity="0.3" stroke="#000000" stroke-opacity="0.3" stroke-width="3.84"/>
<circle clip-path="url(#clip871)" cx="1867.4" cy="1359.55" r="7.2" fill="#808080" fill-rule="evenodd" fill-opacity="0.3" stroke="#000000" stroke-opacity="0.3" stroke-width="3.84"/>
<circle clip-path="url(#clip871)" cx="1885.42" cy="1430.35" r="7.2" fill="#808080" fill-rule="evenodd" fill-opacity="0.3" stroke="#000000" stroke-opacity="0.3" stroke-width="3.84"/>
<circle clip-path="url(#clip871)" cx="1912.02" cy="1164.15" r="7.2" fill="#808080" fill-rule="evenodd" fill-opacity="0.3" stroke="#000000" stroke-opacity="0.3" stroke-width="3.84"/>
<circle clip-path="url(#clip871)" cx="1943.52" cy="1395.55" r="7.2" fill="#808080" fill-rule="evenodd" fill-opacity="0.3" stroke="#000000" stroke-opacity="0.3" stroke-width="3.84"/>
<circle clip-path="url(#clip871)" cx="1944.07" cy="1218.34" r="7.2" fill="#808080" fill-rule="evenodd" fill-opacity="0.3" stroke="#000000" stroke-opacity="0.3" stroke-width="3.84"/>
<circle clip-path="url(#clip871)" cx="1944.12" cy="1530.91" r="7.2" fill="#808080" fill-rule="evenodd" fill-opacity="0.3" stroke="#000000" stroke-opacity="0.3" stroke-width="3.84"/>
<circle clip-path="url(#clip871)" cx="1944.75" cy="1424.13" r="7.2" fill="#808080" fill-rule="evenodd" fill-opacity="0.3" stroke="#000000" stroke-opacity="0.3" stroke-width="3.84"/>
<circle clip-path="url(#clip871)" cx="1955.6" cy="1398.09" r="7.2" fill="#808080" fill-rule="evenodd" fill-opacity="0.3" stroke="#000000" stroke-opacity="0.3" stroke-width="3.84"/>
<circle clip-path="url(#clip871)" cx="1967.34" cy="1418.06" r="7.2" fill="#808080" fill-rule="evenodd" fill-opacity="0.3" stroke="#000000" stroke-opacity="0.3" stroke-width="3.84"/>
<circle clip-path="url(#clip871)" cx="1970.89" cy="1165.69" r="7.2" fill="#808080" fill-rule="evenodd" fill-opacity="0.3" stroke="#000000" stroke-opacity="0.3" stroke-width="3.84"/>
<circle clip-path="url(#clip871)" cx="1975.22" cy="1365.76" r="7.2" fill="#808080" fill-rule="evenodd" fill-opacity="0.3" stroke="#000000" stroke-opacity="0.3" stroke-width="3.84"/>
<circle clip-path="url(#clip871)" cx="1975.85" cy="1327.03" r="7.2" fill="#808080" fill-rule="evenodd" fill-opacity="0.3" stroke="#000000" stroke-opacity="0.3" stroke-width="3.84"/>
<circle clip-path="url(#clip871)" cx="1977.12" cy="1499.74" r="7.2" fill="#808080" fill-rule="evenodd" fill-opacity="0.3" stroke="#000000" stroke-opacity="0.3" stroke-width="3.84"/>
<circle clip-path="url(#clip871)" cx="1982.72" cy="1469.45" r="7.2" fill="#808080" fill-rule="evenodd" fill-opacity="0.3" stroke="#000000" stroke-opacity="0.3" stroke-width="3.84"/>
<circle clip-path="url(#clip871)" cx="1984.98" cy="1218.54" r="7.2" fill="#808080" fill-rule="evenodd" fill-opacity="0.3" stroke="#000000" stroke-opacity="0.3" stroke-width="3.84"/>
<circle clip-path="url(#clip871)" cx="1990.04" cy="1181.16" r="7.2" fill="#808080" fill-rule="evenodd" fill-opacity="0.3" stroke="#000000" stroke-opacity="0.3" stroke-width="3.84"/>
<circle clip-path="url(#clip871)" cx="1995.45" cy="1182.97" r="7.2" fill="#808080" fill-rule="evenodd" fill-opacity="0.3" stroke="#000000" stroke-opacity="0.3" stroke-width="3.84"/>
<circle clip-path="url(#clip871)" cx="1997.52" cy="1565.44" r="7.2" fill="#808080" fill-rule="evenodd" fill-opacity="0.3" stroke="#000000" stroke-opacity="0.3" stroke-width="3.84"/>
<circle clip-path="url(#clip871)" cx="1999.28" cy="1066.71" r="7.2" fill="#808080" fill-rule="evenodd" fill-opacity="0.3" stroke="#000000" stroke-opacity="0.3" stroke-width="3.84"/>
<circle clip-path="url(#clip871)" cx="2006.88" cy="1217.21" r="7.2" fill="#808080" fill-rule="evenodd" fill-opacity="0.3" stroke="#000000" stroke-opacity="0.3" stroke-width="3.84"/>
<circle clip-path="url(#clip871)" cx="2010.09" cy="1369" r="7.2" fill="#808080" fill-rule="evenodd" fill-opacity="0.3" stroke="#000000" stroke-opacity="0.3" stroke-width="3.84"/>
<circle clip-path="url(#clip871)" cx="2016.21" cy="1262.8" r="7.2" fill="#808080" fill-rule="evenodd" fill-opacity="0.3" stroke="#000000" stroke-opacity="0.3" stroke-width="3.84"/>
<circle clip-path="url(#clip871)" cx="2034.2" cy="1505.51" r="7.2" fill="#808080" fill-rule="evenodd" fill-opacity="0.3" stroke="#000000" stroke-opacity="0.3" stroke-width="3.84"/>
<circle clip-path="url(#clip871)" cx="2045.33" cy="1522.51" r="7.2" fill="#808080" fill-rule="evenodd" fill-opacity="0.3" stroke="#000000" stroke-opacity="0.3" stroke-width="3.84"/>
<circle clip-path="url(#clip871)" cx="2055.48" cy="1354.54" r="7.2" fill="#808080" fill-rule="evenodd" fill-opacity="0.3" stroke="#000000" stroke-opacity="0.3" stroke-width="3.84"/>
<circle clip-path="url(#clip871)" cx="2070.71" cy="1533.03" r="7.2" fill="#808080" fill-rule="evenodd" fill-opacity="0.3" stroke="#000000" stroke-opacity="0.3" stroke-width="3.84"/>
<circle clip-path="url(#clip871)" cx="2070.71" cy="1331.14" r="7.2" fill="#808080" fill-rule="evenodd" fill-opacity="0.3" stroke="#000000" stroke-opacity="0.3" stroke-width="3.84"/>
<circle clip-path="url(#clip871)" cx="2077.41" cy="1168.52" r="7.2" fill="#808080" fill-rule="evenodd" fill-opacity="0.3" stroke="#000000" stroke-opacity="0.3" stroke-width="3.84"/>
<circle clip-path="url(#clip871)" cx="2078.66" cy="1507.24" r="7.2" fill="#808080" fill-rule="evenodd" fill-opacity="0.3" stroke="#000000" stroke-opacity="0.3" stroke-width="3.84"/>
<circle clip-path="url(#clip871)" cx="2089.29" cy="1461.42" r="7.2" fill="#808080" fill-rule="evenodd" fill-opacity="0.3" stroke="#000000" stroke-opacity="0.3" stroke-width="3.84"/>
<circle clip-path="url(#clip871)" cx="2090.6" cy="1346.89" r="7.2" fill="#808080" fill-rule="evenodd" fill-opacity="0.3" stroke="#000000" stroke-opacity="0.3" stroke-width="3.84"/>
<circle clip-path="url(#clip871)" cx="2109.66" cy="1495.36" r="7.2" fill="#808080" fill-rule="evenodd" fill-opacity="0.3" stroke="#000000" stroke-opacity="0.3" stroke-width="3.84"/>
<circle clip-path="url(#clip871)" cx="2112.37" cy="1402.13" r="7.2" fill="#808080" fill-rule="evenodd" fill-opacity="0.3" stroke="#000000" stroke-opacity="0.3" stroke-width="3.84"/>
<circle clip-path="url(#clip871)" cx="2149.73" cy="1203" r="7.2" fill="#808080" fill-rule="evenodd" fill-opacity="0.3" stroke="#000000" stroke-opacity="0.3" stroke-width="3.84"/>
<circle clip-path="url(#clip871)" cx="2163.57" cy="1181.55" r="7.2" fill="#808080" fill-rule="evenodd" fill-opacity="0.3" stroke="#000000" stroke-opacity="0.3" stroke-width="3.84"/>
<circle clip-path="url(#clip871)" cx="2172.93" cy="1261.35" r="7.2" fill="#808080" fill-rule="evenodd" fill-opacity="0.3" stroke="#000000" stroke-opacity="0.3" stroke-width="3.84"/>
<circle clip-path="url(#clip871)" cx="2180.28" cy="1581.97" r="7.2" fill="#808080" fill-rule="evenodd" fill-opacity="0.3" stroke="#000000" stroke-opacity="0.3" stroke-width="3.84"/>
<circle clip-path="url(#clip871)" cx="2188.08" cy="1315.71" r="7.2" fill="#808080" fill-rule="evenodd" fill-opacity="0.3" stroke="#000000" stroke-opacity="0.3" stroke-width="3.84"/>
<circle clip-path="url(#clip871)" cx="2189.84" cy="1151.9" r="7.2" fill="#808080" fill-rule="evenodd" fill-opacity="0.3" stroke="#000000" stroke-opacity="0.3" stroke-width="3.84"/>
<circle clip-path="url(#clip871)" cx="2193.22" cy="1186.28" r="7.2" fill="#808080" fill-rule="evenodd" fill-opacity="0.3" stroke="#000000" stroke-opacity="0.3" stroke-width="3.84"/>
<circle clip-path="url(#clip871)" cx="2198.75" cy="1328.58" r="7.2" fill="#808080" fill-rule="evenodd" fill-opacity="0.3" stroke="#000000" stroke-opacity="0.3" stroke-width="3.84"/>
<circle clip-path="url(#clip871)" cx="2205.68" cy="1688.65" r="7.2" fill="#808080" fill-rule="evenodd" fill-opacity="0.3" stroke="#000000" stroke-opacity="0.3" stroke-width="3.84"/>
<circle clip-path="url(#clip871)" cx="2207.47" cy="1285.95" r="7.2" fill="#808080" fill-rule="evenodd" fill-opacity="0.3" stroke="#000000" stroke-opacity="0.3" stroke-width="3.84"/>
<circle clip-path="url(#clip871)" cx="2236.37" cy="1189.7" r="7.2" fill="#808080" fill-rule="evenodd" fill-opacity="0.3" stroke="#000000" stroke-opacity="0.3" stroke-width="3.84"/>
<circle clip-path="url(#clip871)" cx="2238.15" cy="1265.04" r="7.2" fill="#808080" fill-rule="evenodd" fill-opacity="0.3" stroke="#000000" stroke-opacity="0.3" stroke-width="3.84"/>
<circle clip-path="url(#clip871)" cx="2265.39" cy="1225.86" r="7.2" fill="#808080" fill-rule="evenodd" fill-opacity="0.3" stroke="#000000" stroke-opacity="0.3" stroke-width="3.84"/>
<circle clip-path="url(#clip871)" cx="2321.74" cy="1131.89" r="7.2" fill="#808080" fill-rule="evenodd" fill-opacity="0.3" stroke="#000000" stroke-opacity="0.3" stroke-width="3.84"/>
<circle clip-path="url(#clip871)" cx="2357.35" cy="1213.97" r="7.2" fill="#808080" fill-rule="evenodd" fill-opacity="0.3" stroke="#000000" stroke-opacity="0.3" stroke-width="3.84"/>
<circle clip-path="url(#clip871)" cx="2358.24" cy="964.842" r="7.2" fill="#808080" fill-rule="evenodd" fill-opacity="0.3" stroke="#000000" stroke-opacity="0.3" stroke-width="3.84"/>
<circle clip-path="url(#clip871)" cx="2362.07" cy="1082.62" r="7.2" fill="#808080" fill-rule="evenodd" fill-opacity="0.3" stroke="#000000" stroke-opacity="0.3" stroke-width="3.84"/>
<circle clip-path="url(#clip871)" cx="2364.01" cy="1329.53" r="7.2" fill="#808080" fill-rule="evenodd" fill-opacity="0.3" stroke="#000000" stroke-opacity="0.3" stroke-width="3.84"/>
<circle clip-path="url(#clip871)" cx="2382.41" cy="926.796" r="7.2" fill="#808080" fill-rule="evenodd" fill-opacity="0.3" stroke="#000000" stroke-opacity="0.3" stroke-width="3.84"/>
<circle clip-path="url(#clip871)" cx="2389.36" cy="944.389" r="7.2" fill="#808080" fill-rule="evenodd" fill-opacity="0.3" stroke="#000000" stroke-opacity="0.3" stroke-width="3.84"/>
<circle clip-path="url(#clip871)" cx="2389.7" cy="999.295" r="7.2" fill="#808080" fill-rule="evenodd" fill-opacity="0.3" stroke="#000000" stroke-opacity="0.3" stroke-width="3.84"/>
<circle clip-path="url(#clip871)" cx="2392.27" cy="1357.82" r="7.2" fill="#808080" fill-rule="evenodd" fill-opacity="0.3" stroke="#000000" stroke-opacity="0.3" stroke-width="3.84"/>
<circle clip-path="url(#clip871)" cx="2406.72" cy="1181.52" r="7.2" fill="#808080" fill-rule="evenodd" fill-opacity="0.3" stroke="#000000" stroke-opacity="0.3" stroke-width="3.84"/>
<circle clip-path="url(#clip871)" cx="2423.29" cy="986.016" r="7.2" fill="#808080" fill-rule="evenodd" fill-opacity="0.3" stroke="#000000" stroke-opacity="0.3" stroke-width="3.84"/>
<circle clip-path="url(#clip871)" cx="2426.96" cy="1067.5" r="7.2" fill="#808080" fill-rule="evenodd" fill-opacity="0.3" stroke="#000000" stroke-opacity="0.3" stroke-width="3.84"/>
<circle clip-path="url(#clip871)" cx="2427.3" cy="1022.83" r="7.2" fill="#808080" fill-rule="evenodd" fill-opacity="0.3" stroke="#000000" stroke-opacity="0.3" stroke-width="3.84"/>
<circle clip-path="url(#clip871)" cx="2432.35" cy="709.49" r="7.2" fill="#808080" fill-rule="evenodd" fill-opacity="0.3" stroke="#000000" stroke-opacity="0.3" stroke-width="3.84"/>
<circle clip-path="url(#clip871)" cx="2433.05" cy="1185.25" r="7.2" fill="#808080" fill-rule="evenodd" fill-opacity="0.3" stroke="#000000" stroke-opacity="0.3" stroke-width="3.84"/>
<circle clip-path="url(#clip871)" cx="2438.94" cy="1366.1" r="7.2" fill="#808080" fill-rule="evenodd" fill-opacity="0.3" stroke="#000000" stroke-opacity="0.3" stroke-width="3.84"/>
<circle clip-path="url(#clip871)" cx="2444.42" cy="1012.1" r="7.2" fill="#808080" fill-rule="evenodd" fill-opacity="0.3" stroke="#000000" stroke-opacity="0.3" stroke-width="3.84"/>
<circle clip-path="url(#clip871)" cx="2449.5" cy="1145.41" r="7.2" fill="#808080" fill-rule="evenodd" fill-opacity="0.3" stroke="#000000" stroke-opacity="0.3" stroke-width="3.84"/>
<circle clip-path="url(#clip871)" cx="2453.87" cy="974.987" r="7.2" fill="#808080" fill-rule="evenodd" fill-opacity="0.3" stroke="#000000" stroke-opacity="0.3" stroke-width="3.84"/>
<circle clip-path="url(#clip871)" cx="2478.33" cy="1126.25" r="7.2" fill="#808080" fill-rule="evenodd" fill-opacity="0.3" stroke="#000000" stroke-opacity="0.3" stroke-width="3.84"/>
<circle clip-path="url(#clip871)" cx="2489.53" cy="671.748" r="7.2" fill="#808080" fill-rule="evenodd" fill-opacity="0.3" stroke="#000000" stroke-opacity="0.3" stroke-width="3.84"/>
<circle clip-path="url(#clip871)" cx="2489.61" cy="1011.27" r="7.2" fill="#808080" fill-rule="evenodd" fill-opacity="0.3" stroke="#000000" stroke-opacity="0.3" stroke-width="3.84"/>
<circle clip-path="url(#clip871)" cx="2508.36" cy="1037.79" r="7.2" fill="#808080" fill-rule="evenodd" fill-opacity="0.3" stroke="#000000" stroke-opacity="0.3" stroke-width="3.84"/>
<circle clip-path="url(#clip871)" cx="2514.13" cy="984.837" r="7.2" fill="#808080" fill-rule="evenodd" fill-opacity="0.3" stroke="#000000" stroke-opacity="0.3" stroke-width="3.84"/>
<circle clip-path="url(#clip871)" cx="2524.64" cy="821.133" r="7.2" fill="#808080" fill-rule="evenodd" fill-opacity="0.3" stroke="#000000" stroke-opacity="0.3" stroke-width="3.84"/>
<circle clip-path="url(#clip871)" cx="2534.94" cy="918.525" r="7.2" fill="#808080" fill-rule="evenodd" fill-opacity="0.3" stroke="#000000" stroke-opacity="0.3" stroke-width="3.84"/>
<circle clip-path="url(#clip871)" cx="2548.56" cy="1150.63" r="7.2" fill="#808080" fill-rule="evenodd" fill-opacity="0.3" stroke="#000000" stroke-opacity="0.3" stroke-width="3.84"/>
<path clip-path="url(#clip870)" d="M1946.17 336.856 L2561.51 336.856 L2561.51 181.336 L1946.17 181.336  Z" fill="#ffffff" fill-rule="evenodd" fill-opacity="1"/>
<polyline clip-path="url(#clip870)" style="stroke:#000000; stroke-linecap:round; stroke-linejoin:round; stroke-width:4; stroke-opacity:1; fill:none" points="1946.17,336.856 2561.51,336.856 2561.51,181.336 1946.17,181.336 1946.17,336.856 "/>
<polyline clip-path="url(#clip870)" style="stroke:#009af9; stroke-linecap:round; stroke-linejoin:round; stroke-width:8; stroke-opacity:1; fill:none" points="1972.59,233.176 2131.07,233.176 "/>
<path clip-path="url(#clip870)" d="M2161.77 246.567 L2161.77 260.317 L2157.49 260.317 L2157.49 224.531 L2161.77 224.531 L2161.77 228.466 Q2163.11 226.151 2165.15 225.04 Q2167.21 223.906 2170.05 223.906 Q2174.78 223.906 2177.72 227.655 Q2180.68 231.405 2180.68 237.517 Q2180.68 243.628 2177.72 247.378 Q2174.78 251.128 2170.05 251.128 Q2167.21 251.128 2165.15 250.016 Q2163.11 248.882 2161.77 246.567 M2176.26 237.517 Q2176.26 232.817 2174.31 230.155 Q2172.39 227.47 2169.01 227.47 Q2165.63 227.47 2163.69 230.155 Q2161.77 232.817 2161.77 237.517 Q2161.77 242.216 2163.69 244.901 Q2165.63 247.563 2169.01 247.563 Q2172.39 247.563 2174.31 244.901 Q2176.26 242.216 2176.26 237.517 Z" fill="#000000" fill-rule="nonzero" fill-opacity="1" /><path clip-path="url(#clip870)" d="M2202.76 228.512 Q2202.05 228.095 2201.19 227.91 Q2200.36 227.702 2199.34 227.702 Q2195.73 227.702 2193.78 230.063 Q2191.86 232.401 2191.86 236.799 L2191.86 250.456 L2187.58 250.456 L2187.58 224.531 L2191.86 224.531 L2191.86 228.558 Q2193.2 226.197 2195.36 225.063 Q2197.51 223.906 2200.59 223.906 Q2201.03 223.906 2201.56 223.975 Q2202.09 224.021 2202.74 224.137 L2202.76 228.512 Z" fill="#000000" fill-rule="nonzero" fill-opacity="1" /><path clip-path="url(#clip870)" d="M2228.36 236.429 L2228.36 238.512 L2208.78 238.512 Q2209.06 242.91 2211.42 245.225 Q2213.8 247.516 2218.04 247.516 Q2220.49 247.516 2222.79 246.915 Q2225.1 246.313 2227.37 245.109 L2227.37 249.137 Q2225.08 250.109 2222.67 250.618 Q2220.26 251.128 2217.79 251.128 Q2211.58 251.128 2207.95 247.516 Q2204.34 243.905 2204.34 237.748 Q2204.34 231.382 2207.76 227.655 Q2211.21 223.906 2217.05 223.906 Q2222.28 223.906 2225.31 227.285 Q2228.36 230.642 2228.36 236.429 M2224.11 235.179 Q2224.06 231.683 2222.14 229.6 Q2220.24 227.517 2217.09 227.517 Q2213.53 227.517 2211.37 229.53 Q2209.24 231.544 2208.92 235.202 L2224.11 235.179 Z" fill="#000000" fill-rule="nonzero" fill-opacity="1" /><path clip-path="url(#clip870)" d="M2252.42 228.466 L2252.42 214.438 L2256.67 214.438 L2256.67 250.456 L2252.42 250.456 L2252.42 246.567 Q2251.07 248.882 2249.01 250.016 Q2246.98 251.128 2244.11 251.128 Q2239.41 251.128 2236.44 247.378 Q2233.5 243.628 2233.5 237.517 Q2233.5 231.405 2236.44 227.655 Q2239.41 223.906 2244.11 223.906 Q2246.98 223.906 2249.01 225.04 Q2251.07 226.151 2252.42 228.466 M2237.9 237.517 Q2237.9 242.216 2239.82 244.901 Q2241.77 247.563 2245.15 247.563 Q2248.53 247.563 2250.47 244.901 Q2252.42 242.216 2252.42 237.517 Q2252.42 232.817 2250.47 230.155 Q2248.53 227.47 2245.15 227.47 Q2241.77 227.47 2239.82 230.155 Q2237.9 232.817 2237.9 237.517 Z" fill="#000000" fill-rule="nonzero" fill-opacity="1" /><path clip-path="url(#clip870)" d="M2265.45 224.531 L2269.71 224.531 L2269.71 250.456 L2265.45 250.456 L2265.45 224.531 M2265.45 214.438 L2269.71 214.438 L2269.71 219.831 L2265.45 219.831 L2265.45 214.438 Z" fill="#000000" fill-rule="nonzero" fill-opacity="1" /><path clip-path="url(#clip870)" d="M2297.28 225.526 L2297.28 229.507 Q2295.47 228.512 2293.64 228.026 Q2291.84 227.517 2289.98 227.517 Q2285.84 227.517 2283.55 230.155 Q2281.26 232.771 2281.26 237.517 Q2281.26 242.262 2283.55 244.901 Q2285.84 247.516 2289.98 247.516 Q2291.84 247.516 2293.64 247.03 Q2295.47 246.521 2297.28 245.526 L2297.28 249.461 Q2295.49 250.294 2293.57 250.711 Q2291.67 251.128 2289.52 251.128 Q2283.67 251.128 2280.22 247.447 Q2276.77 243.767 2276.77 237.517 Q2276.77 231.174 2280.24 227.54 Q2283.73 223.906 2289.8 223.906 Q2291.77 223.906 2293.64 224.322 Q2295.52 224.716 2297.28 225.526 Z" fill="#000000" fill-rule="nonzero" fill-opacity="1" /><path clip-path="url(#clip870)" d="M2308.9 217.169 L2308.9 224.531 L2317.67 224.531 L2317.67 227.841 L2308.9 227.841 L2308.9 241.915 Q2308.9 245.086 2309.75 245.989 Q2310.63 246.891 2313.29 246.891 L2317.67 246.891 L2317.67 250.456 L2313.29 250.456 Q2308.36 250.456 2306.49 248.628 Q2304.61 246.776 2304.61 241.915 L2304.61 227.841 L2301.49 227.841 L2301.49 224.531 L2304.61 224.531 L2304.61 217.169 L2308.9 217.169 Z" fill="#000000" fill-rule="nonzero" fill-opacity="1" /><path clip-path="url(#clip870)" d="M2345.45 236.429 L2345.45 238.512 L2325.86 238.512 Q2326.14 242.91 2328.5 245.225 Q2330.89 247.516 2335.12 247.516 Q2337.58 247.516 2339.87 246.915 Q2342.18 246.313 2344.45 245.109 L2344.45 249.137 Q2342.16 250.109 2339.75 250.618 Q2337.35 251.128 2334.87 251.128 Q2328.67 251.128 2325.03 247.516 Q2321.42 243.905 2321.42 237.748 Q2321.42 231.382 2324.85 227.655 Q2328.29 223.906 2334.13 223.906 Q2339.36 223.906 2342.39 227.285 Q2345.45 230.642 2345.45 236.429 M2341.19 235.179 Q2341.14 231.683 2339.22 229.6 Q2337.32 227.517 2334.17 227.517 Q2330.61 227.517 2328.46 229.53 Q2326.33 231.544 2326 235.202 L2341.19 235.179 Z" fill="#000000" fill-rule="nonzero" fill-opacity="1" /><path clip-path="url(#clip870)" d="M2369.5 228.466 L2369.5 214.438 L2373.76 214.438 L2373.76 250.456 L2369.5 250.456 L2369.5 246.567 Q2368.16 248.882 2366.1 250.016 Q2364.06 251.128 2361.19 251.128 Q2356.49 251.128 2353.53 247.378 Q2350.59 243.628 2350.59 237.517 Q2350.59 231.405 2353.53 227.655 Q2356.49 223.906 2361.19 223.906 Q2364.06 223.906 2366.1 225.04 Q2368.16 226.151 2369.5 228.466 M2354.98 237.517 Q2354.98 242.216 2356.91 244.901 Q2358.85 247.563 2362.23 247.563 Q2365.61 247.563 2367.55 244.901 Q2369.5 242.216 2369.5 237.517 Q2369.5 232.817 2367.55 230.155 Q2365.61 227.47 2362.23 227.47 Q2358.85 227.47 2356.91 230.155 Q2354.98 232.817 2354.98 237.517 Z" fill="#000000" fill-rule="nonzero" fill-opacity="1" /><path clip-path="url(#clip870)" d="M2414.94 220.734 L2414.94 229.693 L2427.83 229.693 L2427.83 233.628 L2414.94 233.628 L2414.94 242.586 L2411.05 242.586 L2411.05 233.628 L2398.16 233.628 L2398.16 229.693 L2411.05 229.693 L2411.05 220.734 L2414.94 220.734 M2398.16 246.521 L2427.83 246.521 L2427.83 250.456 L2398.16 250.456 L2398.16 246.521 Z" fill="#000000" fill-rule="nonzero" fill-opacity="1" /><path clip-path="url(#clip870)" d="M2457.02 246.521 L2473.34 246.521 L2473.34 250.456 L2451.4 250.456 L2451.4 246.521 Q2454.06 243.767 2458.64 239.137 Q2463.25 234.484 2464.43 233.142 Q2466.67 230.618 2467.55 228.882 Q2468.46 227.123 2468.46 225.433 Q2468.46 222.679 2466.51 220.943 Q2464.59 219.206 2461.49 219.206 Q2459.29 219.206 2456.84 219.97 Q2454.41 220.734 2451.63 222.285 L2451.63 217.563 Q2454.45 216.429 2456.91 215.85 Q2459.36 215.271 2461.4 215.271 Q2466.77 215.271 2469.96 217.956 Q2473.16 220.642 2473.16 225.132 Q2473.16 227.262 2472.34 229.183 Q2471.56 231.081 2469.45 233.674 Q2468.87 234.345 2465.77 237.563 Q2462.67 240.757 2457.02 246.521 Z" fill="#000000" fill-rule="nonzero" fill-opacity="1" /><path clip-path="url(#clip870)" d="M2503.46 217.031 L2503.46 221.591 Q2500.79 220.318 2498.43 219.693 Q2496.07 219.068 2493.87 219.068 Q2490.05 219.068 2487.97 220.549 Q2485.91 222.031 2485.91 224.762 Q2485.91 227.054 2487.28 228.234 Q2488.66 229.392 2492.51 230.109 L2495.33 230.688 Q2500.56 231.683 2503.04 234.206 Q2505.54 236.706 2505.54 240.919 Q2505.54 245.942 2502.16 248.535 Q2498.8 251.128 2492.3 251.128 Q2489.84 251.128 2487.07 250.572 Q2484.31 250.016 2481.35 248.929 L2481.35 244.114 Q2484.2 245.711 2486.93 246.521 Q2489.66 247.331 2492.3 247.331 Q2496.3 247.331 2498.48 245.757 Q2500.65 244.183 2500.65 241.267 Q2500.65 238.72 2499.08 237.285 Q2497.53 235.85 2493.97 235.132 L2491.12 234.577 Q2485.89 233.535 2483.55 231.313 Q2481.21 229.091 2481.21 225.132 Q2481.21 220.549 2484.43 217.91 Q2487.67 215.271 2493.34 215.271 Q2495.77 215.271 2498.29 215.711 Q2500.82 216.151 2503.46 217.031 Z" fill="#000000" fill-rule="nonzero" fill-opacity="1" /><path clip-path="url(#clip870)" d="M2512.83 215.896 L2534.68 215.896 L2534.68 219.831 L2517.51 219.831 L2517.51 230.063 L2533.96 230.063 L2533.96 233.998 L2517.51 233.998 L2517.51 246.521 L2535.1 246.521 L2535.1 250.456 L2512.83 250.456 L2512.83 215.896 Z" fill="#000000" fill-rule="nonzero" fill-opacity="1" /><circle clip-path="url(#clip870)" cx="2051.83" cy="285.016" r="18.432" fill="#808080" fill-rule="evenodd" fill-opacity="0.3" stroke="#000000" stroke-opacity="0.3" stroke-width="9.8304"/>
<path clip-path="url(#clip870)" d="M2169.38 279.357 Q2165.96 279.357 2163.97 282.042 Q2161.98 284.704 2161.98 289.357 Q2161.98 294.009 2163.94 296.694 Q2165.93 299.356 2169.38 299.356 Q2172.79 299.356 2174.78 296.671 Q2176.77 293.986 2176.77 289.357 Q2176.77 284.75 2174.78 282.065 Q2172.79 279.357 2169.38 279.357 M2169.38 275.746 Q2174.94 275.746 2178.11 279.357 Q2181.28 282.968 2181.28 289.357 Q2181.28 295.722 2178.11 299.356 Q2174.94 302.968 2169.38 302.968 Q2163.8 302.968 2160.63 299.356 Q2157.49 295.722 2157.49 289.357 Q2157.49 282.968 2160.63 279.357 Q2163.8 275.746 2169.38 275.746 Z" fill="#000000" fill-rule="nonzero" fill-opacity="1" /><path clip-path="url(#clip870)" d="M2206.95 289.357 Q2206.95 284.657 2205.01 281.995 Q2203.09 279.31 2199.71 279.31 Q2196.33 279.31 2194.38 281.995 Q2192.46 284.657 2192.46 289.357 Q2192.46 294.056 2194.38 296.741 Q2196.33 299.403 2199.71 299.403 Q2203.09 299.403 2205.01 296.741 Q2206.95 294.056 2206.95 289.357 M2192.46 280.306 Q2193.8 277.991 2195.84 276.88 Q2197.9 275.746 2200.75 275.746 Q2205.47 275.746 2208.41 279.495 Q2211.37 283.245 2211.37 289.357 Q2211.37 295.468 2208.41 299.218 Q2205.47 302.968 2200.75 302.968 Q2197.9 302.968 2195.84 301.856 Q2193.8 300.722 2192.46 298.407 L2192.46 302.296 L2188.18 302.296 L2188.18 266.278 L2192.46 266.278 L2192.46 280.306 Z" fill="#000000" fill-rule="nonzero" fill-opacity="1" /><path clip-path="url(#clip870)" d="M2234.96 277.134 L2234.96 281.162 Q2233.16 280.236 2231.21 279.773 Q2229.27 279.31 2227.18 279.31 Q2224.01 279.31 2222.42 280.283 Q2220.84 281.255 2220.84 283.199 Q2220.84 284.681 2221.98 285.537 Q2223.11 286.37 2226.54 287.134 L2227.99 287.458 Q2232.53 288.431 2234.43 290.213 Q2236.35 291.972 2236.35 295.144 Q2236.35 298.755 2233.48 300.861 Q2230.63 302.968 2225.63 302.968 Q2223.55 302.968 2221.28 302.551 Q2219.04 302.157 2216.54 301.347 L2216.54 296.949 Q2218.9 298.176 2221.19 298.801 Q2223.48 299.403 2225.73 299.403 Q2228.74 299.403 2230.36 298.384 Q2231.98 297.343 2231.98 295.468 Q2231.98 293.732 2230.8 292.806 Q2229.64 291.88 2225.68 291.023 L2224.2 290.676 Q2220.24 289.843 2218.48 288.13 Q2216.72 286.394 2216.72 283.384 Q2216.72 279.727 2219.31 277.736 Q2221.91 275.746 2226.67 275.746 Q2229.04 275.746 2231.12 276.093 Q2233.2 276.44 2234.96 277.134 Z" fill="#000000" fill-rule="nonzero" fill-opacity="1" /><path clip-path="url(#clip870)" d="M2265.31 288.269 L2265.31 290.352 L2245.73 290.352 Q2246 294.75 2248.36 297.065 Q2250.75 299.356 2254.98 299.356 Q2257.44 299.356 2259.73 298.755 Q2262.05 298.153 2264.31 296.949 L2264.31 300.977 Q2262.02 301.949 2259.61 302.458 Q2257.21 302.968 2254.73 302.968 Q2248.53 302.968 2244.89 299.356 Q2241.28 295.745 2241.28 289.588 Q2241.28 283.222 2244.71 279.495 Q2248.16 275.746 2253.99 275.746 Q2259.22 275.746 2262.25 279.125 Q2265.31 282.482 2265.31 288.269 M2261.05 287.019 Q2261 283.523 2259.08 281.44 Q2257.18 279.357 2254.04 279.357 Q2250.47 279.357 2248.32 281.37 Q2246.19 283.384 2245.86 287.042 L2261.05 287.019 Z" fill="#000000" fill-rule="nonzero" fill-opacity="1" /><path clip-path="url(#clip870)" d="M2287.32 280.352 Q2286.61 279.935 2285.75 279.75 Q2284.92 279.542 2283.9 279.542 Q2280.29 279.542 2278.34 281.903 Q2276.42 284.241 2276.42 288.639 L2276.42 302.296 L2272.14 302.296 L2272.14 276.371 L2276.42 276.371 L2276.42 280.398 Q2277.76 278.037 2279.92 276.903 Q2282.07 275.746 2285.15 275.746 Q2285.59 275.746 2286.12 275.815 Q2286.65 275.861 2287.3 275.977 L2287.32 280.352 Z" fill="#000000" fill-rule="nonzero" fill-opacity="1" /><path clip-path="url(#clip870)" d="M2288.73 276.371 L2293.25 276.371 L2301.35 298.13 L2309.45 276.371 L2313.97 276.371 L2304.24 302.296 L2298.46 302.296 L2288.73 276.371 Z" fill="#000000" fill-rule="nonzero" fill-opacity="1" /><path clip-path="url(#clip870)" d="M2342.02 288.269 L2342.02 290.352 L2322.44 290.352 Q2322.72 294.75 2325.08 297.065 Q2327.46 299.356 2331.7 299.356 Q2334.15 299.356 2336.44 298.755 Q2338.76 298.153 2341.03 296.949 L2341.03 300.977 Q2338.73 301.949 2336.33 302.458 Q2333.92 302.968 2331.44 302.968 Q2325.24 302.968 2321.6 299.356 Q2317.99 295.745 2317.99 289.588 Q2317.99 283.222 2321.42 279.495 Q2324.87 275.746 2330.7 275.746 Q2335.93 275.746 2338.97 279.125 Q2342.02 282.482 2342.02 288.269 M2337.76 287.019 Q2337.72 283.523 2335.79 281.44 Q2333.9 279.357 2330.75 279.357 Q2327.18 279.357 2325.03 281.37 Q2322.9 283.384 2322.58 287.042 L2337.76 287.019 Z" fill="#000000" fill-rule="nonzero" fill-opacity="1" /><path clip-path="url(#clip870)" d="M2366.07 280.306 L2366.07 266.278 L2370.33 266.278 L2370.33 302.296 L2366.07 302.296 L2366.07 298.407 Q2364.73 300.722 2362.67 301.856 Q2360.63 302.968 2357.76 302.968 Q2353.06 302.968 2350.1 299.218 Q2347.16 295.468 2347.16 289.357 Q2347.16 283.245 2350.1 279.495 Q2353.06 275.746 2357.76 275.746 Q2360.63 275.746 2362.67 276.88 Q2364.73 277.991 2366.07 280.306 M2351.56 289.357 Q2351.56 294.056 2353.48 296.741 Q2355.42 299.403 2358.8 299.403 Q2362.18 299.403 2364.13 296.741 Q2366.07 294.056 2366.07 289.357 Q2366.07 284.657 2364.13 281.995 Q2362.18 279.31 2358.8 279.31 Q2355.42 279.31 2353.48 281.995 Q2351.56 284.657 2351.56 289.357 Z" fill="#000000" fill-rule="nonzero" fill-opacity="1" /></svg>
