<?xml version="1.0" encoding="utf-8"?>
<svg xmlns="http://www.w3.org/2000/svg" xmlns:xlink="http://www.w3.org/1999/xlink" width="672" height="480" viewBox="0 0 2688 1920">
<defs>
  <clipPath id="clip300">
    <rect x="0" y="0" width="2688" height="1920"/>
  </clipPath>
</defs>
<path clip-path="url(#clip300)" d="M0 1920 L2688 1920 L2688 -4.26326e-14 L0 -4.26326e-14  Z" fill="#ffffff" fill-rule="evenodd" fill-opacity="1"/>
<defs>
  <clipPath id="clip301">
    <rect x="217" y="127" width="2425" height="1607"/>
  </clipPath>
</defs>
<path clip-path="url(#clip300)" d="M217.02 1734.12 L2640.76 1734.12 L2640.76 127.792 L217.02 127.792  Z" fill="#ffffff" fill-rule="evenodd" fill-opacity="1"/>
<polyline clip-path="url(#clip301)" style="stroke:#000000; stroke-linecap:round; stroke-linejoin:round; stroke-width:2; stroke-opacity:0.1; fill:none" points="285.068,1734.12 285.068,127.792 "/>
<polyline clip-path="url(#clip301)" style="stroke:#000000; stroke-linecap:round; stroke-linejoin:round; stroke-width:2; stroke-opacity:0.1; fill:none" points="858.819,1734.12 858.819,127.792 "/>
<polyline clip-path="url(#clip301)" style="stroke:#000000; stroke-linecap:round; stroke-linejoin:round; stroke-width:2; stroke-opacity:0.1; fill:none" points="1432.57,1734.12 1432.57,127.792 "/>
<polyline clip-path="url(#clip301)" style="stroke:#000000; stroke-linecap:round; stroke-linejoin:round; stroke-width:2; stroke-opacity:0.1; fill:none" points="2006.32,1734.12 2006.32,127.792 "/>
<polyline clip-path="url(#clip301)" style="stroke:#000000; stroke-linecap:round; stroke-linejoin:round; stroke-width:2; stroke-opacity:0.1; fill:none" points="2580.07,1734.12 2580.07,127.792 "/>
<polyline clip-path="url(#clip301)" style="stroke:#000000; stroke-linecap:round; stroke-linejoin:round; stroke-width:2; stroke-opacity:0.1; fill:none" points="217.02,1694.92 2640.76,1694.92 "/>
<polyline clip-path="url(#clip301)" style="stroke:#000000; stroke-linecap:round; stroke-linejoin:round; stroke-width:2; stroke-opacity:0.1; fill:none" points="217.02,1277.04 2640.76,1277.04 "/>
<polyline clip-path="url(#clip301)" style="stroke:#000000; stroke-linecap:round; stroke-linejoin:round; stroke-width:2; stroke-opacity:0.1; fill:none" points="217.02,859.147 2640.76,859.147 "/>
<polyline clip-path="url(#clip301)" style="stroke:#000000; stroke-linecap:round; stroke-linejoin:round; stroke-width:2; stroke-opacity:0.1; fill:none" points="217.02,441.259 2640.76,441.259 "/>
<polyline clip-path="url(#clip300)" style="stroke:#000000; stroke-linecap:round; stroke-linejoin:round; stroke-width:4; stroke-opacity:1; fill:none" points="217.02,1734.12 2640.76,1734.12 "/>
<polyline clip-path="url(#clip300)" style="stroke:#000000; stroke-linecap:round; stroke-linejoin:round; stroke-width:4; stroke-opacity:1; fill:none" points="285.068,1734.12 285.068,1715.22 "/>
<polyline clip-path="url(#clip300)" style="stroke:#000000; stroke-linecap:round; stroke-linejoin:round; stroke-width:4; stroke-opacity:1; fill:none" points="858.819,1734.12 858.819,1715.22 "/>
<polyline clip-path="url(#clip300)" style="stroke:#000000; stroke-linecap:round; stroke-linejoin:round; stroke-width:4; stroke-opacity:1; fill:none" points="1432.57,1734.12 1432.57,1715.22 "/>
<polyline clip-path="url(#clip300)" style="stroke:#000000; stroke-linecap:round; stroke-linejoin:round; stroke-width:4; stroke-opacity:1; fill:none" points="2006.32,1734.12 2006.32,1715.22 "/>
<polyline clip-path="url(#clip300)" style="stroke:#000000; stroke-linecap:round; stroke-linejoin:round; stroke-width:4; stroke-opacity:1; fill:none" points="2580.07,1734.12 2580.07,1715.22 "/>
<path clip-path="url(#clip300)" d="M247.372 1767.34 Q243.761 1767.34 241.932 1770.9 Q240.126 1774.45 240.126 1781.58 Q240.126 1788.68 241.932 1792.25 Q243.761 1795.79 247.372 1795.79 Q251.006 1795.79 252.811 1792.25 Q254.64 1788.68 254.64 1781.58 Q254.64 1774.45 252.811 1770.9 Q251.006 1767.34 247.372 1767.34 M247.372 1763.64 Q253.182 1763.64 256.237 1768.24 Q259.316 1772.83 259.316 1781.58 Q259.316 1790.3 256.237 1794.91 Q253.182 1799.49 247.372 1799.49 Q241.562 1799.49 238.483 1794.91 Q235.427 1790.3 235.427 1781.58 Q235.427 1772.83 238.483 1768.24 Q241.562 1763.64 247.372 1763.64 Z" fill="#000000" fill-rule="nonzero" fill-opacity="1" /><path clip-path="url(#clip300)" d="M267.534 1792.94 L272.418 1792.94 L272.418 1798.82 L267.534 1798.82 L267.534 1792.94 Z" fill="#000000" fill-rule="nonzero" fill-opacity="1" /><path clip-path="url(#clip300)" d="M292.603 1767.34 Q288.992 1767.34 287.163 1770.9 Q285.358 1774.45 285.358 1781.58 Q285.358 1788.68 287.163 1792.25 Q288.992 1795.79 292.603 1795.79 Q296.237 1795.79 298.043 1792.25 Q299.871 1788.68 299.871 1781.58 Q299.871 1774.45 298.043 1770.9 Q296.237 1767.34 292.603 1767.34 M292.603 1763.64 Q298.413 1763.64 301.469 1768.24 Q304.547 1772.83 304.547 1781.58 Q304.547 1790.3 301.469 1794.91 Q298.413 1799.49 292.603 1799.49 Q286.793 1799.49 283.714 1794.91 Q280.659 1790.3 280.659 1781.58 Q280.659 1772.83 283.714 1768.24 Q286.793 1763.64 292.603 1763.64 Z" fill="#000000" fill-rule="nonzero" fill-opacity="1" /><path clip-path="url(#clip300)" d="M322.765 1767.34 Q319.154 1767.34 317.325 1770.9 Q315.519 1774.45 315.519 1781.58 Q315.519 1788.68 317.325 1792.25 Q319.154 1795.79 322.765 1795.79 Q326.399 1795.79 328.205 1792.25 Q330.033 1788.68 330.033 1781.58 Q330.033 1774.45 328.205 1770.9 Q326.399 1767.34 322.765 1767.34 M322.765 1763.64 Q328.575 1763.64 331.631 1768.24 Q334.709 1772.83 334.709 1781.58 Q334.709 1790.3 331.631 1794.91 Q328.575 1799.49 322.765 1799.49 Q316.955 1799.49 313.876 1794.91 Q310.82 1790.3 310.82 1781.58 Q310.82 1772.83 313.876 1768.24 Q316.955 1763.64 322.765 1763.64 Z" fill="#000000" fill-rule="nonzero" fill-opacity="1" /><path clip-path="url(#clip300)" d="M821.62 1767.34 Q818.009 1767.34 816.18 1770.9 Q814.375 1774.45 814.375 1781.58 Q814.375 1788.68 816.18 1792.25 Q818.009 1795.79 821.62 1795.79 Q825.254 1795.79 827.06 1792.25 Q828.889 1788.68 828.889 1781.58 Q828.889 1774.45 827.06 1770.9 Q825.254 1767.34 821.62 1767.34 M821.62 1763.64 Q827.43 1763.64 830.486 1768.24 Q833.565 1772.83 833.565 1781.58 Q833.565 1790.3 830.486 1794.91 Q827.43 1799.49 821.62 1799.49 Q815.81 1799.49 812.731 1794.91 Q809.676 1790.3 809.676 1781.58 Q809.676 1772.83 812.731 1768.24 Q815.81 1763.64 821.62 1763.64 Z" fill="#000000" fill-rule="nonzero" fill-opacity="1" /><path clip-path="url(#clip300)" d="M841.782 1792.94 L846.666 1792.94 L846.666 1798.82 L841.782 1798.82 L841.782 1792.94 Z" fill="#000000" fill-rule="nonzero" fill-opacity="1" /><path clip-path="url(#clip300)" d="M860.879 1794.89 L877.199 1794.89 L877.199 1798.82 L855.254 1798.82 L855.254 1794.89 Q857.916 1792.13 862.5 1787.5 Q867.106 1782.85 868.287 1781.51 Q870.532 1778.98 871.412 1777.25 Q872.314 1775.49 872.314 1773.8 Q872.314 1771.04 870.37 1769.31 Q868.449 1767.57 865.347 1767.57 Q863.148 1767.57 860.694 1768.34 Q858.263 1769.1 855.486 1770.65 L855.486 1765.93 Q858.31 1764.79 860.763 1764.21 Q863.217 1763.64 865.254 1763.64 Q870.624 1763.64 873.819 1766.32 Q877.013 1769.01 877.013 1773.5 Q877.013 1775.63 876.203 1777.55 Q875.416 1779.45 873.31 1782.04 Q872.731 1782.71 869.629 1785.93 Q866.527 1789.12 860.879 1794.89 Z" fill="#000000" fill-rule="nonzero" fill-opacity="1" /><path clip-path="url(#clip300)" d="M887.06 1764.26 L905.416 1764.26 L905.416 1768.2 L891.342 1768.2 L891.342 1776.67 Q892.36 1776.32 893.379 1776.16 Q894.398 1775.97 895.416 1775.97 Q901.203 1775.97 904.583 1779.15 Q907.962 1782.32 907.962 1787.73 Q907.962 1793.31 904.49 1796.41 Q901.018 1799.49 894.698 1799.49 Q892.523 1799.49 890.254 1799.12 Q888.009 1798.75 885.601 1798.01 L885.601 1793.31 Q887.685 1794.45 889.907 1795 Q892.129 1795.56 894.606 1795.56 Q898.61 1795.56 900.948 1793.45 Q903.286 1791.34 903.286 1787.73 Q903.286 1784.12 900.948 1782.02 Q898.61 1779.91 894.606 1779.91 Q892.731 1779.91 890.856 1780.33 Q889.004 1780.74 887.06 1781.62 L887.06 1764.26 Z" fill="#000000" fill-rule="nonzero" fill-opacity="1" /><path clip-path="url(#clip300)" d="M1394.87 1767.34 Q1391.26 1767.34 1389.43 1770.9 Q1387.63 1774.45 1387.63 1781.58 Q1387.63 1788.68 1389.43 1792.25 Q1391.26 1795.79 1394.87 1795.79 Q1398.51 1795.79 1400.31 1792.25 Q1402.14 1788.68 1402.14 1781.58 Q1402.14 1774.45 1400.31 1770.9 Q1398.51 1767.34 1394.87 1767.34 M1394.87 1763.64 Q1400.68 1763.64 1403.74 1768.24 Q1406.82 1772.83 1406.82 1781.58 Q1406.82 1790.3 1403.74 1794.91 Q1400.68 1799.49 1394.87 1799.49 Q1389.06 1799.49 1385.98 1794.91 Q1382.93 1790.3 1382.93 1781.58 Q1382.93 1772.83 1385.98 1768.24 Q1389.06 1763.64 1394.87 1763.64 Z" fill="#000000" fill-rule="nonzero" fill-opacity="1" /><path clip-path="url(#clip300)" d="M1415.04 1792.94 L1419.92 1792.94 L1419.92 1798.82 L1415.04 1798.82 L1415.04 1792.94 Z" fill="#000000" fill-rule="nonzero" fill-opacity="1" /><path clip-path="url(#clip300)" d="M1430.15 1764.26 L1448.51 1764.26 L1448.51 1768.2 L1434.43 1768.2 L1434.43 1776.67 Q1435.45 1776.32 1436.47 1776.16 Q1437.49 1775.97 1438.51 1775.97 Q1444.29 1775.97 1447.67 1779.15 Q1451.05 1782.32 1451.05 1787.73 Q1451.05 1793.31 1447.58 1796.41 Q1444.11 1799.49 1437.79 1799.49 Q1435.61 1799.49 1433.35 1799.12 Q1431.1 1798.75 1428.69 1798.01 L1428.69 1793.31 Q1430.78 1794.45 1433 1795 Q1435.22 1795.56 1437.7 1795.56 Q1441.7 1795.56 1444.04 1793.45 Q1446.38 1791.34 1446.38 1787.73 Q1446.38 1784.12 1444.04 1782.02 Q1441.7 1779.91 1437.7 1779.91 Q1435.82 1779.91 1433.95 1780.33 Q1432.1 1780.74 1430.15 1781.62 L1430.15 1764.26 Z" fill="#000000" fill-rule="nonzero" fill-opacity="1" /><path clip-path="url(#clip300)" d="M1470.27 1767.34 Q1466.66 1767.34 1464.83 1770.9 Q1463.02 1774.45 1463.02 1781.58 Q1463.02 1788.68 1464.83 1792.25 Q1466.66 1795.79 1470.27 1795.79 Q1473.9 1795.79 1475.71 1792.25 Q1477.53 1788.68 1477.53 1781.58 Q1477.53 1774.45 1475.71 1770.9 Q1473.9 1767.34 1470.27 1767.34 M1470.27 1763.64 Q1476.08 1763.64 1479.13 1768.24 Q1482.21 1772.83 1482.21 1781.58 Q1482.21 1790.3 1479.13 1794.91 Q1476.08 1799.49 1470.27 1799.49 Q1464.46 1799.49 1461.38 1794.91 Q1458.32 1790.3 1458.32 1781.58 Q1458.32 1772.83 1461.38 1768.24 Q1464.46 1763.64 1470.27 1763.64 Z" fill="#000000" fill-rule="nonzero" fill-opacity="1" /><path clip-path="url(#clip300)" d="M1969.12 1767.34 Q1965.51 1767.34 1963.68 1770.9 Q1961.88 1774.45 1961.88 1781.58 Q1961.88 1788.68 1963.68 1792.25 Q1965.51 1795.79 1969.12 1795.79 Q1972.76 1795.79 1974.56 1792.25 Q1976.39 1788.68 1976.39 1781.58 Q1976.39 1774.45 1974.56 1770.9 Q1972.76 1767.34 1969.12 1767.34 M1969.12 1763.64 Q1974.93 1763.64 1977.99 1768.24 Q1981.07 1772.83 1981.07 1781.58 Q1981.07 1790.3 1977.99 1794.91 Q1974.93 1799.49 1969.12 1799.49 Q1963.31 1799.49 1960.23 1794.91 Q1957.18 1790.3 1957.18 1781.58 Q1957.18 1772.83 1960.23 1768.24 Q1963.31 1763.64 1969.12 1763.64 Z" fill="#000000" fill-rule="nonzero" fill-opacity="1" /><path clip-path="url(#clip300)" d="M1989.28 1792.94 L1994.17 1792.94 L1994.17 1798.82 L1989.28 1798.82 L1989.28 1792.94 Z" fill="#000000" fill-rule="nonzero" fill-opacity="1" /><path clip-path="url(#clip300)" d="M2003.17 1764.26 L2025.39 1764.26 L2025.39 1766.25 L2012.85 1798.82 L2007.96 1798.82 L2019.77 1768.2 L2003.17 1768.2 L2003.17 1764.26 Z" fill="#000000" fill-rule="nonzero" fill-opacity="1" /><path clip-path="url(#clip300)" d="M2034.56 1764.26 L2052.92 1764.26 L2052.92 1768.2 L2038.84 1768.2 L2038.84 1776.67 Q2039.86 1776.32 2040.88 1776.16 Q2041.9 1775.97 2042.92 1775.97 Q2048.7 1775.97 2052.08 1779.15 Q2055.46 1782.32 2055.46 1787.73 Q2055.46 1793.31 2051.99 1796.41 Q2048.52 1799.49 2042.2 1799.49 Q2040.02 1799.49 2037.76 1799.12 Q2035.51 1798.75 2033.1 1798.01 L2033.1 1793.31 Q2035.19 1794.45 2037.41 1795 Q2039.63 1795.56 2042.11 1795.56 Q2046.11 1795.56 2048.45 1793.45 Q2050.79 1791.34 2050.79 1787.73 Q2050.79 1784.12 2048.45 1782.02 Q2046.11 1779.91 2042.11 1779.91 Q2040.23 1779.91 2038.36 1780.33 Q2036.51 1780.74 2034.56 1781.62 L2034.56 1764.26 Z" fill="#000000" fill-rule="nonzero" fill-opacity="1" /><path clip-path="url(#clip300)" d="M2532.14 1794.89 L2539.78 1794.89 L2539.78 1768.52 L2531.47 1770.19 L2531.47 1765.93 L2539.74 1764.26 L2544.41 1764.26 L2544.41 1794.89 L2552.05 1794.89 L2552.05 1798.82 L2532.14 1798.82 L2532.14 1794.89 Z" fill="#000000" fill-rule="nonzero" fill-opacity="1" /><path clip-path="url(#clip300)" d="M2561.49 1792.94 L2566.38 1792.94 L2566.38 1798.82 L2561.49 1798.82 L2561.49 1792.94 Z" fill="#000000" fill-rule="nonzero" fill-opacity="1" /><path clip-path="url(#clip300)" d="M2586.56 1767.34 Q2582.95 1767.34 2581.12 1770.9 Q2579.32 1774.45 2579.32 1781.58 Q2579.32 1788.68 2581.12 1792.25 Q2582.95 1795.79 2586.56 1795.79 Q2590.2 1795.79 2592 1792.25 Q2593.83 1788.68 2593.83 1781.58 Q2593.83 1774.45 2592 1770.9 Q2590.2 1767.34 2586.56 1767.34 M2586.56 1763.64 Q2592.37 1763.64 2595.43 1768.24 Q2598.51 1772.83 2598.51 1781.58 Q2598.51 1790.3 2595.43 1794.91 Q2592.37 1799.49 2586.56 1799.49 Q2580.75 1799.49 2577.68 1794.91 Q2574.62 1790.3 2574.62 1781.58 Q2574.62 1772.83 2577.68 1768.24 Q2580.75 1763.64 2586.56 1763.64 Z" fill="#000000" fill-rule="nonzero" fill-opacity="1" /><path clip-path="url(#clip300)" d="M2616.73 1767.34 Q2613.12 1767.34 2611.29 1770.9 Q2609.48 1774.45 2609.48 1781.58 Q2609.48 1788.68 2611.29 1792.25 Q2613.12 1795.79 2616.73 1795.79 Q2620.36 1795.79 2622.17 1792.25 Q2623.99 1788.68 2623.99 1781.58 Q2623.99 1774.45 2622.17 1770.9 Q2620.36 1767.34 2616.73 1767.34 M2616.73 1763.64 Q2622.54 1763.64 2625.59 1768.24 Q2628.67 1772.83 2628.67 1781.58 Q2628.67 1790.3 2625.59 1794.91 Q2622.54 1799.49 2616.73 1799.49 Q2610.92 1799.49 2607.84 1794.91 Q2604.78 1790.3 2604.78 1781.58 Q2604.78 1772.83 2607.84 1768.24 Q2610.92 1763.64 2616.73 1763.64 Z" fill="#000000" fill-rule="nonzero" fill-opacity="1" /><path clip-path="url(#clip300)" d="M1445.5 1847.65 L1432.61 1865 L1446.17 1883.3 L1439.26 1883.3 L1428.89 1869.3 L1418.51 1883.3 L1411.61 1883.3 L1425.45 1864.65 L1412.78 1847.65 L1419.69 1847.65 L1429.14 1860.35 L1438.6 1847.65 L1445.5 1847.65 Z" fill="#000000" fill-rule="nonzero" fill-opacity="1" /><polyline clip-path="url(#clip300)" style="stroke:#000000; stroke-linecap:round; stroke-linejoin:round; stroke-width:4; stroke-opacity:1; fill:none" points="217.02,1734.12 217.02,127.792 "/>
<polyline clip-path="url(#clip300)" style="stroke:#000000; stroke-linecap:round; stroke-linejoin:round; stroke-width:4; stroke-opacity:1; fill:none" points="217.02,1694.92 235.918,1694.92 "/>
<polyline clip-path="url(#clip300)" style="stroke:#000000; stroke-linecap:round; stroke-linejoin:round; stroke-width:4; stroke-opacity:1; fill:none" points="217.02,1277.04 235.918,1277.04 "/>
<polyline clip-path="url(#clip300)" style="stroke:#000000; stroke-linecap:round; stroke-linejoin:round; stroke-width:4; stroke-opacity:1; fill:none" points="217.02,859.147 235.918,859.147 "/>
<polyline clip-path="url(#clip300)" style="stroke:#000000; stroke-linecap:round; stroke-linejoin:round; stroke-width:4; stroke-opacity:1; fill:none" points="217.02,441.259 235.918,441.259 "/>
<path clip-path="url(#clip300)" d="M116.585 1695.38 L146.261 1695.38 L146.261 1699.31 L116.585 1699.31 L116.585 1695.38 Z" fill="#000000" fill-rule="nonzero" fill-opacity="1" /><path clip-path="url(#clip300)" d="M160.381 1708.27 L176.7 1708.27 L176.7 1712.2 L154.756 1712.2 L154.756 1708.27 Q157.418 1705.52 162.001 1700.89 Q166.608 1696.23 167.788 1694.89 Q170.034 1692.37 170.913 1690.63 Q171.816 1688.87 171.816 1687.18 Q171.816 1684.43 169.872 1682.69 Q167.95 1680.96 164.848 1680.96 Q162.649 1680.96 160.196 1681.72 Q157.765 1682.48 154.987 1684.03 L154.987 1679.31 Q157.811 1678.18 160.265 1677.6 Q162.719 1677.02 164.756 1677.02 Q170.126 1677.02 173.321 1679.71 Q176.515 1682.39 176.515 1686.88 Q176.515 1689.01 175.705 1690.93 Q174.918 1692.83 172.811 1695.42 Q172.233 1696.09 169.131 1699.31 Q166.029 1702.51 160.381 1708.27 Z" fill="#000000" fill-rule="nonzero" fill-opacity="1" /><path clip-path="url(#clip300)" d="M116.214 1277.49 L145.89 1277.49 L145.89 1281.42 L116.214 1281.42 L116.214 1277.49 Z" fill="#000000" fill-rule="nonzero" fill-opacity="1" /><path clip-path="url(#clip300)" d="M156.793 1290.38 L164.432 1290.38 L164.432 1264.02 L156.122 1265.68 L156.122 1261.42 L164.385 1259.76 L169.061 1259.76 L169.061 1290.38 L176.7 1290.38 L176.7 1294.32 L156.793 1294.32 L156.793 1290.38 Z" fill="#000000" fill-rule="nonzero" fill-opacity="1" /><path clip-path="url(#clip300)" d="M164.756 844.946 Q161.145 844.946 159.316 848.511 Q157.511 852.053 157.511 859.182 Q157.511 866.289 159.316 869.853 Q161.145 873.395 164.756 873.395 Q168.39 873.395 170.196 869.853 Q172.024 866.289 172.024 859.182 Q172.024 852.053 170.196 848.511 Q168.39 844.946 164.756 844.946 M164.756 841.242 Q170.566 841.242 173.622 845.849 Q176.7 850.432 176.7 859.182 Q176.7 867.909 173.622 872.515 Q170.566 877.099 164.756 877.099 Q158.946 877.099 155.867 872.515 Q152.811 867.909 152.811 859.182 Q152.811 850.432 155.867 845.849 Q158.946 841.242 164.756 841.242 Z" fill="#000000" fill-rule="nonzero" fill-opacity="1" /><path clip-path="url(#clip300)" d="M156.793 454.604 L164.432 454.604 L164.432 428.238 L156.122 429.905 L156.122 425.645 L164.385 423.979 L169.061 423.979 L169.061 454.604 L176.7 454.604 L176.7 458.539 L156.793 458.539 L156.793 454.604 Z" fill="#000000" fill-rule="nonzero" fill-opacity="1" /><path clip-path="url(#clip300)" d="M12.1132 1140.72 L16.983 1140.72 L16.983 1146.32 Q16.983 1149.47 18.2562 1150.71 Q19.5293 1151.92 22.8395 1151.92 L25.9905 1151.92 L25.9905 1142.28 L30.542 1142.28 L30.542 1151.92 L61.6384 1151.92 L61.6384 1157.81 L30.542 1157.81 L30.542 1163.41 L25.9905 1163.41 L25.9905 1157.81 L23.5079 1157.81 Q17.5559 1157.81 14.8505 1155.04 Q12.1132 1152.27 12.1132 1146.26 L12.1132 1140.72 Z" fill="#000000" fill-rule="nonzero" fill-opacity="1" /><path clip-path="url(#clip300)" d="M12.1769 1121.75 Q19.4975 1126.02 26.6589 1128.08 Q33.8203 1130.15 41.1727 1130.15 Q48.5251 1130.15 55.7502 1128.08 Q62.9434 1125.98 70.2321 1121.75 L70.2321 1126.84 Q62.7524 1131.62 55.5274 1134 Q48.3023 1136.36 41.1727 1136.36 Q34.0749 1136.36 26.8817 1134 Q19.6884 1131.65 12.1769 1126.84 L12.1769 1121.75 Z" fill="#000000" fill-rule="nonzero" fill-opacity="1" /><path clip-path="url(#clip300)" d="M25.9905 1080.76 L43.337 1093.65 L61.6384 1080.09 L61.6384 1086.99 L47.6339 1097.37 L61.6384 1107.75 L61.6384 1114.65 L42.9869 1100.81 L25.9905 1113.48 L25.9905 1106.57 L38.6901 1097.12 L25.9905 1087.66 L25.9905 1080.76 Z" fill="#000000" fill-rule="nonzero" fill-opacity="1" /><path clip-path="url(#clip300)" d="M12.1769 1072.73 L12.1769 1067.64 Q19.6884 1062.87 26.8817 1060.51 Q34.0749 1058.13 41.1727 1058.13 Q48.3023 1058.13 55.5274 1060.51 Q62.7524 1062.87 70.2321 1067.64 L70.2321 1072.73 Q62.9434 1068.5 55.7502 1066.43 Q48.5251 1064.33 41.1727 1064.33 Q33.8203 1064.33 26.6589 1066.43 Q19.4975 1068.5 12.1769 1072.73 Z" fill="#000000" fill-rule="nonzero" fill-opacity="1" /><path clip-path="url(#clip300)" d="M12.1132 1026.2 L12.1132 1012.71 L16.6647 1012.71 L16.6647 1020.34 L65.6807 1020.34 L65.6807 1012.71 L70.2321 1012.71 L70.2321 1026.2 L12.1132 1026.2 Z" fill="#000000" fill-rule="nonzero" fill-opacity="1" /><path clip-path="url(#clip300)" d="M12.1132 1000.23 L12.1132 994.373 L61.6384 994.373 L61.6384 1000.23 L12.1132 1000.23 Z" fill="#000000" fill-rule="nonzero" fill-opacity="1" /><path clip-path="url(#clip300)" d="M30.0964 968.305 Q30.0964 973.016 33.7885 975.753 Q37.4488 978.49 43.8463 978.49 Q50.2438 978.49 53.9359 975.785 Q57.5962 973.048 57.5962 968.305 Q57.5962 963.627 53.9041 960.889 Q50.212 958.152 43.8463 958.152 Q37.5124 958.152 33.8203 960.889 Q30.0964 963.627 30.0964 968.305 M25.1311 968.305 Q25.1311 960.666 30.0964 956.306 Q35.0616 951.945 43.8463 951.945 Q52.5991 951.945 57.5962 956.306 Q62.5615 960.666 62.5615 968.305 Q62.5615 975.976 57.5962 980.337 Q52.5991 984.665 43.8463 984.665 Q35.0616 984.665 30.0964 980.337 Q25.1311 975.976 25.1311 968.305 Z" fill="#000000" fill-rule="nonzero" fill-opacity="1" /><path clip-path="url(#clip300)" d="M43.4007 918.78 Q37.035 918.78 33.5338 921.422 Q30.0327 924.032 30.0327 928.774 Q30.0327 933.485 33.5338 936.127 Q37.035 938.737 43.4007 938.737 Q49.7346 938.737 53.2357 936.127 Q56.7368 933.485 56.7368 928.774 Q56.7368 924.032 53.2357 921.422 Q49.7346 918.78 43.4007 918.78 M57.2143 912.924 Q66.3172 912.924 70.7414 916.966 Q75.1974 921.008 75.1974 929.347 Q75.1974 932.435 74.72 935.172 Q74.2744 937.909 73.3195 940.487 L67.6222 940.487 Q69.0227 937.909 69.6911 935.395 Q70.3595 932.88 70.3595 930.27 Q70.3595 924.509 67.3358 921.645 Q64.3439 918.78 58.2646 918.78 L55.3682 918.78 Q58.5192 920.594 60.0788 923.427 Q61.6384 926.26 61.6384 930.207 Q61.6384 936.763 56.6414 940.774 Q51.6443 944.784 43.4007 944.784 Q35.1253 944.784 30.1282 940.774 Q25.1311 936.763 25.1311 930.207 Q25.1311 926.26 26.6907 923.427 Q28.2503 920.594 31.4013 918.78 L25.9905 918.78 L25.9905 912.924 L57.2143 912.924 Z" fill="#000000" fill-rule="nonzero" fill-opacity="1" /><path clip-path="url(#clip300)" d="M27.0408 857.415 L32.579 857.415 Q31.3059 859.897 30.6693 862.571 Q30.0327 865.245 30.0327 868.109 Q30.0327 872.47 31.3695 874.666 Q32.7063 876.83 35.3799 876.83 Q37.4169 876.83 38.5946 875.271 Q39.7404 873.711 40.7908 869 L41.2364 866.995 Q42.5732 860.757 45.0239 858.147 Q47.4429 855.505 51.8034 855.505 Q56.7687 855.505 59.6651 859.452 Q62.5615 863.367 62.5615 870.242 Q62.5615 873.106 61.9886 876.225 Q61.4475 879.313 60.3335 882.75 L54.2861 882.75 Q55.973 879.504 56.8323 876.353 Q57.6599 873.202 57.6599 870.114 Q57.6599 865.977 56.2594 863.749 Q54.8271 861.521 52.249 861.521 Q49.8619 861.521 48.5887 863.144 Q47.3156 864.735 46.1379 870.178 L45.6605 872.215 Q44.5147 877.658 42.1594 880.077 Q39.7722 882.496 35.6345 882.496 Q30.6056 882.496 27.8684 878.931 Q25.1311 875.366 25.1311 868.809 Q25.1311 865.563 25.6085 862.698 Q26.086 859.834 27.0408 857.415 Z" fill="#000000" fill-rule="nonzero" fill-opacity="1" /><path clip-path="url(#clip300)" d="M27.3591 820.525 L32.8336 820.525 Q31.465 823.008 30.7966 825.523 Q30.0964 828.005 30.0964 830.551 Q30.0964 836.249 33.7248 839.4 Q37.3214 842.551 43.8463 842.551 Q50.3711 842.551 53.9996 839.4 Q57.5962 836.249 57.5962 830.551 Q57.5962 828.005 56.9278 825.523 Q56.2276 823.008 54.859 820.525 L60.2698 820.525 Q61.4156 822.976 61.9886 825.618 Q62.5615 828.228 62.5615 831.188 Q62.5615 839.241 57.5007 843.983 Q52.44 848.726 43.8463 848.726 Q35.1253 848.726 30.1282 843.951 Q25.1311 839.145 25.1311 830.806 Q25.1311 828.101 25.704 825.523 Q26.2451 822.944 27.3591 820.525 Z" fill="#000000" fill-rule="nonzero" fill-opacity="1" /><path clip-path="url(#clip300)" d="M43.719 794.14 Q43.719 801.237 45.3422 803.975 Q46.9655 806.712 50.8804 806.712 Q53.9996 806.712 55.8457 804.675 Q57.6599 802.606 57.6599 799.073 Q57.6599 794.203 54.2224 791.275 Q50.7531 788.315 45.0239 788.315 L43.719 788.315 L43.719 794.14 M41.3 782.459 L61.6384 782.459 L61.6384 788.315 L56.2276 788.315 Q59.4741 790.32 61.0337 793.312 Q62.5615 796.304 62.5615 800.633 Q62.5615 806.107 59.5059 809.354 Q56.4186 812.568 51.2623 812.568 Q45.2467 812.568 42.1912 808.558 Q39.1357 804.516 39.1357 796.527 L39.1357 788.315 L38.5628 788.315 Q34.5205 788.315 32.3244 790.989 Q30.0964 793.63 30.0964 798.436 Q30.0964 801.492 30.8284 804.388 Q31.5605 807.285 33.0246 809.958 L27.6137 809.958 Q26.3724 806.744 25.7677 803.72 Q25.1311 800.696 25.1311 797.832 Q25.1311 790.097 29.1415 786.278 Q33.1519 782.459 41.3 782.459 Z" fill="#000000" fill-rule="nonzero" fill-opacity="1" /><path clip-path="url(#clip300)" d="M12.1132 770.396 L12.1132 764.539 L61.6384 764.539 L61.6384 770.396 L12.1132 770.396 Z" fill="#000000" fill-rule="nonzero" fill-opacity="1" /><path clip-path="url(#clip300)" d="M42.3504 721.793 L45.2149 721.793 L45.2149 748.72 Q51.2623 748.338 54.4452 745.092 Q57.5962 741.813 57.5962 735.989 Q57.5962 732.615 56.7687 729.464 Q55.9411 726.281 54.2861 723.162 L59.8242 723.162 Q61.161 726.313 61.8612 729.623 Q62.5615 732.933 62.5615 736.339 Q62.5615 744.869 57.5962 749.866 Q52.631 754.831 44.1646 754.831 Q35.4117 754.831 30.2873 750.121 Q25.1311 745.378 25.1311 737.358 Q25.1311 730.164 29.7781 725.995 Q34.3932 721.793 42.3504 721.793 M40.6316 727.65 Q35.8255 727.713 32.9609 730.355 Q30.0964 732.965 30.0964 737.294 Q30.0964 742.195 32.8654 745.155 Q35.6345 748.084 40.6634 748.529 L40.6316 727.65 Z" fill="#000000" fill-rule="nonzero" fill-opacity="1" /><path clip-path="url(#clip300)" d="M12.1132 698.495 L70.2321 698.495 L70.2321 711.99 L65.6807 711.99 L65.6807 704.383 L16.6647 704.383 L16.6647 711.99 L12.1132 711.99 L12.1132 698.495 Z" fill="#000000" fill-rule="nonzero" fill-opacity="1" /><path clip-path="url(#clip300)" d="M683.866 18.8205 L683.866 41.5461 L694.155 41.5461 Q699.867 41.5461 702.986 38.5889 Q706.105 35.6318 706.105 30.163 Q706.105 24.7348 702.986 21.7777 Q699.867 18.8205 694.155 18.8205 L683.866 18.8205 M675.683 12.096 L694.155 12.096 Q704.323 12.096 709.508 16.714 Q714.734 21.2916 714.734 30.163 Q714.734 39.1155 709.508 43.6931 Q704.323 48.2706 694.155 48.2706 L683.866 48.2706 L683.866 72.576 L675.683 72.576 L675.683 12.096 Z" fill="#000000" fill-rule="nonzero" fill-opacity="1" /><path clip-path="url(#clip300)" d="M740.012 32.4315 Q734.016 32.4315 730.532 37.1306 Q727.049 41.7891 727.049 49.9314 Q727.049 58.0738 730.492 62.7728 Q733.976 67.4314 740.012 67.4314 Q745.966 67.4314 749.45 62.7323 Q752.934 58.0333 752.934 49.9314 Q752.934 41.8701 749.45 37.1711 Q745.966 32.4315 740.012 32.4315 M740.012 26.1121 Q749.734 26.1121 755.283 32.4315 Q760.833 38.7509 760.833 49.9314 Q760.833 61.0714 755.283 67.4314 Q749.734 73.7508 740.012 73.7508 Q730.249 73.7508 724.699 67.4314 Q719.19 61.0714 719.19 49.9314 Q719.19 38.7509 724.699 32.4315 Q730.249 26.1121 740.012 26.1121 Z" fill="#000000" fill-rule="nonzero" fill-opacity="1" /><path clip-path="url(#clip300)" d="M773.188 27.2059 L780.642 27.2059 L780.642 72.576 L773.188 72.576 L773.188 27.2059 M773.188 9.54393 L780.642 9.54393 L780.642 18.9825 L773.188 18.9825 L773.188 9.54393 Z" fill="#000000" fill-rule="nonzero" fill-opacity="1" /><path clip-path="url(#clip300)" d="M825.162 28.5427 L825.162 35.5912 Q822.002 33.9709 818.599 33.1607 Q815.196 32.3505 811.551 32.3505 Q806.001 32.3505 803.206 34.0519 Q800.451 35.7533 800.451 39.156 Q800.451 41.7486 802.436 43.2475 Q804.421 44.7058 810.416 46.0426 L812.968 46.6097 Q820.908 48.3111 824.23 51.4303 Q827.592 54.509 827.592 60.0587 Q827.592 66.3781 822.569 70.0644 Q817.586 73.7508 808.836 73.7508 Q805.191 73.7508 801.221 73.0216 Q797.291 72.3329 792.916 70.9151 L792.916 63.2184 Q797.048 65.3654 801.059 66.4591 Q805.069 67.5124 808.998 67.5124 Q814.265 67.5124 817.1 65.73 Q819.936 63.9071 819.936 60.6258 Q819.936 57.5877 817.87 55.9673 Q815.844 54.3469 808.917 52.8481 L806.325 52.2405 Q799.398 50.7821 796.319 47.7845 Q793.24 44.7463 793.24 39.4801 Q793.24 33.0797 797.777 29.5959 Q802.314 26.1121 810.659 26.1121 Q814.791 26.1121 818.437 26.7198 Q822.083 27.3274 825.162 28.5427 Z" fill="#000000" fill-rule="nonzero" fill-opacity="1" /><path clip-path="url(#clip300)" d="M868.385 28.5427 L868.385 35.5912 Q865.225 33.9709 861.822 33.1607 Q858.419 32.3505 854.774 32.3505 Q849.224 32.3505 846.429 34.0519 Q843.674 35.7533 843.674 39.156 Q843.674 41.7486 845.659 43.2475 Q847.644 44.7058 853.639 46.0426 L856.191 46.6097 Q864.131 48.3111 867.453 51.4303 Q870.815 54.509 870.815 60.0587 Q870.815 66.3781 865.792 70.0644 Q860.81 73.7508 852.06 73.7508 Q848.414 73.7508 844.444 73.0216 Q840.514 72.3329 836.14 70.9151 L836.14 63.2184 Q840.271 65.3654 844.282 66.4591 Q848.292 67.5124 852.222 67.5124 Q857.488 67.5124 860.323 65.73 Q863.159 63.9071 863.159 60.6258 Q863.159 57.5877 861.093 55.9673 Q859.068 54.3469 852.141 52.8481 L849.548 52.2405 Q842.621 50.7821 839.542 47.7845 Q836.464 44.7463 836.464 39.4801 Q836.464 33.0797 841.001 29.5959 Q845.538 26.1121 853.882 26.1121 Q858.014 26.1121 861.66 26.7198 Q865.306 27.3274 868.385 28.5427 Z" fill="#000000" fill-rule="nonzero" fill-opacity="1" /><path clip-path="url(#clip300)" d="M900.265 32.4315 Q894.27 32.4315 890.786 37.1306 Q887.302 41.7891 887.302 49.9314 Q887.302 58.0738 890.746 62.7728 Q894.229 67.4314 900.265 67.4314 Q906.22 67.4314 909.704 62.7323 Q913.188 58.0333 913.188 49.9314 Q913.188 41.8701 909.704 37.1711 Q906.22 32.4315 900.265 32.4315 M900.265 26.1121 Q909.987 26.1121 915.537 32.4315 Q921.087 38.7509 921.087 49.9314 Q921.087 61.0714 915.537 67.4314 Q909.987 73.7508 900.265 73.7508 Q890.503 73.7508 884.953 67.4314 Q879.444 61.0714 879.444 49.9314 Q879.444 38.7509 884.953 32.4315 Q890.503 26.1121 900.265 26.1121 Z" fill="#000000" fill-rule="nonzero" fill-opacity="1" /><path clip-path="url(#clip300)" d="M971.156 45.1919 L971.156 72.576 L963.702 72.576 L963.702 45.4349 Q963.702 38.994 961.191 35.7938 Q958.679 32.5936 953.656 32.5936 Q947.62 32.5936 944.137 36.4419 Q940.653 40.2903 940.653 46.9338 L940.653 72.576 L933.159 72.576 L933.159 27.2059 L940.653 27.2059 L940.653 34.2544 Q943.326 30.163 946.932 28.1376 Q950.578 26.1121 955.317 26.1121 Q963.135 26.1121 967.146 30.9732 Q971.156 35.7938 971.156 45.1919 Z" fill="#000000" fill-rule="nonzero" fill-opacity="1" /><path clip-path="url(#clip300)" d="M1053.96 63.9476 L1053.96 47.7034 L1040.59 47.7034 L1040.59 40.9789 L1062.06 40.9789 L1062.06 66.9452 Q1057.32 70.3075 1051.61 72.0494 Q1045.9 73.7508 1039.41 73.7508 Q1025.24 73.7508 1017.21 65.4869 Q1009.23 57.1826 1009.23 42.3968 Q1009.23 27.5705 1017.21 19.3066 Q1025.24 11.0023 1039.41 11.0023 Q1045.33 11.0023 1050.63 12.4606 Q1055.98 13.9189 1060.48 16.7545 L1060.48 25.464 Q1055.94 21.6156 1050.84 19.6712 Q1045.73 17.7268 1040.1 17.7268 Q1029 17.7268 1023.41 23.9246 Q1017.86 30.1225 1017.86 42.3968 Q1017.86 54.6305 1023.41 60.8284 Q1029 67.0263 1040.1 67.0263 Q1044.44 67.0263 1047.84 66.2971 Q1051.24 65.5274 1053.96 63.9476 Z" fill="#000000" fill-rule="nonzero" fill-opacity="1" /><path clip-path="url(#clip300)" d="M1097.22 20.1573 L1086.12 50.2555 L1108.36 50.2555 L1097.22 20.1573 M1092.6 12.096 L1101.88 12.096 L1124.93 72.576 L1116.42 72.576 L1110.91 57.061 L1083.65 57.061 L1078.14 72.576 L1069.51 72.576 L1092.6 12.096 Z" fill="#000000" fill-rule="nonzero" fill-opacity="1" /><path clip-path="url(#clip300)" d="M1133.76 12.096 L1145.95 12.096 L1161.39 53.2532 L1176.9 12.096 L1189.09 12.096 L1189.09 72.576 L1181.11 72.576 L1181.11 19.4686 L1165.52 60.9499 L1157.3 60.9499 L1141.7 19.4686 L1141.7 72.576 L1133.76 72.576 L1133.76 12.096 Z" fill="#000000" fill-rule="nonzero" fill-opacity="1" /><path clip-path="url(#clip300)" d="M1227.62 46.9338 L1302.48 46.9338 L1302.48 52.7671 L1227.62 52.7671 L1227.62 46.9338 Z" fill="#000000" fill-rule="nonzero" fill-opacity="1" /><path clip-path="url(#clip300)" d="M1369.64 28.5427 L1369.64 35.5912 Q1366.48 33.9709 1363.08 33.1607 Q1359.68 32.3505 1356.03 32.3505 Q1350.48 32.3505 1347.69 34.0519 Q1344.93 35.7533 1344.93 39.156 Q1344.93 41.7486 1346.92 43.2475 Q1348.9 44.7058 1354.9 46.0426 L1357.45 46.6097 Q1365.39 48.3111 1368.71 51.4303 Q1372.07 54.509 1372.07 60.0587 Q1372.07 66.3781 1367.05 70.0644 Q1362.07 73.7508 1353.32 73.7508 Q1349.67 73.7508 1345.7 73.0216 Q1341.77 72.3329 1337.4 70.9151 L1337.4 63.2184 Q1341.53 65.3654 1345.54 66.4591 Q1349.55 67.5124 1353.48 67.5124 Q1358.75 67.5124 1361.58 65.73 Q1364.42 63.9071 1364.42 60.6258 Q1364.42 57.5877 1362.35 55.9673 Q1360.33 54.3469 1353.4 52.8481 L1350.81 52.2405 Q1343.88 50.7821 1340.8 47.7845 Q1337.72 44.7463 1337.72 39.4801 Q1337.72 33.0797 1342.26 29.5959 Q1346.8 26.1121 1355.14 26.1121 Q1359.27 26.1121 1362.92 26.7198 Q1366.56 27.3274 1369.64 28.5427 Z" fill="#000000" fill-rule="nonzero" fill-opacity="1" /><path clip-path="url(#clip300)" d="M1419.27 35.9153 Q1422.06 30.8922 1425.95 28.5022 Q1429.84 26.1121 1435.11 26.1121 Q1442.2 26.1121 1446.04 31.0947 Q1449.89 36.0368 1449.89 45.1919 L1449.89 72.576 L1442.4 72.576 L1442.4 45.4349 Q1442.4 38.913 1440.09 35.7533 Q1437.78 32.5936 1433.04 32.5936 Q1427.25 32.5936 1423.89 36.4419 Q1420.52 40.2903 1420.52 46.9338 L1420.52 72.576 L1413.03 72.576 L1413.03 45.4349 Q1413.03 38.8725 1410.72 35.7533 Q1408.41 32.5936 1403.59 32.5936 Q1397.88 32.5936 1394.52 36.4824 Q1391.15 40.3308 1391.15 46.9338 L1391.15 72.576 L1383.66 72.576 L1383.66 27.2059 L1391.15 27.2059 L1391.15 34.2544 Q1393.71 30.082 1397.27 28.0971 Q1400.84 26.1121 1405.74 26.1121 Q1410.68 26.1121 1414.12 28.6237 Q1417.61 31.1352 1419.27 35.9153 Z" fill="#000000" fill-rule="nonzero" fill-opacity="1" /><path clip-path="url(#clip300)" d="M1482.34 32.4315 Q1476.34 32.4315 1472.86 37.1306 Q1469.38 41.7891 1469.38 49.9314 Q1469.38 58.0738 1472.82 62.7728 Q1476.3 67.4314 1482.34 67.4314 Q1488.29 67.4314 1491.78 62.7323 Q1495.26 58.0333 1495.26 49.9314 Q1495.26 41.8701 1491.78 37.1711 Q1488.29 32.4315 1482.34 32.4315 M1482.34 26.1121 Q1492.06 26.1121 1497.61 32.4315 Q1503.16 38.7509 1503.16 49.9314 Q1503.16 61.0714 1497.61 67.4314 Q1492.06 73.7508 1482.34 73.7508 Q1472.58 73.7508 1467.03 67.4314 Q1461.52 61.0714 1461.52 49.9314 Q1461.52 38.7509 1467.03 32.4315 Q1472.58 26.1121 1482.34 26.1121 Z" fill="#000000" fill-rule="nonzero" fill-opacity="1" /><path clip-path="url(#clip300)" d="M1533.1 32.4315 Q1527.1 32.4315 1523.62 37.1306 Q1520.13 41.7891 1520.13 49.9314 Q1520.13 58.0738 1523.58 62.7728 Q1527.06 67.4314 1533.1 67.4314 Q1539.05 67.4314 1542.54 62.7323 Q1546.02 58.0333 1546.02 49.9314 Q1546.02 41.8701 1542.54 37.1711 Q1539.05 32.4315 1533.1 32.4315 M1533.1 26.1121 Q1542.82 26.1121 1548.37 32.4315 Q1553.92 38.7509 1553.92 49.9314 Q1553.92 61.0714 1548.37 67.4314 Q1542.82 73.7508 1533.1 73.7508 Q1523.33 73.7508 1517.79 67.4314 Q1512.28 61.0714 1512.28 49.9314 Q1512.28 38.7509 1517.79 32.4315 Q1523.33 26.1121 1533.1 26.1121 Z" fill="#000000" fill-rule="nonzero" fill-opacity="1" /><path clip-path="url(#clip300)" d="M1573.65 14.324 L1573.65 27.2059 L1589 27.2059 L1589 32.9987 L1573.65 32.9987 L1573.65 57.6282 Q1573.65 63.1779 1575.15 64.7578 Q1576.69 66.3376 1581.34 66.3376 L1589 66.3376 L1589 72.576 L1581.34 72.576 Q1572.72 72.576 1569.43 69.3758 Q1566.15 66.1351 1566.15 57.6282 L1566.15 32.9987 L1560.68 32.9987 L1560.68 27.2059 L1566.15 27.2059 L1566.15 14.324 L1573.65 14.324 Z" fill="#000000" fill-rule="nonzero" fill-opacity="1" /><path clip-path="url(#clip300)" d="M1636.52 45.1919 L1636.52 72.576 L1629.06 72.576 L1629.06 45.4349 Q1629.06 38.994 1626.55 35.7938 Q1624.04 32.5936 1619.02 32.5936 Q1612.98 32.5936 1609.5 36.4419 Q1606.01 40.2903 1606.01 46.9338 L1606.01 72.576 L1598.52 72.576 L1598.52 9.54393 L1606.01 9.54393 L1606.01 34.2544 Q1608.69 30.163 1612.29 28.1376 Q1615.94 26.1121 1620.68 26.1121 Q1628.5 26.1121 1632.51 30.9732 Q1636.52 35.7938 1636.52 45.1919 Z" fill="#000000" fill-rule="nonzero" fill-opacity="1" /><path clip-path="url(#clip300)" d="M1695.34 32.4315 Q1689.34 32.4315 1685.86 37.1306 Q1682.37 41.7891 1682.37 49.9314 Q1682.37 58.0738 1685.82 62.7728 Q1689.3 67.4314 1695.34 67.4314 Q1701.29 67.4314 1704.77 62.7323 Q1708.26 58.0333 1708.26 49.9314 Q1708.26 41.8701 1704.77 37.1711 Q1701.29 32.4315 1695.34 32.4315 M1695.34 26.1121 Q1705.06 26.1121 1710.61 32.4315 Q1716.16 38.7509 1716.16 49.9314 Q1716.16 61.0714 1710.61 67.4314 Q1705.06 73.7508 1695.34 73.7508 Q1685.57 73.7508 1680.02 67.4314 Q1674.51 61.0714 1674.51 49.9314 Q1674.51 38.7509 1680.02 32.4315 Q1685.57 26.1121 1695.34 26.1121 Z" fill="#000000" fill-rule="nonzero" fill-opacity="1" /><path clip-path="url(#clip300)" d="M1766.23 45.1919 L1766.23 72.576 L1758.77 72.576 L1758.77 45.4349 Q1758.77 38.994 1756.26 35.7938 Q1753.75 32.5936 1748.73 32.5936 Q1742.69 32.5936 1739.21 36.4419 Q1735.72 40.2903 1735.72 46.9338 L1735.72 72.576 L1728.23 72.576 L1728.23 27.2059 L1735.72 27.2059 L1735.72 34.2544 Q1738.4 30.163 1742 28.1376 Q1745.65 26.1121 1750.39 26.1121 Q1758.21 26.1121 1762.22 30.9732 Q1766.23 35.7938 1766.23 45.1919 Z" fill="#000000" fill-rule="nonzero" fill-opacity="1" /><path clip-path="url(#clip300)" d="M1807.47 9.54393 L1814.92 9.54393 L1814.92 72.576 L1807.47 72.576 L1807.47 9.54393 Z" fill="#000000" fill-rule="nonzero" fill-opacity="1" /><path clip-path="url(#clip300)" d="M1830.51 27.2059 L1837.97 27.2059 L1837.97 72.576 L1830.51 72.576 L1830.51 27.2059 M1830.51 9.54393 L1837.97 9.54393 L1837.97 18.9825 L1830.51 18.9825 L1830.51 9.54393 Z" fill="#000000" fill-rule="nonzero" fill-opacity="1" /><path clip-path="url(#clip300)" d="M1891.28 45.1919 L1891.28 72.576 L1883.82 72.576 L1883.82 45.4349 Q1883.82 38.994 1881.31 35.7938 Q1878.8 32.5936 1873.78 32.5936 Q1867.74 32.5936 1864.26 36.4419 Q1860.78 40.2903 1860.78 46.9338 L1860.78 72.576 L1853.28 72.576 L1853.28 27.2059 L1860.78 27.2059 L1860.78 34.2544 Q1863.45 30.163 1867.05 28.1376 Q1870.7 26.1121 1875.44 26.1121 Q1883.26 26.1121 1887.27 30.9732 Q1891.28 35.7938 1891.28 45.1919 Z" fill="#000000" fill-rule="nonzero" fill-opacity="1" /><path clip-path="url(#clip300)" d="M1905.86 9.54393 L1913.36 9.54393 L1913.36 46.7717 L1935.6 27.2059 L1945.12 27.2059 L1921.05 48.4326 L1946.13 72.576 L1936.41 72.576 L1913.36 50.4176 L1913.36 72.576 L1905.86 72.576 L1905.86 9.54393 Z" fill="#000000" fill-rule="nonzero" fill-opacity="1" /><path clip-path="url(#clip300)" d="M2009.48 28.5427 L2009.48 35.5912 Q2006.32 33.9709 2002.92 33.1607 Q1999.52 32.3505 1995.87 32.3505 Q1990.32 32.3505 1987.53 34.0519 Q1984.77 35.7533 1984.77 39.156 Q1984.77 41.7486 1986.76 43.2475 Q1988.74 44.7058 1994.74 46.0426 L1997.29 46.6097 Q2005.23 48.3111 2008.55 51.4303 Q2011.91 54.509 2011.91 60.0587 Q2011.91 66.3781 2006.89 70.0644 Q2001.91 73.7508 1993.16 73.7508 Q1989.51 73.7508 1985.54 73.0216 Q1981.61 72.3329 1977.24 70.9151 L1977.24 63.2184 Q1981.37 65.3654 1985.38 66.4591 Q1989.39 67.5124 1993.32 67.5124 Q1998.59 67.5124 2001.42 65.73 Q2004.26 63.9071 2004.26 60.6258 Q2004.26 57.5877 2002.19 55.9673 Q2000.17 54.3469 1993.24 52.8481 L1990.65 52.2405 Q1983.72 50.7821 1980.64 47.7845 Q1977.56 44.7463 1977.56 39.4801 Q1977.56 33.0797 1982.1 29.5959 Q1986.64 26.1121 1994.98 26.1121 Q1999.11 26.1121 2002.76 26.7198 Q2006.41 27.3274 2009.48 28.5427 Z" fill="#000000" fill-rule="nonzero" fill-opacity="1" /><path clip-path="url(#clip300)" d="M2056.43 28.9478 L2056.43 35.9153 Q2053.27 34.1734 2050.07 33.3227 Q2046.91 32.4315 2043.67 32.4315 Q2036.42 32.4315 2032.41 37.0496 Q2028.4 41.6271 2028.4 49.9314 Q2028.4 58.2358 2032.41 62.8538 Q2036.42 67.4314 2043.67 67.4314 Q2046.91 67.4314 2050.07 66.5807 Q2053.27 65.6895 2056.43 63.9476 L2056.43 70.8341 Q2053.31 72.2924 2049.95 73.0216 Q2046.63 73.7508 2042.86 73.7508 Q2032.61 73.7508 2026.58 67.3098 Q2020.54 60.8689 2020.54 49.9314 Q2020.54 38.832 2026.62 32.472 Q2032.74 26.1121 2043.35 26.1121 Q2046.79 26.1121 2050.07 26.8413 Q2053.36 27.5299 2056.43 28.9478 Z" fill="#000000" fill-rule="nonzero" fill-opacity="1" /><path clip-path="url(#clip300)" d="M2090.02 49.7694 Q2080.98 49.7694 2077.5 51.8354 Q2074.01 53.9013 2074.01 58.8839 Q2074.01 62.8538 2076.61 65.2034 Q2079.24 67.5124 2083.74 67.5124 Q2089.93 67.5124 2093.66 63.1374 Q2097.43 58.7219 2097.43 51.4303 L2097.43 49.7694 L2090.02 49.7694 M2104.88 46.6907 L2104.88 72.576 L2097.43 72.576 L2097.43 65.6895 Q2094.88 69.8214 2091.07 71.8063 Q2087.26 73.7508 2081.75 73.7508 Q2074.78 73.7508 2070.65 69.8619 Q2066.56 65.9325 2066.56 59.3701 Q2066.56 51.7138 2071.67 47.825 Q2076.81 43.9361 2086.98 43.9361 L2097.43 43.9361 L2097.43 43.2069 Q2097.43 38.0623 2094.03 35.2672 Q2090.66 32.4315 2084.55 32.4315 Q2080.66 32.4315 2076.97 33.3632 Q2073.29 34.295 2069.88 36.1584 L2069.88 29.2718 Q2073.97 27.692 2077.82 26.9223 Q2081.67 26.1121 2085.32 26.1121 Q2095.16 26.1121 2100.02 31.2163 Q2104.88 36.3204 2104.88 46.6907 Z" fill="#000000" fill-rule="nonzero" fill-opacity="1" /><path clip-path="url(#clip300)" d="M2120.24 9.54393 L2127.69 9.54393 L2127.69 72.576 L2120.24 72.576 L2120.24 9.54393 Z" fill="#000000" fill-rule="nonzero" fill-opacity="1" /><path clip-path="url(#clip300)" d="M2182.09 48.0275 L2182.09 51.6733 L2147.82 51.6733 Q2148.31 59.3701 2152.44 63.421 Q2156.61 67.4314 2164.03 67.4314 Q2168.32 67.4314 2172.33 66.3781 Q2176.38 65.3249 2180.35 63.2184 L2180.35 70.267 Q2176.34 71.9684 2172.13 72.8596 Q2167.91 73.7508 2163.58 73.7508 Q2152.72 73.7508 2146.36 67.4314 Q2140.04 61.1119 2140.04 50.3365 Q2140.04 39.1965 2146.04 32.6746 Q2152.08 26.1121 2162.28 26.1121 Q2171.44 26.1121 2176.75 32.0264 Q2182.09 37.9003 2182.09 48.0275 M2174.64 45.84 Q2174.56 39.7232 2171.2 36.0774 Q2167.87 32.4315 2162.37 32.4315 Q2156.13 32.4315 2152.36 35.9558 Q2148.63 39.4801 2148.07 45.8805 L2174.64 45.84 Z" fill="#000000" fill-rule="nonzero" fill-opacity="1" /><path clip-path="url(#clip301)" d="M285.617 1003.31 L297.107 968.554 L308.597 934.466 L320.087 901.272 L331.577 869.2 L343.067 838.462 L354.558 809.233 L366.048 781.624 L377.538 755.661 L389.028 731.27 L400.518 708.286 L412.008 686.479 L423.499 665.591 L434.989 645.378 L446.479 625.628 L457.969 606.202 L469.459 587.1 L480.949 568.42 L492.44 550.292 L503.93 532.867 L515.42 516.287 L526.91 500.662 L538.4 486.049 L549.89 472.43 L561.381 459.707 L572.871 447.718 L584.361 436.255 L595.851 425.104 L607.341 414.099 L618.831 403.285 L630.322 392.837 L641.812 382.964 L653.302 373.863 L664.792 365.668 L676.282 358.409 L687.772 351.994 L699.263 346.219 L710.753 340.818 L722.243 335.5 L733.733 330.051 L745.223 324.465 L756.713 318.824 L768.204 313.248 L779.694 307.88 L791.184 302.864 L802.674 298.334 L814.164 294.395 L825.654 291.107 L837.145 288.48 L848.635 286.473 L860.125 285.003 L871.615 283.955 L883.105 283.201 L894.595 282.609 L906.086 282.056 L917.576 281.437 L929.066 280.687 L940.556 279.914 L952.046 279.361 L963.536 279.299 L975.026 280.005 L986.517 281.745 L998.007 284.743 L1009.5 289.156 L1020.99 295.055 L1032.48 302.421 L1043.97 311.17 L1055.46 321.178 L1066.95 332.319 L1078.44 344.49 L1089.93 357.633 L1101.42 371.744 L1112.91 386.86 L1124.4 403.029 L1135.89 420.297 L1147.38 438.679 L1158.87 458.152 L1170.36 478.635 L1181.85 499.996 L1193.34 522.058 L1204.83 544.61 L1216.32 567.424 L1227.81 590.268 L1239.3 612.92 L1250.79 635.178 L1262.28 656.87 L1273.77 677.88 L1285.26 698.289 L1296.75 718.33 L1308.24 738.233 L1319.73 758.194 L1331.22 778.357 L1342.71 798.794 L1354.2 819.502 L1365.69 840.414 L1377.18 861.411 L1388.67 882.347 L1400.16 903.074 L1411.65 923.455 L1423.14 943.396 L1434.63 962.91 L1446.12 982.161 L1457.61 1001.34 L1469.1 1020.61 L1480.59 1040.13 L1492.08 1059.96 L1503.57 1080.14 L1515.06 1100.6 L1526.55 1121.24 L1538.04 1141.92 L1549.53 1162.47 L1561.02 1182.72 L1572.52 1202.54 L1584.01 1221.89 L1595.5 1240.86 L1606.99 1259.58 L1618.48 1278.16 L1629.97 1296.68 L1641.46 1315.19 L1652.95 1333.69 L1664.44 1352.12 L1675.93 1370.38 L1687.42 1388.33 L1698.91 1405.8 L1710.4 1422.6 L1721.89 1438.55 L1733.38 1453.5 L1744.87 1467.43 L1756.36 1480.44 L1767.85 1492.62 L1779.34 1504.09 L1790.83 1514.98 L1802.32 1525.38 L1813.81 1535.42 L1825.3 1545.16 L1836.79 1554.66 L1848.28 1563.99 L1859.77 1573.13 L1871.26 1582.11 L1882.75 1590.89 L1894.24 1599.43 L1905.73 1607.69 L1917.22 1615.61 L1928.71 1623.17 L1940.2 1630.31 L1951.69 1637.04 L1963.18 1643.37 L1974.67 1649.37 L1986.16 1655.13 L1997.65 1660.72 L2009.14 1666.14 L2020.63 1671.36 L2032.12 1676.26 L2043.61 1680.68 L2055.1 1684.39 L2066.59 1687.11 L2078.08 1688.58 L2089.57 1688.65 L2101.06 1687.37 L2112.55 1684.8 L2124.04 1681.04 L2135.53 1676.19 L2147.02 1670.31 L2158.51 1663.47 L2170 1655.67 L2181.49 1646.89 L2192.98 1637.06 L2204.47 1626.09 L2215.96 1613.85 L2227.45 1600.2 L2238.94 1585 L2250.43 1568.15 L2261.93 1549.74 L2273.42 1529.95 L2284.91 1508.93 L2296.4 1486.88 L2307.89 1463.99 L2319.38 1440.43 L2330.87 1416.37 L2342.36 1391.98 L2353.85 1367.37 L2365.34 1342.67 L2376.83 1317.94 L2388.32 1293.28 L2399.81 1268.75 L2411.3 1244.42 L2422.79 1220.38 L2434.28 1196.8 L2445.77 1173.89 L2457.26 1151.94 L2468.75 1131.26 L2480.24 1112.13 L2491.73 1094.76 L2503.22 1079.27 L2514.71 1065.63 L2526.2 1053.75 L2537.69 1043.43 L2549.18 1034.46 L2560.67 1026.58 L2572.16 1019.56 L2572.16 637.335 L2560.67 672.616 L2549.18 707.077 L2537.69 740.509 L2526.2 772.705 L2514.71 803.476 L2503.22 832.672 L2491.73 860.217 L2480.24 886.139 L2468.75 910.58 L2457.26 933.786 L2445.77 956.079 L2434.28 977.802 L2422.79 999.272 L2411.3 1020.64 L2399.81 1041.9 L2388.32 1062.98 L2376.83 1083.79 L2365.34 1104.23 L2353.85 1124.21 L2342.36 1143.66 L2330.87 1162.51 L2319.38 1180.73 L2307.89 1198.3 L2296.4 1215.24 L2284.91 1231.57 L2273.42 1247.29 L2261.93 1262.43 L2250.43 1277 L2238.94 1291 L2227.45 1304.36 L2215.96 1316.99 L2204.47 1328.75 L2192.98 1339.51 L2181.49 1349.17 L2170 1357.63 L2158.51 1364.87 L2147.02 1370.85 L2135.53 1375.63 L2124.04 1379.25 L2112.55 1381.82 L2101.06 1383.44 L2089.57 1384.21 L2078.08 1384.24 L2066.59 1383.59 L2055.1 1382.23 L2043.61 1380.08 L2032.12 1377.07 L2020.63 1373.18 L2009.14 1368.42 L1997.65 1362.87 L1986.16 1356.7 L1974.67 1350.12 L1963.18 1343.38 L1951.69 1336.75 L1940.2 1330.29 L1928.71 1323.99 L1917.22 1317.79 L1905.73 1311.62 L1894.24 1305.37 L1882.75 1298.97 L1871.26 1292.31 L1859.77 1285.32 L1848.28 1277.93 L1836.79 1270.08 L1825.3 1261.76 L1813.81 1252.95 L1802.32 1243.68 L1790.83 1233.98 L1779.34 1223.9 L1767.85 1213.52 L1756.36 1202.91 L1744.87 1192.14 L1733.38 1181.26 L1721.89 1170.33 L1710.4 1159.32 L1698.91 1148.13 L1687.42 1136.63 L1675.93 1124.7 L1664.44 1112.22 L1652.95 1099.13 L1641.46 1085.36 L1629.97 1070.94 L1618.48 1055.92 L1606.99 1040.4 L1595.5 1024.53 L1584.01 1008.48 L1572.52 992.429 L1561.02 976.536 L1549.53 960.797 L1538.04 945.097 L1526.55 929.298 L1515.06 913.257 L1503.57 896.854 L1492.08 880.003 L1480.59 862.681 L1469.1 844.928 L1457.61 826.85 L1446.12 808.611 L1434.63 790.408 L1423.14 772.456 L1411.65 754.935 L1400.16 737.84 L1388.67 721.033 L1377.18 704.336 L1365.69 687.557 L1354.2 670.509 L1342.71 653.029 L1331.22 635.009 L1319.73 616.403 L1308.24 597.242 L1296.75 577.625 L1285.26 557.707 L1273.77 537.676 L1262.28 517.725 L1250.79 498.005 L1239.3 478.584 L1227.81 459.485 L1216.32 440.698 L1204.83 422.193 L1193.34 403.931 L1181.85 385.877 L1170.36 368.013 L1158.87 350.354 L1147.38 332.959 L1135.89 315.943 L1124.4 299.473 L1112.91 283.758 L1101.42 269.036 L1089.93 255.548 L1078.44 243.524 L1066.95 233.112 L1055.46 224.199 L1043.97 216.549 L1032.48 209.908 L1020.99 204.023 L1009.5 198.68 L998.007 193.731 L986.517 189.117 L975.026 184.865 L963.536 181.071 L952.046 177.87 L940.556 175.41 L929.066 173.833 L917.576 173.254 L906.086 173.696 L894.595 175.067 L883.105 177.238 L871.615 180.064 L860.125 183.387 L848.635 187.056 L837.145 190.932 L825.654 194.909 L814.164 198.922 L802.674 202.957 L791.184 207.05 L779.694 211.283 L768.204 215.765 L756.713 220.618 L745.223 225.96 L733.733 231.887 L722.243 238.458 L710.753 245.65 L699.263 253.276 L687.772 261.092 L676.282 268.87 L664.792 276.455 L653.302 283.795 L641.812 290.966 L630.322 298.144 L618.831 305.57 L607.341 313.496 L595.851 322.143 L584.361 331.598 L572.871 341.745 L561.381 352.418 L549.89 363.459 L538.4 374.752 L526.91 386.25 L515.42 397.983 L503.93 410.055 L492.44 422.627 L480.949 435.889 L469.459 450.039 L457.969 465.258 L446.479 481.691 L434.989 499.343 L423.499 517.978 L412.008 537.273 L400.518 556.872 L389.028 576.407 L377.538 595.536 L366.048 613.983 L354.558 631.562 L343.067 648.188 L331.577 663.862 L320.087 678.647 L308.597 692.643 L297.107 705.968 L285.617 718.74  Z" fill="#009af9" fill-rule="evenodd" fill-opacity="0.2"/>
<polyline clip-path="url(#clip301)" style="stroke:#009af9; stroke-linecap:round; stroke-linejoin:round; stroke-width:8; stroke-opacity:1; fill:none" points="285.617,861.023 297.107,837.261 308.597,813.555 320.087,789.959 331.577,766.531 343.067,743.325 354.558,720.397 366.048,697.803 377.538,675.598 389.028,653.838 400.518,632.579 412.008,611.876 423.499,591.785 434.989,572.361 446.479,553.66 457.969,535.73 469.459,518.57 480.949,502.154 492.44,486.459 503.93,471.461 515.42,457.135 526.91,443.456 538.4,430.4 549.89,417.944 561.381,406.063 572.871,394.731 584.361,383.926 595.851,373.623 607.341,363.798 618.831,354.427 630.322,345.49 641.812,336.965 653.302,328.829 664.792,321.062 676.282,313.64 687.772,306.543 699.263,299.748 710.753,293.234 722.243,286.979 733.733,280.969 745.223,275.212 756.713,269.721 768.204,264.507 779.694,259.582 791.184,254.957 802.674,250.646 814.164,246.659 825.654,243.008 837.145,239.706 848.635,236.764 860.125,234.195 871.615,232.009 883.105,230.22 894.595,228.838 906.086,227.876 917.576,227.345 929.066,227.26 940.556,227.662 952.046,228.616 963.536,230.185 975.026,232.435 986.517,235.431 998.007,239.237 1009.5,243.918 1020.99,249.539 1032.48,256.165 1043.97,263.859 1055.46,272.688 1066.95,282.716 1078.44,294.007 1089.93,306.591 1101.42,320.39 1112.91,335.309 1124.4,351.251 1135.89,368.12 1147.38,385.819 1158.87,404.253 1170.36,423.324 1181.85,442.937 1193.34,462.995 1204.83,483.402 1216.32,504.061 1227.81,524.877 1239.3,545.752 1250.79,566.591 1262.28,587.297 1273.77,607.778 1285.26,627.998 1296.75,647.977 1308.24,667.737 1319.73,687.299 1331.22,706.683 1342.71,725.912 1354.2,745.005 1365.69,763.986 1377.18,782.873 1388.67,801.69 1400.16,820.457 1411.65,839.195 1423.14,857.926 1434.63,876.659 1446.12,895.386 1457.61,914.094 1469.1,932.771 1480.59,951.405 1492.08,969.984 1503.57,988.496 1515.06,1006.93 1526.55,1025.27 1538.04,1043.51 1549.53,1061.63 1561.02,1079.63 1572.52,1097.48 1584.01,1115.18 1595.5,1132.7 1606.99,1149.99 1618.48,1167.04 1629.97,1183.81 1641.46,1200.28 1652.95,1216.41 1664.44,1232.17 1675.93,1247.54 1687.42,1262.48 1698.91,1276.96 1710.4,1290.96 1721.89,1304.44 1733.38,1317.38 1744.87,1329.79 1756.36,1341.67 1767.85,1353.07 1779.34,1364 1790.83,1374.48 1802.32,1384.53 1813.81,1394.18 1825.3,1403.46 1836.79,1412.37 1848.28,1420.96 1859.77,1429.23 1871.26,1437.21 1882.75,1444.93 1894.24,1452.4 1905.73,1459.65 1917.22,1466.7 1928.71,1473.58 1940.2,1480.3 1951.69,1486.89 1963.18,1493.38 1974.67,1499.75 1986.16,1505.92 1997.65,1511.79 2009.14,1517.28 2020.63,1522.27 2032.12,1526.67 2043.61,1530.38 2055.1,1533.31 2066.59,1535.35 2078.08,1536.41 2089.57,1536.43 2101.06,1535.4 2112.55,1533.31 2124.04,1530.15 2135.53,1525.91 2147.02,1520.58 2158.51,1514.17 2170,1506.65 2181.49,1498.03 2192.98,1488.28 2204.47,1477.42 2215.96,1465.42 2227.45,1452.28 2238.94,1438 2250.43,1422.57 2261.93,1406.09 2273.42,1388.62 2284.91,1370.25 2296.4,1351.06 2307.89,1331.15 2319.38,1310.58 2330.87,1289.44 2342.36,1267.82 2353.85,1245.79 2365.34,1223.45 2376.83,1200.87 2388.32,1178.13 2399.81,1155.32 2411.3,1132.53 2422.79,1109.83 2434.28,1087.3 2445.77,1064.99 2457.26,1042.87 2468.75,1020.92 2480.24,999.134 2491.73,977.489 2503.22,955.968 2514.71,934.553 2526.2,913.227 2537.69,891.97 2549.18,870.767 2560.67,849.6 2572.16,828.45 "/>
<polyline clip-path="url(#clip301)" style="stroke:#ff0000; stroke-linecap:round; stroke-linejoin:round; stroke-width:8; stroke-opacity:1; fill:none" stroke-dasharray="32, 20" points="285.617,860.628 288.237,856.13 288.673,855.383 290.285,852.617 294.13,846.02 301.9,832.693 303.164,830.527 325.342,792.594 327.956,788.137 334.297,777.342 351.82,747.65 353.146,745.414 359.696,734.387 370.973,715.501 374.428,709.742 383.728,694.308 396.024,674.069 399.571,668.27 407.001,656.182 424.948,627.342 440.295,603.127 447.375,592.106 450.889,586.674 469.275,558.677 474.263,551.212 481.548,540.412 483.771,537.142 491.109,526.433 491.574,525.759 538.288,460.994 542.816,455.048 546.053,450.835 551.689,443.577 554.702,439.739 568.043,423.089 580.83,407.679 581.329,407.09 591.06,395.75 594.128,392.243 595.423,390.774 596.532,389.52 596.598,389.445 597.868,388.015 598.314,387.513 603.409,381.839 607.468,377.385 618.762,365.309 625.754,358.07 627.189,356.607 628.352,355.426 647.404,336.836 647.461,336.782 650.025,334.389 651.052,333.438 675.592,311.962 677.505,310.391 678.12,309.889 678.964,309.203 697.149,295.14 710.685,285.582 712.173,284.579 715.052,282.666 716.228,281.896 717.526,281.052 719.911,279.52 731.851,272.227 737.171,269.179 738.126,268.645 755.658,259.57 761.646,256.787 763.737,255.854 770.213,253.088 781.673,248.664 782.091,248.515 783.446,248.034 821.005,238.091 821.418,238.019 837.119,235.841 848.891,234.967 864.461,234.81 871.278,235.1 880.072,235.796 881.058,235.897 884.266,236.256 904.068,239.539 907.672,240.334 941.759,250.826 945.455,252.285 958.936,258.135 982.974,270.599 985.545,272.085 989.759,274.583 998.928,280.288 1004.97,284.25 1008.59,286.698 1012.53,289.423 1012.71,289.549 1017.8,293.182 1028.85,301.431 1038.46,309.028 1048.03,316.976 1049.47,318.201 1050.28,318.9 1052.13,320.492 1057.15,324.893 1057.83,325.493 1064.19,331.232 1080.86,347.028 1090.86,357.025 1096.01,362.318 1101.32,367.885 1103.75,370.459 1109.04,376.155 1129.4,399.01 1146.82,419.697 1156.16,431.208 1171.98,451.349 1175.78,456.298 1177.7,458.817 1180.59,462.628 1190.31,475.641 1191.53,477.294 1199.59,488.316 1211.75,505.281 1227.48,527.809 1230.32,531.943 1235.31,539.269 1252.13,564.358 1266.17,585.78 1275.94,600.933 1285.17,615.415 1300.2,639.353 1301.29,641.091 1310.86,656.551 1320.83,672.783 1322.15,674.946 1324.09,678.126 1325.4,680.281 1335.59,697.083 1346.03,714.444 1350.11,721.255 1353.83,727.485 1375.19,763.499 1384.55,779.401 1385.29,780.656 1387.38,784.217 1391.22,790.754 1397.2,800.963 1405.61,815.352 1409.6,822.172 1430.9,858.705 1432.63,861.667 1465.19,917.467 1465.64,918.236 1465.65,918.256 1467.14,920.807 1471.84,928.831 1476.39,936.598 1503.13,981.903 1505.72,986.269 1513.44,999.217 1514.64,1001.23 1514.71,1001.34 1518.35,1007.43 1523.91,1016.69 1529,1025.13 1531.33,1028.99 1541.41,1045.6 1546.45,1053.85 1548.45,1057.12 1557.84,1072.37 1571.03,1093.54 1573.57,1097.58 1578.64,1105.61 1585.16,1115.88 1596.05,1132.85 1601.2,1140.78 1603.86,1144.87 1615.76,1162.93 1619.85,1169.07 1638.38,1196.37 1644.41,1205.07 1666.12,1235.62 1668.88,1239.41 1670.04,1240.99 1682.58,1257.89 1689.1,1266.5 1689.92,1267.56 1705.3,1287.32 1705.56,1287.65 1706.04,1288.25 1716.26,1300.93 1722.3,1308.26 1734.38,1322.55 1753.82,1344.5 1757.88,1348.9 1766.8,1358.39 1776.54,1368.4 1792.87,1384.38 1816.81,1405.91 1835.59,1421.16 1839.42,1424.09 1842.44,1426.36 1846.05,1429.02 1857.53,1437.11 1875.98,1448.91 1903.19,1463.58 1925.66,1473.18 1935.43,1476.63 1935.99,1476.82 1936.04,1476.84 1936.68,1477.04 1947.79,1480.37 1959.8,1483.32 1963.44,1484.09 1964.34,1484.27 1967.87,1484.93 1968.52,1485.05 1969.82,1485.27 1975.54,1486.18 1977.85,1486.5 1983.04,1487.13 1988.57,1487.66 1990.69,1487.83 1992.49,1487.95 2000.26,1488.32 2003.56,1488.38 2009.81,1488.37 2022.51,1487.79 2028.22,1487.27 2039.62,1485.8 2050,1483.92 2065.59,1480.17 2065.59,1480.17 2072.44,1478.16 2073.72,1477.76 2084.6,1474.06 2085.94,1473.57 2087.45,1473 2105.44,1465.46 2108.21,1464.17 2118.23,1459.21 2131.15,1452.15 2146.44,1442.84 2160.61,1433.3 2168.15,1427.88 2170.19,1426.37 2177.71,1420.65 2185.69,1414.32 2187.49,1412.86 2190.95,1410.02 2196.61,1405.24 2203.7,1399.09 2205.53,1397.46 2210.01,1393.43 2235.11,1369.4 2236.93,1367.57 2240.25,1364.18 2264.81,1337.88 2275.36,1325.91 2280.02,1320.51 2281.57,1318.69 2316.42,1275.75 2316.65,1275.45 2320.17,1270.89 2322.47,1267.9 2333.86,1252.82 2358.91,1218.34 2359.82,1217.05 2363.74,1211.49 2365.72,1208.67 2384.55,1181.31 2391.66,1170.76 2392.01,1170.23 2394.64,1166.29 2408.05,1145.98 2409.43,1143.88 2426.38,1117.6 2430.14,1111.7 2430.49,1111.15 2435.66,1102.99 2436.37,1101.86 2442.4,1092.27 2443.67,1090.25 2448.01,1083.3 2453.2,1074.94 2455.54,1071.16 2457.67,1067.71 2482.71,1026.68 2491.64,1011.85 2494.17,1007.63 2494.26,1007.49 2506.02,987.781 2513.44,975.284 2519.35,965.302 2530.1,947.057 2540.27,929.729 2540.64,929.112 2554.58,905.283 2572.16,875.145 "/>
<path clip-path="url(#clip300)" d="M2073.38 336.856 L2559.96 336.856 L2559.96 181.336 L2073.38 181.336  Z" fill="#ffffff" fill-rule="evenodd" fill-opacity="1"/>
<polyline clip-path="url(#clip300)" style="stroke:#000000; stroke-linecap:round; stroke-linejoin:round; stroke-width:4; stroke-opacity:1; fill:none" points="2073.38,336.856 2559.96,336.856 2559.96,181.336 2073.38,181.336 2073.38,336.856 "/>
<polyline clip-path="url(#clip300)" style="stroke:#009af9; stroke-linecap:round; stroke-linejoin:round; stroke-width:8; stroke-opacity:1; fill:none" points="2100.31,233.176 2261.89,233.176 "/>
<path clip-path="url(#clip300)" d="M2307.25 225.294 L2307.25 229.322 Q2305.44 228.396 2303.5 227.933 Q2301.55 227.47 2299.47 227.47 Q2296.3 227.47 2294.7 228.443 Q2293.13 229.415 2293.13 231.359 Q2293.13 232.841 2294.26 233.697 Q2295.4 234.53 2298.82 235.294 L2300.28 235.618 Q2304.82 236.591 2306.72 238.373 Q2308.64 240.132 2308.64 243.304 Q2308.64 246.915 2305.77 249.021 Q2302.92 251.128 2297.92 251.128 Q2295.84 251.128 2293.57 250.711 Q2291.32 250.317 2288.82 249.507 L2288.82 245.109 Q2291.18 246.336 2293.48 246.961 Q2295.77 247.563 2298.01 247.563 Q2301.02 247.563 2302.64 246.544 Q2304.26 245.503 2304.26 243.628 Q2304.26 241.892 2303.08 240.966 Q2301.92 240.04 2297.97 239.183 L2296.48 238.836 Q2292.53 238.003 2290.77 236.29 Q2289.01 234.554 2289.01 231.544 Q2289.01 227.887 2291.6 225.896 Q2294.19 223.906 2298.96 223.906 Q2301.32 223.906 2303.41 224.253 Q2305.49 224.6 2307.25 225.294 Z" fill="#000000" fill-rule="nonzero" fill-opacity="1" /><path clip-path="url(#clip300)" d="M2325.65 214.484 Q2322.55 219.808 2321.04 225.017 Q2319.54 230.225 2319.54 235.572 Q2319.54 240.919 2321.04 246.174 Q2322.57 251.405 2325.65 256.706 L2321.95 256.706 Q2318.48 251.266 2316.74 246.012 Q2315.03 240.757 2315.03 235.572 Q2315.03 230.41 2316.74 225.179 Q2318.45 219.947 2321.95 214.484 L2325.65 214.484 Z" fill="#000000" fill-rule="nonzero" fill-opacity="1" /><path clip-path="url(#clip300)" d="M2355.47 224.531 L2346.09 237.146 L2355.95 250.456 L2350.93 250.456 L2343.38 240.271 L2335.84 250.456 L2330.81 250.456 L2340.88 236.892 L2331.67 224.531 L2336.69 224.531 L2343.57 233.767 L2350.44 224.531 L2355.47 224.531 Z" fill="#000000" fill-rule="nonzero" fill-opacity="1" /><path clip-path="url(#clip300)" d="M2361.3 214.484 L2365 214.484 Q2368.48 219.947 2370.19 225.179 Q2371.92 230.41 2371.92 235.572 Q2371.92 240.757 2370.19 246.012 Q2368.48 251.266 2365 256.706 L2361.3 256.706 Q2364.38 251.405 2365.88 246.174 Q2367.41 240.919 2367.41 235.572 Q2367.41 230.225 2365.88 225.017 Q2364.38 219.808 2361.3 214.484 Z" fill="#000000" fill-rule="nonzero" fill-opacity="1" /><path clip-path="url(#clip300)" d="M2412.87 220.734 L2412.87 229.693 L2425.77 229.693 L2425.77 233.628 L2412.87 233.628 L2412.87 242.586 L2408.98 242.586 L2408.98 233.628 L2396.09 233.628 L2396.09 229.693 L2408.98 229.693 L2408.98 220.734 L2412.87 220.734 M2396.09 246.521 L2425.77 246.521 L2425.77 250.456 L2396.09 250.456 L2396.09 246.521 Z" fill="#000000" fill-rule="nonzero" fill-opacity="1" /><path clip-path="url(#clip300)" d="M2454.96 246.521 L2471.28 246.521 L2471.28 250.456 L2449.33 250.456 L2449.33 246.521 Q2451.99 243.767 2456.58 239.137 Q2461.18 234.484 2462.36 233.142 Q2464.61 230.618 2465.49 228.882 Q2466.39 227.123 2466.39 225.433 Q2466.39 222.679 2464.45 220.943 Q2462.53 219.206 2459.42 219.206 Q2457.22 219.206 2454.77 219.97 Q2452.34 220.734 2449.56 222.285 L2449.56 217.563 Q2452.39 216.429 2454.84 215.85 Q2457.29 215.271 2459.33 215.271 Q2464.7 215.271 2467.9 217.956 Q2471.09 220.642 2471.09 225.132 Q2471.09 227.262 2470.28 229.183 Q2469.49 231.081 2467.39 233.674 Q2466.81 234.345 2463.71 237.563 Q2460.6 240.757 2454.96 246.521 Z" fill="#000000" fill-rule="nonzero" fill-opacity="1" /><path clip-path="url(#clip300)" d="M2501.39 217.031 L2501.39 221.591 Q2498.73 220.318 2496.37 219.693 Q2494.01 219.068 2491.81 219.068 Q2487.99 219.068 2485.9 220.549 Q2483.84 222.031 2483.84 224.762 Q2483.84 227.054 2485.21 228.234 Q2486.6 229.392 2490.44 230.109 L2493.27 230.688 Q2498.5 231.683 2500.97 234.206 Q2503.47 236.706 2503.47 240.919 Q2503.47 245.942 2500.09 248.535 Q2496.74 251.128 2490.23 251.128 Q2487.78 251.128 2485 250.572 Q2482.25 250.016 2479.28 248.929 L2479.28 244.114 Q2482.13 245.711 2484.86 246.521 Q2487.59 247.331 2490.23 247.331 Q2494.24 247.331 2496.41 245.757 Q2498.59 244.183 2498.59 241.267 Q2498.59 238.72 2497.02 237.285 Q2495.47 235.85 2491.9 235.132 L2489.05 234.577 Q2483.82 233.535 2481.48 231.313 Q2479.15 229.091 2479.15 225.132 Q2479.15 220.549 2482.36 217.91 Q2485.6 215.271 2491.28 215.271 Q2493.71 215.271 2496.23 215.711 Q2498.75 216.151 2501.39 217.031 Z" fill="#000000" fill-rule="nonzero" fill-opacity="1" /><path clip-path="url(#clip300)" d="M2510.77 215.896 L2532.62 215.896 L2532.62 219.831 L2515.44 219.831 L2515.44 230.063 L2531.9 230.063 L2531.9 233.998 L2515.44 233.998 L2515.44 246.521 L2533.03 246.521 L2533.03 250.456 L2510.77 250.456 L2510.77 215.896 Z" fill="#000000" fill-rule="nonzero" fill-opacity="1" /><polyline clip-path="url(#clip300)" style="stroke:#ff0000; stroke-linecap:round; stroke-linejoin:round; stroke-width:8; stroke-opacity:1; fill:none" stroke-dasharray="32, 20" points="2100.31,285.016 2261.89,285.016 "/>
<path clip-path="url(#clip300)" d="M2296.23 269.009 L2296.23 276.371 L2305 276.371 L2305 279.681 L2296.23 279.681 L2296.23 293.755 Q2296.23 296.926 2297.09 297.829 Q2297.97 298.731 2300.63 298.731 L2305 298.731 L2305 302.296 L2300.63 302.296 Q2295.7 302.296 2293.82 300.468 Q2291.95 298.616 2291.95 293.755 L2291.95 279.681 L2288.82 279.681 L2288.82 276.371 L2291.95 276.371 L2291.95 269.009 L2296.23 269.009 Z" fill="#000000" fill-rule="nonzero" fill-opacity="1" /><path clip-path="url(#clip300)" d="M2325.63 280.352 Q2324.91 279.935 2324.05 279.75 Q2323.22 279.542 2322.2 279.542 Q2318.59 279.542 2316.65 281.903 Q2314.73 284.241 2314.73 288.639 L2314.73 302.296 L2310.44 302.296 L2310.44 276.371 L2314.73 276.371 L2314.73 280.398 Q2316.07 278.037 2318.22 276.903 Q2320.37 275.746 2323.45 275.746 Q2323.89 275.746 2324.42 275.815 Q2324.96 275.861 2325.6 275.977 L2325.63 280.352 Z" fill="#000000" fill-rule="nonzero" fill-opacity="1" /><path clip-path="url(#clip300)" d="M2329.66 292.065 L2329.66 276.371 L2333.92 276.371 L2333.92 291.903 Q2333.92 295.583 2335.35 297.435 Q2336.79 299.264 2339.66 299.264 Q2343.1 299.264 2345.1 297.065 Q2347.11 294.866 2347.11 291.069 L2347.11 276.371 L2351.37 276.371 L2351.37 302.296 L2347.11 302.296 L2347.11 298.315 Q2345.56 300.676 2343.5 301.833 Q2341.46 302.968 2338.75 302.968 Q2334.29 302.968 2331.97 300.19 Q2329.66 297.412 2329.66 292.065 M2340.37 275.746 L2340.37 275.746 Z" fill="#000000" fill-rule="nonzero" fill-opacity="1" /><path clip-path="url(#clip300)" d="M2382.32 288.269 L2382.32 290.352 L2362.73 290.352 Q2363.01 294.75 2365.37 297.065 Q2367.76 299.356 2371.99 299.356 Q2374.45 299.356 2376.74 298.755 Q2379.05 298.153 2381.32 296.949 L2381.32 300.977 Q2379.03 301.949 2376.62 302.458 Q2374.22 302.968 2371.74 302.968 Q2365.54 302.968 2361.9 299.356 Q2358.29 295.745 2358.29 289.588 Q2358.29 283.222 2361.72 279.495 Q2365.16 275.746 2371 275.746 Q2376.23 275.746 2379.26 279.125 Q2382.32 282.482 2382.32 288.269 M2378.06 287.019 Q2378.01 283.523 2376.09 281.44 Q2374.19 279.357 2371.04 279.357 Q2367.48 279.357 2365.33 281.37 Q2363.2 283.384 2362.87 287.042 L2378.06 287.019 Z" fill="#000000" fill-rule="nonzero" fill-opacity="1" /><path clip-path="url(#clip300)" d="M2417.5 266.278 L2417.5 269.82 L2413.43 269.82 Q2411.14 269.82 2410.23 270.746 Q2409.35 271.671 2409.35 274.079 L2409.35 276.371 L2416.37 276.371 L2416.37 279.681 L2409.35 279.681 L2409.35 302.296 L2405.07 302.296 L2405.07 279.681 L2401 279.681 L2401 276.371 L2405.07 276.371 L2405.07 274.565 Q2405.07 270.236 2407.09 268.269 Q2409.1 266.278 2413.47 266.278 L2417.5 266.278 Z" fill="#000000" fill-rule="nonzero" fill-opacity="1" /><path clip-path="url(#clip300)" d="M2431.3 266.324 Q2428.2 271.648 2426.69 276.857 Q2425.19 282.065 2425.19 287.412 Q2425.19 292.759 2426.69 298.014 Q2428.22 303.245 2431.3 308.546 L2427.6 308.546 Q2424.12 303.106 2422.39 297.852 Q2420.67 292.597 2420.67 287.412 Q2420.67 282.25 2422.39 277.019 Q2424.1 271.787 2427.6 266.324 L2431.3 266.324 Z" fill="#000000" fill-rule="nonzero" fill-opacity="1" /><path clip-path="url(#clip300)" d="M2461.11 276.371 L2451.74 288.986 L2461.6 302.296 L2456.58 302.296 L2449.03 292.111 L2441.48 302.296 L2436.46 302.296 L2446.53 288.732 L2437.32 276.371 L2442.34 276.371 L2449.22 285.607 L2456.09 276.371 L2461.11 276.371 Z" fill="#000000" fill-rule="nonzero" fill-opacity="1" /><path clip-path="url(#clip300)" d="M2466.95 266.324 L2470.65 266.324 Q2474.12 271.787 2475.84 277.019 Q2477.57 282.25 2477.57 287.412 Q2477.57 292.597 2475.84 297.852 Q2474.12 303.106 2470.65 308.546 L2466.95 308.546 Q2470.03 303.245 2471.53 298.014 Q2473.06 292.759 2473.06 287.412 Q2473.06 282.065 2471.53 276.857 Q2470.03 271.648 2466.95 266.324 Z" fill="#000000" fill-rule="nonzero" fill-opacity="1" /></svg>
