<?xml version="1.0" encoding="utf-8"?>
<svg xmlns="http://www.w3.org/2000/svg" xmlns:xlink="http://www.w3.org/1999/xlink" width="672" height="480" viewBox="0 0 2688 1920">
<defs>
  <clipPath id="clip360">
    <rect x="0" y="0" width="2688" height="1920"/>
  </clipPath>
</defs>
<path clip-path="url(#clip360)" d="M0 1920 L2688 1920 L2688 -4.26326e-14 L0 -4.26326e-14  Z" fill="#ffffff" fill-rule="evenodd" fill-opacity="1"/>
<defs>
  <clipPath id="clip361">
    <rect x="217" y="127" width="2425" height="1607"/>
  </clipPath>
</defs>
<path clip-path="url(#clip360)" d="M217.02 1734.12 L2640.76 1734.12 L2640.76 127.792 L217.02 127.792  Z" fill="#ffffff" fill-rule="evenodd" fill-opacity="1"/>
<polyline clip-path="url(#clip361)" style="stroke:#000000; stroke-linecap:round; stroke-linejoin:round; stroke-width:2; stroke-opacity:0.1; fill:none" points="274.19,1734.12 274.19,127.792 "/>
<polyline clip-path="url(#clip361)" style="stroke:#000000; stroke-linecap:round; stroke-linejoin:round; stroke-width:2; stroke-opacity:0.1; fill:none" points="850.646,1734.12 850.646,127.792 "/>
<polyline clip-path="url(#clip361)" style="stroke:#000000; stroke-linecap:round; stroke-linejoin:round; stroke-width:2; stroke-opacity:0.1; fill:none" points="1427.1,1734.12 1427.1,127.792 "/>
<polyline clip-path="url(#clip361)" style="stroke:#000000; stroke-linecap:round; stroke-linejoin:round; stroke-width:2; stroke-opacity:0.1; fill:none" points="2003.56,1734.12 2003.56,127.792 "/>
<polyline clip-path="url(#clip361)" style="stroke:#000000; stroke-linecap:round; stroke-linejoin:round; stroke-width:2; stroke-opacity:0.1; fill:none" points="2580.01,1734.12 2580.01,127.792 "/>
<polyline clip-path="url(#clip361)" style="stroke:#000000; stroke-linecap:round; stroke-linejoin:round; stroke-width:2; stroke-opacity:0.1; fill:none" points="217.02,1459.76 2640.76,1459.76 "/>
<polyline clip-path="url(#clip361)" style="stroke:#000000; stroke-linecap:round; stroke-linejoin:round; stroke-width:2; stroke-opacity:0.1; fill:none" points="217.02,1183.01 2640.76,1183.01 "/>
<polyline clip-path="url(#clip361)" style="stroke:#000000; stroke-linecap:round; stroke-linejoin:round; stroke-width:2; stroke-opacity:0.1; fill:none" points="217.02,906.266 2640.76,906.266 "/>
<polyline clip-path="url(#clip361)" style="stroke:#000000; stroke-linecap:round; stroke-linejoin:round; stroke-width:2; stroke-opacity:0.1; fill:none" points="217.02,629.519 2640.76,629.519 "/>
<polyline clip-path="url(#clip361)" style="stroke:#000000; stroke-linecap:round; stroke-linejoin:round; stroke-width:2; stroke-opacity:0.1; fill:none" points="217.02,352.771 2640.76,352.771 "/>
<polyline clip-path="url(#clip360)" style="stroke:#000000; stroke-linecap:round; stroke-linejoin:round; stroke-width:4; stroke-opacity:1; fill:none" points="217.02,1734.12 2640.76,1734.12 "/>
<polyline clip-path="url(#clip360)" style="stroke:#000000; stroke-linecap:round; stroke-linejoin:round; stroke-width:4; stroke-opacity:1; fill:none" points="274.19,1734.12 274.19,1715.22 "/>
<polyline clip-path="url(#clip360)" style="stroke:#000000; stroke-linecap:round; stroke-linejoin:round; stroke-width:4; stroke-opacity:1; fill:none" points="850.646,1734.12 850.646,1715.22 "/>
<polyline clip-path="url(#clip360)" style="stroke:#000000; stroke-linecap:round; stroke-linejoin:round; stroke-width:4; stroke-opacity:1; fill:none" points="1427.1,1734.12 1427.1,1715.22 "/>
<polyline clip-path="url(#clip360)" style="stroke:#000000; stroke-linecap:round; stroke-linejoin:round; stroke-width:4; stroke-opacity:1; fill:none" points="2003.56,1734.12 2003.56,1715.22 "/>
<polyline clip-path="url(#clip360)" style="stroke:#000000; stroke-linecap:round; stroke-linejoin:round; stroke-width:4; stroke-opacity:1; fill:none" points="2580.01,1734.12 2580.01,1715.22 "/>
<path clip-path="url(#clip360)" d="M236.494 1767.34 Q232.882 1767.34 231.054 1770.9 Q229.248 1774.45 229.248 1781.58 Q229.248 1788.68 231.054 1792.25 Q232.882 1795.79 236.494 1795.79 Q240.128 1795.79 241.933 1792.25 Q243.762 1788.68 243.762 1781.58 Q243.762 1774.45 241.933 1770.9 Q240.128 1767.34 236.494 1767.34 M236.494 1763.64 Q242.304 1763.64 245.359 1768.24 Q248.438 1772.83 248.438 1781.58 Q248.438 1790.3 245.359 1794.91 Q242.304 1799.49 236.494 1799.49 Q230.683 1799.49 227.605 1794.91 Q224.549 1790.3 224.549 1781.58 Q224.549 1772.83 227.605 1768.24 Q230.683 1763.64 236.494 1763.64 Z" fill="#000000" fill-rule="nonzero" fill-opacity="1" /><path clip-path="url(#clip360)" d="M256.656 1792.94 L261.54 1792.94 L261.54 1798.82 L256.656 1798.82 L256.656 1792.94 Z" fill="#000000" fill-rule="nonzero" fill-opacity="1" /><path clip-path="url(#clip360)" d="M281.725 1767.34 Q278.114 1767.34 276.285 1770.9 Q274.479 1774.45 274.479 1781.58 Q274.479 1788.68 276.285 1792.25 Q278.114 1795.79 281.725 1795.79 Q285.359 1795.79 287.165 1792.25 Q288.993 1788.68 288.993 1781.58 Q288.993 1774.45 287.165 1770.9 Q285.359 1767.34 281.725 1767.34 M281.725 1763.64 Q287.535 1763.64 290.591 1768.24 Q293.669 1772.83 293.669 1781.58 Q293.669 1790.3 290.591 1794.91 Q287.535 1799.49 281.725 1799.49 Q275.915 1799.49 272.836 1794.91 Q269.78 1790.3 269.78 1781.58 Q269.78 1772.83 272.836 1768.24 Q275.915 1763.64 281.725 1763.64 Z" fill="#000000" fill-rule="nonzero" fill-opacity="1" /><path clip-path="url(#clip360)" d="M311.887 1767.34 Q308.276 1767.34 306.447 1770.9 Q304.641 1774.45 304.641 1781.58 Q304.641 1788.68 306.447 1792.25 Q308.276 1795.79 311.887 1795.79 Q315.521 1795.79 317.326 1792.25 Q319.155 1788.68 319.155 1781.58 Q319.155 1774.45 317.326 1770.9 Q315.521 1767.34 311.887 1767.34 M311.887 1763.64 Q317.697 1763.64 320.752 1768.24 Q323.831 1772.83 323.831 1781.58 Q323.831 1790.3 320.752 1794.91 Q317.697 1799.49 311.887 1799.49 Q306.077 1799.49 302.998 1794.91 Q299.942 1790.3 299.942 1781.58 Q299.942 1772.83 302.998 1768.24 Q306.077 1763.64 311.887 1763.64 Z" fill="#000000" fill-rule="nonzero" fill-opacity="1" /><path clip-path="url(#clip360)" d="M813.447 1767.34 Q809.836 1767.34 808.007 1770.9 Q806.202 1774.45 806.202 1781.58 Q806.202 1788.68 808.007 1792.25 Q809.836 1795.79 813.447 1795.79 Q817.081 1795.79 818.887 1792.25 Q820.715 1788.68 820.715 1781.58 Q820.715 1774.45 818.887 1770.9 Q817.081 1767.34 813.447 1767.34 M813.447 1763.64 Q819.257 1763.64 822.313 1768.24 Q825.391 1772.83 825.391 1781.58 Q825.391 1790.3 822.313 1794.91 Q819.257 1799.49 813.447 1799.49 Q807.637 1799.49 804.558 1794.91 Q801.502 1790.3 801.502 1781.58 Q801.502 1772.83 804.558 1768.24 Q807.637 1763.64 813.447 1763.64 Z" fill="#000000" fill-rule="nonzero" fill-opacity="1" /><path clip-path="url(#clip360)" d="M833.609 1792.94 L838.493 1792.94 L838.493 1798.82 L833.609 1798.82 L833.609 1792.94 Z" fill="#000000" fill-rule="nonzero" fill-opacity="1" /><path clip-path="url(#clip360)" d="M852.706 1794.89 L869.025 1794.89 L869.025 1798.82 L847.081 1798.82 L847.081 1794.89 Q849.743 1792.13 854.326 1787.5 Q858.933 1782.85 860.113 1781.51 Q862.359 1778.98 863.238 1777.25 Q864.141 1775.49 864.141 1773.8 Q864.141 1771.04 862.197 1769.31 Q860.275 1767.57 857.173 1767.57 Q854.974 1767.57 852.521 1768.34 Q850.09 1769.1 847.312 1770.65 L847.312 1765.93 Q850.136 1764.79 852.59 1764.21 Q855.044 1763.64 857.081 1763.64 Q862.451 1763.64 865.646 1766.32 Q868.84 1769.01 868.84 1773.5 Q868.84 1775.63 868.03 1777.55 Q867.243 1779.45 865.136 1782.04 Q864.558 1782.71 861.456 1785.93 Q858.354 1789.12 852.706 1794.89 Z" fill="#000000" fill-rule="nonzero" fill-opacity="1" /><path clip-path="url(#clip360)" d="M878.886 1764.26 L897.243 1764.26 L897.243 1768.2 L883.169 1768.2 L883.169 1776.67 Q884.187 1776.32 885.206 1776.16 Q886.224 1775.97 887.243 1775.97 Q893.03 1775.97 896.409 1779.15 Q899.789 1782.32 899.789 1787.73 Q899.789 1793.31 896.317 1796.41 Q892.845 1799.49 886.525 1799.49 Q884.349 1799.49 882.081 1799.12 Q879.835 1798.75 877.428 1798.01 L877.428 1793.31 Q879.511 1794.45 881.734 1795 Q883.956 1795.56 886.433 1795.56 Q890.437 1795.56 892.775 1793.45 Q895.113 1791.34 895.113 1787.73 Q895.113 1784.12 892.775 1782.02 Q890.437 1779.91 886.433 1779.91 Q884.558 1779.91 882.683 1780.33 Q880.831 1780.74 878.886 1781.62 L878.886 1764.26 Z" fill="#000000" fill-rule="nonzero" fill-opacity="1" /><path clip-path="url(#clip360)" d="M1389.4 1767.34 Q1385.79 1767.34 1383.97 1770.9 Q1382.16 1774.45 1382.16 1781.58 Q1382.16 1788.68 1383.97 1792.25 Q1385.79 1795.79 1389.4 1795.79 Q1393.04 1795.79 1394.84 1792.25 Q1396.67 1788.68 1396.67 1781.58 Q1396.67 1774.45 1394.84 1770.9 Q1393.04 1767.34 1389.4 1767.34 M1389.4 1763.64 Q1395.21 1763.64 1398.27 1768.24 Q1401.35 1772.83 1401.35 1781.58 Q1401.35 1790.3 1398.27 1794.91 Q1395.21 1799.49 1389.4 1799.49 Q1383.59 1799.49 1380.52 1794.91 Q1377.46 1790.3 1377.46 1781.58 Q1377.46 1772.83 1380.52 1768.24 Q1383.59 1763.64 1389.4 1763.64 Z" fill="#000000" fill-rule="nonzero" fill-opacity="1" /><path clip-path="url(#clip360)" d="M1409.57 1792.94 L1414.45 1792.94 L1414.45 1798.82 L1409.57 1798.82 L1409.57 1792.94 Z" fill="#000000" fill-rule="nonzero" fill-opacity="1" /><path clip-path="url(#clip360)" d="M1424.68 1764.26 L1443.04 1764.26 L1443.04 1768.2 L1428.96 1768.2 L1428.96 1776.67 Q1429.98 1776.32 1431 1776.16 Q1432.02 1775.97 1433.04 1775.97 Q1438.83 1775.97 1442.21 1779.15 Q1445.59 1782.32 1445.59 1787.73 Q1445.59 1793.31 1442.11 1796.41 Q1438.64 1799.49 1432.32 1799.49 Q1430.15 1799.49 1427.88 1799.12 Q1425.63 1798.75 1423.22 1798.01 L1423.22 1793.31 Q1425.31 1794.45 1427.53 1795 Q1429.75 1795.56 1432.23 1795.56 Q1436.23 1795.56 1438.57 1793.45 Q1440.91 1791.34 1440.91 1787.73 Q1440.91 1784.12 1438.57 1782.02 Q1436.23 1779.91 1432.23 1779.91 Q1430.35 1779.91 1428.48 1780.33 Q1426.63 1780.74 1424.68 1781.62 L1424.68 1764.26 Z" fill="#000000" fill-rule="nonzero" fill-opacity="1" /><path clip-path="url(#clip360)" d="M1464.8 1767.34 Q1461.19 1767.34 1459.36 1770.9 Q1457.55 1774.45 1457.55 1781.58 Q1457.55 1788.68 1459.36 1792.25 Q1461.19 1795.79 1464.8 1795.79 Q1468.43 1795.79 1470.24 1792.25 Q1472.07 1788.68 1472.07 1781.58 Q1472.07 1774.45 1470.24 1770.9 Q1468.43 1767.34 1464.8 1767.34 M1464.8 1763.64 Q1470.61 1763.64 1473.66 1768.24 Q1476.74 1772.83 1476.74 1781.58 Q1476.74 1790.3 1473.66 1794.91 Q1470.61 1799.49 1464.8 1799.49 Q1458.99 1799.49 1455.91 1794.91 Q1452.85 1790.3 1452.85 1781.58 Q1452.85 1772.83 1455.91 1768.24 Q1458.99 1763.64 1464.8 1763.64 Z" fill="#000000" fill-rule="nonzero" fill-opacity="1" /><path clip-path="url(#clip360)" d="M1966.36 1767.34 Q1962.75 1767.34 1960.92 1770.9 Q1959.11 1774.45 1959.11 1781.58 Q1959.11 1788.68 1960.92 1792.25 Q1962.75 1795.79 1966.36 1795.79 Q1969.99 1795.79 1971.8 1792.25 Q1973.63 1788.68 1973.63 1781.58 Q1973.63 1774.45 1971.8 1770.9 Q1969.99 1767.34 1966.36 1767.34 M1966.36 1763.64 Q1972.17 1763.64 1975.22 1768.24 Q1978.3 1772.83 1978.3 1781.58 Q1978.3 1790.3 1975.22 1794.91 Q1972.17 1799.49 1966.36 1799.49 Q1960.55 1799.49 1957.47 1794.91 Q1954.41 1790.3 1954.41 1781.58 Q1954.41 1772.83 1957.47 1768.24 Q1960.55 1763.64 1966.36 1763.64 Z" fill="#000000" fill-rule="nonzero" fill-opacity="1" /><path clip-path="url(#clip360)" d="M1986.52 1792.94 L1991.4 1792.94 L1991.4 1798.82 L1986.52 1798.82 L1986.52 1792.94 Z" fill="#000000" fill-rule="nonzero" fill-opacity="1" /><path clip-path="url(#clip360)" d="M2000.41 1764.26 L2022.63 1764.26 L2022.63 1766.25 L2010.08 1798.82 L2005.2 1798.82 L2017.01 1768.2 L2000.41 1768.2 L2000.41 1764.26 Z" fill="#000000" fill-rule="nonzero" fill-opacity="1" /><path clip-path="url(#clip360)" d="M2031.8 1764.26 L2050.15 1764.26 L2050.15 1768.2 L2036.08 1768.2 L2036.08 1776.67 Q2037.1 1776.32 2038.12 1776.16 Q2039.14 1775.97 2040.15 1775.97 Q2045.94 1775.97 2049.32 1779.15 Q2052.7 1782.32 2052.7 1787.73 Q2052.7 1793.31 2049.23 1796.41 Q2045.76 1799.49 2039.44 1799.49 Q2037.26 1799.49 2034.99 1799.12 Q2032.75 1798.75 2030.34 1798.01 L2030.34 1793.31 Q2032.42 1794.45 2034.64 1795 Q2036.87 1795.56 2039.34 1795.56 Q2043.35 1795.56 2045.69 1793.45 Q2048.02 1791.34 2048.02 1787.73 Q2048.02 1784.12 2045.69 1782.02 Q2043.35 1779.91 2039.34 1779.91 Q2037.47 1779.91 2035.59 1780.33 Q2033.74 1780.74 2031.8 1781.62 L2031.8 1764.26 Z" fill="#000000" fill-rule="nonzero" fill-opacity="1" /><path clip-path="url(#clip360)" d="M2532.08 1794.89 L2539.72 1794.89 L2539.72 1768.52 L2531.41 1770.19 L2531.41 1765.93 L2539.68 1764.26 L2544.35 1764.26 L2544.35 1794.89 L2551.99 1794.89 L2551.99 1798.82 L2532.08 1798.82 L2532.08 1794.89 Z" fill="#000000" fill-rule="nonzero" fill-opacity="1" /><path clip-path="url(#clip360)" d="M2561.44 1792.94 L2566.32 1792.94 L2566.32 1798.82 L2561.44 1798.82 L2561.44 1792.94 Z" fill="#000000" fill-rule="nonzero" fill-opacity="1" /><path clip-path="url(#clip360)" d="M2586.51 1767.34 Q2582.89 1767.34 2581.07 1770.9 Q2579.26 1774.45 2579.26 1781.58 Q2579.26 1788.68 2581.07 1792.25 Q2582.89 1795.79 2586.51 1795.79 Q2590.14 1795.79 2591.95 1792.25 Q2593.77 1788.68 2593.77 1781.58 Q2593.77 1774.45 2591.95 1770.9 Q2590.14 1767.34 2586.51 1767.34 M2586.51 1763.64 Q2592.32 1763.64 2595.37 1768.24 Q2598.45 1772.83 2598.45 1781.58 Q2598.45 1790.3 2595.37 1794.91 Q2592.32 1799.49 2586.51 1799.49 Q2580.7 1799.49 2577.62 1794.91 Q2574.56 1790.3 2574.56 1781.58 Q2574.56 1772.83 2577.62 1768.24 Q2580.7 1763.64 2586.51 1763.64 Z" fill="#000000" fill-rule="nonzero" fill-opacity="1" /><path clip-path="url(#clip360)" d="M2616.67 1767.34 Q2613.06 1767.34 2611.23 1770.9 Q2609.42 1774.45 2609.42 1781.58 Q2609.42 1788.68 2611.23 1792.25 Q2613.06 1795.79 2616.67 1795.79 Q2620.3 1795.79 2622.11 1792.25 Q2623.94 1788.68 2623.94 1781.58 Q2623.94 1774.45 2622.11 1770.9 Q2620.3 1767.34 2616.67 1767.34 M2616.67 1763.64 Q2622.48 1763.64 2625.53 1768.24 Q2628.61 1772.83 2628.61 1781.58 Q2628.61 1790.3 2625.53 1794.91 Q2622.48 1799.49 2616.67 1799.49 Q2610.86 1799.49 2607.78 1794.91 Q2604.72 1790.3 2604.72 1781.58 Q2604.72 1772.83 2607.78 1768.24 Q2610.86 1763.64 2616.67 1763.64 Z" fill="#000000" fill-rule="nonzero" fill-opacity="1" /><path clip-path="url(#clip360)" d="M1445.5 1847.65 L1432.61 1865 L1446.17 1883.3 L1439.26 1883.3 L1428.89 1869.3 L1418.51 1883.3 L1411.61 1883.3 L1425.45 1864.65 L1412.78 1847.65 L1419.69 1847.65 L1429.14 1860.35 L1438.6 1847.65 L1445.5 1847.65 Z" fill="#000000" fill-rule="nonzero" fill-opacity="1" /><polyline clip-path="url(#clip360)" style="stroke:#000000; stroke-linecap:round; stroke-linejoin:round; stroke-width:4; stroke-opacity:1; fill:none" points="217.02,1734.12 217.02,127.792 "/>
<polyline clip-path="url(#clip360)" style="stroke:#000000; stroke-linecap:round; stroke-linejoin:round; stroke-width:4; stroke-opacity:1; fill:none" points="217.02,1459.76 235.918,1459.76 "/>
<polyline clip-path="url(#clip360)" style="stroke:#000000; stroke-linecap:round; stroke-linejoin:round; stroke-width:4; stroke-opacity:1; fill:none" points="217.02,1183.01 235.918,1183.01 "/>
<polyline clip-path="url(#clip360)" style="stroke:#000000; stroke-linecap:round; stroke-linejoin:round; stroke-width:4; stroke-opacity:1; fill:none" points="217.02,906.266 235.918,906.266 "/>
<polyline clip-path="url(#clip360)" style="stroke:#000000; stroke-linecap:round; stroke-linejoin:round; stroke-width:4; stroke-opacity:1; fill:none" points="217.02,629.519 235.918,629.519 "/>
<polyline clip-path="url(#clip360)" style="stroke:#000000; stroke-linecap:round; stroke-linejoin:round; stroke-width:4; stroke-opacity:1; fill:none" points="217.02,352.771 235.918,352.771 "/>
<path clip-path="url(#clip360)" d="M116.585 1460.21 L146.261 1460.21 L146.261 1464.15 L116.585 1464.15 L116.585 1460.21 Z" fill="#000000" fill-rule="nonzero" fill-opacity="1" /><path clip-path="url(#clip360)" d="M160.381 1473.11 L176.7 1473.11 L176.7 1477.04 L154.756 1477.04 L154.756 1473.11 Q157.418 1470.35 162.001 1465.72 Q166.608 1461.07 167.788 1459.73 Q170.034 1457.2 170.913 1455.47 Q171.816 1453.71 171.816 1452.02 Q171.816 1449.26 169.872 1447.53 Q167.95 1445.79 164.848 1445.79 Q162.649 1445.79 160.196 1446.56 Q157.765 1447.32 154.987 1448.87 L154.987 1444.15 Q157.811 1443.01 160.265 1442.44 Q162.719 1441.86 164.756 1441.86 Q170.126 1441.86 173.321 1444.54 Q176.515 1447.23 176.515 1451.72 Q176.515 1453.85 175.705 1455.77 Q174.918 1457.67 172.811 1460.26 Q172.233 1460.93 169.131 1464.15 Q166.029 1467.34 160.381 1473.11 Z" fill="#000000" fill-rule="nonzero" fill-opacity="1" /><path clip-path="url(#clip360)" d="M116.214 1183.47 L145.89 1183.47 L145.89 1187.4 L116.214 1187.4 L116.214 1183.47 Z" fill="#000000" fill-rule="nonzero" fill-opacity="1" /><path clip-path="url(#clip360)" d="M156.793 1196.36 L164.432 1196.36 L164.432 1169.99 L156.122 1171.66 L156.122 1167.4 L164.385 1165.73 L169.061 1165.73 L169.061 1196.36 L176.7 1196.36 L176.7 1200.29 L156.793 1200.29 L156.793 1196.36 Z" fill="#000000" fill-rule="nonzero" fill-opacity="1" /><path clip-path="url(#clip360)" d="M164.756 892.065 Q161.145 892.065 159.316 895.63 Q157.511 899.172 157.511 906.301 Q157.511 913.408 159.316 916.972 Q161.145 920.514 164.756 920.514 Q168.39 920.514 170.196 916.972 Q172.024 913.408 172.024 906.301 Q172.024 899.172 170.196 895.63 Q168.39 892.065 164.756 892.065 M164.756 888.361 Q170.566 888.361 173.622 892.968 Q176.7 897.551 176.7 906.301 Q176.7 915.028 173.622 919.634 Q170.566 924.218 164.756 924.218 Q158.946 924.218 155.867 919.634 Q152.811 915.028 152.811 906.301 Q152.811 897.551 155.867 892.968 Q158.946 888.361 164.756 888.361 Z" fill="#000000" fill-rule="nonzero" fill-opacity="1" /><path clip-path="url(#clip360)" d="M156.793 642.864 L164.432 642.864 L164.432 616.498 L156.122 618.165 L156.122 613.905 L164.385 612.239 L169.061 612.239 L169.061 642.864 L176.7 642.864 L176.7 646.799 L156.793 646.799 L156.793 642.864 Z" fill="#000000" fill-rule="nonzero" fill-opacity="1" /><path clip-path="url(#clip360)" d="M160.381 366.116 L176.7 366.116 L176.7 370.051 L154.756 370.051 L154.756 366.116 Q157.418 363.361 162.001 358.732 Q166.608 354.079 167.788 352.736 Q170.034 350.213 170.913 348.477 Q171.816 346.718 171.816 345.028 Q171.816 342.273 169.872 340.537 Q167.95 338.801 164.848 338.801 Q162.649 338.801 160.196 339.565 Q157.765 340.329 154.987 341.88 L154.987 337.158 Q157.811 336.023 160.265 335.445 Q162.719 334.866 164.756 334.866 Q170.126 334.866 173.321 337.551 Q176.515 340.236 176.515 344.727 Q176.515 346.857 175.705 348.778 Q174.918 350.676 172.811 353.269 Q172.233 353.94 169.131 357.157 Q166.029 360.352 160.381 366.116 Z" fill="#000000" fill-rule="nonzero" fill-opacity="1" /><path clip-path="url(#clip360)" d="M12.1132 1162.55 L16.983 1162.55 L16.983 1168.16 Q16.983 1171.31 18.2562 1172.55 Q19.5293 1173.76 22.8395 1173.76 L25.9905 1173.76 L25.9905 1164.11 L30.542 1164.11 L30.542 1173.76 L61.6384 1173.76 L61.6384 1179.65 L30.542 1179.65 L30.542 1185.25 L25.9905 1185.25 L25.9905 1179.65 L23.5079 1179.65 Q17.5559 1179.65 14.8505 1176.88 Q12.1132 1174.11 12.1132 1168.09 L12.1132 1162.55 Z" fill="#000000" fill-rule="nonzero" fill-opacity="1" /><path clip-path="url(#clip360)" d="M12.1769 1143.59 Q19.4975 1147.85 26.6589 1149.92 Q33.8203 1151.99 41.1727 1151.99 Q48.5251 1151.99 55.7502 1149.92 Q62.9434 1147.82 70.2321 1143.59 L70.2321 1148.68 Q62.7524 1153.45 55.5274 1155.84 Q48.3023 1158.19 41.1727 1158.19 Q34.0749 1158.19 26.8817 1155.84 Q19.6884 1153.48 12.1769 1148.68 L12.1769 1143.59 Z" fill="#000000" fill-rule="nonzero" fill-opacity="1" /><path clip-path="url(#clip360)" d="M25.9905 1102.59 L43.337 1115.48 L61.6384 1101.92 L61.6384 1108.83 L47.6339 1119.2 L61.6384 1129.58 L61.6384 1136.49 L42.9869 1122.64 L25.9905 1135.31 L25.9905 1128.4 L38.6901 1118.95 L25.9905 1109.5 L25.9905 1102.59 Z" fill="#000000" fill-rule="nonzero" fill-opacity="1" /><path clip-path="url(#clip360)" d="M12.1769 1094.57 L12.1769 1089.48 Q19.6884 1084.7 26.8817 1082.35 Q34.0749 1079.96 41.1727 1079.96 Q48.3023 1079.96 55.5274 1082.35 Q62.7524 1084.7 70.2321 1089.48 L70.2321 1094.57 Q62.9434 1090.34 55.7502 1088.27 Q48.5251 1086.17 41.1727 1086.17 Q33.8203 1086.17 26.6589 1088.27 Q19.4975 1090.34 12.1769 1094.57 Z" fill="#000000" fill-rule="nonzero" fill-opacity="1" /><path clip-path="url(#clip360)" d="M12.1132 1048.04 L12.1132 1034.54 L16.6647 1034.54 L16.6647 1042.18 L65.6807 1042.18 L65.6807 1034.54 L70.2321 1034.54 L70.2321 1048.04 L12.1132 1048.04 Z" fill="#000000" fill-rule="nonzero" fill-opacity="1" /><path clip-path="url(#clip360)" d="M12.1132 1022.06 L12.1132 1016.21 L61.6384 1016.21 L61.6384 1022.06 L12.1132 1022.06 Z" fill="#000000" fill-rule="nonzero" fill-opacity="1" /><path clip-path="url(#clip360)" d="M30.0964 990.14 Q30.0964 994.85 33.7885 997.588 Q37.4488 1000.32 43.8463 1000.32 Q50.2438 1000.32 53.9359 997.619 Q57.5962 994.882 57.5962 990.14 Q57.5962 985.461 53.9041 982.724 Q50.212 979.986 43.8463 979.986 Q37.5124 979.986 33.8203 982.724 Q30.0964 985.461 30.0964 990.14 M25.1311 990.14 Q25.1311 982.501 30.0964 978.14 Q35.0616 973.78 43.8463 973.78 Q52.5991 973.78 57.5962 978.14 Q62.5615 982.501 62.5615 990.14 Q62.5615 997.81 57.5962 1002.17 Q52.5991 1006.5 43.8463 1006.5 Q35.0616 1006.5 30.0964 1002.17 Q25.1311 997.81 25.1311 990.14 Z" fill="#000000" fill-rule="nonzero" fill-opacity="1" /><path clip-path="url(#clip360)" d="M43.4007 940.615 Q37.035 940.615 33.5338 943.256 Q30.0327 945.866 30.0327 950.609 Q30.0327 955.319 33.5338 957.961 Q37.035 960.571 43.4007 960.571 Q49.7346 960.571 53.2357 957.961 Q56.7368 955.319 56.7368 950.609 Q56.7368 945.866 53.2357 943.256 Q49.7346 940.615 43.4007 940.615 M57.2143 934.758 Q66.3172 934.758 70.7414 938.8 Q75.1974 942.843 75.1974 951.182 Q75.1974 954.269 74.72 957.006 Q74.2744 959.743 73.3195 962.322 L67.6222 962.322 Q69.0227 959.743 69.6911 957.229 Q70.3595 954.715 70.3595 952.105 Q70.3595 946.344 67.3358 943.479 Q64.3439 940.615 58.2646 940.615 L55.3682 940.615 Q58.5192 942.429 60.0788 945.261 Q61.6384 948.094 61.6384 952.041 Q61.6384 958.598 56.6414 962.608 Q51.6443 966.618 43.4007 966.618 Q35.1253 966.618 30.1282 962.608 Q25.1311 958.598 25.1311 952.041 Q25.1311 948.094 26.6907 945.261 Q28.2503 942.429 31.4013 940.615 L25.9905 940.615 L25.9905 934.758 L57.2143 934.758 Z" fill="#000000" fill-rule="nonzero" fill-opacity="1" /><path clip-path="url(#clip360)" d="M25.9905 922.695 L25.9905 916.839 L61.6384 916.839 L61.6384 922.695 L25.9905 922.695 M12.1132 922.695 L12.1132 916.839 L19.5293 916.839 L19.5293 922.695 L12.1132 922.695 Z" fill="#000000" fill-rule="nonzero" fill-opacity="1" /><path clip-path="url(#clip360)" d="M15.869 898.792 L25.9905 898.792 L25.9905 886.729 L30.542 886.729 L30.542 898.792 L49.8937 898.792 Q54.2542 898.792 55.4955 897.614 Q56.7368 896.405 56.7368 892.744 L56.7368 886.729 L61.6384 886.729 L61.6384 892.744 Q61.6384 899.524 59.124 902.102 Q56.5777 904.68 49.8937 904.68 L30.542 904.68 L30.542 908.977 L25.9905 908.977 L25.9905 904.68 L15.869 904.68 L15.869 898.792 Z" fill="#000000" fill-rule="nonzero" fill-opacity="1" /><path clip-path="url(#clip360)" d="M27.0408 835.58 L32.579 835.58 Q31.3059 838.063 30.6693 840.737 Q30.0327 843.41 30.0327 846.275 Q30.0327 850.635 31.3695 852.831 Q32.7063 854.996 35.3799 854.996 Q37.4169 854.996 38.5946 853.436 Q39.7404 851.877 40.7908 847.166 L41.2364 845.161 Q42.5732 838.922 45.0239 836.312 Q47.4429 833.671 51.8034 833.671 Q56.7687 833.671 59.6651 837.617 Q62.5615 841.532 62.5615 848.407 Q62.5615 851.272 61.9886 854.391 Q61.4475 857.478 60.3335 860.916 L54.2861 860.916 Q55.973 857.669 56.8323 854.518 Q57.6599 851.367 57.6599 848.28 Q57.6599 844.142 56.2594 841.914 Q54.8271 839.686 52.249 839.686 Q49.8619 839.686 48.5887 841.309 Q47.3156 842.901 46.1379 848.344 L45.6605 850.381 Q44.5147 855.823 42.1594 858.242 Q39.7722 860.661 35.6345 860.661 Q30.6056 860.661 27.8684 857.096 Q25.1311 853.532 25.1311 846.975 Q25.1311 843.728 25.6085 840.864 Q26.086 837.999 27.0408 835.58 Z" fill="#000000" fill-rule="nonzero" fill-opacity="1" /><path clip-path="url(#clip360)" d="M27.3591 798.691 L32.8336 798.691 Q31.465 801.174 30.7966 803.688 Q30.0964 806.171 30.0964 808.717 Q30.0964 814.414 33.7248 817.565 Q37.3214 820.716 43.8463 820.716 Q50.3711 820.716 53.9996 817.565 Q57.5962 814.414 57.5962 808.717 Q57.5962 806.171 56.9278 803.688 Q56.2276 801.174 54.859 798.691 L60.2698 798.691 Q61.4156 801.142 61.9886 803.784 Q62.5615 806.394 62.5615 809.354 Q62.5615 817.406 57.5007 822.149 Q52.44 826.891 43.8463 826.891 Q35.1253 826.891 30.1282 822.117 Q25.1311 817.311 25.1311 808.972 Q25.1311 806.266 25.704 803.688 Q26.2451 801.11 27.3591 798.691 Z" fill="#000000" fill-rule="nonzero" fill-opacity="1" /><path clip-path="url(#clip360)" d="M43.719 772.305 Q43.719 779.403 45.3422 782.14 Q46.9655 784.878 50.8804 784.878 Q53.9996 784.878 55.8457 782.84 Q57.6599 780.772 57.6599 777.239 Q57.6599 772.369 54.2224 769.441 Q50.7531 766.481 45.0239 766.481 L43.719 766.481 L43.719 772.305 M41.3 760.624 L61.6384 760.624 L61.6384 766.481 L56.2276 766.481 Q59.4741 768.486 61.0337 771.478 Q62.5615 774.47 62.5615 778.798 Q62.5615 784.273 59.5059 787.519 Q56.4186 790.734 51.2623 790.734 Q45.2467 790.734 42.1912 786.724 Q39.1357 782.681 39.1357 774.692 L39.1357 766.481 L38.5628 766.481 Q34.5205 766.481 32.3244 769.154 Q30.0964 771.796 30.0964 776.602 Q30.0964 779.658 30.8284 782.554 Q31.5605 785.45 33.0246 788.124 L27.6137 788.124 Q26.3724 784.909 25.7677 781.886 Q25.1311 778.862 25.1311 775.997 Q25.1311 768.263 29.1415 764.444 Q33.1519 760.624 41.3 760.624 Z" fill="#000000" fill-rule="nonzero" fill-opacity="1" /><path clip-path="url(#clip360)" d="M12.1132 748.561 L12.1132 742.705 L61.6384 742.705 L61.6384 748.561 L12.1132 748.561 Z" fill="#000000" fill-rule="nonzero" fill-opacity="1" /><path clip-path="url(#clip360)" d="M42.3504 699.959 L45.2149 699.959 L45.2149 726.886 Q51.2623 726.504 54.4452 723.257 Q57.5962 719.979 57.5962 714.155 Q57.5962 710.781 56.7687 707.63 Q55.9411 704.447 54.2861 701.328 L59.8242 701.328 Q61.161 704.479 61.8612 707.789 Q62.5615 711.099 62.5615 714.505 Q62.5615 723.035 57.5962 728.032 Q52.631 732.997 44.1646 732.997 Q35.4117 732.997 30.2873 728.286 Q25.1311 723.544 25.1311 715.523 Q25.1311 708.33 29.7781 704.16 Q34.3932 699.959 42.3504 699.959 M40.6316 705.815 Q35.8255 705.879 32.9609 708.521 Q30.0964 711.131 30.0964 715.459 Q30.0964 720.361 32.8654 723.321 Q35.6345 726.249 40.6634 726.695 L40.6316 705.815 Z" fill="#000000" fill-rule="nonzero" fill-opacity="1" /><path clip-path="url(#clip360)" d="M12.1132 676.66 L70.2321 676.66 L70.2321 690.156 L65.6807 690.156 L65.6807 682.549 L16.6647 682.549 L16.6647 690.156 L12.1132 690.156 L12.1132 676.66 Z" fill="#000000" fill-rule="nonzero" fill-opacity="1" /><path clip-path="url(#clip360)" d="M658.669 43.6931 L658.669 65.8515 L671.794 65.8515 Q678.397 65.8515 681.557 63.1374 Q684.757 60.3828 684.757 54.752 Q684.757 49.0808 681.557 46.4072 Q678.397 43.6931 671.794 43.6931 L658.669 43.6931 M658.669 18.8205 L658.669 37.0496 L670.782 37.0496 Q676.777 37.0496 679.694 34.8216 Q682.651 32.5531 682.651 27.935 Q682.651 23.3575 679.694 21.089 Q676.777 18.8205 670.782 18.8205 L658.669 18.8205 M650.487 12.096 L671.389 12.096 Q680.747 12.096 685.81 15.9849 Q690.874 19.8737 690.874 27.0438 Q690.874 32.5936 688.282 35.8748 Q685.689 39.156 680.666 39.9662 Q686.702 41.2625 690.023 45.3944 Q693.386 49.4858 693.386 55.6432 Q693.386 63.745 687.876 68.1605 Q682.367 72.576 672.199 72.576 L650.487 72.576 L650.487 12.096 Z" fill="#000000" fill-rule="nonzero" fill-opacity="1" /><path clip-path="url(#clip360)" d="M707.078 27.2059 L714.531 27.2059 L714.531 72.576 L707.078 72.576 L707.078 27.2059 M707.078 9.54393 L714.531 9.54393 L714.531 18.9825 L707.078 18.9825 L707.078 9.54393 Z" fill="#000000" fill-rule="nonzero" fill-opacity="1" /><path clip-path="url(#clip360)" d="M767.841 45.1919 L767.841 72.576 L760.388 72.576 L760.388 45.4349 Q760.388 38.994 757.876 35.7938 Q755.364 32.5936 750.341 32.5936 Q744.306 32.5936 740.822 36.4419 Q737.338 40.2903 737.338 46.9338 L737.338 72.576 L729.844 72.576 L729.844 27.2059 L737.338 27.2059 L737.338 34.2544 Q740.012 30.163 743.617 28.1376 Q747.263 26.1121 752.002 26.1121 Q759.82 26.1121 763.831 30.9732 Q767.841 35.7938 767.841 45.1919 Z" fill="#000000" fill-rule="nonzero" fill-opacity="1" /><path clip-path="url(#clip360)" d="M800.289 32.4315 Q794.294 32.4315 790.81 37.1306 Q787.326 41.7891 787.326 49.9314 Q787.326 58.0738 790.769 62.7728 Q794.253 67.4314 800.289 67.4314 Q806.244 67.4314 809.728 62.7323 Q813.211 58.0333 813.211 49.9314 Q813.211 41.8701 809.728 37.1711 Q806.244 32.4315 800.289 32.4315 M800.289 26.1121 Q810.011 26.1121 815.561 32.4315 Q821.111 38.7509 821.111 49.9314 Q821.111 61.0714 815.561 67.4314 Q810.011 73.7508 800.289 73.7508 Q790.526 73.7508 784.977 67.4314 Q779.467 61.0714 779.467 49.9314 Q779.467 38.7509 784.977 32.4315 Q790.526 26.1121 800.289 26.1121 Z" fill="#000000" fill-rule="nonzero" fill-opacity="1" /><path clip-path="url(#clip360)" d="M868.79 35.9153 Q871.585 30.8922 875.474 28.5022 Q879.363 26.1121 884.629 26.1121 Q891.718 26.1121 895.566 31.0947 Q899.415 36.0368 899.415 45.1919 L899.415 72.576 L891.92 72.576 L891.92 45.4349 Q891.92 38.913 889.611 35.7533 Q887.302 32.5936 882.563 32.5936 Q876.77 32.5936 873.408 36.4419 Q870.046 40.2903 870.046 46.9338 L870.046 72.576 L862.551 72.576 L862.551 45.4349 Q862.551 38.8725 860.242 35.7533 Q857.933 32.5936 853.113 32.5936 Q847.401 32.5936 844.039 36.4824 Q840.677 40.3308 840.677 46.9338 L840.677 72.576 L833.182 72.576 L833.182 27.2059 L840.677 27.2059 L840.677 34.2544 Q843.229 30.082 846.793 28.0971 Q850.358 26.1121 855.26 26.1121 Q860.202 26.1121 863.645 28.6237 Q867.129 31.1352 868.79 35.9153 Z" fill="#000000" fill-rule="nonzero" fill-opacity="1" /><path clip-path="url(#clip360)" d="M914.281 27.2059 L921.735 27.2059 L921.735 72.576 L914.281 72.576 L914.281 27.2059 M914.281 9.54393 L921.735 9.54393 L921.735 18.9825 L914.281 18.9825 L914.281 9.54393 Z" fill="#000000" fill-rule="nonzero" fill-opacity="1" /><path clip-path="url(#clip360)" d="M957.95 49.7694 Q948.917 49.7694 945.433 51.8354 Q941.949 53.9013 941.949 58.8839 Q941.949 62.8538 944.542 65.2034 Q947.175 67.5124 951.671 67.5124 Q957.869 67.5124 961.596 63.1374 Q965.363 58.7219 965.363 51.4303 L965.363 49.7694 L957.95 49.7694 M972.817 46.6907 L972.817 72.576 L965.363 72.576 L965.363 65.6895 Q962.811 69.8214 959.003 71.8063 Q955.196 73.7508 949.686 73.7508 Q942.719 73.7508 938.587 69.8619 Q934.495 65.9325 934.495 59.3701 Q934.495 51.7138 939.6 47.825 Q944.744 43.9361 954.912 43.9361 L965.363 43.9361 L965.363 43.2069 Q965.363 38.0623 961.961 35.2672 Q958.598 32.4315 952.481 32.4315 Q948.593 32.4315 944.906 33.3632 Q941.22 34.295 937.817 36.1584 L937.817 29.2718 Q941.909 27.692 945.757 26.9223 Q949.605 26.1121 953.251 26.1121 Q963.095 26.1121 967.956 31.2163 Q972.817 36.3204 972.817 46.6907 Z" fill="#000000" fill-rule="nonzero" fill-opacity="1" /><path clip-path="url(#clip360)" d="M988.17 9.54393 L995.624 9.54393 L995.624 72.576 L988.17 72.576 L988.17 9.54393 Z" fill="#000000" fill-rule="nonzero" fill-opacity="1" /><path clip-path="url(#clip360)" d="M1079.15 63.9476 L1079.15 47.7034 L1065.79 47.7034 L1065.79 40.9789 L1087.26 40.9789 L1087.26 66.9452 Q1082.52 70.3075 1076.8 72.0494 Q1071.09 73.7508 1064.61 73.7508 Q1050.43 73.7508 1042.41 65.4869 Q1034.43 57.1826 1034.43 42.3968 Q1034.43 27.5705 1042.41 19.3066 Q1050.43 11.0023 1064.61 11.0023 Q1070.52 11.0023 1075.83 12.4606 Q1081.18 13.9189 1085.68 16.7545 L1085.68 25.464 Q1081.14 21.6156 1076.03 19.6712 Q1070.93 17.7268 1065.3 17.7268 Q1054.2 17.7268 1048.61 23.9246 Q1043.06 30.1225 1043.06 42.3968 Q1043.06 54.6305 1048.61 60.8284 Q1054.2 67.0263 1065.3 67.0263 Q1069.63 67.0263 1073.04 66.2971 Q1076.44 65.5274 1079.15 63.9476 Z" fill="#000000" fill-rule="nonzero" fill-opacity="1" /><path clip-path="url(#clip360)" d="M1122.42 20.1573 L1111.32 50.2555 L1133.56 50.2555 L1122.42 20.1573 M1117.8 12.096 L1127.08 12.096 L1150.13 72.576 L1141.62 72.576 L1136.11 57.061 L1108.85 57.061 L1103.34 72.576 L1094.71 72.576 L1117.8 12.096 Z" fill="#000000" fill-rule="nonzero" fill-opacity="1" /><path clip-path="url(#clip360)" d="M1158.96 12.096 L1171.15 12.096 L1186.58 53.2532 L1202.1 12.096 L1214.29 12.096 L1214.29 72.576 L1206.31 72.576 L1206.31 19.4686 L1190.72 60.9499 L1182.49 60.9499 L1166.9 19.4686 L1166.9 72.576 L1158.96 72.576 L1158.96 12.096 Z" fill="#000000" fill-rule="nonzero" fill-opacity="1" /><path clip-path="url(#clip360)" d="M1252.82 46.9338 L1327.68 46.9338 L1327.68 52.7671 L1252.82 52.7671 L1252.82 46.9338 Z" fill="#000000" fill-rule="nonzero" fill-opacity="1" /><path clip-path="url(#clip360)" d="M1394.84 28.5427 L1394.84 35.5912 Q1391.68 33.9709 1388.28 33.1607 Q1384.87 32.3505 1381.23 32.3505 Q1375.68 32.3505 1372.88 34.0519 Q1370.13 35.7533 1370.13 39.156 Q1370.13 41.7486 1372.11 43.2475 Q1374.1 44.7058 1380.09 46.0426 L1382.65 46.6097 Q1390.59 48.3111 1393.91 51.4303 Q1397.27 54.509 1397.27 60.0587 Q1397.27 66.3781 1392.25 70.0644 Q1387.27 73.7508 1378.52 73.7508 Q1374.87 73.7508 1370.9 73.0216 Q1366.97 72.3329 1362.6 70.9151 L1362.6 63.2184 Q1366.73 65.3654 1370.74 66.4591 Q1374.75 67.5124 1378.68 67.5124 Q1383.94 67.5124 1386.78 65.73 Q1389.61 63.9071 1389.61 60.6258 Q1389.61 57.5877 1387.55 55.9673 Q1385.52 54.3469 1378.6 52.8481 L1376 52.2405 Q1369.08 50.7821 1366 47.7845 Q1362.92 44.7463 1362.92 39.4801 Q1362.92 33.0797 1367.46 29.5959 Q1371.99 26.1121 1380.34 26.1121 Q1384.47 26.1121 1388.12 26.7198 Q1391.76 27.3274 1394.84 28.5427 Z" fill="#000000" fill-rule="nonzero" fill-opacity="1" /><path clip-path="url(#clip360)" d="M1444.46 35.9153 Q1447.26 30.8922 1451.15 28.5022 Q1455.04 26.1121 1460.3 26.1121 Q1467.39 26.1121 1471.24 31.0947 Q1475.09 36.0368 1475.09 45.1919 L1475.09 72.576 L1467.59 72.576 L1467.59 45.4349 Q1467.59 38.913 1465.29 35.7533 Q1462.98 32.5936 1458.24 32.5936 Q1452.44 32.5936 1449.08 36.4419 Q1445.72 40.2903 1445.72 46.9338 L1445.72 72.576 L1438.23 72.576 L1438.23 45.4349 Q1438.23 38.8725 1435.92 35.7533 Q1433.61 32.5936 1428.79 32.5936 Q1423.08 32.5936 1419.71 36.4824 Q1416.35 40.3308 1416.35 46.9338 L1416.35 72.576 L1408.86 72.576 L1408.86 27.2059 L1416.35 27.2059 L1416.35 34.2544 Q1418.9 30.082 1422.47 28.0971 Q1426.03 26.1121 1430.93 26.1121 Q1435.88 26.1121 1439.32 28.6237 Q1442.8 31.1352 1444.46 35.9153 Z" fill="#000000" fill-rule="nonzero" fill-opacity="1" /><path clip-path="url(#clip360)" d="M1507.54 32.4315 Q1501.54 32.4315 1498.06 37.1306 Q1494.57 41.7891 1494.57 49.9314 Q1494.57 58.0738 1498.02 62.7728 Q1501.5 67.4314 1507.54 67.4314 Q1513.49 67.4314 1516.97 62.7323 Q1520.46 58.0333 1520.46 49.9314 Q1520.46 41.8701 1516.97 37.1711 Q1513.49 32.4315 1507.54 32.4315 M1507.54 26.1121 Q1517.26 26.1121 1522.81 32.4315 Q1528.36 38.7509 1528.36 49.9314 Q1528.36 61.0714 1522.81 67.4314 Q1517.26 73.7508 1507.54 73.7508 Q1497.77 73.7508 1492.22 67.4314 Q1486.71 61.0714 1486.71 49.9314 Q1486.71 38.7509 1492.22 32.4315 Q1497.77 26.1121 1507.54 26.1121 Z" fill="#000000" fill-rule="nonzero" fill-opacity="1" /><path clip-path="url(#clip360)" d="M1558.29 32.4315 Q1552.3 32.4315 1548.82 37.1306 Q1545.33 41.7891 1545.33 49.9314 Q1545.33 58.0738 1548.77 62.7728 Q1552.26 67.4314 1558.29 67.4314 Q1564.25 67.4314 1567.73 62.7323 Q1571.22 58.0333 1571.22 49.9314 Q1571.22 41.8701 1567.73 37.1711 Q1564.25 32.4315 1558.29 32.4315 M1558.29 26.1121 Q1568.02 26.1121 1573.57 32.4315 Q1579.12 38.7509 1579.12 49.9314 Q1579.12 61.0714 1573.57 67.4314 Q1568.02 73.7508 1558.29 73.7508 Q1548.53 73.7508 1542.98 67.4314 Q1537.47 61.0714 1537.47 49.9314 Q1537.47 38.7509 1542.98 32.4315 Q1548.53 26.1121 1558.29 26.1121 Z" fill="#000000" fill-rule="nonzero" fill-opacity="1" /><path clip-path="url(#clip360)" d="M1598.84 14.324 L1598.84 27.2059 L1614.2 27.2059 L1614.2 32.9987 L1598.84 32.9987 L1598.84 57.6282 Q1598.84 63.1779 1600.34 64.7578 Q1601.88 66.3376 1606.54 66.3376 L1614.2 66.3376 L1614.2 72.576 L1606.54 72.576 Q1597.91 72.576 1594.63 69.3758 Q1591.35 66.1351 1591.35 57.6282 L1591.35 32.9987 L1585.88 32.9987 L1585.88 27.2059 L1591.35 27.2059 L1591.35 14.324 L1598.84 14.324 Z" fill="#000000" fill-rule="nonzero" fill-opacity="1" /><path clip-path="url(#clip360)" d="M1661.71 45.1919 L1661.71 72.576 L1654.26 72.576 L1654.26 45.4349 Q1654.26 38.994 1651.75 35.7938 Q1649.24 32.5936 1644.21 32.5936 Q1638.18 32.5936 1634.69 36.4419 Q1631.21 40.2903 1631.21 46.9338 L1631.21 72.576 L1623.72 72.576 L1623.72 9.54393 L1631.21 9.54393 L1631.21 34.2544 Q1633.88 30.163 1637.49 28.1376 Q1641.14 26.1121 1645.87 26.1121 Q1653.69 26.1121 1657.7 30.9732 Q1661.71 35.7938 1661.71 45.1919 Z" fill="#000000" fill-rule="nonzero" fill-opacity="1" /><path clip-path="url(#clip360)" d="M1720.53 32.4315 Q1714.54 32.4315 1711.05 37.1306 Q1707.57 41.7891 1707.57 49.9314 Q1707.57 58.0738 1711.01 62.7728 Q1714.5 67.4314 1720.53 67.4314 Q1726.49 67.4314 1729.97 62.7323 Q1733.46 58.0333 1733.46 49.9314 Q1733.46 41.8701 1729.97 37.1711 Q1726.49 32.4315 1720.53 32.4315 M1720.53 26.1121 Q1730.26 26.1121 1735.8 32.4315 Q1741.35 38.7509 1741.35 49.9314 Q1741.35 61.0714 1735.8 67.4314 Q1730.26 73.7508 1720.53 73.7508 Q1710.77 73.7508 1705.22 67.4314 Q1699.71 61.0714 1699.71 49.9314 Q1699.71 38.7509 1705.22 32.4315 Q1710.77 26.1121 1720.53 26.1121 Z" fill="#000000" fill-rule="nonzero" fill-opacity="1" /><path clip-path="url(#clip360)" d="M1791.42 45.1919 L1791.42 72.576 L1783.97 72.576 L1783.97 45.4349 Q1783.97 38.994 1781.46 35.7938 Q1778.95 32.5936 1773.92 32.5936 Q1767.89 32.5936 1764.4 36.4419 Q1760.92 40.2903 1760.92 46.9338 L1760.92 72.576 L1753.43 72.576 L1753.43 27.2059 L1760.92 27.2059 L1760.92 34.2544 Q1763.59 30.163 1767.2 28.1376 Q1770.85 26.1121 1775.58 26.1121 Q1783.4 26.1121 1787.41 30.9732 Q1791.42 35.7938 1791.42 45.1919 Z" fill="#000000" fill-rule="nonzero" fill-opacity="1" /><path clip-path="url(#clip360)" d="M1832.66 9.54393 L1840.12 9.54393 L1840.12 72.576 L1832.66 72.576 L1832.66 9.54393 Z" fill="#000000" fill-rule="nonzero" fill-opacity="1" /><path clip-path="url(#clip360)" d="M1855.71 27.2059 L1863.17 27.2059 L1863.17 72.576 L1855.71 72.576 L1855.71 27.2059 M1855.71 9.54393 L1863.17 9.54393 L1863.17 18.9825 L1855.71 18.9825 L1855.71 9.54393 Z" fill="#000000" fill-rule="nonzero" fill-opacity="1" /><path clip-path="url(#clip360)" d="M1916.48 45.1919 L1916.48 72.576 L1909.02 72.576 L1909.02 45.4349 Q1909.02 38.994 1906.51 35.7938 Q1904 32.5936 1898.98 32.5936 Q1892.94 32.5936 1889.46 36.4419 Q1885.97 40.2903 1885.97 46.9338 L1885.97 72.576 L1878.48 72.576 L1878.48 27.2059 L1885.97 27.2059 L1885.97 34.2544 Q1888.65 30.163 1892.25 28.1376 Q1895.9 26.1121 1900.64 26.1121 Q1908.45 26.1121 1912.46 30.9732 Q1916.48 35.7938 1916.48 45.1919 Z" fill="#000000" fill-rule="nonzero" fill-opacity="1" /><path clip-path="url(#clip360)" d="M1931.06 9.54393 L1938.55 9.54393 L1938.55 46.7717 L1960.79 27.2059 L1970.31 27.2059 L1946.25 48.4326 L1971.32 72.576 L1961.6 72.576 L1938.55 50.4176 L1938.55 72.576 L1931.06 72.576 L1931.06 9.54393 Z" fill="#000000" fill-rule="nonzero" fill-opacity="1" /><path clip-path="url(#clip360)" d="M2034.68 28.5427 L2034.68 35.5912 Q2031.52 33.9709 2028.12 33.1607 Q2024.72 32.3505 2021.07 32.3505 Q2015.52 32.3505 2012.72 34.0519 Q2009.97 35.7533 2009.97 39.156 Q2009.97 41.7486 2011.95 43.2475 Q2013.94 44.7058 2019.94 46.0426 L2022.49 46.6097 Q2030.43 48.3111 2033.75 51.4303 Q2037.11 54.509 2037.11 60.0587 Q2037.11 66.3781 2032.09 70.0644 Q2027.11 73.7508 2018.36 73.7508 Q2014.71 73.7508 2010.74 73.0216 Q2006.81 72.3329 2002.44 70.9151 L2002.44 63.2184 Q2006.57 65.3654 2010.58 66.4591 Q2014.59 67.5124 2018.52 67.5124 Q2023.78 67.5124 2026.62 65.73 Q2029.45 63.9071 2029.45 60.6258 Q2029.45 57.5877 2027.39 55.9673 Q2025.36 54.3469 2018.44 52.8481 L2015.84 52.2405 Q2008.92 50.7821 2005.84 47.7845 Q2002.76 44.7463 2002.76 39.4801 Q2002.76 33.0797 2007.3 29.5959 Q2011.83 26.1121 2020.18 26.1121 Q2024.31 26.1121 2027.96 26.7198 Q2031.6 27.3274 2034.68 28.5427 Z" fill="#000000" fill-rule="nonzero" fill-opacity="1" /><path clip-path="url(#clip360)" d="M2081.63 28.9478 L2081.63 35.9153 Q2078.47 34.1734 2075.27 33.3227 Q2072.11 32.4315 2068.87 32.4315 Q2061.62 32.4315 2057.61 37.0496 Q2053.6 41.6271 2053.6 49.9314 Q2053.6 58.2358 2057.61 62.8538 Q2061.62 67.4314 2068.87 67.4314 Q2072.11 67.4314 2075.27 66.5807 Q2078.47 65.6895 2081.63 63.9476 L2081.63 70.8341 Q2078.51 72.2924 2075.15 73.0216 Q2071.83 73.7508 2068.06 73.7508 Q2057.81 73.7508 2051.78 67.3098 Q2045.74 60.8689 2045.74 49.9314 Q2045.74 38.832 2051.82 32.472 Q2057.93 26.1121 2068.55 26.1121 Q2071.99 26.1121 2075.27 26.8413 Q2078.55 27.5299 2081.63 28.9478 Z" fill="#000000" fill-rule="nonzero" fill-opacity="1" /><path clip-path="url(#clip360)" d="M2115.21 49.7694 Q2106.18 49.7694 2102.7 51.8354 Q2099.21 53.9013 2099.21 58.8839 Q2099.21 62.8538 2101.8 65.2034 Q2104.44 67.5124 2108.93 67.5124 Q2115.13 67.5124 2118.86 63.1374 Q2122.63 58.7219 2122.63 51.4303 L2122.63 49.7694 L2115.21 49.7694 M2130.08 46.6907 L2130.08 72.576 L2122.63 72.576 L2122.63 65.6895 Q2120.07 69.8214 2116.27 71.8063 Q2112.46 73.7508 2106.95 73.7508 Q2099.98 73.7508 2095.85 69.8619 Q2091.76 65.9325 2091.76 59.3701 Q2091.76 51.7138 2096.86 47.825 Q2102.01 43.9361 2112.17 43.9361 L2122.63 43.9361 L2122.63 43.2069 Q2122.63 38.0623 2119.22 35.2672 Q2115.86 32.4315 2109.74 32.4315 Q2105.85 32.4315 2102.17 33.3632 Q2098.48 34.295 2095.08 36.1584 L2095.08 29.2718 Q2099.17 27.692 2103.02 26.9223 Q2106.87 26.1121 2110.51 26.1121 Q2120.36 26.1121 2125.22 31.2163 Q2130.08 36.3204 2130.08 46.6907 Z" fill="#000000" fill-rule="nonzero" fill-opacity="1" /><path clip-path="url(#clip360)" d="M2145.43 9.54393 L2152.89 9.54393 L2152.89 72.576 L2145.43 72.576 L2145.43 9.54393 Z" fill="#000000" fill-rule="nonzero" fill-opacity="1" /><path clip-path="url(#clip360)" d="M2207.29 48.0275 L2207.29 51.6733 L2173.02 51.6733 Q2173.51 59.3701 2177.64 63.421 Q2181.81 67.4314 2189.22 67.4314 Q2193.52 67.4314 2197.53 66.3781 Q2201.58 65.3249 2205.55 63.2184 L2205.55 70.267 Q2201.54 71.9684 2197.32 72.8596 Q2193.11 73.7508 2188.78 73.7508 Q2177.92 73.7508 2171.56 67.4314 Q2165.24 61.1119 2165.24 50.3365 Q2165.24 39.1965 2171.24 32.6746 Q2177.27 26.1121 2187.48 26.1121 Q2196.64 26.1121 2201.94 32.0264 Q2207.29 37.9003 2207.29 48.0275 M2199.84 45.84 Q2199.75 39.7232 2196.39 36.0774 Q2193.07 32.4315 2187.56 32.4315 Q2181.32 32.4315 2177.56 35.9558 Q2173.83 39.4801 2173.26 45.8805 L2199.84 45.84 Z" fill="#000000" fill-rule="nonzero" fill-opacity="1" /><path clip-path="url(#clip361)" d="M285.617 1003.46 L297.107 978.15 L308.597 953.626 L320.087 930.044 L331.577 907.54 L343.067 886.231 L354.558 866.201 L366.048 847.49 L377.538 830.093 L389.028 813.949 L400.518 798.945 L412.008 784.929 L423.499 771.716 L434.989 759.119 L446.479 746.969 L457.969 735.197 L469.459 723.827 L480.949 712.901 L492.44 702.459 L503.93 692.52 L515.42 683.071 L526.91 674.06 L538.4 665.399 L549.89 656.965 L561.381 648.617 L572.871 640.207 L584.361 631.609 L595.851 622.818 L607.341 613.938 L618.831 605.095 L630.322 596.424 L641.812 588.049 L653.302 580.077 L664.792 572.59 L676.282 565.637 L687.772 559.235 L699.263 553.37 L710.753 548.004 L722.243 543.081 L733.733 538.538 L745.223 534.317 L756.713 530.379 L768.204 526.765 L779.694 523.604 L791.184 521.035 L802.674 519.19 L814.164 518.181 L825.654 518.092 L837.145 518.965 L848.635 520.806 L860.125 523.577 L871.615 527.209 L883.105 531.601 L894.595 536.639 L906.086 542.2 L917.576 548.214 L929.066 554.684 L940.556 561.639 L952.046 569.129 L963.536 577.21 L975.026 585.946 L986.517 595.396 L998.007 605.611 L1009.5 616.632 L1020.99 628.481 L1032.48 641.163 L1043.97 654.659 L1055.46 668.934 L1066.95 683.929 L1078.44 699.572 L1089.93 715.781 L1101.42 732.466 L1112.91 749.542 L1124.4 766.933 L1135.89 784.584 L1147.38 802.478 L1158.87 820.672 L1170.36 839.248 L1181.85 858.275 L1193.34 877.795 L1204.83 897.812 L1216.32 918.283 L1227.81 939.124 L1239.3 960.207 L1250.79 981.371 L1262.28 1002.44 L1273.77 1023.22 L1285.26 1043.53 L1296.75 1063.29 L1308.24 1082.54 L1319.73 1101.42 L1331.22 1120.06 L1342.71 1138.55 L1354.2 1156.99 L1365.69 1175.45 L1377.18 1193.93 L1388.67 1212.43 L1400.16 1230.9 L1411.65 1249.27 L1423.14 1267.46 L1434.63 1285.35 L1446.12 1302.88 L1457.61 1320 L1469.1 1336.75 L1480.59 1353.21 L1492.08 1369.44 L1503.57 1385.51 L1515.06 1401.47 L1526.55 1417.36 L1538.04 1433.18 L1549.53 1448.91 L1561.02 1464.51 L1572.52 1479.92 L1584.01 1495.05 L1595.5 1509.81 L1606.99 1524.1 L1618.48 1537.82 L1629.97 1550.88 L1641.46 1563.24 L1652.95 1574.95 L1664.44 1586.08 L1675.93 1596.68 L1687.42 1606.8 L1698.91 1616.48 L1710.4 1625.75 L1721.89 1634.59 L1733.38 1642.99 L1744.87 1650.9 L1756.36 1658.26 L1767.85 1664.98 L1779.34 1670.97 L1790.83 1676.16 L1802.32 1680.46 L1813.81 1683.81 L1825.3 1686.18 L1836.79 1687.7 L1848.28 1688.49 L1859.77 1688.65 L1871.26 1688.28 L1882.75 1687.4 L1894.24 1685.99 L1905.73 1684.02 L1917.22 1681.38 L1928.71 1677.99 L1940.2 1673.81 L1951.69 1668.89 L1963.18 1663.3 L1974.67 1657.1 L1986.16 1650.4 L1997.65 1643.28 L2009.14 1635.82 L2020.63 1628.09 L2032.12 1620.17 L2043.61 1612.09 L2055.1 1603.88 L2066.59 1595.56 L2078.08 1587.12 L2089.57 1578.54 L2101.06 1569.79 L2112.55 1560.84 L2124.04 1551.65 L2135.53 1542.18 L2147.02 1532.41 L2158.51 1522.35 L2170 1512.04 L2181.49 1501.52 L2192.98 1490.83 L2204.47 1480.03 L2215.96 1469.11 L2227.45 1458.09 L2238.94 1446.91 L2250.43 1435.51 L2261.93 1423.82 L2273.42 1411.71 L2284.91 1399.05 L2296.4 1385.71 L2307.89 1371.56 L2319.38 1356.6 L2330.87 1340.91 L2342.36 1324.61 L2353.85 1307.86 L2365.34 1290.79 L2376.83 1273.54 L2388.32 1256.23 L2399.81 1238.99 L2411.3 1221.89 L2422.79 1205.03 L2434.28 1188.46 L2445.77 1172.23 L2457.26 1156.42 L2468.75 1141.11 L2480.24 1126.41 L2491.73 1112.57 L2503.22 1099.83 L2514.71 1088.39 L2526.2 1078.35 L2537.69 1069.77 L2549.18 1062.58 L2560.67 1056.7 L2572.16 1051.95 L2572.16 503.342 L2560.67 539.236 L2549.18 573.893 L2537.69 607.063 L2526.2 638.544 L2514.71 668.198 L2503.22 695.962 L2491.73 721.858 L2480.24 745.985 L2468.75 768.497 L2457.26 789.552 L2445.77 809.249 L2434.28 827.648 L2422.79 844.793 L2411.3 860.718 L2399.81 875.464 L2388.32 889.086 L2376.83 901.656 L2365.34 913.263 L2353.85 924.015 L2342.36 934.029 L2330.87 943.425 L2319.38 952.32 L2307.89 960.816 L2296.4 968.99 L2284.91 976.864 L2273.42 984.412 L2261.93 991.599 L2250.43 998.396 L2238.94 1004.79 L2227.45 1010.8 L2215.96 1016.45 L2204.47 1021.82 L2192.98 1026.99 L2181.49 1032.09 L2170 1037.26 L2158.51 1042.63 L2147.02 1048.36 L2135.53 1054.57 L2124.04 1061.23 L2112.55 1068.26 L2101.06 1075.56 L2089.57 1083 L2078.08 1090.5 L2066.59 1097.95 L2055.1 1105.26 L2043.61 1112.37 L2032.12 1119.21 L2020.63 1125.74 L2009.14 1131.94 L1997.65 1137.81 L1986.16 1143.35 L1974.67 1148.56 L1963.18 1153.48 L1951.69 1158.12 L1940.2 1162.5 L1928.71 1166.6 L1917.22 1170.41 L1905.73 1173.84 L1894.24 1176.77 L1882.75 1179.07 L1871.26 1180.67 L1859.77 1181.53 L1848.28 1181.65 L1836.79 1181.08 L1825.3 1179.89 L1813.81 1178.2 L1802.32 1176.1 L1790.83 1173.6 L1779.34 1170.68 L1767.85 1167.3 L1756.36 1163.41 L1744.87 1158.97 L1733.38 1153.94 L1721.89 1148.3 L1710.4 1142.04 L1698.91 1135.18 L1687.42 1127.76 L1675.93 1119.84 L1664.44 1111.49 L1652.95 1102.81 L1641.46 1093.91 L1629.97 1084.89 L1618.48 1075.82 L1606.99 1066.71 L1595.5 1057.49 L1584.01 1048.08 L1572.52 1038.41 L1561.02 1028.42 L1549.53 1018.03 L1538.04 1007.22 L1526.55 995.962 L1515.06 984.261 L1503.57 972.151 L1492.08 959.689 L1480.59 946.951 L1469.1 934.027 L1457.61 921.013 L1446.12 908.004 L1434.63 895.063 L1423.14 882.14 L1411.65 869.126 L1400.16 855.901 L1388.67 842.355 L1377.18 828.391 L1365.69 813.939 L1354.2 798.962 L1342.71 783.458 L1331.22 767.461 L1319.73 751.035 L1308.24 734.27 L1296.75 717.264 L1285.26 700.116 L1273.77 682.891 L1262.28 665.568 L1250.79 648.083 L1239.3 630.36 L1227.81 612.331 L1216.32 593.946 L1204.83 575.189 L1193.34 556.086 L1181.85 536.706 L1170.36 517.165 L1158.87 497.615 L1147.38 478.237 L1135.89 459.224 L1124.4 440.728 L1112.91 422.787 L1101.42 405.395 L1089.93 388.523 L1078.44 372.134 L1066.95 356.189 L1055.46 340.653 L1043.97 325.501 L1032.48 310.725 L1020.99 296.337 L1009.5 282.366 L998.007 268.866 L986.517 255.909 L975.026 243.581 L963.536 231.984 L952.046 221.226 L940.556 211.416 L929.066 202.662 L917.576 195.06 L906.086 188.69 L894.595 183.598 L883.105 179.716 L871.615 176.887 L860.125 174.953 L848.635 173.779 L837.145 173.254 L825.654 173.304 L814.164 173.893 L802.674 175.029 L791.184 176.753 L779.694 179.14 L768.204 182.284 L756.713 186.285 L745.223 191.231 L733.733 197.102 L722.243 203.781 L710.753 211.13 L699.263 219.005 L687.772 227.27 L676.282 235.808 L664.792 244.525 L653.302 253.358 L641.812 262.277 L630.322 271.283 L618.831 280.402 L607.341 289.682 L595.851 299.174 L584.361 308.926 L572.871 318.963 L561.381 329.233 L549.89 339.597 L538.4 349.904 L526.91 360.004 L515.42 369.77 L503.93 379.107 L492.44 387.956 L480.949 396.298 L469.459 404.147 L457.969 411.535 L446.479 418.498 L434.989 425.055 L423.499 431.134 L412.008 436.568 L400.518 441.172 L389.028 444.764 L377.538 447.195 L366.048 448.353 L354.558 448.181 L343.067 446.674 L331.577 443.877 L320.087 439.875 L308.597 434.788 L297.107 428.754 L285.617 421.929  Z" fill="#009af9" fill-rule="evenodd" fill-opacity="0.2"/>
<polyline clip-path="url(#clip361)" style="stroke:#009af9; stroke-linecap:round; stroke-linejoin:round; stroke-width:8; stroke-opacity:1; fill:none" points="285.617,712.696 297.107,703.452 308.597,694.207 320.087,684.96 331.577,675.708 343.067,666.453 354.558,657.191 366.048,647.921 377.538,638.644 389.028,629.357 400.518,620.058 412.008,610.748 423.499,601.425 434.989,592.087 446.479,582.734 457.969,573.366 469.459,563.987 480.949,554.6 492.44,545.207 503.93,535.813 515.42,526.42 526.91,517.032 538.4,507.651 549.89,498.281 561.381,488.925 572.871,479.585 584.361,470.268 595.851,460.996 607.341,451.81 618.831,442.749 630.322,433.853 641.812,425.163 653.302,416.718 664.792,408.558 676.282,400.723 687.772,393.253 699.263,386.187 710.753,379.567 722.243,373.431 733.733,367.82 745.223,362.774 756.713,358.332 768.204,354.524 779.694,351.372 791.184,348.894 802.674,347.109 814.164,346.037 825.654,345.698 837.145,346.11 848.635,347.292 860.125,349.265 871.615,352.048 883.105,355.659 894.595,360.118 906.086,365.445 917.576,371.637 929.066,378.673 940.556,386.528 952.046,395.177 963.536,404.597 975.026,414.764 986.517,425.652 998.007,437.239 1009.5,449.499 1020.99,462.409 1032.48,475.944 1043.97,490.08 1055.46,504.793 1066.95,520.059 1078.44,535.853 1089.93,552.152 1101.42,568.93 1112.91,586.165 1124.4,603.831 1135.89,621.904 1147.38,640.357 1158.87,659.143 1170.36,678.206 1181.85,697.491 1193.34,716.941 1204.83,736.501 1216.32,756.115 1227.81,775.728 1239.3,795.284 1250.79,814.727 1262.28,834.002 1273.77,853.053 1285.26,871.825 1296.75,890.275 1308.24,908.406 1319.73,926.229 1331.22,943.758 1342.71,961.004 1354.2,977.978 1365.69,994.693 1377.18,1011.16 1388.67,1027.39 1400.16,1043.4 1411.65,1059.2 1423.14,1074.8 1434.63,1090.21 1446.12,1105.44 1457.61,1120.51 1469.1,1135.39 1480.59,1150.08 1492.08,1164.56 1503.57,1178.83 1515.06,1192.87 1526.55,1206.66 1538.04,1220.2 1549.53,1233.47 1561.02,1246.47 1572.52,1259.17 1584.01,1271.57 1595.5,1283.65 1606.99,1295.41 1618.48,1306.82 1629.97,1317.88 1641.46,1328.58 1652.95,1338.88 1664.44,1348.78 1675.93,1358.26 1687.42,1367.28 1698.91,1375.83 1710.4,1383.9 1721.89,1391.45 1733.38,1398.47 1744.87,1404.94 1756.36,1410.83 1767.85,1416.14 1779.34,1420.83 1790.83,1424.88 1802.32,1428.28 1813.81,1431.01 1825.3,1433.04 1836.79,1434.39 1848.28,1435.07 1859.77,1435.09 1871.26,1434.48 1882.75,1433.23 1894.24,1431.38 1905.73,1428.93 1917.22,1425.9 1928.71,1422.3 1940.2,1418.16 1951.69,1413.51 1963.18,1408.39 1974.67,1402.83 1986.16,1396.87 1997.65,1390.54 2009.14,1383.88 2020.63,1376.92 2032.12,1369.69 2043.61,1362.23 2055.1,1354.57 2066.59,1346.76 2078.08,1338.81 2089.57,1330.77 2101.06,1322.67 2112.55,1314.55 2124.04,1306.44 2135.53,1298.37 2147.02,1290.38 2158.51,1282.49 2170,1274.65 2181.49,1266.8 2192.98,1258.91 2204.47,1250.92 2215.96,1242.78 2227.45,1234.44 2238.94,1225.85 2250.43,1216.95 2261.93,1207.71 2273.42,1198.06 2284.91,1187.96 2296.4,1177.35 2307.89,1166.19 2319.38,1154.46 2330.87,1142.17 2342.36,1129.32 2353.85,1115.94 2365.34,1102.03 2376.83,1087.6 2388.32,1072.66 2399.81,1057.22 2411.3,1041.31 2422.79,1024.91 2434.28,1008.05 2445.77,990.741 2457.26,972.987 2468.75,954.803 2480.24,936.2 2491.73,917.215 2503.22,897.897 2514.71,878.293 2526.2,858.45 2537.69,838.416 2549.18,818.239 2560.67,797.966 2572.16,777.646 "/>
<polyline clip-path="url(#clip361)" style="stroke:#ff0000; stroke-linecap:round; stroke-linejoin:round; stroke-width:8; stroke-opacity:1; fill:none" stroke-dasharray="32, 20" points="285.617,886.316 294.652,872.702 297.356,868.63 299.512,865.385 310.591,848.736 316.682,839.603 327.541,823.365 337.544,808.469 337.656,808.302 339.482,805.59 344.388,798.317 357.395,779.128 363.432,770.272 373.885,755.027 387.909,734.764 393.599,726.612 396.967,721.806 401.163,715.84 407.176,707.335 412.229,700.227 413.393,698.595 438.133,664.426 443.664,656.93 460.704,634.196 462.348,632.033 469.52,622.659 488.542,598.327 492.952,592.8 497.241,587.468 507.723,574.62 509.714,572.21 513.545,567.601 519.797,560.156 521.589,558.04 528.884,549.514 531.577,546.401 537.319,539.829 539.849,536.961 556.948,518.044 558.35,516.529 562.825,511.733 574.556,499.438 575.267,498.706 578.266,495.636 593.434,480.525 599.75,474.444 611.668,463.319 615.863,459.513 631.26,446.044 632.807,444.734 635.248,442.686 636.888,441.321 638.343,440.117 639.466,439.193 640.344,438.473 658.81,423.968 690.027,402.224 696.09,398.417 698.992,396.643 705.047,393.045 712.124,389.016 728.283,380.535 739.64,375.18 749.876,370.787 751.341,370.192 757.108,367.933 758.667,367.345 759.736,366.948 775.314,361.672 778.521,360.707 781.723,359.784 789.136,357.808 803.352,354.641 811.396,353.214 817.121,352.359 830.097,350.919 831.995,350.766 840.722,350.254 842.114,350.201 849.5,350.054 858.936,350.193 872.525,351.035 874.337,351.204 880.98,351.941 881.047,351.95 889.809,353.2 915.836,358.762 920.43,360.028 936.814,365.239 939.971,366.367 945.785,368.548 978.306,383.204 983.783,386.078 986.488,387.54 997.054,393.518 1011.72,402.513 1030.16,414.964 1036.19,419.298 1056.47,434.844 1061.82,439.189 1077.2,452.22 1090.55,464.172 1100.11,473.085 1100.27,473.237 1108.5,481.153 1108.9,481.538 1131.32,504.191 1139.49,512.822 1140.79,514.211 1141.72,515.217 1150.21,524.44 1152.35,526.802 1154.59,529.28 1161.13,536.604 1162.18,537.791 1171.06,547.953 1172.28,549.37 1175.13,552.679 1181.21,559.82 1190.07,570.397 1196.92,578.705 1200.5,583.087 1205.39,589.13 1218.53,605.64 1223.05,611.401 1223.98,612.595 1242.33,636.495 1267.38,670.178 1281.41,689.543 1303.22,720.235 1308.73,728.095 1318.64,742.34 1327.09,754.562 1348.93,786.536 1349.25,787.001 1353.69,793.568 1356.43,797.619 1361.06,804.478 1371.57,820.112 1371.66,820.251 1374.11,823.906 1377.11,828.385 1389.76,847.318 1392.6,851.589 1397.96,859.645 1411.16,879.511 1417.82,889.544 1431.67,910.432 1439.25,921.871 1442.56,926.853 1444.96,930.467 1451.92,940.948 1452.68,942.095 1458.43,950.738 1500.09,1012.91 1508.33,1025.06 1520.74,1043.24 1526.33,1051.39 1527.66,1053.32 1544.22,1077.2 1549.72,1085.06 1557.41,1095.98 1558.29,1097.23 1563.04,1103.92 1591.97,1143.93 1598.47,1152.72 1600.49,1155.43 1600.58,1155.56 1604.04,1160.19 1612.24,1171.08 1619.99,1181.26 1628.85,1192.73 1634.89,1200.46 1642.75,1210.4 1645.86,1214.29 1647.77,1216.67 1657.13,1228.21 1668.5,1241.94 1669.89,1243.59 1687.53,1264.19 1693.52,1270.99 1711.77,1291.11 1719.83,1299.7 1721.24,1301.18 1768.59,1347.41 1773.93,1352.18 1775.35,1353.43 1785.96,1362.56 1786.89,1363.35 1805.4,1378.3 1807.11,1379.61 1812.01,1383.34 1813.99,1384.83 1816.87,1386.96 1819.78,1389.08 1832.94,1398.29 1840.08,1403.03 1841.7,1404.08 1844.53,1405.89 1854.08,1411.76 1876.99,1424.45 1889.15,1430.36 1891.74,1431.55 1892.32,1431.81 1896.95,1433.85 1900.71,1435.45 1902.63,1436.24 1904.32,1436.93 1907.45,1438.17 1912.58,1440.12 1918.54,1442.26 1918.69,1442.31 1920.6,1442.96 1921.49,1443.26 1921.5,1443.26 1934.35,1447.23 1935.47,1447.54 1946.62,1450.39 1946.78,1450.43 1951.97,1451.58 1976.59,1455.55 1998.33,1456.99 2004.42,1457.04 2025.5,1456.05 2033.78,1455.17 2036.91,1454.76 2046.45,1453.27 2053.6,1451.91 2070.84,1447.76 2075.09,1446.56 2078.68,1445.49 2091.43,1441.25 2096.08,1439.54 2127.46,1425.79 2129.91,1424.56 2146.76,1415.43 2157.39,1409.12 2166.01,1403.69 2171.29,1400.23 2173,1399.08 2217.29,1365.79 2221.28,1362.46 2223.15,1360.87 2226.58,1357.94 2229.92,1355.05 2239.05,1346.94 2252.21,1334.78 2260.78,1326.55 2261.59,1325.77 2266.99,1320.46 2270.66,1316.79 2272.56,1314.88 2273.34,1314.1 2285.46,1301.61 2290.53,1296.26 2294.98,1291.5 2300.19,1285.86 2305.69,1279.82 2323.57,1259.6 2333.71,1247.76 2340.07,1240.2 2351.32,1226.57 2363.27,1211.77 2365.22,1209.32 2369.1,1204.43 2374.25,1197.87 2376.29,1195.27 2388.93,1178.9 2391.13,1176.01 2392.02,1174.84 2416.55,1142.01 2416.58,1141.98 2429.56,1124.16 2447.83,1098.63 2456.39,1086.49 2458,1084.2 2465.04,1074.13 2470.95,1065.62 2471.81,1064.39 2477.06,1056.8 2484.92,1045.37 2485.89,1043.96 2486.49,1043.08 2489.45,1038.75 2497.85,1026.44 2505.65,1014.94 2511.08,1006.9 2519.77,993.996 2529.79,979.056 2533.14,974.045 2533.56,973.419 2534.11,972.591 2535.06,971.173 2536.78,968.599 2540.68,962.75 2542.33,960.283 2566.2,924.368 2569.78,918.972 2570.91,917.277 2572.16,915.39 "/>
<path clip-path="url(#clip360)" d="M2073.38 336.856 L2559.96 336.856 L2559.96 181.336 L2073.38 181.336  Z" fill="#ffffff" fill-rule="evenodd" fill-opacity="1"/>
<polyline clip-path="url(#clip360)" style="stroke:#000000; stroke-linecap:round; stroke-linejoin:round; stroke-width:4; stroke-opacity:1; fill:none" points="2073.38,336.856 2559.96,336.856 2559.96,181.336 2073.38,181.336 2073.38,336.856 "/>
<polyline clip-path="url(#clip360)" style="stroke:#009af9; stroke-linecap:round; stroke-linejoin:round; stroke-width:8; stroke-opacity:1; fill:none" points="2100.31,233.176 2261.89,233.176 "/>
<path clip-path="url(#clip360)" d="M2307.25 225.294 L2307.25 229.322 Q2305.44 228.396 2303.5 227.933 Q2301.55 227.47 2299.47 227.47 Q2296.3 227.47 2294.7 228.443 Q2293.13 229.415 2293.13 231.359 Q2293.13 232.841 2294.26 233.697 Q2295.4 234.53 2298.82 235.294 L2300.28 235.618 Q2304.82 236.591 2306.72 238.373 Q2308.64 240.132 2308.64 243.304 Q2308.64 246.915 2305.77 249.021 Q2302.92 251.128 2297.92 251.128 Q2295.84 251.128 2293.57 250.711 Q2291.32 250.317 2288.82 249.507 L2288.82 245.109 Q2291.18 246.336 2293.48 246.961 Q2295.77 247.563 2298.01 247.563 Q2301.02 247.563 2302.64 246.544 Q2304.26 245.503 2304.26 243.628 Q2304.26 241.892 2303.08 240.966 Q2301.92 240.04 2297.97 239.183 L2296.48 238.836 Q2292.53 238.003 2290.77 236.29 Q2289.01 234.554 2289.01 231.544 Q2289.01 227.887 2291.6 225.896 Q2294.19 223.906 2298.96 223.906 Q2301.32 223.906 2303.41 224.253 Q2305.49 224.6 2307.25 225.294 Z" fill="#000000" fill-rule="nonzero" fill-opacity="1" /><path clip-path="url(#clip360)" d="M2325.65 214.484 Q2322.55 219.808 2321.04 225.017 Q2319.54 230.225 2319.54 235.572 Q2319.54 240.919 2321.04 246.174 Q2322.57 251.405 2325.65 256.706 L2321.95 256.706 Q2318.48 251.266 2316.74 246.012 Q2315.03 240.757 2315.03 235.572 Q2315.03 230.41 2316.74 225.179 Q2318.45 219.947 2321.95 214.484 L2325.65 214.484 Z" fill="#000000" fill-rule="nonzero" fill-opacity="1" /><path clip-path="url(#clip360)" d="M2355.47 224.531 L2346.09 237.146 L2355.95 250.456 L2350.93 250.456 L2343.38 240.271 L2335.84 250.456 L2330.81 250.456 L2340.88 236.892 L2331.67 224.531 L2336.69 224.531 L2343.57 233.767 L2350.44 224.531 L2355.47 224.531 Z" fill="#000000" fill-rule="nonzero" fill-opacity="1" /><path clip-path="url(#clip360)" d="M2361.3 214.484 L2365 214.484 Q2368.48 219.947 2370.19 225.179 Q2371.92 230.41 2371.92 235.572 Q2371.92 240.757 2370.19 246.012 Q2368.48 251.266 2365 256.706 L2361.3 256.706 Q2364.38 251.405 2365.88 246.174 Q2367.41 240.919 2367.41 235.572 Q2367.41 230.225 2365.88 225.017 Q2364.38 219.808 2361.3 214.484 Z" fill="#000000" fill-rule="nonzero" fill-opacity="1" /><path clip-path="url(#clip360)" d="M2412.87 220.734 L2412.87 229.693 L2425.77 229.693 L2425.77 233.628 L2412.87 233.628 L2412.87 242.586 L2408.98 242.586 L2408.98 233.628 L2396.09 233.628 L2396.09 229.693 L2408.98 229.693 L2408.98 220.734 L2412.87 220.734 M2396.09 246.521 L2425.77 246.521 L2425.77 250.456 L2396.09 250.456 L2396.09 246.521 Z" fill="#000000" fill-rule="nonzero" fill-opacity="1" /><path clip-path="url(#clip360)" d="M2454.96 246.521 L2471.28 246.521 L2471.28 250.456 L2449.33 250.456 L2449.33 246.521 Q2451.99 243.767 2456.58 239.137 Q2461.18 234.484 2462.36 233.142 Q2464.61 230.618 2465.49 228.882 Q2466.39 227.123 2466.39 225.433 Q2466.39 222.679 2464.45 220.943 Q2462.53 219.206 2459.42 219.206 Q2457.22 219.206 2454.77 219.97 Q2452.34 220.734 2449.56 222.285 L2449.56 217.563 Q2452.39 216.429 2454.84 215.85 Q2457.29 215.271 2459.33 215.271 Q2464.7 215.271 2467.9 217.956 Q2471.09 220.642 2471.09 225.132 Q2471.09 227.262 2470.28 229.183 Q2469.49 231.081 2467.39 233.674 Q2466.81 234.345 2463.71 237.563 Q2460.6 240.757 2454.96 246.521 Z" fill="#000000" fill-rule="nonzero" fill-opacity="1" /><path clip-path="url(#clip360)" d="M2501.39 217.031 L2501.39 221.591 Q2498.73 220.318 2496.37 219.693 Q2494.01 219.068 2491.81 219.068 Q2487.99 219.068 2485.9 220.549 Q2483.84 222.031 2483.84 224.762 Q2483.84 227.054 2485.21 228.234 Q2486.6 229.392 2490.44 230.109 L2493.27 230.688 Q2498.5 231.683 2500.97 234.206 Q2503.47 236.706 2503.47 240.919 Q2503.47 245.942 2500.09 248.535 Q2496.74 251.128 2490.23 251.128 Q2487.78 251.128 2485 250.572 Q2482.25 250.016 2479.28 248.929 L2479.28 244.114 Q2482.13 245.711 2484.86 246.521 Q2487.59 247.331 2490.23 247.331 Q2494.24 247.331 2496.41 245.757 Q2498.59 244.183 2498.59 241.267 Q2498.59 238.72 2497.02 237.285 Q2495.47 235.85 2491.9 235.132 L2489.05 234.577 Q2483.82 233.535 2481.48 231.313 Q2479.15 229.091 2479.15 225.132 Q2479.15 220.549 2482.36 217.91 Q2485.6 215.271 2491.28 215.271 Q2493.71 215.271 2496.23 215.711 Q2498.75 216.151 2501.39 217.031 Z" fill="#000000" fill-rule="nonzero" fill-opacity="1" /><path clip-path="url(#clip360)" d="M2510.77 215.896 L2532.62 215.896 L2532.62 219.831 L2515.44 219.831 L2515.44 230.063 L2531.9 230.063 L2531.9 233.998 L2515.44 233.998 L2515.44 246.521 L2533.03 246.521 L2533.03 250.456 L2510.77 250.456 L2510.77 215.896 Z" fill="#000000" fill-rule="nonzero" fill-opacity="1" /><polyline clip-path="url(#clip360)" style="stroke:#ff0000; stroke-linecap:round; stroke-linejoin:round; stroke-width:8; stroke-opacity:1; fill:none" stroke-dasharray="32, 20" points="2100.31,285.016 2261.89,285.016 "/>
<path clip-path="url(#clip360)" d="M2296.23 269.009 L2296.23 276.371 L2305 276.371 L2305 279.681 L2296.23 279.681 L2296.23 293.755 Q2296.23 296.926 2297.09 297.829 Q2297.97 298.731 2300.63 298.731 L2305 298.731 L2305 302.296 L2300.63 302.296 Q2295.7 302.296 2293.82 300.468 Q2291.95 298.616 2291.95 293.755 L2291.95 279.681 L2288.82 279.681 L2288.82 276.371 L2291.95 276.371 L2291.95 269.009 L2296.23 269.009 Z" fill="#000000" fill-rule="nonzero" fill-opacity="1" /><path clip-path="url(#clip360)" d="M2325.63 280.352 Q2324.91 279.935 2324.05 279.75 Q2323.22 279.542 2322.2 279.542 Q2318.59 279.542 2316.65 281.903 Q2314.73 284.241 2314.73 288.639 L2314.73 302.296 L2310.44 302.296 L2310.44 276.371 L2314.73 276.371 L2314.73 280.398 Q2316.07 278.037 2318.22 276.903 Q2320.37 275.746 2323.45 275.746 Q2323.89 275.746 2324.42 275.815 Q2324.96 275.861 2325.6 275.977 L2325.63 280.352 Z" fill="#000000" fill-rule="nonzero" fill-opacity="1" /><path clip-path="url(#clip360)" d="M2329.66 292.065 L2329.66 276.371 L2333.92 276.371 L2333.92 291.903 Q2333.92 295.583 2335.35 297.435 Q2336.79 299.264 2339.66 299.264 Q2343.1 299.264 2345.1 297.065 Q2347.11 294.866 2347.11 291.069 L2347.11 276.371 L2351.37 276.371 L2351.37 302.296 L2347.11 302.296 L2347.11 298.315 Q2345.56 300.676 2343.5 301.833 Q2341.46 302.968 2338.75 302.968 Q2334.29 302.968 2331.97 300.19 Q2329.66 297.412 2329.66 292.065 M2340.37 275.746 L2340.37 275.746 Z" fill="#000000" fill-rule="nonzero" fill-opacity="1" /><path clip-path="url(#clip360)" d="M2382.32 288.269 L2382.32 290.352 L2362.73 290.352 Q2363.01 294.75 2365.37 297.065 Q2367.76 299.356 2371.99 299.356 Q2374.45 299.356 2376.74 298.755 Q2379.05 298.153 2381.32 296.949 L2381.32 300.977 Q2379.03 301.949 2376.62 302.458 Q2374.22 302.968 2371.74 302.968 Q2365.54 302.968 2361.9 299.356 Q2358.29 295.745 2358.29 289.588 Q2358.29 283.222 2361.72 279.495 Q2365.16 275.746 2371 275.746 Q2376.23 275.746 2379.26 279.125 Q2382.32 282.482 2382.32 288.269 M2378.06 287.019 Q2378.01 283.523 2376.09 281.44 Q2374.19 279.357 2371.04 279.357 Q2367.48 279.357 2365.33 281.37 Q2363.2 283.384 2362.87 287.042 L2378.06 287.019 Z" fill="#000000" fill-rule="nonzero" fill-opacity="1" /><path clip-path="url(#clip360)" d="M2417.5 266.278 L2417.5 269.82 L2413.43 269.82 Q2411.14 269.82 2410.23 270.746 Q2409.35 271.671 2409.35 274.079 L2409.35 276.371 L2416.37 276.371 L2416.37 279.681 L2409.35 279.681 L2409.35 302.296 L2405.07 302.296 L2405.07 279.681 L2401 279.681 L2401 276.371 L2405.07 276.371 L2405.07 274.565 Q2405.07 270.236 2407.09 268.269 Q2409.1 266.278 2413.47 266.278 L2417.5 266.278 Z" fill="#000000" fill-rule="nonzero" fill-opacity="1" /><path clip-path="url(#clip360)" d="M2431.3 266.324 Q2428.2 271.648 2426.69 276.857 Q2425.19 282.065 2425.19 287.412 Q2425.19 292.759 2426.69 298.014 Q2428.22 303.245 2431.3 308.546 L2427.6 308.546 Q2424.12 303.106 2422.39 297.852 Q2420.67 292.597 2420.67 287.412 Q2420.67 282.25 2422.39 277.019 Q2424.1 271.787 2427.6 266.324 L2431.3 266.324 Z" fill="#000000" fill-rule="nonzero" fill-opacity="1" /><path clip-path="url(#clip360)" d="M2461.11 276.371 L2451.74 288.986 L2461.6 302.296 L2456.58 302.296 L2449.03 292.111 L2441.48 302.296 L2436.46 302.296 L2446.53 288.732 L2437.32 276.371 L2442.34 276.371 L2449.22 285.607 L2456.09 276.371 L2461.11 276.371 Z" fill="#000000" fill-rule="nonzero" fill-opacity="1" /><path clip-path="url(#clip360)" d="M2466.95 266.324 L2470.65 266.324 Q2474.12 271.787 2475.84 277.019 Q2477.57 282.25 2477.57 287.412 Q2477.57 292.597 2475.84 297.852 Q2474.12 303.106 2470.65 308.546 L2466.95 308.546 Q2470.03 303.245 2471.53 298.014 Q2473.06 292.759 2473.06 287.412 Q2473.06 282.065 2471.53 276.857 Q2470.03 271.648 2466.95 266.324 Z" fill="#000000" fill-rule="nonzero" fill-opacity="1" /></svg>
