<?xml version="1.0" encoding="utf-8"?>
<svg xmlns="http://www.w3.org/2000/svg" xmlns:xlink="http://www.w3.org/1999/xlink" width="672" height="480" viewBox="0 0 2688 1920">
<defs>
  <clipPath id="clip210">
    <rect x="0" y="0" width="2688" height="1920"/>
  </clipPath>
</defs>
<path clip-path="url(#clip210)" d="M0 1920 L2688 1920 L2688 -4.26326e-14 L0 -4.26326e-14  Z" fill="#ffffff" fill-rule="evenodd" fill-opacity="1"/>
<defs>
  <clipPath id="clip211">
    <rect x="263" y="127" width="2378" height="1607"/>
  </clipPath>
</defs>
<path clip-path="url(#clip210)" d="M263.478 1734.12 L2640.76 1734.12 L2640.76 127.792 L263.478 127.792  Z" fill="#ffffff" fill-rule="evenodd" fill-opacity="1"/>
<polyline clip-path="url(#clip211)" style="stroke:#000000; stroke-linecap:round; stroke-linejoin:round; stroke-width:2; stroke-opacity:0.1; fill:none" points="330.222,1734.12 330.222,127.792 "/>
<polyline clip-path="url(#clip211)" style="stroke:#000000; stroke-linecap:round; stroke-linejoin:round; stroke-width:2; stroke-opacity:0.1; fill:none" points="892.975,1734.12 892.975,127.792 "/>
<polyline clip-path="url(#clip211)" style="stroke:#000000; stroke-linecap:round; stroke-linejoin:round; stroke-width:2; stroke-opacity:0.1; fill:none" points="1455.73,1734.12 1455.73,127.792 "/>
<polyline clip-path="url(#clip211)" style="stroke:#000000; stroke-linecap:round; stroke-linejoin:round; stroke-width:2; stroke-opacity:0.1; fill:none" points="2018.48,1734.12 2018.48,127.792 "/>
<polyline clip-path="url(#clip211)" style="stroke:#000000; stroke-linecap:round; stroke-linejoin:round; stroke-width:2; stroke-opacity:0.1; fill:none" points="2581.23,1734.12 2581.23,127.792 "/>
<polyline clip-path="url(#clip211)" style="stroke:#000000; stroke-linecap:round; stroke-linejoin:round; stroke-width:2; stroke-opacity:0.1; fill:none" points="263.478,1639.9 2640.76,1639.9 "/>
<polyline clip-path="url(#clip211)" style="stroke:#000000; stroke-linecap:round; stroke-linejoin:round; stroke-width:2; stroke-opacity:0.1; fill:none" points="263.478,1253.02 2640.76,1253.02 "/>
<polyline clip-path="url(#clip211)" style="stroke:#000000; stroke-linecap:round; stroke-linejoin:round; stroke-width:2; stroke-opacity:0.1; fill:none" points="263.478,866.141 2640.76,866.141 "/>
<polyline clip-path="url(#clip211)" style="stroke:#000000; stroke-linecap:round; stroke-linejoin:round; stroke-width:2; stroke-opacity:0.1; fill:none" points="263.478,479.261 2640.76,479.261 "/>
<polyline clip-path="url(#clip210)" style="stroke:#000000; stroke-linecap:round; stroke-linejoin:round; stroke-width:4; stroke-opacity:1; fill:none" points="263.478,1734.12 2640.76,1734.12 "/>
<polyline clip-path="url(#clip210)" style="stroke:#000000; stroke-linecap:round; stroke-linejoin:round; stroke-width:4; stroke-opacity:1; fill:none" points="330.222,1734.12 330.222,1715.22 "/>
<polyline clip-path="url(#clip210)" style="stroke:#000000; stroke-linecap:round; stroke-linejoin:round; stroke-width:4; stroke-opacity:1; fill:none" points="892.975,1734.12 892.975,1715.22 "/>
<polyline clip-path="url(#clip210)" style="stroke:#000000; stroke-linecap:round; stroke-linejoin:round; stroke-width:4; stroke-opacity:1; fill:none" points="1455.73,1734.12 1455.73,1715.22 "/>
<polyline clip-path="url(#clip210)" style="stroke:#000000; stroke-linecap:round; stroke-linejoin:round; stroke-width:4; stroke-opacity:1; fill:none" points="2018.48,1734.12 2018.48,1715.22 "/>
<polyline clip-path="url(#clip210)" style="stroke:#000000; stroke-linecap:round; stroke-linejoin:round; stroke-width:4; stroke-opacity:1; fill:none" points="2581.23,1734.12 2581.23,1715.22 "/>
<path clip-path="url(#clip210)" d="M292.525 1767.34 Q288.914 1767.34 287.086 1770.9 Q285.28 1774.45 285.28 1781.58 Q285.28 1788.68 287.086 1792.25 Q288.914 1795.79 292.525 1795.79 Q296.16 1795.79 297.965 1792.25 Q299.794 1788.68 299.794 1781.58 Q299.794 1774.45 297.965 1770.9 Q296.16 1767.34 292.525 1767.34 M292.525 1763.64 Q298.336 1763.64 301.391 1768.24 Q304.47 1772.83 304.47 1781.58 Q304.47 1790.3 301.391 1794.91 Q298.336 1799.49 292.525 1799.49 Q286.715 1799.49 283.637 1794.91 Q280.581 1790.3 280.581 1781.58 Q280.581 1772.83 283.637 1768.24 Q286.715 1763.64 292.525 1763.64 Z" fill="#000000" fill-rule="nonzero" fill-opacity="1" /><path clip-path="url(#clip210)" d="M312.687 1792.94 L317.572 1792.94 L317.572 1798.82 L312.687 1798.82 L312.687 1792.94 Z" fill="#000000" fill-rule="nonzero" fill-opacity="1" /><path clip-path="url(#clip210)" d="M337.757 1767.34 Q334.146 1767.34 332.317 1770.9 Q330.511 1774.45 330.511 1781.58 Q330.511 1788.68 332.317 1792.25 Q334.146 1795.79 337.757 1795.79 Q341.391 1795.79 343.196 1792.25 Q345.025 1788.68 345.025 1781.58 Q345.025 1774.45 343.196 1770.9 Q341.391 1767.34 337.757 1767.34 M337.757 1763.64 Q343.567 1763.64 346.622 1768.24 Q349.701 1772.83 349.701 1781.58 Q349.701 1790.3 346.622 1794.91 Q343.567 1799.49 337.757 1799.49 Q331.947 1799.49 328.868 1794.91 Q325.812 1790.3 325.812 1781.58 Q325.812 1772.83 328.868 1768.24 Q331.947 1763.64 337.757 1763.64 Z" fill="#000000" fill-rule="nonzero" fill-opacity="1" /><path clip-path="url(#clip210)" d="M367.919 1767.34 Q364.307 1767.34 362.479 1770.9 Q360.673 1774.45 360.673 1781.58 Q360.673 1788.68 362.479 1792.25 Q364.307 1795.79 367.919 1795.79 Q371.553 1795.79 373.358 1792.25 Q375.187 1788.68 375.187 1781.58 Q375.187 1774.45 373.358 1770.9 Q371.553 1767.34 367.919 1767.34 M367.919 1763.64 Q373.729 1763.64 376.784 1768.24 Q379.863 1772.83 379.863 1781.58 Q379.863 1790.3 376.784 1794.91 Q373.729 1799.49 367.919 1799.49 Q362.108 1799.49 359.03 1794.91 Q355.974 1790.3 355.974 1781.58 Q355.974 1772.83 359.03 1768.24 Q362.108 1763.64 367.919 1763.64 Z" fill="#000000" fill-rule="nonzero" fill-opacity="1" /><path clip-path="url(#clip210)" d="M855.776 1767.34 Q852.165 1767.34 850.336 1770.9 Q848.531 1774.45 848.531 1781.58 Q848.531 1788.68 850.336 1792.25 Q852.165 1795.79 855.776 1795.79 Q859.41 1795.79 861.216 1792.25 Q863.045 1788.68 863.045 1781.58 Q863.045 1774.45 861.216 1770.9 Q859.41 1767.34 855.776 1767.34 M855.776 1763.64 Q861.586 1763.64 864.642 1768.24 Q867.721 1772.83 867.721 1781.58 Q867.721 1790.3 864.642 1794.91 Q861.586 1799.49 855.776 1799.49 Q849.966 1799.49 846.887 1794.91 Q843.832 1790.3 843.832 1781.58 Q843.832 1772.83 846.887 1768.24 Q849.966 1763.64 855.776 1763.64 Z" fill="#000000" fill-rule="nonzero" fill-opacity="1" /><path clip-path="url(#clip210)" d="M875.938 1792.94 L880.822 1792.94 L880.822 1798.82 L875.938 1798.82 L875.938 1792.94 Z" fill="#000000" fill-rule="nonzero" fill-opacity="1" /><path clip-path="url(#clip210)" d="M895.035 1794.89 L911.355 1794.89 L911.355 1798.82 L889.41 1798.82 L889.41 1794.89 Q892.072 1792.13 896.656 1787.5 Q901.262 1782.85 902.443 1781.51 Q904.688 1778.98 905.568 1777.25 Q906.47 1775.49 906.47 1773.8 Q906.47 1771.04 904.526 1769.31 Q902.605 1767.57 899.503 1767.57 Q897.304 1767.57 894.85 1768.34 Q892.42 1769.1 889.642 1770.65 L889.642 1765.93 Q892.466 1764.79 894.92 1764.21 Q897.373 1763.64 899.41 1763.64 Q904.781 1763.64 907.975 1766.32 Q911.169 1769.01 911.169 1773.5 Q911.169 1775.63 910.359 1777.55 Q909.572 1779.45 907.466 1782.04 Q906.887 1782.71 903.785 1785.93 Q900.683 1789.12 895.035 1794.89 Z" fill="#000000" fill-rule="nonzero" fill-opacity="1" /><path clip-path="url(#clip210)" d="M921.216 1764.26 L939.572 1764.26 L939.572 1768.2 L925.498 1768.2 L925.498 1776.67 Q926.517 1776.32 927.535 1776.16 Q928.554 1775.97 929.572 1775.97 Q935.359 1775.97 938.739 1779.15 Q942.118 1782.32 942.118 1787.73 Q942.118 1793.31 938.646 1796.41 Q935.174 1799.49 928.855 1799.49 Q926.679 1799.49 924.41 1799.12 Q922.165 1798.75 919.757 1798.01 L919.757 1793.31 Q921.841 1794.45 924.063 1795 Q926.285 1795.56 928.762 1795.56 Q932.767 1795.56 935.105 1793.45 Q937.442 1791.34 937.442 1787.73 Q937.442 1784.12 935.105 1782.02 Q932.767 1779.91 928.762 1779.91 Q926.887 1779.91 925.012 1780.33 Q923.16 1780.74 921.216 1781.62 L921.216 1764.26 Z" fill="#000000" fill-rule="nonzero" fill-opacity="1" /><path clip-path="url(#clip210)" d="M1418.03 1767.34 Q1414.42 1767.34 1412.59 1770.9 Q1410.79 1774.45 1410.79 1781.58 Q1410.79 1788.68 1412.59 1792.25 Q1414.42 1795.79 1418.03 1795.79 Q1421.67 1795.79 1423.47 1792.25 Q1425.3 1788.68 1425.3 1781.58 Q1425.3 1774.45 1423.47 1770.9 Q1421.67 1767.34 1418.03 1767.34 M1418.03 1763.64 Q1423.84 1763.64 1426.9 1768.24 Q1429.98 1772.83 1429.98 1781.58 Q1429.98 1790.3 1426.9 1794.91 Q1423.84 1799.49 1418.03 1799.49 Q1412.22 1799.49 1409.14 1794.91 Q1406.09 1790.3 1406.09 1781.58 Q1406.09 1772.83 1409.14 1768.24 Q1412.22 1763.64 1418.03 1763.64 Z" fill="#000000" fill-rule="nonzero" fill-opacity="1" /><path clip-path="url(#clip210)" d="M1438.19 1792.94 L1443.08 1792.94 L1443.08 1798.82 L1438.19 1798.82 L1438.19 1792.94 Z" fill="#000000" fill-rule="nonzero" fill-opacity="1" /><path clip-path="url(#clip210)" d="M1453.31 1764.26 L1471.67 1764.26 L1471.67 1768.2 L1457.59 1768.2 L1457.59 1776.67 Q1458.61 1776.32 1459.63 1776.16 Q1460.65 1775.97 1461.67 1775.97 Q1467.45 1775.97 1470.83 1779.15 Q1474.21 1782.32 1474.21 1787.73 Q1474.21 1793.31 1470.74 1796.41 Q1467.27 1799.49 1460.95 1799.49 Q1458.77 1799.49 1456.5 1799.12 Q1454.26 1798.75 1451.85 1798.01 L1451.85 1793.31 Q1453.93 1794.45 1456.16 1795 Q1458.38 1795.56 1460.86 1795.56 Q1464.86 1795.56 1467.2 1793.45 Q1469.54 1791.34 1469.54 1787.73 Q1469.54 1784.12 1467.2 1782.02 Q1464.86 1779.91 1460.86 1779.91 Q1458.98 1779.91 1457.11 1780.33 Q1455.25 1780.74 1453.31 1781.62 L1453.31 1764.26 Z" fill="#000000" fill-rule="nonzero" fill-opacity="1" /><path clip-path="url(#clip210)" d="M1493.42 1767.34 Q1489.81 1767.34 1487.98 1770.9 Q1486.18 1774.45 1486.18 1781.58 Q1486.18 1788.68 1487.98 1792.25 Q1489.81 1795.79 1493.42 1795.79 Q1497.06 1795.79 1498.86 1792.25 Q1500.69 1788.68 1500.69 1781.58 Q1500.69 1774.45 1498.86 1770.9 Q1497.06 1767.34 1493.42 1767.34 M1493.42 1763.64 Q1499.23 1763.64 1502.29 1768.24 Q1505.37 1772.83 1505.37 1781.58 Q1505.37 1790.3 1502.29 1794.91 Q1499.23 1799.49 1493.42 1799.49 Q1487.61 1799.49 1484.54 1794.91 Q1481.48 1790.3 1481.48 1781.58 Q1481.48 1772.83 1484.54 1768.24 Q1487.61 1763.64 1493.42 1763.64 Z" fill="#000000" fill-rule="nonzero" fill-opacity="1" /><path clip-path="url(#clip210)" d="M1981.28 1767.34 Q1977.67 1767.34 1975.84 1770.9 Q1974.04 1774.45 1974.04 1781.58 Q1974.04 1788.68 1975.84 1792.25 Q1977.67 1795.79 1981.28 1795.79 Q1984.92 1795.79 1986.72 1792.25 Q1988.55 1788.68 1988.55 1781.58 Q1988.55 1774.45 1986.72 1770.9 Q1984.92 1767.34 1981.28 1767.34 M1981.28 1763.64 Q1987.09 1763.64 1990.15 1768.24 Q1993.23 1772.83 1993.23 1781.58 Q1993.23 1790.3 1990.15 1794.91 Q1987.09 1799.49 1981.28 1799.49 Q1975.47 1799.49 1972.39 1794.91 Q1969.34 1790.3 1969.34 1781.58 Q1969.34 1772.83 1972.39 1768.24 Q1975.47 1763.64 1981.28 1763.64 Z" fill="#000000" fill-rule="nonzero" fill-opacity="1" /><path clip-path="url(#clip210)" d="M2001.44 1792.94 L2006.33 1792.94 L2006.33 1798.82 L2001.44 1798.82 L2001.44 1792.94 Z" fill="#000000" fill-rule="nonzero" fill-opacity="1" /><path clip-path="url(#clip210)" d="M2015.33 1764.26 L2037.56 1764.26 L2037.56 1766.25 L2025.01 1798.82 L2020.12 1798.82 L2031.93 1768.2 L2015.33 1768.2 L2015.33 1764.26 Z" fill="#000000" fill-rule="nonzero" fill-opacity="1" /><path clip-path="url(#clip210)" d="M2046.72 1764.26 L2065.08 1764.26 L2065.08 1768.2 L2051 1768.2 L2051 1776.67 Q2052.02 1776.32 2053.04 1776.16 Q2054.06 1775.97 2055.08 1775.97 Q2060.87 1775.97 2064.24 1779.15 Q2067.62 1782.32 2067.62 1787.73 Q2067.62 1793.31 2064.15 1796.41 Q2060.68 1799.49 2054.36 1799.49 Q2052.18 1799.49 2049.92 1799.12 Q2047.67 1798.75 2045.26 1798.01 L2045.26 1793.31 Q2047.35 1794.45 2049.57 1795 Q2051.79 1795.56 2054.27 1795.56 Q2058.27 1795.56 2060.61 1793.45 Q2062.95 1791.34 2062.95 1787.73 Q2062.95 1784.12 2060.61 1782.02 Q2058.27 1779.91 2054.27 1779.91 Q2052.39 1779.91 2050.52 1780.33 Q2048.67 1780.74 2046.72 1781.62 L2046.72 1764.26 Z" fill="#000000" fill-rule="nonzero" fill-opacity="1" /><path clip-path="url(#clip210)" d="M2533.31 1794.89 L2540.95 1794.89 L2540.95 1768.52 L2532.64 1770.19 L2532.64 1765.93 L2540.9 1764.26 L2545.57 1764.26 L2545.57 1794.89 L2553.21 1794.89 L2553.21 1798.82 L2533.31 1798.82 L2533.31 1794.89 Z" fill="#000000" fill-rule="nonzero" fill-opacity="1" /><path clip-path="url(#clip210)" d="M2562.66 1792.94 L2567.54 1792.94 L2567.54 1798.82 L2562.66 1798.82 L2562.66 1792.94 Z" fill="#000000" fill-rule="nonzero" fill-opacity="1" /><path clip-path="url(#clip210)" d="M2587.73 1767.34 Q2584.12 1767.34 2582.29 1770.9 Q2580.48 1774.45 2580.48 1781.58 Q2580.48 1788.68 2582.29 1792.25 Q2584.12 1795.79 2587.73 1795.79 Q2591.36 1795.79 2593.17 1792.25 Q2595 1788.68 2595 1781.58 Q2595 1774.45 2593.17 1770.9 Q2591.36 1767.34 2587.73 1767.34 M2587.73 1763.64 Q2593.54 1763.64 2596.59 1768.24 Q2599.67 1772.83 2599.67 1781.58 Q2599.67 1790.3 2596.59 1794.91 Q2593.54 1799.49 2587.73 1799.49 Q2581.92 1799.49 2578.84 1794.91 Q2575.78 1790.3 2575.78 1781.58 Q2575.78 1772.83 2578.84 1768.24 Q2581.92 1763.64 2587.73 1763.64 Z" fill="#000000" fill-rule="nonzero" fill-opacity="1" /><path clip-path="url(#clip210)" d="M2617.89 1767.34 Q2614.28 1767.34 2612.45 1770.9 Q2610.64 1774.45 2610.64 1781.58 Q2610.64 1788.68 2612.45 1792.25 Q2614.28 1795.79 2617.89 1795.79 Q2621.52 1795.79 2623.33 1792.25 Q2625.16 1788.68 2625.16 1781.58 Q2625.16 1774.45 2623.33 1770.9 Q2621.52 1767.34 2617.89 1767.34 M2617.89 1763.64 Q2623.7 1763.64 2626.76 1768.24 Q2629.83 1772.83 2629.83 1781.58 Q2629.83 1790.3 2626.76 1794.91 Q2623.7 1799.49 2617.89 1799.49 Q2612.08 1799.49 2609 1794.91 Q2605.94 1790.3 2605.94 1781.58 Q2605.94 1772.83 2609 1768.24 Q2612.08 1763.64 2617.89 1763.64 Z" fill="#000000" fill-rule="nonzero" fill-opacity="1" /><path clip-path="url(#clip210)" d="M1468.73 1847.65 L1455.84 1865 L1469.4 1883.3 L1462.49 1883.3 L1452.12 1869.3 L1441.74 1883.3 L1434.83 1883.3 L1448.68 1864.65 L1436.01 1847.65 L1442.92 1847.65 L1452.37 1860.35 L1461.82 1847.65 L1468.73 1847.65 Z" fill="#000000" fill-rule="nonzero" fill-opacity="1" /><polyline clip-path="url(#clip210)" style="stroke:#000000; stroke-linecap:round; stroke-linejoin:round; stroke-width:4; stroke-opacity:1; fill:none" points="263.478,1734.12 263.478,127.792 "/>
<polyline clip-path="url(#clip210)" style="stroke:#000000; stroke-linecap:round; stroke-linejoin:round; stroke-width:4; stroke-opacity:1; fill:none" points="263.478,1639.9 282.376,1639.9 "/>
<polyline clip-path="url(#clip210)" style="stroke:#000000; stroke-linecap:round; stroke-linejoin:round; stroke-width:4; stroke-opacity:1; fill:none" points="263.478,1253.02 282.376,1253.02 "/>
<polyline clip-path="url(#clip210)" style="stroke:#000000; stroke-linecap:round; stroke-linejoin:round; stroke-width:4; stroke-opacity:1; fill:none" points="263.478,866.141 282.376,866.141 "/>
<polyline clip-path="url(#clip210)" style="stroke:#000000; stroke-linecap:round; stroke-linejoin:round; stroke-width:4; stroke-opacity:1; fill:none" points="263.478,479.261 282.376,479.261 "/>
<path clip-path="url(#clip210)" d="M117.21 1640.35 L146.886 1640.35 L146.886 1644.29 L117.21 1644.29 L117.21 1640.35 Z" fill="#000000" fill-rule="nonzero" fill-opacity="1" /><path clip-path="url(#clip210)" d="M155.798 1622.62 L178.02 1622.62 L178.02 1624.61 L165.473 1657.18 L160.589 1657.18 L172.395 1626.56 L155.798 1626.56 L155.798 1622.62 Z" fill="#000000" fill-rule="nonzero" fill-opacity="1" /><path clip-path="url(#clip210)" d="M187.14 1651.3 L192.024 1651.3 L192.024 1657.18 L187.14 1657.18 L187.14 1651.3 Z" fill="#000000" fill-rule="nonzero" fill-opacity="1" /><path clip-path="url(#clip210)" d="M202.256 1622.62 L220.612 1622.62 L220.612 1626.56 L206.538 1626.56 L206.538 1635.03 Q207.557 1634.68 208.575 1634.52 Q209.594 1634.33 210.612 1634.33 Q216.399 1634.33 219.779 1637.51 Q223.158 1640.68 223.158 1646.09 Q223.158 1651.67 219.686 1654.77 Q216.214 1657.85 209.894 1657.85 Q207.719 1657.85 205.45 1657.48 Q203.205 1657.11 200.797 1656.37 L200.797 1651.67 Q202.881 1652.81 205.103 1653.36 Q207.325 1653.92 209.802 1653.92 Q213.807 1653.92 216.144 1651.81 Q218.482 1649.7 218.482 1646.09 Q218.482 1642.48 216.144 1640.38 Q213.807 1638.27 209.802 1638.27 Q207.927 1638.27 206.052 1638.69 Q204.2 1639.1 202.256 1639.98 L202.256 1622.62 Z" fill="#000000" fill-rule="nonzero" fill-opacity="1" /><path clip-path="url(#clip210)" d="M116.214 1253.47 L145.89 1253.47 L145.89 1257.41 L116.214 1257.41 L116.214 1253.47 Z" fill="#000000" fill-rule="nonzero" fill-opacity="1" /><path clip-path="url(#clip210)" d="M156.029 1235.74 L174.385 1235.74 L174.385 1239.68 L160.311 1239.68 L160.311 1248.15 Q161.33 1247.8 162.348 1247.64 Q163.367 1247.45 164.385 1247.45 Q170.172 1247.45 173.552 1250.63 Q176.932 1253.8 176.932 1259.21 Q176.932 1264.79 173.46 1267.89 Q169.987 1270.97 163.668 1270.97 Q161.492 1270.97 159.223 1270.6 Q156.978 1270.23 154.571 1269.49 L154.571 1264.79 Q156.654 1265.93 158.876 1266.48 Q161.098 1267.04 163.575 1267.04 Q167.58 1267.04 169.918 1264.93 Q172.256 1262.82 172.256 1259.21 Q172.256 1255.6 169.918 1253.5 Q167.58 1251.39 163.575 1251.39 Q161.7 1251.39 159.825 1251.81 Q157.973 1252.22 156.029 1253.1 L156.029 1235.74 Z" fill="#000000" fill-rule="nonzero" fill-opacity="1" /><path clip-path="url(#clip210)" d="M186.145 1264.42 L191.029 1264.42 L191.029 1270.3 L186.145 1270.3 L186.145 1264.42 Z" fill="#000000" fill-rule="nonzero" fill-opacity="1" /><path clip-path="url(#clip210)" d="M211.214 1238.82 Q207.603 1238.82 205.774 1242.38 Q203.969 1245.93 203.969 1253.06 Q203.969 1260.16 205.774 1263.73 Q207.603 1267.27 211.214 1267.27 Q214.848 1267.27 216.654 1263.73 Q218.482 1260.16 218.482 1253.06 Q218.482 1245.93 216.654 1242.38 Q214.848 1238.82 211.214 1238.82 M211.214 1235.12 Q217.024 1235.12 220.08 1239.72 Q223.158 1244.31 223.158 1253.06 Q223.158 1261.78 220.08 1266.39 Q217.024 1270.97 211.214 1270.97 Q205.404 1270.97 202.325 1266.39 Q199.27 1261.78 199.27 1253.06 Q199.27 1244.31 202.325 1239.72 Q205.404 1235.12 211.214 1235.12 Z" fill="#000000" fill-rule="nonzero" fill-opacity="1" /><path clip-path="url(#clip210)" d="M117.21 866.593 L146.886 866.593 L146.886 870.528 L117.21 870.528 L117.21 866.593 Z" fill="#000000" fill-rule="nonzero" fill-opacity="1" /><path clip-path="url(#clip210)" d="M161.006 879.486 L177.325 879.486 L177.325 883.421 L155.381 883.421 L155.381 879.486 Q158.043 876.732 162.626 872.102 Q167.233 867.449 168.413 866.107 Q170.659 863.583 171.538 861.847 Q172.441 860.088 172.441 858.398 Q172.441 855.644 170.497 853.908 Q168.575 852.171 165.473 852.171 Q163.274 852.171 160.821 852.935 Q158.39 853.699 155.612 855.25 L155.612 850.528 Q158.436 849.394 160.89 848.815 Q163.344 848.236 165.381 848.236 Q170.751 848.236 173.946 850.921 Q177.14 853.607 177.14 858.097 Q177.14 860.227 176.33 862.148 Q175.543 864.046 173.436 866.639 Q172.858 867.31 169.756 870.528 Q166.654 873.722 161.006 879.486 Z" fill="#000000" fill-rule="nonzero" fill-opacity="1" /><path clip-path="url(#clip210)" d="M187.14 877.542 L192.024 877.542 L192.024 883.421 L187.14 883.421 L187.14 877.542 Z" fill="#000000" fill-rule="nonzero" fill-opacity="1" /><path clip-path="url(#clip210)" d="M202.256 848.861 L220.612 848.861 L220.612 852.796 L206.538 852.796 L206.538 861.269 Q207.557 860.921 208.575 860.759 Q209.594 860.574 210.612 860.574 Q216.399 860.574 219.779 863.745 Q223.158 866.917 223.158 872.333 Q223.158 877.912 219.686 881.014 Q216.214 884.093 209.894 884.093 Q207.719 884.093 205.45 883.722 Q203.205 883.352 200.797 882.611 L200.797 877.912 Q202.881 879.046 205.103 879.602 Q207.325 880.157 209.802 880.157 Q213.807 880.157 216.144 878.051 Q218.482 875.944 218.482 872.333 Q218.482 868.722 216.144 866.616 Q213.807 864.509 209.802 864.509 Q207.927 864.509 206.052 864.926 Q204.2 865.343 202.256 866.222 L202.256 848.861 Z" fill="#000000" fill-rule="nonzero" fill-opacity="1" /><path clip-path="url(#clip210)" d="M165.983 465.06 Q162.372 465.06 160.543 468.625 Q158.737 472.167 158.737 479.296 Q158.737 486.403 160.543 489.967 Q162.372 493.509 165.983 493.509 Q169.617 493.509 171.422 489.967 Q173.251 486.403 173.251 479.296 Q173.251 472.167 171.422 468.625 Q169.617 465.06 165.983 465.06 M165.983 461.356 Q171.793 461.356 174.848 465.963 Q177.927 470.546 177.927 479.296 Q177.927 488.023 174.848 492.629 Q171.793 497.213 165.983 497.213 Q160.173 497.213 157.094 492.629 Q154.038 488.023 154.038 479.296 Q154.038 470.546 157.094 465.963 Q160.173 461.356 165.983 461.356 Z" fill="#000000" fill-rule="nonzero" fill-opacity="1" /><path clip-path="url(#clip210)" d="M186.145 490.662 L191.029 490.662 L191.029 496.541 L186.145 496.541 L186.145 490.662 Z" fill="#000000" fill-rule="nonzero" fill-opacity="1" /><path clip-path="url(#clip210)" d="M211.214 465.06 Q207.603 465.06 205.774 468.625 Q203.969 472.167 203.969 479.296 Q203.969 486.403 205.774 489.967 Q207.603 493.509 211.214 493.509 Q214.848 493.509 216.654 489.967 Q218.482 486.403 218.482 479.296 Q218.482 472.167 216.654 468.625 Q214.848 465.06 211.214 465.06 M211.214 461.356 Q217.024 461.356 220.08 465.963 Q223.158 470.546 223.158 479.296 Q223.158 488.023 220.08 492.629 Q217.024 497.213 211.214 497.213 Q205.404 497.213 202.325 492.629 Q199.27 488.023 199.27 479.296 Q199.27 470.546 202.325 465.963 Q205.404 461.356 211.214 461.356 Z" fill="#000000" fill-rule="nonzero" fill-opacity="1" /><path clip-path="url(#clip210)" d="M12.1132 960.905 L16.983 960.905 L16.983 966.507 Q16.983 969.658 18.2562 970.899 Q19.5293 972.109 22.8395 972.109 L25.9905 972.109 L25.9905 962.465 L30.542 962.465 L30.542 972.109 L61.6384 972.109 L61.6384 977.997 L30.542 977.997 L30.542 983.599 L25.9905 983.599 L25.9905 977.997 L23.5079 977.997 Q17.5559 977.997 14.8505 975.228 Q12.1132 972.459 12.1132 966.443 L12.1132 960.905 Z" fill="#000000" fill-rule="nonzero" fill-opacity="1" /><path clip-path="url(#clip210)" d="M12.1769 941.935 Q19.4975 946.2 26.6589 948.269 Q33.8203 950.338 41.1727 950.338 Q48.5251 950.338 55.7502 948.269 Q62.9434 946.169 70.2321 941.935 L70.2321 947.028 Q62.7524 951.802 55.5274 954.189 Q48.3023 956.545 41.1727 956.545 Q34.0749 956.545 26.8817 954.189 Q19.6884 951.834 12.1769 947.028 L12.1769 941.935 Z" fill="#000000" fill-rule="nonzero" fill-opacity="1" /><path clip-path="url(#clip210)" d="M25.9905 900.94 L43.337 913.831 L61.6384 900.272 L61.6384 907.179 L47.6339 917.555 L61.6384 927.931 L61.6384 934.838 L42.9869 920.992 L25.9905 933.66 L25.9905 926.753 L38.6901 917.3 L25.9905 907.847 L25.9905 900.94 Z" fill="#000000" fill-rule="nonzero" fill-opacity="1" /><path clip-path="url(#clip210)" d="M12.1769 892.919 L12.1769 887.827 Q19.6884 883.053 26.8817 880.697 Q34.0749 878.31 41.1727 878.31 Q48.3023 878.31 55.5274 880.697 Q62.7524 883.053 70.2321 887.827 L70.2321 892.919 Q62.9434 888.686 55.7502 886.617 Q48.5251 884.517 41.1727 884.517 Q33.8203 884.517 26.6589 886.617 Q19.4975 888.686 12.1769 892.919 Z" fill="#000000" fill-rule="nonzero" fill-opacity="1" /><path clip-path="url(#clip210)" d="M829.007 14.0809 L829.007 22.0612 Q824.348 19.8332 820.217 18.7395 Q816.085 17.6457 812.236 17.6457 Q805.552 17.6457 801.906 20.2383 Q798.301 22.8309 798.301 27.611 Q798.301 31.6214 800.691 33.6873 Q803.122 35.7128 809.846 36.9686 L814.788 37.9813 Q823.943 39.7232 828.278 44.1387 Q832.653 48.5136 832.653 55.8863 Q832.653 64.6767 826.739 69.2137 Q820.865 73.7508 809.482 73.7508 Q805.188 73.7508 800.327 72.7785 Q795.506 71.8063 790.321 69.9024 L790.321 61.4765 Q795.303 64.2716 800.084 65.6895 Q804.864 67.1073 809.482 67.1073 Q816.49 67.1073 820.298 64.3527 Q824.105 61.598 824.105 56.4939 Q824.105 52.0379 821.351 49.5264 Q818.637 47.0148 812.398 45.759 L807.416 44.7868 Q798.261 42.9639 794.169 39.075 Q790.078 35.1862 790.078 28.2591 Q790.078 20.2383 795.709 15.6203 Q801.38 11.0023 811.305 11.0023 Q815.558 11.0023 819.974 11.7719 Q824.389 12.5416 829.007 14.0809 Z" fill="#000000" fill-rule="nonzero" fill-opacity="1" /><path clip-path="url(#clip210)" d="M880.413 35.9153 Q883.208 30.8922 887.097 28.5022 Q890.986 26.1121 896.252 26.1121 Q903.341 26.1121 907.189 31.0947 Q911.038 36.0368 911.038 45.1919 L911.038 72.576 L903.544 72.576 L903.544 45.4349 Q903.544 38.913 901.235 35.7533 Q898.926 32.5936 894.186 32.5936 Q888.393 32.5936 885.031 36.4419 Q881.669 40.2903 881.669 46.9338 L881.669 72.576 L874.175 72.576 L874.175 45.4349 Q874.175 38.8725 871.866 35.7533 Q869.557 32.5936 864.736 32.5936 Q859.024 32.5936 855.662 36.4824 Q852.3 40.3308 852.3 46.9338 L852.3 72.576 L844.806 72.576 L844.806 27.2059 L852.3 27.2059 L852.3 34.2544 Q854.852 30.082 858.417 28.0971 Q861.981 26.1121 866.883 26.1121 Q871.825 26.1121 875.268 28.6237 Q878.752 31.1352 880.413 35.9153 Z" fill="#000000" fill-rule="nonzero" fill-opacity="1" /><path clip-path="url(#clip210)" d="M943.486 32.4315 Q937.49 32.4315 934.006 37.1306 Q930.523 41.7891 930.523 49.9314 Q930.523 58.0738 933.966 62.7728 Q937.45 67.4314 943.486 67.4314 Q949.44 67.4314 952.924 62.7323 Q956.408 58.0333 956.408 49.9314 Q956.408 41.8701 952.924 37.1711 Q949.44 32.4315 943.486 32.4315 M943.486 26.1121 Q953.208 26.1121 958.757 32.4315 Q964.307 38.7509 964.307 49.9314 Q964.307 61.0714 958.757 67.4314 Q953.208 73.7508 943.486 73.7508 Q933.723 73.7508 928.173 67.4314 Q922.664 61.0714 922.664 49.9314 Q922.664 38.7509 928.173 32.4315 Q933.723 26.1121 943.486 26.1121 Z" fill="#000000" fill-rule="nonzero" fill-opacity="1" /><path clip-path="url(#clip210)" d="M994.243 32.4315 Q988.248 32.4315 984.764 37.1306 Q981.281 41.7891 981.281 49.9314 Q981.281 58.0738 984.724 62.7728 Q988.208 67.4314 994.243 67.4314 Q1000.2 67.4314 1003.68 62.7323 Q1007.17 58.0333 1007.17 49.9314 Q1007.17 41.8701 1003.68 37.1711 Q1000.2 32.4315 994.243 32.4315 M994.243 26.1121 Q1003.97 26.1121 1009.52 32.4315 Q1015.07 38.7509 1015.07 49.9314 Q1015.07 61.0714 1009.52 67.4314 Q1003.97 73.7508 994.243 73.7508 Q984.481 73.7508 978.931 67.4314 Q973.422 61.0714 973.422 49.9314 Q973.422 38.7509 978.931 32.4315 Q984.481 26.1121 994.243 26.1121 Z" fill="#000000" fill-rule="nonzero" fill-opacity="1" /><path clip-path="url(#clip210)" d="M1034.79 14.324 L1034.79 27.2059 L1050.15 27.2059 L1050.15 32.9987 L1034.79 32.9987 L1034.79 57.6282 Q1034.79 63.1779 1036.29 64.7578 Q1037.83 66.3376 1042.49 66.3376 L1050.15 66.3376 L1050.15 72.576 L1042.49 72.576 Q1033.86 72.576 1030.58 69.3758 Q1027.3 66.1351 1027.3 57.6282 L1027.3 32.9987 L1021.83 32.9987 L1021.83 27.2059 L1027.3 27.2059 L1027.3 14.324 L1034.79 14.324 Z" fill="#000000" fill-rule="nonzero" fill-opacity="1" /><path clip-path="url(#clip210)" d="M1097.66 45.1919 L1097.66 72.576 L1090.21 72.576 L1090.21 45.4349 Q1090.21 38.994 1087.7 35.7938 Q1085.19 32.5936 1080.16 32.5936 Q1074.13 32.5936 1070.64 36.4419 Q1067.16 40.2903 1067.16 46.9338 L1067.16 72.576 L1059.67 72.576 L1059.67 9.54393 L1067.16 9.54393 L1067.16 34.2544 Q1069.83 30.163 1073.44 28.1376 Q1077.08 26.1121 1081.82 26.1121 Q1089.64 26.1121 1093.65 30.9732 Q1097.66 35.7938 1097.66 45.1919 Z" fill="#000000" fill-rule="nonzero" fill-opacity="1" /><path clip-path="url(#clip210)" d="M1177.71 48.0275 L1177.71 51.6733 L1143.44 51.6733 Q1143.92 59.3701 1148.06 63.421 Q1152.23 67.4314 1159.64 67.4314 Q1163.94 67.4314 1167.95 66.3781 Q1172 65.3249 1175.97 63.2184 L1175.97 70.267 Q1171.96 71.9684 1167.74 72.8596 Q1163.53 73.7508 1159.2 73.7508 Q1148.34 73.7508 1141.98 67.4314 Q1135.66 61.1119 1135.66 50.3365 Q1135.66 39.1965 1141.66 32.6746 Q1147.69 26.1121 1157.9 26.1121 Q1167.05 26.1121 1172.36 32.0264 Q1177.71 37.9003 1177.71 48.0275 M1170.26 45.84 Q1170.17 39.7232 1166.81 36.0774 Q1163.49 32.4315 1157.98 32.4315 Q1151.74 32.4315 1147.98 35.9558 Q1144.25 39.4801 1143.68 45.8805 L1170.26 45.84 Z" fill="#000000" fill-rule="nonzero" fill-opacity="1" /><path clip-path="url(#clip210)" d="M1218.87 28.5427 L1218.87 35.5912 Q1215.71 33.9709 1212.3 33.1607 Q1208.9 32.3505 1205.26 32.3505 Q1199.71 32.3505 1196.91 34.0519 Q1194.16 35.7533 1194.16 39.156 Q1194.16 41.7486 1196.14 43.2475 Q1198.13 44.7058 1204.12 46.0426 L1206.67 46.6097 Q1214.61 48.3111 1217.93 51.4303 Q1221.3 54.509 1221.3 60.0587 Q1221.3 66.3781 1216.27 70.0644 Q1211.29 73.7508 1202.54 73.7508 Q1198.9 73.7508 1194.93 73.0216 Q1191 72.3329 1186.62 70.9151 L1186.62 63.2184 Q1190.75 65.3654 1194.76 66.4591 Q1198.77 67.5124 1202.7 67.5124 Q1207.97 67.5124 1210.8 65.73 Q1213.64 63.9071 1213.64 60.6258 Q1213.64 57.5877 1211.57 55.9673 Q1209.55 54.3469 1202.62 52.8481 L1200.03 52.2405 Q1193.1 50.7821 1190.02 47.7845 Q1186.94 44.7463 1186.94 39.4801 Q1186.94 33.0797 1191.48 29.5959 Q1196.02 26.1121 1204.36 26.1121 Q1208.5 26.1121 1212.14 26.7198 Q1215.79 27.3274 1218.87 28.5427 Z" fill="#000000" fill-rule="nonzero" fill-opacity="1" /><path clip-path="url(#clip210)" d="M1240.54 14.324 L1240.54 27.2059 L1255.89 27.2059 L1255.89 32.9987 L1240.54 32.9987 L1240.54 57.6282 Q1240.54 63.1779 1242.04 64.7578 Q1243.58 66.3376 1248.24 66.3376 L1255.89 66.3376 L1255.89 72.576 L1248.24 72.576 Q1239.61 72.576 1236.33 69.3758 Q1233.04 66.1351 1233.04 57.6282 L1233.04 32.9987 L1227.58 32.9987 L1227.58 27.2059 L1233.04 27.2059 L1233.04 14.324 L1240.54 14.324 Z" fill="#000000" fill-rule="nonzero" fill-opacity="1" /><path clip-path="url(#clip210)" d="M1265.69 27.2059 L1273.15 27.2059 L1273.15 72.576 L1265.69 72.576 L1265.69 27.2059 M1265.69 9.54393 L1273.15 9.54393 L1273.15 18.9825 L1265.69 18.9825 L1265.69 9.54393 Z" fill="#000000" fill-rule="nonzero" fill-opacity="1" /><path clip-path="url(#clip210)" d="M1324.07 35.9153 Q1326.86 30.8922 1330.75 28.5022 Q1334.64 26.1121 1339.91 26.1121 Q1347 26.1121 1350.84 31.0947 Q1354.69 36.0368 1354.69 45.1919 L1354.69 72.576 L1347.2 72.576 L1347.2 45.4349 Q1347.2 38.913 1344.89 35.7533 Q1342.58 32.5936 1337.84 32.5936 Q1332.05 32.5936 1328.69 36.4419 Q1325.32 40.2903 1325.32 46.9338 L1325.32 72.576 L1317.83 72.576 L1317.83 45.4349 Q1317.83 38.8725 1315.52 35.7533 Q1313.21 32.5936 1308.39 32.5936 Q1302.68 32.5936 1299.32 36.4824 Q1295.95 40.3308 1295.95 46.9338 L1295.95 72.576 L1288.46 72.576 L1288.46 27.2059 L1295.95 27.2059 L1295.95 34.2544 Q1298.51 30.082 1302.07 28.0971 Q1305.64 26.1121 1310.54 26.1121 Q1315.48 26.1121 1318.92 28.6237 Q1322.41 31.1352 1324.07 35.9153 Z" fill="#000000" fill-rule="nonzero" fill-opacity="1" /><path clip-path="url(#clip210)" d="M1390.18 49.7694 Q1381.15 49.7694 1377.66 51.8354 Q1374.18 53.9013 1374.18 58.8839 Q1374.18 62.8538 1376.77 65.2034 Q1379.4 67.5124 1383.9 67.5124 Q1390.1 67.5124 1393.82 63.1374 Q1397.59 58.7219 1397.59 51.4303 L1397.59 49.7694 L1390.18 49.7694 M1405.05 46.6907 L1405.05 72.576 L1397.59 72.576 L1397.59 65.6895 Q1395.04 69.8214 1391.23 71.8063 Q1387.42 73.7508 1381.91 73.7508 Q1374.95 73.7508 1370.82 69.8619 Q1366.72 65.9325 1366.72 59.3701 Q1366.72 51.7138 1371.83 47.825 Q1376.97 43.9361 1387.14 43.9361 L1397.59 43.9361 L1397.59 43.2069 Q1397.59 38.0623 1394.19 35.2672 Q1390.83 32.4315 1384.71 32.4315 Q1380.82 32.4315 1377.13 33.3632 Q1373.45 34.295 1370.05 36.1584 L1370.05 29.2718 Q1374.14 27.692 1377.99 26.9223 Q1381.83 26.1121 1385.48 26.1121 Q1395.32 26.1121 1400.18 31.2163 Q1405.05 36.3204 1405.05 46.6907 Z" fill="#000000" fill-rule="nonzero" fill-opacity="1" /><path clip-path="url(#clip210)" d="M1427.77 14.324 L1427.77 27.2059 L1443.12 27.2059 L1443.12 32.9987 L1427.77 32.9987 L1427.77 57.6282 Q1427.77 63.1779 1429.27 64.7578 Q1430.81 66.3376 1435.47 66.3376 L1443.12 66.3376 L1443.12 72.576 L1435.47 72.576 Q1426.84 72.576 1423.56 69.3758 Q1420.28 66.1351 1420.28 57.6282 L1420.28 32.9987 L1414.81 32.9987 L1414.81 27.2059 L1420.28 27.2059 L1420.28 14.324 L1427.77 14.324 Z" fill="#000000" fill-rule="nonzero" fill-opacity="1" /><path clip-path="url(#clip210)" d="M1491.73 48.0275 L1491.73 51.6733 L1457.46 51.6733 Q1457.95 59.3701 1462.08 63.421 Q1466.25 67.4314 1473.67 67.4314 Q1477.96 67.4314 1481.97 66.3781 Q1486.02 65.3249 1489.99 63.2184 L1489.99 70.267 Q1485.98 71.9684 1481.77 72.8596 Q1477.56 73.7508 1473.22 73.7508 Q1462.37 73.7508 1456.01 67.4314 Q1449.69 61.1119 1449.69 50.3365 Q1449.69 39.1965 1455.68 32.6746 Q1461.72 26.1121 1471.93 26.1121 Q1481.08 26.1121 1486.39 32.0264 Q1491.73 37.9003 1491.73 48.0275 M1484.28 45.84 Q1484.2 39.7232 1480.84 36.0774 Q1477.52 32.4315 1472.01 32.4315 Q1465.77 32.4315 1462 35.9558 Q1458.27 39.4801 1457.71 45.8805 L1484.28 45.84 Z" fill="#000000" fill-rule="nonzero" fill-opacity="1" /><path clip-path="url(#clip210)" d="M1532.89 28.5427 L1532.89 35.5912 Q1529.73 33.9709 1526.33 33.1607 Q1522.93 32.3505 1519.28 32.3505 Q1513.73 32.3505 1510.94 34.0519 Q1508.18 35.7533 1508.18 39.156 Q1508.18 41.7486 1510.17 43.2475 Q1512.15 44.7058 1518.15 46.0426 L1520.7 46.6097 Q1528.64 48.3111 1531.96 51.4303 Q1535.32 54.509 1535.32 60.0587 Q1535.32 66.3781 1530.3 70.0644 Q1525.32 73.7508 1516.57 73.7508 Q1512.92 73.7508 1508.95 73.0216 Q1505.02 72.3329 1500.65 70.9151 L1500.65 63.2184 Q1504.78 65.3654 1508.79 66.4591 Q1512.8 67.5124 1516.73 67.5124 Q1522 67.5124 1524.83 65.73 Q1527.67 63.9071 1527.67 60.6258 Q1527.67 57.5877 1525.6 55.9673 Q1523.58 54.3469 1516.65 52.8481 L1514.06 52.2405 Q1507.13 50.7821 1504.05 47.7845 Q1500.97 44.7463 1500.97 39.4801 Q1500.97 33.0797 1505.51 29.5959 Q1510.05 26.1121 1518.39 26.1121 Q1522.52 26.1121 1526.17 26.7198 Q1529.81 27.3274 1532.89 28.5427 Z" fill="#000000" fill-rule="nonzero" fill-opacity="1" /><path clip-path="url(#clip210)" d="M1606.13 49.9314 Q1606.13 41.7081 1602.73 37.0496 Q1599.37 32.3505 1593.45 32.3505 Q1587.54 32.3505 1584.14 37.0496 Q1580.77 41.7081 1580.77 49.9314 Q1580.77 58.1548 1584.14 62.8538 Q1587.54 67.5124 1593.45 67.5124 Q1599.37 67.5124 1602.73 62.8538 Q1606.13 58.1548 1606.13 49.9314 M1580.77 34.0924 Q1583.12 30.0415 1586.69 28.0971 Q1590.29 26.1121 1595.28 26.1121 Q1603.54 26.1121 1608.68 32.6746 Q1613.87 39.2371 1613.87 49.9314 Q1613.87 60.6258 1608.68 67.1883 Q1603.54 73.7508 1595.28 73.7508 Q1590.29 73.7508 1586.69 71.8063 Q1583.12 69.8214 1580.77 65.7705 L1580.77 72.576 L1573.28 72.576 L1573.28 9.54393 L1580.77 9.54393 L1580.77 34.0924 Z" fill="#000000" fill-rule="nonzero" fill-opacity="1" /><path clip-path="url(#clip210)" d="M1645.1 76.7889 Q1641.94 84.8907 1638.94 87.3618 Q1635.95 89.8329 1630.92 89.8329 L1624.97 89.8329 L1624.97 83.5945 L1629.34 83.5945 Q1632.42 83.5945 1634.12 82.1361 Q1635.83 80.6778 1637.89 75.2496 L1639.23 71.8468 L1620.88 27.2059 L1628.78 27.2059 L1642.96 62.6918 L1657.13 27.2059 L1665.03 27.2059 L1645.1 76.7889 Z" fill="#000000" fill-rule="nonzero" fill-opacity="1" /><path clip-path="url(#clip210)" d="M1734.26 49.9314 Q1734.26 41.7081 1730.86 37.0496 Q1727.5 32.3505 1721.58 32.3505 Q1715.67 32.3505 1712.27 37.0496 Q1708.9 41.7081 1708.9 49.9314 Q1708.9 58.1548 1712.27 62.8538 Q1715.67 67.5124 1721.58 67.5124 Q1727.5 67.5124 1730.86 62.8538 Q1734.26 58.1548 1734.26 49.9314 M1708.9 34.0924 Q1711.25 30.0415 1714.82 28.0971 Q1718.42 26.1121 1723.41 26.1121 Q1731.67 26.1121 1736.81 32.6746 Q1742 39.2371 1742 49.9314 Q1742 60.6258 1736.81 67.1883 Q1731.67 73.7508 1723.41 73.7508 Q1718.42 73.7508 1714.82 71.8063 Q1711.25 69.8214 1708.9 65.7705 L1708.9 72.576 L1701.41 72.576 L1701.41 9.54393 L1708.9 9.54393 L1708.9 34.0924 Z" fill="#000000" fill-rule="nonzero" fill-opacity="1" /><path clip-path="url(#clip210)" d="M1774.97 49.7694 Q1765.94 49.7694 1762.46 51.8354 Q1758.97 53.9013 1758.97 58.8839 Q1758.97 62.8538 1761.57 65.2034 Q1764.2 67.5124 1768.7 67.5124 Q1774.89 67.5124 1778.62 63.1374 Q1782.39 58.7219 1782.39 51.4303 L1782.39 49.7694 L1774.97 49.7694 M1789.84 46.6907 L1789.84 72.576 L1782.39 72.576 L1782.39 65.6895 Q1779.84 69.8214 1776.03 71.8063 Q1772.22 73.7508 1766.71 73.7508 Q1759.74 73.7508 1755.61 69.8619 Q1751.52 65.9325 1751.52 59.3701 Q1751.52 51.7138 1756.62 47.825 Q1761.77 43.9361 1771.94 43.9361 L1782.39 43.9361 L1782.39 43.2069 Q1782.39 38.0623 1778.98 35.2672 Q1775.62 32.4315 1769.51 32.4315 Q1765.62 32.4315 1761.93 33.3632 Q1758.24 34.295 1754.84 36.1584 L1754.84 29.2718 Q1758.93 27.692 1762.78 26.9223 Q1766.63 26.1121 1770.28 26.1121 Q1780.12 26.1121 1784.98 31.2163 Q1789.84 36.3204 1789.84 46.6907 Z" fill="#000000" fill-rule="nonzero" fill-opacity="1" /><path clip-path="url(#clip210)" d="M1834.12 28.5427 L1834.12 35.5912 Q1830.96 33.9709 1827.55 33.1607 Q1824.15 32.3505 1820.51 32.3505 Q1814.96 32.3505 1812.16 34.0519 Q1809.41 35.7533 1809.41 39.156 Q1809.41 41.7486 1811.39 43.2475 Q1813.38 44.7058 1819.37 46.0426 L1821.92 46.6097 Q1829.86 48.3111 1833.19 51.4303 Q1836.55 54.509 1836.55 60.0587 Q1836.55 66.3781 1831.52 70.0644 Q1826.54 73.7508 1817.79 73.7508 Q1814.15 73.7508 1810.18 73.0216 Q1806.25 72.3329 1801.87 70.9151 L1801.87 63.2184 Q1806 65.3654 1810.01 66.4591 Q1814.02 67.5124 1817.95 67.5124 Q1823.22 67.5124 1826.06 65.73 Q1828.89 63.9071 1828.89 60.6258 Q1828.89 57.5877 1826.83 55.9673 Q1824.8 54.3469 1817.87 52.8481 L1815.28 52.2405 Q1808.35 50.7821 1805.27 47.7845 Q1802.2 44.7463 1802.2 39.4801 Q1802.2 33.0797 1806.73 29.5959 Q1811.27 26.1121 1819.62 26.1121 Q1823.75 26.1121 1827.39 26.7198 Q1831.04 27.3274 1834.12 28.5427 Z" fill="#000000" fill-rule="nonzero" fill-opacity="1" /><path clip-path="url(#clip210)" d="M1848.42 27.2059 L1855.87 27.2059 L1855.87 72.576 L1848.42 72.576 L1848.42 27.2059 M1848.42 9.54393 L1855.87 9.54393 L1855.87 18.9825 L1848.42 18.9825 L1848.42 9.54393 Z" fill="#000000" fill-rule="nonzero" fill-opacity="1" /><path clip-path="url(#clip210)" d="M1900.39 28.5427 L1900.39 35.5912 Q1897.23 33.9709 1893.83 33.1607 Q1890.42 32.3505 1886.78 32.3505 Q1881.23 32.3505 1878.43 34.0519 Q1875.68 35.7533 1875.68 39.156 Q1875.68 41.7486 1877.66 43.2475 Q1879.65 44.7058 1885.64 46.0426 L1888.2 46.6097 Q1896.14 48.3111 1899.46 51.4303 Q1902.82 54.509 1902.82 60.0587 Q1902.82 66.3781 1897.8 70.0644 Q1892.81 73.7508 1884.07 73.7508 Q1880.42 73.7508 1876.45 73.0216 Q1872.52 72.3329 1868.14 70.9151 L1868.14 63.2184 Q1872.28 65.3654 1876.29 66.4591 Q1880.3 67.5124 1884.23 67.5124 Q1889.49 67.5124 1892.33 65.73 Q1895.16 63.9071 1895.16 60.6258 Q1895.16 57.5877 1893.1 55.9673 Q1891.07 54.3469 1884.15 52.8481 L1881.55 52.2405 Q1874.63 50.7821 1871.55 47.7845 Q1868.47 44.7463 1868.47 39.4801 Q1868.47 33.0797 1873.01 29.5959 Q1877.54 26.1121 1885.89 26.1121 Q1890.02 26.1121 1893.67 26.7198 Q1897.31 27.3274 1900.39 28.5427 Z" fill="#000000" fill-rule="nonzero" fill-opacity="1" /><path clip-path="url(#clip210)" d="M1948.43 14.324 L1948.43 27.2059 L1963.79 27.2059 L1963.79 32.9987 L1948.43 32.9987 L1948.43 57.6282 Q1948.43 63.1779 1949.93 64.7578 Q1951.47 66.3376 1956.13 66.3376 L1963.79 66.3376 L1963.79 72.576 L1956.13 72.576 Q1947.5 72.576 1944.22 69.3758 Q1940.94 66.1351 1940.94 57.6282 L1940.94 32.9987 L1935.47 32.9987 L1935.47 27.2059 L1940.94 27.2059 L1940.94 14.324 L1948.43 14.324 Z" fill="#000000" fill-rule="nonzero" fill-opacity="1" /><path clip-path="url(#clip210)" d="M1992.47 76.7889 Q1989.31 84.8907 1986.31 87.3618 Q1983.31 89.8329 1978.29 89.8329 L1972.33 89.8329 L1972.33 83.5945 L1976.71 83.5945 Q1979.79 83.5945 1981.49 82.1361 Q1983.19 80.6778 1985.26 75.2496 L1986.59 71.8468 L1968.24 27.2059 L1976.14 27.2059 L1990.32 62.6918 L2004.5 27.2059 L2012.4 27.2059 L1992.47 76.7889 Z" fill="#000000" fill-rule="nonzero" fill-opacity="1" /><path clip-path="url(#clip210)" d="M2029.9 65.7705 L2029.9 89.8329 L2022.4 89.8329 L2022.4 27.2059 L2029.9 27.2059 L2029.9 34.0924 Q2032.25 30.0415 2035.81 28.0971 Q2039.42 26.1121 2044.4 26.1121 Q2052.66 26.1121 2057.81 32.6746 Q2062.99 39.2371 2062.99 49.9314 Q2062.99 60.6258 2057.81 67.1883 Q2052.66 73.7508 2044.4 73.7508 Q2039.42 73.7508 2035.81 71.8063 Q2032.25 69.8214 2029.9 65.7705 M2055.26 49.9314 Q2055.26 41.7081 2051.85 37.0496 Q2048.49 32.3505 2042.58 32.3505 Q2036.66 32.3505 2033.26 37.0496 Q2029.9 41.7081 2029.9 49.9314 Q2029.9 58.1548 2033.26 62.8538 Q2036.66 67.5124 2042.58 67.5124 Q2048.49 67.5124 2051.85 62.8538 Q2055.26 58.1548 2055.26 49.9314 Z" fill="#000000" fill-rule="nonzero" fill-opacity="1" /><path clip-path="url(#clip210)" d="M2114.16 48.0275 L2114.16 51.6733 L2079.89 51.6733 Q2080.37 59.3701 2084.5 63.421 Q2088.68 67.4314 2096.09 67.4314 Q2100.38 67.4314 2104.39 66.3781 Q2108.44 65.3249 2112.41 63.2184 L2112.41 70.267 Q2108.4 71.9684 2104.19 72.8596 Q2099.98 73.7508 2095.64 73.7508 Q2084.79 73.7508 2078.43 67.4314 Q2072.11 61.1119 2072.11 50.3365 Q2072.11 39.1965 2078.1 32.6746 Q2084.14 26.1121 2094.35 26.1121 Q2103.5 26.1121 2108.81 32.0264 Q2114.16 37.9003 2114.16 48.0275 M2106.7 45.84 Q2106.62 39.7232 2103.26 36.0774 Q2099.94 32.4315 2094.43 32.4315 Q2088.19 32.4315 2084.42 35.9558 Q2080.7 39.4801 2080.13 45.8805 L2106.7 45.84 Z" fill="#000000" fill-rule="nonzero" fill-opacity="1" /><polyline clip-path="url(#clip211)" style="stroke:#4682b4; stroke-linecap:round; stroke-linejoin:round; stroke-width:8; stroke-opacity:1; fill:none" points="330.76,1688.65 342.03,1680.88 353.3,1673.1 364.57,1665.32 375.839,1657.55 387.109,1649.77 398.379,1642 409.649,1634.22 420.919,1626.45 432.189,1618.67 443.459,1610.9 454.729,1603.12 465.999,1595.35 477.269,1587.58 488.539,1579.81 499.809,1572.04 511.079,1564.27 522.348,1556.5 533.618,1548.73 544.888,1540.96 556.158,1533.2 567.428,1525.43 578.698,1517.67 589.968,1509.91 601.238,1502.15 612.508,1494.39 623.778,1486.64 635.048,1478.88 646.318,1471.13 657.588,1463.38 668.857,1455.63 680.127,1447.88 691.397,1440.14 702.667,1432.39 713.937,1424.65 725.207,1416.91 736.477,1409.17 747.747,1401.44 759.017,1393.71 770.287,1385.98 781.557,1378.25 792.827,1370.52 804.097,1362.8 815.366,1355.08 826.636,1347.36 837.906,1339.64 849.176,1331.93 860.446,1324.22 871.716,1316.51 882.986,1308.81 894.256,1301.1 905.526,1293.4 916.796,1285.7 928.066,1278.01 939.336,1270.32 950.606,1262.63 961.875,1254.94 973.145,1247.26 984.415,1239.58 995.685,1231.9 1006.96,1224.22 1018.23,1216.55 1029.49,1208.88 1040.76,1201.21 1052.03,1193.55 1063.3,1185.89 1074.57,1178.23 1085.84,1170.58 1097.11,1162.93 1108.38,1155.28 1119.65,1147.63 1130.92,1139.99 1142.19,1132.35 1153.46,1124.72 1164.73,1117.08 1176,1109.45 1187.27,1101.82 1198.54,1094.2 1209.81,1086.58 1221.08,1078.96 1232.35,1071.34 1243.62,1063.73 1254.89,1056.12 1266.16,1048.51 1277.43,1040.9 1288.7,1033.3 1299.97,1025.7 1311.24,1018.1 1322.51,1010.51 1333.78,1002.91 1345.05,995.325 1356.32,987.737 1367.59,980.151 1378.86,972.568 1390.13,964.986 1401.4,957.407 1412.67,949.83 1423.94,942.256 1435.21,934.683 1446.48,927.111 1457.75,919.542 1469.02,911.975 1480.29,904.409 1491.56,896.845 1502.83,889.282 1514.1,881.721 1525.37,874.161 1536.64,866.603 1547.91,859.046 1559.18,851.491 1570.45,843.936 1581.72,836.383 1592.99,828.831 1604.26,821.28 1615.53,813.73 1626.8,806.181 1638.07,798.633 1649.34,791.086 1660.61,783.539 1671.88,775.994 1683.15,768.449 1694.42,760.905 1705.69,753.361 1716.96,745.819 1728.23,738.276 1739.5,730.735 1750.77,723.194 1762.04,715.654 1773.31,708.114 1784.58,700.575 1795.85,693.036 1807.12,685.497 1818.39,677.96 1829.66,670.422 1840.93,662.885 1852.2,655.349 1863.47,647.812 1874.74,640.277 1886.01,632.741 1897.28,625.206 1908.55,617.672 1919.82,610.137 1931.09,602.603 1942.36,595.069 1953.63,587.536 1964.9,580.003 1976.17,572.47 1987.44,564.937 1998.71,557.405 2009.98,549.872 2021.25,542.341 2032.52,534.809 2043.79,527.277 2055.06,519.746 2066.33,512.215 2077.6,504.684 2088.87,497.153 2100.14,489.622 2111.41,482.091 2122.68,474.561 2133.95,467.03 2145.22,459.5 2156.49,451.969 2167.76,444.439 2179.03,436.908 2190.3,429.378 2201.57,421.847 2212.84,414.317 2224.11,406.786 2235.38,399.255 2246.65,391.724 2257.92,384.193 2269.19,376.662 2280.46,369.131 2291.73,361.599 2303,354.067 2314.27,346.536 2325.54,339.004 2336.81,331.471 2348.08,323.939 2359.35,316.406 2370.62,308.874 2381.89,301.34 2393.16,293.807 2404.43,286.274 2415.7,278.74 2426.97,271.206 2438.24,263.672 2449.51,256.138 2460.78,248.603 2472.05,241.069 2483.32,233.534 2494.59,226 2505.85,218.465 2517.12,210.93 2528.39,203.395 2539.66,195.86 2550.93,188.324 2562.2,180.789 2573.47,173.254 "/>
<polyline clip-path="url(#clip211)" style="stroke:#ff8c00; stroke-linecap:round; stroke-linejoin:round; stroke-width:8; stroke-opacity:1; fill:none" points="330.76,495.526 342.03,480.887 353.3,466.353 364.57,452.028 375.839,438.017 387.109,424.423 398.379,411.352 409.649,398.908 420.919,387.195 432.189,376.318 443.459,366.375 454.729,357.39 465.999,349.341 477.269,342.204 488.539,335.957 499.809,330.576 511.079,326.039 522.348,322.32 533.618,319.399 544.888,317.251 556.158,315.853 567.428,315.182 578.698,315.215 589.968,315.929 601.238,317.294 612.508,319.265 623.778,321.792 635.048,324.826 646.318,328.317 657.588,332.217 668.857,336.476 680.127,341.034 691.397,345.817 702.667,350.752 713.937,355.763 725.207,360.776 736.477,365.715 747.747,370.508 759.017,375.078 770.287,379.371 781.557,383.354 792.827,386.995 804.097,390.262 815.366,393.125 826.636,395.552 837.906,397.51 849.176,398.97 860.446,399.898 871.716,400.264 882.986,400.037 894.256,399.184 905.526,397.695 916.796,395.625 928.066,393.047 939.336,390.032 950.606,386.652 961.875,382.978 973.145,379.082 984.415,375.034 995.685,370.908 1006.96,366.774 1018.23,362.705 1029.49,358.77 1040.76,355.043 1052.03,351.578 1063.3,348.354 1074.57,345.325 1085.84,342.445 1097.11,339.67 1108.38,336.953 1119.65,334.248 1130.92,331.512 1142.19,328.719 1153.46,325.943 1164.73,323.282 1176,320.834 1187.27,318.699 1198.54,316.975 1209.81,315.76 1221.08,315.152 1232.35,315.251 1243.62,316.155 1254.89,317.962 1266.16,320.768 1277.43,324.61 1288.7,329.438 1299.97,335.199 1311.24,341.837 1322.51,349.301 1333.78,357.535 1345.05,366.485 1356.32,376.097 1367.59,386.319 1378.86,397.094 1390.13,408.371 1401.4,420.09 1412.67,432.176 1423.94,444.545 1435.21,457.112 1446.48,469.794 1457.75,482.505 1469.02,495.162 1480.29,507.681 1491.56,519.978 1502.83,531.967 1514.1,543.568 1525.37,554.725 1536.64,565.414 1547.91,575.61 1559.18,585.29 1570.45,594.43 1581.72,603.006 1592.99,610.993 1604.26,618.369 1615.53,625.111 1626.8,631.201 1638.07,636.622 1649.34,641.355 1660.61,645.383 1671.88,648.688 1683.15,651.252 1694.42,653.056 1705.69,654.084 1716.96,654.316 1728.23,653.737 1739.5,652.367 1750.77,650.277 1762.04,647.537 1773.31,644.22 1784.58,640.396 1795.85,636.138 1807.12,631.517 1818.39,626.604 1829.66,621.473 1840.93,616.193 1852.2,610.837 1863.47,605.477 1874.74,600.184 1886.01,595.03 1897.28,590.062 1908.55,585.281 1919.82,580.685 1931.09,576.272 1942.36,572.038 1953.63,567.981 1964.9,564.098 1976.17,560.386 1987.44,556.842 1998.71,553.467 2009.98,550.326 2021.25,547.533 2032.52,545.206 2043.79,543.461 2055.06,542.416 2066.33,542.186 2077.6,542.89 2088.87,544.643 2100.14,547.558 2111.41,551.637 2122.68,556.743 2133.95,562.731 2145.22,569.455 2156.49,576.772 2167.76,584.536 2179.03,592.602 2190.3,600.826 2201.57,609.063 2212.84,617.167 2224.11,625.011 2235.38,632.498 2246.65,639.539 2257.92,646.044 2269.19,651.924 2280.46,657.087 2291.73,661.445 2303,664.907 2314.27,667.384 2325.54,668.785 2336.81,669.02 2348.08,668 2359.35,665.635 2370.62,661.84 2381.89,656.654 2393.16,650.231 2404.43,642.73 2415.7,634.311 2426.97,625.133 2438.24,615.355 2449.51,605.138 2460.78,594.611 2472.05,583.819 2483.32,572.788 2494.59,561.544 2505.85,550.115 2517.12,538.526 2528.39,526.805 2539.66,514.978 2550.93,503.071 2562.2,491.111 2573.47,479.124 "/>
<polyline clip-path="url(#clip211)" style="stroke:#008b00; stroke-linecap:round; stroke-linejoin:round; stroke-width:8; stroke-opacity:1; fill:none" points="330.76,496.485 342.03,481.528 353.3,466.816 364.57,452.418 375.839,438.406 387.109,424.85 398.379,411.819 409.649,399.385 420.919,387.618 432.189,376.587 443.459,366.364 454.729,357.018 465.999,348.62 477.269,341.205 488.539,334.751 499.809,329.228 511.079,324.609 522.348,320.863 533.618,317.963 544.888,315.88 556.158,314.584 567.428,314.048 578.698,314.242 589.968,315.138 601.238,316.706 612.508,318.897 623.778,321.648 635.048,324.895 646.318,328.575 657.588,332.623 668.857,336.975 680.127,341.569 691.397,346.341 702.667,351.226 713.937,356.16 725.207,361.081 736.477,365.926 747.747,370.642 759.017,375.179 770.287,379.489 781.557,383.522 792.827,387.228 804.097,390.558 815.366,393.462 826.636,395.892 837.906,397.797 849.176,399.128 860.446,399.836 871.716,399.899 882.986,399.359 894.256,398.27 905.526,396.682 916.796,394.65 928.066,392.225 939.336,389.459 950.606,386.406 961.875,383.117 973.145,379.644 984.415,376.041 995.685,372.359 1006.96,368.631 1018.23,364.874 1029.49,361.102 1040.76,357.327 1052.03,353.566 1063.3,349.832 1074.57,346.138 1085.84,342.501 1097.11,338.932 1108.38,335.448 1119.65,332.061 1130.92,328.79 1142.19,325.688 1153.46,322.82 1164.73,320.256 1176,318.063 1187.27,316.31 1198.54,315.064 1209.81,314.393 1221.08,314.365 1232.35,315.049 1243.62,316.511 1254.89,318.821 1266.16,322.026 1277.43,326.107 1288.7,331.03 1299.97,336.763 1311.24,343.272 1322.51,350.524 1333.78,358.487 1345.05,367.125 1356.32,376.407 1367.59,386.3 1378.86,396.769 1390.13,407.782 1401.4,419.286 1412.67,431.2 1423.94,443.442 1435.21,455.929 1446.48,468.578 1457.75,481.307 1469.02,494.033 1480.29,506.673 1491.56,519.144 1502.83,531.365 1514.1,543.251 1525.37,554.724 1536.64,565.728 1547.91,576.231 1559.18,586.196 1570.45,595.591 1581.72,604.381 1592.99,612.531 1604.26,620.007 1615.53,626.775 1626.8,632.801 1638.07,638.049 1649.34,642.487 1660.61,646.089 1671.88,648.88 1683.15,650.898 1694.42,652.182 1705.69,652.77 1716.96,652.701 1728.23,652.013 1739.5,650.745 1750.77,648.936 1762.04,646.623 1773.31,643.846 1784.58,640.643 1795.85,637.051 1807.12,633.108 1818.39,628.849 1829.66,624.311 1840.93,619.53 1852.2,614.543 1863.47,609.385 1874.74,604.093 1886.01,598.703 1897.28,593.252 1908.55,587.776 1919.82,582.311 1931.09,576.915 1942.36,571.658 1953.63,566.616 1964.9,561.86 1976.17,557.464 1987.44,553.501 1998.71,550.045 2009.98,547.169 2021.25,544.946 2032.52,543.45 2043.79,542.753 2055.06,542.919 2066.33,543.937 2077.6,545.768 2088.87,548.372 2100.14,551.709 2111.41,555.738 2122.68,560.42 2133.95,565.714 2145.22,571.581 2156.49,577.98 2167.76,584.872 2179.03,592.215 2190.3,599.945 2201.57,607.921 2212.84,615.993 2224.11,624.008 2235.38,631.815 2246.65,639.261 2257.92,646.194 2269.19,652.464 2280.46,657.917 2291.73,662.402 2303,665.767 2314.27,667.862 2325.54,668.63 2336.81,668.127 2348.08,666.417 2359.35,663.563 2370.62,659.63 2381.89,654.682 2393.16,648.782 2404.43,641.993 2415.7,634.381 2426.97,626.009 2438.24,616.941 2449.51,607.24 2460.78,596.961 2472.05,586.155 2483.32,574.874 2494.59,563.169 2505.85,551.09 2517.12,538.689 2528.39,526.017 2539.66,513.124 2550.93,500.062 2562.2,486.882 2573.47,473.634 "/>
<polyline clip-path="url(#clip211)" style="stroke:#800080; stroke-linecap:round; stroke-linejoin:round; stroke-width:8; stroke-opacity:1; fill:none" points="330.76,451.321 342.03,447.456 353.3,443.163 364.57,438.423 375.839,433.231 387.109,427.595 398.379,421.544 409.649,415.139 420.919,408.478 432.189,401.628 443.459,394.435 454.729,386.756 465.999,378.508 477.269,369.673 488.539,360.304 499.809,350.544 511.079,340.637 522.348,330.962 533.618,322.068 544.888,314.719 556.158,309.955 567.428,308.432 578.698,309.244 589.968,311.513 601.238,314.641 612.508,318.279 623.778,322.29 635.048,326.742 646.318,331.821 657.588,337.282 668.857,342.781 680.127,348.132 691.397,353.29 702.667,358.341 713.937,363.506 725.207,369.072 736.477,374.865 747.747,380.548 759.017,385.894 770.287,390.759 781.557,395.073 792.827,398.826 804.097,402.066 815.366,404.878 826.636,407.223 837.906,408.978 849.176,410.062 860.446,410.425 871.716,410.047 882.986,408.932 894.256,407.116 905.526,404.663 916.796,401.676 928.066,398.304 939.336,394.758 950.606,391.325 961.875,388.36 973.145,385.805 984.415,383.3 995.685,380.582 1006.96,377.48 1018.23,373.905 1029.49,369.852 1040.76,365.399 1052.03,360.72 1063.3,356.099 1074.57,351.955 1085.84,348.695 1097.11,346.007 1108.38,343.477 1119.65,340.845 1130.92,338 1142.19,334.965 1153.46,331.911 1164.73,329.165 1176,327.237 1187.27,326.404 1198.54,326.145 1209.81,326.007 1221.08,325.712 1232.35,325.142 1243.62,324.333 1254.89,323.473 1266.16,322.92 1277.43,323.225 1288.7,325.168 1299.97,329.743 1311.24,336.927 1322.51,345.812 1333.78,355.719 1345.05,366.183 1356.32,376.915 1367.59,387.766 1378.86,398.711 1390.13,409.833 1401.4,421.313 1412.67,433.365 1423.94,445.865 1435.21,458.61 1446.48,471.448 1457.75,484.257 1469.02,496.92 1480.29,509.306 1491.56,521.247 1502.83,532.527 1514.1,543.175 1525.37,553.446 1536.64,563.508 1547.91,573.435 1559.18,583.198 1570.45,592.654 1581.72,601.522 1592.99,609.365 1604.26,616.042 1615.53,622.061 1626.8,627.82 1638.07,633.541 1649.34,639.279 1660.61,644.921 1671.88,650.167 1683.15,654.51 1694.42,657.191 1705.69,657.173 1716.96,654.237 1728.23,649.472 1739.5,643.778 1750.77,637.806 1762.04,632.004 1773.31,626.658 1784.58,621.915 1795.85,617.796 1807.12,614.209 1818.39,610.942 1829.66,607.654 1840.93,603.861 1852.2,599.289 1863.47,594.358 1874.74,589.454 1886.01,584.835 1897.28,580.657 1908.55,576.99 1919.82,573.821 1931.09,571.067 1942.36,568.566 1953.63,566.069 1964.9,563.231 1976.17,559.588 1987.44,554.856 1998.71,549.53 2009.98,544.144 2021.25,539.156 2032.52,534.974 2043.79,531.907 2055.06,529.968 2066.33,529.121 2077.6,529.346 2088.87,530.639 2100.14,533.012 2111.41,536.493 2122.68,541.121 2133.95,546.952 2145.22,554.049 2156.49,562.398 2167.76,571.849 2179.03,582.216 2190.3,593.274 2201.57,604.73 2212.84,616.189 2224.11,627.12 2235.38,636.803 2246.65,644.272 2257.92,648.866 2269.19,651.457 2280.46,652.954 2291.73,654.002 2303,655.023 2314.27,656.247 2325.54,657.719 2336.81,659.306 2348.08,660.685 2359.35,661.318 2370.62,660.419 2381.89,656.897 2393.16,650.013 2404.43,640.724 2415.7,630.018 2426.97,618.61 2438.24,606.999 2449.51,595.519 2460.78,584.372 2472.05,573.715 2483.32,563.692 2494.59,554.387 2505.85,545.84 2517.12,538.056 2528.39,531.018 2539.66,524.693 2550.93,519.039 2562.2,514.008 2573.47,509.55 "/>
<polyline clip-path="url(#clip211)" style="stroke:#000000; stroke-linecap:round; stroke-linejoin:round; stroke-width:8; stroke-opacity:1; fill:none" stroke-dasharray="32, 20" points="330.76,478.681 333.33,475.905 333.757,475.444 335.338,473.737 339.11,469.669 346.731,461.47 347.971,460.14 369.723,437.103 372.288,434.437 378.507,428.028 395.695,410.809 396.995,409.541 403.419,403.351 414.48,393.025 417.869,389.952 426.99,381.909 439.051,371.821 442.53,369.034 449.817,363.385 467.421,350.845 482.473,341.444 489.418,337.537 492.865,335.701 510.898,327.237 515.79,325.276 522.936,322.67 525.116,321.936 532.313,319.718 532.769,319.588 578.588,312.8 583.029,312.78 586.204,312.832 591.733,313.051 594.688,313.233 607.773,314.573 620.315,316.628 620.804,316.723 630.349,318.776 633.358,319.502 634.628,319.819 635.715,320.096 635.78,320.112 637.026,320.435 637.463,320.55 642.46,321.913 646.442,323.064 657.519,326.552 664.377,328.904 665.785,329.403 666.926,329.812 685.612,336.959 685.669,336.982 688.183,338.001 689.191,338.413 713.26,348.67 715.137,349.495 715.74,349.761 716.568,350.126 734.404,358.037 747.68,363.894 749.14,364.532 751.964,365.76 753.118,366.259 754.39,366.809 756.73,367.815 768.44,372.746 773.659,374.876 774.595,375.253 791.791,381.865 797.665,383.967 799.716,384.68 806.068,386.815 817.308,390.305 817.718,390.425 819.047,390.809 855.886,399.012 856.291,399.074 871.691,400.933 883.238,401.686 898.509,401.821 905.195,401.571 913.821,400.972 914.787,400.885 917.934,400.577 937.356,397.789 940.892,397.122 974.326,388.588 977.95,387.442 991.173,382.944 1014.75,373.878 1017.27,372.844 1021.41,371.127 1030.4,367.309 1036.33,364.742 1039.88,363.19 1043.74,361.493 1043.91,361.415 1048.91,359.205 1059.74,354.394 1069.17,350.219 1078.56,346.107 1079.97,345.497 1080.77,345.151 1082.58,344.371 1087.51,342.27 1088.17,341.989 1094.41,339.38 1110.76,332.875 1120.57,329.26 1125.62,327.5 1130.83,325.763 1133.21,324.999 1138.4,323.395 1158.37,318.14 1175.45,314.957 1184.61,313.807 1200.13,312.823 1203.86,312.776 1205.74,312.78 1208.57,312.824 1218.11,313.3 1219.31,313.396 1227.22,314.237 1239.14,316.196 1254.57,319.987 1257.35,320.824 1262.25,322.411 1278.75,328.815 1292.52,335.405 1302.1,340.647 1311.15,346.079 1325.9,355.9 1326.96,356.651 1336.36,363.554 1346.13,371.199 1347.42,372.246 1349.33,373.799 1350.61,374.858 1360.6,383.334 1370.85,392.458 1374.85,396.132 1378.5,399.535 1399.45,419.918 1408.63,429.245 1409.35,429.988 1411.41,432.102 1415.17,436.001 1421.04,442.136 1429.29,450.861 1433.2,455.023 1454.09,477.494 1455.78,479.322 1487.72,513.543 1488.16,514.008 1488.17,514.02 1489.64,515.562 1494.25,520.393 1498.71,525.039 1524.93,551.342 1527.48,553.789 1535.05,560.941 1536.23,562.038 1536.29,562.098 1539.86,565.386 1545.31,570.309 1550.31,574.714 1552.59,576.696 1562.48,585.015 1567.42,589.003 1569.39,590.558 1578.6,597.594 1591.54,606.747 1594.03,608.406 1599,611.621 1605.39,615.555 1616.08,621.608 1621.12,624.238 1623.74,625.542 1635.41,630.868 1639.42,632.512 1657.6,638.741 1663.51,640.337 1684.81,644.358 1687.51,644.678 1688.65,644.8 1700.95,645.644 1707.34,645.748 1708.14,645.745 1723.23,645.055 1723.49,645.033 1723.96,644.992 1733.98,643.854 1739.91,642.954 1751.75,640.677 1770.82,635.79 1774.8,634.6 1783.55,631.797 1793.1,628.47 1809.12,622.365 1832.61,612.54 1851.02,604.435 1854.78,602.765 1857.74,601.449 1861.28,599.879 1872.55,594.908 1890.63,587.152 1917.33,576.646 1939.37,569.247 1948.95,566.48 1949.5,566.331 1949.55,566.317 1950.18,566.148 1961.08,563.424 1972.85,560.964 1976.42,560.322 1977.3,560.171 1980.77,559.607 1981.4,559.509 1982.68,559.317 1988.29,558.548 1990.56,558.273 1995.65,557.734 2001.07,557.275 2003.15,557.133 2004.92,557.025 2012.54,556.712 2015.77,556.653 2021.91,556.662 2034.36,557.169 2039.97,557.608 2051.14,558.87 2061.32,560.458 2076.61,563.592 2076.61,563.593 2083.33,565.24 2084.59,565.566 2095.26,568.547 2096.58,568.939 2098.05,569.387 2115.71,575.231 2118.42,576.205 2128.24,579.877 2140.92,584.917 2155.92,591.219 2169.82,597.283 2177.21,600.557 2179.21,601.446 2186.59,604.722 2194.42,608.19 2196.18,608.967 2199.57,610.455 2205.13,612.874 2212.08,615.857 2213.87,616.618 2218.27,618.461 2242.88,628.115 2244.67,628.761 2247.93,629.918 2272.01,637.444 2282.36,640.039 2286.93,641.046 2288.45,641.361 2322.63,645.607 2322.87,645.616 2326.32,645.714 2328.57,645.744 2339.74,645.478 2364.31,642.393 2365.21,642.214 2369.05,641.39 2370.99,640.94 2389.46,635.527 2396.44,632.948 2396.78,632.814 2399.36,631.779 2412.51,625.89 2413.86,625.229 2430.49,616.193 2434.18,613.975 2434.52,613.767 2439.59,610.584 2440.29,610.135 2446.21,606.219 2447.45,605.376 2451.7,602.415 2456.8,598.745 2459.09,597.051 2461.18,595.482 2485.74,575.512 2494.5,567.75 2496.98,565.495 2497.06,565.417 2508.6,554.633 2515.88,547.598 2521.67,541.883 2532.22,531.239 2542.2,520.932 2542.56,520.562 2556.23,506.137 2573.47,487.638 "/>
<path clip-path="url(#clip210)" d="M342.721 492.376 L769.198 492.376 L769.198 181.336 L342.721 181.336  Z" fill="#ffffff" fill-rule="evenodd" fill-opacity="1"/>
<polyline clip-path="url(#clip210)" style="stroke:#000000; stroke-linecap:round; stroke-linejoin:round; stroke-width:4; stroke-opacity:1; fill:none" points="342.721,492.376 769.198,492.376 769.198,181.336 342.721,181.336 342.721,492.376 "/>
<polyline clip-path="url(#clip210)" style="stroke:#4682b4; stroke-linecap:round; stroke-linejoin:round; stroke-width:8; stroke-opacity:1; fill:none" points="369.135,233.176 527.62,233.176 "/>
<path clip-path="url(#clip210)" d="M561.442 217.169 L561.442 224.531 L570.215 224.531 L570.215 227.841 L561.442 227.841 L561.442 241.915 Q561.442 245.086 562.298 245.989 Q563.178 246.891 565.84 246.891 L570.215 246.891 L570.215 250.456 L565.84 250.456 Q560.909 250.456 559.034 248.628 Q557.159 246.776 557.159 241.915 L557.159 227.841 L554.034 227.841 L554.034 224.531 L557.159 224.531 L557.159 217.169 L561.442 217.169 Z" fill="#000000" fill-rule="nonzero" fill-opacity="1" /><path clip-path="url(#clip210)" d="M579.937 246.567 L579.937 260.317 L575.655 260.317 L575.655 224.531 L579.937 224.531 L579.937 228.466 Q581.28 226.151 583.317 225.04 Q585.377 223.906 588.224 223.906 Q592.946 223.906 595.886 227.655 Q598.849 231.405 598.849 237.517 Q598.849 243.628 595.886 247.378 Q592.946 251.128 588.224 251.128 Q585.377 251.128 583.317 250.016 Q581.28 248.882 579.937 246.567 M594.428 237.517 Q594.428 232.817 592.483 230.155 Q590.562 227.47 587.182 227.47 Q583.803 227.47 581.858 230.155 Q579.937 232.817 579.937 237.517 Q579.937 242.216 581.858 244.901 Q583.803 247.563 587.182 247.563 Q590.562 247.563 592.483 244.901 Q594.428 242.216 594.428 237.517 Z" fill="#000000" fill-rule="nonzero" fill-opacity="1" /><polyline clip-path="url(#clip210)" style="stroke:#ff8c00; stroke-linecap:round; stroke-linejoin:round; stroke-width:8; stroke-opacity:1; fill:none" points="369.135,285.016 527.62,285.016 "/>
<path clip-path="url(#clip210)" d="M574.544 277.366 L574.544 281.347 Q572.738 280.352 570.909 279.866 Q569.104 279.357 567.252 279.357 Q563.108 279.357 560.817 281.995 Q558.525 284.611 558.525 289.357 Q558.525 294.102 560.817 296.741 Q563.108 299.356 567.252 299.356 Q569.104 299.356 570.909 298.87 Q572.738 298.361 574.544 297.366 L574.544 301.301 Q572.761 302.134 570.84 302.551 Q568.942 302.968 566.789 302.968 Q560.933 302.968 557.484 299.287 Q554.034 295.607 554.034 289.357 Q554.034 283.014 557.507 279.38 Q561.002 275.746 567.067 275.746 Q569.034 275.746 570.909 276.162 Q572.784 276.556 574.544 277.366 Z" fill="#000000" fill-rule="nonzero" fill-opacity="1" /><path clip-path="url(#clip210)" d="M596.974 280.352 Q596.256 279.935 595.4 279.75 Q594.567 279.542 593.548 279.542 Q589.937 279.542 587.993 281.903 Q586.071 284.241 586.071 288.639 L586.071 302.296 L581.789 302.296 L581.789 276.371 L586.071 276.371 L586.071 280.398 Q587.414 278.037 589.567 276.903 Q591.719 275.746 594.798 275.746 Q595.238 275.746 595.77 275.815 Q596.303 275.861 596.951 275.977 L596.974 280.352 Z" fill="#000000" fill-rule="nonzero" fill-opacity="1" /><polyline clip-path="url(#clip210)" style="stroke:#008b00; stroke-linecap:round; stroke-linejoin:round; stroke-width:8; stroke-opacity:1; fill:none" points="369.135,336.856 527.62,336.856 "/>
<path clip-path="url(#clip210)" d="M558.317 350.247 L558.317 363.997 L554.034 363.997 L554.034 328.211 L558.317 328.211 L558.317 332.146 Q559.659 329.831 561.696 328.72 Q563.757 327.586 566.604 327.586 Q571.326 327.586 574.266 331.335 Q577.229 335.085 577.229 341.197 Q577.229 347.308 574.266 351.058 Q571.326 354.808 566.604 354.808 Q563.757 354.808 561.696 353.696 Q559.659 352.562 558.317 350.247 M572.808 341.197 Q572.808 336.497 570.863 333.835 Q568.942 331.15 565.562 331.15 Q562.183 331.15 560.238 333.835 Q558.317 336.497 558.317 341.197 Q558.317 345.896 560.238 348.581 Q562.183 351.243 565.562 351.243 Q568.942 351.243 570.863 348.581 Q572.808 345.896 572.808 341.197 Z" fill="#000000" fill-rule="nonzero" fill-opacity="1" /><path clip-path="url(#clip210)" d="M600.817 328.974 L600.817 333.002 Q599.011 332.076 597.067 331.613 Q595.122 331.15 593.039 331.15 Q589.868 331.15 588.27 332.123 Q586.696 333.095 586.696 335.039 Q586.696 336.521 587.831 337.377 Q588.965 338.21 592.391 338.974 L593.849 339.298 Q598.386 340.271 600.284 342.053 Q602.206 343.812 602.206 346.984 Q602.206 350.595 599.335 352.701 Q596.488 354.808 591.488 354.808 Q589.405 354.808 587.136 354.391 Q584.891 353.997 582.391 353.187 L582.391 348.789 Q584.752 350.016 587.044 350.641 Q589.335 351.243 591.581 351.243 Q594.59 351.243 596.21 350.224 Q597.831 349.183 597.831 347.308 Q597.831 345.572 596.65 344.646 Q595.493 343.72 591.534 342.863 L590.053 342.516 Q586.094 341.683 584.335 339.97 Q582.576 338.234 582.576 335.224 Q582.576 331.567 585.169 329.576 Q587.761 327.586 592.53 327.586 Q594.891 327.586 596.974 327.933 Q599.057 328.28 600.817 328.974 Z" fill="#000000" fill-rule="nonzero" fill-opacity="1" /><polyline clip-path="url(#clip210)" style="stroke:#800080; stroke-linecap:round; stroke-linejoin:round; stroke-width:8; stroke-opacity:1; fill:none" points="369.135,388.696 527.62,388.696 "/>
<path clip-path="url(#clip210)" d="M572.946 392.712 Q572.946 388.083 571.025 385.537 Q569.127 382.99 565.678 382.99 Q562.252 382.99 560.331 385.537 Q558.433 388.083 558.433 392.712 Q558.433 397.319 560.331 399.865 Q562.252 402.411 565.678 402.411 Q569.127 402.411 571.025 399.865 Q572.946 397.319 572.946 392.712 M577.206 402.759 Q577.206 409.379 574.266 412.597 Q571.326 415.837 565.261 415.837 Q563.016 415.837 561.025 415.49 Q559.034 415.166 557.159 414.472 L557.159 410.328 Q559.034 411.347 560.863 411.833 Q562.692 412.319 564.59 412.319 Q568.78 412.319 570.863 410.12 Q572.946 407.944 572.946 403.523 L572.946 401.416 Q571.627 403.708 569.567 404.842 Q567.507 405.976 564.636 405.976 Q559.868 405.976 556.951 402.342 Q554.034 398.708 554.034 392.712 Q554.034 386.694 556.951 383.06 Q559.868 379.426 564.636 379.426 Q567.507 379.426 569.567 380.56 Q571.627 381.694 572.946 383.986 L572.946 380.051 L577.206 380.051 L577.206 402.759 Z" fill="#000000" fill-rule="nonzero" fill-opacity="1" /><path clip-path="url(#clip210)" d="M590.099 402.087 L590.099 415.837 L585.817 415.837 L585.817 380.051 L590.099 380.051 L590.099 383.986 Q591.442 381.671 593.479 380.56 Q595.539 379.426 598.386 379.426 Q603.108 379.426 606.048 383.175 Q609.011 386.925 609.011 393.037 Q609.011 399.148 606.048 402.898 Q603.108 406.648 598.386 406.648 Q595.539 406.648 593.479 405.536 Q591.442 404.402 590.099 402.087 M604.59 393.037 Q604.59 388.337 602.645 385.675 Q600.724 382.99 597.344 382.99 Q593.965 382.99 592.02 385.675 Q590.099 388.337 590.099 393.037 Q590.099 397.736 592.02 400.421 Q593.965 403.083 597.344 403.083 Q600.724 403.083 602.645 400.421 Q604.59 397.736 604.59 393.037 Z" fill="#000000" fill-rule="nonzero" fill-opacity="1" /><polyline clip-path="url(#clip210)" style="stroke:#000000; stroke-linecap:round; stroke-linejoin:round; stroke-width:8; stroke-opacity:1; fill:none" stroke-dasharray="32, 20" points="369.135,440.536 527.62,440.536 "/>
<path clip-path="url(#clip210)" d="M561.442 424.529 L561.442 431.891 L570.215 431.891 L570.215 435.201 L561.442 435.201 L561.442 449.275 Q561.442 452.446 562.298 453.349 Q563.178 454.251 565.84 454.251 L570.215 454.251 L570.215 457.816 L565.84 457.816 Q560.909 457.816 559.034 455.988 Q557.159 454.136 557.159 449.275 L557.159 435.201 L554.034 435.201 L554.034 431.891 L557.159 431.891 L557.159 424.529 L561.442 424.529 Z" fill="#000000" fill-rule="nonzero" fill-opacity="1" /><path clip-path="url(#clip210)" d="M590.84 435.872 Q590.122 435.455 589.266 435.27 Q588.432 435.062 587.414 435.062 Q583.803 435.062 581.858 437.423 Q579.937 439.761 579.937 444.159 L579.937 457.816 L575.655 457.816 L575.655 431.891 L579.937 431.891 L579.937 435.918 Q581.28 433.557 583.432 432.423 Q585.585 431.266 588.664 431.266 Q589.104 431.266 589.636 431.335 Q590.169 431.381 590.817 431.497 L590.84 435.872 Z" fill="#000000" fill-rule="nonzero" fill-opacity="1" /><path clip-path="url(#clip210)" d="M594.868 447.585 L594.868 431.891 L599.127 431.891 L599.127 447.423 Q599.127 451.103 600.562 452.955 Q601.997 454.784 604.868 454.784 Q608.317 454.784 610.307 452.585 Q612.321 450.386 612.321 446.589 L612.321 431.891 L616.58 431.891 L616.58 457.816 L612.321 457.816 L612.321 453.835 Q610.77 456.196 608.71 457.353 Q606.673 458.488 603.965 458.488 Q599.497 458.488 597.182 455.71 Q594.868 452.932 594.868 447.585 M605.585 431.266 L605.585 431.266 Z" fill="#000000" fill-rule="nonzero" fill-opacity="1" /><path clip-path="url(#clip210)" d="M647.529 443.789 L647.529 445.872 L627.946 445.872 Q628.224 450.27 630.585 452.585 Q632.969 454.876 637.205 454.876 Q639.659 454.876 641.951 454.275 Q644.265 453.673 646.534 452.469 L646.534 456.497 Q644.242 457.469 641.835 457.978 Q639.428 458.488 636.951 458.488 Q630.747 458.488 627.113 454.876 Q623.502 451.265 623.502 445.108 Q623.502 438.742 626.928 435.015 Q630.377 431.266 636.21 431.266 Q641.441 431.266 644.474 434.645 Q647.529 438.002 647.529 443.789 M643.27 442.539 Q643.224 439.043 641.303 436.96 Q639.404 434.877 636.256 434.877 Q632.691 434.877 630.539 436.89 Q628.409 438.904 628.085 442.562 L643.27 442.539 Z" fill="#000000" fill-rule="nonzero" fill-opacity="1" /><path clip-path="url(#clip210)" d="M682.714 421.798 L682.714 425.34 L678.64 425.34 Q676.349 425.34 675.446 426.266 Q674.566 427.191 674.566 429.599 L674.566 431.891 L681.58 431.891 L681.58 435.201 L674.566 435.201 L674.566 457.816 L670.284 457.816 L670.284 435.201 L666.21 435.201 L666.21 431.891 L670.284 431.891 L670.284 430.085 Q670.284 425.756 672.298 423.789 Q674.312 421.798 678.687 421.798 L682.714 421.798 Z" fill="#000000" fill-rule="nonzero" fill-opacity="1" /><path clip-path="url(#clip210)" d="M696.511 421.844 Q693.409 427.168 691.904 432.377 Q690.399 437.585 690.399 442.932 Q690.399 448.279 691.904 453.534 Q693.432 458.765 696.511 464.066 L692.807 464.066 Q689.335 458.626 687.599 453.372 Q685.886 448.117 685.886 442.932 Q685.886 437.77 687.599 432.539 Q689.312 427.307 692.807 421.844 L696.511 421.844 Z" fill="#000000" fill-rule="nonzero" fill-opacity="1" /><path clip-path="url(#clip210)" d="M726.325 431.891 L716.95 444.506 L726.811 457.816 L721.788 457.816 L714.242 447.631 L706.696 457.816 L701.673 457.816 L711.742 444.252 L702.529 431.891 L707.552 431.891 L714.427 441.127 L721.302 431.891 L726.325 431.891 Z" fill="#000000" fill-rule="nonzero" fill-opacity="1" /><path clip-path="url(#clip210)" d="M732.159 421.844 L735.862 421.844 Q739.334 427.307 741.047 432.539 Q742.783 437.77 742.783 442.932 Q742.783 448.117 741.047 453.372 Q739.334 458.626 735.862 464.066 L732.159 464.066 Q735.237 458.765 736.742 453.534 Q738.27 448.279 738.27 442.932 Q738.27 437.585 736.742 432.377 Q735.237 427.168 732.159 421.844 Z" fill="#000000" fill-rule="nonzero" fill-opacity="1" /></svg>
