<?xml version="1.0" encoding="utf-8"?>
<svg xmlns="http://www.w3.org/2000/svg" xmlns:xlink="http://www.w3.org/1999/xlink" width="600" height="400" viewBox="0 0 2400 1600">
<defs>
  <clipPath id="clip010">
    <rect x="0" y="0" width="2400" height="1600"/>
  </clipPath>
</defs>
<path clip-path="url(#clip010)" d="M0 1600 L2400 1600 L2400 8.88178e-14 L0 8.88178e-14  Z" fill="#ffffff" fill-rule="evenodd" fill-opacity="1"/>
<defs>
  <clipPath id="clip011">
    <rect x="367" y="123" width="1986" height="1301"/>
  </clipPath>
</defs>
<path clip-path="url(#clip010)" d="M367.782 1423.18 L2352.76 1423.18 L2352.76 123.472 L367.782 123.472  Z" fill="#ffffff" fill-rule="evenodd" fill-opacity="1"/>
<polyline clip-path="url(#clip011)" style="stroke:#000000; stroke-linecap:round; stroke-linejoin:round; stroke-width:2; stroke-opacity:0.1; fill:none" points="423.512,1423.18 423.512,123.472 "/>
<polyline clip-path="url(#clip011)" style="stroke:#000000; stroke-linecap:round; stroke-linejoin:round; stroke-width:2; stroke-opacity:0.1; fill:none" points="893.398,1423.18 893.398,123.472 "/>
<polyline clip-path="url(#clip011)" style="stroke:#000000; stroke-linecap:round; stroke-linejoin:round; stroke-width:2; stroke-opacity:0.1; fill:none" points="1363.28,1423.18 1363.28,123.472 "/>
<polyline clip-path="url(#clip011)" style="stroke:#000000; stroke-linecap:round; stroke-linejoin:round; stroke-width:2; stroke-opacity:0.1; fill:none" points="1833.17,1423.18 1833.17,123.472 "/>
<polyline clip-path="url(#clip011)" style="stroke:#000000; stroke-linecap:round; stroke-linejoin:round; stroke-width:2; stroke-opacity:0.1; fill:none" points="2303.06,1423.18 2303.06,123.472 "/>
<polyline clip-path="url(#clip011)" style="stroke:#000000; stroke-linecap:round; stroke-linejoin:round; stroke-width:2; stroke-opacity:0.1; fill:none" points="367.782,1336.91 2352.76,1336.91 "/>
<polyline clip-path="url(#clip011)" style="stroke:#000000; stroke-linecap:round; stroke-linejoin:round; stroke-width:2; stroke-opacity:0.1; fill:none" points="367.782,1086.92 2352.76,1086.92 "/>
<polyline clip-path="url(#clip011)" style="stroke:#000000; stroke-linecap:round; stroke-linejoin:round; stroke-width:2; stroke-opacity:0.1; fill:none" points="367.782,836.92 2352.76,836.92 "/>
<polyline clip-path="url(#clip011)" style="stroke:#000000; stroke-linecap:round; stroke-linejoin:round; stroke-width:2; stroke-opacity:0.1; fill:none" points="367.782,586.923 2352.76,586.923 "/>
<polyline clip-path="url(#clip011)" style="stroke:#000000; stroke-linecap:round; stroke-linejoin:round; stroke-width:2; stroke-opacity:0.1; fill:none" points="367.782,336.926 2352.76,336.926 "/>
<polyline clip-path="url(#clip010)" style="stroke:#000000; stroke-linecap:round; stroke-linejoin:round; stroke-width:4; stroke-opacity:1; fill:none" points="367.782,1423.18 2352.76,1423.18 "/>
<polyline clip-path="url(#clip010)" style="stroke:#000000; stroke-linecap:round; stroke-linejoin:round; stroke-width:4; stroke-opacity:1; fill:none" points="423.512,1423.18 423.512,1404.28 "/>
<polyline clip-path="url(#clip010)" style="stroke:#000000; stroke-linecap:round; stroke-linejoin:round; stroke-width:4; stroke-opacity:1; fill:none" points="893.398,1423.18 893.398,1404.28 "/>
<polyline clip-path="url(#clip010)" style="stroke:#000000; stroke-linecap:round; stroke-linejoin:round; stroke-width:4; stroke-opacity:1; fill:none" points="1363.28,1423.18 1363.28,1404.28 "/>
<polyline clip-path="url(#clip010)" style="stroke:#000000; stroke-linecap:round; stroke-linejoin:round; stroke-width:4; stroke-opacity:1; fill:none" points="1833.17,1423.18 1833.17,1404.28 "/>
<polyline clip-path="url(#clip010)" style="stroke:#000000; stroke-linecap:round; stroke-linejoin:round; stroke-width:4; stroke-opacity:1; fill:none" points="2303.06,1423.18 2303.06,1404.28 "/>
<path clip-path="url(#clip010)" d="M385.815 1454.1 Q382.204 1454.1 380.375 1457.66 Q378.57 1461.2 378.57 1468.33 Q378.57 1475.44 380.375 1479.01 Q382.204 1482.55 385.815 1482.55 Q389.449 1482.55 391.255 1479.01 Q393.084 1475.44 393.084 1468.33 Q393.084 1461.2 391.255 1457.66 Q389.449 1454.1 385.815 1454.1 M385.815 1450.39 Q391.625 1450.39 394.681 1455 Q397.759 1459.58 397.759 1468.33 Q397.759 1477.06 394.681 1481.67 Q391.625 1486.25 385.815 1486.25 Q380.005 1486.25 376.926 1481.67 Q373.871 1477.06 373.871 1468.33 Q373.871 1459.58 376.926 1455 Q380.005 1450.39 385.815 1450.39 Z" fill="#000000" fill-rule="nonzero" fill-opacity="1" /><path clip-path="url(#clip010)" d="M405.977 1479.7 L410.861 1479.7 L410.861 1485.58 L405.977 1485.58 L405.977 1479.7 Z" fill="#000000" fill-rule="nonzero" fill-opacity="1" /><path clip-path="url(#clip010)" d="M431.046 1454.1 Q427.435 1454.1 425.607 1457.66 Q423.801 1461.2 423.801 1468.33 Q423.801 1475.44 425.607 1479.01 Q427.435 1482.55 431.046 1482.55 Q434.681 1482.55 436.486 1479.01 Q438.315 1475.44 438.315 1468.33 Q438.315 1461.2 436.486 1457.66 Q434.681 1454.1 431.046 1454.1 M431.046 1450.39 Q436.856 1450.39 439.912 1455 Q442.991 1459.58 442.991 1468.33 Q442.991 1477.06 439.912 1481.67 Q436.856 1486.25 431.046 1486.25 Q425.236 1486.25 422.157 1481.67 Q419.102 1477.06 419.102 1468.33 Q419.102 1459.58 422.157 1455 Q425.236 1450.39 431.046 1450.39 Z" fill="#000000" fill-rule="nonzero" fill-opacity="1" /><path clip-path="url(#clip010)" d="M461.208 1454.1 Q457.597 1454.1 455.768 1457.66 Q453.963 1461.2 453.963 1468.33 Q453.963 1475.44 455.768 1479.01 Q457.597 1482.55 461.208 1482.55 Q464.842 1482.55 466.648 1479.01 Q468.477 1475.44 468.477 1468.33 Q468.477 1461.2 466.648 1457.66 Q464.842 1454.1 461.208 1454.1 M461.208 1450.39 Q467.018 1450.39 470.074 1455 Q473.153 1459.58 473.153 1468.33 Q473.153 1477.06 470.074 1481.67 Q467.018 1486.25 461.208 1486.25 Q455.398 1486.25 452.319 1481.67 Q449.264 1477.06 449.264 1468.33 Q449.264 1459.58 452.319 1455 Q455.398 1450.39 461.208 1450.39 Z" fill="#000000" fill-rule="nonzero" fill-opacity="1" /><path clip-path="url(#clip010)" d="M856.199 1454.1 Q852.588 1454.1 850.759 1457.66 Q848.954 1461.2 848.954 1468.33 Q848.954 1475.44 850.759 1479.01 Q852.588 1482.55 856.199 1482.55 Q859.833 1482.55 861.639 1479.01 Q863.468 1475.44 863.468 1468.33 Q863.468 1461.2 861.639 1457.66 Q859.833 1454.1 856.199 1454.1 M856.199 1450.39 Q862.009 1450.39 865.065 1455 Q868.143 1459.58 868.143 1468.33 Q868.143 1477.06 865.065 1481.67 Q862.009 1486.25 856.199 1486.25 Q850.389 1486.25 847.31 1481.67 Q844.255 1477.06 844.255 1468.33 Q844.255 1459.58 847.31 1455 Q850.389 1450.39 856.199 1450.39 Z" fill="#000000" fill-rule="nonzero" fill-opacity="1" /><path clip-path="url(#clip010)" d="M876.361 1479.7 L881.245 1479.7 L881.245 1485.58 L876.361 1485.58 L876.361 1479.7 Z" fill="#000000" fill-rule="nonzero" fill-opacity="1" /><path clip-path="url(#clip010)" d="M895.458 1481.64 L911.777 1481.64 L911.777 1485.58 L889.833 1485.58 L889.833 1481.64 Q892.495 1478.89 897.078 1474.26 Q901.685 1469.61 902.865 1468.27 Q905.111 1465.74 905.99 1464.01 Q906.893 1462.25 906.893 1460.56 Q906.893 1457.8 904.949 1456.07 Q903.027 1454.33 899.926 1454.33 Q897.727 1454.33 895.273 1455.09 Q892.842 1455.86 890.065 1457.41 L890.065 1452.69 Q892.889 1451.55 895.342 1450.97 Q897.796 1450.39 899.833 1450.39 Q905.203 1450.39 908.398 1453.08 Q911.592 1455.77 911.592 1460.26 Q911.592 1462.39 910.782 1464.31 Q909.995 1466.2 907.889 1468.8 Q907.31 1469.47 904.208 1472.69 Q901.106 1475.88 895.458 1481.64 Z" fill="#000000" fill-rule="nonzero" fill-opacity="1" /><path clip-path="url(#clip010)" d="M921.639 1451.02 L939.995 1451.02 L939.995 1454.96 L925.921 1454.96 L925.921 1463.43 Q926.939 1463.08 927.958 1462.92 Q928.976 1462.73 929.995 1462.73 Q935.782 1462.73 939.162 1465.9 Q942.541 1469.08 942.541 1474.49 Q942.541 1480.07 939.069 1483.17 Q935.597 1486.25 929.277 1486.25 Q927.101 1486.25 924.833 1485.88 Q922.588 1485.51 920.18 1484.77 L920.18 1480.07 Q922.264 1481.2 924.486 1481.76 Q926.708 1482.32 929.185 1482.32 Q933.189 1482.32 935.527 1480.21 Q937.865 1478.1 937.865 1474.49 Q937.865 1470.88 935.527 1468.77 Q933.189 1466.67 929.185 1466.67 Q927.31 1466.67 925.435 1467.08 Q923.583 1467.5 921.639 1468.38 L921.639 1451.02 Z" fill="#000000" fill-rule="nonzero" fill-opacity="1" /><path clip-path="url(#clip010)" d="M1325.59 1454.1 Q1321.98 1454.1 1320.15 1457.66 Q1318.34 1461.2 1318.34 1468.33 Q1318.34 1475.44 1320.15 1479.01 Q1321.98 1482.55 1325.59 1482.55 Q1329.22 1482.55 1331.03 1479.01 Q1332.86 1475.44 1332.86 1468.33 Q1332.86 1461.2 1331.03 1457.66 Q1329.22 1454.1 1325.59 1454.1 M1325.59 1450.39 Q1331.4 1450.39 1334.45 1455 Q1337.53 1459.58 1337.53 1468.33 Q1337.53 1477.06 1334.45 1481.67 Q1331.4 1486.25 1325.59 1486.25 Q1319.78 1486.25 1316.7 1481.67 Q1313.64 1477.06 1313.64 1468.33 Q1313.64 1459.58 1316.7 1455 Q1319.78 1450.39 1325.59 1450.39 Z" fill="#000000" fill-rule="nonzero" fill-opacity="1" /><path clip-path="url(#clip010)" d="M1345.75 1479.7 L1350.63 1479.7 L1350.63 1485.58 L1345.75 1485.58 L1345.75 1479.7 Z" fill="#000000" fill-rule="nonzero" fill-opacity="1" /><path clip-path="url(#clip010)" d="M1360.87 1451.02 L1379.22 1451.02 L1379.22 1454.96 L1365.15 1454.96 L1365.15 1463.43 Q1366.17 1463.08 1367.18 1462.92 Q1368.2 1462.73 1369.22 1462.73 Q1375.01 1462.73 1378.39 1465.9 Q1381.77 1469.08 1381.77 1474.49 Q1381.77 1480.07 1378.3 1483.17 Q1374.82 1486.25 1368.5 1486.25 Q1366.33 1486.25 1364.06 1485.88 Q1361.81 1485.51 1359.41 1484.77 L1359.41 1480.07 Q1361.49 1481.2 1363.71 1481.76 Q1365.93 1482.32 1368.41 1482.32 Q1372.42 1482.32 1374.75 1480.21 Q1377.09 1478.1 1377.09 1474.49 Q1377.09 1470.88 1374.75 1468.77 Q1372.42 1466.67 1368.41 1466.67 Q1366.54 1466.67 1364.66 1467.08 Q1362.81 1467.5 1360.87 1468.38 L1360.87 1451.02 Z" fill="#000000" fill-rule="nonzero" fill-opacity="1" /><path clip-path="url(#clip010)" d="M1400.98 1454.1 Q1397.37 1454.1 1395.54 1457.66 Q1393.74 1461.2 1393.74 1468.33 Q1393.74 1475.44 1395.54 1479.01 Q1397.37 1482.55 1400.98 1482.55 Q1404.62 1482.55 1406.42 1479.01 Q1408.25 1475.44 1408.25 1468.33 Q1408.25 1461.2 1406.42 1457.66 Q1404.62 1454.1 1400.98 1454.1 M1400.98 1450.39 Q1406.79 1450.39 1409.85 1455 Q1412.93 1459.58 1412.93 1468.33 Q1412.93 1477.06 1409.85 1481.67 Q1406.79 1486.25 1400.98 1486.25 Q1395.17 1486.25 1392.09 1481.67 Q1389.04 1477.06 1389.04 1468.33 Q1389.04 1459.58 1392.09 1455 Q1395.17 1450.39 1400.98 1450.39 Z" fill="#000000" fill-rule="nonzero" fill-opacity="1" /><path clip-path="url(#clip010)" d="M1795.97 1454.1 Q1792.36 1454.1 1790.53 1457.66 Q1788.73 1461.2 1788.73 1468.33 Q1788.73 1475.44 1790.53 1479.01 Q1792.36 1482.55 1795.97 1482.55 Q1799.61 1482.55 1801.41 1479.01 Q1803.24 1475.44 1803.24 1468.33 Q1803.24 1461.2 1801.41 1457.66 Q1799.61 1454.1 1795.97 1454.1 M1795.97 1450.39 Q1801.78 1450.39 1804.84 1455 Q1807.92 1459.58 1807.92 1468.33 Q1807.92 1477.06 1804.84 1481.67 Q1801.78 1486.25 1795.97 1486.25 Q1790.16 1486.25 1787.08 1481.67 Q1784.03 1477.06 1784.03 1468.33 Q1784.03 1459.58 1787.08 1455 Q1790.16 1450.39 1795.97 1450.39 Z" fill="#000000" fill-rule="nonzero" fill-opacity="1" /><path clip-path="url(#clip010)" d="M1816.13 1479.7 L1821.02 1479.7 L1821.02 1485.58 L1816.13 1485.58 L1816.13 1479.7 Z" fill="#000000" fill-rule="nonzero" fill-opacity="1" /><path clip-path="url(#clip010)" d="M1830.02 1451.02 L1852.24 1451.02 L1852.24 1453.01 L1839.7 1485.58 L1834.81 1485.58 L1846.62 1454.96 L1830.02 1454.96 L1830.02 1451.02 Z" fill="#000000" fill-rule="nonzero" fill-opacity="1" /><path clip-path="url(#clip010)" d="M1861.41 1451.02 L1879.77 1451.02 L1879.77 1454.96 L1865.69 1454.96 L1865.69 1463.43 Q1866.71 1463.08 1867.73 1462.92 Q1868.75 1462.73 1869.77 1462.73 Q1875.55 1462.73 1878.93 1465.9 Q1882.31 1469.08 1882.31 1474.49 Q1882.31 1480.07 1878.84 1483.17 Q1875.37 1486.25 1869.05 1486.25 Q1866.87 1486.25 1864.61 1485.88 Q1862.36 1485.51 1859.95 1484.77 L1859.95 1480.07 Q1862.04 1481.2 1864.26 1481.76 Q1866.48 1482.32 1868.96 1482.32 Q1872.96 1482.32 1875.3 1480.21 Q1877.64 1478.1 1877.64 1474.49 Q1877.64 1470.88 1875.3 1468.77 Q1872.96 1466.67 1868.96 1466.67 Q1867.08 1466.67 1865.21 1467.08 Q1863.36 1467.5 1861.41 1468.38 L1861.41 1451.02 Z" fill="#000000" fill-rule="nonzero" fill-opacity="1" /><path clip-path="url(#clip010)" d="M2255.13 1481.64 L2262.77 1481.64 L2262.77 1455.28 L2254.46 1456.95 L2254.46 1452.69 L2262.72 1451.02 L2267.4 1451.02 L2267.4 1481.64 L2275.04 1481.64 L2275.04 1485.58 L2255.13 1485.58 L2255.13 1481.64 Z" fill="#000000" fill-rule="nonzero" fill-opacity="1" /><path clip-path="url(#clip010)" d="M2284.48 1479.7 L2289.36 1479.7 L2289.36 1485.58 L2284.48 1485.58 L2284.48 1479.7 Z" fill="#000000" fill-rule="nonzero" fill-opacity="1" /><path clip-path="url(#clip010)" d="M2309.55 1454.1 Q2305.94 1454.1 2304.11 1457.66 Q2302.3 1461.2 2302.3 1468.33 Q2302.3 1475.44 2304.11 1479.01 Q2305.94 1482.55 2309.55 1482.55 Q2313.18 1482.55 2314.99 1479.01 Q2316.82 1475.44 2316.82 1468.33 Q2316.82 1461.2 2314.99 1457.66 Q2313.18 1454.1 2309.55 1454.1 M2309.55 1450.39 Q2315.36 1450.39 2318.42 1455 Q2321.49 1459.58 2321.49 1468.33 Q2321.49 1477.06 2318.42 1481.67 Q2315.36 1486.25 2309.55 1486.25 Q2303.74 1486.25 2300.66 1481.67 Q2297.61 1477.06 2297.61 1468.33 Q2297.61 1459.58 2300.66 1455 Q2303.74 1450.39 2309.55 1450.39 Z" fill="#000000" fill-rule="nonzero" fill-opacity="1" /><path clip-path="url(#clip010)" d="M2339.71 1454.1 Q2336.1 1454.1 2334.27 1457.66 Q2332.47 1461.2 2332.47 1468.33 Q2332.47 1475.44 2334.27 1479.01 Q2336.1 1482.55 2339.71 1482.55 Q2343.35 1482.55 2345.15 1479.01 Q2346.98 1475.44 2346.98 1468.33 Q2346.98 1461.2 2345.15 1457.66 Q2343.35 1454.1 2339.71 1454.1 M2339.71 1450.39 Q2345.52 1450.39 2348.58 1455 Q2351.66 1459.58 2351.66 1468.33 Q2351.66 1477.06 2348.58 1481.67 Q2345.52 1486.25 2339.71 1486.25 Q2333.9 1486.25 2330.82 1481.67 Q2327.77 1477.06 2327.77 1468.33 Q2327.77 1459.58 2330.82 1455 Q2333.9 1450.39 2339.71 1450.39 Z" fill="#000000" fill-rule="nonzero" fill-opacity="1" /><path clip-path="url(#clip010)" d="M1363.88 1532.4 L1350.99 1549.74 L1364.55 1568.04 L1357.64 1568.04 L1347.27 1554.04 L1336.89 1568.04 L1329.98 1568.04 L1343.83 1549.39 L1331.16 1532.4 L1338.07 1532.4 L1347.52 1545.1 L1356.97 1532.4 L1363.88 1532.4 Z" fill="#000000" fill-rule="nonzero" fill-opacity="1" /><path clip-path="url(#clip010)" d="M1384.82 1546.5 Q1383.23 1543.76 1380.02 1543.76 Q1376.8 1543.76 1375.21 1546.5 Q1373.59 1549.23 1373.59 1554.71 Q1373.59 1560.21 1375.21 1562.95 Q1376.8 1565.69 1380.02 1565.69 Q1383.23 1565.69 1384.82 1562.95 Q1386.45 1560.21 1386.45 1554.71 Q1386.45 1549.23 1384.82 1546.5 M1380.02 1540.93 Q1385.14 1540.93 1387.85 1544.46 Q1390.55 1547.99 1390.55 1554.71 Q1390.55 1561.46 1387.85 1564.99 Q1385.14 1568.52 1380.02 1568.52 Q1374.86 1568.52 1372.16 1564.99 Q1369.45 1561.46 1369.45 1554.71 Q1369.45 1547.99 1372.16 1544.46 Q1374.86 1540.93 1380.02 1540.93 Z" fill="#000000" fill-rule="nonzero" fill-opacity="1" /><polyline clip-path="url(#clip010)" style="stroke:#000000; stroke-linecap:round; stroke-linejoin:round; stroke-width:4; stroke-opacity:1; fill:none" points="367.782,1423.18 367.782,123.472 "/>
<polyline clip-path="url(#clip010)" style="stroke:#000000; stroke-linecap:round; stroke-linejoin:round; stroke-width:4; stroke-opacity:1; fill:none" points="367.782,1336.91 386.68,1336.91 "/>
<polyline clip-path="url(#clip010)" style="stroke:#000000; stroke-linecap:round; stroke-linejoin:round; stroke-width:4; stroke-opacity:1; fill:none" points="367.782,1086.92 386.68,1086.92 "/>
<polyline clip-path="url(#clip010)" style="stroke:#000000; stroke-linecap:round; stroke-linejoin:round; stroke-width:4; stroke-opacity:1; fill:none" points="367.782,836.92 386.68,836.92 "/>
<polyline clip-path="url(#clip010)" style="stroke:#000000; stroke-linecap:round; stroke-linejoin:round; stroke-width:4; stroke-opacity:1; fill:none" points="367.782,586.923 386.68,586.923 "/>
<polyline clip-path="url(#clip010)" style="stroke:#000000; stroke-linecap:round; stroke-linejoin:round; stroke-width:4; stroke-opacity:1; fill:none" points="367.782,336.926 386.68,336.926 "/>
<path clip-path="url(#clip010)" d="M319.838 1322.71 Q316.227 1322.71 314.398 1326.28 Q312.592 1329.82 312.592 1336.95 Q312.592 1344.05 314.398 1347.62 Q316.227 1351.16 319.838 1351.16 Q323.472 1351.16 325.278 1347.62 Q327.106 1344.05 327.106 1336.95 Q327.106 1329.82 325.278 1326.28 Q323.472 1322.71 319.838 1322.71 M319.838 1319.01 Q325.648 1319.01 328.703 1323.62 Q331.782 1328.2 331.782 1336.95 Q331.782 1345.68 328.703 1350.28 Q325.648 1354.86 319.838 1354.86 Q314.028 1354.86 310.949 1350.28 Q307.893 1345.68 307.893 1336.95 Q307.893 1328.2 310.949 1323.62 Q314.028 1319.01 319.838 1319.01 Z" fill="#000000" fill-rule="nonzero" fill-opacity="1" /><path clip-path="url(#clip010)" d="M130.51 1092.01 Q133.867 1092.73 135.742 1095 Q137.64 1097.26 137.64 1100.6 Q137.64 1105.71 134.121 1108.51 Q130.603 1111.32 124.121 1111.32 Q121.945 1111.32 119.63 1110.88 Q117.339 1110.46 114.885 1109.6 L114.885 1105.09 Q116.83 1106.22 119.144 1106.8 Q121.459 1107.38 123.982 1107.38 Q128.38 1107.38 130.672 1105.64 Q132.987 1103.91 132.987 1100.6 Q132.987 1097.54 130.834 1095.83 Q128.705 1094.09 124.885 1094.09 L120.857 1094.09 L120.857 1090.25 L125.07 1090.25 Q128.519 1090.25 130.348 1088.89 Q132.177 1087.5 132.177 1084.9 Q132.177 1082.24 130.279 1080.83 Q128.404 1079.39 124.885 1079.39 Q122.964 1079.39 120.765 1079.81 Q118.566 1080.23 115.927 1081.11 L115.927 1076.94 Q118.589 1076.2 120.904 1075.83 Q123.242 1075.46 125.302 1075.46 Q130.626 1075.46 133.728 1077.89 Q136.829 1080.3 136.829 1084.42 Q136.829 1087.29 135.186 1089.28 Q133.542 1091.25 130.51 1092.01 Z" fill="#000000" fill-rule="nonzero" fill-opacity="1" /><path clip-path="url(#clip010)" d="M146.505 1104.76 L151.39 1104.76 L151.39 1110.64 L146.505 1110.64 L146.505 1104.76 Z" fill="#000000" fill-rule="nonzero" fill-opacity="1" /><path clip-path="url(#clip010)" d="M171.575 1079.16 Q167.964 1079.16 166.135 1082.73 Q164.329 1086.27 164.329 1093.4 Q164.329 1100.51 166.135 1104.07 Q167.964 1107.61 171.575 1107.61 Q175.209 1107.61 177.014 1104.07 Q178.843 1100.51 178.843 1093.4 Q178.843 1086.27 177.014 1082.73 Q175.209 1079.16 171.575 1079.16 M171.575 1075.46 Q177.385 1075.46 180.44 1080.07 Q183.519 1084.65 183.519 1093.4 Q183.519 1102.13 180.44 1106.73 Q177.385 1111.32 171.575 1111.32 Q165.765 1111.32 162.686 1106.73 Q159.63 1102.13 159.63 1093.4 Q159.63 1084.65 162.686 1080.07 Q165.765 1075.46 171.575 1075.46 Z" fill="#000000" fill-rule="nonzero" fill-opacity="1" /><path clip-path="url(#clip010)" d="M201.737 1079.16 Q198.125 1079.16 196.297 1082.73 Q194.491 1086.27 194.491 1093.4 Q194.491 1100.51 196.297 1104.07 Q198.125 1107.61 201.737 1107.61 Q205.371 1107.61 207.176 1104.07 Q209.005 1100.51 209.005 1093.4 Q209.005 1086.27 207.176 1082.73 Q205.371 1079.16 201.737 1079.16 M201.737 1075.46 Q207.547 1075.46 210.602 1080.07 Q213.681 1084.65 213.681 1093.4 Q213.681 1102.13 210.602 1106.73 Q207.547 1111.32 201.737 1111.32 Q195.926 1111.32 192.848 1106.73 Q189.792 1102.13 189.792 1093.4 Q189.792 1084.65 192.848 1080.07 Q195.926 1075.46 201.737 1075.46 Z" fill="#000000" fill-rule="nonzero" fill-opacity="1" /><path clip-path="url(#clip010)" d="M250.07 1085.18 L239.491 1095.81 L250.07 1106.39 L247.315 1109.19 L236.69 1098.56 L226.065 1109.19 L223.334 1106.39 L233.889 1095.81 L223.334 1085.18 L226.065 1082.38 L236.69 1093.01 L247.315 1082.38 L250.07 1085.18 Z" fill="#000000" fill-rule="nonzero" fill-opacity="1" /><path clip-path="url(#clip010)" d="M262.431 1106.71 L270.07 1106.71 L270.07 1080.34 L261.759 1082.01 L261.759 1077.75 L270.023 1076.08 L274.699 1076.08 L274.699 1106.71 L282.338 1106.71 L282.338 1110.64 L262.431 1110.64 L262.431 1106.71 Z" fill="#000000" fill-rule="nonzero" fill-opacity="1" /><path clip-path="url(#clip010)" d="M301.782 1079.16 Q298.171 1079.16 296.343 1082.73 Q294.537 1086.27 294.537 1093.4 Q294.537 1100.51 296.343 1104.07 Q298.171 1107.61 301.782 1107.61 Q305.417 1107.61 307.222 1104.07 Q309.051 1100.51 309.051 1093.4 Q309.051 1086.27 307.222 1082.73 Q305.417 1079.16 301.782 1079.16 M301.782 1075.46 Q307.592 1075.46 310.648 1080.07 Q313.727 1084.65 313.727 1093.4 Q313.727 1102.13 310.648 1106.73 Q307.592 1111.32 301.782 1111.32 Q295.972 1111.32 292.893 1106.73 Q289.838 1102.13 289.838 1093.4 Q289.838 1084.65 292.893 1080.07 Q295.972 1075.46 301.782 1075.46 Z" fill="#000000" fill-rule="nonzero" fill-opacity="1" /><path clip-path="url(#clip010)" d="M313.727 1055.15 L331.782 1055.15 L331.782 1056.77 L321.588 1083.23 L317.62 1083.23 L327.212 1058.35 L313.727 1058.35 L313.727 1055.15 Z" fill="#000000" fill-rule="nonzero" fill-opacity="1" /><path clip-path="url(#clip010)" d="M126.922 841.504 Q123.774 841.504 121.922 843.657 Q120.093 845.81 120.093 849.56 Q120.093 853.287 121.922 855.462 Q123.774 857.615 126.922 857.615 Q130.07 857.615 131.899 855.462 Q133.751 853.287 133.751 849.56 Q133.751 845.81 131.899 843.657 Q130.07 841.504 126.922 841.504 M136.204 826.851 L136.204 831.111 Q134.445 830.277 132.64 829.838 Q130.857 829.398 129.098 829.398 Q124.468 829.398 122.015 832.523 Q119.584 835.648 119.237 841.967 Q120.603 839.953 122.663 838.888 Q124.723 837.801 127.2 837.801 Q132.408 837.801 135.417 840.972 Q138.45 844.12 138.45 849.56 Q138.45 854.884 135.302 858.101 Q132.154 861.319 126.922 861.319 Q120.927 861.319 117.756 856.736 Q114.584 852.129 114.584 843.402 Q114.584 835.208 118.473 830.347 Q122.362 825.463 128.913 825.463 Q130.672 825.463 132.455 825.81 Q134.26 826.157 136.204 826.851 Z" fill="#000000" fill-rule="nonzero" fill-opacity="1" /><path clip-path="url(#clip010)" d="M146.505 854.768 L151.39 854.768 L151.39 860.648 L146.505 860.648 L146.505 854.768 Z" fill="#000000" fill-rule="nonzero" fill-opacity="1" /><path clip-path="url(#clip010)" d="M171.575 829.166 Q167.964 829.166 166.135 832.731 Q164.329 836.273 164.329 843.402 Q164.329 850.509 166.135 854.074 Q167.964 857.615 171.575 857.615 Q175.209 857.615 177.014 854.074 Q178.843 850.509 178.843 843.402 Q178.843 836.273 177.014 832.731 Q175.209 829.166 171.575 829.166 M171.575 825.463 Q177.385 825.463 180.44 830.069 Q183.519 834.652 183.519 843.402 Q183.519 852.129 180.44 856.736 Q177.385 861.319 171.575 861.319 Q165.765 861.319 162.686 856.736 Q159.63 852.129 159.63 843.402 Q159.63 834.652 162.686 830.069 Q165.765 825.463 171.575 825.463 Z" fill="#000000" fill-rule="nonzero" fill-opacity="1" /><path clip-path="url(#clip010)" d="M201.737 829.166 Q198.125 829.166 196.297 832.731 Q194.491 836.273 194.491 843.402 Q194.491 850.509 196.297 854.074 Q198.125 857.615 201.737 857.615 Q205.371 857.615 207.176 854.074 Q209.005 850.509 209.005 843.402 Q209.005 836.273 207.176 832.731 Q205.371 829.166 201.737 829.166 M201.737 825.463 Q207.547 825.463 210.602 830.069 Q213.681 834.652 213.681 843.402 Q213.681 852.129 210.602 856.736 Q207.547 861.319 201.737 861.319 Q195.926 861.319 192.848 856.736 Q189.792 852.129 189.792 843.402 Q189.792 834.652 192.848 830.069 Q195.926 825.463 201.737 825.463 Z" fill="#000000" fill-rule="nonzero" fill-opacity="1" /><path clip-path="url(#clip010)" d="M250.07 835.185 L239.491 845.81 L250.07 856.388 L247.315 859.189 L236.69 848.564 L226.065 859.189 L223.334 856.388 L233.889 845.81 L223.334 835.185 L226.065 832.384 L236.69 843.009 L247.315 832.384 L250.07 835.185 Z" fill="#000000" fill-rule="nonzero" fill-opacity="1" /><path clip-path="url(#clip010)" d="M262.431 856.712 L270.07 856.712 L270.07 830.347 L261.759 832.014 L261.759 827.754 L270.023 826.088 L274.699 826.088 L274.699 856.712 L282.338 856.712 L282.338 860.648 L262.431 860.648 L262.431 856.712 Z" fill="#000000" fill-rule="nonzero" fill-opacity="1" /><path clip-path="url(#clip010)" d="M301.782 829.166 Q298.171 829.166 296.343 832.731 Q294.537 836.273 294.537 843.402 Q294.537 850.509 296.343 854.074 Q298.171 857.615 301.782 857.615 Q305.417 857.615 307.222 854.074 Q309.051 850.509 309.051 843.402 Q309.051 836.273 307.222 832.731 Q305.417 829.166 301.782 829.166 M301.782 825.463 Q307.592 825.463 310.648 830.069 Q313.727 834.652 313.727 843.402 Q313.727 852.129 310.648 856.736 Q307.592 861.319 301.782 861.319 Q295.972 861.319 292.893 856.736 Q289.838 852.129 289.838 843.402 Q289.838 834.652 292.893 830.069 Q295.972 825.463 301.782 825.463 Z" fill="#000000" fill-rule="nonzero" fill-opacity="1" /><path clip-path="url(#clip010)" d="M313.727 805.157 L331.782 805.157 L331.782 806.775 L321.588 833.237 L317.62 833.237 L327.212 808.355 L313.727 808.355 L313.727 805.157 Z" fill="#000000" fill-rule="nonzero" fill-opacity="1" /><path clip-path="url(#clip010)" d="M116.482 609.933 L116.482 605.674 Q118.242 606.507 120.047 606.947 Q121.853 607.387 123.589 607.387 Q128.218 607.387 130.649 604.285 Q133.103 601.16 133.45 594.818 Q132.107 596.808 130.047 597.873 Q127.987 598.938 125.487 598.938 Q120.302 598.938 117.269 595.813 Q114.26 592.665 114.26 587.225 Q114.26 581.901 117.408 578.683 Q120.556 575.466 125.788 575.466 Q131.783 575.466 134.931 580.072 Q138.103 584.656 138.103 593.406 Q138.103 601.577 134.214 606.461 Q130.348 611.322 123.797 611.322 Q122.038 611.322 120.232 610.975 Q118.427 610.628 116.482 609.933 M125.788 595.281 Q128.936 595.281 130.765 593.128 Q132.617 590.975 132.617 587.225 Q132.617 583.498 130.765 581.345 Q128.936 579.17 125.788 579.17 Q122.64 579.17 120.788 581.345 Q118.959 583.498 118.959 587.225 Q118.959 590.975 120.788 593.128 Q122.64 595.281 125.788 595.281 Z" fill="#000000" fill-rule="nonzero" fill-opacity="1" /><path clip-path="url(#clip010)" d="M146.505 604.771 L151.39 604.771 L151.39 610.651 L146.505 610.651 L146.505 604.771 Z" fill="#000000" fill-rule="nonzero" fill-opacity="1" /><path clip-path="url(#clip010)" d="M171.575 579.17 Q167.964 579.17 166.135 582.734 Q164.329 586.276 164.329 593.406 Q164.329 600.512 166.135 604.077 Q167.964 607.618 171.575 607.618 Q175.209 607.618 177.014 604.077 Q178.843 600.512 178.843 593.406 Q178.843 586.276 177.014 582.734 Q175.209 579.17 171.575 579.17 M171.575 575.466 Q177.385 575.466 180.44 580.072 Q183.519 584.656 183.519 593.406 Q183.519 602.132 180.44 606.739 Q177.385 611.322 171.575 611.322 Q165.765 611.322 162.686 606.739 Q159.63 602.132 159.63 593.406 Q159.63 584.656 162.686 580.072 Q165.765 575.466 171.575 575.466 Z" fill="#000000" fill-rule="nonzero" fill-opacity="1" /><path clip-path="url(#clip010)" d="M201.737 579.17 Q198.125 579.17 196.297 582.734 Q194.491 586.276 194.491 593.406 Q194.491 600.512 196.297 604.077 Q198.125 607.618 201.737 607.618 Q205.371 607.618 207.176 604.077 Q209.005 600.512 209.005 593.406 Q209.005 586.276 207.176 582.734 Q205.371 579.17 201.737 579.17 M201.737 575.466 Q207.547 575.466 210.602 580.072 Q213.681 584.656 213.681 593.406 Q213.681 602.132 210.602 606.739 Q207.547 611.322 201.737 611.322 Q195.926 611.322 192.848 606.739 Q189.792 602.132 189.792 593.406 Q189.792 584.656 192.848 580.072 Q195.926 575.466 201.737 575.466 Z" fill="#000000" fill-rule="nonzero" fill-opacity="1" /><path clip-path="url(#clip010)" d="M250.07 585.188 L239.491 595.813 L250.07 606.392 L247.315 609.193 L236.69 598.568 L226.065 609.193 L223.334 606.392 L233.889 595.813 L223.334 585.188 L226.065 582.387 L236.69 593.012 L247.315 582.387 L250.07 585.188 Z" fill="#000000" fill-rule="nonzero" fill-opacity="1" /><path clip-path="url(#clip010)" d="M262.431 606.716 L270.07 606.716 L270.07 580.35 L261.759 582.017 L261.759 577.757 L270.023 576.091 L274.699 576.091 L274.699 606.716 L282.338 606.716 L282.338 610.651 L262.431 610.651 L262.431 606.716 Z" fill="#000000" fill-rule="nonzero" fill-opacity="1" /><path clip-path="url(#clip010)" d="M301.782 579.17 Q298.171 579.17 296.343 582.734 Q294.537 586.276 294.537 593.406 Q294.537 600.512 296.343 604.077 Q298.171 607.618 301.782 607.618 Q305.417 607.618 307.222 604.077 Q309.051 600.512 309.051 593.406 Q309.051 586.276 307.222 582.734 Q305.417 579.17 301.782 579.17 M301.782 575.466 Q307.592 575.466 310.648 580.072 Q313.727 584.656 313.727 593.406 Q313.727 602.132 310.648 606.739 Q307.592 611.322 301.782 611.322 Q295.972 611.322 292.893 606.739 Q289.838 602.132 289.838 593.406 Q289.838 584.656 292.893 580.072 Q295.972 575.466 301.782 575.466 Z" fill="#000000" fill-rule="nonzero" fill-opacity="1" /><path clip-path="url(#clip010)" d="M313.727 555.16 L331.782 555.16 L331.782 556.778 L321.588 583.24 L317.62 583.24 L327.212 558.358 L313.727 558.358 L313.727 555.16 Z" fill="#000000" fill-rule="nonzero" fill-opacity="1" /><path clip-path="url(#clip010)" d="M115.95 356.719 L123.589 356.719 L123.589 330.353 L115.279 332.02 L115.279 327.761 L123.543 326.094 L128.218 326.094 L128.218 356.719 L135.857 356.719 L135.857 360.654 L115.95 360.654 L115.95 356.719 Z" fill="#000000" fill-rule="nonzero" fill-opacity="1" /><path clip-path="url(#clip010)" d="M145.302 354.774 L150.186 354.774 L150.186 360.654 L145.302 360.654 L145.302 354.774 Z" fill="#000000" fill-rule="nonzero" fill-opacity="1" /><path clip-path="url(#clip010)" d="M164.399 356.719 L180.718 356.719 L180.718 360.654 L158.774 360.654 L158.774 356.719 Q161.436 353.964 166.019 349.335 Q170.626 344.682 171.806 343.339 Q174.052 340.816 174.931 339.08 Q175.834 337.321 175.834 335.631 Q175.834 332.876 173.889 331.14 Q171.968 329.404 168.866 329.404 Q166.667 329.404 164.214 330.168 Q161.783 330.932 159.005 332.483 L159.005 327.761 Q161.829 326.626 164.283 326.048 Q166.737 325.469 168.774 325.469 Q174.144 325.469 177.339 328.154 Q180.533 330.839 180.533 335.33 Q180.533 337.46 179.723 339.381 Q178.936 341.279 176.829 343.872 Q176.251 344.543 173.149 347.761 Q170.047 350.955 164.399 356.719 Z" fill="#000000" fill-rule="nonzero" fill-opacity="1" /><path clip-path="url(#clip010)" d="M200.533 329.173 Q196.922 329.173 195.093 332.738 Q193.288 336.279 193.288 343.409 Q193.288 350.515 195.093 354.08 Q196.922 357.622 200.533 357.622 Q204.167 357.622 205.973 354.08 Q207.801 350.515 207.801 343.409 Q207.801 336.279 205.973 332.738 Q204.167 329.173 200.533 329.173 M200.533 325.469 Q206.343 325.469 209.399 330.076 Q212.477 334.659 212.477 343.409 Q212.477 352.136 209.399 356.742 Q206.343 361.325 200.533 361.325 Q194.723 361.325 191.644 356.742 Q188.588 352.136 188.588 343.409 Q188.588 334.659 191.644 330.076 Q194.723 325.469 200.533 325.469 Z" fill="#000000" fill-rule="nonzero" fill-opacity="1" /><path clip-path="url(#clip010)" d="M248.866 335.191 L238.287 345.816 L248.866 356.395 L246.111 359.196 L235.486 348.571 L224.861 359.196 L222.13 356.395 L232.685 345.816 L222.13 335.191 L224.861 332.39 L235.486 343.015 L246.111 332.39 L248.866 335.191 Z" fill="#000000" fill-rule="nonzero" fill-opacity="1" /><path clip-path="url(#clip010)" d="M261.227 356.719 L268.866 356.719 L268.866 330.353 L260.556 332.02 L260.556 327.761 L268.82 326.094 L273.495 326.094 L273.495 356.719 L281.134 356.719 L281.134 360.654 L261.227 360.654 L261.227 356.719 Z" fill="#000000" fill-rule="nonzero" fill-opacity="1" /><path clip-path="url(#clip010)" d="M300.579 329.173 Q296.968 329.173 295.139 332.738 Q293.333 336.279 293.333 343.409 Q293.333 350.515 295.139 354.08 Q296.968 357.622 300.579 357.622 Q304.213 357.622 306.018 354.08 Q307.847 350.515 307.847 343.409 Q307.847 336.279 306.018 332.738 Q304.213 329.173 300.579 329.173 M300.579 325.469 Q306.389 325.469 309.444 330.076 Q312.523 334.659 312.523 343.409 Q312.523 352.136 309.444 356.742 Q306.389 361.325 300.579 361.325 Q294.768 361.325 291.69 356.742 Q288.634 352.136 288.634 343.409 Q288.634 334.659 291.69 330.076 Q294.768 325.469 300.579 325.469 Z" fill="#000000" fill-rule="nonzero" fill-opacity="1" /><path clip-path="url(#clip010)" d="M322.153 319.909 Q319.444 319.909 317.883 321.357 Q316.341 322.805 316.341 325.344 Q316.341 327.883 317.883 329.332 Q319.444 330.78 322.153 330.78 Q324.861 330.78 326.422 329.332 Q327.983 327.865 327.983 325.344 Q327.983 322.805 326.422 321.357 Q324.88 319.909 322.153 319.909 M318.353 318.291 Q315.908 317.69 314.535 316.016 Q313.181 314.342 313.181 311.934 Q313.181 308.568 315.57 306.612 Q317.977 304.656 322.153 304.656 Q326.347 304.656 328.735 306.612 Q331.124 308.568 331.124 311.934 Q331.124 314.342 329.751 316.016 Q328.397 317.69 325.971 318.291 Q328.716 318.931 330.24 320.793 Q331.782 322.655 331.782 325.344 Q331.782 329.426 329.281 331.607 Q326.798 333.789 322.153 333.789 Q317.507 333.789 315.006 331.607 Q312.523 329.426 312.523 325.344 Q312.523 322.655 314.065 320.793 Q315.607 318.931 318.353 318.291 M316.962 312.292 Q316.962 314.473 318.316 315.696 Q319.689 316.918 322.153 316.918 Q324.598 316.918 325.971 315.696 Q327.362 314.473 327.362 312.292 Q327.362 310.11 325.971 308.888 Q324.598 307.665 322.153 307.665 Q319.689 307.665 318.316 308.888 Q316.962 310.11 316.962 312.292 Z" fill="#000000" fill-rule="nonzero" fill-opacity="1" /><path clip-path="url(#clip010)" d="M29.4065 1034.72 L34.9447 1034.72 Q33.6716 1037.2 33.035 1039.87 Q32.3984 1042.55 32.3984 1045.41 Q32.3984 1049.77 33.7352 1051.97 Q35.072 1054.13 37.7456 1054.13 Q39.7826 1054.13 40.9603 1052.57 Q42.1061 1051.01 43.1565 1046.3 L43.6021 1044.3 Q44.9389 1038.06 47.3897 1035.45 Q49.8086 1032.81 54.1691 1032.81 Q59.1344 1032.81 62.0308 1036.75 Q64.9272 1040.67 64.9272 1047.54 Q64.9272 1050.41 64.3543 1053.53 Q63.8132 1056.62 62.6992 1060.05 L56.6518 1060.05 Q58.3387 1056.81 59.198 1053.66 Q60.0256 1050.5 60.0256 1047.42 Q60.0256 1043.28 58.6251 1041.05 Q57.1929 1038.82 54.6147 1038.82 Q52.2276 1038.82 50.9545 1040.45 Q49.6813 1042.04 48.5037 1047.48 L48.0262 1049.52 Q46.8804 1054.96 44.5251 1057.38 Q42.138 1059.8 38.0002 1059.8 Q32.9713 1059.8 30.2341 1056.23 Q27.4968 1052.67 27.4968 1046.11 Q27.4968 1042.87 27.9743 1040 Q28.4517 1037.14 29.4065 1034.72 Z" fill="#000000" fill-rule="nonzero" fill-opacity="1" /><path clip-path="url(#clip010)" d="M44.7161 992.991 L47.5806 992.991 L47.5806 1019.92 Q53.6281 1019.54 56.8109 1016.29 Q59.9619 1013.01 59.9619 1007.19 Q59.9619 1003.81 59.1344 1000.66 Q58.3069 997.478 56.6518 994.359 L62.1899 994.359 Q63.5267 997.51 64.227 1000.82 Q64.9272 1004.13 64.9272 1007.54 Q64.9272 1016.07 59.9619 1021.06 Q54.9967 1026.03 46.5303 1026.03 Q37.7774 1026.03 32.6531 1021.32 Q27.4968 1016.58 27.4968 1008.55 Q27.4968 1001.36 32.1438 997.192 Q36.7589 992.991 44.7161 992.991 M42.9973 998.847 Q38.1912 998.911 35.3266 1001.55 Q32.4621 1004.16 32.4621 1008.49 Q32.4621 1013.39 35.2312 1016.35 Q38.0002 1019.28 43.0292 1019.73 L42.9973 998.847 Z" fill="#000000" fill-rule="nonzero" fill-opacity="1" /><path clip-path="url(#clip010)" d="M29.7248 957.725 L35.1993 957.725 Q33.8307 960.207 33.1623 962.722 Q32.4621 965.204 32.4621 967.751 Q32.4621 973.448 36.0905 976.599 Q39.6872 979.75 46.212 979.75 Q52.7369 979.75 56.3653 976.599 Q59.9619 973.448 59.9619 967.751 Q59.9619 965.204 59.2935 962.722 Q58.5933 960.207 57.2247 957.725 L62.6355 957.725 Q63.7814 960.175 64.3543 962.817 Q64.9272 965.427 64.9272 968.387 Q64.9272 976.44 59.8664 981.182 Q54.8057 985.925 46.212 985.925 Q37.491 985.925 32.4939 981.15 Q27.4968 976.344 27.4968 968.005 Q27.4968 965.3 28.0697 962.722 Q28.6108 960.144 29.7248 957.725 Z" fill="#000000" fill-rule="nonzero" fill-opacity="1" /><path clip-path="url(#clip010)" d="M32.4621 933.726 Q32.4621 938.436 36.1542 941.174 Q39.8145 943.911 46.212 943.911 Q52.6095 943.911 56.3017 941.206 Q59.9619 938.468 59.9619 933.726 Q59.9619 929.047 56.2698 926.31 Q52.5777 923.573 46.212 923.573 Q39.8781 923.573 36.186 926.31 Q32.4621 929.047 32.4621 933.726 M27.4968 933.726 Q27.4968 926.087 32.4621 921.727 Q37.4273 917.366 46.212 917.366 Q54.9649 917.366 59.9619 921.727 Q64.9272 926.087 64.9272 933.726 Q64.9272 941.397 59.9619 945.757 Q54.9649 950.086 46.212 950.086 Q37.4273 950.086 32.4621 945.757 Q27.4968 941.397 27.4968 933.726 Z" fill="#000000" fill-rule="nonzero" fill-opacity="1" /><path clip-path="url(#clip010)" d="M42.4881 878.026 L64.0042 878.026 L64.0042 883.882 L42.679 883.882 Q37.6183 883.882 35.1038 885.856 Q32.5894 887.829 32.5894 891.776 Q32.5894 896.518 35.6131 899.256 Q38.6368 901.993 43.8567 901.993 L64.0042 901.993 L64.0042 907.881 L28.3562 907.881 L28.3562 901.993 L33.8944 901.993 Q30.6797 899.892 29.0883 897.059 Q27.4968 894.195 27.4968 890.471 Q27.4968 884.328 31.3163 881.177 Q35.1038 878.026 42.4881 878.026 Z" fill="#000000" fill-rule="nonzero" fill-opacity="1" /><path clip-path="url(#clip010)" d="M33.7671 842.887 L14.479 842.887 L14.479 837.031 L64.0042 837.031 L64.0042 842.887 L58.657 842.887 Q61.8398 844.733 63.3994 847.566 Q64.9272 850.367 64.9272 854.314 Q64.9272 860.775 59.771 864.849 Q54.6147 868.891 46.212 868.891 Q37.8093 868.891 32.6531 864.849 Q27.4968 860.775 27.4968 854.314 Q27.4968 850.367 29.0564 847.566 Q30.5842 844.733 33.7671 842.887 M46.212 862.844 Q52.6732 862.844 56.3653 860.202 Q60.0256 857.528 60.0256 852.881 Q60.0256 848.234 56.3653 845.561 Q52.6732 842.887 46.212 842.887 Q39.7508 842.887 36.0905 845.561 Q32.3984 848.234 32.3984 852.881 Q32.3984 857.528 36.0905 860.202 Q39.7508 862.844 46.212 862.844 Z" fill="#000000" fill-rule="nonzero" fill-opacity="1" /><path clip-path="url(#clip010)" d="M33.7671 780.79 L14.479 780.79 L14.479 774.933 L64.0042 774.933 L64.0042 780.79 L58.657 780.79 Q61.8398 782.636 63.3994 785.469 Q64.9272 788.269 64.9272 792.216 Q64.9272 798.677 59.771 802.751 Q54.6147 806.794 46.212 806.794 Q37.8093 806.794 32.6531 802.751 Q27.4968 798.677 27.4968 792.216 Q27.4968 788.269 29.0564 785.469 Q30.5842 782.636 33.7671 780.79 M46.212 800.746 Q52.6732 800.746 56.3653 798.104 Q60.0256 795.431 60.0256 790.784 Q60.0256 786.137 56.3653 783.463 Q52.6732 780.79 46.212 780.79 Q39.7508 780.79 36.0905 783.463 Q32.3984 786.137 32.3984 790.784 Q32.3984 795.431 36.0905 798.104 Q39.7508 800.746 46.212 800.746 Z" fill="#000000" fill-rule="nonzero" fill-opacity="1" /><path clip-path="url(#clip010)" d="M44.7161 732.379 L47.5806 732.379 L47.5806 759.306 Q53.6281 758.924 56.8109 755.677 Q59.9619 752.399 59.9619 746.574 Q59.9619 743.2 59.1344 740.049 Q58.3069 736.866 56.6518 733.747 L62.1899 733.747 Q63.5267 736.898 64.227 740.208 Q64.9272 743.519 64.9272 746.924 Q64.9272 755.454 59.9619 760.451 Q54.9967 765.417 46.5303 765.417 Q37.7774 765.417 32.6531 760.706 Q27.4968 755.964 27.4968 747.943 Q27.4968 740.749 32.1438 736.58 Q36.7589 732.379 44.7161 732.379 M42.9973 738.235 Q38.1912 738.299 35.3266 740.94 Q32.4621 743.55 32.4621 747.879 Q32.4621 752.781 35.2312 755.741 Q38.0002 758.669 43.0292 759.115 L42.9973 738.235 Z" fill="#000000" fill-rule="nonzero" fill-opacity="1" /><path clip-path="url(#clip010)" d="M33.8307 702.11 Q33.2578 703.096 33.0032 704.274 Q32.7167 705.42 32.7167 706.82 Q32.7167 711.786 35.9632 714.459 Q39.1779 717.101 45.2253 717.101 L64.0042 717.101 L64.0042 722.989 L28.3562 722.989 L28.3562 717.101 L33.8944 717.101 Q30.6479 715.255 29.0883 712.295 Q27.4968 709.335 27.4968 705.102 Q27.4968 704.497 27.5923 703.765 Q27.656 703.033 27.8151 702.141 L33.8307 702.11 Z" fill="#000000" fill-rule="nonzero" fill-opacity="1" /><path clip-path="url(#clip010)" d="M28.3562 695.967 L28.3562 690.11 L64.0042 690.11 L64.0042 695.967 L28.3562 695.967 M14.479 695.967 L14.479 690.11 L21.895 690.11 L21.895 695.967 L14.479 695.967 Z" fill="#000000" fill-rule="nonzero" fill-opacity="1" /><path clip-path="url(#clip010)" d="M28.3562 682.058 L28.3562 675.851 L58.275 664.711 L28.3562 653.571 L28.3562 647.365 L64.0042 660.733 L64.0042 668.69 L28.3562 682.058 Z" fill="#000000" fill-rule="nonzero" fill-opacity="1" /><path clip-path="url(#clip010)" d="M46.0847 623.079 Q46.0847 630.177 47.7079 632.914 Q49.3312 635.652 53.2461 635.652 Q56.3653 635.652 58.2114 633.615 Q60.0256 631.546 60.0256 628.013 Q60.0256 623.143 56.5881 620.215 Q53.1188 617.255 47.3897 617.255 L46.0847 617.255 L46.0847 623.079 M43.6657 611.398 L64.0042 611.398 L64.0042 617.255 L58.5933 617.255 Q61.8398 619.26 63.3994 622.252 Q64.9272 625.244 64.9272 629.572 Q64.9272 635.047 61.8716 638.293 Q58.7843 641.508 53.6281 641.508 Q47.6125 641.508 44.5569 637.498 Q41.5014 633.455 41.5014 625.467 L41.5014 617.255 L40.9285 617.255 Q36.8862 617.255 34.6901 619.928 Q32.4621 622.57 32.4621 627.376 Q32.4621 630.432 33.1941 633.328 Q33.9262 636.225 35.3903 638.898 L29.9795 638.898 Q28.7381 635.683 28.1334 632.66 Q27.4968 629.636 27.4968 626.772 Q27.4968 619.037 31.5072 615.218 Q35.5176 611.398 43.6657 611.398 Z" fill="#000000" fill-rule="nonzero" fill-opacity="1" /><path clip-path="url(#clip010)" d="M18.2347 593.543 L28.3562 593.543 L28.3562 581.48 L32.9077 581.48 L32.9077 593.543 L52.2594 593.543 Q56.6199 593.543 57.8613 592.365 Q59.1026 591.155 59.1026 587.495 L59.1026 581.48 L64.0042 581.48 L64.0042 587.495 Q64.0042 594.275 61.4897 596.853 Q58.9434 599.431 52.2594 599.431 L32.9077 599.431 L32.9077 603.728 L28.3562 603.728 L28.3562 599.431 L18.2347 599.431 L18.2347 593.543 Z" fill="#000000" fill-rule="nonzero" fill-opacity="1" /><path clip-path="url(#clip010)" d="M28.3562 573.777 L28.3562 567.921 L64.0042 567.921 L64.0042 573.777 L28.3562 573.777 M14.479 573.777 L14.479 567.921 L21.895 567.921 L21.895 573.777 L14.479 573.777 Z" fill="#000000" fill-rule="nonzero" fill-opacity="1" /><path clip-path="url(#clip010)" d="M28.3562 559.868 L28.3562 553.661 L58.275 542.521 L28.3562 531.381 L28.3562 525.175 L64.0042 538.543 L64.0042 546.5 L28.3562 559.868 Z" fill="#000000" fill-rule="nonzero" fill-opacity="1" /><path clip-path="url(#clip010)" d="M44.7161 486.599 L47.5806 486.599 L47.5806 513.526 Q53.6281 513.144 56.8109 509.897 Q59.9619 506.619 59.9619 500.794 Q59.9619 497.42 59.1344 494.269 Q58.3069 491.086 56.6518 487.967 L62.1899 487.967 Q63.5267 491.118 64.227 494.428 Q64.9272 497.739 64.9272 501.144 Q64.9272 509.674 59.9619 514.671 Q54.9967 519.637 46.5303 519.637 Q37.7774 519.637 32.6531 514.926 Q27.4968 510.184 27.4968 502.163 Q27.4968 494.97 32.1438 490.8 Q36.7589 486.599 44.7161 486.599 M42.9973 492.455 Q38.1912 492.519 35.3266 495.161 Q32.4621 497.77 32.4621 502.099 Q32.4621 507.001 35.2312 509.961 Q38.0002 512.889 43.0292 513.335 L42.9973 492.455 Z" fill="#000000" fill-rule="nonzero" fill-opacity="1" /><path clip-path="url(#clip010)" d="M860.124 14.0809 L860.124 22.0612 Q855.466 19.8332 851.334 18.7395 Q847.202 17.6457 843.353 17.6457 Q836.669 17.6457 833.024 20.2383 Q829.418 22.8309 829.418 27.611 Q829.418 31.6214 831.808 33.6873 Q834.239 35.7128 840.963 36.9686 L845.905 37.9813 Q855.061 39.7232 859.395 44.1387 Q863.77 48.5136 863.77 55.8863 Q863.77 64.6767 857.856 69.2137 Q851.982 73.7508 840.599 73.7508 Q836.305 73.7508 831.444 72.7785 Q826.623 71.8063 821.438 69.9024 L821.438 61.4765 Q826.421 64.2716 831.201 65.6895 Q835.981 67.1073 840.599 67.1073 Q847.607 67.1073 851.415 64.3527 Q855.223 61.598 855.223 56.4939 Q855.223 52.0379 852.468 49.5264 Q849.754 47.0148 843.515 45.759 L838.533 44.7868 Q829.378 42.9639 825.286 39.075 Q821.195 35.1862 821.195 28.2591 Q821.195 20.2383 826.826 15.6203 Q832.497 11.0023 842.422 11.0023 Q846.675 11.0023 851.091 11.7719 Q855.506 12.5416 860.124 14.0809 Z" fill="#000000" fill-rule="nonzero" fill-opacity="1" /><path clip-path="url(#clip010)" d="M915.014 48.0275 L915.014 51.6733 L880.743 51.6733 Q881.229 59.3701 885.361 63.421 Q889.534 67.4314 896.947 67.4314 Q901.241 67.4314 905.251 66.3781 Q909.302 65.3249 913.272 63.2184 L913.272 70.267 Q909.262 71.9684 905.049 72.8596 Q900.836 73.7508 896.501 73.7508 Q885.645 73.7508 879.285 67.4314 Q872.965 61.1119 872.965 50.3365 Q872.965 39.1965 878.961 32.6746 Q884.997 26.1121 895.205 26.1121 Q904.36 26.1121 909.667 32.0264 Q915.014 37.9003 915.014 48.0275 M907.56 45.84 Q907.479 39.7232 904.117 36.0774 Q900.795 32.4315 895.286 32.4315 Q889.048 32.4315 885.28 35.9558 Q881.553 39.4801 880.986 45.8805 L907.56 45.84 Z" fill="#000000" fill-rule="nonzero" fill-opacity="1" /><path clip-path="url(#clip010)" d="M959.898 28.9478 L959.898 35.9153 Q956.738 34.1734 953.538 33.3227 Q950.378 32.4315 947.138 32.4315 Q939.886 32.4315 935.876 37.0496 Q931.866 41.6271 931.866 49.9314 Q931.866 58.2358 935.876 62.8538 Q939.886 67.4314 947.138 67.4314 Q950.378 67.4314 953.538 66.5807 Q956.738 65.6895 959.898 63.9476 L959.898 70.8341 Q956.779 72.2924 953.416 73.0216 Q950.095 73.7508 946.327 73.7508 Q936.079 73.7508 930.043 67.3098 Q924.007 60.8689 924.007 49.9314 Q924.007 38.832 930.083 32.472 Q936.2 26.1121 946.813 26.1121 Q950.257 26.1121 953.538 26.8413 Q956.819 27.5299 959.898 28.9478 Z" fill="#000000" fill-rule="nonzero" fill-opacity="1" /><path clip-path="url(#clip010)" d="M990.442 32.4315 Q984.446 32.4315 980.963 37.1306 Q977.479 41.7891 977.479 49.9314 Q977.479 58.0738 980.922 62.7728 Q984.406 67.4314 990.442 67.4314 Q996.397 67.4314 999.88 62.7323 Q1003.36 58.0333 1003.36 49.9314 Q1003.36 41.8701 999.88 37.1711 Q996.397 32.4315 990.442 32.4315 M990.442 26.1121 Q1000.16 26.1121 1005.71 32.4315 Q1011.26 38.7509 1011.26 49.9314 Q1011.26 61.0714 1005.71 67.4314 Q1000.16 73.7508 990.442 73.7508 Q980.679 73.7508 975.129 67.4314 Q969.62 61.0714 969.62 49.9314 Q969.62 38.7509 975.129 32.4315 Q980.679 26.1121 990.442 26.1121 Z" fill="#000000" fill-rule="nonzero" fill-opacity="1" /><path clip-path="url(#clip010)" d="M1061.33 45.1919 L1061.33 72.576 L1053.88 72.576 L1053.88 45.4349 Q1053.88 38.994 1051.37 35.7938 Q1048.86 32.5936 1043.83 32.5936 Q1037.8 32.5936 1034.31 36.4419 Q1030.83 40.2903 1030.83 46.9338 L1030.83 72.576 L1023.34 72.576 L1023.34 27.2059 L1030.83 27.2059 L1030.83 34.2544 Q1033.5 30.163 1037.11 28.1376 Q1040.75 26.1121 1045.49 26.1121 Q1053.31 26.1121 1057.32 30.9732 Q1061.33 35.7938 1061.33 45.1919 Z" fill="#000000" fill-rule="nonzero" fill-opacity="1" /><path clip-path="url(#clip010)" d="M1106.05 34.0924 L1106.05 9.54393 L1113.51 9.54393 L1113.51 72.576 L1106.05 72.576 L1106.05 65.7705 Q1103.71 69.8214 1100.1 71.8063 Q1096.53 73.7508 1091.51 73.7508 Q1083.29 73.7508 1078.1 67.1883 Q1072.96 60.6258 1072.96 49.9314 Q1072.96 39.2371 1078.1 32.6746 Q1083.29 26.1121 1091.51 26.1121 Q1096.53 26.1121 1100.1 28.0971 Q1103.71 30.0415 1106.05 34.0924 M1080.66 49.9314 Q1080.66 58.1548 1084.02 62.8538 Q1087.42 67.5124 1093.33 67.5124 Q1099.25 67.5124 1102.65 62.8538 Q1106.05 58.1548 1106.05 49.9314 Q1106.05 41.7081 1102.65 37.0496 Q1099.25 32.3505 1093.33 32.3505 Q1087.42 32.3505 1084.02 37.0496 Q1080.66 41.7081 1080.66 49.9314 Z" fill="#000000" fill-rule="nonzero" fill-opacity="1" /><path clip-path="url(#clip010)" d="M1185.09 34.0924 L1185.09 9.54393 L1192.54 9.54393 L1192.54 72.576 L1185.09 72.576 L1185.09 65.7705 Q1182.74 69.8214 1179.13 71.8063 Q1175.57 73.7508 1170.54 73.7508 Q1162.32 73.7508 1157.14 67.1883 Q1151.99 60.6258 1151.99 49.9314 Q1151.99 39.2371 1157.14 32.6746 Q1162.32 26.1121 1170.54 26.1121 Q1175.57 26.1121 1179.13 28.0971 Q1182.74 30.0415 1185.09 34.0924 M1159.69 49.9314 Q1159.69 58.1548 1163.05 62.8538 Q1166.45 67.5124 1172.37 67.5124 Q1178.28 67.5124 1181.68 62.8538 Q1185.09 58.1548 1185.09 49.9314 Q1185.09 41.7081 1181.68 37.0496 Q1178.28 32.3505 1172.37 32.3505 Q1166.45 32.3505 1163.05 37.0496 Q1159.69 41.7081 1159.69 49.9314 Z" fill="#000000" fill-rule="nonzero" fill-opacity="1" /><path clip-path="url(#clip010)" d="M1246.7 48.0275 L1246.7 51.6733 L1212.43 51.6733 Q1212.92 59.3701 1217.05 63.421 Q1221.22 67.4314 1228.63 67.4314 Q1232.93 67.4314 1236.94 66.3781 Q1240.99 65.3249 1244.96 63.2184 L1244.96 70.267 Q1240.95 71.9684 1236.74 72.8596 Q1232.52 73.7508 1228.19 73.7508 Q1217.33 73.7508 1210.97 67.4314 Q1204.65 61.1119 1204.65 50.3365 Q1204.65 39.1965 1210.65 32.6746 Q1216.68 26.1121 1226.89 26.1121 Q1236.05 26.1121 1241.35 32.0264 Q1246.7 37.9003 1246.7 48.0275 M1239.25 45.84 Q1239.17 39.7232 1235.8 36.0774 Q1232.48 32.4315 1226.97 32.4315 Q1220.74 32.4315 1216.97 35.9558 Q1213.24 39.4801 1212.67 45.8805 L1239.25 45.84 Z" fill="#000000" fill-rule="nonzero" fill-opacity="1" /><path clip-path="url(#clip010)" d="M1285.23 34.1734 Q1283.97 33.4443 1282.47 33.1202 Q1281.01 32.7556 1279.23 32.7556 Q1272.91 32.7556 1269.51 36.8875 Q1266.15 40.9789 1266.15 48.6757 L1266.15 72.576 L1258.65 72.576 L1258.65 27.2059 L1266.15 27.2059 L1266.15 34.2544 Q1268.5 30.1225 1272.26 28.1376 Q1276.03 26.1121 1281.42 26.1121 Q1282.19 26.1121 1283.12 26.2337 Q1284.05 26.3147 1285.19 26.5172 L1285.23 34.1734 Z" fill="#000000" fill-rule="nonzero" fill-opacity="1" /><path clip-path="url(#clip010)" d="M1293.04 27.2059 L1300.5 27.2059 L1300.5 72.576 L1293.04 72.576 L1293.04 27.2059 M1293.04 9.54393 L1300.5 9.54393 L1300.5 18.9825 L1293.04 18.9825 L1293.04 9.54393 Z" fill="#000000" fill-rule="nonzero" fill-opacity="1" /><path clip-path="url(#clip010)" d="M1310.75 27.2059 L1318.65 27.2059 L1332.82 65.2844 L1347 27.2059 L1354.9 27.2059 L1337.89 72.576 L1327.76 72.576 L1310.75 27.2059 Z" fill="#000000" fill-rule="nonzero" fill-opacity="1" /><path clip-path="url(#clip010)" d="M1385.81 49.7694 Q1376.78 49.7694 1373.29 51.8354 Q1369.81 53.9013 1369.81 58.8839 Q1369.81 62.8538 1372.4 65.2034 Q1375.03 67.5124 1379.53 67.5124 Q1385.73 67.5124 1389.46 63.1374 Q1393.22 58.7219 1393.22 51.4303 L1393.22 49.7694 L1385.81 49.7694 M1400.68 46.6907 L1400.68 72.576 L1393.22 72.576 L1393.22 65.6895 Q1390.67 69.8214 1386.86 71.8063 Q1383.06 73.7508 1377.55 73.7508 Q1370.58 73.7508 1366.45 69.8619 Q1362.36 65.9325 1362.36 59.3701 Q1362.36 51.7138 1367.46 47.825 Q1372.6 43.9361 1382.77 43.9361 L1393.22 43.9361 L1393.22 43.2069 Q1393.22 38.0623 1389.82 35.2672 Q1386.46 32.4315 1380.34 32.4315 Q1376.45 32.4315 1372.77 33.3632 Q1369.08 34.295 1365.68 36.1584 L1365.68 29.2718 Q1369.77 27.692 1373.62 26.9223 Q1377.47 26.1121 1381.11 26.1121 Q1390.95 26.1121 1395.82 31.2163 Q1400.68 36.3204 1400.68 46.6907 Z" fill="#000000" fill-rule="nonzero" fill-opacity="1" /><path clip-path="url(#clip010)" d="M1423.4 14.324 L1423.4 27.2059 L1438.76 27.2059 L1438.76 32.9987 L1423.4 32.9987 L1423.4 57.6282 Q1423.4 63.1779 1424.9 64.7578 Q1426.44 66.3376 1431.1 66.3376 L1438.76 66.3376 L1438.76 72.576 L1431.1 72.576 Q1422.47 72.576 1419.19 69.3758 Q1415.91 66.1351 1415.91 57.6282 L1415.91 32.9987 L1410.44 32.9987 L1410.44 27.2059 L1415.91 27.2059 L1415.91 14.324 L1423.4 14.324 Z" fill="#000000" fill-rule="nonzero" fill-opacity="1" /><path clip-path="url(#clip010)" d="M1448.56 27.2059 L1456.01 27.2059 L1456.01 72.576 L1448.56 72.576 L1448.56 27.2059 M1448.56 9.54393 L1456.01 9.54393 L1456.01 18.9825 L1448.56 18.9825 L1448.56 9.54393 Z" fill="#000000" fill-rule="nonzero" fill-opacity="1" /><path clip-path="url(#clip010)" d="M1466.26 27.2059 L1474.16 27.2059 L1488.34 65.2844 L1502.52 27.2059 L1510.42 27.2059 L1493.4 72.576 L1483.27 72.576 L1466.26 27.2059 Z" fill="#000000" fill-rule="nonzero" fill-opacity="1" /><path clip-path="url(#clip010)" d="M1559.51 48.0275 L1559.51 51.6733 L1525.24 51.6733 Q1525.73 59.3701 1529.86 63.421 Q1534.03 67.4314 1541.45 67.4314 Q1545.74 67.4314 1549.75 66.3781 Q1553.8 65.3249 1557.77 63.2184 L1557.77 70.267 Q1553.76 71.9684 1549.55 72.8596 Q1545.33 73.7508 1541 73.7508 Q1530.14 73.7508 1523.78 67.4314 Q1517.46 61.1119 1517.46 50.3365 Q1517.46 39.1965 1523.46 32.6746 Q1529.5 26.1121 1539.7 26.1121 Q1548.86 26.1121 1554.17 32.0264 Q1559.51 37.9003 1559.51 48.0275 M1552.06 45.84 Q1551.98 39.7232 1548.62 36.0774 Q1545.29 32.4315 1539.78 32.4315 Q1533.55 32.4315 1529.78 35.9558 Q1526.05 39.4801 1525.49 45.8805 L1552.06 45.84 Z" fill="#000000" fill-rule="nonzero" fill-opacity="1" /><path clip-path="url(#clip010)" d="M1615.7 32.4315 Q1609.7 32.4315 1606.22 37.1306 Q1602.74 41.7891 1602.74 49.9314 Q1602.74 58.0738 1606.18 62.7728 Q1609.66 67.4314 1615.7 67.4314 Q1621.65 67.4314 1625.14 62.7323 Q1628.62 58.0333 1628.62 49.9314 Q1628.62 41.8701 1625.14 37.1711 Q1621.65 32.4315 1615.7 32.4315 M1615.7 26.1121 Q1625.42 26.1121 1630.97 32.4315 Q1636.52 38.7509 1636.52 49.9314 Q1636.52 61.0714 1630.97 67.4314 Q1625.42 73.7508 1615.7 73.7508 Q1605.94 73.7508 1600.39 67.4314 Q1594.88 61.0714 1594.88 49.9314 Q1594.88 38.7509 1600.39 32.4315 Q1605.94 26.1121 1615.7 26.1121 Z" fill="#000000" fill-rule="nonzero" fill-opacity="1" /><path clip-path="url(#clip010)" d="M1671.84 9.54393 L1671.84 15.7418 L1664.71 15.7418 Q1660.7 15.7418 1659.12 17.3622 Q1657.59 18.9825 1657.59 23.1955 L1657.59 27.2059 L1669.86 27.2059 L1669.86 32.9987 L1657.59 32.9987 L1657.59 72.576 L1650.09 72.576 L1650.09 32.9987 L1642.96 32.9987 L1642.96 27.2059 L1650.09 27.2059 L1650.09 24.0462 Q1650.09 16.471 1653.62 13.0277 Q1657.14 9.54393 1664.8 9.54393 L1671.84 9.54393 Z" fill="#000000" fill-rule="nonzero" fill-opacity="1" /><path clip-path="url(#clip010)" d="M1733.38 28.5427 L1733.38 35.5912 Q1730.22 33.9709 1726.82 33.1607 Q1723.41 32.3505 1719.77 32.3505 Q1714.22 32.3505 1711.42 34.0519 Q1708.67 35.7533 1708.67 39.156 Q1708.67 41.7486 1710.65 43.2475 Q1712.64 44.7058 1718.63 46.0426 L1721.18 46.6097 Q1729.12 48.3111 1732.45 51.4303 Q1735.81 54.509 1735.81 60.0587 Q1735.81 66.3781 1730.78 70.0644 Q1725.8 73.7508 1717.05 73.7508 Q1713.41 73.7508 1709.44 73.0216 Q1705.51 72.3329 1701.13 70.9151 L1701.13 63.2184 Q1705.26 65.3654 1709.27 66.4591 Q1713.29 67.5124 1717.21 67.5124 Q1722.48 67.5124 1725.32 65.73 Q1728.15 63.9071 1728.15 60.6258 Q1728.15 57.5877 1726.09 55.9673 Q1724.06 54.3469 1717.13 52.8481 L1714.54 52.2405 Q1707.61 50.7821 1704.54 47.7845 Q1701.46 44.7463 1701.46 39.4801 Q1701.46 33.0797 1705.99 29.5959 Q1710.53 26.1121 1718.88 26.1121 Q1723.01 26.1121 1726.65 26.7198 Q1730.3 27.3274 1733.38 28.5427 Z" fill="#000000" fill-rule="nonzero" fill-opacity="1" /><path clip-path="url(#clip010)" d="M1765.58 9.62495 Q1760.15 18.942 1757.52 28.0566 Q1754.89 37.1711 1754.89 46.5287 Q1754.89 55.8863 1757.52 65.0818 Q1760.19 74.2369 1765.58 83.5134 L1759.1 83.5134 Q1753.02 73.9938 1749.99 64.7983 Q1746.99 55.6027 1746.99 46.5287 Q1746.99 37.4952 1749.99 28.3401 Q1752.98 19.1851 1759.1 9.62495 L1765.58 9.62495 Z" fill="#000000" fill-rule="nonzero" fill-opacity="1" /><path clip-path="url(#clip010)" d="M1817.76 27.2059 L1801.35 49.2833 L1818.61 72.576 L1809.82 72.576 L1796.61 54.752 L1783.41 72.576 L1774.62 72.576 L1792.24 48.8377 L1776.11 27.2059 L1784.91 27.2059 L1796.94 43.369 L1808.97 27.2059 L1817.76 27.2059 Z" fill="#000000" fill-rule="nonzero" fill-opacity="1" /><path clip-path="url(#clip010)" d="M1847.69 17.4837 Q1841.37 17.4837 1838.17 23.7221 Q1835.01 29.92 1835.01 42.3968 Q1835.01 54.833 1838.17 61.0714 Q1841.37 67.2693 1847.69 67.2693 Q1854.05 67.2693 1857.21 61.0714 Q1860.41 54.833 1860.41 42.3968 Q1860.41 29.92 1857.21 23.7221 Q1854.05 17.4837 1847.69 17.4837 M1847.69 11.0023 Q1857.86 11.0023 1863.21 19.0636 Q1868.6 27.0843 1868.6 42.3968 Q1868.6 57.6687 1863.21 65.73 Q1857.86 73.7508 1847.69 73.7508 Q1837.53 73.7508 1832.14 65.73 Q1826.79 57.6687 1826.79 42.3968 Q1826.79 27.0843 1832.14 19.0636 Q1837.53 11.0023 1847.69 11.0023 Z" fill="#000000" fill-rule="nonzero" fill-opacity="1" /><path clip-path="url(#clip010)" d="M1880.75 9.62495 L1887.23 9.62495 Q1893.31 19.1851 1896.3 28.3401 Q1899.34 37.4952 1899.34 46.5287 Q1899.34 55.6027 1896.3 64.7983 Q1893.31 73.9938 1887.23 83.5134 L1880.75 83.5134 Q1886.14 74.2369 1888.77 65.0818 Q1891.44 55.8863 1891.44 46.5287 Q1891.44 37.1711 1888.77 28.0566 Q1886.14 18.942 1880.75 9.62495 Z" fill="#000000" fill-rule="nonzero" fill-opacity="1" /><path clip-path="url(#clip011)" d="M423.961 1267.53 L433.371 1336.91 L442.781 1336.91 L452.191 1336.91 L461.601 1336.91 L471.011 1336.91 L480.421 1336.91 L489.832 1336.91 L499.242 1336.91 L508.652 1336.91 L518.062 1336.91 L527.472 1336.91 L536.882 1336.91 L546.292 1336.91 L555.703 1336.91 L565.113 1336.91 L574.523 1336.91 L583.933 1336.91 L593.343 1336.91 L602.753 1336.91 L612.163 1336.91 L621.573 1336.91 L630.984 1336.91 L640.394 1336.91 L649.804 1336.91 L659.214 1336.91 L668.624 1336.91 L678.034 1336.91 L687.444 1336.91 L696.855 1336.91 L706.265 1336.91 L715.675 1336.91 L725.085 1336.91 L734.495 1336.91 L743.905 1336.91 L753.315 1336.91 L762.725 1336.91 L772.136 1336.91 L781.546 1336.91 L790.956 1336.91 L800.366 1336.91 L809.776 1336.91 L819.186 1336.91 L828.596 1336.91 L838.007 1336.91 L847.417 1336.91 L856.827 1336.91 L866.237 1336.91 L875.647 1336.91 L885.057 1336.91 L894.467 1336.91 L903.878 1336.91 L913.288 1336.91 L922.698 1336.91 L932.108 1336.91 L941.518 1336.91 L950.928 1336.91 L960.338 1336.91 L969.748 1336.91 L979.159 1336.91 L988.569 1336.91 L997.979 1336.91 L1007.39 1336.91 L1016.8 1336.91 L1026.21 1336.91 L1035.62 1336.91 L1045.03 1336.91 L1054.44 1336.91 L1063.85 1336.91 L1073.26 1336.91 L1082.67 1336.91 L1092.08 1336.91 L1101.49 1336.91 L1110.9 1336.91 L1120.31 1336.91 L1129.72 1336.91 L1139.13 1336.91 L1148.54 1336.91 L1157.95 1336.91 L1167.36 1336.91 L1176.77 1336.91 L1186.18 1336.91 L1195.59 1336.91 L1205 1336.91 L1214.41 1336.91 L1223.82 1336.91 L1233.23 1336.91 L1242.64 1336.91 L1252.05 1336.91 L1261.46 1336.91 L1270.87 1336.91 L1280.28 1336.91 L1289.69 1336.91 L1299.1 1336.91 L1308.51 1336.91 L1317.92 1336.91 L1327.33 1336.91 L1336.74 1336.91 L1346.15 1336.91 L1355.56 1336.91 L1364.97 1336.91 L1374.38 1336.91 L1383.79 1336.91 L1393.2 1336.91 L1402.61 1336.91 L1412.02 1336.91 L1421.43 1336.91 L1430.85 1336.91 L1440.26 1336.91 L1449.67 1336.91 L1459.08 1336.91 L1468.49 1336.91 L1477.9 1336.91 L1487.31 1336.91 L1496.72 1336.91 L1506.13 1336.91 L1515.54 1336.91 L1524.95 1336.91 L1534.36 1336.91 L1543.77 1336.91 L1553.18 1336.91 L1562.59 1336.91 L1572 1336.91 L1581.41 1336.91 L1590.82 1336.91 L1600.23 1336.91 L1609.64 1336.91 L1619.05 1336.91 L1628.46 1336.91 L1637.87 1336.91 L1647.28 1336.91 L1656.69 1336.91 L1666.1 1336.91 L1675.51 1336.91 L1684.92 1336.91 L1694.33 1336.91 L1703.74 1336.91 L1713.15 1336.91 L1722.56 1336.91 L1731.97 1336.91 L1741.38 1336.91 L1750.79 1336.91 L1760.2 1336.91 L1769.61 1336.91 L1779.02 1336.91 L1788.43 1336.91 L1797.84 1336.91 L1807.25 1336.91 L1816.66 1336.91 L1826.07 1336.91 L1835.48 1336.91 L1844.89 1336.91 L1854.3 1336.91 L1863.71 1336.91 L1873.12 1336.91 L1882.53 1336.91 L1891.94 1336.91 L1901.35 1336.91 L1910.76 1336.91 L1920.17 1336.91 L1929.58 1336.91 L1938.99 1336.91 L1948.4 1336.91 L1957.81 1336.91 L1967.22 1336.91 L1976.63 1336.91 L1986.04 1336.91 L1995.45 1336.91 L2004.86 1336.91 L2014.27 1336.91 L2023.68 1336.91 L2033.09 1336.91 L2042.5 1336.91 L2051.91 1336.91 L2061.32 1336.91 L2070.73 1336.91 L2080.14 1336.91 L2089.55 1336.91 L2098.96 1336.91 L2108.37 1336.91 L2117.78 1336.91 L2127.19 1336.91 L2136.61 1336.91 L2146.02 1336.91 L2155.43 1336.91 L2164.84 1336.91 L2174.25 1336.91 L2183.66 1336.91 L2193.07 1336.91 L2202.48 1336.91 L2211.89 1336.91 L2221.3 1336.91 L2230.71 1336.91 L2240.12 1336.91 L2249.53 1336.91 L2258.94 1336.91 L2268.35 1336.91 L2277.76 1336.91 L2287.17 1336.91 L2296.58 1386.4 L2296.58 246.55 L2287.17 1336.91 L2277.76 1336.91 L2268.35 1336.91 L2258.94 1336.91 L2249.53 1336.91 L2240.12 1336.91 L2230.71 1336.91 L2221.3 1336.91 L2211.89 1336.91 L2202.48 1336.91 L2193.07 1336.91 L2183.66 1336.91 L2174.25 1336.91 L2164.84 1336.91 L2155.43 1336.91 L2146.02 1336.91 L2136.61 1336.91 L2127.19 1336.91 L2117.78 1336.91 L2108.37 1336.91 L2098.96 1336.91 L2089.55 1336.91 L2080.14 1336.91 L2070.73 1336.91 L2061.32 1336.91 L2051.91 1336.91 L2042.5 1336.91 L2033.09 1336.91 L2023.68 1336.91 L2014.27 1336.91 L2004.86 1336.91 L1995.45 1336.91 L1986.04 1336.91 L1976.63 1336.91 L1967.22 1336.91 L1957.81 1336.91 L1948.4 1336.91 L1938.99 1336.91 L1929.58 1336.91 L1920.17 1336.91 L1910.76 1336.91 L1901.35 1336.91 L1891.94 1336.91 L1882.53 1336.91 L1873.12 1336.91 L1863.71 1336.91 L1854.3 1336.91 L1844.89 1336.91 L1835.48 1336.91 L1826.07 1336.91 L1816.66 1336.91 L1807.25 1336.91 L1797.84 1336.91 L1788.43 1336.91 L1779.02 1336.91 L1769.61 1336.91 L1760.2 1336.91 L1750.79 1336.91 L1741.38 1336.91 L1731.97 1336.91 L1722.56 1336.91 L1713.15 1336.91 L1703.74 1336.91 L1694.33 1336.91 L1684.92 1336.91 L1675.51 1336.91 L1666.1 1336.91 L1656.69 1336.91 L1647.28 1336.91 L1637.87 1336.91 L1628.46 1336.91 L1619.05 1336.91 L1609.64 1336.91 L1600.23 1336.91 L1590.82 1336.91 L1581.41 1336.91 L1572 1336.91 L1562.59 1336.91 L1553.18 1336.91 L1543.77 1336.91 L1534.36 1336.91 L1524.95 1336.91 L1515.54 1336.91 L1506.13 1336.91 L1496.72 1336.91 L1487.31 1336.91 L1477.9 1336.91 L1468.49 1336.91 L1459.08 1336.91 L1449.67 1336.91 L1440.26 1336.91 L1430.85 1336.91 L1421.43 1336.91 L1412.02 1336.91 L1402.61 1336.91 L1393.2 1336.91 L1383.79 1336.91 L1374.38 1336.91 L1364.97 1336.91 L1355.56 1336.91 L1346.15 1336.91 L1336.74 1336.91 L1327.33 1336.91 L1317.92 1336.91 L1308.51 1336.91 L1299.1 1336.91 L1289.69 1336.91 L1280.28 1336.91 L1270.87 1336.91 L1261.46 1336.91 L1252.05 1336.91 L1242.64 1336.91 L1233.23 1336.91 L1223.82 1336.91 L1214.41 1336.91 L1205 1336.91 L1195.59 1336.91 L1186.18 1336.91 L1176.77 1336.91 L1167.36 1336.91 L1157.95 1336.91 L1148.54 1336.91 L1139.13 1336.91 L1129.72 1336.91 L1120.31 1336.91 L1110.9 1336.91 L1101.49 1336.91 L1092.08 1336.91 L1082.67 1336.91 L1073.26 1336.91 L1063.85 1336.91 L1054.44 1336.91 L1045.03 1336.91 L1035.62 1336.91 L1026.21 1336.91 L1016.8 1336.91 L1007.39 1336.91 L997.979 1336.91 L988.569 1336.91 L979.159 1336.91 L969.748 1336.91 L960.338 1336.91 L950.928 1336.91 L941.518 1336.91 L932.108 1336.91 L922.698 1336.91 L913.288 1336.91 L903.878 1336.91 L894.467 1336.91 L885.057 1336.91 L875.647 1336.91 L866.237 1336.91 L856.827 1336.91 L847.417 1336.91 L838.007 1336.91 L828.596 1336.91 L819.186 1336.91 L809.776 1336.91 L800.366 1336.91 L790.956 1336.91 L781.546 1336.91 L772.136 1336.91 L762.725 1336.91 L753.315 1336.91 L743.905 1336.91 L734.495 1336.91 L725.085 1336.91 L715.675 1336.91 L706.265 1336.91 L696.855 1336.91 L687.444 1336.91 L678.034 1336.91 L668.624 1336.91 L659.214 1336.91 L649.804 1336.91 L640.394 1336.91 L630.984 1336.91 L621.573 1336.91 L612.163 1336.91 L602.753 1336.91 L593.343 1336.91 L583.933 1336.91 L574.523 1336.91 L565.113 1336.91 L555.703 1336.91 L546.292 1336.91 L536.882 1336.91 L527.472 1336.91 L518.062 1336.91 L508.652 1336.91 L499.242 1336.91 L489.832 1336.91 L480.421 1336.91 L471.011 1336.91 L461.601 1336.91 L452.191 1336.91 L442.781 1336.91 L433.371 1336.91 L423.961 160.256  Z" fill="#ff8c00" fill-rule="evenodd" fill-opacity="0.2"/>
<polyline clip-path="url(#clip011)" style="stroke:#ff8c00; stroke-linecap:round; stroke-linejoin:round; stroke-width:8; stroke-opacity:1; fill:none" points="423.961,713.894 433.371,1336.91 442.781,1336.91 452.191,1336.91 461.601,1336.91 471.011,1336.91 480.421,1336.91 489.832,1336.91 499.242,1336.91 508.652,1336.91 518.062,1336.91 527.472,1336.91 536.882,1336.91 546.292,1336.91 555.703,1336.91 565.113,1336.91 574.523,1336.91 583.933,1336.91 593.343,1336.91 602.753,1336.91 612.163,1336.91 621.573,1336.91 630.984,1336.91 640.394,1336.91 649.804,1336.91 659.214,1336.91 668.624,1336.91 678.034,1336.91 687.444,1336.91 696.855,1336.91 706.265,1336.91 715.675,1336.91 725.085,1336.91 734.495,1336.91 743.905,1336.91 753.315,1336.91 762.725,1336.91 772.136,1336.91 781.546,1336.91 790.956,1336.91 800.366,1336.91 809.776,1336.91 819.186,1336.91 828.596,1336.91 838.007,1336.91 847.417,1336.91 856.827,1336.91 866.237,1336.91 875.647,1336.91 885.057,1336.91 894.467,1336.91 903.878,1336.91 913.288,1336.91 922.698,1336.91 932.108,1336.91 941.518,1336.91 950.928,1336.91 960.338,1336.91 969.748,1336.91 979.159,1336.91 988.569,1336.91 997.979,1336.91 1007.39,1336.91 1016.8,1336.91 1026.21,1336.91 1035.62,1336.91 1045.03,1336.91 1054.44,1336.91 1063.85,1336.91 1073.26,1336.91 1082.67,1336.91 1092.08,1336.91 1101.49,1336.91 1110.9,1336.91 1120.31,1336.91 1129.72,1336.91 1139.13,1336.91 1148.54,1336.91 1157.95,1336.91 1167.36,1336.91 1176.77,1336.91 1186.18,1336.91 1195.59,1336.91 1205,1336.91 1214.41,1336.91 1223.82,1336.91 1233.23,1336.91 1242.64,1336.91 1252.05,1336.91 1261.46,1336.91 1270.87,1336.91 1280.28,1336.91 1289.69,1336.91 1299.1,1336.91 1308.51,1336.91 1317.92,1336.91 1327.33,1336.91 1336.74,1336.91 1346.15,1336.91 1355.56,1336.91 1364.97,1336.91 1374.38,1336.91 1383.79,1336.91 1393.2,1336.91 1402.61,1336.91 1412.02,1336.91 1421.43,1336.91 1430.85,1336.91 1440.26,1336.91 1449.67,1336.91 1459.08,1336.91 1468.49,1336.91 1477.9,1336.91 1487.31,1336.91 1496.72,1336.91 1506.13,1336.91 1515.54,1336.91 1524.95,1336.91 1534.36,1336.91 1543.77,1336.91 1553.18,1336.91 1562.59,1336.91 1572,1336.91 1581.41,1336.91 1590.82,1336.91 1600.23,1336.91 1609.64,1336.91 1619.05,1336.91 1628.46,1336.91 1637.87,1336.91 1647.28,1336.91 1656.69,1336.91 1666.1,1336.91 1675.51,1336.91 1684.92,1336.91 1694.33,1336.91 1703.74,1336.91 1713.15,1336.91 1722.56,1336.91 1731.97,1336.91 1741.38,1336.91 1750.79,1336.91 1760.2,1336.91 1769.61,1336.91 1779.02,1336.91 1788.43,1336.91 1797.84,1336.91 1807.25,1336.91 1816.66,1336.91 1826.07,1336.91 1835.48,1336.91 1844.89,1336.91 1854.3,1336.91 1863.71,1336.91 1873.12,1336.91 1882.53,1336.91 1891.94,1336.91 1901.35,1336.91 1910.76,1336.91 1920.17,1336.91 1929.58,1336.91 1938.99,1336.91 1948.4,1336.91 1957.81,1336.91 1967.22,1336.91 1976.63,1336.91 1986.04,1336.91 1995.45,1336.91 2004.86,1336.91 2014.27,1336.91 2023.68,1336.91 2033.09,1336.91 2042.5,1336.91 2051.91,1336.91 2061.32,1336.91 2070.73,1336.91 2080.14,1336.91 2089.55,1336.91 2098.96,1336.91 2108.37,1336.91 2117.78,1336.91 2127.19,1336.91 2136.61,1336.91 2146.02,1336.91 2155.43,1336.91 2164.84,1336.91 2174.25,1336.91 2183.66,1336.91 2193.07,1336.91 2202.48,1336.91 2211.89,1336.91 2221.3,1336.91 2230.71,1336.91 2240.12,1336.91 2249.53,1336.91 2258.94,1336.91 2268.35,1336.91 2277.76,1336.91 2287.17,1336.91 2296.58,816.473 "/>
<path clip-path="url(#clip010)" d="M1907.52 270.476 L2286.59 270.476 L2286.59 166.796 L1907.52 166.796  Z" fill="#ffffff" fill-rule="evenodd" fill-opacity="1"/>
<polyline clip-path="url(#clip010)" style="stroke:#000000; stroke-linecap:round; stroke-linejoin:round; stroke-width:4; stroke-opacity:1; fill:none" points="1907.52,270.476 2286.59,270.476 2286.59,166.796 1907.52,166.796 1907.52,270.476 "/>
<polyline clip-path="url(#clip010)" style="stroke:#ff8c00; stroke-linecap:round; stroke-linejoin:round; stroke-width:8; stroke-opacity:1; fill:none" points="1929.57,218.636 2061.9,218.636 "/>
<path clip-path="url(#clip010)" d="M2091.87 236.587 Q2088.61 236.587 2086.48 234.619 Q2083.96 232.281 2083.96 228.045 Q2083.96 223.647 2086.18 220.221 Q2088.47 216.703 2092.59 216.703 Q2095.3 216.703 2097.43 218.393 Q2098.68 219.388 2099.54 221.055 Q2099.84 219.18 2099.84 217.05 Q2099.84 213.925 2099.1 212.12 Q2097.45 208.115 2093.1 208.115 Q2091.46 208.115 2088.91 209.133 L2088.91 205.245 Q2091.6 204.527 2094 204.527 Q2100.21 204.527 2102.85 210.221 Q2104.07 212.907 2104.07 216.911 Q2104.07 219.527 2103.49 222.559 Q2102.04 230.152 2098.26 233.763 Q2095.3 236.587 2091.87 236.587 M2087.92 228.74 Q2087.92 231.055 2088.93 232.305 Q2090.02 233.624 2091.69 233.624 Q2093.17 233.624 2094.35 232.582 Q2096.02 231.147 2097.24 228.809 Q2098.26 226.888 2098.77 224.828 Q2096.71 219.851 2093.15 219.851 Q2090.09 219.851 2088.75 223.879 Q2087.92 226.379 2087.92 228.74 Z" fill="#000000" fill-rule="nonzero" fill-opacity="1" /><path clip-path="url(#clip010)" d="M2112.48 217.814 L2122.29 217.814 L2122.29 220.453 L2108.45 220.453 L2108.45 217.907 Q2109.23 217.189 2110.69 215.893 Q2118.66 208.833 2118.66 206.657 Q2118.66 205.129 2117.45 204.203 Q2116.25 203.254 2114.28 203.254 Q2113.08 203.254 2111.67 203.671 Q2110.25 204.064 2108.59 204.874 L2108.59 202.027 Q2110.37 201.379 2111.9 201.055 Q2113.45 200.731 2114.77 200.731 Q2118.12 200.731 2120.14 202.258 Q2122.15 203.786 2122.15 206.286 Q2122.15 209.504 2114.49 216.078 Q2113.19 217.189 2112.48 217.814 Z" fill="#000000" fill-rule="nonzero" fill-opacity="1" /><path clip-path="url(#clip010)" d="M2142.87 199.897 L2142.87 203.439 L2138.79 203.439 Q2136.5 203.439 2135.6 204.365 Q2134.72 205.291 2134.72 207.698 L2134.72 209.99 L2141.73 209.99 L2141.73 213.3 L2134.72 213.3 L2134.72 235.916 L2130.44 235.916 L2130.44 213.3 L2126.36 213.3 L2126.36 209.99 L2130.44 209.99 L2130.44 208.184 Q2130.44 203.856 2132.45 201.888 Q2134.47 199.897 2138.84 199.897 L2142.87 199.897 Z" fill="#000000" fill-rule="nonzero" fill-opacity="1" /><path clip-path="url(#clip010)" d="M2155.16 220.245 Q2154 218.254 2151.67 218.254 Q2149.33 218.254 2148.17 220.245 Q2146.99 222.235 2146.99 226.217 Q2146.99 230.221 2148.17 232.212 Q2149.33 234.203 2151.67 234.203 Q2154 234.203 2155.16 232.212 Q2156.34 230.221 2156.34 226.217 Q2156.34 222.235 2155.16 220.245 M2151.67 216.194 Q2155.39 216.194 2157.36 218.763 Q2159.33 221.332 2159.33 226.217 Q2159.33 231.124 2157.36 233.694 Q2155.39 236.263 2151.67 236.263 Q2147.92 236.263 2145.95 233.694 Q2143.98 231.124 2143.98 226.217 Q2143.98 221.332 2145.95 218.763 Q2147.92 216.194 2151.67 216.194 Z" fill="#000000" fill-rule="nonzero" fill-opacity="1" /><path clip-path="url(#clip010)" d="M2173.01 201.356 L2176.94 201.356 L2164.91 240.314 L2160.97 240.314 L2173.01 201.356 Z" fill="#000000" fill-rule="nonzero" fill-opacity="1" /><path clip-path="url(#clip010)" d="M2187.06 236.587 Q2183.79 236.587 2181.66 234.619 Q2179.14 232.281 2179.14 228.045 Q2179.14 223.647 2181.36 220.221 Q2183.66 216.703 2187.78 216.703 Q2190.48 216.703 2192.61 218.393 Q2193.86 219.388 2194.72 221.055 Q2195.02 219.18 2195.02 217.05 Q2195.02 213.925 2194.28 212.12 Q2192.64 208.115 2188.29 208.115 Q2186.64 208.115 2184.1 209.133 L2184.1 205.245 Q2186.78 204.527 2189.19 204.527 Q2195.39 204.527 2198.03 210.221 Q2199.26 212.907 2199.26 216.911 Q2199.26 219.527 2198.68 222.559 Q2197.22 230.152 2193.45 233.763 Q2190.48 236.587 2187.06 236.587 M2183.1 228.74 Q2183.1 231.055 2184.12 232.305 Q2185.21 233.624 2186.87 233.624 Q2188.35 233.624 2189.54 232.582 Q2191.2 231.147 2192.43 228.809 Q2193.45 226.888 2193.96 224.828 Q2191.9 219.851 2188.33 219.851 Q2185.28 219.851 2183.93 223.879 Q2183.1 226.379 2183.1 228.74 Z" fill="#000000" fill-rule="nonzero" fill-opacity="1" /><path clip-path="url(#clip010)" d="M2227.47 209.99 L2218.1 222.606 L2227.96 235.916 L2222.94 235.916 L2215.39 225.731 L2207.85 235.916 L2202.82 235.916 L2212.89 222.351 L2203.68 209.99 L2208.7 209.99 L2215.58 219.226 L2222.45 209.99 L2227.47 209.99 Z" fill="#000000" fill-rule="nonzero" fill-opacity="1" /><path clip-path="url(#clip010)" d="M2242.71 220.245 Q2241.55 218.254 2239.21 218.254 Q2236.87 218.254 2235.72 220.245 Q2234.54 222.235 2234.54 226.217 Q2234.54 230.221 2235.72 232.212 Q2236.87 234.203 2239.21 234.203 Q2241.55 234.203 2242.71 232.212 Q2243.89 230.221 2243.89 226.217 Q2243.89 222.235 2242.71 220.245 M2239.21 216.194 Q2242.94 216.194 2244.91 218.763 Q2246.87 221.332 2246.87 226.217 Q2246.87 231.124 2244.91 233.694 Q2242.94 236.263 2239.21 236.263 Q2235.46 236.263 2233.49 233.694 Q2231.53 231.124 2231.53 226.217 Q2231.53 221.332 2233.49 218.763 Q2235.46 216.194 2239.21 216.194 Z" fill="#000000" fill-rule="nonzero" fill-opacity="1" /><path clip-path="url(#clip010)" d="M2254.72 217.814 L2264.53 217.814 L2264.53 220.453 L2250.69 220.453 L2250.69 217.907 Q2251.48 217.189 2252.94 215.893 Q2260.9 208.833 2260.9 206.657 Q2260.9 205.129 2259.7 204.203 Q2258.49 203.254 2256.53 203.254 Q2255.32 203.254 2253.91 203.671 Q2252.5 204.064 2250.83 204.874 L2250.83 202.027 Q2252.61 201.379 2254.14 201.055 Q2255.69 200.731 2257.01 200.731 Q2260.37 200.731 2262.38 202.258 Q2264.4 203.786 2264.4 206.286 Q2264.4 209.504 2256.73 216.078 Q2255.44 217.189 2254.72 217.814 Z" fill="#000000" fill-rule="nonzero" fill-opacity="1" /></svg>
