<?xml version="1.0" encoding="utf-8"?>
<svg xmlns="http://www.w3.org/2000/svg" xmlns:xlink="http://www.w3.org/1999/xlink" width="528" height="336" viewBox="0 0 2112 1344">
<defs>
  <clipPath id="clip180">
    <rect x="0" y="0" width="2112" height="1344"/>
  </clipPath>
</defs>
<path clip-path="url(#clip180)" d="M0 1344 L2112 1344 L2112 2.13163e-14 L0 2.13163e-14  Z" fill="#ffffff" fill-rule="evenodd" fill-opacity="1"/>
<defs>
  <clipPath id="clip181">
    <rect x="252" y="120" width="1814" height="1054"/>
  </clipPath>
</defs>
<path clip-path="url(#clip180)" d="M252.164 1173.47 L2064.76 1173.47 L2064.76 120.723 L252.164 120.723  Z" fill="#ffffff" fill-rule="evenodd" fill-opacity="1"/>
<polyline clip-path="url(#clip181)" style="stroke:#000000; stroke-linecap:round; stroke-linejoin:round; stroke-width:2; stroke-opacity:0.1; fill:none" points="302.238,1173.47 302.238,120.723 "/>
<polyline clip-path="url(#clip181)" style="stroke:#000000; stroke-linecap:round; stroke-linejoin:round; stroke-width:2; stroke-opacity:0.1; fill:none" points="730.574,1173.47 730.574,120.723 "/>
<polyline clip-path="url(#clip181)" style="stroke:#000000; stroke-linecap:round; stroke-linejoin:round; stroke-width:2; stroke-opacity:0.1; fill:none" points="1158.91,1173.47 1158.91,120.723 "/>
<polyline clip-path="url(#clip181)" style="stroke:#000000; stroke-linecap:round; stroke-linejoin:round; stroke-width:2; stroke-opacity:0.1; fill:none" points="1587.24,1173.47 1587.24,120.723 "/>
<polyline clip-path="url(#clip181)" style="stroke:#000000; stroke-linecap:round; stroke-linejoin:round; stroke-width:2; stroke-opacity:0.1; fill:none" points="2015.58,1173.47 2015.58,120.723 "/>
<polyline clip-path="url(#clip181)" style="stroke:#000000; stroke-linecap:round; stroke-linejoin:round; stroke-width:2; stroke-opacity:0.1; fill:none" points="252.164,1065.91 2064.76,1065.91 "/>
<polyline clip-path="url(#clip181)" style="stroke:#000000; stroke-linecap:round; stroke-linejoin:round; stroke-width:2; stroke-opacity:0.1; fill:none" points="252.164,913.213 2064.76,913.213 "/>
<polyline clip-path="url(#clip181)" style="stroke:#000000; stroke-linecap:round; stroke-linejoin:round; stroke-width:2; stroke-opacity:0.1; fill:none" points="252.164,760.513 2064.76,760.513 "/>
<polyline clip-path="url(#clip181)" style="stroke:#000000; stroke-linecap:round; stroke-linejoin:round; stroke-width:2; stroke-opacity:0.1; fill:none" points="252.164,607.813 2064.76,607.813 "/>
<polyline clip-path="url(#clip181)" style="stroke:#000000; stroke-linecap:round; stroke-linejoin:round; stroke-width:2; stroke-opacity:0.1; fill:none" points="252.164,455.113 2064.76,455.113 "/>
<polyline clip-path="url(#clip181)" style="stroke:#000000; stroke-linecap:round; stroke-linejoin:round; stroke-width:2; stroke-opacity:0.1; fill:none" points="252.164,302.412 2064.76,302.412 "/>
<polyline clip-path="url(#clip181)" style="stroke:#000000; stroke-linecap:round; stroke-linejoin:round; stroke-width:2; stroke-opacity:0.1; fill:none" points="252.164,149.712 2064.76,149.712 "/>
<polyline clip-path="url(#clip180)" style="stroke:#000000; stroke-linecap:round; stroke-linejoin:round; stroke-width:4; stroke-opacity:1; fill:none" points="252.164,1173.47 2064.76,1173.47 "/>
<polyline clip-path="url(#clip180)" style="stroke:#000000; stroke-linecap:round; stroke-linejoin:round; stroke-width:4; stroke-opacity:1; fill:none" points="302.238,1173.47 302.238,1154.57 "/>
<polyline clip-path="url(#clip180)" style="stroke:#000000; stroke-linecap:round; stroke-linejoin:round; stroke-width:4; stroke-opacity:1; fill:none" points="730.574,1173.47 730.574,1154.57 "/>
<polyline clip-path="url(#clip180)" style="stroke:#000000; stroke-linecap:round; stroke-linejoin:round; stroke-width:4; stroke-opacity:1; fill:none" points="1158.91,1173.47 1158.91,1154.57 "/>
<polyline clip-path="url(#clip180)" style="stroke:#000000; stroke-linecap:round; stroke-linejoin:round; stroke-width:4; stroke-opacity:1; fill:none" points="1587.24,1173.47 1587.24,1154.57 "/>
<polyline clip-path="url(#clip180)" style="stroke:#000000; stroke-linecap:round; stroke-linejoin:round; stroke-width:4; stroke-opacity:1; fill:none" points="2015.58,1173.47 2015.58,1154.57 "/>
<path clip-path="url(#clip180)" d="M264.542 1202.09 Q260.931 1202.09 259.102 1205.65 Q257.296 1209.19 257.296 1216.32 Q257.296 1223.43 259.102 1226.99 Q260.931 1230.53 264.542 1230.53 Q268.176 1230.53 269.982 1226.99 Q271.81 1223.43 271.81 1216.32 Q271.81 1209.19 269.982 1205.65 Q268.176 1202.09 264.542 1202.09 M264.542 1198.38 Q270.352 1198.38 273.407 1202.99 Q276.486 1207.57 276.486 1216.32 Q276.486 1225.05 273.407 1229.65 Q270.352 1234.24 264.542 1234.24 Q258.732 1234.24 255.653 1229.65 Q252.597 1225.05 252.597 1216.32 Q252.597 1207.57 255.653 1202.99 Q258.732 1198.38 264.542 1198.38 Z" fill="#000000" fill-rule="nonzero" fill-opacity="1" /><path clip-path="url(#clip180)" d="M284.704 1227.69 L289.588 1227.69 L289.588 1233.57 L284.704 1233.57 L284.704 1227.69 Z" fill="#000000" fill-rule="nonzero" fill-opacity="1" /><path clip-path="url(#clip180)" d="M309.773 1202.09 Q306.162 1202.09 304.333 1205.65 Q302.528 1209.19 302.528 1216.32 Q302.528 1223.43 304.333 1226.99 Q306.162 1230.53 309.773 1230.53 Q313.407 1230.53 315.213 1226.99 Q317.041 1223.43 317.041 1216.32 Q317.041 1209.19 315.213 1205.65 Q313.407 1202.09 309.773 1202.09 M309.773 1198.38 Q315.583 1198.38 318.639 1202.99 Q321.717 1207.57 321.717 1216.32 Q321.717 1225.05 318.639 1229.65 Q315.583 1234.24 309.773 1234.24 Q303.963 1234.24 300.884 1229.65 Q297.829 1225.05 297.829 1216.32 Q297.829 1207.57 300.884 1202.99 Q303.963 1198.38 309.773 1198.38 Z" fill="#000000" fill-rule="nonzero" fill-opacity="1" /><path clip-path="url(#clip180)" d="M339.935 1202.09 Q336.324 1202.09 334.495 1205.65 Q332.69 1209.19 332.69 1216.32 Q332.69 1223.43 334.495 1226.99 Q336.324 1230.53 339.935 1230.53 Q343.569 1230.53 345.375 1226.99 Q347.203 1223.43 347.203 1216.32 Q347.203 1209.19 345.375 1205.65 Q343.569 1202.09 339.935 1202.09 M339.935 1198.38 Q345.745 1198.38 348.801 1202.99 Q351.879 1207.57 351.879 1216.32 Q351.879 1225.05 348.801 1229.65 Q345.745 1234.24 339.935 1234.24 Q334.125 1234.24 331.046 1229.65 Q327.991 1225.05 327.991 1216.32 Q327.991 1207.57 331.046 1202.99 Q334.125 1198.38 339.935 1198.38 Z" fill="#000000" fill-rule="nonzero" fill-opacity="1" /><path clip-path="url(#clip180)" d="M693.375 1202.09 Q689.764 1202.09 687.935 1205.65 Q686.13 1209.19 686.13 1216.32 Q686.13 1223.43 687.935 1226.99 Q689.764 1230.53 693.375 1230.53 Q697.009 1230.53 698.815 1226.99 Q700.643 1223.43 700.643 1216.32 Q700.643 1209.19 698.815 1205.65 Q697.009 1202.09 693.375 1202.09 M693.375 1198.38 Q699.185 1198.38 702.241 1202.99 Q705.319 1207.57 705.319 1216.32 Q705.319 1225.05 702.241 1229.65 Q699.185 1234.24 693.375 1234.24 Q687.565 1234.24 684.486 1229.65 Q681.431 1225.05 681.431 1216.32 Q681.431 1207.57 684.486 1202.99 Q687.565 1198.38 693.375 1198.38 Z" fill="#000000" fill-rule="nonzero" fill-opacity="1" /><path clip-path="url(#clip180)" d="M713.537 1227.69 L718.421 1227.69 L718.421 1233.57 L713.537 1233.57 L713.537 1227.69 Z" fill="#000000" fill-rule="nonzero" fill-opacity="1" /><path clip-path="url(#clip180)" d="M732.634 1229.63 L748.953 1229.63 L748.953 1233.57 L727.009 1233.57 L727.009 1229.63 Q729.671 1226.88 734.254 1222.25 Q738.861 1217.59 740.041 1216.25 Q742.287 1213.73 743.166 1211.99 Q744.069 1210.23 744.069 1208.54 Q744.069 1205.79 742.125 1204.05 Q740.203 1202.32 737.102 1202.32 Q734.902 1202.32 732.449 1203.08 Q730.018 1203.84 727.24 1205.4 L727.24 1200.67 Q730.065 1199.54 732.518 1198.96 Q734.972 1198.38 737.009 1198.38 Q742.379 1198.38 745.574 1201.07 Q748.768 1203.75 748.768 1208.24 Q748.768 1210.37 747.958 1212.29 Q747.171 1214.19 745.064 1216.78 Q744.486 1217.46 741.384 1220.67 Q738.282 1223.87 732.634 1229.63 Z" fill="#000000" fill-rule="nonzero" fill-opacity="1" /><path clip-path="url(#clip180)" d="M758.814 1199.01 L777.171 1199.01 L777.171 1202.94 L763.097 1202.94 L763.097 1211.41 Q764.115 1211.07 765.134 1210.9 Q766.152 1210.72 767.171 1210.72 Q772.958 1210.72 776.337 1213.89 Q779.717 1217.06 779.717 1222.48 Q779.717 1228.06 776.245 1231.16 Q772.773 1234.24 766.453 1234.24 Q764.277 1234.24 762.009 1233.87 Q759.763 1233.5 757.356 1232.76 L757.356 1228.06 Q759.439 1229.19 761.662 1229.75 Q763.884 1230.3 766.361 1230.3 Q770.365 1230.3 772.703 1228.2 Q775.041 1226.09 775.041 1222.48 Q775.041 1218.87 772.703 1216.76 Q770.365 1214.65 766.361 1214.65 Q764.486 1214.65 762.611 1215.07 Q760.759 1215.49 758.814 1216.37 L758.814 1199.01 Z" fill="#000000" fill-rule="nonzero" fill-opacity="1" /><path clip-path="url(#clip180)" d="M1121.21 1202.09 Q1117.6 1202.09 1115.77 1205.65 Q1113.97 1209.19 1113.97 1216.32 Q1113.97 1223.43 1115.77 1226.99 Q1117.6 1230.53 1121.21 1230.53 Q1124.85 1230.53 1126.65 1226.99 Q1128.48 1223.43 1128.48 1216.32 Q1128.48 1209.19 1126.65 1205.65 Q1124.85 1202.09 1121.21 1202.09 M1121.21 1198.38 Q1127.02 1198.38 1130.08 1202.99 Q1133.16 1207.57 1133.16 1216.32 Q1133.16 1225.05 1130.08 1229.65 Q1127.02 1234.24 1121.21 1234.24 Q1115.4 1234.24 1112.32 1229.65 Q1109.27 1225.05 1109.27 1216.32 Q1109.27 1207.57 1112.32 1202.99 Q1115.4 1198.38 1121.21 1198.38 Z" fill="#000000" fill-rule="nonzero" fill-opacity="1" /><path clip-path="url(#clip180)" d="M1141.37 1227.69 L1146.26 1227.69 L1146.26 1233.57 L1141.37 1233.57 L1141.37 1227.69 Z" fill="#000000" fill-rule="nonzero" fill-opacity="1" /><path clip-path="url(#clip180)" d="M1156.49 1199.01 L1174.85 1199.01 L1174.85 1202.94 L1160.77 1202.94 L1160.77 1211.41 Q1161.79 1211.07 1162.81 1210.9 Q1163.83 1210.72 1164.85 1210.72 Q1170.63 1210.72 1174.01 1213.89 Q1177.39 1217.06 1177.39 1222.48 Q1177.39 1228.06 1173.92 1231.16 Q1170.45 1234.24 1164.13 1234.24 Q1161.95 1234.24 1159.68 1233.87 Q1157.44 1233.5 1155.03 1232.76 L1155.03 1228.06 Q1157.12 1229.19 1159.34 1229.75 Q1161.56 1230.3 1164.04 1230.3 Q1168.04 1230.3 1170.38 1228.2 Q1172.72 1226.09 1172.72 1222.48 Q1172.72 1218.87 1170.38 1216.76 Q1168.04 1214.65 1164.04 1214.65 Q1162.16 1214.65 1160.29 1215.07 Q1158.43 1215.49 1156.49 1216.37 L1156.49 1199.01 Z" fill="#000000" fill-rule="nonzero" fill-opacity="1" /><path clip-path="url(#clip180)" d="M1196.61 1202.09 Q1192.99 1202.09 1191.17 1205.65 Q1189.36 1209.19 1189.36 1216.32 Q1189.36 1223.43 1191.17 1226.99 Q1192.99 1230.53 1196.61 1230.53 Q1200.24 1230.53 1202.05 1226.99 Q1203.87 1223.43 1203.87 1216.32 Q1203.87 1209.19 1202.05 1205.65 Q1200.24 1202.09 1196.61 1202.09 M1196.61 1198.38 Q1202.42 1198.38 1205.47 1202.99 Q1208.55 1207.57 1208.55 1216.32 Q1208.55 1225.05 1205.47 1229.65 Q1202.42 1234.24 1196.61 1234.24 Q1190.8 1234.24 1187.72 1229.65 Q1184.66 1225.05 1184.66 1216.32 Q1184.66 1207.57 1187.72 1202.99 Q1190.8 1198.38 1196.61 1198.38 Z" fill="#000000" fill-rule="nonzero" fill-opacity="1" /><path clip-path="url(#clip180)" d="M1550.05 1202.09 Q1546.43 1202.09 1544.61 1205.65 Q1542.8 1209.19 1542.8 1216.32 Q1542.8 1223.43 1544.61 1226.99 Q1546.43 1230.53 1550.05 1230.53 Q1553.68 1230.53 1555.49 1226.99 Q1557.31 1223.43 1557.31 1216.32 Q1557.31 1209.19 1555.49 1205.65 Q1553.68 1202.09 1550.05 1202.09 M1550.05 1198.38 Q1555.86 1198.38 1558.91 1202.99 Q1561.99 1207.57 1561.99 1216.32 Q1561.99 1225.05 1558.91 1229.65 Q1555.86 1234.24 1550.05 1234.24 Q1544.24 1234.24 1541.16 1229.65 Q1538.1 1225.05 1538.1 1216.32 Q1538.1 1207.57 1541.16 1202.99 Q1544.24 1198.38 1550.05 1198.38 Z" fill="#000000" fill-rule="nonzero" fill-opacity="1" /><path clip-path="url(#clip180)" d="M1570.21 1227.69 L1575.09 1227.69 L1575.09 1233.57 L1570.21 1233.57 L1570.21 1227.69 Z" fill="#000000" fill-rule="nonzero" fill-opacity="1" /><path clip-path="url(#clip180)" d="M1584.1 1199.01 L1606.32 1199.01 L1606.32 1201 L1593.77 1233.57 L1588.89 1233.57 L1600.69 1202.94 L1584.1 1202.94 L1584.1 1199.01 Z" fill="#000000" fill-rule="nonzero" fill-opacity="1" /><path clip-path="url(#clip180)" d="M1615.49 1199.01 L1633.84 1199.01 L1633.84 1202.94 L1619.77 1202.94 L1619.77 1211.41 Q1620.79 1211.07 1621.8 1210.9 Q1622.82 1210.72 1623.84 1210.72 Q1629.63 1210.72 1633.01 1213.89 Q1636.39 1217.06 1636.39 1222.48 Q1636.39 1228.06 1632.92 1231.16 Q1629.44 1234.24 1623.12 1234.24 Q1620.95 1234.24 1618.68 1233.87 Q1616.43 1233.5 1614.03 1232.76 L1614.03 1228.06 Q1616.11 1229.19 1618.33 1229.75 Q1620.55 1230.3 1623.03 1230.3 Q1627.04 1230.3 1629.37 1228.2 Q1631.71 1226.09 1631.71 1222.48 Q1631.71 1218.87 1629.37 1216.76 Q1627.04 1214.65 1623.03 1214.65 Q1621.16 1214.65 1619.28 1215.07 Q1617.43 1215.49 1615.49 1216.37 L1615.49 1199.01 Z" fill="#000000" fill-rule="nonzero" fill-opacity="1" /><path clip-path="url(#clip180)" d="M1967.65 1229.63 L1975.29 1229.63 L1975.29 1203.27 L1966.98 1204.93 L1966.98 1200.67 L1975.24 1199.01 L1979.92 1199.01 L1979.92 1229.63 L1987.56 1229.63 L1987.56 1233.57 L1967.65 1233.57 L1967.65 1229.63 Z" fill="#000000" fill-rule="nonzero" fill-opacity="1" /><path clip-path="url(#clip180)" d="M1997 1227.69 L2001.89 1227.69 L2001.89 1233.57 L1997 1233.57 L1997 1227.69 Z" fill="#000000" fill-rule="nonzero" fill-opacity="1" /><path clip-path="url(#clip180)" d="M2022.07 1202.09 Q2018.46 1202.09 2016.63 1205.65 Q2014.83 1209.19 2014.83 1216.32 Q2014.83 1223.43 2016.63 1226.99 Q2018.46 1230.53 2022.07 1230.53 Q2025.71 1230.53 2027.51 1226.99 Q2029.34 1223.43 2029.34 1216.32 Q2029.34 1209.19 2027.51 1205.65 Q2025.71 1202.09 2022.07 1202.09 M2022.07 1198.38 Q2027.88 1198.38 2030.94 1202.99 Q2034.02 1207.57 2034.02 1216.32 Q2034.02 1225.05 2030.94 1229.65 Q2027.88 1234.24 2022.07 1234.24 Q2016.26 1234.24 2013.18 1229.65 Q2010.13 1225.05 2010.13 1216.32 Q2010.13 1207.57 2013.18 1202.99 Q2016.26 1198.38 2022.07 1198.38 Z" fill="#000000" fill-rule="nonzero" fill-opacity="1" /><path clip-path="url(#clip180)" d="M2052.24 1202.09 Q2048.62 1202.09 2046.8 1205.65 Q2044.99 1209.19 2044.99 1216.32 Q2044.99 1223.43 2046.8 1226.99 Q2048.62 1230.53 2052.24 1230.53 Q2055.87 1230.53 2057.67 1226.99 Q2059.5 1223.43 2059.5 1216.32 Q2059.5 1209.19 2057.67 1205.65 Q2055.87 1202.09 2052.24 1202.09 M2052.24 1198.38 Q2058.05 1198.38 2061.1 1202.99 Q2064.18 1207.57 2064.18 1216.32 Q2064.18 1225.05 2061.1 1229.65 Q2058.05 1234.24 2052.24 1234.24 Q2046.42 1234.24 2043.35 1229.65 Q2040.29 1225.05 2040.29 1216.32 Q2040.29 1207.57 2043.35 1202.99 Q2046.42 1198.38 2052.24 1198.38 Z" fill="#000000" fill-rule="nonzero" fill-opacity="1" /><path clip-path="url(#clip180)" d="M1175.07 1278.37 L1162.18 1295.71 L1175.74 1314.01 L1168.84 1314.01 L1158.46 1300.01 L1148.08 1314.01 L1141.18 1314.01 L1155.02 1295.36 L1142.35 1278.37 L1149.26 1278.37 L1158.71 1291.07 L1168.17 1278.37 L1175.07 1278.37 Z" fill="#000000" fill-rule="nonzero" fill-opacity="1" /><polyline clip-path="url(#clip180)" style="stroke:#000000; stroke-linecap:round; stroke-linejoin:round; stroke-width:4; stroke-opacity:1; fill:none" points="252.164,1173.47 252.164,120.723 "/>
<polyline clip-path="url(#clip180)" style="stroke:#000000; stroke-linecap:round; stroke-linejoin:round; stroke-width:4; stroke-opacity:1; fill:none" points="252.164,1065.91 271.062,1065.91 "/>
<polyline clip-path="url(#clip180)" style="stroke:#000000; stroke-linecap:round; stroke-linejoin:round; stroke-width:4; stroke-opacity:1; fill:none" points="252.164,913.213 271.062,913.213 "/>
<polyline clip-path="url(#clip180)" style="stroke:#000000; stroke-linecap:round; stroke-linejoin:round; stroke-width:4; stroke-opacity:1; fill:none" points="252.164,760.513 271.062,760.513 "/>
<polyline clip-path="url(#clip180)" style="stroke:#000000; stroke-linecap:round; stroke-linejoin:round; stroke-width:4; stroke-opacity:1; fill:none" points="252.164,607.813 271.062,607.813 "/>
<polyline clip-path="url(#clip180)" style="stroke:#000000; stroke-linecap:round; stroke-linejoin:round; stroke-width:4; stroke-opacity:1; fill:none" points="252.164,455.113 271.062,455.113 "/>
<polyline clip-path="url(#clip180)" style="stroke:#000000; stroke-linecap:round; stroke-linejoin:round; stroke-width:4; stroke-opacity:1; fill:none" points="252.164,302.412 271.062,302.412 "/>
<polyline clip-path="url(#clip180)" style="stroke:#000000; stroke-linecap:round; stroke-linejoin:round; stroke-width:4; stroke-opacity:1; fill:none" points="252.164,149.712 271.062,149.712 "/>
<path clip-path="url(#clip180)" d="M114.536 1066.37 L144.211 1066.37 L144.211 1070.3 L114.536 1070.3 L114.536 1066.37 Z" fill="#000000" fill-rule="nonzero" fill-opacity="1" /><path clip-path="url(#clip180)" d="M155.114 1079.26 L162.753 1079.26 L162.753 1052.89 L154.443 1054.56 L154.443 1050.3 L162.707 1048.63 L167.382 1048.63 L167.382 1079.26 L175.021 1079.26 L175.021 1083.19 L155.114 1083.19 L155.114 1079.26 Z" fill="#000000" fill-rule="nonzero" fill-opacity="1" /><path clip-path="url(#clip180)" d="M184.466 1077.31 L189.35 1077.31 L189.35 1083.19 L184.466 1083.19 L184.466 1077.31 Z" fill="#000000" fill-rule="nonzero" fill-opacity="1" /><path clip-path="url(#clip180)" d="M199.581 1048.63 L217.938 1048.63 L217.938 1052.57 L203.864 1052.57 L203.864 1061.04 Q204.882 1060.69 205.901 1060.53 Q206.919 1060.35 207.938 1060.35 Q213.725 1060.35 217.104 1063.52 Q220.484 1066.69 220.484 1072.11 Q220.484 1077.68 217.012 1080.79 Q213.54 1083.86 207.22 1083.86 Q205.044 1083.86 202.776 1083.49 Q200.53 1083.12 198.123 1082.38 L198.123 1077.68 Q200.206 1078.82 202.429 1079.37 Q204.651 1079.93 207.128 1079.93 Q211.132 1079.93 213.47 1077.82 Q215.808 1075.72 215.808 1072.11 Q215.808 1068.49 213.47 1066.39 Q211.132 1064.28 207.128 1064.28 Q205.253 1064.28 203.378 1064.7 Q201.526 1065.12 199.581 1065.99 L199.581 1048.63 Z" fill="#000000" fill-rule="nonzero" fill-opacity="1" /><path clip-path="url(#clip180)" d="M113.54 913.665 L143.216 913.665 L143.216 917.6 L113.54 917.6 L113.54 913.665 Z" fill="#000000" fill-rule="nonzero" fill-opacity="1" /><path clip-path="url(#clip180)" d="M154.119 926.558 L161.757 926.558 L161.757 900.193 L153.447 901.859 L153.447 897.6 L161.711 895.933 L166.387 895.933 L166.387 926.558 L174.026 926.558 L174.026 930.493 L154.119 930.493 L154.119 926.558 Z" fill="#000000" fill-rule="nonzero" fill-opacity="1" /><path clip-path="url(#clip180)" d="M183.47 924.614 L188.355 924.614 L188.355 930.493 L183.47 930.493 L183.47 924.614 Z" fill="#000000" fill-rule="nonzero" fill-opacity="1" /><path clip-path="url(#clip180)" d="M208.54 899.012 Q204.929 899.012 203.1 902.577 Q201.294 906.119 201.294 913.248 Q201.294 920.355 203.1 923.919 Q204.929 927.461 208.54 927.461 Q212.174 927.461 213.979 923.919 Q215.808 920.355 215.808 913.248 Q215.808 906.119 213.979 902.577 Q212.174 899.012 208.54 899.012 M208.54 895.308 Q214.35 895.308 217.405 899.915 Q220.484 904.498 220.484 913.248 Q220.484 921.975 217.405 926.581 Q214.35 931.165 208.54 931.165 Q202.729 931.165 199.651 926.581 Q196.595 921.975 196.595 913.248 Q196.595 904.498 199.651 899.915 Q202.729 895.308 208.54 895.308 Z" fill="#000000" fill-rule="nonzero" fill-opacity="1" /><path clip-path="url(#clip180)" d="M114.536 760.965 L144.211 760.965 L144.211 764.9 L114.536 764.9 L114.536 760.965 Z" fill="#000000" fill-rule="nonzero" fill-opacity="1" /><path clip-path="url(#clip180)" d="M164.304 746.312 Q160.693 746.312 158.864 749.877 Q157.058 753.418 157.058 760.548 Q157.058 767.654 158.864 771.219 Q160.693 774.761 164.304 774.761 Q167.938 774.761 169.744 771.219 Q171.572 767.654 171.572 760.548 Q171.572 753.418 169.744 749.877 Q167.938 746.312 164.304 746.312 M164.304 742.608 Q170.114 742.608 173.169 747.215 Q176.248 751.798 176.248 760.548 Q176.248 769.275 173.169 773.881 Q170.114 778.464 164.304 778.464 Q158.494 778.464 155.415 773.881 Q152.359 769.275 152.359 760.548 Q152.359 751.798 155.415 747.215 Q158.494 742.608 164.304 742.608 Z" fill="#000000" fill-rule="nonzero" fill-opacity="1" /><path clip-path="url(#clip180)" d="M184.466 771.914 L189.35 771.914 L189.35 777.793 L184.466 777.793 L184.466 771.914 Z" fill="#000000" fill-rule="nonzero" fill-opacity="1" /><path clip-path="url(#clip180)" d="M199.581 743.233 L217.938 743.233 L217.938 747.168 L203.864 747.168 L203.864 755.64 Q204.882 755.293 205.901 755.131 Q206.919 754.946 207.938 754.946 Q213.725 754.946 217.104 758.117 Q220.484 761.289 220.484 766.705 Q220.484 772.284 217.012 775.386 Q213.54 778.464 207.22 778.464 Q205.044 778.464 202.776 778.094 Q200.53 777.724 198.123 776.983 L198.123 772.284 Q200.206 773.418 202.429 773.974 Q204.651 774.529 207.128 774.529 Q211.132 774.529 213.47 772.423 Q215.808 770.316 215.808 766.705 Q215.808 763.094 213.47 760.988 Q211.132 758.881 207.128 758.881 Q205.253 758.881 203.378 759.298 Q201.526 759.715 199.581 760.594 L199.581 743.233 Z" fill="#000000" fill-rule="nonzero" fill-opacity="1" /><path clip-path="url(#clip180)" d="M163.308 593.612 Q159.697 593.612 157.869 597.176 Q156.063 600.718 156.063 607.848 Q156.063 614.954 157.869 618.519 Q159.697 622.06 163.308 622.06 Q166.943 622.06 168.748 618.519 Q170.577 614.954 170.577 607.848 Q170.577 600.718 168.748 597.176 Q166.943 593.612 163.308 593.612 M163.308 589.908 Q169.119 589.908 172.174 594.514 Q175.253 599.098 175.253 607.848 Q175.253 616.574 172.174 621.181 Q169.119 625.764 163.308 625.764 Q157.498 625.764 154.42 621.181 Q151.364 616.574 151.364 607.848 Q151.364 599.098 154.42 594.514 Q157.498 589.908 163.308 589.908 Z" fill="#000000" fill-rule="nonzero" fill-opacity="1" /><path clip-path="url(#clip180)" d="M183.47 619.213 L188.355 619.213 L188.355 625.093 L183.47 625.093 L183.47 619.213 Z" fill="#000000" fill-rule="nonzero" fill-opacity="1" /><path clip-path="url(#clip180)" d="M208.54 593.612 Q204.929 593.612 203.1 597.176 Q201.294 600.718 201.294 607.848 Q201.294 614.954 203.1 618.519 Q204.929 622.06 208.54 622.06 Q212.174 622.06 213.979 618.519 Q215.808 614.954 215.808 607.848 Q215.808 600.718 213.979 597.176 Q212.174 593.612 208.54 593.612 M208.54 589.908 Q214.35 589.908 217.405 594.514 Q220.484 599.098 220.484 607.848 Q220.484 616.574 217.405 621.181 Q214.35 625.764 208.54 625.764 Q202.729 625.764 199.651 621.181 Q196.595 616.574 196.595 607.848 Q196.595 599.098 199.651 594.514 Q202.729 589.908 208.54 589.908 Z" fill="#000000" fill-rule="nonzero" fill-opacity="1" /><path clip-path="url(#clip180)" d="M164.304 440.911 Q160.693 440.911 158.864 444.476 Q157.058 448.018 157.058 455.147 Q157.058 462.254 158.864 465.819 Q160.693 469.36 164.304 469.36 Q167.938 469.36 169.744 465.819 Q171.572 462.254 171.572 455.147 Q171.572 448.018 169.744 444.476 Q167.938 440.911 164.304 440.911 M164.304 437.208 Q170.114 437.208 173.169 441.814 Q176.248 446.397 176.248 455.147 Q176.248 463.874 173.169 468.481 Q170.114 473.064 164.304 473.064 Q158.494 473.064 155.415 468.481 Q152.359 463.874 152.359 455.147 Q152.359 446.397 155.415 441.814 Q158.494 437.208 164.304 437.208 Z" fill="#000000" fill-rule="nonzero" fill-opacity="1" /><path clip-path="url(#clip180)" d="M184.466 466.513 L189.35 466.513 L189.35 472.393 L184.466 472.393 L184.466 466.513 Z" fill="#000000" fill-rule="nonzero" fill-opacity="1" /><path clip-path="url(#clip180)" d="M199.581 437.833 L217.938 437.833 L217.938 441.768 L203.864 441.768 L203.864 450.24 Q204.882 449.893 205.901 449.731 Q206.919 449.545 207.938 449.545 Q213.725 449.545 217.104 452.717 Q220.484 455.888 220.484 461.305 Q220.484 466.883 217.012 469.985 Q213.54 473.064 207.22 473.064 Q205.044 473.064 202.776 472.694 Q200.53 472.323 198.123 471.582 L198.123 466.883 Q200.206 468.018 202.429 468.573 Q204.651 469.129 207.128 469.129 Q211.132 469.129 213.47 467.022 Q215.808 464.916 215.808 461.305 Q215.808 457.694 213.47 455.587 Q211.132 453.481 207.128 453.481 Q205.253 453.481 203.378 453.897 Q201.526 454.314 199.581 455.194 L199.581 437.833 Z" fill="#000000" fill-rule="nonzero" fill-opacity="1" /><path clip-path="url(#clip180)" d="M154.119 315.757 L161.757 315.757 L161.757 289.392 L153.447 291.058 L153.447 286.799 L161.711 285.132 L166.387 285.132 L166.387 315.757 L174.026 315.757 L174.026 319.692 L154.119 319.692 L154.119 315.757 Z" fill="#000000" fill-rule="nonzero" fill-opacity="1" /><path clip-path="url(#clip180)" d="M183.47 313.813 L188.355 313.813 L188.355 319.692 L183.47 319.692 L183.47 313.813 Z" fill="#000000" fill-rule="nonzero" fill-opacity="1" /><path clip-path="url(#clip180)" d="M208.54 288.211 Q204.929 288.211 203.1 291.776 Q201.294 295.317 201.294 302.447 Q201.294 309.553 203.1 313.118 Q204.929 316.66 208.54 316.66 Q212.174 316.66 213.979 313.118 Q215.808 309.553 215.808 302.447 Q215.808 295.317 213.979 291.776 Q212.174 288.211 208.54 288.211 M208.54 284.507 Q214.35 284.507 217.405 289.114 Q220.484 293.697 220.484 302.447 Q220.484 311.174 217.405 315.78 Q214.35 320.364 208.54 320.364 Q202.729 320.364 199.651 315.78 Q196.595 311.174 196.595 302.447 Q196.595 293.697 199.651 289.114 Q202.729 284.507 208.54 284.507 Z" fill="#000000" fill-rule="nonzero" fill-opacity="1" /><path clip-path="url(#clip180)" d="M155.114 163.057 L162.753 163.057 L162.753 136.691 L154.443 138.358 L154.443 134.099 L162.707 132.432 L167.382 132.432 L167.382 163.057 L175.021 163.057 L175.021 166.992 L155.114 166.992 L155.114 163.057 Z" fill="#000000" fill-rule="nonzero" fill-opacity="1" /><path clip-path="url(#clip180)" d="M184.466 161.112 L189.35 161.112 L189.35 166.992 L184.466 166.992 L184.466 161.112 Z" fill="#000000" fill-rule="nonzero" fill-opacity="1" /><path clip-path="url(#clip180)" d="M199.581 132.432 L217.938 132.432 L217.938 136.367 L203.864 136.367 L203.864 144.839 Q204.882 144.492 205.901 144.33 Q206.919 144.145 207.938 144.145 Q213.725 144.145 217.104 147.316 Q220.484 150.488 220.484 155.904 Q220.484 161.483 217.012 164.585 Q213.54 167.663 207.22 167.663 Q205.044 167.663 202.776 167.293 Q200.53 166.923 198.123 166.182 L198.123 161.483 Q200.206 162.617 202.429 163.173 Q204.651 163.728 207.128 163.728 Q211.132 163.728 213.47 161.622 Q215.808 159.515 215.808 155.904 Q215.808 152.293 213.47 150.187 Q211.132 148.08 207.128 148.08 Q205.253 148.08 203.378 148.497 Q201.526 148.913 199.581 149.793 L199.581 132.432 Z" fill="#000000" fill-rule="nonzero" fill-opacity="1" /><path clip-path="url(#clip180)" d="M18.079 856.863 L22.9487 856.863 L22.9487 862.465 Q22.9487 865.616 24.2219 866.857 Q25.495 868.066 28.8052 868.066 L31.9562 868.066 L31.9562 858.422 L36.5077 858.422 L36.5077 868.066 L67.6042 868.066 L67.6042 873.955 L36.5077 873.955 L36.5077 879.557 L31.9562 879.557 L31.9562 873.955 L29.4736 873.955 Q23.5216 873.955 20.8162 871.186 Q18.079 868.417 18.079 862.401 L18.079 856.863 Z" fill="#000000" fill-rule="nonzero" fill-opacity="1" /><path clip-path="url(#clip180)" d="M18.1426 837.893 Q25.4632 842.158 32.6246 844.227 Q39.786 846.296 47.1384 846.296 Q54.4908 846.296 61.7159 844.227 Q68.9091 842.126 76.1979 837.893 L76.1979 842.986 Q68.7182 847.76 61.4931 850.147 Q54.268 852.502 47.1384 852.502 Q40.0406 852.502 32.8474 850.147 Q25.6542 847.792 18.1426 842.986 L18.1426 837.893 Z" fill="#000000" fill-rule="nonzero" fill-opacity="1" /><path clip-path="url(#clip180)" d="M31.9562 796.898 L49.3028 809.788 L67.6042 796.229 L67.6042 803.136 L53.5996 813.512 L67.6042 823.888 L67.6042 830.795 L48.9526 816.95 L31.9562 829.618 L31.9562 822.711 L44.6558 813.258 L31.9562 803.805 L31.9562 796.898 Z" fill="#000000" fill-rule="nonzero" fill-opacity="1" /><path clip-path="url(#clip180)" d="M18.1426 788.877 L18.1426 783.785 Q25.6542 779.01 32.8474 776.655 Q40.0406 774.268 47.1384 774.268 Q54.268 774.268 61.4931 776.655 Q68.7182 779.01 76.1979 783.785 L76.1979 788.877 Q68.9091 784.644 61.7159 782.575 Q54.4908 780.474 47.1384 780.474 Q39.786 780.474 32.6246 782.575 Q25.4632 784.644 18.1426 788.877 Z" fill="#000000" fill-rule="nonzero" fill-opacity="1" /><path clip-path="url(#clip180)" d="M18.079 742.344 L18.079 728.848 L22.6304 728.848 L22.6304 736.487 L71.6464 736.487 L71.6464 728.848 L76.1979 728.848 L76.1979 742.344 L18.079 742.344 Z" fill="#000000" fill-rule="nonzero" fill-opacity="1" /><path clip-path="url(#clip180)" d="M18.079 716.372 L18.079 710.515 L67.6042 710.515 L67.6042 716.372 L18.079 716.372 Z" fill="#000000" fill-rule="nonzero" fill-opacity="1" /><path clip-path="url(#clip180)" d="M36.0621 684.448 Q36.0621 689.158 39.7542 691.896 Q43.4145 694.633 49.812 694.633 Q56.2095 694.633 59.9017 691.927 Q63.5619 689.19 63.5619 684.448 Q63.5619 679.769 59.8698 677.032 Q56.1777 674.294 49.812 674.294 Q43.4781 674.294 39.786 677.032 Q36.0621 679.769 36.0621 684.448 M31.0968 684.448 Q31.0968 676.809 36.0621 672.448 Q41.0273 668.088 49.812 668.088 Q58.5649 668.088 63.5619 672.448 Q68.5272 676.809 68.5272 684.448 Q68.5272 692.118 63.5619 696.479 Q58.5649 700.808 49.812 700.808 Q41.0273 700.808 36.0621 696.479 Q31.0968 692.118 31.0968 684.448 Z" fill="#000000" fill-rule="nonzero" fill-opacity="1" /><path clip-path="url(#clip180)" d="M49.3664 634.922 Q43.0007 634.922 39.4996 637.564 Q35.9984 640.174 35.9984 644.917 Q35.9984 649.627 39.4996 652.269 Q43.0007 654.879 49.3664 654.879 Q55.7003 654.879 59.2014 652.269 Q62.7026 649.627 62.7026 644.917 Q62.7026 640.174 59.2014 637.564 Q55.7003 634.922 49.3664 634.922 M63.18 629.066 Q72.283 629.066 76.7071 633.108 Q81.1631 637.15 81.1631 645.49 Q81.1631 648.577 80.6857 651.314 Q80.2401 654.051 79.2852 656.63 L73.5879 656.63 Q74.9884 654.051 75.6568 651.537 Q76.3252 649.023 76.3252 646.413 Q76.3252 640.652 73.3015 637.787 Q70.3096 634.922 64.2303 634.922 L61.3339 634.922 Q64.485 636.737 66.0446 639.569 Q67.6042 642.402 67.6042 646.349 Q67.6042 652.906 62.6071 656.916 Q57.61 660.926 49.3664 660.926 Q41.091 660.926 36.0939 656.916 Q31.0968 652.906 31.0968 646.349 Q31.0968 642.402 32.6564 639.569 Q34.216 636.737 37.3671 634.922 L31.9562 634.922 L31.9562 629.066 L63.18 629.066 Z" fill="#000000" fill-rule="nonzero" fill-opacity="1" /><path clip-path="url(#clip180)" d="M33.0065 573.557 L38.5447 573.557 Q37.2716 576.04 36.635 578.713 Q35.9984 581.387 35.9984 584.251 Q35.9984 588.612 37.3352 590.808 Q38.672 592.972 41.3456 592.972 Q43.3826 592.972 44.5603 591.413 Q45.7061 589.853 46.7565 585.143 L47.2021 583.137 Q48.5389 576.899 50.9897 574.289 Q53.4086 571.647 57.7691 571.647 Q62.7344 571.647 65.6308 575.594 Q68.5272 579.509 68.5272 586.384 Q68.5272 589.249 67.9543 592.368 Q67.4132 595.455 66.2992 598.893 L60.2518 598.893 Q61.9387 595.646 62.798 592.495 Q63.6256 589.344 63.6256 586.257 Q63.6256 582.119 62.2251 579.891 Q60.7929 577.663 58.2147 577.663 Q55.8276 577.663 54.5545 579.286 Q53.2813 580.878 52.1037 586.32 L51.6262 588.357 Q50.4804 593.8 48.1251 596.219 Q45.738 598.638 41.6002 598.638 Q36.5713 598.638 33.8341 595.073 Q31.0968 591.508 31.0968 584.952 Q31.0968 581.705 31.5743 578.841 Q32.0517 575.976 33.0065 573.557 Z" fill="#000000" fill-rule="nonzero" fill-opacity="1" /><path clip-path="url(#clip180)" d="M33.3248 536.668 L38.7993 536.668 Q37.4307 539.15 36.7623 541.665 Q36.0621 544.148 36.0621 546.694 Q36.0621 552.391 39.6905 555.542 Q43.2872 558.693 49.812 558.693 Q56.3369 558.693 59.9653 555.542 Q63.5619 552.391 63.5619 546.694 Q63.5619 544.148 62.8935 541.665 Q62.1933 539.15 60.8247 536.668 L66.2355 536.668 Q67.3814 539.119 67.9543 541.76 Q68.5272 544.37 68.5272 547.33 Q68.5272 555.383 63.4664 560.125 Q58.4057 564.868 49.812 564.868 Q41.091 564.868 36.0939 560.094 Q31.0968 555.287 31.0968 546.948 Q31.0968 544.243 31.6697 541.665 Q32.2108 539.087 33.3248 536.668 Z" fill="#000000" fill-rule="nonzero" fill-opacity="1" /><path clip-path="url(#clip180)" d="M49.6847 510.282 Q49.6847 517.38 51.3079 520.117 Q52.9312 522.854 56.8461 522.854 Q59.9653 522.854 61.8114 520.817 Q63.6256 518.748 63.6256 515.215 Q63.6256 510.346 60.1881 507.417 Q56.7188 504.457 50.9897 504.457 L49.6847 504.457 L49.6847 510.282 M47.2657 498.601 L67.6042 498.601 L67.6042 504.457 L62.1933 504.457 Q65.4398 506.463 66.9994 509.454 Q68.5272 512.446 68.5272 516.775 Q68.5272 522.249 65.4716 525.496 Q62.3843 528.711 57.2281 528.711 Q51.2125 528.711 48.1569 524.7 Q45.1014 520.658 45.1014 512.669 L45.1014 504.457 L44.5285 504.457 Q40.4862 504.457 38.2901 507.131 Q36.0621 509.773 36.0621 514.579 Q36.0621 517.634 36.7941 520.531 Q37.5262 523.427 38.9903 526.101 L33.5795 526.101 Q32.3381 522.886 31.7334 519.862 Q31.0968 516.839 31.0968 513.974 Q31.0968 506.24 35.1072 502.42 Q39.1176 498.601 47.2657 498.601 Z" fill="#000000" fill-rule="nonzero" fill-opacity="1" /><path clip-path="url(#clip180)" d="M18.079 486.538 L18.079 480.681 L67.6042 480.681 L67.6042 486.538 L18.079 486.538 Z" fill="#000000" fill-rule="nonzero" fill-opacity="1" /><path clip-path="url(#clip180)" d="M48.3161 437.936 L51.1806 437.936 L51.1806 464.863 Q57.2281 464.481 60.4109 461.234 Q63.5619 457.956 63.5619 452.131 Q63.5619 448.757 62.7344 445.606 Q61.9069 442.424 60.2518 439.304 L65.7899 439.304 Q67.1267 442.455 67.827 445.766 Q68.5272 449.076 68.5272 452.481 Q68.5272 461.011 63.5619 466.008 Q58.5967 470.974 50.1303 470.974 Q41.3774 470.974 36.2531 466.263 Q31.0968 461.521 31.0968 453.5 Q31.0968 446.307 35.7438 442.137 Q40.3589 437.936 48.3161 437.936 M46.5973 443.792 Q41.7912 443.856 38.9266 446.498 Q36.0621 449.108 36.0621 453.436 Q36.0621 458.338 38.8312 461.298 Q41.6002 464.226 46.6292 464.672 L46.5973 443.792 Z" fill="#000000" fill-rule="nonzero" fill-opacity="1" /><path clip-path="url(#clip180)" d="M18.079 414.637 L76.1979 414.637 L76.1979 428.132 L71.6464 428.132 L71.6464 420.525 L22.6304 420.525 L22.6304 428.132 L18.079 428.132 L18.079 414.637 Z" fill="#000000" fill-rule="nonzero" fill-opacity="1" /><path clip-path="url(#clip180)" d="M413.438 18.8205 L413.438 41.5461 L423.727 41.5461 Q429.439 41.5461 432.558 38.5889 Q435.677 35.6318 435.677 30.163 Q435.677 24.7348 432.558 21.7777 Q429.439 18.8205 423.727 18.8205 L413.438 18.8205 M405.255 12.096 L423.727 12.096 Q433.895 12.096 439.08 16.714 Q444.306 21.2916 444.306 30.163 Q444.306 39.1155 439.08 43.6931 Q433.895 48.2706 423.727 48.2706 L413.438 48.2706 L413.438 72.576 L405.255 72.576 L405.255 12.096 Z" fill="#000000" fill-rule="nonzero" fill-opacity="1" /><path clip-path="url(#clip180)" d="M469.583 32.4315 Q463.588 32.4315 460.104 37.1306 Q456.621 41.7891 456.621 49.9314 Q456.621 58.0738 460.064 62.7728 Q463.548 67.4314 469.583 67.4314 Q475.538 67.4314 479.022 62.7323 Q482.506 58.0333 482.506 49.9314 Q482.506 41.8701 479.022 37.1711 Q475.538 32.4315 469.583 32.4315 M469.583 26.1121 Q479.306 26.1121 484.855 32.4315 Q490.405 38.7509 490.405 49.9314 Q490.405 61.0714 484.855 67.4314 Q479.306 73.7508 469.583 73.7508 Q459.821 73.7508 454.271 67.4314 Q448.762 61.0714 448.762 49.9314 Q448.762 38.7509 454.271 32.4315 Q459.821 26.1121 469.583 26.1121 Z" fill="#000000" fill-rule="nonzero" fill-opacity="1" /><path clip-path="url(#clip180)" d="M502.76 27.2059 L510.214 27.2059 L510.214 72.576 L502.76 72.576 L502.76 27.2059 M502.76 9.54393 L510.214 9.54393 L510.214 18.9825 L502.76 18.9825 L502.76 9.54393 Z" fill="#000000" fill-rule="nonzero" fill-opacity="1" /><path clip-path="url(#clip180)" d="M554.733 28.5427 L554.733 35.5912 Q551.574 33.9709 548.171 33.1607 Q544.768 32.3505 541.122 32.3505 Q535.573 32.3505 532.778 34.0519 Q530.023 35.7533 530.023 39.156 Q530.023 41.7486 532.008 43.2475 Q533.993 44.7058 539.988 46.0426 L542.54 46.6097 Q550.48 48.3111 553.802 51.4303 Q557.164 54.509 557.164 60.0587 Q557.164 66.3781 552.141 70.0644 Q547.158 73.7508 538.408 73.7508 Q534.762 73.7508 530.793 73.0216 Q526.863 72.3329 522.488 70.9151 L522.488 63.2184 Q526.62 65.3654 530.631 66.4591 Q534.641 67.5124 538.57 67.5124 Q543.837 67.5124 546.672 65.73 Q549.508 63.9071 549.508 60.6258 Q549.508 57.5877 547.442 55.9673 Q545.416 54.3469 538.489 52.8481 L535.897 52.2405 Q528.97 50.7821 525.891 47.7845 Q522.812 44.7463 522.812 39.4801 Q522.812 33.0797 527.349 29.5959 Q531.886 26.1121 540.231 26.1121 Q544.363 26.1121 548.009 26.7198 Q551.655 27.3274 554.733 28.5427 Z" fill="#000000" fill-rule="nonzero" fill-opacity="1" /><path clip-path="url(#clip180)" d="M597.957 28.5427 L597.957 35.5912 Q594.797 33.9709 591.394 33.1607 Q587.991 32.3505 584.346 32.3505 Q578.796 32.3505 576.001 34.0519 Q573.246 35.7533 573.246 39.156 Q573.246 41.7486 575.231 43.2475 Q577.216 44.7058 583.211 46.0426 L585.763 46.6097 Q593.703 48.3111 597.025 51.4303 Q600.387 54.509 600.387 60.0587 Q600.387 66.3781 595.364 70.0644 Q590.381 73.7508 581.631 73.7508 Q577.986 73.7508 574.016 73.0216 Q570.086 72.3329 565.711 70.9151 L565.711 63.2184 Q569.843 65.3654 573.854 66.4591 Q577.864 67.5124 581.793 67.5124 Q587.06 67.5124 589.895 65.73 Q592.731 63.9071 592.731 60.6258 Q592.731 57.5877 590.665 55.9673 Q588.64 54.3469 581.712 52.8481 L579.12 52.2405 Q572.193 50.7821 569.114 47.7845 Q566.035 44.7463 566.035 39.4801 Q566.035 33.0797 570.572 29.5959 Q575.11 26.1121 583.454 26.1121 Q587.586 26.1121 591.232 26.7198 Q594.878 27.3274 597.957 28.5427 Z" fill="#000000" fill-rule="nonzero" fill-opacity="1" /><path clip-path="url(#clip180)" d="M629.837 32.4315 Q623.842 32.4315 620.358 37.1306 Q616.874 41.7891 616.874 49.9314 Q616.874 58.0738 620.318 62.7728 Q623.801 67.4314 629.837 67.4314 Q635.792 67.4314 639.276 62.7323 Q642.76 58.0333 642.76 49.9314 Q642.76 41.8701 639.276 37.1711 Q635.792 32.4315 629.837 32.4315 M629.837 26.1121 Q639.559 26.1121 645.109 32.4315 Q650.659 38.7509 650.659 49.9314 Q650.659 61.0714 645.109 67.4314 Q639.559 73.7508 629.837 73.7508 Q620.075 73.7508 614.525 67.4314 Q609.016 61.0714 609.016 49.9314 Q609.016 38.7509 614.525 32.4315 Q620.075 26.1121 629.837 26.1121 Z" fill="#000000" fill-rule="nonzero" fill-opacity="1" /><path clip-path="url(#clip180)" d="M700.728 45.1919 L700.728 72.576 L693.274 72.576 L693.274 45.4349 Q693.274 38.994 690.763 35.7938 Q688.251 32.5936 683.228 32.5936 Q677.192 32.5936 673.709 36.4419 Q670.225 40.2903 670.225 46.9338 L670.225 72.576 L662.731 72.576 L662.731 27.2059 L670.225 27.2059 L670.225 34.2544 Q672.898 30.163 676.504 28.1376 Q680.149 26.1121 684.889 26.1121 Q692.707 26.1121 696.718 30.9732 Q700.728 35.7938 700.728 45.1919 Z" fill="#000000" fill-rule="nonzero" fill-opacity="1" /><path clip-path="url(#clip180)" d="M783.529 63.9476 L783.529 47.7034 L770.161 47.7034 L770.161 40.9789 L791.63 40.9789 L791.63 66.9452 Q786.891 70.3075 781.179 72.0494 Q775.467 73.7508 768.986 73.7508 Q754.808 73.7508 746.787 65.4869 Q738.807 57.1826 738.807 42.3968 Q738.807 27.5705 746.787 19.3066 Q754.808 11.0023 768.986 11.0023 Q774.9 11.0023 780.207 12.4606 Q785.554 13.9189 790.05 16.7545 L790.05 25.464 Q785.513 21.6156 780.409 19.6712 Q775.305 17.7268 769.674 17.7268 Q758.575 17.7268 752.985 23.9246 Q747.435 30.1225 747.435 42.3968 Q747.435 54.6305 752.985 60.8284 Q758.575 67.0263 769.674 67.0263 Q774.009 67.0263 777.412 66.2971 Q780.814 65.5274 783.529 63.9476 Z" fill="#000000" fill-rule="nonzero" fill-opacity="1" /><path clip-path="url(#clip180)" d="M826.792 20.1573 L815.693 50.2555 L837.932 50.2555 L826.792 20.1573 M822.174 12.096 L831.451 12.096 L854.5 72.576 L845.993 72.576 L840.484 57.061 L813.222 57.061 L807.712 72.576 L799.084 72.576 L822.174 12.096 Z" fill="#000000" fill-rule="nonzero" fill-opacity="1" /><path clip-path="url(#clip180)" d="M863.331 12.096 L875.525 12.096 L890.959 53.2532 L906.473 12.096 L918.667 12.096 L918.667 72.576 L910.686 72.576 L910.686 19.4686 L895.09 60.9499 L886.867 60.9499 L871.271 19.4686 L871.271 72.576 L863.331 72.576 L863.331 12.096 Z" fill="#000000" fill-rule="nonzero" fill-opacity="1" /><path clip-path="url(#clip180)" d="M957.191 46.9338 L1032.05 46.9338 L1032.05 52.7671 L957.191 52.7671 L957.191 46.9338 Z" fill="#000000" fill-rule="nonzero" fill-opacity="1" /><path clip-path="url(#clip180)" d="M1099.22 28.5427 L1099.22 35.5912 Q1096.06 33.9709 1092.65 33.1607 Q1089.25 32.3505 1085.6 32.3505 Q1080.05 32.3505 1077.26 34.0519 Q1074.5 35.7533 1074.5 39.156 Q1074.5 41.7486 1076.49 43.2475 Q1078.47 44.7058 1084.47 46.0426 L1087.02 46.6097 Q1094.96 48.3111 1098.28 51.4303 Q1101.65 54.509 1101.65 60.0587 Q1101.65 66.3781 1096.62 70.0644 Q1091.64 73.7508 1082.89 73.7508 Q1079.24 73.7508 1075.27 73.0216 Q1071.35 72.3329 1066.97 70.9151 L1066.97 63.2184 Q1071.1 65.3654 1075.11 66.4591 Q1079.12 67.5124 1083.05 67.5124 Q1088.32 67.5124 1091.15 65.73 Q1093.99 63.9071 1093.99 60.6258 Q1093.99 57.5877 1091.92 55.9673 Q1089.9 54.3469 1082.97 52.8481 L1080.38 52.2405 Q1073.45 50.7821 1070.37 47.7845 Q1067.29 44.7463 1067.29 39.4801 Q1067.29 33.0797 1071.83 29.5959 Q1076.37 26.1121 1084.71 26.1121 Q1088.85 26.1121 1092.49 26.7198 Q1096.14 27.3274 1099.22 28.5427 Z" fill="#000000" fill-rule="nonzero" fill-opacity="1" /><path clip-path="url(#clip180)" d="M1148.84 35.9153 Q1151.63 30.8922 1155.52 28.5022 Q1159.41 26.1121 1164.68 26.1121 Q1171.77 26.1121 1175.62 31.0947 Q1179.46 36.0368 1179.46 45.1919 L1179.46 72.576 L1171.97 72.576 L1171.97 45.4349 Q1171.97 38.913 1169.66 35.7533 Q1167.35 32.5936 1162.61 32.5936 Q1156.82 32.5936 1153.46 36.4419 Q1150.09 40.2903 1150.09 46.9338 L1150.09 72.576 L1142.6 72.576 L1142.6 45.4349 Q1142.6 38.8725 1140.29 35.7533 Q1137.98 32.5936 1133.16 32.5936 Q1127.45 32.5936 1124.09 36.4824 Q1120.73 40.3308 1120.73 46.9338 L1120.73 72.576 L1113.23 72.576 L1113.23 27.2059 L1120.73 27.2059 L1120.73 34.2544 Q1123.28 30.082 1126.84 28.0971 Q1130.41 26.1121 1135.31 26.1121 Q1140.25 26.1121 1143.69 28.6237 Q1147.18 31.1352 1148.84 35.9153 Z" fill="#000000" fill-rule="nonzero" fill-opacity="1" /><path clip-path="url(#clip180)" d="M1211.91 32.4315 Q1205.92 32.4315 1202.43 37.1306 Q1198.95 41.7891 1198.95 49.9314 Q1198.95 58.0738 1202.39 62.7728 Q1205.88 67.4314 1211.91 67.4314 Q1217.87 67.4314 1221.35 62.7323 Q1224.83 58.0333 1224.83 49.9314 Q1224.83 41.8701 1221.35 37.1711 Q1217.87 32.4315 1211.91 32.4315 M1211.91 26.1121 Q1221.63 26.1121 1227.18 32.4315 Q1232.73 38.7509 1232.73 49.9314 Q1232.73 61.0714 1227.18 67.4314 Q1221.63 73.7508 1211.91 73.7508 Q1202.15 73.7508 1196.6 67.4314 Q1191.09 61.0714 1191.09 49.9314 Q1191.09 38.7509 1196.6 32.4315 Q1202.15 26.1121 1211.91 26.1121 Z" fill="#000000" fill-rule="nonzero" fill-opacity="1" /><path clip-path="url(#clip180)" d="M1262.67 32.4315 Q1256.67 32.4315 1253.19 37.1306 Q1249.71 41.7891 1249.71 49.9314 Q1249.71 58.0738 1253.15 62.7728 Q1256.63 67.4314 1262.67 67.4314 Q1268.62 67.4314 1272.11 62.7323 Q1275.59 58.0333 1275.59 49.9314 Q1275.59 41.8701 1272.11 37.1711 Q1268.62 32.4315 1262.67 32.4315 M1262.67 26.1121 Q1272.39 26.1121 1277.94 32.4315 Q1283.49 38.7509 1283.49 49.9314 Q1283.49 61.0714 1277.94 67.4314 Q1272.39 73.7508 1262.67 73.7508 Q1252.91 73.7508 1247.36 67.4314 Q1241.85 61.0714 1241.85 49.9314 Q1241.85 38.7509 1247.36 32.4315 Q1252.91 26.1121 1262.67 26.1121 Z" fill="#000000" fill-rule="nonzero" fill-opacity="1" /><path clip-path="url(#clip180)" d="M1303.22 14.324 L1303.22 27.2059 L1318.57 27.2059 L1318.57 32.9987 L1303.22 32.9987 L1303.22 57.6282 Q1303.22 63.1779 1304.72 64.7578 Q1306.26 66.3376 1310.92 66.3376 L1318.57 66.3376 L1318.57 72.576 L1310.92 72.576 Q1302.29 72.576 1299.01 69.3758 Q1295.72 66.1351 1295.72 57.6282 L1295.72 32.9987 L1290.26 32.9987 L1290.26 27.2059 L1295.72 27.2059 L1295.72 14.324 L1303.22 14.324 Z" fill="#000000" fill-rule="nonzero" fill-opacity="1" /><path clip-path="url(#clip180)" d="M1366.09 45.1919 L1366.09 72.576 L1358.64 72.576 L1358.64 45.4349 Q1358.64 38.994 1356.12 35.7938 Q1353.61 32.5936 1348.59 32.5936 Q1342.55 32.5936 1339.07 36.4419 Q1335.59 40.2903 1335.59 46.9338 L1335.59 72.576 L1328.09 72.576 L1328.09 9.54393 L1335.59 9.54393 L1335.59 34.2544 Q1338.26 30.163 1341.86 28.1376 Q1345.51 26.1121 1350.25 26.1121 Q1358.07 26.1121 1362.08 30.9732 Q1366.09 35.7938 1366.09 45.1919 Z" fill="#000000" fill-rule="nonzero" fill-opacity="1" /><path clip-path="url(#clip180)" d="M1424.91 32.4315 Q1418.91 32.4315 1415.43 37.1306 Q1411.95 41.7891 1411.95 49.9314 Q1411.95 58.0738 1415.39 62.7728 Q1418.87 67.4314 1424.91 67.4314 Q1430.86 67.4314 1434.35 62.7323 Q1437.83 58.0333 1437.83 49.9314 Q1437.83 41.8701 1434.35 37.1711 Q1430.86 32.4315 1424.91 32.4315 M1424.91 26.1121 Q1434.63 26.1121 1440.18 32.4315 Q1445.73 38.7509 1445.73 49.9314 Q1445.73 61.0714 1440.18 67.4314 Q1434.63 73.7508 1424.91 73.7508 Q1415.15 73.7508 1409.6 67.4314 Q1404.09 61.0714 1404.09 49.9314 Q1404.09 38.7509 1409.6 32.4315 Q1415.15 26.1121 1424.91 26.1121 Z" fill="#000000" fill-rule="nonzero" fill-opacity="1" /><path clip-path="url(#clip180)" d="M1495.8 45.1919 L1495.8 72.576 L1488.35 72.576 L1488.35 45.4349 Q1488.35 38.994 1485.83 35.7938 Q1483.32 32.5936 1478.3 32.5936 Q1472.26 32.5936 1468.78 36.4419 Q1465.3 40.2903 1465.3 46.9338 L1465.3 72.576 L1457.8 72.576 L1457.8 27.2059 L1465.3 27.2059 L1465.3 34.2544 Q1467.97 30.163 1471.57 28.1376 Q1475.22 26.1121 1479.96 26.1121 Q1487.78 26.1121 1491.79 30.9732 Q1495.8 35.7938 1495.8 45.1919 Z" fill="#000000" fill-rule="nonzero" fill-opacity="1" /><path clip-path="url(#clip180)" d="M1537.04 9.54393 L1544.49 9.54393 L1544.49 72.576 L1537.04 72.576 L1537.04 9.54393 Z" fill="#000000" fill-rule="nonzero" fill-opacity="1" /><path clip-path="url(#clip180)" d="M1560.09 27.2059 L1567.54 27.2059 L1567.54 72.576 L1560.09 72.576 L1560.09 27.2059 M1560.09 9.54393 L1567.54 9.54393 L1567.54 18.9825 L1560.09 18.9825 L1560.09 9.54393 Z" fill="#000000" fill-rule="nonzero" fill-opacity="1" /><path clip-path="url(#clip180)" d="M1620.85 45.1919 L1620.85 72.576 L1613.4 72.576 L1613.4 45.4349 Q1613.4 38.994 1610.89 35.7938 Q1608.37 32.5936 1603.35 32.5936 Q1597.31 32.5936 1593.83 36.4419 Q1590.35 40.2903 1590.35 46.9338 L1590.35 72.576 L1582.85 72.576 L1582.85 27.2059 L1590.35 27.2059 L1590.35 34.2544 Q1593.02 30.163 1596.63 28.1376 Q1600.27 26.1121 1605.01 26.1121 Q1612.83 26.1121 1616.84 30.9732 Q1620.85 35.7938 1620.85 45.1919 Z" fill="#000000" fill-rule="nonzero" fill-opacity="1" /><path clip-path="url(#clip180)" d="M1635.43 9.54393 L1642.93 9.54393 L1642.93 46.7717 L1665.17 27.2059 L1674.69 27.2059 L1650.62 48.4326 L1675.7 72.576 L1665.98 72.576 L1642.93 50.4176 L1642.93 72.576 L1635.43 72.576 L1635.43 9.54393 Z" fill="#000000" fill-rule="nonzero" fill-opacity="1" /><path clip-path="url(#clip180)" d="M1739.06 28.5427 L1739.06 35.5912 Q1735.9 33.9709 1732.49 33.1607 Q1729.09 32.3505 1725.44 32.3505 Q1719.9 32.3505 1717.1 34.0519 Q1714.35 35.7533 1714.35 39.156 Q1714.35 41.7486 1716.33 43.2475 Q1718.32 44.7058 1724.31 46.0426 L1726.86 46.6097 Q1734.8 48.3111 1738.12 51.4303 Q1741.49 54.509 1741.49 60.0587 Q1741.49 66.3781 1736.46 70.0644 Q1731.48 73.7508 1722.73 73.7508 Q1719.08 73.7508 1715.11 73.0216 Q1711.19 72.3329 1706.81 70.9151 L1706.81 63.2184 Q1710.94 65.3654 1714.95 66.4591 Q1718.96 67.5124 1722.89 67.5124 Q1728.16 67.5124 1730.99 65.73 Q1733.83 63.9071 1733.83 60.6258 Q1733.83 57.5877 1731.76 55.9673 Q1729.74 54.3469 1722.81 52.8481 L1720.22 52.2405 Q1713.29 50.7821 1710.21 47.7845 Q1707.13 44.7463 1707.13 39.4801 Q1707.13 33.0797 1711.67 29.5959 Q1716.21 26.1121 1724.55 26.1121 Q1728.69 26.1121 1732.33 26.7198 Q1735.98 27.3274 1739.06 28.5427 Z" fill="#000000" fill-rule="nonzero" fill-opacity="1" /><path clip-path="url(#clip180)" d="M1786.01 28.9478 L1786.01 35.9153 Q1782.85 34.1734 1779.65 33.3227 Q1776.49 32.4315 1773.25 32.4315 Q1765.99 32.4315 1761.98 37.0496 Q1757.97 41.6271 1757.97 49.9314 Q1757.97 58.2358 1761.98 62.8538 Q1765.99 67.4314 1773.25 67.4314 Q1776.49 67.4314 1779.65 66.5807 Q1782.85 65.6895 1786.01 63.9476 L1786.01 70.8341 Q1782.89 72.2924 1779.52 73.0216 Q1776.2 73.7508 1772.44 73.7508 Q1762.19 73.7508 1756.15 67.3098 Q1750.11 60.8689 1750.11 49.9314 Q1750.11 38.832 1756.19 32.472 Q1762.31 26.1121 1772.92 26.1121 Q1776.36 26.1121 1779.65 26.8413 Q1782.93 27.5299 1786.01 28.9478 Z" fill="#000000" fill-rule="nonzero" fill-opacity="1" /><path clip-path="url(#clip180)" d="M1819.59 49.7694 Q1810.55 49.7694 1807.07 51.8354 Q1803.59 53.9013 1803.59 58.8839 Q1803.59 62.8538 1806.18 65.2034 Q1808.81 67.5124 1813.31 67.5124 Q1819.51 67.5124 1823.23 63.1374 Q1827 58.7219 1827 51.4303 L1827 49.7694 L1819.59 49.7694 M1834.45 46.6907 L1834.45 72.576 L1827 72.576 L1827 65.6895 Q1824.45 69.8214 1820.64 71.8063 Q1816.83 73.7508 1811.32 73.7508 Q1804.36 73.7508 1800.22 69.8619 Q1796.13 65.9325 1796.13 59.3701 Q1796.13 51.7138 1801.24 47.825 Q1806.38 43.9361 1816.55 43.9361 L1827 43.9361 L1827 43.2069 Q1827 38.0623 1823.6 35.2672 Q1820.24 32.4315 1814.12 32.4315 Q1810.23 32.4315 1806.54 33.3632 Q1802.86 34.295 1799.45 36.1584 L1799.45 29.2718 Q1803.55 27.692 1807.39 26.9223 Q1811.24 26.1121 1814.89 26.1121 Q1824.73 26.1121 1829.59 31.2163 Q1834.45 36.3204 1834.45 46.6907 Z" fill="#000000" fill-rule="nonzero" fill-opacity="1" /><path clip-path="url(#clip180)" d="M1849.81 9.54393 L1857.26 9.54393 L1857.26 72.576 L1849.81 72.576 L1849.81 9.54393 Z" fill="#000000" fill-rule="nonzero" fill-opacity="1" /><path clip-path="url(#clip180)" d="M1911.66 48.0275 L1911.66 51.6733 L1877.39 51.6733 Q1877.88 59.3701 1882.01 63.421 Q1886.18 67.4314 1893.6 67.4314 Q1897.89 67.4314 1901.9 66.3781 Q1905.95 65.3249 1909.92 63.2184 L1909.92 70.267 Q1905.91 71.9684 1901.7 72.8596 Q1897.49 73.7508 1893.15 73.7508 Q1882.3 73.7508 1875.94 67.4314 Q1869.62 61.1119 1869.62 50.3365 Q1869.62 39.1965 1875.61 32.6746 Q1881.65 26.1121 1891.86 26.1121 Q1901.01 26.1121 1906.32 32.0264 Q1911.66 37.9003 1911.66 48.0275 M1904.21 45.84 Q1904.13 39.7232 1900.77 36.0774 Q1897.45 32.4315 1891.94 32.4315 Q1885.7 32.4315 1881.93 35.9558 Q1878.2 39.4801 1877.64 45.8805 L1904.21 45.84 Z" fill="#000000" fill-rule="nonzero" fill-opacity="1" /><path clip-path="url(#clip181)" d="M303.464 754.486 L312.057 731.919 L320.65 709.628 L329.243 687.708 L337.836 666.255 L346.428 645.368 L355.021 625.138 L363.614 605.65 L372.207 586.966 L380.8 569.12 L389.393 552.102 L397.986 535.853 L406.579 520.267 L415.172 505.206 L423.765 490.514 L432.358 476.046 L440.951 461.715 L449.544 447.539 L458.136 433.578 L466.729 419.907 L475.322 406.605 L483.915 393.733 L492.508 381.326 L501.101 369.385 L509.694 357.875 L518.287 346.728 L526.88 335.861 L535.473 325.181 L544.066 314.603 L552.659 304.082 L561.252 293.699 L569.845 283.603 L578.437 273.956 L587.03 264.915 L595.623 256.61 L604.216 249.121 L612.809 242.465 L621.402 236.595 L629.995 231.413 L638.588 226.8 L647.181 222.646 L655.774 218.929 L664.367 215.71 L672.96 213.076 L681.553 211.115 L690.145 209.896 L698.738 209.44 L707.331 209.716 L715.924 210.636 L724.517 212.07 L733.11 213.869 L741.703 215.877 L750.296 217.965 L758.889 220.119 L767.482 222.421 L776.075 224.971 L784.668 227.876 L793.261 231.237 L801.854 235.136 L810.446 239.623 L819.039 244.711 L827.632 250.376 L836.225 256.562 L844.818 263.193 L853.411 270.185 L862.004 277.457 L870.597 284.945 L879.19 292.636 L887.783 300.59 L896.376 308.889 L904.969 317.621 L913.562 326.863 L922.154 336.674 L930.747 347.075 L939.34 358.051 L947.933 369.55 L956.526 381.485 L965.119 393.752 L973.712 406.234 L982.305 418.814 L990.898 431.379 L999.491 443.835 L1008.08 456.153 L1016.68 468.37 L1025.27 480.533 L1033.86 492.694 L1042.46 504.909 L1051.05 517.23 L1059.64 529.701 L1068.23 542.357 L1076.83 555.22 L1085.42 568.297 L1094.01 581.579 L1102.61 595.042 L1111.2 608.653 L1119.79 622.365 L1128.38 636.127 L1136.98 649.887 L1145.57 663.59 L1154.16 677.188 L1162.76 690.64 L1171.35 703.916 L1179.94 717.001 L1188.54 729.919 L1197.13 742.741 L1205.72 755.545 L1214.31 768.4 L1222.91 781.36 L1231.5 794.454 L1240.09 807.691 L1248.69 821.049 L1257.28 834.482 L1265.87 847.927 L1274.46 861.302 L1283.06 874.521 L1291.65 887.495 L1300.24 900.143 L1308.84 912.398 L1317.43 924.217 L1326.02 935.639 L1334.61 946.753 L1343.21 957.644 L1351.8 968.385 L1360.39 979.024 L1368.99 989.584 L1377.58 1000.06 L1386.17 1010.41 L1394.77 1020.58 L1403.36 1030.5 L1411.95 1040.09 L1420.54 1049.27 L1429.14 1057.99 L1437.73 1066.27 L1446.32 1074.16 L1454.92 1081.7 L1463.51 1088.94 L1472.1 1095.91 L1480.69 1102.61 L1489.29 1109.02 L1497.88 1115.11 L1506.47 1120.81 L1515.07 1126.03 L1523.66 1130.69 L1532.25 1134.7 L1540.85 1137.94 L1549.44 1140.42 L1558.03 1142.15 L1566.62 1143.22 L1575.22 1143.68 L1583.81 1143.59 L1592.4 1143 L1601 1141.98 L1609.59 1140.55 L1618.18 1138.72 L1626.77 1136.5 L1635.37 1133.88 L1643.96 1130.82 L1652.55 1127.28 L1661.15 1123.21 L1669.74 1118.56 L1678.33 1113.28 L1686.92 1107.34 L1695.52 1100.75 L1704.11 1093.58 L1712.7 1085.89 L1721.3 1077.77 L1729.89 1069.26 L1738.48 1060.45 L1747.08 1051.37 L1755.67 1042.06 L1764.26 1032.56 L1772.85 1022.85 L1781.45 1012.93 L1790.04 1002.78 L1798.63 992.362 L1807.23 981.633 L1815.82 970.551 L1824.41 959.078 L1833 947.19 L1841.6 934.907 L1850.19 922.345 L1858.78 909.64 L1867.38 896.931 L1875.97 884.342 L1884.56 871.978 L1893.16 859.921 L1901.75 848.227 L1910.34 836.937 L1918.93 826.085 L1927.53 815.72 L1936.12 805.932 L1944.71 796.87 L1953.31 788.7 L1961.9 781.569 L1970.49 775.571 L1979.08 770.728 L1987.68 766.992 L1996.27 764.251 L2004.86 762.356 L2013.46 761.132 L2013.46 552.272 L2004.86 568.879 L1996.27 584.861 L1987.68 600.093 L1979.08 614.47 L1970.49 627.929 L1961.9 640.468 L1953.31 652.157 L1944.71 663.137 L1936.12 673.602 L1927.53 683.765 L1918.93 693.81 L1910.34 703.788 L1901.75 713.674 L1893.16 723.427 L1884.56 733.014 L1875.97 742.418 L1867.38 751.648 L1858.78 760.734 L1850.19 769.727 L1841.6 778.69 L1833 787.688 L1824.41 796.768 L1815.82 805.913 L1807.23 815.07 L1798.63 824.171 L1790.04 833.147 L1781.45 841.925 L1772.85 850.443 L1764.26 858.647 L1755.67 866.498 L1747.08 873.972 L1738.48 881.064 L1729.89 887.781 L1721.3 894.145 L1712.7 900.189 L1704.11 905.952 L1695.52 911.476 L1686.92 916.801 L1678.33 921.958 L1669.74 926.948 L1661.15 931.717 L1652.55 936.197 L1643.96 940.32 L1635.37 944.02 L1626.77 947.24 L1618.18 949.933 L1609.59 952.069 L1601 953.631 L1592.4 954.622 L1583.81 955.057 L1575.22 954.968 L1566.62 954.394 L1558.03 953.383 L1549.44 951.982 L1540.85 950.234 L1532.25 948.169 L1523.66 945.775 L1515.07 943.001 L1506.47 939.794 L1497.88 936.101 L1489.29 931.885 L1480.69 927.123 L1472.1 921.818 L1463.51 915.993 L1454.92 909.697 L1446.32 903 L1437.73 895.986 L1429.14 888.747 L1420.54 881.373 L1411.95 873.919 L1403.36 866.346 L1394.77 858.589 L1386.17 850.577 L1377.58 842.246 L1368.99 833.548 L1360.39 824.457 L1351.8 814.975 L1343.21 805.135 L1334.61 794.995 L1326.02 784.637 L1317.43 774.155 L1308.84 763.649 L1300.24 753.173 L1291.65 742.711 L1283.06 732.225 L1274.46 721.66 L1265.87 710.954 L1257.28 700.049 L1248.69 688.891 L1240.09 677.443 L1231.5 665.686 L1222.91 653.627 L1214.31 641.3 L1205.72 628.764 L1197.13 616.099 L1188.54 603.401 L1179.94 590.776 L1171.35 578.32 L1162.76 566.073 L1154.16 554.033 L1145.57 542.181 L1136.98 530.487 L1128.38 518.915 L1119.79 507.422 L1111.2 495.968 L1102.61 484.512 L1094.01 473.021 L1085.42 461.472 L1076.83 449.853 L1068.23 438.167 L1059.64 426.433 L1051.05 414.684 L1042.46 402.967 L1033.86 391.337 L1025.27 379.86 L1016.68 368.6 L1008.08 357.624 L999.491 346.989 L990.898 336.744 L982.305 326.886 L973.712 317.359 L965.119 308.093 L956.526 299.01 L947.933 290.036 L939.34 281.106 L930.747 272.176 L922.154 263.234 L913.562 254.305 L904.969 245.454 L896.376 236.777 L887.783 228.395 L879.19 220.436 L870.597 213.022 L862.004 206.253 L853.411 200.117 L844.818 194.537 L836.225 189.422 L827.632 184.673 L819.039 180.201 L810.446 175.939 L801.854 171.848 L793.261 167.93 L784.668 164.221 L776.075 160.791 L767.482 157.727 L758.889 155.124 L750.296 153.07 L741.703 151.633 L733.11 150.81 L724.517 150.518 L715.924 150.649 L707.331 151.102 L698.738 151.796 L690.145 152.692 L681.553 153.805 L672.96 155.207 L664.367 157.013 L655.774 159.36 L647.181 162.386 L638.588 166.196 L629.995 170.783 L621.402 176.001 L612.809 181.69 L604.216 187.714 L595.623 193.985 L587.03 200.48 L578.437 207.241 L569.845 214.357 L561.252 221.947 L552.659 230.131 L544.066 239.02 L535.473 248.654 L526.88 258.943 L518.287 269.76 L509.694 280.969 L501.101 292.44 L492.508 304.065 L483.915 315.763 L475.322 327.491 L466.729 339.241 L458.136 351.03 L449.544 362.893 L440.951 374.862 L432.358 386.953 L423.765 399.141 L415.172 411.317 L406.579 423.32 L397.986 434.98 L389.393 446.141 L380.8 456.685 L372.207 466.537 L363.614 475.672 L355.021 484.108 L346.428 491.893 L337.836 499.096 L329.243 505.793 L320.65 512.069 L312.057 518.004 L303.464 523.679  Z" fill="#009af9" fill-rule="evenodd" fill-opacity="0.2"/>
<polyline clip-path="url(#clip181)" style="stroke:#009af9; stroke-linecap:round; stroke-linejoin:round; stroke-width:8; stroke-opacity:1; fill:none" points="303.464,639.082 312.057,624.962 320.65,610.849 329.243,596.751 337.836,582.675 346.428,568.63 355.021,554.623 363.614,540.661 372.207,526.752 380.8,512.903 389.393,499.122 397.986,485.416 406.579,471.794 415.172,458.262 423.765,444.828 432.358,431.499 440.951,418.289 449.544,405.216 458.136,392.304 466.729,379.574 475.322,367.048 483.915,354.748 492.508,342.696 501.101,330.913 509.694,319.422 518.287,308.244 526.88,297.402 535.473,286.917 544.066,276.812 552.659,267.107 561.252,257.823 569.845,248.98 578.437,240.599 587.03,232.698 595.623,225.297 604.216,218.417 612.809,212.077 621.402,206.298 629.995,201.098 638.588,196.498 647.181,192.516 655.774,189.145 664.367,186.361 672.96,184.141 681.553,182.46 690.145,181.294 698.738,180.618 707.331,180.409 715.924,180.643 724.517,181.294 733.11,182.34 741.703,183.755 750.296,185.517 758.889,187.622 767.482,190.074 776.075,192.881 784.668,196.049 793.261,199.583 801.854,203.492 810.446,207.781 819.039,212.456 827.632,217.524 836.225,222.992 844.818,228.865 853.411,235.151 862.004,241.855 870.597,248.984 879.19,256.536 887.783,264.493 896.376,272.833 904.969,281.537 913.562,290.584 922.154,299.954 930.747,309.626 939.34,319.579 947.933,329.793 956.526,340.248 965.119,350.922 973.712,361.797 982.305,372.85 990.898,384.062 999.491,395.412 1008.08,406.888 1016.68,418.485 1025.27,430.196 1033.86,442.016 1042.46,453.938 1051.05,465.957 1059.64,478.067 1068.23,490.262 1076.83,502.536 1085.42,514.884 1094.01,527.3 1102.61,539.777 1111.2,552.31 1119.79,564.893 1128.38,577.521 1136.98,590.187 1145.57,602.885 1154.16,615.611 1162.76,628.357 1171.35,641.118 1179.94,653.888 1188.54,666.66 1197.13,679.42 1205.72,692.155 1214.31,704.85 1222.91,717.493 1231.5,730.07 1240.09,742.567 1248.69,754.97 1257.28,767.266 1265.87,779.441 1274.46,791.481 1283.06,803.373 1291.65,815.103 1300.24,826.658 1308.84,838.023 1317.43,849.186 1326.02,860.138 1334.61,870.874 1343.21,881.39 1351.8,891.68 1360.39,901.74 1368.99,911.566 1377.58,921.152 1386.17,930.493 1394.77,939.586 1403.36,948.425 1411.95,957.006 1420.54,965.323 1429.14,973.37 1437.73,981.129 1446.32,988.579 1454.92,995.699 1463.51,1002.47 1472.1,1008.86 1480.69,1014.87 1489.29,1020.45 1497.88,1025.6 1506.47,1030.3 1515.07,1034.52 1523.66,1038.23 1532.25,1041.43 1540.85,1044.09 1549.44,1046.2 1558.03,1047.77 1566.62,1048.81 1575.22,1049.32 1583.81,1049.32 1592.4,1048.81 1601,1047.81 1609.59,1046.31 1618.18,1044.33 1626.77,1041.87 1635.37,1038.95 1643.96,1035.57 1652.55,1031.74 1661.15,1027.46 1669.74,1022.76 1678.33,1017.62 1686.92,1012.07 1695.52,1006.11 1704.11,999.765 1712.7,993.042 1721.3,985.956 1729.89,978.523 1738.48,970.756 1747.08,962.671 1755.67,954.281 1764.26,945.601 1772.85,936.645 1781.45,927.428 1790.04,917.964 1798.63,908.267 1807.23,898.351 1815.82,888.232 1824.41,877.923 1833,867.439 1841.6,856.799 1850.19,846.036 1858.78,835.187 1867.38,824.289 1875.97,813.38 1884.56,802.496 1893.16,791.674 1901.75,780.95 1910.34,770.363 1918.93,759.948 1927.53,749.742 1936.12,739.767 1944.71,730.003 1953.31,720.428 1961.9,711.018 1970.49,701.75 1979.08,692.599 1987.68,683.542 1996.27,674.556 2004.86,665.618 2013.46,656.702 "/>
<polyline clip-path="url(#clip181)" style="stroke:#ff0000; stroke-linecap:round; stroke-linejoin:round; stroke-width:8; stroke-opacity:1; fill:none" stroke-dasharray="32, 20" points="303.464,616.322 304.287,614.94 319.453,589.481 329.815,572.133 348.472,541.082 353.956,532.017 365.576,512.931 367.338,510.053 371.134,503.868 375.025,497.549 382.309,485.791 382.416,485.619 385.307,480.977 390.164,473.216 396.983,462.398 398.131,460.586 402.997,452.937 403.238,452.56 405.799,448.556 413.924,435.957 416.47,432.041 426.731,416.43 437.018,401.065 438.164,399.371 454.852,375.174 459.155,369.079 464.032,362.245 465.032,360.854 468.055,356.669 473.882,348.696 474.575,347.755 481.573,338.361 482.066,337.705 483.027,336.431 493.352,322.966 494.297,321.754 503.126,310.609 503.267,310.433 508.111,304.457 530.626,278.011 531.635,276.879 537.526,270.363 543.214,264.225 546.137,261.13 549.757,257.356 570.666,236.815 575.287,232.575 582.428,226.239 587.405,221.983 590.801,219.153 597.294,213.918 599.631,212.089 605.218,207.839 614.576,201.107 614.581,201.103 615.02,200.8 616.515,199.773 629.953,191.115 630.173,190.982 630.996,190.487 633.587,188.952 633.762,188.849 637.726,186.58 639.878,185.386 641.617,184.441 643.355,183.514 643.566,183.403 649.242,180.506 655.219,177.661 659.075,175.938 661.151,175.046 664.145,173.806 679.396,168.325 686.393,166.28 696.429,163.867 702.778,162.658 704.058,162.444 708.059,161.841 710.271,161.55 714.663,161.06 715.102,161.017 729.858,160.282 733.005,160.299 733.231,160.302 740.684,160.595 744.577,160.884 744.725,160.897 745.284,160.947 753.1,161.843 757.972,162.591 764.777,163.879 764.835,163.891 776.905,166.877 782.39,168.526 785.157,169.427 796.396,173.561 819.543,184.448 823.855,186.824 825.347,187.671 830.759,190.852 834.739,193.299 842.621,198.412 844.447,199.647 852.192,205.092 853.355,205.938 865.136,214.934 866.733,216.212 869.026,218.071 878.053,225.662 879.605,227.01 889.832,236.213 893.555,239.697 897.639,243.6 900.199,246.09 902.287,248.145 902.62,248.474 904.417,250.263 933.854,281.783 935.045,283.143 940.195,289.1 942.484,291.784 944.473,294.136 963.214,317.125 968.676,324.098 971.578,327.851 974.694,331.917 980.387,339.442 988.215,349.987 991.379,354.312 1013.41,385.382 1013.94,386.148 1017.21,390.91 1026.55,404.65 1026.74,404.938 1045.68,433.583 1051.69,442.867 1077.96,484.378 1099.62,519.561 1110.9,538.141 1116.98,548.227 1129.82,569.606 1133.1,575.095 1134.3,577.089 1155.84,613.222 1156.37,614.12 1158.91,618.384 1163.77,626.544 1165.8,629.952 1166.52,631.17 1178.19,650.753 1178.62,651.468 1185.03,662.189 1202.8,691.791 1205.2,695.766 1210.3,704.21 1211.1,705.526 1232.46,740.453 1235.53,745.417 1235.6,745.518 1236.88,747.597 1238.36,749.978 1242.45,756.539 1247.05,763.883 1262.25,787.868 1266.41,794.334 1272.68,804.019 1279.96,815.127 1296.34,839.607 1300.22,845.296 1302.09,848.023 1304.92,852.118 1313.36,864.193 1318.23,871.066 1325.1,880.609 1333.36,891.859 1337.08,896.857 1342.17,903.591 1357,922.66 1360.54,927.072 1364.05,931.41 1369.05,937.484 1372.13,941.18 1376.11,945.896 1380.25,950.71 1384.39,955.459 1390.18,961.971 1396.33,968.718 1402.58,975.395 1412.08,985.176 1413.8,986.901 1416.79,989.854 1417.27,990.333 1418.83,991.853 1429.57,1002.01 1430.49,1002.85 1431.32,1003.61 1432.98,1005.11 1436.5,1008.25 1457.28,1025.43 1467.82,1033.25 1473.5,1037.2 1475.62,1038.64 1475.74,1038.71 1481.29,1042.34 1492.64,1049.19 1498.54,1052.46 1499.15,1052.78 1501.51,1054.02 1512.54,1059.4 1524.71,1064.49 1524.95,1064.58 1530.46,1066.58 1532.72,1067.35 1532.93,1067.42 1539.24,1069.4 1547.34,1071.59 1549.38,1072.07 1551.22,1072.49 1557.08,1073.68 1571.27,1075.7 1577.34,1076.18 1590.87,1076.44 1594.62,1076.31 1599.75,1076 1600.32,1075.96 1600.79,1075.92 1620.26,1073.13 1622.66,1072.62 1628.39,1071.28 1634.02,1069.76 1666.76,1057.14 1676.43,1052.2 1677.32,1051.72 1677.64,1051.54 1678.35,1051.15 1680.43,1049.99 1693.5,1042.14 1702.42,1036.22 1712.44,1029.04 1713.52,1028.23 1718.86,1024.15 1720.44,1022.91 1722.32,1021.42 1733.67,1012.01 1736.88,1009.22 1741.96,1004.7 1748.26,998.911 1757.22,990.326 1763.39,984.18 1770.83,976.524 1778.95,967.859 1791.21,954.195 1806.96,935.657 1808.95,933.226 1813.47,927.67 1821.1,918.098 1830.81,905.577 1836.6,897.932 1837.11,897.245 1838.92,894.828 1848.22,882.214 1853.34,875.134 1855.33,872.366 1856.72,870.412 1858.51,867.902 1876.05,842.682 1884.13,830.764 1901.07,805.142 1904.5,799.874 1905.04,799.044 1906.06,797.464 1908.13,794.251 1912.53,787.414 1914.42,784.458 1916.15,781.741 1918.14,778.607 1918.37,778.245 1923.01,770.917 1927.63,763.581 1929.09,761.256 1939.07,745.236 1940.67,742.646 1943.23,738.501 1947.99,730.77 1958.09,714.254 1969.47,695.48 1976.7,683.483 1977.4,682.307 1978.02,681.288 1978.98,679.682 1979.48,678.858 1982.61,673.632 1982.71,673.471 1989.83,661.571 1993.69,655.109 1996.05,651.157 1997.27,649.123 2012.69,623.234 2013.09,622.572 2013.46,621.949 "/>
<path clip-path="url(#clip180)" d="M1578.87 311.335 L2004.34 311.335 L2004.34 155.815 L1578.87 155.815  Z" fill="#ffffff" fill-rule="evenodd" fill-opacity="1"/>
<polyline clip-path="url(#clip180)" style="stroke:#000000; stroke-linecap:round; stroke-linejoin:round; stroke-width:4; stroke-opacity:1; fill:none" points="1578.87,311.335 2004.34,311.335 2004.34,155.815 1578.87,155.815 1578.87,311.335 "/>
<polyline clip-path="url(#clip180)" style="stroke:#009af9; stroke-linecap:round; stroke-linejoin:round; stroke-width:8; stroke-opacity:1; fill:none" points="1599.01,207.655 1719.84,207.655 "/>
<path clip-path="url(#clip180)" d="M1758.41 199.773 L1758.41 203.8 Q1756.6 202.875 1754.66 202.412 Q1752.72 201.949 1750.63 201.949 Q1747.46 201.949 1745.86 202.921 Q1744.29 203.893 1744.29 205.838 Q1744.29 207.319 1745.42 208.175 Q1746.56 209.009 1749.98 209.773 L1751.44 210.097 Q1755.98 211.069 1757.88 212.851 Q1759.8 214.611 1759.8 217.782 Q1759.8 221.393 1756.93 223.499 Q1754.08 225.606 1749.08 225.606 Q1747 225.606 1744.73 225.189 Q1742.48 224.796 1739.98 223.986 L1739.98 219.587 Q1742.35 220.814 1744.64 221.439 Q1746.93 222.041 1749.17 222.041 Q1752.18 222.041 1753.8 221.023 Q1755.42 219.981 1755.42 218.106 Q1755.42 216.37 1754.24 215.444 Q1753.09 214.518 1749.13 213.662 L1747.65 213.314 Q1743.69 212.481 1741.93 210.768 Q1740.17 209.032 1740.17 206.023 Q1740.17 202.365 1742.76 200.375 Q1745.35 198.384 1750.12 198.384 Q1752.48 198.384 1754.57 198.731 Q1756.65 199.078 1758.41 199.773 Z" fill="#000000" fill-rule="nonzero" fill-opacity="1" /><path clip-path="url(#clip180)" d="M1776.81 188.963 Q1773.71 194.287 1772.21 199.495 Q1770.7 204.703 1770.7 210.05 Q1770.7 215.398 1772.21 220.652 Q1773.73 225.884 1776.81 231.185 L1773.11 231.185 Q1769.64 225.745 1767.9 220.49 Q1766.19 215.236 1766.19 210.05 Q1766.19 204.888 1767.9 199.657 Q1769.61 194.426 1773.11 188.963 L1776.81 188.963 Z" fill="#000000" fill-rule="nonzero" fill-opacity="1" /><path clip-path="url(#clip180)" d="M1806.63 199.009 L1797.25 211.625 L1807.11 224.935 L1802.09 224.935 L1794.54 214.749 L1787 224.935 L1781.98 224.935 L1792.04 211.37 L1782.83 199.009 L1787.85 199.009 L1794.73 208.245 L1801.6 199.009 L1806.63 199.009 Z" fill="#000000" fill-rule="nonzero" fill-opacity="1" /><path clip-path="url(#clip180)" d="M1812.46 188.963 L1816.16 188.963 Q1819.64 194.426 1821.35 199.657 Q1823.09 204.888 1823.09 210.05 Q1823.09 215.236 1821.35 220.49 Q1819.64 225.745 1816.16 231.185 L1812.46 231.185 Q1815.54 225.884 1817.04 220.652 Q1818.57 215.398 1818.57 210.05 Q1818.57 204.703 1817.04 199.495 Q1815.54 194.287 1812.46 188.963 Z" fill="#000000" fill-rule="nonzero" fill-opacity="1" /><path clip-path="url(#clip180)" d="M1864.03 195.213 L1864.03 204.171 L1876.93 204.171 L1876.93 208.106 L1864.03 208.106 L1864.03 217.064 L1860.15 217.064 L1860.15 208.106 L1847.25 208.106 L1847.25 204.171 L1860.15 204.171 L1860.15 195.213 L1864.03 195.213 M1847.25 220.999 L1876.93 220.999 L1876.93 224.935 L1847.25 224.935 L1847.25 220.999 Z" fill="#000000" fill-rule="nonzero" fill-opacity="1" /><path clip-path="url(#clip180)" d="M1906.12 220.999 L1922.44 220.999 L1922.44 224.935 L1900.49 224.935 L1900.49 220.999 Q1903.16 218.245 1907.74 213.615 Q1912.34 208.962 1913.53 207.62 Q1915.77 205.097 1916.65 203.361 Q1917.55 201.601 1917.55 199.912 Q1917.55 197.157 1915.61 195.421 Q1913.69 193.685 1910.59 193.685 Q1908.39 193.685 1905.93 194.449 Q1903.5 195.213 1900.72 196.763 L1900.72 192.041 Q1903.55 190.907 1906 190.328 Q1908.46 189.75 1910.49 189.75 Q1915.86 189.75 1919.06 192.435 Q1922.25 195.12 1922.25 199.611 Q1922.25 201.74 1921.44 203.662 Q1920.65 205.56 1918.55 208.152 Q1917.97 208.824 1914.87 212.041 Q1911.77 215.236 1906.12 220.999 Z" fill="#000000" fill-rule="nonzero" fill-opacity="1" /><path clip-path="url(#clip180)" d="M1952.55 191.509 L1952.55 196.069 Q1949.89 194.796 1947.53 194.171 Q1945.17 193.546 1942.97 193.546 Q1939.15 193.546 1937.07 195.027 Q1935.01 196.509 1935.01 199.24 Q1935.01 201.532 1936.37 202.713 Q1937.76 203.87 1941.6 204.588 L1944.43 205.166 Q1949.66 206.162 1952.14 208.685 Q1954.64 211.185 1954.64 215.398 Q1954.64 220.421 1951.26 223.013 Q1947.9 225.606 1941.4 225.606 Q1938.94 225.606 1936.16 225.05 Q1933.41 224.495 1930.45 223.407 L1930.45 218.592 Q1933.29 220.189 1936.03 220.999 Q1938.76 221.81 1941.4 221.81 Q1945.4 221.81 1947.58 220.236 Q1949.75 218.662 1949.75 215.745 Q1949.75 213.199 1948.18 211.763 Q1946.63 210.328 1943.06 209.611 L1940.22 209.055 Q1934.98 208.013 1932.65 205.791 Q1930.31 203.569 1930.31 199.611 Q1930.31 195.027 1933.53 192.389 Q1936.77 189.75 1942.44 189.75 Q1944.87 189.75 1947.39 190.189 Q1949.91 190.629 1952.55 191.509 Z" fill="#000000" fill-rule="nonzero" fill-opacity="1" /><path clip-path="url(#clip180)" d="M1961.93 190.375 L1983.78 190.375 L1983.78 194.31 L1966.6 194.31 L1966.6 204.541 L1983.06 204.541 L1983.06 208.476 L1966.6 208.476 L1966.6 220.999 L1984.2 220.999 L1984.2 224.935 L1961.93 224.935 L1961.93 190.375 Z" fill="#000000" fill-rule="nonzero" fill-opacity="1" /><polyline clip-path="url(#clip180)" style="stroke:#ff0000; stroke-linecap:round; stroke-linejoin:round; stroke-width:8; stroke-opacity:1; fill:none" stroke-dasharray="32, 20" points="1599.01,259.495 1719.84,259.495 "/>
<path clip-path="url(#clip180)" d="M1747.39 243.488 L1747.39 250.849 L1756.17 250.849 L1756.17 254.159 L1747.39 254.159 L1747.39 268.233 Q1747.39 271.404 1748.25 272.307 Q1749.13 273.21 1751.79 273.21 L1756.17 273.21 L1756.17 276.775 L1751.79 276.775 Q1746.86 276.775 1744.98 274.946 Q1743.11 273.094 1743.11 268.233 L1743.11 254.159 L1739.98 254.159 L1739.98 250.849 L1743.11 250.849 L1743.11 243.488 L1747.39 243.488 Z" fill="#000000" fill-rule="nonzero" fill-opacity="1" /><path clip-path="url(#clip180)" d="M1776.79 254.83 Q1776.07 254.414 1775.22 254.228 Q1774.38 254.02 1773.36 254.02 Q1769.75 254.02 1767.81 256.381 Q1765.89 258.719 1765.89 263.117 L1765.89 276.775 L1761.6 276.775 L1761.6 250.849 L1765.89 250.849 L1765.89 254.877 Q1767.23 252.515 1769.38 251.381 Q1771.54 250.224 1774.61 250.224 Q1775.05 250.224 1775.59 250.293 Q1776.12 250.34 1776.77 250.455 L1776.79 254.83 Z" fill="#000000" fill-rule="nonzero" fill-opacity="1" /><path clip-path="url(#clip180)" d="M1780.82 266.543 L1780.82 250.849 L1785.08 250.849 L1785.08 266.381 Q1785.08 270.062 1786.51 271.914 Q1787.95 273.742 1790.82 273.742 Q1794.27 273.742 1796.26 271.543 Q1798.27 269.344 1798.27 265.548 L1798.27 250.849 L1802.53 250.849 L1802.53 276.775 L1798.27 276.775 L1798.27 272.793 Q1796.72 275.154 1794.66 276.312 Q1792.62 277.446 1789.91 277.446 Q1785.45 277.446 1783.13 274.668 Q1780.82 271.89 1780.82 266.543 M1791.54 250.224 L1791.54 250.224 Z" fill="#000000" fill-rule="nonzero" fill-opacity="1" /><path clip-path="url(#clip180)" d="M1833.48 262.747 L1833.48 264.83 L1813.9 264.83 Q1814.17 269.228 1816.54 271.543 Q1818.92 273.835 1823.16 273.835 Q1825.61 273.835 1827.9 273.233 Q1830.22 272.631 1832.48 271.427 L1832.48 275.455 Q1830.19 276.427 1827.79 276.937 Q1825.38 277.446 1822.9 277.446 Q1816.7 277.446 1813.06 273.835 Q1809.45 270.224 1809.45 264.066 Q1809.45 257.701 1812.88 253.974 Q1816.33 250.224 1822.16 250.224 Q1827.39 250.224 1830.42 253.603 Q1833.48 256.96 1833.48 262.747 M1829.22 261.497 Q1829.17 258.002 1827.25 255.918 Q1825.35 253.835 1822.21 253.835 Q1818.64 253.835 1816.49 255.849 Q1814.36 257.863 1814.04 261.52 L1829.22 261.497 Z" fill="#000000" fill-rule="nonzero" fill-opacity="1" /><path clip-path="url(#clip180)" d="M1868.66 240.756 L1868.66 244.298 L1864.59 244.298 Q1862.3 244.298 1861.4 245.224 Q1860.52 246.15 1860.52 248.557 L1860.52 250.849 L1867.53 250.849 L1867.53 254.159 L1860.52 254.159 L1860.52 276.775 L1856.23 276.775 L1856.23 254.159 L1852.16 254.159 L1852.16 250.849 L1856.23 250.849 L1856.23 249.043 Q1856.23 244.715 1858.25 242.747 Q1860.26 240.756 1864.64 240.756 L1868.66 240.756 Z" fill="#000000" fill-rule="nonzero" fill-opacity="1" /><path clip-path="url(#clip180)" d="M1882.46 240.803 Q1879.36 246.127 1877.85 251.335 Q1876.35 256.543 1876.35 261.89 Q1876.35 267.238 1877.85 272.492 Q1879.38 277.724 1882.46 283.025 L1878.76 283.025 Q1875.28 277.585 1873.55 272.33 Q1871.84 267.076 1871.84 261.89 Q1871.84 256.728 1873.55 251.497 Q1875.26 246.266 1878.76 240.803 L1882.46 240.803 Z" fill="#000000" fill-rule="nonzero" fill-opacity="1" /><path clip-path="url(#clip180)" d="M1912.28 250.849 L1902.9 263.465 L1912.76 276.775 L1907.74 276.775 L1900.19 266.589 L1892.65 276.775 L1887.62 276.775 L1897.69 263.21 L1888.48 250.849 L1893.5 250.849 L1900.38 260.085 L1907.25 250.849 L1912.28 250.849 Z" fill="#000000" fill-rule="nonzero" fill-opacity="1" /><path clip-path="url(#clip180)" d="M1918.11 240.803 L1921.81 240.803 Q1925.28 246.266 1927 251.497 Q1928.73 256.728 1928.73 261.89 Q1928.73 267.076 1927 272.33 Q1925.28 277.585 1921.81 283.025 L1918.11 283.025 Q1921.19 277.724 1922.69 272.492 Q1924.22 267.238 1924.22 261.89 Q1924.22 256.543 1922.69 251.335 Q1921.19 246.127 1918.11 240.803 Z" fill="#000000" fill-rule="nonzero" fill-opacity="1" /></svg>
