<?xml version="1.0" encoding="utf-8"?>
<svg xmlns="http://www.w3.org/2000/svg" xmlns:xlink="http://www.w3.org/1999/xlink" width="528" height="336" viewBox="0 0 2112 1344">
<defs>
  <clipPath id="clip980">
    <rect x="0" y="0" width="2112" height="1344"/>
  </clipPath>
</defs>
<path clip-path="url(#clip980)" d="M0 1344 L2112 1344 L2112 2.13163e-14 L0 2.13163e-14  Z" fill="#ffffff" fill-rule="evenodd" fill-opacity="1"/>
<defs>
  <clipPath id="clip981">
    <rect x="205" y="120" width="1860" height="1054"/>
  </clipPath>
</defs>
<path clip-path="url(#clip980)" d="M205.706 1173.47 L2064.76 1173.47 L2064.76 120.723 L205.706 120.723  Z" fill="#ffffff" fill-rule="evenodd" fill-opacity="1"/>
<polyline clip-path="url(#clip981)" style="stroke:#000000; stroke-linecap:round; stroke-linejoin:round; stroke-width:2; stroke-opacity:0.1; fill:none" points="257.9,1173.47 257.9,120.723 "/>
<polyline clip-path="url(#clip981)" style="stroke:#000000; stroke-linecap:round; stroke-linejoin:round; stroke-width:2; stroke-opacity:0.1; fill:none" points="697.977,1173.47 697.977,120.723 "/>
<polyline clip-path="url(#clip981)" style="stroke:#000000; stroke-linecap:round; stroke-linejoin:round; stroke-width:2; stroke-opacity:0.1; fill:none" points="1138.05,1173.47 1138.05,120.723 "/>
<polyline clip-path="url(#clip981)" style="stroke:#000000; stroke-linecap:round; stroke-linejoin:round; stroke-width:2; stroke-opacity:0.1; fill:none" points="1578.13,1173.47 1578.13,120.723 "/>
<polyline clip-path="url(#clip981)" style="stroke:#000000; stroke-linecap:round; stroke-linejoin:round; stroke-width:2; stroke-opacity:0.1; fill:none" points="2018.21,1173.47 2018.21,120.723 "/>
<polyline clip-path="url(#clip981)" style="stroke:#000000; stroke-linecap:round; stroke-linejoin:round; stroke-width:2; stroke-opacity:0.1; fill:none" points="205.706,1147.79 2064.76,1147.79 "/>
<polyline clip-path="url(#clip981)" style="stroke:#000000; stroke-linecap:round; stroke-linejoin:round; stroke-width:2; stroke-opacity:0.1; fill:none" points="205.706,873.911 2064.76,873.911 "/>
<polyline clip-path="url(#clip981)" style="stroke:#000000; stroke-linecap:round; stroke-linejoin:round; stroke-width:2; stroke-opacity:0.1; fill:none" points="205.706,600.036 2064.76,600.036 "/>
<polyline clip-path="url(#clip981)" style="stroke:#000000; stroke-linecap:round; stroke-linejoin:round; stroke-width:2; stroke-opacity:0.1; fill:none" points="205.706,326.162 2064.76,326.162 "/>
<polyline clip-path="url(#clip980)" style="stroke:#000000; stroke-linecap:round; stroke-linejoin:round; stroke-width:4; stroke-opacity:1; fill:none" points="205.706,1173.47 2064.76,1173.47 "/>
<polyline clip-path="url(#clip980)" style="stroke:#000000; stroke-linecap:round; stroke-linejoin:round; stroke-width:4; stroke-opacity:1; fill:none" points="257.9,1173.47 257.9,1154.57 "/>
<polyline clip-path="url(#clip980)" style="stroke:#000000; stroke-linecap:round; stroke-linejoin:round; stroke-width:4; stroke-opacity:1; fill:none" points="697.977,1173.47 697.977,1154.57 "/>
<polyline clip-path="url(#clip980)" style="stroke:#000000; stroke-linecap:round; stroke-linejoin:round; stroke-width:4; stroke-opacity:1; fill:none" points="1138.05,1173.47 1138.05,1154.57 "/>
<polyline clip-path="url(#clip980)" style="stroke:#000000; stroke-linecap:round; stroke-linejoin:round; stroke-width:4; stroke-opacity:1; fill:none" points="1578.13,1173.47 1578.13,1154.57 "/>
<polyline clip-path="url(#clip980)" style="stroke:#000000; stroke-linecap:round; stroke-linejoin:round; stroke-width:4; stroke-opacity:1; fill:none" points="2018.21,1173.47 2018.21,1154.57 "/>
<path clip-path="url(#clip980)" d="M220.203 1202.09 Q216.592 1202.09 214.764 1205.65 Q212.958 1209.19 212.958 1216.32 Q212.958 1223.43 214.764 1226.99 Q216.592 1230.53 220.203 1230.53 Q223.838 1230.53 225.643 1226.99 Q227.472 1223.43 227.472 1216.32 Q227.472 1209.19 225.643 1205.65 Q223.838 1202.09 220.203 1202.09 M220.203 1198.38 Q226.014 1198.38 229.069 1202.99 Q232.148 1207.57 232.148 1216.32 Q232.148 1225.05 229.069 1229.65 Q226.014 1234.24 220.203 1234.24 Q214.393 1234.24 211.315 1229.65 Q208.259 1225.05 208.259 1216.32 Q208.259 1207.57 211.315 1202.99 Q214.393 1198.38 220.203 1198.38 Z" fill="#000000" fill-rule="nonzero" fill-opacity="1" /><path clip-path="url(#clip980)" d="M240.365 1227.69 L245.25 1227.69 L245.25 1233.57 L240.365 1233.57 L240.365 1227.69 Z" fill="#000000" fill-rule="nonzero" fill-opacity="1" /><path clip-path="url(#clip980)" d="M265.435 1202.09 Q261.824 1202.09 259.995 1205.65 Q258.189 1209.19 258.189 1216.32 Q258.189 1223.43 259.995 1226.99 Q261.824 1230.53 265.435 1230.53 Q269.069 1230.53 270.875 1226.99 Q272.703 1223.43 272.703 1216.32 Q272.703 1209.19 270.875 1205.65 Q269.069 1202.09 265.435 1202.09 M265.435 1198.38 Q271.245 1198.38 274.3 1202.99 Q277.379 1207.57 277.379 1216.32 Q277.379 1225.05 274.3 1229.65 Q271.245 1234.24 265.435 1234.24 Q259.625 1234.24 256.546 1229.65 Q253.49 1225.05 253.49 1216.32 Q253.49 1207.57 256.546 1202.99 Q259.625 1198.38 265.435 1198.38 Z" fill="#000000" fill-rule="nonzero" fill-opacity="1" /><path clip-path="url(#clip980)" d="M295.597 1202.09 Q291.985 1202.09 290.157 1205.65 Q288.351 1209.19 288.351 1216.32 Q288.351 1223.43 290.157 1226.99 Q291.985 1230.53 295.597 1230.53 Q299.231 1230.53 301.036 1226.99 Q302.865 1223.43 302.865 1216.32 Q302.865 1209.19 301.036 1205.65 Q299.231 1202.09 295.597 1202.09 M295.597 1198.38 Q301.407 1198.38 304.462 1202.99 Q307.541 1207.57 307.541 1216.32 Q307.541 1225.05 304.462 1229.65 Q301.407 1234.24 295.597 1234.24 Q289.786 1234.24 286.708 1229.65 Q283.652 1225.05 283.652 1216.32 Q283.652 1207.57 286.708 1202.99 Q289.786 1198.38 295.597 1198.38 Z" fill="#000000" fill-rule="nonzero" fill-opacity="1" /><path clip-path="url(#clip980)" d="M660.779 1202.09 Q657.167 1202.09 655.339 1205.65 Q653.533 1209.19 653.533 1216.32 Q653.533 1223.43 655.339 1226.99 Q657.167 1230.53 660.779 1230.53 Q664.413 1230.53 666.218 1226.99 Q668.047 1223.43 668.047 1216.32 Q668.047 1209.19 666.218 1205.65 Q664.413 1202.09 660.779 1202.09 M660.779 1198.38 Q666.589 1198.38 669.644 1202.99 Q672.723 1207.57 672.723 1216.32 Q672.723 1225.05 669.644 1229.65 Q666.589 1234.24 660.779 1234.24 Q654.968 1234.24 651.89 1229.65 Q648.834 1225.05 648.834 1216.32 Q648.834 1207.57 651.89 1202.99 Q654.968 1198.38 660.779 1198.38 Z" fill="#000000" fill-rule="nonzero" fill-opacity="1" /><path clip-path="url(#clip980)" d="M680.94 1227.69 L685.825 1227.69 L685.825 1233.57 L680.94 1233.57 L680.94 1227.69 Z" fill="#000000" fill-rule="nonzero" fill-opacity="1" /><path clip-path="url(#clip980)" d="M700.038 1229.63 L716.357 1229.63 L716.357 1233.57 L694.413 1233.57 L694.413 1229.63 Q697.075 1226.88 701.658 1222.25 Q706.264 1217.59 707.445 1216.25 Q709.69 1213.73 710.57 1211.99 Q711.473 1210.23 711.473 1208.54 Q711.473 1205.79 709.528 1204.05 Q707.607 1202.32 704.505 1202.32 Q702.306 1202.32 699.852 1203.08 Q697.422 1203.84 694.644 1205.4 L694.644 1200.67 Q697.468 1199.54 699.922 1198.96 Q702.376 1198.38 704.413 1198.38 Q709.783 1198.38 712.977 1201.07 Q716.172 1203.75 716.172 1208.24 Q716.172 1210.37 715.362 1212.29 Q714.575 1214.19 712.468 1216.78 Q711.889 1217.46 708.788 1220.67 Q705.686 1223.87 700.038 1229.63 Z" fill="#000000" fill-rule="nonzero" fill-opacity="1" /><path clip-path="url(#clip980)" d="M726.218 1199.01 L744.574 1199.01 L744.574 1202.94 L730.5 1202.94 L730.5 1211.41 Q731.519 1211.07 732.537 1210.9 Q733.556 1210.72 734.574 1210.72 Q740.361 1210.72 743.741 1213.89 Q747.121 1217.06 747.121 1222.48 Q747.121 1228.06 743.648 1231.16 Q740.176 1234.24 733.857 1234.24 Q731.681 1234.24 729.412 1233.87 Q727.167 1233.5 724.76 1232.76 L724.76 1228.06 Q726.843 1229.19 729.065 1229.75 Q731.287 1230.3 733.764 1230.3 Q737.769 1230.3 740.107 1228.2 Q742.445 1226.09 742.445 1222.48 Q742.445 1218.87 740.107 1216.76 Q737.769 1214.65 733.764 1214.65 Q731.889 1214.65 730.014 1215.07 Q728.162 1215.49 726.218 1216.37 L726.218 1199.01 Z" fill="#000000" fill-rule="nonzero" fill-opacity="1" /><path clip-path="url(#clip980)" d="M1100.36 1202.09 Q1096.75 1202.09 1094.92 1205.65 Q1093.11 1209.19 1093.11 1216.32 Q1093.11 1223.43 1094.92 1226.99 Q1096.75 1230.53 1100.36 1230.53 Q1103.99 1230.53 1105.8 1226.99 Q1107.63 1223.43 1107.63 1216.32 Q1107.63 1209.19 1105.8 1205.65 Q1103.99 1202.09 1100.36 1202.09 M1100.36 1198.38 Q1106.17 1198.38 1109.22 1202.99 Q1112.3 1207.57 1112.3 1216.32 Q1112.3 1225.05 1109.22 1229.65 Q1106.17 1234.24 1100.36 1234.24 Q1094.55 1234.24 1091.47 1229.65 Q1088.41 1225.05 1088.41 1216.32 Q1088.41 1207.57 1091.47 1202.99 Q1094.55 1198.38 1100.36 1198.38 Z" fill="#000000" fill-rule="nonzero" fill-opacity="1" /><path clip-path="url(#clip980)" d="M1120.52 1227.69 L1125.4 1227.69 L1125.4 1233.57 L1120.52 1233.57 L1120.52 1227.69 Z" fill="#000000" fill-rule="nonzero" fill-opacity="1" /><path clip-path="url(#clip980)" d="M1135.64 1199.01 L1153.99 1199.01 L1153.99 1202.94 L1139.92 1202.94 L1139.92 1211.41 Q1140.94 1211.07 1141.96 1210.9 Q1142.97 1210.72 1143.99 1210.72 Q1149.78 1210.72 1153.16 1213.89 Q1156.54 1217.06 1156.54 1222.48 Q1156.54 1228.06 1153.07 1231.16 Q1149.59 1234.24 1143.27 1234.24 Q1141.1 1234.24 1138.83 1233.87 Q1136.58 1233.5 1134.18 1232.76 L1134.18 1228.06 Q1136.26 1229.19 1138.48 1229.75 Q1140.71 1230.3 1143.18 1230.3 Q1147.19 1230.3 1149.52 1228.2 Q1151.86 1226.09 1151.86 1222.48 Q1151.86 1218.87 1149.52 1216.76 Q1147.19 1214.65 1143.18 1214.65 Q1141.31 1214.65 1139.43 1215.07 Q1137.58 1215.49 1135.64 1216.37 L1135.64 1199.01 Z" fill="#000000" fill-rule="nonzero" fill-opacity="1" /><path clip-path="url(#clip980)" d="M1175.75 1202.09 Q1172.14 1202.09 1170.31 1205.65 Q1168.51 1209.19 1168.51 1216.32 Q1168.51 1223.43 1170.31 1226.99 Q1172.14 1230.53 1175.75 1230.53 Q1179.39 1230.53 1181.19 1226.99 Q1183.02 1223.43 1183.02 1216.32 Q1183.02 1209.19 1181.19 1205.65 Q1179.39 1202.09 1175.75 1202.09 M1175.75 1198.38 Q1181.56 1198.38 1184.62 1202.99 Q1187.7 1207.57 1187.7 1216.32 Q1187.7 1225.05 1184.62 1229.65 Q1181.56 1234.24 1175.75 1234.24 Q1169.94 1234.24 1166.86 1229.65 Q1163.81 1225.05 1163.81 1216.32 Q1163.81 1207.57 1166.86 1202.99 Q1169.94 1198.38 1175.75 1198.38 Z" fill="#000000" fill-rule="nonzero" fill-opacity="1" /><path clip-path="url(#clip980)" d="M1540.93 1202.09 Q1537.32 1202.09 1535.49 1205.65 Q1533.69 1209.19 1533.69 1216.32 Q1533.69 1223.43 1535.49 1226.99 Q1537.32 1230.53 1540.93 1230.53 Q1544.57 1230.53 1546.37 1226.99 Q1548.2 1223.43 1548.2 1216.32 Q1548.2 1209.19 1546.37 1205.65 Q1544.57 1202.09 1540.93 1202.09 M1540.93 1198.38 Q1546.74 1198.38 1549.8 1202.99 Q1552.88 1207.57 1552.88 1216.32 Q1552.88 1225.05 1549.8 1229.65 Q1546.74 1234.24 1540.93 1234.24 Q1535.12 1234.24 1532.04 1229.65 Q1528.99 1225.05 1528.99 1216.32 Q1528.99 1207.57 1532.04 1202.99 Q1535.12 1198.38 1540.93 1198.38 Z" fill="#000000" fill-rule="nonzero" fill-opacity="1" /><path clip-path="url(#clip980)" d="M1561.1 1227.69 L1565.98 1227.69 L1565.98 1233.57 L1561.1 1233.57 L1561.1 1227.69 Z" fill="#000000" fill-rule="nonzero" fill-opacity="1" /><path clip-path="url(#clip980)" d="M1574.98 1199.01 L1597.21 1199.01 L1597.21 1201 L1584.66 1233.57 L1579.78 1233.57 L1591.58 1202.94 L1574.98 1202.94 L1574.98 1199.01 Z" fill="#000000" fill-rule="nonzero" fill-opacity="1" /><path clip-path="url(#clip980)" d="M1606.37 1199.01 L1624.73 1199.01 L1624.73 1202.94 L1610.66 1202.94 L1610.66 1211.41 Q1611.67 1211.07 1612.69 1210.9 Q1613.71 1210.72 1614.73 1210.72 Q1620.52 1210.72 1623.9 1213.89 Q1627.28 1217.06 1627.28 1222.48 Q1627.28 1228.06 1623.8 1231.16 Q1620.33 1234.24 1614.01 1234.24 Q1611.84 1234.24 1609.57 1233.87 Q1607.32 1233.5 1604.91 1232.76 L1604.91 1228.06 Q1607 1229.19 1609.22 1229.75 Q1611.44 1230.3 1613.92 1230.3 Q1617.92 1230.3 1620.26 1228.2 Q1622.6 1226.09 1622.6 1222.48 Q1622.6 1218.87 1620.26 1216.76 Q1617.92 1214.65 1613.92 1214.65 Q1612.04 1214.65 1610.17 1215.07 Q1608.32 1215.49 1606.37 1216.37 L1606.37 1199.01 Z" fill="#000000" fill-rule="nonzero" fill-opacity="1" /><path clip-path="url(#clip980)" d="M1970.28 1229.63 L1977.92 1229.63 L1977.92 1203.27 L1969.61 1204.93 L1969.61 1200.67 L1977.87 1199.01 L1982.55 1199.01 L1982.55 1229.63 L1990.19 1229.63 L1990.19 1233.57 L1970.28 1233.57 L1970.28 1229.63 Z" fill="#000000" fill-rule="nonzero" fill-opacity="1" /><path clip-path="url(#clip980)" d="M1999.63 1227.69 L2004.52 1227.69 L2004.52 1233.57 L1999.63 1233.57 L1999.63 1227.69 Z" fill="#000000" fill-rule="nonzero" fill-opacity="1" /><path clip-path="url(#clip980)" d="M2024.7 1202.09 Q2021.09 1202.09 2019.26 1205.65 Q2017.46 1209.19 2017.46 1216.32 Q2017.46 1223.43 2019.26 1226.99 Q2021.09 1230.53 2024.7 1230.53 Q2028.34 1230.53 2030.14 1226.99 Q2031.97 1223.43 2031.97 1216.32 Q2031.97 1209.19 2030.14 1205.65 Q2028.34 1202.09 2024.7 1202.09 M2024.7 1198.38 Q2030.51 1198.38 2033.57 1202.99 Q2036.65 1207.57 2036.65 1216.32 Q2036.65 1225.05 2033.57 1229.65 Q2030.51 1234.24 2024.7 1234.24 Q2018.89 1234.24 2015.81 1229.65 Q2012.76 1225.05 2012.76 1216.32 Q2012.76 1207.57 2015.81 1202.99 Q2018.89 1198.38 2024.7 1198.38 Z" fill="#000000" fill-rule="nonzero" fill-opacity="1" /><path clip-path="url(#clip980)" d="M2054.86 1202.09 Q2051.25 1202.09 2049.42 1205.65 Q2047.62 1209.19 2047.62 1216.32 Q2047.62 1223.43 2049.42 1226.99 Q2051.25 1230.53 2054.86 1230.53 Q2058.5 1230.53 2060.3 1226.99 Q2062.13 1223.43 2062.13 1216.32 Q2062.13 1209.19 2060.3 1205.65 Q2058.5 1202.09 2054.86 1202.09 M2054.86 1198.38 Q2060.67 1198.38 2063.73 1202.99 Q2066.81 1207.57 2066.81 1216.32 Q2066.81 1225.05 2063.73 1229.65 Q2060.67 1234.24 2054.86 1234.24 Q2049.05 1234.24 2045.98 1229.65 Q2042.92 1225.05 2042.92 1216.32 Q2042.92 1207.57 2045.98 1202.99 Q2049.05 1198.38 2054.86 1198.38 Z" fill="#000000" fill-rule="nonzero" fill-opacity="1" /><path clip-path="url(#clip980)" d="M1151.85 1278.37 L1138.95 1295.71 L1152.51 1314.01 L1145.61 1314.01 L1135.23 1300.01 L1124.85 1314.01 L1117.95 1314.01 L1131.79 1295.36 L1119.13 1278.37 L1126.03 1278.37 L1135.49 1291.07 L1144.94 1278.37 L1151.85 1278.37 Z" fill="#000000" fill-rule="nonzero" fill-opacity="1" /><polyline clip-path="url(#clip980)" style="stroke:#000000; stroke-linecap:round; stroke-linejoin:round; stroke-width:4; stroke-opacity:1; fill:none" points="205.706,1173.47 205.706,120.723 "/>
<polyline clip-path="url(#clip980)" style="stroke:#000000; stroke-linecap:round; stroke-linejoin:round; stroke-width:4; stroke-opacity:1; fill:none" points="205.706,1147.79 224.604,1147.79 "/>
<polyline clip-path="url(#clip980)" style="stroke:#000000; stroke-linecap:round; stroke-linejoin:round; stroke-width:4; stroke-opacity:1; fill:none" points="205.706,873.911 224.604,873.911 "/>
<polyline clip-path="url(#clip980)" style="stroke:#000000; stroke-linecap:round; stroke-linejoin:round; stroke-width:4; stroke-opacity:1; fill:none" points="205.706,600.036 224.604,600.036 "/>
<polyline clip-path="url(#clip980)" style="stroke:#000000; stroke-linecap:round; stroke-linejoin:round; stroke-width:4; stroke-opacity:1; fill:none" points="205.706,326.162 224.604,326.162 "/>
<path clip-path="url(#clip980)" d="M113.911 1148.24 L143.586 1148.24 L143.586 1152.17 L113.911 1152.17 L113.911 1148.24 Z" fill="#000000" fill-rule="nonzero" fill-opacity="1" /><path clip-path="url(#clip980)" d="M157.707 1161.13 L174.026 1161.13 L174.026 1165.07 L152.082 1165.07 L152.082 1161.13 Q154.744 1158.38 159.327 1153.75 Q163.933 1149.09 165.114 1147.75 Q167.359 1145.23 168.239 1143.49 Q169.142 1141.73 169.142 1140.04 Q169.142 1137.29 167.197 1135.55 Q165.276 1133.82 162.174 1133.82 Q159.975 1133.82 157.521 1134.58 Q155.091 1135.34 152.313 1136.89 L152.313 1132.17 Q155.137 1131.04 157.591 1130.46 Q160.045 1129.88 162.082 1129.88 Q167.452 1129.88 170.646 1132.57 Q173.841 1135.25 173.841 1139.74 Q173.841 1141.87 173.031 1143.79 Q172.244 1145.69 170.137 1148.28 Q169.558 1148.95 166.457 1152.17 Q163.355 1155.37 157.707 1161.13 Z" fill="#000000" fill-rule="nonzero" fill-opacity="1" /><path clip-path="url(#clip980)" d="M113.54 874.362 L143.216 874.362 L143.216 878.297 L113.54 878.297 L113.54 874.362 Z" fill="#000000" fill-rule="nonzero" fill-opacity="1" /><path clip-path="url(#clip980)" d="M154.119 887.256 L161.757 887.256 L161.757 860.89 L153.447 862.557 L153.447 858.297 L161.711 856.631 L166.387 856.631 L166.387 887.256 L174.026 887.256 L174.026 891.191 L154.119 891.191 L154.119 887.256 Z" fill="#000000" fill-rule="nonzero" fill-opacity="1" /><path clip-path="url(#clip980)" d="M162.082 585.835 Q158.47 585.835 156.642 589.4 Q154.836 592.941 154.836 600.071 Q154.836 607.177 156.642 610.742 Q158.47 614.284 162.082 614.284 Q165.716 614.284 167.521 610.742 Q169.35 607.177 169.35 600.071 Q169.35 592.941 167.521 589.4 Q165.716 585.835 162.082 585.835 M162.082 582.131 Q167.892 582.131 170.947 586.738 Q174.026 591.321 174.026 600.071 Q174.026 608.798 170.947 613.404 Q167.892 617.988 162.082 617.988 Q156.271 617.988 153.193 613.404 Q150.137 608.798 150.137 600.071 Q150.137 591.321 153.193 586.738 Q156.271 582.131 162.082 582.131 Z" fill="#000000" fill-rule="nonzero" fill-opacity="1" /><path clip-path="url(#clip980)" d="M154.119 339.507 L161.757 339.507 L161.757 313.141 L153.447 314.808 L153.447 310.548 L161.711 308.882 L166.387 308.882 L166.387 339.507 L174.026 339.507 L174.026 343.442 L154.119 343.442 L154.119 339.507 Z" fill="#000000" fill-rule="nonzero" fill-opacity="1" /><path clip-path="url(#clip980)" d="M18.079 856.863 L22.9487 856.863 L22.9487 862.465 Q22.9487 865.616 24.2219 866.857 Q25.495 868.066 28.8052 868.066 L31.9562 868.066 L31.9562 858.422 L36.5077 858.422 L36.5077 868.066 L67.6042 868.066 L67.6042 873.955 L36.5077 873.955 L36.5077 879.557 L31.9562 879.557 L31.9562 873.955 L29.4736 873.955 Q23.5216 873.955 20.8162 871.186 Q18.079 868.417 18.079 862.401 L18.079 856.863 Z" fill="#000000" fill-rule="nonzero" fill-opacity="1" /><path clip-path="url(#clip980)" d="M18.1426 837.893 Q25.4632 842.158 32.6246 844.227 Q39.786 846.296 47.1384 846.296 Q54.4908 846.296 61.7159 844.227 Q68.9091 842.126 76.1979 837.893 L76.1979 842.986 Q68.7182 847.76 61.4931 850.147 Q54.268 852.502 47.1384 852.502 Q40.0406 852.502 32.8474 850.147 Q25.6542 847.792 18.1426 842.986 L18.1426 837.893 Z" fill="#000000" fill-rule="nonzero" fill-opacity="1" /><path clip-path="url(#clip980)" d="M31.9562 796.898 L49.3028 809.788 L67.6042 796.229 L67.6042 803.136 L53.5996 813.512 L67.6042 823.888 L67.6042 830.795 L48.9526 816.95 L31.9562 829.618 L31.9562 822.711 L44.6558 813.258 L31.9562 803.805 L31.9562 796.898 Z" fill="#000000" fill-rule="nonzero" fill-opacity="1" /><path clip-path="url(#clip980)" d="M18.1426 788.877 L18.1426 783.785 Q25.6542 779.01 32.8474 776.655 Q40.0406 774.268 47.1384 774.268 Q54.268 774.268 61.4931 776.655 Q68.7182 779.01 76.1979 783.785 L76.1979 788.877 Q68.9091 784.644 61.7159 782.575 Q54.4908 780.474 47.1384 780.474 Q39.786 780.474 32.6246 782.575 Q25.4632 784.644 18.1426 788.877 Z" fill="#000000" fill-rule="nonzero" fill-opacity="1" /><path clip-path="url(#clip980)" d="M18.079 742.344 L18.079 728.848 L22.6304 728.848 L22.6304 736.487 L71.6464 736.487 L71.6464 728.848 L76.1979 728.848 L76.1979 742.344 L18.079 742.344 Z" fill="#000000" fill-rule="nonzero" fill-opacity="1" /><path clip-path="url(#clip980)" d="M18.079 716.372 L18.079 710.515 L67.6042 710.515 L67.6042 716.372 L18.079 716.372 Z" fill="#000000" fill-rule="nonzero" fill-opacity="1" /><path clip-path="url(#clip980)" d="M36.0621 684.448 Q36.0621 689.158 39.7542 691.896 Q43.4145 694.633 49.812 694.633 Q56.2095 694.633 59.9017 691.927 Q63.5619 689.19 63.5619 684.448 Q63.5619 679.769 59.8698 677.032 Q56.1777 674.294 49.812 674.294 Q43.4781 674.294 39.786 677.032 Q36.0621 679.769 36.0621 684.448 M31.0968 684.448 Q31.0968 676.809 36.0621 672.448 Q41.0273 668.088 49.812 668.088 Q58.5649 668.088 63.5619 672.448 Q68.5272 676.809 68.5272 684.448 Q68.5272 692.118 63.5619 696.479 Q58.5649 700.808 49.812 700.808 Q41.0273 700.808 36.0621 696.479 Q31.0968 692.118 31.0968 684.448 Z" fill="#000000" fill-rule="nonzero" fill-opacity="1" /><path clip-path="url(#clip980)" d="M49.3664 634.922 Q43.0007 634.922 39.4996 637.564 Q35.9984 640.174 35.9984 644.917 Q35.9984 649.627 39.4996 652.269 Q43.0007 654.879 49.3664 654.879 Q55.7003 654.879 59.2014 652.269 Q62.7026 649.627 62.7026 644.917 Q62.7026 640.174 59.2014 637.564 Q55.7003 634.922 49.3664 634.922 M63.18 629.066 Q72.283 629.066 76.7071 633.108 Q81.1631 637.15 81.1631 645.49 Q81.1631 648.577 80.6857 651.314 Q80.2401 654.051 79.2852 656.63 L73.5879 656.63 Q74.9884 654.051 75.6568 651.537 Q76.3252 649.023 76.3252 646.413 Q76.3252 640.652 73.3015 637.787 Q70.3096 634.922 64.2303 634.922 L61.3339 634.922 Q64.485 636.737 66.0446 639.569 Q67.6042 642.402 67.6042 646.349 Q67.6042 652.906 62.6071 656.916 Q57.61 660.926 49.3664 660.926 Q41.091 660.926 36.0939 656.916 Q31.0968 652.906 31.0968 646.349 Q31.0968 642.402 32.6564 639.569 Q34.216 636.737 37.3671 634.922 L31.9562 634.922 L31.9562 629.066 L63.18 629.066 Z" fill="#000000" fill-rule="nonzero" fill-opacity="1" /><path clip-path="url(#clip980)" d="M33.0065 573.557 L38.5447 573.557 Q37.2716 576.04 36.635 578.713 Q35.9984 581.387 35.9984 584.251 Q35.9984 588.612 37.3352 590.808 Q38.672 592.972 41.3456 592.972 Q43.3826 592.972 44.5603 591.413 Q45.7061 589.853 46.7565 585.143 L47.2021 583.137 Q48.5389 576.899 50.9897 574.289 Q53.4086 571.647 57.7691 571.647 Q62.7344 571.647 65.6308 575.594 Q68.5272 579.509 68.5272 586.384 Q68.5272 589.249 67.9543 592.368 Q67.4132 595.455 66.2992 598.893 L60.2518 598.893 Q61.9387 595.646 62.798 592.495 Q63.6256 589.344 63.6256 586.257 Q63.6256 582.119 62.2251 579.891 Q60.7929 577.663 58.2147 577.663 Q55.8276 577.663 54.5545 579.286 Q53.2813 580.878 52.1037 586.32 L51.6262 588.357 Q50.4804 593.8 48.1251 596.219 Q45.738 598.638 41.6002 598.638 Q36.5713 598.638 33.8341 595.073 Q31.0968 591.508 31.0968 584.952 Q31.0968 581.705 31.5743 578.841 Q32.0517 575.976 33.0065 573.557 Z" fill="#000000" fill-rule="nonzero" fill-opacity="1" /><path clip-path="url(#clip980)" d="M33.3248 536.668 L38.7993 536.668 Q37.4307 539.15 36.7623 541.665 Q36.0621 544.148 36.0621 546.694 Q36.0621 552.391 39.6905 555.542 Q43.2872 558.693 49.812 558.693 Q56.3369 558.693 59.9653 555.542 Q63.5619 552.391 63.5619 546.694 Q63.5619 544.148 62.8935 541.665 Q62.1933 539.15 60.8247 536.668 L66.2355 536.668 Q67.3814 539.119 67.9543 541.76 Q68.5272 544.37 68.5272 547.33 Q68.5272 555.383 63.4664 560.125 Q58.4057 564.868 49.812 564.868 Q41.091 564.868 36.0939 560.094 Q31.0968 555.287 31.0968 546.948 Q31.0968 544.243 31.6697 541.665 Q32.2108 539.087 33.3248 536.668 Z" fill="#000000" fill-rule="nonzero" fill-opacity="1" /><path clip-path="url(#clip980)" d="M49.6847 510.282 Q49.6847 517.38 51.3079 520.117 Q52.9312 522.854 56.8461 522.854 Q59.9653 522.854 61.8114 520.817 Q63.6256 518.748 63.6256 515.215 Q63.6256 510.346 60.1881 507.417 Q56.7188 504.457 50.9897 504.457 L49.6847 504.457 L49.6847 510.282 M47.2657 498.601 L67.6042 498.601 L67.6042 504.457 L62.1933 504.457 Q65.4398 506.463 66.9994 509.454 Q68.5272 512.446 68.5272 516.775 Q68.5272 522.249 65.4716 525.496 Q62.3843 528.711 57.2281 528.711 Q51.2125 528.711 48.1569 524.7 Q45.1014 520.658 45.1014 512.669 L45.1014 504.457 L44.5285 504.457 Q40.4862 504.457 38.2901 507.131 Q36.0621 509.773 36.0621 514.579 Q36.0621 517.634 36.7941 520.531 Q37.5262 523.427 38.9903 526.101 L33.5795 526.101 Q32.3381 522.886 31.7334 519.862 Q31.0968 516.839 31.0968 513.974 Q31.0968 506.24 35.1072 502.42 Q39.1176 498.601 47.2657 498.601 Z" fill="#000000" fill-rule="nonzero" fill-opacity="1" /><path clip-path="url(#clip980)" d="M18.079 486.538 L18.079 480.681 L67.6042 480.681 L67.6042 486.538 L18.079 486.538 Z" fill="#000000" fill-rule="nonzero" fill-opacity="1" /><path clip-path="url(#clip980)" d="M48.3161 437.936 L51.1806 437.936 L51.1806 464.863 Q57.2281 464.481 60.4109 461.234 Q63.5619 457.956 63.5619 452.131 Q63.5619 448.757 62.7344 445.606 Q61.9069 442.424 60.2518 439.304 L65.7899 439.304 Q67.1267 442.455 67.827 445.766 Q68.5272 449.076 68.5272 452.481 Q68.5272 461.011 63.5619 466.008 Q58.5967 470.974 50.1303 470.974 Q41.3774 470.974 36.2531 466.263 Q31.0968 461.521 31.0968 453.5 Q31.0968 446.307 35.7438 442.137 Q40.3589 437.936 48.3161 437.936 M46.5973 443.792 Q41.7912 443.856 38.9266 446.498 Q36.0621 449.108 36.0621 453.436 Q36.0621 458.338 38.8312 461.298 Q41.6002 464.226 46.6292 464.672 L46.5973 443.792 Z" fill="#000000" fill-rule="nonzero" fill-opacity="1" /><path clip-path="url(#clip980)" d="M18.079 414.637 L76.1979 414.637 L76.1979 428.132 L71.6464 428.132 L71.6464 420.525 L22.6304 420.525 L22.6304 428.132 L18.079 428.132 L18.079 414.637 Z" fill="#000000" fill-rule="nonzero" fill-opacity="1" /><path clip-path="url(#clip980)" d="M390.209 18.8205 L390.209 41.5461 L400.498 41.5461 Q406.21 41.5461 409.329 38.5889 Q412.448 35.6318 412.448 30.163 Q412.448 24.7348 409.329 21.7777 Q406.21 18.8205 400.498 18.8205 L390.209 18.8205 M382.026 12.096 L400.498 12.096 Q410.666 12.096 415.851 16.714 Q421.077 21.2916 421.077 30.163 Q421.077 39.1155 415.851 43.6931 Q410.666 48.2706 400.498 48.2706 L390.209 48.2706 L390.209 72.576 L382.026 72.576 L382.026 12.096 Z" fill="#000000" fill-rule="nonzero" fill-opacity="1" /><path clip-path="url(#clip980)" d="M446.354 32.4315 Q440.359 32.4315 436.875 37.1306 Q433.392 41.7891 433.392 49.9314 Q433.392 58.0738 436.835 62.7728 Q440.319 67.4314 446.354 67.4314 Q452.309 67.4314 455.793 62.7323 Q459.277 58.0333 459.277 49.9314 Q459.277 41.8701 455.793 37.1711 Q452.309 32.4315 446.354 32.4315 M446.354 26.1121 Q456.077 26.1121 461.626 32.4315 Q467.176 38.7509 467.176 49.9314 Q467.176 61.0714 461.626 67.4314 Q456.077 73.7508 446.354 73.7508 Q436.592 73.7508 431.042 67.4314 Q425.533 61.0714 425.533 49.9314 Q425.533 38.7509 431.042 32.4315 Q436.592 26.1121 446.354 26.1121 Z" fill="#000000" fill-rule="nonzero" fill-opacity="1" /><path clip-path="url(#clip980)" d="M479.531 27.2059 L486.985 27.2059 L486.985 72.576 L479.531 72.576 L479.531 27.2059 M479.531 9.54393 L486.985 9.54393 L486.985 18.9825 L479.531 18.9825 L479.531 9.54393 Z" fill="#000000" fill-rule="nonzero" fill-opacity="1" /><path clip-path="url(#clip980)" d="M531.504 28.5427 L531.504 35.5912 Q528.345 33.9709 524.942 33.1607 Q521.539 32.3505 517.893 32.3505 Q512.344 32.3505 509.549 34.0519 Q506.794 35.7533 506.794 39.156 Q506.794 41.7486 508.779 43.2475 Q510.764 44.7058 516.759 46.0426 L519.311 46.6097 Q527.251 48.3111 530.573 51.4303 Q533.935 54.509 533.935 60.0587 Q533.935 66.3781 528.912 70.0644 Q523.929 73.7508 515.179 73.7508 Q511.533 73.7508 507.564 73.0216 Q503.634 72.3329 499.259 70.9151 L499.259 63.2184 Q503.391 65.3654 507.402 66.4591 Q511.412 67.5124 515.341 67.5124 Q520.607 67.5124 523.443 65.73 Q526.279 63.9071 526.279 60.6258 Q526.279 57.5877 524.213 55.9673 Q522.187 54.3469 515.26 52.8481 L512.668 52.2405 Q505.741 50.7821 502.662 47.7845 Q499.583 44.7463 499.583 39.4801 Q499.583 33.0797 504.12 29.5959 Q508.657 26.1121 517.002 26.1121 Q521.134 26.1121 524.78 26.7198 Q528.426 27.3274 531.504 28.5427 Z" fill="#000000" fill-rule="nonzero" fill-opacity="1" /><path clip-path="url(#clip980)" d="M574.728 28.5427 L574.728 35.5912 Q571.568 33.9709 568.165 33.1607 Q564.762 32.3505 561.117 32.3505 Q555.567 32.3505 552.772 34.0519 Q550.017 35.7533 550.017 39.156 Q550.017 41.7486 552.002 43.2475 Q553.987 44.7058 559.982 46.0426 L562.534 46.6097 Q570.474 48.3111 573.796 51.4303 Q577.158 54.509 577.158 60.0587 Q577.158 66.3781 572.135 70.0644 Q567.152 73.7508 558.402 73.7508 Q554.757 73.7508 550.787 73.0216 Q546.857 72.3329 542.482 70.9151 L542.482 63.2184 Q546.614 65.3654 550.625 66.4591 Q554.635 67.5124 558.564 67.5124 Q563.831 67.5124 566.666 65.73 Q569.502 63.9071 569.502 60.6258 Q569.502 57.5877 567.436 55.9673 Q565.41 54.3469 558.483 52.8481 L555.891 52.2405 Q548.964 50.7821 545.885 47.7845 Q542.806 44.7463 542.806 39.4801 Q542.806 33.0797 547.343 29.5959 Q551.88 26.1121 560.225 26.1121 Q564.357 26.1121 568.003 26.7198 Q571.649 27.3274 574.728 28.5427 Z" fill="#000000" fill-rule="nonzero" fill-opacity="1" /><path clip-path="url(#clip980)" d="M606.608 32.4315 Q600.613 32.4315 597.129 37.1306 Q593.645 41.7891 593.645 49.9314 Q593.645 58.0738 597.089 62.7728 Q600.572 67.4314 606.608 67.4314 Q612.563 67.4314 616.047 62.7323 Q619.531 58.0333 619.531 49.9314 Q619.531 41.8701 616.047 37.1711 Q612.563 32.4315 606.608 32.4315 M606.608 26.1121 Q616.33 26.1121 621.88 32.4315 Q627.43 38.7509 627.43 49.9314 Q627.43 61.0714 621.88 67.4314 Q616.33 73.7508 606.608 73.7508 Q596.845 73.7508 591.296 67.4314 Q585.787 61.0714 585.787 49.9314 Q585.787 38.7509 591.296 32.4315 Q596.845 26.1121 606.608 26.1121 Z" fill="#000000" fill-rule="nonzero" fill-opacity="1" /><path clip-path="url(#clip980)" d="M677.499 45.1919 L677.499 72.576 L670.045 72.576 L670.045 45.4349 Q670.045 38.994 667.534 35.7938 Q665.022 32.5936 659.999 32.5936 Q653.963 32.5936 650.479 36.4419 Q646.996 40.2903 646.996 46.9338 L646.996 72.576 L639.502 72.576 L639.502 27.2059 L646.996 27.2059 L646.996 34.2544 Q649.669 30.163 653.275 28.1376 Q656.92 26.1121 661.66 26.1121 Q669.478 26.1121 673.489 30.9732 Q677.499 35.7938 677.499 45.1919 Z" fill="#000000" fill-rule="nonzero" fill-opacity="1" /><path clip-path="url(#clip980)" d="M760.299 63.9476 L760.299 47.7034 L746.932 47.7034 L746.932 40.9789 L768.401 40.9789 L768.401 66.9452 Q763.662 70.3075 757.95 72.0494 Q752.238 73.7508 745.757 73.7508 Q731.579 73.7508 723.558 65.4869 Q715.578 57.1826 715.578 42.3968 Q715.578 27.5705 723.558 19.3066 Q731.579 11.0023 745.757 11.0023 Q751.671 11.0023 756.978 12.4606 Q762.325 13.9189 766.821 16.7545 L766.821 25.464 Q762.284 21.6156 757.18 19.6712 Q752.076 17.7268 746.445 17.7268 Q735.346 17.7268 729.756 23.9246 Q724.206 30.1225 724.206 42.3968 Q724.206 54.6305 729.756 60.8284 Q735.346 67.0263 746.445 67.0263 Q750.78 67.0263 754.183 66.2971 Q757.585 65.5274 760.299 63.9476 Z" fill="#000000" fill-rule="nonzero" fill-opacity="1" /><path clip-path="url(#clip980)" d="M803.563 20.1573 L792.464 50.2555 L814.703 50.2555 L803.563 20.1573 M798.945 12.096 L808.222 12.096 L831.271 72.576 L822.764 72.576 L817.255 57.061 L789.993 57.061 L784.483 72.576 L775.855 72.576 L798.945 12.096 Z" fill="#000000" fill-rule="nonzero" fill-opacity="1" /><path clip-path="url(#clip980)" d="M840.102 12.096 L852.296 12.096 L867.729 53.2532 L883.244 12.096 L895.438 12.096 L895.438 72.576 L887.457 72.576 L887.457 19.4686 L871.861 60.9499 L863.638 60.9499 L848.042 19.4686 L848.042 72.576 L840.102 72.576 L840.102 12.096 Z" fill="#000000" fill-rule="nonzero" fill-opacity="1" /><path clip-path="url(#clip980)" d="M933.962 46.9338 L1008.82 46.9338 L1008.82 52.7671 L933.962 52.7671 L933.962 46.9338 Z" fill="#000000" fill-rule="nonzero" fill-opacity="1" /><path clip-path="url(#clip980)" d="M1075.99 28.5427 L1075.99 35.5912 Q1072.83 33.9709 1069.42 33.1607 Q1066.02 32.3505 1062.38 32.3505 Q1056.83 32.3505 1054.03 34.0519 Q1051.28 35.7533 1051.28 39.156 Q1051.28 41.7486 1053.26 43.2475 Q1055.25 44.7058 1061.24 46.0426 L1063.79 46.6097 Q1071.73 48.3111 1075.05 51.4303 Q1078.42 54.509 1078.42 60.0587 Q1078.42 66.3781 1073.39 70.0644 Q1068.41 73.7508 1059.66 73.7508 Q1056.02 73.7508 1052.05 73.0216 Q1048.12 72.3329 1043.74 70.9151 L1043.74 63.2184 Q1047.87 65.3654 1051.88 66.4591 Q1055.89 67.5124 1059.82 67.5124 Q1065.09 67.5124 1067.93 65.73 Q1070.76 63.9071 1070.76 60.6258 Q1070.76 57.5877 1068.69 55.9673 Q1066.67 54.3469 1059.74 52.8481 L1057.15 52.2405 Q1050.22 50.7821 1047.14 47.7845 Q1044.07 44.7463 1044.07 39.4801 Q1044.07 33.0797 1048.6 29.5959 Q1053.14 26.1121 1061.48 26.1121 Q1065.62 26.1121 1069.26 26.7198 Q1072.91 27.3274 1075.99 28.5427 Z" fill="#000000" fill-rule="nonzero" fill-opacity="1" /><path clip-path="url(#clip980)" d="M1125.61 35.9153 Q1128.41 30.8922 1132.29 28.5022 Q1136.18 26.1121 1141.45 26.1121 Q1148.54 26.1121 1152.39 31.0947 Q1156.23 36.0368 1156.23 45.1919 L1156.23 72.576 L1148.74 72.576 L1148.74 45.4349 Q1148.74 38.913 1146.43 35.7533 Q1144.12 32.5936 1139.38 32.5936 Q1133.59 32.5936 1130.23 36.4419 Q1126.87 40.2903 1126.87 46.9338 L1126.87 72.576 L1119.37 72.576 L1119.37 45.4349 Q1119.37 38.8725 1117.06 35.7533 Q1114.75 32.5936 1109.93 32.5936 Q1104.22 32.5936 1100.86 36.4824 Q1097.5 40.3308 1097.5 46.9338 L1097.5 72.576 L1090 72.576 L1090 27.2059 L1097.5 27.2059 L1097.5 34.2544 Q1100.05 30.082 1103.61 28.0971 Q1107.18 26.1121 1112.08 26.1121 Q1117.02 26.1121 1120.47 28.6237 Q1123.95 31.1352 1125.61 35.9153 Z" fill="#000000" fill-rule="nonzero" fill-opacity="1" /><path clip-path="url(#clip980)" d="M1188.68 32.4315 Q1182.69 32.4315 1179.2 37.1306 Q1175.72 41.7891 1175.72 49.9314 Q1175.72 58.0738 1179.16 62.7728 Q1182.65 67.4314 1188.68 67.4314 Q1194.64 67.4314 1198.12 62.7323 Q1201.6 58.0333 1201.6 49.9314 Q1201.6 41.8701 1198.12 37.1711 Q1194.64 32.4315 1188.68 32.4315 M1188.68 26.1121 Q1198.4 26.1121 1203.95 32.4315 Q1209.5 38.7509 1209.5 49.9314 Q1209.5 61.0714 1203.95 67.4314 Q1198.4 73.7508 1188.68 73.7508 Q1178.92 73.7508 1173.37 67.4314 Q1167.86 61.0714 1167.86 49.9314 Q1167.86 38.7509 1173.37 32.4315 Q1178.92 26.1121 1188.68 26.1121 Z" fill="#000000" fill-rule="nonzero" fill-opacity="1" /><path clip-path="url(#clip980)" d="M1239.44 32.4315 Q1233.45 32.4315 1229.96 37.1306 Q1226.48 41.7891 1226.48 49.9314 Q1226.48 58.0738 1229.92 62.7728 Q1233.4 67.4314 1239.44 67.4314 Q1245.4 67.4314 1248.88 62.7323 Q1252.36 58.0333 1252.36 49.9314 Q1252.36 41.8701 1248.88 37.1711 Q1245.4 32.4315 1239.44 32.4315 M1239.44 26.1121 Q1249.16 26.1121 1254.71 32.4315 Q1260.26 38.7509 1260.26 49.9314 Q1260.26 61.0714 1254.71 67.4314 Q1249.16 73.7508 1239.44 73.7508 Q1229.68 73.7508 1224.13 67.4314 Q1218.62 61.0714 1218.62 49.9314 Q1218.62 38.7509 1224.13 32.4315 Q1229.68 26.1121 1239.44 26.1121 Z" fill="#000000" fill-rule="nonzero" fill-opacity="1" /><path clip-path="url(#clip980)" d="M1279.99 14.324 L1279.99 27.2059 L1295.34 27.2059 L1295.34 32.9987 L1279.99 32.9987 L1279.99 57.6282 Q1279.99 63.1779 1281.49 64.7578 Q1283.03 66.3376 1287.69 66.3376 L1295.34 66.3376 L1295.34 72.576 L1287.69 72.576 Q1279.06 72.576 1275.78 69.3758 Q1272.5 66.1351 1272.5 57.6282 L1272.5 32.9987 L1267.03 32.9987 L1267.03 27.2059 L1272.5 27.2059 L1272.5 14.324 L1279.99 14.324 Z" fill="#000000" fill-rule="nonzero" fill-opacity="1" /><path clip-path="url(#clip980)" d="M1342.86 45.1919 L1342.86 72.576 L1335.41 72.576 L1335.41 45.4349 Q1335.41 38.994 1332.89 35.7938 Q1330.38 32.5936 1325.36 32.5936 Q1319.32 32.5936 1315.84 36.4419 Q1312.36 40.2903 1312.36 46.9338 L1312.36 72.576 L1304.86 72.576 L1304.86 9.54393 L1312.36 9.54393 L1312.36 34.2544 Q1315.03 30.163 1318.64 28.1376 Q1322.28 26.1121 1327.02 26.1121 Q1334.84 26.1121 1338.85 30.9732 Q1342.86 35.7938 1342.86 45.1919 Z" fill="#000000" fill-rule="nonzero" fill-opacity="1" /><path clip-path="url(#clip980)" d="M1401.68 32.4315 Q1395.68 32.4315 1392.2 37.1306 Q1388.72 41.7891 1388.72 49.9314 Q1388.72 58.0738 1392.16 62.7728 Q1395.64 67.4314 1401.68 67.4314 Q1407.63 67.4314 1411.12 62.7323 Q1414.6 58.0333 1414.6 49.9314 Q1414.6 41.8701 1411.12 37.1711 Q1407.63 32.4315 1401.68 32.4315 M1401.68 26.1121 Q1411.4 26.1121 1416.95 32.4315 Q1422.5 38.7509 1422.5 49.9314 Q1422.5 61.0714 1416.95 67.4314 Q1411.4 73.7508 1401.68 73.7508 Q1391.92 73.7508 1386.37 67.4314 Q1380.86 61.0714 1380.86 49.9314 Q1380.86 38.7509 1386.37 32.4315 Q1391.92 26.1121 1401.68 26.1121 Z" fill="#000000" fill-rule="nonzero" fill-opacity="1" /><path clip-path="url(#clip980)" d="M1472.57 45.1919 L1472.57 72.576 L1465.12 72.576 L1465.12 45.4349 Q1465.12 38.994 1462.6 35.7938 Q1460.09 32.5936 1455.07 32.5936 Q1449.03 32.5936 1445.55 36.4419 Q1442.07 40.2903 1442.07 46.9338 L1442.07 72.576 L1434.57 72.576 L1434.57 27.2059 L1442.07 27.2059 L1442.07 34.2544 Q1444.74 30.163 1448.35 28.1376 Q1451.99 26.1121 1456.73 26.1121 Q1464.55 26.1121 1468.56 30.9732 Q1472.57 35.7938 1472.57 45.1919 Z" fill="#000000" fill-rule="nonzero" fill-opacity="1" /><path clip-path="url(#clip980)" d="M1513.81 9.54393 L1521.26 9.54393 L1521.26 72.576 L1513.81 72.576 L1513.81 9.54393 Z" fill="#000000" fill-rule="nonzero" fill-opacity="1" /><path clip-path="url(#clip980)" d="M1536.86 27.2059 L1544.31 27.2059 L1544.31 72.576 L1536.86 72.576 L1536.86 27.2059 M1536.86 9.54393 L1544.31 9.54393 L1544.31 18.9825 L1536.86 18.9825 L1536.86 9.54393 Z" fill="#000000" fill-rule="nonzero" fill-opacity="1" /><path clip-path="url(#clip980)" d="M1597.62 45.1919 L1597.62 72.576 L1590.17 72.576 L1590.17 45.4349 Q1590.17 38.994 1587.66 35.7938 Q1585.14 32.5936 1580.12 32.5936 Q1574.09 32.5936 1570.6 36.4419 Q1567.12 40.2903 1567.12 46.9338 L1567.12 72.576 L1559.62 72.576 L1559.62 27.2059 L1567.12 27.2059 L1567.12 34.2544 Q1569.79 30.163 1573.4 28.1376 Q1577.04 26.1121 1581.78 26.1121 Q1589.6 26.1121 1593.61 30.9732 Q1597.62 35.7938 1597.62 45.1919 Z" fill="#000000" fill-rule="nonzero" fill-opacity="1" /><path clip-path="url(#clip980)" d="M1612.2 9.54393 L1619.7 9.54393 L1619.7 46.7717 L1641.94 27.2059 L1651.46 27.2059 L1627.4 48.4326 L1652.47 72.576 L1642.75 72.576 L1619.7 50.4176 L1619.7 72.576 L1612.2 72.576 L1612.2 9.54393 Z" fill="#000000" fill-rule="nonzero" fill-opacity="1" /><path clip-path="url(#clip980)" d="M1715.83 28.5427 L1715.83 35.5912 Q1712.67 33.9709 1709.26 33.1607 Q1705.86 32.3505 1702.22 32.3505 Q1696.67 32.3505 1693.87 34.0519 Q1691.12 35.7533 1691.12 39.156 Q1691.12 41.7486 1693.1 43.2475 Q1695.09 44.7058 1701.08 46.0426 L1703.63 46.6097 Q1711.57 48.3111 1714.9 51.4303 Q1718.26 54.509 1718.26 60.0587 Q1718.26 66.3781 1713.23 70.0644 Q1708.25 73.7508 1699.5 73.7508 Q1695.86 73.7508 1691.89 73.0216 Q1687.96 72.3329 1683.58 70.9151 L1683.58 63.2184 Q1687.71 65.3654 1691.72 66.4591 Q1695.73 67.5124 1699.66 67.5124 Q1704.93 67.5124 1707.77 65.73 Q1710.6 63.9071 1710.6 60.6258 Q1710.6 57.5877 1708.54 55.9673 Q1706.51 54.3469 1699.58 52.8481 L1696.99 52.2405 Q1690.06 50.7821 1686.98 47.7845 Q1683.91 44.7463 1683.91 39.4801 Q1683.91 33.0797 1688.44 29.5959 Q1692.98 26.1121 1701.32 26.1121 Q1705.46 26.1121 1709.1 26.7198 Q1712.75 27.3274 1715.83 28.5427 Z" fill="#000000" fill-rule="nonzero" fill-opacity="1" /><path clip-path="url(#clip980)" d="M1762.78 28.9478 L1762.78 35.9153 Q1759.62 34.1734 1756.42 33.3227 Q1753.26 32.4315 1750.02 32.4315 Q1742.77 32.4315 1738.75 37.0496 Q1734.74 41.6271 1734.74 49.9314 Q1734.74 58.2358 1738.75 62.8538 Q1742.77 67.4314 1750.02 67.4314 Q1753.26 67.4314 1756.42 66.5807 Q1759.62 65.6895 1762.78 63.9476 L1762.78 70.8341 Q1759.66 72.2924 1756.3 73.0216 Q1752.97 73.7508 1749.21 73.7508 Q1738.96 73.7508 1732.92 67.3098 Q1726.89 60.8689 1726.89 49.9314 Q1726.89 38.832 1732.96 32.472 Q1739.08 26.1121 1749.69 26.1121 Q1753.14 26.1121 1756.42 26.8413 Q1759.7 27.5299 1762.78 28.9478 Z" fill="#000000" fill-rule="nonzero" fill-opacity="1" /><path clip-path="url(#clip980)" d="M1796.36 49.7694 Q1787.33 49.7694 1783.84 51.8354 Q1780.36 53.9013 1780.36 58.8839 Q1780.36 62.8538 1782.95 65.2034 Q1785.58 67.5124 1790.08 67.5124 Q1796.28 67.5124 1800 63.1374 Q1803.77 58.7219 1803.77 51.4303 L1803.77 49.7694 L1796.36 49.7694 M1811.23 46.6907 L1811.23 72.576 L1803.77 72.576 L1803.77 65.6895 Q1801.22 69.8214 1797.41 71.8063 Q1793.6 73.7508 1788.09 73.7508 Q1781.13 73.7508 1777 69.8619 Q1772.9 65.9325 1772.9 59.3701 Q1772.9 51.7138 1778.01 47.825 Q1783.15 43.9361 1793.32 43.9361 L1803.77 43.9361 L1803.77 43.2069 Q1803.77 38.0623 1800.37 35.2672 Q1797.01 32.4315 1790.89 32.4315 Q1787 32.4315 1783.31 33.3632 Q1779.63 34.295 1776.23 36.1584 L1776.23 29.2718 Q1780.32 27.692 1784.17 26.9223 Q1788.01 26.1121 1791.66 26.1121 Q1801.5 26.1121 1806.36 31.2163 Q1811.23 36.3204 1811.23 46.6907 Z" fill="#000000" fill-rule="nonzero" fill-opacity="1" /><path clip-path="url(#clip980)" d="M1826.58 9.54393 L1834.03 9.54393 L1834.03 72.576 L1826.58 72.576 L1826.58 9.54393 Z" fill="#000000" fill-rule="nonzero" fill-opacity="1" /><path clip-path="url(#clip980)" d="M1888.44 48.0275 L1888.44 51.6733 L1854.17 51.6733 Q1854.65 59.3701 1858.78 63.421 Q1862.96 67.4314 1870.37 67.4314 Q1874.66 67.4314 1878.67 66.3781 Q1882.72 65.3249 1886.69 63.2184 L1886.69 70.267 Q1882.68 71.9684 1878.47 72.8596 Q1874.26 73.7508 1869.92 73.7508 Q1859.07 73.7508 1852.71 67.4314 Q1846.39 61.1119 1846.39 50.3365 Q1846.39 39.1965 1852.38 32.6746 Q1858.42 26.1121 1868.63 26.1121 Q1877.78 26.1121 1883.09 32.0264 Q1888.44 37.9003 1888.44 48.0275 M1880.98 45.84 Q1880.9 39.7232 1877.54 36.0774 Q1874.22 32.4315 1868.71 32.4315 Q1862.47 32.4315 1858.7 35.9558 Q1854.98 39.4801 1854.41 45.8805 L1880.98 45.84 Z" fill="#000000" fill-rule="nonzero" fill-opacity="1" /><path clip-path="url(#clip981)" d="M258.321 694.515 L267.134 671.739 L275.947 649.398 L284.76 627.644 L293.573 606.625 L302.386 586.48 L311.2 567.323 L320.013 549.229 L328.826 532.214 L337.639 516.228 L346.452 501.165 L355.265 486.873 L364.079 473.184 L372.892 459.936 L381.705 446.993 L390.518 434.261 L399.331 421.743 L408.144 409.5 L416.958 397.62 L425.771 386.2 L434.584 375.333 L443.397 365.093 L452.21 355.516 L461.023 346.59 L469.837 338.253 L478.65 330.395 L487.463 322.883 L496.276 315.574 L505.089 308.362 L513.902 301.275 L522.716 294.427 L531.529 287.957 L540.342 281.992 L549.155 276.621 L557.968 271.864 L566.781 267.659 L575.595 263.875 L584.408 260.335 L593.221 256.85 L602.034 253.279 L610.847 249.618 L619.661 245.921 L628.474 242.267 L637.287 238.748 L646.1 235.461 L654.913 232.492 L663.726 229.911 L672.54 227.756 L681.353 226.034 L690.166 224.719 L698.979 223.755 L707.792 223.069 L716.605 222.575 L725.419 222.187 L734.232 221.824 L743.045 221.418 L751.858 220.927 L760.671 220.42 L769.484 220.058 L778.298 220.017 L787.111 220.48 L795.924 221.62 L804.737 223.585 L813.55 226.477 L822.363 230.343 L831.177 235.171 L839.99 240.904 L848.803 247.464 L857.616 254.765 L866.429 262.742 L875.242 271.355 L884.056 280.603 L892.869 290.51 L901.682 301.107 L910.495 312.424 L919.308 324.471 L928.121 337.233 L936.935 350.657 L945.748 364.657 L954.561 379.116 L963.374 393.896 L972.187 408.847 L981 423.819 L989.814 438.665 L998.627 453.252 L1007.44 467.468 L1016.25 481.238 L1025.07 494.613 L1033.88 507.748 L1042.69 520.791 L1051.51 533.874 L1060.32 547.088 L1069.13 560.482 L1077.95 574.054 L1086.76 587.759 L1095.57 601.519 L1104.38 615.241 L1113.2 628.824 L1122.01 642.182 L1130.82 655.25 L1139.64 668.04 L1148.45 680.656 L1157.26 693.224 L1166.08 705.857 L1174.89 718.647 L1183.7 731.647 L1192.52 744.868 L1201.33 758.279 L1210.14 771.808 L1218.96 785.36 L1227.77 798.825 L1236.58 812.098 L1245.4 825.088 L1254.21 837.769 L1263.02 850.205 L1271.84 862.473 L1280.65 874.647 L1289.46 886.786 L1298.27 898.917 L1307.09 911.04 L1315.9 923.119 L1324.71 935.086 L1333.53 946.849 L1342.34 958.297 L1351.15 969.31 L1359.97 979.766 L1368.78 989.562 L1377.59 998.692 L1386.41 1007.21 L1395.22 1015.2 L1404.03 1022.72 L1412.85 1029.85 L1421.66 1036.67 L1430.47 1043.25 L1439.29 1049.63 L1448.1 1055.86 L1456.91 1061.97 L1465.72 1067.97 L1474.54 1073.85 L1483.35 1079.6 L1492.16 1085.2 L1500.98 1090.61 L1509.79 1095.81 L1518.6 1100.76 L1527.42 1105.44 L1536.23 1109.85 L1545.04 1114 L1553.86 1117.93 L1562.67 1121.71 L1571.48 1125.36 L1580.3 1128.92 L1589.11 1132.34 L1597.92 1135.55 L1606.74 1138.45 L1615.55 1140.88 L1624.36 1142.66 L1633.17 1143.63 L1641.99 1143.68 L1650.8 1142.83 L1659.61 1141.15 L1668.43 1138.68 L1677.24 1135.5 L1686.05 1131.66 L1694.87 1127.17 L1703.68 1122.06 L1712.49 1116.3 L1721.31 1109.86 L1730.12 1102.67 L1738.93 1094.65 L1747.75 1085.71 L1756.56 1075.74 L1765.37 1064.7 L1774.19 1052.64 L1783 1039.66 L1791.81 1025.89 L1800.63 1011.44 L1809.44 996.435 L1818.25 980.995 L1827.06 965.23 L1835.88 949.241 L1844.69 933.115 L1853.5 916.923 L1862.32 900.721 L1871.13 884.559 L1879.94 868.48 L1888.76 852.532 L1897.57 836.783 L1906.38 821.328 L1915.2 806.314 L1924.01 791.928 L1932.82 778.373 L1941.64 765.834 L1950.45 754.452 L1959.26 744.296 L1968.08 735.36 L1976.89 727.573 L1985.7 720.812 L1994.51 714.931 L2003.33 709.77 L2012.14 705.169 L2012.14 454.666 L2003.33 477.788 L1994.51 500.373 L1985.7 522.283 L1976.89 543.384 L1968.08 563.55 L1959.26 582.685 L1950.45 600.737 L1941.64 617.726 L1932.82 633.744 L1924.01 648.953 L1915.2 663.563 L1906.38 677.8 L1897.57 691.871 L1888.76 705.876 L1879.94 719.808 L1871.13 733.623 L1862.32 747.261 L1853.5 760.658 L1844.69 773.754 L1835.88 786.497 L1827.06 798.85 L1818.25 810.791 L1809.44 822.311 L1800.63 833.414 L1791.81 844.11 L1783 854.414 L1774.19 864.338 L1765.37 873.889 L1756.56 883.059 L1747.75 891.819 L1738.93 900.095 L1730.12 907.802 L1721.31 914.855 L1712.49 921.183 L1703.68 926.732 L1694.87 931.472 L1686.05 935.397 L1677.24 938.526 L1668.43 940.902 L1659.61 942.585 L1650.8 943.644 L1641.99 944.152 L1633.17 944.173 L1624.36 943.745 L1615.55 942.852 L1606.74 941.443 L1597.92 939.473 L1589.11 936.92 L1580.3 933.799 L1571.48 930.166 L1562.67 926.121 L1553.86 921.807 L1545.04 917.392 L1536.23 913.044 L1527.42 908.813 L1518.6 904.685 L1509.79 900.622 L1500.98 896.574 L1492.16 892.483 L1483.35 888.286 L1474.54 883.924 L1465.72 879.342 L1456.91 874.497 L1448.1 869.355 L1439.29 863.899 L1430.47 858.126 L1421.66 852.048 L1412.85 845.69 L1404.03 839.088 L1395.22 832.286 L1386.41 825.332 L1377.59 818.271 L1368.78 811.144 L1359.97 803.98 L1351.15 796.764 L1342.34 789.429 L1333.53 781.891 L1324.71 774.071 L1315.9 765.895 L1307.09 757.312 L1298.27 748.294 L1289.46 738.842 L1280.65 728.996 L1271.84 718.824 L1263.02 708.422 L1254.21 697.903 L1245.4 687.386 L1236.58 676.97 L1227.77 666.655 L1218.96 656.365 L1210.14 646.011 L1201.33 635.499 L1192.52 624.748 L1183.7 613.705 L1174.89 602.352 L1166.08 590.717 L1157.26 578.869 L1148.45 566.915 L1139.64 554.986 L1130.82 543.22 L1122.01 531.738 L1113.2 520.534 L1104.38 509.519 L1095.57 498.577 L1086.76 487.58 L1077.95 476.407 L1069.13 464.951 L1060.32 453.141 L1051.51 440.947 L1042.69 428.389 L1033.88 415.533 L1025.07 402.479 L1016.25 389.351 L1007.44 376.276 L998.627 363.352 L989.814 350.624 L981 338.107 L972.187 325.795 L963.374 313.667 L954.561 301.698 L945.748 289.866 L936.935 278.158 L928.121 266.585 L919.308 255.185 L910.495 244.033 L901.682 233.239 L892.869 222.94 L884.056 213.291 L875.242 204.452 L866.429 196.571 L857.616 189.747 L848.803 183.906 L839.99 178.892 L831.177 174.54 L822.363 170.683 L813.55 167.181 L804.737 163.938 L795.924 160.914 L787.111 158.127 L778.298 155.641 L769.484 153.543 L760.671 151.931 L751.858 150.897 L743.045 150.518 L734.232 150.807 L725.419 151.706 L716.605 153.129 L707.792 154.98 L698.979 157.159 L690.166 159.563 L681.353 162.104 L672.54 164.71 L663.726 167.34 L654.913 169.984 L646.1 172.667 L637.287 175.441 L628.474 178.379 L619.661 181.559 L610.847 185.06 L602.034 188.944 L593.221 193.251 L584.408 197.964 L575.595 202.963 L566.781 208.084 L557.968 213.182 L549.155 218.153 L540.342 222.964 L531.529 227.663 L522.716 232.367 L513.902 237.234 L505.089 242.429 L496.276 248.096 L487.463 254.292 L478.65 260.942 L469.837 267.937 L461.023 275.173 L452.21 282.575 L443.397 290.11 L434.584 297.8 L425.771 305.712 L416.958 313.951 L408.144 322.642 L399.331 331.916 L390.518 341.891 L381.705 352.66 L372.892 364.229 L364.079 376.442 L355.265 389.087 L346.452 401.932 L337.639 414.735 L328.826 427.271 L320.013 439.361 L311.2 450.882 L302.386 461.778 L293.573 472.05 L284.76 481.74 L275.947 490.913 L267.134 499.646 L258.321 508.016  Z" fill="#009af9" fill-rule="evenodd" fill-opacity="0.2"/>
<polyline clip-path="url(#clip981)" style="stroke:#009af9; stroke-linecap:round; stroke-linejoin:round; stroke-width:8; stroke-opacity:1; fill:none" points="258.321,601.265 267.134,585.692 275.947,570.156 284.76,554.692 293.573,539.338 302.386,524.129 311.2,509.103 320.013,494.295 328.826,479.742 337.639,465.482 346.452,451.549 355.265,437.98 364.079,424.813 372.892,412.083 381.705,399.827 390.518,388.076 399.331,376.829 408.144,366.071 416.958,355.785 425.771,345.956 434.584,336.566 443.397,327.602 452.21,319.045 461.023,310.882 469.837,303.095 478.65,295.669 487.463,288.587 496.276,281.835 505.089,275.396 513.902,269.254 522.716,263.397 531.529,257.81 540.342,252.478 549.155,247.387 557.968,242.523 566.781,237.872 575.595,233.419 584.408,229.15 593.221,225.05 602.034,221.112 610.847,217.339 619.661,213.74 628.474,210.323 637.287,207.095 646.1,204.064 654.913,201.238 663.726,198.625 672.54,196.233 681.353,194.069 690.166,192.141 698.979,190.457 707.792,189.025 716.605,187.852 725.419,186.946 734.232,186.316 743.045,185.968 751.858,185.912 760.671,186.176 769.484,186.8 778.298,187.829 787.111,189.304 795.924,191.267 804.737,193.761 813.55,196.829 822.363,200.513 831.177,204.855 839.99,209.898 848.803,215.685 857.616,222.256 866.429,229.656 875.242,237.903 884.056,246.947 892.869,256.725 901.682,267.173 910.495,278.228 919.308,289.828 928.121,301.909 936.935,314.408 945.748,327.262 954.561,340.407 963.374,353.781 972.187,367.321 981,380.963 989.814,394.644 998.627,408.302 1007.44,421.872 1016.25,435.294 1025.07,448.546 1033.88,461.64 1042.69,474.59 1051.51,487.411 1060.32,500.115 1069.13,512.717 1077.95,525.23 1086.76,537.669 1095.57,550.048 1104.38,562.38 1113.2,574.679 1122.01,586.96 1130.82,599.235 1139.64,611.513 1148.45,623.786 1157.26,636.047 1166.08,648.287 1174.89,660.499 1183.7,672.676 1192.52,684.808 1201.33,696.889 1210.14,708.909 1218.96,720.862 1227.77,732.74 1236.58,744.534 1245.4,756.237 1254.21,767.836 1263.02,779.313 1271.84,790.648 1280.65,801.822 1289.46,812.814 1298.27,823.605 1307.09,834.176 1315.9,844.507 1324.71,854.578 1333.53,864.37 1342.34,873.863 1351.15,883.037 1359.97,891.873 1368.78,900.353 1377.59,908.482 1386.41,916.273 1395.22,923.741 1404.03,930.902 1412.85,937.77 1421.66,944.36 1430.47,950.686 1439.29,956.764 1448.1,962.608 1456.91,968.234 1465.72,973.655 1474.54,978.886 1483.35,983.943 1492.16,988.84 1500.98,993.592 1509.79,998.214 1518.6,1002.72 1527.42,1007.13 1536.23,1011.45 1545.04,1015.7 1553.86,1019.87 1562.67,1023.91 1571.48,1027.77 1580.3,1031.36 1589.11,1034.63 1597.92,1037.51 1606.74,1039.95 1615.55,1041.87 1624.36,1043.2 1633.17,1043.9 1641.99,1043.91 1650.8,1043.24 1659.61,1041.87 1668.43,1039.79 1677.24,1037.02 1686.05,1033.53 1694.87,1029.32 1703.68,1024.39 1712.49,1018.74 1721.31,1012.36 1730.12,1005.24 1738.93,997.373 1747.75,988.763 1756.56,979.4 1765.37,969.293 1774.19,958.487 1783,947.039 1791.81,935 1800.63,922.427 1809.44,909.373 1818.25,895.893 1827.06,882.04 1835.88,867.869 1844.69,853.434 1853.5,838.79 1862.32,823.991 1871.13,809.091 1879.94,794.144 1888.76,779.204 1897.57,764.327 1906.38,749.564 1915.2,734.939 1924.01,720.441 1932.82,706.058 1941.64,691.78 1950.45,677.595 1959.26,663.49 1968.08,649.455 1976.89,635.478 1985.7,621.548 1994.51,607.652 2003.33,593.779 2012.14,579.918 "/>
<polyline clip-path="url(#clip981)" style="stroke:#ff0000; stroke-linecap:round; stroke-linejoin:round; stroke-width:8; stroke-opacity:1; fill:none" stroke-dasharray="32, 20" points="258.321,601.006 260.331,598.059 260.665,597.569 261.901,595.756 264.85,591.432 270.81,582.699 271.78,581.279 288.791,556.419 290.796,553.498 295.659,546.423 309.1,526.964 310.117,525.498 315.141,518.271 323.79,505.894 326.44,502.119 333.574,492.004 343.005,478.74 345.726,474.94 351.424,467.018 365.19,448.116 376.962,432.246 382.392,425.024 385.088,421.463 399.19,403.115 403.016,398.223 408.604,391.144 410.309,389.001 415.937,381.983 416.294,381.541 452.124,339.096 455.597,335.199 458.08,332.438 462.403,327.681 464.714,325.166 474.947,314.253 484.755,304.154 485.137,303.768 492.601,296.337 494.955,294.038 495.948,293.075 496.798,292.253 496.849,292.205 497.823,291.267 498.165,290.938 502.073,287.22 505.187,284.3 513.849,276.386 519.212,271.642 520.313,270.683 521.205,269.909 535.818,257.726 535.862,257.69 537.829,256.122 538.616,255.498 557.439,241.424 558.907,240.394 559.378,240.065 560.026,239.615 573.974,230.399 584.356,224.135 585.497,223.478 587.706,222.224 588.608,221.719 589.603,221.166 591.433,220.162 600.59,215.382 604.671,213.385 605.403,213.035 618.851,207.087 623.444,205.263 625.048,204.652 630.015,202.839 638.805,199.94 639.126,199.842 640.165,199.527 668.974,193.011 669.29,192.963 681.333,191.536 690.363,190.963 702.305,190.86 707.534,191.05 714.279,191.506 715.035,191.572 717.496,191.808 732.684,193.959 735.448,194.48 761.594,201.357 764.429,202.313 774.769,206.147 793.207,214.316 795.179,215.289 798.411,216.926 805.444,220.665 810.081,223.262 812.857,224.866 815.875,226.652 816.012,226.735 819.921,229.115 828.392,234.522 835.764,239.501 843.108,244.71 844.21,245.513 844.835,245.971 846.251,247.014 850.102,249.899 850.62,250.292 855.499,254.053 868.284,264.405 875.957,270.957 879.906,274.426 883.982,278.074 885.841,279.761 889.901,283.494 905.521,298.473 918.879,312.031 926.042,319.575 938.179,332.775 941.091,336.018 942.564,337.669 944.779,340.166 952.238,348.695 953.175,349.778 959.358,357.002 968.683,368.121 980.745,382.885 982.922,385.594 986.756,390.395 999.657,406.838 1010.42,420.878 1017.92,430.808 1024.99,440.3 1036.53,455.988 1037.36,457.127 1044.7,467.259 1052.35,477.897 1053.36,479.315 1054.85,481.399 1055.85,482.811 1063.67,493.823 1071.68,505.201 1074.81,509.665 1077.66,513.747 1094.04,537.35 1101.22,547.773 1101.79,548.595 1103.39,550.929 1106.34,555.213 1110.92,561.903 1117.38,571.334 1120.44,575.804 1136.77,599.746 1138.1,601.688 1163.07,638.258 1163.42,638.761 1163.43,638.775 1164.57,640.446 1168.18,645.705 1171.67,650.795 1192.17,680.487 1194.16,683.348 1200.08,691.835 1201.01,693.155 1201.06,693.228 1203.85,697.215 1208.11,703.283 1212.02,708.819 1213.8,711.346 1221.54,722.236 1225.4,727.638 1226.94,729.783 1234.14,739.774 1244.26,753.651 1246.2,756.298 1250.09,761.565 1255.1,768.295 1263.45,779.415 1267.4,784.614 1269.44,787.293 1278.56,799.128 1281.7,803.151 1295.92,821.045 1300.54,826.745 1317.19,846.765 1319.31,849.249 1320.2,850.289 1329.82,861.365 1334.82,867.005 1335.44,867.703 1347.25,880.649 1347.45,880.864 1347.81,881.257 1355.65,889.569 1360.29,894.375 1369.55,903.742 1384.46,918.124 1387.57,921.012 1394.41,927.225 1401.88,933.788 1414.41,944.261 1432.78,958.373 1447.18,968.368 1450.12,970.289 1452.43,971.775 1455.2,973.517 1464.01,978.821 1478.16,986.554 1499.03,996.169 1516.26,1002.46 1523.76,1004.72 1524.19,1004.84 1524.23,1004.85 1524.72,1004.99 1533.24,1007.17 1542.45,1009.11 1545.24,1009.61 1545.93,1009.72 1548.64,1010.16 1549.14,1010.24 1550.13,1010.38 1554.52,1010.98 1556.3,1011.19 1560.27,1011.6 1564.52,1011.95 1566.14,1012.06 1567.53,1012.14 1573.49,1012.38 1576.01,1012.42 1580.81,1012.42 1590.55,1012.03 1594.93,1011.7 1603.67,1010.73 1611.64,1009.5 1623.59,1007.04 1623.59,1007.04 1628.85,1005.72 1629.83,1005.46 1638.18,1003.04 1639.2,1002.71 1640.36,1002.34 1654.16,997.4 1656.28,996.554 1663.97,993.305 1673.88,988.675 1685.61,982.575 1696.48,976.324 1702.26,972.769 1703.83,971.779 1709.59,968.034 1715.72,963.886 1717.09,962.927 1719.74,961.062 1724.09,957.934 1729.53,953.899 1730.93,952.836 1734.37,950.194 1753.62,934.447 1755.01,933.243 1757.56,931.022 1776.4,913.789 1784.49,905.943 1788.06,902.4 1789.25,901.21 1815.98,873.07 1816.16,872.869 1818.86,869.886 1820.62,867.923 1829.36,858.039 1848.58,835.44 1849.28,834.597 1852.28,830.955 1853.8,829.103 1868.24,811.174 1873.7,804.257 1873.96,803.914 1875.98,801.331 1886.27,788.022 1887.32,786.643 1900.33,769.42 1903.21,765.552 1903.48,765.195 1907.44,759.846 1907.99,759.106 1912.62,752.818 1913.59,751.496 1916.91,746.941 1920.9,741.459 1922.69,738.984 1924.33,736.721 1943.53,709.834 1950.38,700.114 1952.32,697.349 1952.39,697.254 1961.41,684.34 1967.1,676.149 1971.63,669.608 1979.88,657.65 1987.68,646.294 1987.96,645.889 1998.66,630.272 2012.14,610.52 "/>
<path clip-path="url(#clip980)" d="M1572.67 311.335 L2002.79 311.335 L2002.79 155.815 L1572.67 155.815  Z" fill="#ffffff" fill-rule="evenodd" fill-opacity="1"/>
<polyline clip-path="url(#clip980)" style="stroke:#000000; stroke-linecap:round; stroke-linejoin:round; stroke-width:4; stroke-opacity:1; fill:none" points="1572.67,311.335 2002.79,311.335 2002.79,155.815 1572.67,155.815 1572.67,311.335 "/>
<polyline clip-path="url(#clip980)" style="stroke:#009af9; stroke-linecap:round; stroke-linejoin:round; stroke-width:8; stroke-opacity:1; fill:none" points="1593.33,207.655 1717.26,207.655 "/>
<path clip-path="url(#clip980)" d="M1756.35 199.773 L1756.35 203.8 Q1754.54 202.875 1752.6 202.412 Q1750.65 201.949 1748.57 201.949 Q1745.4 201.949 1743.8 202.921 Q1742.23 203.893 1742.23 205.838 Q1742.23 207.319 1743.36 208.175 Q1744.49 209.009 1747.92 209.773 L1749.38 210.097 Q1753.92 211.069 1755.81 212.851 Q1757.73 214.611 1757.73 217.782 Q1757.73 221.393 1754.86 223.499 Q1752.02 225.606 1747.02 225.606 Q1744.93 225.606 1742.67 225.189 Q1740.42 224.796 1737.92 223.986 L1737.92 219.587 Q1740.28 220.814 1742.57 221.439 Q1744.86 222.041 1747.11 222.041 Q1750.12 222.041 1751.74 221.023 Q1753.36 219.981 1753.36 218.106 Q1753.36 216.37 1752.18 215.444 Q1751.02 214.518 1747.06 213.662 L1745.58 213.314 Q1741.62 212.481 1739.86 210.768 Q1738.1 209.032 1738.1 206.023 Q1738.1 202.365 1740.7 200.375 Q1743.29 198.384 1748.06 198.384 Q1750.42 198.384 1752.5 198.731 Q1754.59 199.078 1756.35 199.773 Z" fill="#000000" fill-rule="nonzero" fill-opacity="1" /><path clip-path="url(#clip980)" d="M1774.75 188.963 Q1771.65 194.287 1770.14 199.495 Q1768.64 204.703 1768.64 210.05 Q1768.64 215.398 1770.14 220.652 Q1771.67 225.884 1774.75 231.185 L1771.04 231.185 Q1767.57 225.745 1765.84 220.49 Q1764.12 215.236 1764.12 210.05 Q1764.12 204.888 1765.84 199.657 Q1767.55 194.426 1771.04 188.963 L1774.75 188.963 Z" fill="#000000" fill-rule="nonzero" fill-opacity="1" /><path clip-path="url(#clip980)" d="M1804.56 199.009 L1795.19 211.625 L1805.05 224.935 L1800.03 224.935 L1792.48 214.749 L1784.93 224.935 L1779.91 224.935 L1789.98 211.37 L1780.77 199.009 L1785.79 199.009 L1792.66 208.245 L1799.54 199.009 L1804.56 199.009 Z" fill="#000000" fill-rule="nonzero" fill-opacity="1" /><path clip-path="url(#clip980)" d="M1810.4 188.963 L1814.1 188.963 Q1817.57 194.426 1819.29 199.657 Q1821.02 204.888 1821.02 210.05 Q1821.02 215.236 1819.29 220.49 Q1817.57 225.745 1814.1 231.185 L1810.4 231.185 Q1813.47 225.884 1814.98 220.652 Q1816.51 215.398 1816.51 210.05 Q1816.51 204.703 1814.98 199.495 Q1813.47 194.287 1810.4 188.963 Z" fill="#000000" fill-rule="nonzero" fill-opacity="1" /><path clip-path="url(#clip980)" d="M1861.97 195.213 L1861.97 204.171 L1874.86 204.171 L1874.86 208.106 L1861.97 208.106 L1861.97 217.064 L1858.08 217.064 L1858.08 208.106 L1845.19 208.106 L1845.19 204.171 L1858.08 204.171 L1858.08 195.213 L1861.97 195.213 M1845.19 220.999 L1874.86 220.999 L1874.86 224.935 L1845.19 224.935 L1845.19 220.999 Z" fill="#000000" fill-rule="nonzero" fill-opacity="1" /><path clip-path="url(#clip980)" d="M1904.05 220.999 L1920.37 220.999 L1920.37 224.935 L1898.43 224.935 L1898.43 220.999 Q1901.09 218.245 1905.67 213.615 Q1910.28 208.962 1911.46 207.62 Q1913.71 205.097 1914.59 203.361 Q1915.49 201.601 1915.49 199.912 Q1915.49 197.157 1913.54 195.421 Q1911.62 193.685 1908.52 193.685 Q1906.32 193.685 1903.87 194.449 Q1901.44 195.213 1898.66 196.763 L1898.66 192.041 Q1901.48 190.907 1903.94 190.328 Q1906.39 189.75 1908.43 189.75 Q1913.8 189.75 1916.99 192.435 Q1920.19 195.12 1920.19 199.611 Q1920.19 201.74 1919.38 203.662 Q1918.59 205.56 1916.48 208.152 Q1915.9 208.824 1912.8 212.041 Q1909.7 215.236 1904.05 220.999 Z" fill="#000000" fill-rule="nonzero" fill-opacity="1" /><path clip-path="url(#clip980)" d="M1950.49 191.509 L1950.49 196.069 Q1947.83 194.796 1945.46 194.171 Q1943.1 193.546 1940.9 193.546 Q1937.09 193.546 1935 195.027 Q1932.94 196.509 1932.94 199.24 Q1932.94 201.532 1934.31 202.713 Q1935.7 203.87 1939.54 204.588 L1942.36 205.166 Q1947.59 206.162 1950.07 208.685 Q1952.57 211.185 1952.57 215.398 Q1952.57 220.421 1949.19 223.013 Q1945.84 225.606 1939.33 225.606 Q1936.88 225.606 1934.1 225.05 Q1931.34 224.495 1928.38 223.407 L1928.38 218.592 Q1931.23 220.189 1933.96 220.999 Q1936.69 221.81 1939.33 221.81 Q1943.34 221.81 1945.51 220.236 Q1947.69 218.662 1947.69 215.745 Q1947.69 213.199 1946.11 211.763 Q1944.56 210.328 1941 209.611 L1938.15 209.055 Q1932.92 208.013 1930.58 205.791 Q1928.24 203.569 1928.24 199.611 Q1928.24 195.027 1931.46 192.389 Q1934.7 189.75 1940.37 189.75 Q1942.8 189.75 1945.33 190.189 Q1947.85 190.629 1950.49 191.509 Z" fill="#000000" fill-rule="nonzero" fill-opacity="1" /><path clip-path="url(#clip980)" d="M1959.86 190.375 L1981.71 190.375 L1981.71 194.31 L1964.54 194.31 L1964.54 204.541 L1981 204.541 L1981 208.476 L1964.54 208.476 L1964.54 220.999 L1982.13 220.999 L1982.13 224.935 L1959.86 224.935 L1959.86 190.375 Z" fill="#000000" fill-rule="nonzero" fill-opacity="1" /><polyline clip-path="url(#clip980)" style="stroke:#ff0000; stroke-linecap:round; stroke-linejoin:round; stroke-width:8; stroke-opacity:1; fill:none" stroke-dasharray="32, 20" points="1593.33,259.495 1717.26,259.495 "/>
<path clip-path="url(#clip980)" d="M1745.33 243.488 L1745.33 250.849 L1754.1 250.849 L1754.1 254.159 L1745.33 254.159 L1745.33 268.233 Q1745.33 271.404 1746.18 272.307 Q1747.06 273.21 1749.73 273.21 L1754.1 273.21 L1754.1 276.775 L1749.73 276.775 Q1744.79 276.775 1742.92 274.946 Q1741.04 273.094 1741.04 268.233 L1741.04 254.159 L1737.92 254.159 L1737.92 250.849 L1741.04 250.849 L1741.04 243.488 L1745.33 243.488 Z" fill="#000000" fill-rule="nonzero" fill-opacity="1" /><path clip-path="url(#clip980)" d="M1774.73 254.83 Q1774.01 254.414 1773.15 254.228 Q1772.32 254.02 1771.3 254.02 Q1767.69 254.02 1765.74 256.381 Q1763.82 258.719 1763.82 263.117 L1763.82 276.775 L1759.54 276.775 L1759.54 250.849 L1763.82 250.849 L1763.82 254.877 Q1765.17 252.515 1767.32 251.381 Q1769.47 250.224 1772.55 250.224 Q1772.99 250.224 1773.52 250.293 Q1774.05 250.34 1774.7 250.455 L1774.73 254.83 Z" fill="#000000" fill-rule="nonzero" fill-opacity="1" /><path clip-path="url(#clip980)" d="M1778.75 266.543 L1778.75 250.849 L1783.01 250.849 L1783.01 266.381 Q1783.01 270.062 1784.45 271.914 Q1785.88 273.742 1788.75 273.742 Q1792.2 273.742 1794.19 271.543 Q1796.21 269.344 1796.21 265.548 L1796.21 250.849 L1800.47 250.849 L1800.47 276.775 L1796.21 276.775 L1796.21 272.793 Q1794.66 275.154 1792.6 276.312 Q1790.56 277.446 1787.85 277.446 Q1783.38 277.446 1781.07 274.668 Q1778.75 271.89 1778.75 266.543 M1789.47 250.224 L1789.47 250.224 Z" fill="#000000" fill-rule="nonzero" fill-opacity="1" /><path clip-path="url(#clip980)" d="M1831.41 262.747 L1831.41 264.83 L1811.83 264.83 Q1812.11 269.228 1814.47 271.543 Q1816.85 273.835 1821.09 273.835 Q1823.54 273.835 1825.84 273.233 Q1828.15 272.631 1830.42 271.427 L1830.42 275.455 Q1828.13 276.427 1825.72 276.937 Q1823.31 277.446 1820.84 277.446 Q1814.63 277.446 1811 273.835 Q1807.39 270.224 1807.39 264.066 Q1807.39 257.701 1810.81 253.974 Q1814.26 250.224 1820.1 250.224 Q1825.33 250.224 1828.36 253.603 Q1831.41 256.96 1831.41 262.747 M1827.16 261.497 Q1827.11 258.002 1825.19 255.918 Q1823.29 253.835 1820.14 253.835 Q1816.58 253.835 1814.42 255.849 Q1812.29 257.863 1811.97 261.52 L1827.16 261.497 Z" fill="#000000" fill-rule="nonzero" fill-opacity="1" /><path clip-path="url(#clip980)" d="M1866.6 240.756 L1866.6 244.298 L1862.53 244.298 Q1860.23 244.298 1859.33 245.224 Q1858.45 246.15 1858.45 248.557 L1858.45 250.849 L1865.47 250.849 L1865.47 254.159 L1858.45 254.159 L1858.45 276.775 L1854.17 276.775 L1854.17 254.159 L1850.1 254.159 L1850.1 250.849 L1854.17 250.849 L1854.17 249.043 Q1854.17 244.715 1856.18 242.747 Q1858.2 240.756 1862.57 240.756 L1866.6 240.756 Z" fill="#000000" fill-rule="nonzero" fill-opacity="1" /><path clip-path="url(#clip980)" d="M1880.4 240.803 Q1877.29 246.127 1875.79 251.335 Q1874.28 256.543 1874.28 261.89 Q1874.28 267.238 1875.79 272.492 Q1877.32 277.724 1880.4 283.025 L1876.69 283.025 Q1873.22 277.585 1871.48 272.33 Q1869.77 267.076 1869.77 261.89 Q1869.77 256.728 1871.48 251.497 Q1873.2 246.266 1876.69 240.803 L1880.4 240.803 Z" fill="#000000" fill-rule="nonzero" fill-opacity="1" /><path clip-path="url(#clip980)" d="M1910.21 250.849 L1900.84 263.465 L1910.7 276.775 L1905.67 276.775 L1898.13 266.589 L1890.58 276.775 L1885.56 276.775 L1895.63 263.21 L1886.41 250.849 L1891.44 250.849 L1898.31 260.085 L1905.19 250.849 L1910.21 250.849 Z" fill="#000000" fill-rule="nonzero" fill-opacity="1" /><path clip-path="url(#clip980)" d="M1916.04 240.803 L1919.75 240.803 Q1923.22 246.266 1924.93 251.497 Q1926.67 256.728 1926.67 261.89 Q1926.67 267.076 1924.93 272.33 Q1923.22 277.585 1919.75 283.025 L1916.04 283.025 Q1919.12 277.724 1920.63 272.492 Q1922.15 267.238 1922.15 261.89 Q1922.15 256.543 1920.63 251.335 Q1919.12 246.127 1916.04 240.803 Z" fill="#000000" fill-rule="nonzero" fill-opacity="1" /></svg>
