<?xml version="1.0" encoding="utf-8"?>
<svg xmlns="http://www.w3.org/2000/svg" xmlns:xlink="http://www.w3.org/1999/xlink" width="528" height="336" viewBox="0 0 2112 1344">
<defs>
  <clipPath id="clip040">
    <rect x="0" y="0" width="2112" height="1344"/>
  </clipPath>
</defs>
<path clip-path="url(#clip040)" d="M0 1344 L2112 1344 L2112 2.13163e-14 L0 2.13163e-14  Z" fill="#ffffff" fill-rule="evenodd" fill-opacity="1"/>
<defs>
  <clipPath id="clip041">
    <rect x="205" y="120" width="1860" height="1054"/>
  </clipPath>
</defs>
<path clip-path="url(#clip040)" d="M205.706 1173.47 L2064.76 1173.47 L2064.76 120.723 L205.706 120.723  Z" fill="#ffffff" fill-rule="evenodd" fill-opacity="1"/>
<polyline clip-path="url(#clip041)" style="stroke:#000000; stroke-linecap:round; stroke-linejoin:round; stroke-width:2; stroke-opacity:0.1; fill:none" points="249.556,1173.47 249.556,120.723 "/>
<polyline clip-path="url(#clip041)" style="stroke:#000000; stroke-linecap:round; stroke-linejoin:round; stroke-width:2; stroke-opacity:0.1; fill:none" points="691.708,1173.47 691.708,120.723 "/>
<polyline clip-path="url(#clip041)" style="stroke:#000000; stroke-linecap:round; stroke-linejoin:round; stroke-width:2; stroke-opacity:0.1; fill:none" points="1133.86,1173.47 1133.86,120.723 "/>
<polyline clip-path="url(#clip041)" style="stroke:#000000; stroke-linecap:round; stroke-linejoin:round; stroke-width:2; stroke-opacity:0.1; fill:none" points="1576.01,1173.47 1576.01,120.723 "/>
<polyline clip-path="url(#clip041)" style="stroke:#000000; stroke-linecap:round; stroke-linejoin:round; stroke-width:2; stroke-opacity:0.1; fill:none" points="2018.16,1173.47 2018.16,120.723 "/>
<polyline clip-path="url(#clip041)" style="stroke:#000000; stroke-linecap:round; stroke-linejoin:round; stroke-width:2; stroke-opacity:0.1; fill:none" points="205.706,993.665 2064.76,993.665 "/>
<polyline clip-path="url(#clip041)" style="stroke:#000000; stroke-linecap:round; stroke-linejoin:round; stroke-width:2; stroke-opacity:0.1; fill:none" points="205.706,812.291 2064.76,812.291 "/>
<polyline clip-path="url(#clip041)" style="stroke:#000000; stroke-linecap:round; stroke-linejoin:round; stroke-width:2; stroke-opacity:0.1; fill:none" points="205.706,630.917 2064.76,630.917 "/>
<polyline clip-path="url(#clip041)" style="stroke:#000000; stroke-linecap:round; stroke-linejoin:round; stroke-width:2; stroke-opacity:0.1; fill:none" points="205.706,449.543 2064.76,449.543 "/>
<polyline clip-path="url(#clip041)" style="stroke:#000000; stroke-linecap:round; stroke-linejoin:round; stroke-width:2; stroke-opacity:0.1; fill:none" points="205.706,268.169 2064.76,268.169 "/>
<polyline clip-path="url(#clip040)" style="stroke:#000000; stroke-linecap:round; stroke-linejoin:round; stroke-width:4; stroke-opacity:1; fill:none" points="205.706,1173.47 2064.76,1173.47 "/>
<polyline clip-path="url(#clip040)" style="stroke:#000000; stroke-linecap:round; stroke-linejoin:round; stroke-width:4; stroke-opacity:1; fill:none" points="249.556,1173.47 249.556,1154.57 "/>
<polyline clip-path="url(#clip040)" style="stroke:#000000; stroke-linecap:round; stroke-linejoin:round; stroke-width:4; stroke-opacity:1; fill:none" points="691.708,1173.47 691.708,1154.57 "/>
<polyline clip-path="url(#clip040)" style="stroke:#000000; stroke-linecap:round; stroke-linejoin:round; stroke-width:4; stroke-opacity:1; fill:none" points="1133.86,1173.47 1133.86,1154.57 "/>
<polyline clip-path="url(#clip040)" style="stroke:#000000; stroke-linecap:round; stroke-linejoin:round; stroke-width:4; stroke-opacity:1; fill:none" points="1576.01,1173.47 1576.01,1154.57 "/>
<polyline clip-path="url(#clip040)" style="stroke:#000000; stroke-linecap:round; stroke-linejoin:round; stroke-width:4; stroke-opacity:1; fill:none" points="2018.16,1173.47 2018.16,1154.57 "/>
<path clip-path="url(#clip040)" d="M211.86 1202.09 Q208.249 1202.09 206.42 1205.65 Q204.614 1209.19 204.614 1216.32 Q204.614 1223.43 206.42 1226.99 Q208.249 1230.53 211.86 1230.53 Q215.494 1230.53 217.3 1226.99 Q219.128 1223.43 219.128 1216.32 Q219.128 1209.19 217.3 1205.65 Q215.494 1202.09 211.86 1202.09 M211.86 1198.38 Q217.67 1198.38 220.725 1202.99 Q223.804 1207.57 223.804 1216.32 Q223.804 1225.05 220.725 1229.65 Q217.67 1234.24 211.86 1234.24 Q206.05 1234.24 202.971 1229.65 Q199.915 1225.05 199.915 1216.32 Q199.915 1207.57 202.971 1202.99 Q206.05 1198.38 211.86 1198.38 Z" fill="#000000" fill-rule="nonzero" fill-opacity="1" /><path clip-path="url(#clip040)" d="M232.022 1227.69 L236.906 1227.69 L236.906 1233.57 L232.022 1233.57 L232.022 1227.69 Z" fill="#000000" fill-rule="nonzero" fill-opacity="1" /><path clip-path="url(#clip040)" d="M257.091 1202.09 Q253.48 1202.09 251.651 1205.65 Q249.846 1209.19 249.846 1216.32 Q249.846 1223.43 251.651 1226.99 Q253.48 1230.53 257.091 1230.53 Q260.725 1230.53 262.531 1226.99 Q264.359 1223.43 264.359 1216.32 Q264.359 1209.19 262.531 1205.65 Q260.725 1202.09 257.091 1202.09 M257.091 1198.38 Q262.901 1198.38 265.957 1202.99 Q269.035 1207.57 269.035 1216.32 Q269.035 1225.05 265.957 1229.65 Q262.901 1234.24 257.091 1234.24 Q251.281 1234.24 248.202 1229.65 Q245.147 1225.05 245.147 1216.32 Q245.147 1207.57 248.202 1202.99 Q251.281 1198.38 257.091 1198.38 Z" fill="#000000" fill-rule="nonzero" fill-opacity="1" /><path clip-path="url(#clip040)" d="M287.253 1202.09 Q283.642 1202.09 281.813 1205.65 Q280.008 1209.19 280.008 1216.32 Q280.008 1223.43 281.813 1226.99 Q283.642 1230.53 287.253 1230.53 Q290.887 1230.53 292.693 1226.99 Q294.521 1223.43 294.521 1216.32 Q294.521 1209.19 292.693 1205.65 Q290.887 1202.09 287.253 1202.09 M287.253 1198.38 Q293.063 1198.38 296.119 1202.99 Q299.197 1207.57 299.197 1216.32 Q299.197 1225.05 296.119 1229.65 Q293.063 1234.24 287.253 1234.24 Q281.443 1234.24 278.364 1229.65 Q275.308 1225.05 275.308 1216.32 Q275.308 1207.57 278.364 1202.99 Q281.443 1198.38 287.253 1198.38 Z" fill="#000000" fill-rule="nonzero" fill-opacity="1" /><path clip-path="url(#clip040)" d="M654.51 1202.09 Q650.898 1202.09 649.07 1205.65 Q647.264 1209.19 647.264 1216.32 Q647.264 1223.43 649.07 1226.99 Q650.898 1230.53 654.51 1230.53 Q658.144 1230.53 659.949 1226.99 Q661.778 1223.43 661.778 1216.32 Q661.778 1209.19 659.949 1205.65 Q658.144 1202.09 654.51 1202.09 M654.51 1198.38 Q660.32 1198.38 663.375 1202.99 Q666.454 1207.57 666.454 1216.32 Q666.454 1225.05 663.375 1229.65 Q660.32 1234.24 654.51 1234.24 Q648.699 1234.24 645.621 1229.65 Q642.565 1225.05 642.565 1216.32 Q642.565 1207.57 645.621 1202.99 Q648.699 1198.38 654.51 1198.38 Z" fill="#000000" fill-rule="nonzero" fill-opacity="1" /><path clip-path="url(#clip040)" d="M674.671 1227.69 L679.556 1227.69 L679.556 1233.57 L674.671 1233.57 L674.671 1227.69 Z" fill="#000000" fill-rule="nonzero" fill-opacity="1" /><path clip-path="url(#clip040)" d="M693.769 1229.63 L710.088 1229.63 L710.088 1233.57 L688.144 1233.57 L688.144 1229.63 Q690.806 1226.88 695.389 1222.25 Q699.995 1217.59 701.176 1216.25 Q703.421 1213.73 704.301 1211.99 Q705.204 1210.23 705.204 1208.54 Q705.204 1205.79 703.259 1204.05 Q701.338 1202.32 698.236 1202.32 Q696.037 1202.32 693.583 1203.08 Q691.153 1203.84 688.375 1205.4 L688.375 1200.67 Q691.199 1199.54 693.653 1198.96 Q696.107 1198.38 698.144 1198.38 Q703.514 1198.38 706.708 1201.07 Q709.903 1203.75 709.903 1208.24 Q709.903 1210.37 709.093 1212.29 Q708.306 1214.19 706.199 1216.78 Q705.62 1217.46 702.519 1220.67 Q699.417 1223.87 693.769 1229.63 Z" fill="#000000" fill-rule="nonzero" fill-opacity="1" /><path clip-path="url(#clip040)" d="M719.949 1199.01 L738.305 1199.01 L738.305 1202.94 L724.231 1202.94 L724.231 1211.41 Q725.25 1211.07 726.268 1210.9 Q727.287 1210.72 728.305 1210.72 Q734.092 1210.72 737.472 1213.89 Q740.852 1217.06 740.852 1222.48 Q740.852 1228.06 737.379 1231.16 Q733.907 1234.24 727.588 1234.24 Q725.412 1234.24 723.143 1233.87 Q720.898 1233.5 718.491 1232.76 L718.491 1228.06 Q720.574 1229.19 722.796 1229.75 Q725.018 1230.3 727.495 1230.3 Q731.5 1230.3 733.838 1228.2 Q736.176 1226.09 736.176 1222.48 Q736.176 1218.87 733.838 1216.76 Q731.5 1214.65 727.495 1214.65 Q725.62 1214.65 723.745 1215.07 Q721.893 1215.49 719.949 1216.37 L719.949 1199.01 Z" fill="#000000" fill-rule="nonzero" fill-opacity="1" /><path clip-path="url(#clip040)" d="M1096.16 1202.09 Q1092.55 1202.09 1090.72 1205.65 Q1088.92 1209.19 1088.92 1216.32 Q1088.92 1223.43 1090.72 1226.99 Q1092.55 1230.53 1096.16 1230.53 Q1099.8 1230.53 1101.6 1226.99 Q1103.43 1223.43 1103.43 1216.32 Q1103.43 1209.19 1101.6 1205.65 Q1099.8 1202.09 1096.16 1202.09 M1096.16 1198.38 Q1101.97 1198.38 1105.03 1202.99 Q1108.11 1207.57 1108.11 1216.32 Q1108.11 1225.05 1105.03 1229.65 Q1101.97 1234.24 1096.16 1234.24 Q1090.35 1234.24 1087.28 1229.65 Q1084.22 1225.05 1084.22 1216.32 Q1084.22 1207.57 1087.28 1202.99 Q1090.35 1198.38 1096.16 1198.38 Z" fill="#000000" fill-rule="nonzero" fill-opacity="1" /><path clip-path="url(#clip040)" d="M1116.33 1227.69 L1121.21 1227.69 L1121.21 1233.57 L1116.33 1233.57 L1116.33 1227.69 Z" fill="#000000" fill-rule="nonzero" fill-opacity="1" /><path clip-path="url(#clip040)" d="M1131.44 1199.01 L1149.8 1199.01 L1149.8 1202.94 L1135.72 1202.94 L1135.72 1211.41 Q1136.74 1211.07 1137.76 1210.9 Q1138.78 1210.72 1139.8 1210.72 Q1145.58 1210.72 1148.96 1213.89 Q1152.34 1217.06 1152.34 1222.48 Q1152.34 1228.06 1148.87 1231.16 Q1145.4 1234.24 1139.08 1234.24 Q1136.9 1234.24 1134.64 1233.87 Q1132.39 1233.5 1129.98 1232.76 L1129.98 1228.06 Q1132.07 1229.19 1134.29 1229.75 Q1136.51 1230.3 1138.99 1230.3 Q1142.99 1230.3 1145.33 1228.2 Q1147.67 1226.09 1147.67 1222.48 Q1147.67 1218.87 1145.33 1216.76 Q1142.99 1214.65 1138.99 1214.65 Q1137.11 1214.65 1135.24 1215.07 Q1133.39 1215.49 1131.44 1216.37 L1131.44 1199.01 Z" fill="#000000" fill-rule="nonzero" fill-opacity="1" /><path clip-path="url(#clip040)" d="M1171.56 1202.09 Q1167.95 1202.09 1166.12 1205.65 Q1164.31 1209.19 1164.31 1216.32 Q1164.31 1223.43 1166.12 1226.99 Q1167.95 1230.53 1171.56 1230.53 Q1175.19 1230.53 1177 1226.99 Q1178.83 1223.43 1178.83 1216.32 Q1178.83 1209.19 1177 1205.65 Q1175.19 1202.09 1171.56 1202.09 M1171.56 1198.38 Q1177.37 1198.38 1180.42 1202.99 Q1183.5 1207.57 1183.5 1216.32 Q1183.5 1225.05 1180.42 1229.65 Q1177.37 1234.24 1171.56 1234.24 Q1165.75 1234.24 1162.67 1229.65 Q1159.61 1225.05 1159.61 1216.32 Q1159.61 1207.57 1162.67 1202.99 Q1165.75 1198.38 1171.56 1198.38 Z" fill="#000000" fill-rule="nonzero" fill-opacity="1" /><path clip-path="url(#clip040)" d="M1538.81 1202.09 Q1535.2 1202.09 1533.37 1205.65 Q1531.57 1209.19 1531.57 1216.32 Q1531.57 1223.43 1533.37 1226.99 Q1535.2 1230.53 1538.81 1230.53 Q1542.45 1230.53 1544.25 1226.99 Q1546.08 1223.43 1546.08 1216.32 Q1546.08 1209.19 1544.25 1205.65 Q1542.45 1202.09 1538.81 1202.09 M1538.81 1198.38 Q1544.62 1198.38 1547.68 1202.99 Q1550.76 1207.57 1550.76 1216.32 Q1550.76 1225.05 1547.68 1229.65 Q1544.62 1234.24 1538.81 1234.24 Q1533 1234.24 1529.92 1229.65 Q1526.87 1225.05 1526.87 1216.32 Q1526.87 1207.57 1529.92 1202.99 Q1533 1198.38 1538.81 1198.38 Z" fill="#000000" fill-rule="nonzero" fill-opacity="1" /><path clip-path="url(#clip040)" d="M1558.98 1227.69 L1563.86 1227.69 L1563.86 1233.57 L1558.98 1233.57 L1558.98 1227.69 Z" fill="#000000" fill-rule="nonzero" fill-opacity="1" /><path clip-path="url(#clip040)" d="M1572.86 1199.01 L1595.09 1199.01 L1595.09 1201 L1582.54 1233.57 L1577.66 1233.57 L1589.46 1202.94 L1572.86 1202.94 L1572.86 1199.01 Z" fill="#000000" fill-rule="nonzero" fill-opacity="1" /><path clip-path="url(#clip040)" d="M1604.25 1199.01 L1622.61 1199.01 L1622.61 1202.94 L1608.54 1202.94 L1608.54 1211.41 Q1609.55 1211.07 1610.57 1210.9 Q1611.59 1210.72 1612.61 1210.72 Q1618.4 1210.72 1621.78 1213.89 Q1625.16 1217.06 1625.16 1222.48 Q1625.16 1228.06 1621.68 1231.16 Q1618.21 1234.24 1611.89 1234.24 Q1609.72 1234.24 1607.45 1233.87 Q1605.2 1233.5 1602.79 1232.76 L1602.79 1228.06 Q1604.88 1229.19 1607.1 1229.75 Q1609.32 1230.3 1611.8 1230.3 Q1615.8 1230.3 1618.14 1228.2 Q1620.48 1226.09 1620.48 1222.48 Q1620.48 1218.87 1618.14 1216.76 Q1615.8 1214.65 1611.8 1214.65 Q1609.92 1214.65 1608.05 1215.07 Q1606.2 1215.49 1604.25 1216.37 L1604.25 1199.01 Z" fill="#000000" fill-rule="nonzero" fill-opacity="1" /><path clip-path="url(#clip040)" d="M1970.24 1229.63 L1977.88 1229.63 L1977.88 1203.27 L1969.57 1204.93 L1969.57 1200.67 L1977.83 1199.01 L1982.51 1199.01 L1982.51 1229.63 L1990.14 1229.63 L1990.14 1233.57 L1970.24 1233.57 L1970.24 1229.63 Z" fill="#000000" fill-rule="nonzero" fill-opacity="1" /><path clip-path="url(#clip040)" d="M1999.59 1227.69 L2004.47 1227.69 L2004.47 1233.57 L1999.59 1233.57 L1999.59 1227.69 Z" fill="#000000" fill-rule="nonzero" fill-opacity="1" /><path clip-path="url(#clip040)" d="M2024.66 1202.09 Q2021.05 1202.09 2019.22 1205.65 Q2017.41 1209.19 2017.41 1216.32 Q2017.41 1223.43 2019.22 1226.99 Q2021.05 1230.53 2024.66 1230.53 Q2028.29 1230.53 2030.1 1226.99 Q2031.93 1223.43 2031.93 1216.32 Q2031.93 1209.19 2030.1 1205.65 Q2028.29 1202.09 2024.66 1202.09 M2024.66 1198.38 Q2030.47 1198.38 2033.52 1202.99 Q2036.6 1207.57 2036.6 1216.32 Q2036.6 1225.05 2033.52 1229.65 Q2030.47 1234.24 2024.66 1234.24 Q2018.85 1234.24 2015.77 1229.65 Q2012.71 1225.05 2012.71 1216.32 Q2012.71 1207.57 2015.77 1202.99 Q2018.85 1198.38 2024.66 1198.38 Z" fill="#000000" fill-rule="nonzero" fill-opacity="1" /><path clip-path="url(#clip040)" d="M2054.82 1202.09 Q2051.21 1202.09 2049.38 1205.65 Q2047.57 1209.19 2047.57 1216.32 Q2047.57 1223.43 2049.38 1226.99 Q2051.21 1230.53 2054.82 1230.53 Q2058.45 1230.53 2060.26 1226.99 Q2062.09 1223.43 2062.09 1216.32 Q2062.09 1209.19 2060.26 1205.65 Q2058.45 1202.09 2054.82 1202.09 M2054.82 1198.38 Q2060.63 1198.38 2063.69 1202.99 Q2066.76 1207.57 2066.76 1216.32 Q2066.76 1225.05 2063.69 1229.65 Q2060.63 1234.24 2054.82 1234.24 Q2049.01 1234.24 2045.93 1229.65 Q2042.88 1225.05 2042.88 1216.32 Q2042.88 1207.57 2045.93 1202.99 Q2049.01 1198.38 2054.82 1198.38 Z" fill="#000000" fill-rule="nonzero" fill-opacity="1" /><path clip-path="url(#clip040)" d="M1151.85 1278.37 L1138.95 1295.71 L1152.51 1314.01 L1145.61 1314.01 L1135.23 1300.01 L1124.85 1314.01 L1117.95 1314.01 L1131.79 1295.36 L1119.13 1278.37 L1126.03 1278.37 L1135.49 1291.07 L1144.94 1278.37 L1151.85 1278.37 Z" fill="#000000" fill-rule="nonzero" fill-opacity="1" /><polyline clip-path="url(#clip040)" style="stroke:#000000; stroke-linecap:round; stroke-linejoin:round; stroke-width:4; stroke-opacity:1; fill:none" points="205.706,1173.47 205.706,120.723 "/>
<polyline clip-path="url(#clip040)" style="stroke:#000000; stroke-linecap:round; stroke-linejoin:round; stroke-width:4; stroke-opacity:1; fill:none" points="205.706,993.665 224.604,993.665 "/>
<polyline clip-path="url(#clip040)" style="stroke:#000000; stroke-linecap:round; stroke-linejoin:round; stroke-width:4; stroke-opacity:1; fill:none" points="205.706,812.291 224.604,812.291 "/>
<polyline clip-path="url(#clip040)" style="stroke:#000000; stroke-linecap:round; stroke-linejoin:round; stroke-width:4; stroke-opacity:1; fill:none" points="205.706,630.917 224.604,630.917 "/>
<polyline clip-path="url(#clip040)" style="stroke:#000000; stroke-linecap:round; stroke-linejoin:round; stroke-width:4; stroke-opacity:1; fill:none" points="205.706,449.543 224.604,449.543 "/>
<polyline clip-path="url(#clip040)" style="stroke:#000000; stroke-linecap:round; stroke-linejoin:round; stroke-width:4; stroke-opacity:1; fill:none" points="205.706,268.169 224.604,268.169 "/>
<path clip-path="url(#clip040)" d="M113.911 994.116 L143.586 994.116 L143.586 998.051 L113.911 998.051 L113.911 994.116 Z" fill="#000000" fill-rule="nonzero" fill-opacity="1" /><path clip-path="url(#clip040)" d="M157.707 1007.01 L174.026 1007.01 L174.026 1010.94 L152.082 1010.94 L152.082 1007.01 Q154.744 1004.26 159.327 999.626 Q163.933 994.973 165.114 993.63 Q167.359 991.107 168.239 989.371 Q169.142 987.612 169.142 985.922 Q169.142 983.167 167.197 981.431 Q165.276 979.695 162.174 979.695 Q159.975 979.695 157.521 980.459 Q155.091 981.223 152.313 982.774 L152.313 978.052 Q155.137 976.917 157.591 976.339 Q160.045 975.76 162.082 975.76 Q167.452 975.76 170.646 978.445 Q173.841 981.13 173.841 985.621 Q173.841 987.751 173.031 989.672 Q172.244 991.57 170.137 994.163 Q169.558 994.834 166.457 998.051 Q163.355 1001.25 157.707 1007.01 Z" fill="#000000" fill-rule="nonzero" fill-opacity="1" /><path clip-path="url(#clip040)" d="M113.54 812.742 L143.216 812.742 L143.216 816.677 L113.54 816.677 L113.54 812.742 Z" fill="#000000" fill-rule="nonzero" fill-opacity="1" /><path clip-path="url(#clip040)" d="M154.119 825.636 L161.757 825.636 L161.757 799.27 L153.447 800.937 L153.447 796.678 L161.711 795.011 L166.387 795.011 L166.387 825.636 L174.026 825.636 L174.026 829.571 L154.119 829.571 L154.119 825.636 Z" fill="#000000" fill-rule="nonzero" fill-opacity="1" /><path clip-path="url(#clip040)" d="M162.082 616.716 Q158.47 616.716 156.642 620.28 Q154.836 623.822 154.836 630.952 Q154.836 638.058 156.642 641.623 Q158.47 645.165 162.082 645.165 Q165.716 645.165 167.521 641.623 Q169.35 638.058 169.35 630.952 Q169.35 623.822 167.521 620.28 Q165.716 616.716 162.082 616.716 M162.082 613.012 Q167.892 613.012 170.947 617.618 Q174.026 622.202 174.026 630.952 Q174.026 639.678 170.947 644.285 Q167.892 648.868 162.082 648.868 Q156.271 648.868 153.193 644.285 Q150.137 639.678 150.137 630.952 Q150.137 622.202 153.193 617.618 Q156.271 613.012 162.082 613.012 Z" fill="#000000" fill-rule="nonzero" fill-opacity="1" /><path clip-path="url(#clip040)" d="M154.119 462.888 L161.757 462.888 L161.757 436.522 L153.447 438.189 L153.447 433.93 L161.711 432.263 L166.387 432.263 L166.387 462.888 L174.026 462.888 L174.026 466.823 L154.119 466.823 L154.119 462.888 Z" fill="#000000" fill-rule="nonzero" fill-opacity="1" /><path clip-path="url(#clip040)" d="M157.707 281.514 L174.026 281.514 L174.026 285.449 L152.082 285.449 L152.082 281.514 Q154.744 278.759 159.327 274.13 Q163.933 269.477 165.114 268.134 Q167.359 265.611 168.239 263.875 Q169.142 262.116 169.142 260.426 Q169.142 257.671 167.197 255.935 Q165.276 254.199 162.174 254.199 Q159.975 254.199 157.521 254.963 Q155.091 255.727 152.313 257.278 L152.313 252.556 Q155.137 251.421 157.591 250.843 Q160.045 250.264 162.082 250.264 Q167.452 250.264 170.646 252.949 Q173.841 255.634 173.841 260.125 Q173.841 262.255 173.031 264.176 Q172.244 266.074 170.137 268.667 Q169.558 269.338 166.457 272.555 Q163.355 275.75 157.707 281.514 Z" fill="#000000" fill-rule="nonzero" fill-opacity="1" /><path clip-path="url(#clip040)" d="M18.079 878.697 L22.9487 878.697 L22.9487 884.299 Q22.9487 887.45 24.2219 888.691 Q25.495 889.901 28.8052 889.901 L31.9562 889.901 L31.9562 880.257 L36.5077 880.257 L36.5077 889.901 L67.6042 889.901 L67.6042 895.789 L36.5077 895.789 L36.5077 901.391 L31.9562 901.391 L31.9562 895.789 L29.4736 895.789 Q23.5216 895.789 20.8162 893.02 Q18.079 890.251 18.079 884.235 L18.079 878.697 Z" fill="#000000" fill-rule="nonzero" fill-opacity="1" /><path clip-path="url(#clip040)" d="M18.1426 859.727 Q25.4632 863.992 32.6246 866.061 Q39.786 868.13 47.1384 868.13 Q54.4908 868.13 61.7159 866.061 Q68.9091 863.961 76.1979 859.727 L76.1979 864.82 Q68.7182 869.594 61.4931 871.981 Q54.268 874.337 47.1384 874.337 Q40.0406 874.337 32.8474 871.981 Q25.6542 869.626 18.1426 864.82 L18.1426 859.727 Z" fill="#000000" fill-rule="nonzero" fill-opacity="1" /><path clip-path="url(#clip040)" d="M31.9562 818.732 L49.3028 831.623 L67.6042 818.064 L67.6042 824.971 L53.5996 835.347 L67.6042 845.723 L67.6042 852.63 L48.9526 838.784 L31.9562 851.452 L31.9562 844.545 L44.6558 835.092 L31.9562 825.639 L31.9562 818.732 Z" fill="#000000" fill-rule="nonzero" fill-opacity="1" /><path clip-path="url(#clip040)" d="M18.1426 810.711 L18.1426 805.619 Q25.6542 800.845 32.8474 798.489 Q40.0406 796.102 47.1384 796.102 Q54.268 796.102 61.4931 798.489 Q68.7182 800.845 76.1979 805.619 L76.1979 810.711 Q68.9091 806.478 61.7159 804.409 Q54.4908 802.309 47.1384 802.309 Q39.786 802.309 32.6246 804.409 Q25.4632 806.478 18.1426 810.711 Z" fill="#000000" fill-rule="nonzero" fill-opacity="1" /><path clip-path="url(#clip040)" d="M18.079 764.178 L18.079 750.683 L22.6304 750.683 L22.6304 758.322 L71.6464 758.322 L71.6464 750.683 L76.1979 750.683 L76.1979 764.178 L18.079 764.178 Z" fill="#000000" fill-rule="nonzero" fill-opacity="1" /><path clip-path="url(#clip040)" d="M18.079 738.206 L18.079 732.35 L67.6042 732.35 L67.6042 738.206 L18.079 738.206 Z" fill="#000000" fill-rule="nonzero" fill-opacity="1" /><path clip-path="url(#clip040)" d="M36.0621 706.282 Q36.0621 710.993 39.7542 713.73 Q43.4145 716.467 49.812 716.467 Q56.2095 716.467 59.9017 713.762 Q63.5619 711.025 63.5619 706.282 Q63.5619 701.603 59.8698 698.866 Q56.1777 696.129 49.812 696.129 Q43.4781 696.129 39.786 698.866 Q36.0621 701.603 36.0621 706.282 M31.0968 706.282 Q31.0968 698.643 36.0621 694.283 Q41.0273 689.922 49.812 689.922 Q58.5649 689.922 63.5619 694.283 Q68.5272 698.643 68.5272 706.282 Q68.5272 713.953 63.5619 718.313 Q58.5649 722.642 49.812 722.642 Q41.0273 722.642 36.0621 718.313 Q31.0968 713.953 31.0968 706.282 Z" fill="#000000" fill-rule="nonzero" fill-opacity="1" /><path clip-path="url(#clip040)" d="M49.3664 656.757 Q43.0007 656.757 39.4996 659.399 Q35.9984 662.009 35.9984 666.751 Q35.9984 671.462 39.4996 674.103 Q43.0007 676.713 49.3664 676.713 Q55.7003 676.713 59.2014 674.103 Q62.7026 671.462 62.7026 666.751 Q62.7026 662.009 59.2014 659.399 Q55.7003 656.757 49.3664 656.757 M63.18 650.9 Q72.283 650.9 76.7071 654.943 Q81.1631 658.985 81.1631 667.324 Q81.1631 670.411 80.6857 673.149 Q80.2401 675.886 79.2852 678.464 L73.5879 678.464 Q74.9884 675.886 75.6568 673.371 Q76.3252 670.857 76.3252 668.247 Q76.3252 662.486 73.3015 659.621 Q70.3096 656.757 64.2303 656.757 L61.3339 656.757 Q64.485 658.571 66.0446 661.404 Q67.6042 664.237 67.6042 668.183 Q67.6042 674.74 62.6071 678.75 Q57.61 682.761 49.3664 682.761 Q41.091 682.761 36.0939 678.75 Q31.0968 674.74 31.0968 668.183 Q31.0968 664.237 32.6564 661.404 Q34.216 658.571 37.3671 656.757 L31.9562 656.757 L31.9562 650.9 L63.18 650.9 Z" fill="#000000" fill-rule="nonzero" fill-opacity="1" /><path clip-path="url(#clip040)" d="M31.9562 638.837 L31.9562 632.981 L67.6042 632.981 L67.6042 638.837 L31.9562 638.837 M18.079 638.837 L18.079 632.981 L25.495 632.981 L25.495 638.837 L18.079 638.837 Z" fill="#000000" fill-rule="nonzero" fill-opacity="1" /><path clip-path="url(#clip040)" d="M21.8347 614.934 L31.9562 614.934 L31.9562 602.871 L36.5077 602.871 L36.5077 614.934 L55.8594 614.934 Q60.2199 614.934 61.4613 613.757 Q62.7026 612.547 62.7026 608.887 L62.7026 602.871 L67.6042 602.871 L67.6042 608.887 Q67.6042 615.666 65.0897 618.244 Q62.5434 620.822 55.8594 620.822 L36.5077 620.822 L36.5077 625.119 L31.9562 625.119 L31.9562 620.822 L21.8347 620.822 L21.8347 614.934 Z" fill="#000000" fill-rule="nonzero" fill-opacity="1" /><path clip-path="url(#clip040)" d="M33.0065 551.723 L38.5447 551.723 Q37.2716 554.205 36.635 556.879 Q35.9984 559.553 35.9984 562.417 Q35.9984 566.778 37.3352 568.974 Q38.672 571.138 41.3456 571.138 Q43.3826 571.138 44.5603 569.579 Q45.7061 568.019 46.7565 563.308 L47.2021 561.303 Q48.5389 555.065 50.9897 552.455 Q53.4086 549.813 57.7691 549.813 Q62.7344 549.813 65.6308 553.76 Q68.5272 557.675 68.5272 564.55 Q68.5272 567.414 67.9543 570.533 Q67.4132 573.621 66.2992 577.058 L60.2518 577.058 Q61.9387 573.812 62.798 570.661 Q63.6256 567.51 63.6256 564.422 Q63.6256 560.285 62.2251 558.057 Q60.7929 555.829 58.2147 555.829 Q55.8276 555.829 54.5545 557.452 Q53.2813 559.043 52.1037 564.486 L51.6262 566.523 Q50.4804 571.966 48.1251 574.385 Q45.738 576.804 41.6002 576.804 Q36.5713 576.804 33.8341 573.239 Q31.0968 569.674 31.0968 563.117 Q31.0968 559.871 31.5743 557.006 Q32.0517 554.142 33.0065 551.723 Z" fill="#000000" fill-rule="nonzero" fill-opacity="1" /><path clip-path="url(#clip040)" d="M33.3248 514.833 L38.7993 514.833 Q37.4307 517.316 36.7623 519.831 Q36.0621 522.313 36.0621 524.859 Q36.0621 530.557 39.6905 533.708 Q43.2872 536.859 49.812 536.859 Q56.3369 536.859 59.9653 533.708 Q63.5619 530.557 63.5619 524.859 Q63.5619 522.313 62.8935 519.831 Q62.1933 517.316 60.8247 514.833 L66.2355 514.833 Q67.3814 517.284 67.9543 519.926 Q68.5272 522.536 68.5272 525.496 Q68.5272 533.549 63.4664 538.291 Q58.4057 543.034 49.812 543.034 Q41.091 543.034 36.0939 538.259 Q31.0968 533.453 31.0968 525.114 Q31.0968 522.409 31.6697 519.831 Q32.2108 517.252 33.3248 514.833 Z" fill="#000000" fill-rule="nonzero" fill-opacity="1" /><path clip-path="url(#clip040)" d="M49.6847 488.448 Q49.6847 495.545 51.3079 498.283 Q52.9312 501.02 56.8461 501.02 Q59.9653 501.02 61.8114 498.983 Q63.6256 496.914 63.6256 493.381 Q63.6256 488.511 60.1881 485.583 Q56.7188 482.623 50.9897 482.623 L49.6847 482.623 L49.6847 488.448 M47.2657 476.766 L67.6042 476.766 L67.6042 482.623 L62.1933 482.623 Q65.4398 484.628 66.9994 487.62 Q68.5272 490.612 68.5272 494.941 Q68.5272 500.415 65.4716 503.662 Q62.3843 506.876 57.2281 506.876 Q51.2125 506.876 48.1569 502.866 Q45.1014 498.824 45.1014 490.835 L45.1014 482.623 L44.5285 482.623 Q40.4862 482.623 38.2901 485.297 Q36.0621 487.938 36.0621 492.744 Q36.0621 495.8 36.7941 498.696 Q37.5262 501.593 38.9903 504.266 L33.5795 504.266 Q32.3381 501.052 31.7334 498.028 Q31.0968 495.004 31.0968 492.14 Q31.0968 484.405 35.1072 480.586 Q39.1176 476.766 47.2657 476.766 Z" fill="#000000" fill-rule="nonzero" fill-opacity="1" /><path clip-path="url(#clip040)" d="M18.079 464.703 L18.079 458.847 L67.6042 458.847 L67.6042 464.703 L18.079 464.703 Z" fill="#000000" fill-rule="nonzero" fill-opacity="1" /><path clip-path="url(#clip040)" d="M48.3161 416.101 L51.1806 416.101 L51.1806 443.028 Q57.2281 442.646 60.4109 439.4 Q63.5619 436.121 63.5619 430.297 Q63.5619 426.923 62.7344 423.772 Q61.9069 420.589 60.2518 417.47 L65.7899 417.47 Q67.1267 420.621 67.827 423.931 Q68.5272 427.241 68.5272 430.647 Q68.5272 439.177 63.5619 444.174 Q58.5967 449.139 50.1303 449.139 Q41.3774 449.139 36.2531 444.429 Q31.0968 439.686 31.0968 431.665 Q31.0968 424.472 35.7438 420.303 Q40.3589 416.101 48.3161 416.101 M46.5973 421.958 Q41.7912 422.021 38.9266 424.663 Q36.0621 427.273 36.0621 431.602 Q36.0621 436.503 38.8312 439.463 Q41.6002 442.392 46.6292 442.837 L46.5973 421.958 Z" fill="#000000" fill-rule="nonzero" fill-opacity="1" /><path clip-path="url(#clip040)" d="M18.079 392.803 L76.1979 392.803 L76.1979 406.298 L71.6464 406.298 L71.6464 398.691 L22.6304 398.691 L22.6304 406.298 L18.079 406.298 L18.079 392.803 Z" fill="#000000" fill-rule="nonzero" fill-opacity="1" /><path clip-path="url(#clip040)" d="M365.012 43.6931 L365.012 65.8515 L378.137 65.8515 Q384.74 65.8515 387.9 63.1374 Q391.1 60.3828 391.1 54.752 Q391.1 49.0808 387.9 46.4072 Q384.74 43.6931 378.137 43.6931 L365.012 43.6931 M365.012 18.8205 L365.012 37.0496 L377.124 37.0496 Q383.12 37.0496 386.036 34.8216 Q388.994 32.5531 388.994 27.935 Q388.994 23.3575 386.036 21.089 Q383.12 18.8205 377.124 18.8205 L365.012 18.8205 M356.829 12.096 L377.732 12.096 Q387.09 12.096 392.153 15.9849 Q397.217 19.8737 397.217 27.0438 Q397.217 32.5936 394.624 35.8748 Q392.032 39.156 387.009 39.9662 Q393.045 41.2625 396.366 45.3944 Q399.729 49.4858 399.729 55.6432 Q399.729 63.745 394.219 68.1605 Q388.71 72.576 378.542 72.576 L356.829 72.576 L356.829 12.096 Z" fill="#000000" fill-rule="nonzero" fill-opacity="1" /><path clip-path="url(#clip040)" d="M413.421 27.2059 L420.874 27.2059 L420.874 72.576 L413.421 72.576 L413.421 27.2059 M413.421 9.54393 L420.874 9.54393 L420.874 18.9825 L413.421 18.9825 L413.421 9.54393 Z" fill="#000000" fill-rule="nonzero" fill-opacity="1" /><path clip-path="url(#clip040)" d="M474.184 45.1919 L474.184 72.576 L466.73 72.576 L466.73 45.4349 Q466.73 38.994 464.219 35.7938 Q461.707 32.5936 456.684 32.5936 Q450.648 32.5936 447.165 36.4419 Q443.681 40.2903 443.681 46.9338 L443.681 72.576 L436.187 72.576 L436.187 27.2059 L443.681 27.2059 L443.681 34.2544 Q446.354 30.163 449.96 28.1376 Q453.606 26.1121 458.345 26.1121 Q466.163 26.1121 470.174 30.9732 Q474.184 35.7938 474.184 45.1919 Z" fill="#000000" fill-rule="nonzero" fill-opacity="1" /><path clip-path="url(#clip040)" d="M506.632 32.4315 Q500.637 32.4315 497.153 37.1306 Q493.669 41.7891 493.669 49.9314 Q493.669 58.0738 497.112 62.7728 Q500.596 67.4314 506.632 67.4314 Q512.587 67.4314 516.07 62.7323 Q519.554 58.0333 519.554 49.9314 Q519.554 41.8701 516.07 37.1711 Q512.587 32.4315 506.632 32.4315 M506.632 26.1121 Q516.354 26.1121 521.904 32.4315 Q527.454 38.7509 527.454 49.9314 Q527.454 61.0714 521.904 67.4314 Q516.354 73.7508 506.632 73.7508 Q496.869 73.7508 491.319 67.4314 Q485.81 61.0714 485.81 49.9314 Q485.81 38.7509 491.319 32.4315 Q496.869 26.1121 506.632 26.1121 Z" fill="#000000" fill-rule="nonzero" fill-opacity="1" /><path clip-path="url(#clip040)" d="M575.133 35.9153 Q577.928 30.8922 581.817 28.5022 Q585.706 26.1121 590.972 26.1121 Q598.061 26.1121 601.909 31.0947 Q605.757 36.0368 605.757 45.1919 L605.757 72.576 L598.263 72.576 L598.263 45.4349 Q598.263 38.913 595.954 35.7533 Q593.645 32.5936 588.906 32.5936 Q583.113 32.5936 579.751 36.4419 Q576.388 40.2903 576.388 46.9338 L576.388 72.576 L568.894 72.576 L568.894 45.4349 Q568.894 38.8725 566.585 35.7533 Q564.276 32.5936 559.456 32.5936 Q553.744 32.5936 550.382 36.4824 Q547.019 40.3308 547.019 46.9338 L547.019 72.576 L539.525 72.576 L539.525 27.2059 L547.019 27.2059 L547.019 34.2544 Q549.571 30.082 553.136 28.0971 Q556.701 26.1121 561.603 26.1121 Q566.545 26.1121 569.988 28.6237 Q573.472 31.1352 575.133 35.9153 Z" fill="#000000" fill-rule="nonzero" fill-opacity="1" /><path clip-path="url(#clip040)" d="M620.624 27.2059 L628.078 27.2059 L628.078 72.576 L620.624 72.576 L620.624 27.2059 M620.624 9.54393 L628.078 9.54393 L628.078 18.9825 L620.624 18.9825 L620.624 9.54393 Z" fill="#000000" fill-rule="nonzero" fill-opacity="1" /><path clip-path="url(#clip040)" d="M664.293 49.7694 Q655.26 49.7694 651.776 51.8354 Q648.292 53.9013 648.292 58.8839 Q648.292 62.8538 650.885 65.2034 Q653.518 67.5124 658.014 67.5124 Q664.212 67.5124 667.939 63.1374 Q671.706 58.7219 671.706 51.4303 L671.706 49.7694 L664.293 49.7694 M679.16 46.6907 L679.16 72.576 L671.706 72.576 L671.706 65.6895 Q669.154 69.8214 665.346 71.8063 Q661.538 73.7508 656.029 73.7508 Q649.062 73.7508 644.93 69.8619 Q640.838 65.9325 640.838 59.3701 Q640.838 51.7138 645.942 47.825 Q651.087 43.9361 661.255 43.9361 L671.706 43.9361 L671.706 43.2069 Q671.706 38.0623 668.303 35.2672 Q664.941 32.4315 658.824 32.4315 Q654.935 32.4315 651.249 33.3632 Q647.563 34.295 644.16 36.1584 L644.16 29.2718 Q648.251 27.692 652.1 26.9223 Q655.948 26.1121 659.594 26.1121 Q669.438 26.1121 674.299 31.2163 Q679.16 36.3204 679.16 46.6907 Z" fill="#000000" fill-rule="nonzero" fill-opacity="1" /><path clip-path="url(#clip040)" d="M694.513 9.54393 L701.966 9.54393 L701.966 72.576 L694.513 72.576 L694.513 9.54393 Z" fill="#000000" fill-rule="nonzero" fill-opacity="1" /><path clip-path="url(#clip040)" d="M785.496 63.9476 L785.496 47.7034 L772.128 47.7034 L772.128 40.9789 L793.598 40.9789 L793.598 66.9452 Q788.858 70.3075 783.147 72.0494 Q777.435 73.7508 770.953 73.7508 Q756.775 73.7508 748.754 65.4869 Q740.774 57.1826 740.774 42.3968 Q740.774 27.5705 748.754 19.3066 Q756.775 11.0023 770.953 11.0023 Q776.868 11.0023 782.174 12.4606 Q787.522 13.9189 792.018 16.7545 L792.018 25.464 Q787.481 21.6156 782.377 19.6712 Q777.273 17.7268 771.642 17.7268 Q760.543 17.7268 754.952 23.9246 Q749.403 30.1225 749.403 42.3968 Q749.403 54.6305 754.952 60.8284 Q760.543 67.0263 771.642 67.0263 Q775.976 67.0263 779.379 66.2971 Q782.782 65.5274 785.496 63.9476 Z" fill="#000000" fill-rule="nonzero" fill-opacity="1" /><path clip-path="url(#clip040)" d="M828.76 20.1573 L817.66 50.2555 L839.9 50.2555 L828.76 20.1573 M824.142 12.096 L833.418 12.096 L856.468 72.576 L847.961 72.576 L842.452 57.061 L815.189 57.061 L809.68 72.576 L801.052 72.576 L824.142 12.096 Z" fill="#000000" fill-rule="nonzero" fill-opacity="1" /><path clip-path="url(#clip040)" d="M865.299 12.096 L877.492 12.096 L892.926 53.2532 L908.441 12.096 L920.634 12.096 L920.634 72.576 L912.654 72.576 L912.654 19.4686 L897.058 60.9499 L888.835 60.9499 L873.239 19.4686 L873.239 72.576 L865.299 72.576 L865.299 12.096 Z" fill="#000000" fill-rule="nonzero" fill-opacity="1" /><path clip-path="url(#clip040)" d="M959.158 46.9338 L1034.02 46.9338 L1034.02 52.7671 L959.158 52.7671 L959.158 46.9338 Z" fill="#000000" fill-rule="nonzero" fill-opacity="1" /><path clip-path="url(#clip040)" d="M1101.18 28.5427 L1101.18 35.5912 Q1098.02 33.9709 1094.62 33.1607 Q1091.22 32.3505 1087.57 32.3505 Q1082.02 32.3505 1079.23 34.0519 Q1076.47 35.7533 1076.47 39.156 Q1076.47 41.7486 1078.46 43.2475 Q1080.44 44.7058 1086.44 46.0426 L1088.99 46.6097 Q1096.93 48.3111 1100.25 51.4303 Q1103.61 54.509 1103.61 60.0587 Q1103.61 66.3781 1098.59 70.0644 Q1093.61 73.7508 1084.86 73.7508 Q1081.21 73.7508 1077.24 73.0216 Q1073.31 72.3329 1068.94 70.9151 L1068.94 63.2184 Q1073.07 65.3654 1077.08 66.4591 Q1081.09 67.5124 1085.02 67.5124 Q1090.29 67.5124 1093.12 65.73 Q1095.96 63.9071 1095.96 60.6258 Q1095.96 57.5877 1093.89 55.9673 Q1091.87 54.3469 1084.94 52.8481 L1082.35 52.2405 Q1075.42 50.7821 1072.34 47.7845 Q1069.26 44.7463 1069.26 39.4801 Q1069.26 33.0797 1073.8 29.5959 Q1078.34 26.1121 1086.68 26.1121 Q1090.81 26.1121 1094.46 26.7198 Q1098.1 27.3274 1101.18 28.5427 Z" fill="#000000" fill-rule="nonzero" fill-opacity="1" /><path clip-path="url(#clip040)" d="M1150.81 35.9153 Q1153.6 30.8922 1157.49 28.5022 Q1161.38 26.1121 1166.65 26.1121 Q1173.73 26.1121 1177.58 31.0947 Q1181.43 36.0368 1181.43 45.1919 L1181.43 72.576 L1173.94 72.576 L1173.94 45.4349 Q1173.94 38.913 1171.63 35.7533 Q1169.32 32.5936 1164.58 32.5936 Q1158.79 32.5936 1155.42 36.4419 Q1152.06 40.2903 1152.06 46.9338 L1152.06 72.576 L1144.57 72.576 L1144.57 45.4349 Q1144.57 38.8725 1142.26 35.7533 Q1139.95 32.5936 1135.13 32.5936 Q1129.42 32.5936 1126.06 36.4824 Q1122.69 40.3308 1122.69 46.9338 L1122.69 72.576 L1115.2 72.576 L1115.2 27.2059 L1122.69 27.2059 L1122.69 34.2544 Q1125.25 30.082 1128.81 28.0971 Q1132.38 26.1121 1137.28 26.1121 Q1142.22 26.1121 1145.66 28.6237 Q1149.15 31.1352 1150.81 35.9153 Z" fill="#000000" fill-rule="nonzero" fill-opacity="1" /><path clip-path="url(#clip040)" d="M1213.88 32.4315 Q1207.88 32.4315 1204.4 37.1306 Q1200.92 41.7891 1200.92 49.9314 Q1200.92 58.0738 1204.36 62.7728 Q1207.84 67.4314 1213.88 67.4314 Q1219.83 67.4314 1223.32 62.7323 Q1226.8 58.0333 1226.8 49.9314 Q1226.8 41.8701 1223.32 37.1711 Q1219.83 32.4315 1213.88 32.4315 M1213.88 26.1121 Q1223.6 26.1121 1229.15 32.4315 Q1234.7 38.7509 1234.7 49.9314 Q1234.7 61.0714 1229.15 67.4314 Q1223.6 73.7508 1213.88 73.7508 Q1204.12 73.7508 1198.57 67.4314 Q1193.06 61.0714 1193.06 49.9314 Q1193.06 38.7509 1198.57 32.4315 Q1204.12 26.1121 1213.88 26.1121 Z" fill="#000000" fill-rule="nonzero" fill-opacity="1" /><path clip-path="url(#clip040)" d="M1264.64 32.4315 Q1258.64 32.4315 1255.16 37.1306 Q1251.67 41.7891 1251.67 49.9314 Q1251.67 58.0738 1255.12 62.7728 Q1258.6 67.4314 1264.64 67.4314 Q1270.59 67.4314 1274.08 62.7323 Q1277.56 58.0333 1277.56 49.9314 Q1277.56 41.8701 1274.08 37.1711 Q1270.59 32.4315 1264.64 32.4315 M1264.64 26.1121 Q1274.36 26.1121 1279.91 32.4315 Q1285.46 38.7509 1285.46 49.9314 Q1285.46 61.0714 1279.91 67.4314 Q1274.36 73.7508 1264.64 73.7508 Q1254.87 73.7508 1249.32 67.4314 Q1243.82 61.0714 1243.82 49.9314 Q1243.82 38.7509 1249.32 32.4315 Q1254.87 26.1121 1264.64 26.1121 Z" fill="#000000" fill-rule="nonzero" fill-opacity="1" /><path clip-path="url(#clip040)" d="M1305.19 14.324 L1305.19 27.2059 L1320.54 27.2059 L1320.54 32.9987 L1305.19 32.9987 L1305.19 57.6282 Q1305.19 63.1779 1306.69 64.7578 Q1308.22 66.3376 1312.88 66.3376 L1320.54 66.3376 L1320.54 72.576 L1312.88 72.576 Q1304.25 72.576 1300.97 69.3758 Q1297.69 66.1351 1297.69 57.6282 L1297.69 32.9987 L1292.22 32.9987 L1292.22 27.2059 L1297.69 27.2059 L1297.69 14.324 L1305.19 14.324 Z" fill="#000000" fill-rule="nonzero" fill-opacity="1" /><path clip-path="url(#clip040)" d="M1368.06 45.1919 L1368.06 72.576 L1360.6 72.576 L1360.6 45.4349 Q1360.6 38.994 1358.09 35.7938 Q1355.58 32.5936 1350.56 32.5936 Q1344.52 32.5936 1341.04 36.4419 Q1337.55 40.2903 1337.55 46.9338 L1337.55 72.576 L1330.06 72.576 L1330.06 9.54393 L1337.55 9.54393 L1337.55 34.2544 Q1340.23 30.163 1343.83 28.1376 Q1347.48 26.1121 1352.22 26.1121 Q1360.04 26.1121 1364.05 30.9732 Q1368.06 35.7938 1368.06 45.1919 Z" fill="#000000" fill-rule="nonzero" fill-opacity="1" /><path clip-path="url(#clip040)" d="M1426.88 32.4315 Q1420.88 32.4315 1417.4 37.1306 Q1413.91 41.7891 1413.91 49.9314 Q1413.91 58.0738 1417.36 62.7728 Q1420.84 67.4314 1426.88 67.4314 Q1432.83 67.4314 1436.31 62.7323 Q1439.8 58.0333 1439.8 49.9314 Q1439.8 41.8701 1436.31 37.1711 Q1432.83 32.4315 1426.88 32.4315 M1426.88 26.1121 Q1436.6 26.1121 1442.15 32.4315 Q1447.7 38.7509 1447.7 49.9314 Q1447.7 61.0714 1442.15 67.4314 Q1436.6 73.7508 1426.88 73.7508 Q1417.11 73.7508 1411.56 67.4314 Q1406.05 61.0714 1406.05 49.9314 Q1406.05 38.7509 1411.56 32.4315 Q1417.11 26.1121 1426.88 26.1121 Z" fill="#000000" fill-rule="nonzero" fill-opacity="1" /><path clip-path="url(#clip040)" d="M1497.77 45.1919 L1497.77 72.576 L1490.31 72.576 L1490.31 45.4349 Q1490.31 38.994 1487.8 35.7938 Q1485.29 32.5936 1480.27 32.5936 Q1474.23 32.5936 1470.75 36.4419 Q1467.26 40.2903 1467.26 46.9338 L1467.26 72.576 L1459.77 72.576 L1459.77 27.2059 L1467.26 27.2059 L1467.26 34.2544 Q1469.94 30.163 1473.54 28.1376 Q1477.19 26.1121 1481.93 26.1121 Q1489.75 26.1121 1493.76 30.9732 Q1497.77 35.7938 1497.77 45.1919 Z" fill="#000000" fill-rule="nonzero" fill-opacity="1" /><path clip-path="url(#clip040)" d="M1539 9.54393 L1546.46 9.54393 L1546.46 72.576 L1539 72.576 L1539 9.54393 Z" fill="#000000" fill-rule="nonzero" fill-opacity="1" /><path clip-path="url(#clip040)" d="M1562.05 27.2059 L1569.51 27.2059 L1569.51 72.576 L1562.05 72.576 L1562.05 27.2059 M1562.05 9.54393 L1569.51 9.54393 L1569.51 18.9825 L1562.05 18.9825 L1562.05 9.54393 Z" fill="#000000" fill-rule="nonzero" fill-opacity="1" /><path clip-path="url(#clip040)" d="M1622.82 45.1919 L1622.82 72.576 L1615.36 72.576 L1615.36 45.4349 Q1615.36 38.994 1612.85 35.7938 Q1610.34 32.5936 1605.32 32.5936 Q1599.28 32.5936 1595.8 36.4419 Q1592.31 40.2903 1592.31 46.9338 L1592.31 72.576 L1584.82 72.576 L1584.82 27.2059 L1592.31 27.2059 L1592.31 34.2544 Q1594.99 30.163 1598.59 28.1376 Q1602.24 26.1121 1606.98 26.1121 Q1614.8 26.1121 1618.81 30.9732 Q1622.82 35.7938 1622.82 45.1919 Z" fill="#000000" fill-rule="nonzero" fill-opacity="1" /><path clip-path="url(#clip040)" d="M1637.4 9.54393 L1644.9 9.54393 L1644.9 46.7717 L1667.13 27.2059 L1676.65 27.2059 L1652.59 48.4326 L1677.67 72.576 L1667.95 72.576 L1644.9 50.4176 L1644.9 72.576 L1637.4 72.576 L1637.4 9.54393 Z" fill="#000000" fill-rule="nonzero" fill-opacity="1" /><path clip-path="url(#clip040)" d="M1741.02 28.5427 L1741.02 35.5912 Q1737.86 33.9709 1734.46 33.1607 Q1731.06 32.3505 1727.41 32.3505 Q1721.86 32.3505 1719.07 34.0519 Q1716.31 35.7533 1716.31 39.156 Q1716.31 41.7486 1718.3 43.2475 Q1720.28 44.7058 1726.28 46.0426 L1728.83 46.6097 Q1736.77 48.3111 1740.09 51.4303 Q1743.45 54.509 1743.45 60.0587 Q1743.45 66.3781 1738.43 70.0644 Q1733.45 73.7508 1724.7 73.7508 Q1721.05 73.7508 1717.08 73.0216 Q1713.15 72.3329 1708.78 70.9151 L1708.78 63.2184 Q1712.91 65.3654 1716.92 66.4591 Q1720.93 67.5124 1724.86 67.5124 Q1730.13 67.5124 1732.96 65.73 Q1735.8 63.9071 1735.8 60.6258 Q1735.8 57.5877 1733.73 55.9673 Q1731.71 54.3469 1724.78 52.8481 L1722.19 52.2405 Q1715.26 50.7821 1712.18 47.7845 Q1709.1 44.7463 1709.1 39.4801 Q1709.1 33.0797 1713.64 29.5959 Q1718.18 26.1121 1726.52 26.1121 Q1730.65 26.1121 1734.3 26.7198 Q1737.94 27.3274 1741.02 28.5427 Z" fill="#000000" fill-rule="nonzero" fill-opacity="1" /><path clip-path="url(#clip040)" d="M1787.97 28.9478 L1787.97 35.9153 Q1784.81 34.1734 1781.61 33.3227 Q1778.45 32.4315 1775.21 32.4315 Q1767.96 32.4315 1763.95 37.0496 Q1759.94 41.6271 1759.94 49.9314 Q1759.94 58.2358 1763.95 62.8538 Q1767.96 67.4314 1775.21 67.4314 Q1778.45 67.4314 1781.61 66.5807 Q1784.81 65.6895 1787.97 63.9476 L1787.97 70.8341 Q1784.85 72.2924 1781.49 73.0216 Q1778.17 73.7508 1774.4 73.7508 Q1764.15 73.7508 1758.12 67.3098 Q1752.08 60.8689 1752.08 49.9314 Q1752.08 38.832 1758.16 32.472 Q1764.28 26.1121 1774.89 26.1121 Q1778.33 26.1121 1781.61 26.8413 Q1784.89 27.5299 1787.97 28.9478 Z" fill="#000000" fill-rule="nonzero" fill-opacity="1" /><path clip-path="url(#clip040)" d="M1821.56 49.7694 Q1812.52 49.7694 1809.04 51.8354 Q1805.55 53.9013 1805.55 58.8839 Q1805.55 62.8538 1808.15 65.2034 Q1810.78 67.5124 1815.28 67.5124 Q1821.47 67.5124 1825.2 63.1374 Q1828.97 58.7219 1828.97 51.4303 L1828.97 49.7694 L1821.56 49.7694 M1836.42 46.6907 L1836.42 72.576 L1828.97 72.576 L1828.97 65.6895 Q1826.42 69.8214 1822.61 71.8063 Q1818.8 73.7508 1813.29 73.7508 Q1806.32 73.7508 1802.19 69.8619 Q1798.1 65.9325 1798.1 59.3701 Q1798.1 51.7138 1803.2 47.825 Q1808.35 43.9361 1818.52 43.9361 L1828.97 43.9361 L1828.97 43.2069 Q1828.97 38.0623 1825.57 35.2672 Q1822.2 32.4315 1816.09 32.4315 Q1812.2 32.4315 1808.51 33.3632 Q1804.83 34.295 1801.42 36.1584 L1801.42 29.2718 Q1805.51 27.692 1809.36 26.9223 Q1813.21 26.1121 1816.86 26.1121 Q1826.7 26.1121 1831.56 31.2163 Q1836.42 36.3204 1836.42 46.6907 Z" fill="#000000" fill-rule="nonzero" fill-opacity="1" /><path clip-path="url(#clip040)" d="M1851.78 9.54393 L1859.23 9.54393 L1859.23 72.576 L1851.78 72.576 L1851.78 9.54393 Z" fill="#000000" fill-rule="nonzero" fill-opacity="1" /><path clip-path="url(#clip040)" d="M1913.63 48.0275 L1913.63 51.6733 L1879.36 51.6733 Q1879.85 59.3701 1883.98 63.421 Q1888.15 67.4314 1895.57 67.4314 Q1899.86 67.4314 1903.87 66.3781 Q1907.92 65.3249 1911.89 63.2184 L1911.89 70.267 Q1907.88 71.9684 1903.67 72.8596 Q1899.45 73.7508 1895.12 73.7508 Q1884.26 73.7508 1877.9 67.4314 Q1871.58 61.1119 1871.58 50.3365 Q1871.58 39.1965 1877.58 32.6746 Q1883.62 26.1121 1893.82 26.1121 Q1902.98 26.1121 1908.29 32.0264 Q1913.63 37.9003 1913.63 48.0275 M1906.18 45.84 Q1906.1 39.7232 1902.74 36.0774 Q1899.41 32.4315 1893.9 32.4315 Q1887.67 32.4315 1883.9 35.9558 Q1880.17 39.4801 1879.6 45.8805 L1906.18 45.84 Z" fill="#000000" fill-rule="nonzero" fill-opacity="1" /><path clip-path="url(#clip041)" d="M258.321 694.617 L267.134 678.028 L275.947 661.956 L284.76 646.5 L293.573 631.752 L302.386 617.786 L311.2 604.659 L320.013 592.396 L328.826 580.995 L337.639 570.414 L346.452 560.581 L355.265 551.395 L364.079 542.736 L372.892 534.48 L381.705 526.517 L390.518 518.802 L399.331 511.35 L408.144 504.19 L416.958 497.346 L425.771 490.832 L434.584 484.64 L443.397 478.734 L452.21 473.058 L461.023 467.53 L469.837 462.059 L478.65 456.548 L487.463 450.913 L496.276 445.151 L505.089 439.331 L513.902 433.536 L522.716 427.853 L531.529 422.364 L540.342 417.14 L549.155 412.233 L557.968 407.676 L566.781 403.481 L575.595 399.637 L584.408 396.12 L593.221 392.894 L602.034 389.917 L610.847 387.15 L619.661 384.569 L628.474 382.201 L637.287 380.129 L646.1 378.445 L654.913 377.236 L663.726 376.575 L672.54 376.516 L681.353 377.089 L690.166 378.295 L698.979 380.111 L707.792 382.491 L716.605 385.37 L725.419 388.671 L734.232 392.316 L743.045 396.258 L751.858 400.498 L760.671 405.056 L769.484 409.965 L778.298 415.261 L787.111 420.987 L795.924 427.18 L804.737 433.875 L813.55 441.097 L822.363 448.863 L831.177 457.174 L839.99 466.02 L848.803 475.375 L857.616 485.202 L866.429 495.454 L875.242 506.077 L884.056 517.012 L892.869 528.203 L901.682 539.601 L910.495 551.169 L919.308 562.896 L928.121 574.82 L936.935 586.995 L945.748 599.465 L954.561 612.258 L963.374 625.376 L972.187 638.792 L981 652.451 L989.814 666.268 L998.627 680.139 L1007.44 693.944 L1016.25 707.563 L1025.07 720.879 L1033.88 733.823 L1042.69 746.443 L1051.51 758.818 L1060.32 771.029 L1069.13 783.15 L1077.95 795.238 L1086.76 807.332 L1095.57 819.446 L1104.38 831.571 L1113.2 843.677 L1122.01 855.716 L1130.82 867.632 L1139.64 879.362 L1148.45 890.849 L1157.26 902.068 L1166.08 913.047 L1174.89 923.831 L1183.7 934.468 L1192.52 945 L1201.33 955.462 L1210.14 965.874 L1218.96 976.242 L1227.77 986.553 L1236.58 996.779 L1245.4 1006.88 L1254.21 1016.79 L1263.02 1026.47 L1271.84 1035.83 L1280.65 1044.82 L1289.46 1053.38 L1298.27 1061.48 L1307.09 1069.16 L1315.9 1076.45 L1324.71 1083.4 L1333.53 1090.03 L1342.34 1096.37 L1351.15 1102.45 L1359.97 1108.24 L1368.78 1113.75 L1377.59 1118.93 L1386.41 1123.75 L1395.22 1128.16 L1404.03 1132.09 L1412.85 1135.49 L1421.66 1138.31 L1430.47 1140.5 L1439.29 1142.06 L1448.1 1143.05 L1456.91 1143.57 L1465.72 1143.68 L1474.54 1143.43 L1483.35 1142.85 L1492.16 1141.93 L1500.98 1140.64 L1509.79 1138.91 L1518.6 1136.69 L1527.42 1133.95 L1536.23 1130.73 L1545.04 1127.06 L1553.86 1123 L1562.67 1118.6 L1571.48 1113.94 L1580.3 1109.05 L1589.11 1103.99 L1597.92 1098.79 L1606.74 1093.5 L1615.55 1088.12 L1624.36 1082.66 L1633.17 1077.13 L1641.99 1071.51 L1650.8 1065.78 L1659.61 1059.91 L1668.43 1053.88 L1677.24 1047.68 L1686.05 1041.28 L1694.87 1034.68 L1703.68 1027.92 L1712.49 1021.03 L1721.31 1014.03 L1730.12 1006.95 L1738.93 999.795 L1747.75 992.566 L1756.56 985.239 L1765.37 977.773 L1774.19 970.108 L1783 962.17 L1791.81 953.874 L1800.63 945.131 L1809.44 935.861 L1818.25 926.052 L1827.06 915.769 L1835.88 905.093 L1844.69 894.113 L1853.5 882.925 L1862.32 871.617 L1871.13 860.276 L1879.94 848.973 L1888.76 837.771 L1897.57 826.718 L1906.38 815.857 L1915.2 805.225 L1924.01 794.863 L1932.82 784.826 L1941.64 775.197 L1950.45 766.125 L1959.26 757.776 L1968.08 750.275 L1976.89 743.7 L1985.7 738.072 L1994.51 733.364 L2003.33 729.505 L2012.14 726.395 L2012.14 366.85 L2003.33 390.374 L1994.51 413.087 L1985.7 434.826 L1976.89 455.458 L1968.08 474.892 L1959.26 493.088 L1950.45 510.06 L1941.64 525.872 L1932.82 540.626 L1924.01 554.425 L1915.2 567.334 L1906.38 579.392 L1897.57 590.629 L1888.76 601.065 L1879.94 610.73 L1871.13 619.657 L1862.32 627.895 L1853.5 635.502 L1844.69 642.549 L1835.88 649.112 L1827.06 655.27 L1818.25 661.1 L1809.44 666.668 L1800.63 672.025 L1791.81 677.185 L1783 682.132 L1774.19 686.842 L1765.37 691.297 L1756.56 695.488 L1747.75 699.424 L1738.93 703.129 L1730.12 706.646 L1721.31 710.038 L1712.49 713.38 L1703.68 716.764 L1694.87 720.285 L1686.05 724.041 L1677.24 728.111 L1668.43 732.479 L1659.61 737.086 L1650.8 741.865 L1641.99 746.746 L1633.17 751.66 L1624.36 756.542 L1615.55 761.335 L1606.74 765.992 L1597.92 770.474 L1589.11 774.755 L1580.3 778.821 L1571.48 782.666 L1562.67 786.293 L1553.86 789.712 L1545.04 792.937 L1536.23 795.978 L1527.42 798.844 L1518.6 801.534 L1509.79 804.031 L1500.98 806.281 L1492.16 808.197 L1483.35 809.707 L1474.54 810.755 L1465.72 811.317 L1456.91 811.396 L1448.1 811.021 L1439.29 810.245 L1430.47 809.138 L1421.66 807.76 L1412.85 806.121 L1404.03 804.206 L1395.22 801.991 L1386.41 799.443 L1377.59 796.534 L1368.78 793.239 L1359.97 789.542 L1351.15 785.44 L1342.34 780.944 L1333.53 776.079 L1324.71 770.886 L1315.9 765.416 L1307.09 759.73 L1298.27 753.896 L1289.46 747.981 L1280.65 742.041 L1271.84 736.068 L1263.02 730.024 L1254.21 723.859 L1245.4 717.524 L1236.58 710.973 L1227.77 704.167 L1218.96 697.081 L1210.14 689.701 L1201.33 682.033 L1192.52 674.096 L1183.7 665.929 L1174.89 657.581 L1166.08 649.11 L1157.26 640.582 L1148.45 632.055 L1139.64 623.574 L1130.82 615.105 L1122.01 606.576 L1113.2 597.909 L1104.38 589.031 L1095.57 579.879 L1086.76 570.408 L1077.95 560.592 L1069.13 550.431 L1060.32 539.947 L1051.51 529.182 L1042.69 518.194 L1033.88 507.049 L1025.07 495.811 L1016.25 484.522 L1007.44 473.169 L998.627 461.709 L989.814 450.095 L981 438.279 L972.187 426.23 L963.374 413.937 L954.561 401.417 L945.748 388.716 L936.935 375.909 L928.121 363.096 L919.308 350.396 L910.495 337.935 L901.682 325.814 L892.869 314.056 L884.056 302.657 L875.242 291.6 L866.429 280.859 L857.616 270.409 L848.803 260.227 L839.99 250.297 L831.177 240.613 L822.363 231.183 L813.55 222.027 L804.737 213.18 L795.924 204.688 L787.111 196.608 L778.298 189.008 L769.484 181.957 L760.671 175.528 L751.858 169.791 L743.045 164.809 L734.232 160.634 L725.419 157.297 L716.605 154.753 L707.792 152.898 L698.979 151.631 L690.166 150.862 L681.353 150.518 L672.54 150.55 L663.726 150.937 L654.913 151.681 L646.1 152.811 L637.287 154.375 L628.474 156.436 L619.661 159.058 L610.847 162.299 L602.034 166.147 L593.221 170.525 L584.408 175.341 L575.595 180.502 L566.781 185.919 L557.968 191.514 L549.155 197.227 L540.342 203.016 L531.529 208.861 L522.716 214.763 L513.902 220.74 L505.089 226.822 L496.276 233.043 L487.463 239.434 L478.65 246.012 L469.837 252.742 L461.023 259.535 L452.21 266.29 L443.397 272.909 L434.584 279.31 L425.771 285.429 L416.958 291.228 L408.144 296.696 L399.331 301.839 L390.518 306.681 L381.705 311.245 L372.892 315.542 L364.079 319.526 L355.265 323.088 L346.452 326.105 L337.639 328.459 L328.826 330.052 L320.013 330.811 L311.2 330.698 L302.386 329.711 L293.573 327.877 L284.76 325.255 L275.947 321.921 L267.134 317.966 L258.321 313.493  Z" fill="#009af9" fill-rule="evenodd" fill-opacity="0.2"/>
<polyline clip-path="url(#clip041)" style="stroke:#009af9; stroke-linecap:round; stroke-linejoin:round; stroke-width:8; stroke-opacity:1; fill:none" points="258.321,504.055 267.134,497.997 275.947,491.938 284.76,485.878 293.573,479.815 302.386,473.748 311.2,467.678 320.013,461.604 328.826,455.523 337.639,449.437 346.452,443.343 355.265,437.241 364.079,431.131 372.892,425.011 381.705,418.881 390.518,412.742 399.331,406.595 408.144,400.443 416.958,394.287 425.771,388.131 434.584,381.975 443.397,375.822 452.21,369.674 461.023,363.533 469.837,357.401 478.65,351.28 487.463,345.174 496.276,339.097 505.089,333.077 513.902,327.138 522.716,321.308 531.529,315.613 540.342,310.078 549.155,304.73 557.968,299.595 566.781,294.7 575.595,290.069 584.408,285.73 593.221,281.709 602.034,278.032 610.847,274.725 619.661,271.813 628.474,269.318 637.287,267.252 646.1,265.628 654.913,264.458 663.726,263.756 672.54,263.533 681.353,263.803 690.166,264.578 698.979,265.871 707.792,267.695 716.605,270.062 725.419,272.984 734.232,276.475 743.045,280.533 751.858,285.144 760.671,290.292 769.484,295.961 778.298,302.135 787.111,308.797 795.924,315.934 804.737,323.527 813.55,331.562 822.363,340.023 831.177,348.894 839.99,358.158 848.803,367.801 857.616,377.806 866.429,388.157 875.242,398.838 884.056,409.835 892.869,421.13 901.682,432.707 910.495,444.552 919.308,456.646 928.121,468.958 936.935,481.452 945.748,494.09 954.561,506.837 963.374,519.656 972.187,532.511 981,545.365 989.814,558.181 998.627,570.924 1007.44,583.556 1016.25,596.042 1025.07,608.345 1033.88,620.436 1042.69,632.319 1051.51,644 1060.32,655.488 1069.13,666.79 1077.95,677.915 1086.76,688.87 1095.57,699.662 1104.38,710.301 1113.2,720.793 1122.01,731.146 1130.82,741.368 1139.64,751.468 1148.45,761.452 1157.26,771.325 1166.08,781.079 1174.89,790.706 1183.7,800.198 1192.52,809.548 1201.33,818.747 1210.14,827.788 1218.96,836.661 1227.77,845.36 1236.58,853.876 1245.4,862.201 1254.21,870.326 1263.02,878.245 1271.84,885.949 1280.65,893.43 1289.46,900.68 1298.27,907.689 1307.09,914.445 1315.9,920.933 1324.71,927.141 1333.53,933.054 1342.34,938.659 1351.15,943.944 1359.97,948.893 1368.78,953.494 1377.59,957.734 1386.41,961.598 1395.22,965.074 1404.03,968.147 1412.85,970.805 1421.66,973.033 1430.47,974.819 1439.29,976.151 1448.1,977.035 1456.91,977.481 1465.72,977.497 1474.54,977.093 1483.35,976.279 1492.16,975.064 1500.98,973.458 1509.79,971.47 1518.6,969.111 1527.42,966.397 1536.23,963.352 1545.04,959.996 1553.86,956.355 1562.67,952.448 1571.48,948.301 1580.3,943.934 1589.11,939.37 1597.92,934.633 1606.74,929.744 1615.55,924.727 1624.36,919.603 1633.17,914.396 1641.99,909.127 1650.8,903.82 1659.61,898.498 1668.43,893.181 1677.24,887.894 1686.05,882.659 1694.87,877.484 1703.68,872.344 1712.49,867.205 1721.31,862.033 1730.12,856.797 1738.93,851.462 1747.75,845.995 1756.56,840.364 1765.37,834.535 1774.19,828.475 1783,822.151 1791.81,815.53 1800.63,808.578 1809.44,801.264 1818.25,793.576 1827.06,785.519 1835.88,777.102 1844.69,768.331 1853.5,759.213 1862.32,749.756 1871.13,739.966 1879.94,729.851 1888.76,719.418 1897.57,708.674 1906.38,697.625 1915.2,686.28 1924.01,674.644 1932.82,662.726 1941.64,650.534 1950.45,638.093 1959.26,625.432 1968.08,612.584 1976.89,599.579 1985.7,586.449 1994.51,573.226 2003.33,559.94 2012.14,546.622 "/>
<polyline clip-path="url(#clip041)" style="stroke:#ff0000; stroke-linecap:round; stroke-linejoin:round; stroke-width:8; stroke-opacity:1; fill:none" stroke-dasharray="32, 20" points="258.321,617.842 265.251,608.92 267.325,606.251 268.979,604.124 277.476,593.213 282.148,587.227 290.477,576.585 298.15,566.823 298.236,566.713 299.637,564.936 303.399,560.169 313.376,547.593 318.007,541.789 326.024,531.798 336.781,518.518 341.145,513.176 343.729,510.026 346.947,506.116 351.559,500.542 355.435,495.883 356.328,494.814 375.303,472.42 379.546,467.507 392.616,452.608 393.877,451.191 399.378,445.047 413.968,429.1 417.351,425.478 420.641,421.984 428.681,413.564 430.208,411.984 433.146,408.963 437.941,404.084 439.316,402.697 444.911,397.109 446.977,395.069 451.381,390.762 453.322,388.883 466.437,376.485 467.512,375.492 470.944,372.349 479.942,364.291 480.488,363.811 482.788,361.799 494.422,351.896 499.267,347.911 508.408,340.62 511.625,338.125 523.435,329.298 524.622,328.44 526.494,327.097 527.752,326.202 528.868,325.413 529.73,324.808 530.403,324.336 544.567,314.829 568.511,300.579 573.162,298.084 575.387,296.922 580.031,294.564 585.46,291.923 597.854,286.365 606.565,282.855 614.416,279.976 615.54,279.586 619.963,278.106 621.159,277.721 621.979,277.46 633.928,274.002 636.387,273.37 638.844,272.765 644.529,271.47 655.433,269.395 661.603,268.459 665.995,267.899 675.947,266.955 677.403,266.855 684.097,266.519 685.164,266.485 690.829,266.388 698.067,266.479 708.49,267.031 709.88,267.142 714.975,267.625 715.026,267.631 721.748,268.45 741.711,272.095 745.234,272.925 757.801,276.34 760.222,277.079 764.682,278.509 789.626,288.114 793.827,289.998 795.902,290.956 804.006,294.874 815.252,300.768 829.402,308.929 834.021,311.769 849.576,321.957 853.684,324.805 865.483,333.345 875.723,341.178 883.053,347.02 883.176,347.119 889.489,352.307 889.792,352.56 906.988,367.406 913.256,373.063 914.251,373.973 914.97,374.632 921.479,380.677 923.122,382.224 924.838,383.849 929.853,388.649 930.658,389.427 937.472,396.087 938.411,397.015 940.594,399.184 945.258,403.864 952.057,410.796 957.31,416.241 960.053,419.113 963.805,423.073 973.884,433.893 977.347,437.669 978.062,438.452 992.138,454.115 1011.35,476.19 1022.12,488.882 1038.84,508.996 1043.07,514.147 1050.67,523.483 1057.15,531.493 1073.9,552.448 1074.14,552.753 1077.56,557.057 1079.66,559.712 1083.21,564.207 1091.27,574.453 1091.34,574.544 1093.22,576.94 1095.52,579.875 1105.22,592.283 1107.4,595.083 1111.51,600.362 1121.63,613.382 1126.74,619.958 1137.36,633.647 1143.18,641.143 1145.72,644.409 1147.56,646.777 1152.9,653.647 1153.48,654.398 1157.89,660.062 1189.84,700.806 1196.16,708.77 1205.68,720.689 1209.97,726.024 1210.99,727.291 1223.69,742.944 1227.91,748.096 1233.81,755.248 1234.49,756.068 1238.13,760.456 1260.32,786.674 1265.31,792.439 1266.85,794.214 1266.92,794.298 1269.57,797.332 1275.86,804.47 1281.81,811.141 1288.6,818.659 1293.24,823.725 1299.27,830.239 1301.65,832.791 1303.12,834.346 1310.3,841.91 1319.02,850.912 1320.08,851.992 1333.62,865.49 1338.21,869.948 1352.2,883.135 1358.39,888.765 1359.47,889.736 1395.79,920.034 1399.88,923.156 1400.97,923.976 1409.11,929.962 1409.83,930.476 1424.03,940.276 1425.33,941.138 1429.09,943.581 1430.61,944.555 1432.82,945.951 1435.05,947.341 1445.14,953.379 1450.62,956.481 1451.87,957.171 1454.04,958.355 1461.36,962.206 1478.94,970.524 1488.26,974.399 1490.25,975.174 1490.69,975.347 1494.24,976.683 1497.13,977.732 1498.6,978.25 1499.89,978.7 1502.3,979.516 1506.23,980.792 1510.8,982.191 1510.92,982.226 1512.39,982.655 1513.06,982.85 1513.07,982.852 1522.93,985.451 1523.79,985.657 1532.34,987.525 1532.47,987.55 1536.45,988.305 1555.32,990.903 1572,991.846 1576.67,991.882 1592.85,991.234 1599.19,990.653 1601.6,990.385 1608.91,989.408 1614.39,988.516 1627.62,985.802 1630.88,985.013 1633.63,984.309 1643.41,981.534 1646.98,980.414 1671.05,971.402 1672.93,970.594 1685.86,964.612 1694.01,960.475 1700.62,956.917 1704.66,954.65 1705.98,953.898 1739.95,932.08 1743.01,929.895 1744.45,928.855 1747.08,926.933 1749.63,925.038 1756.64,919.727 1766.73,911.753 1773.31,906.363 1773.93,905.852 1778.07,902.37 1780.89,899.967 1782.34,898.715 1782.94,898.2 1792.24,890.016 1796.13,886.511 1799.54,883.393 1803.53,879.696 1807.76,875.732 1821.47,862.483 1829.25,854.725 1834.12,849.767 1842.75,840.837 1851.92,831.139 1853.41,829.533 1856.39,826.327 1860.34,822.028 1861.9,820.325 1871.6,809.594 1873.29,807.703 1873.97,806.936 1892.79,785.416 1892.81,785.395 1902.76,773.722 1916.78,756.987 1923.35,749.03 1924.58,747.53 1929.98,740.932 1934.51,735.356 1935.17,734.548 1939.2,729.57 1945.23,722.081 1945.97,721.159 1946.43,720.581 1948.7,717.746 1955.14,709.676 1961.13,702.139 1965.29,696.868 1971.96,688.413 1979.64,678.621 1982.21,675.337 1982.54,674.927 1982.96,674.385 1983.69,673.455 1985.01,671.768 1988,667.935 1989.26,666.318 2007.57,642.78 2010.32,639.244 2011.18,638.133 2012.14,636.896 "/>
<path clip-path="url(#clip040)" d="M1572.67 311.335 L2002.79 311.335 L2002.79 155.815 L1572.67 155.815  Z" fill="#ffffff" fill-rule="evenodd" fill-opacity="1"/>
<polyline clip-path="url(#clip040)" style="stroke:#000000; stroke-linecap:round; stroke-linejoin:round; stroke-width:4; stroke-opacity:1; fill:none" points="1572.67,311.335 2002.79,311.335 2002.79,155.815 1572.67,155.815 1572.67,311.335 "/>
<polyline clip-path="url(#clip040)" style="stroke:#009af9; stroke-linecap:round; stroke-linejoin:round; stroke-width:8; stroke-opacity:1; fill:none" points="1593.33,207.655 1717.26,207.655 "/>
<path clip-path="url(#clip040)" d="M1756.35 199.773 L1756.35 203.8 Q1754.54 202.875 1752.6 202.412 Q1750.65 201.949 1748.57 201.949 Q1745.4 201.949 1743.8 202.921 Q1742.23 203.893 1742.23 205.838 Q1742.23 207.319 1743.36 208.175 Q1744.49 209.009 1747.92 209.773 L1749.38 210.097 Q1753.92 211.069 1755.81 212.851 Q1757.73 214.611 1757.73 217.782 Q1757.73 221.393 1754.86 223.499 Q1752.02 225.606 1747.02 225.606 Q1744.93 225.606 1742.67 225.189 Q1740.42 224.796 1737.92 223.986 L1737.92 219.587 Q1740.28 220.814 1742.57 221.439 Q1744.86 222.041 1747.11 222.041 Q1750.12 222.041 1751.74 221.023 Q1753.36 219.981 1753.36 218.106 Q1753.36 216.37 1752.18 215.444 Q1751.02 214.518 1747.06 213.662 L1745.58 213.314 Q1741.62 212.481 1739.86 210.768 Q1738.1 209.032 1738.1 206.023 Q1738.1 202.365 1740.7 200.375 Q1743.29 198.384 1748.06 198.384 Q1750.42 198.384 1752.5 198.731 Q1754.59 199.078 1756.35 199.773 Z" fill="#000000" fill-rule="nonzero" fill-opacity="1" /><path clip-path="url(#clip040)" d="M1774.75 188.963 Q1771.65 194.287 1770.14 199.495 Q1768.64 204.703 1768.64 210.05 Q1768.64 215.398 1770.14 220.652 Q1771.67 225.884 1774.75 231.185 L1771.04 231.185 Q1767.57 225.745 1765.84 220.49 Q1764.12 215.236 1764.12 210.05 Q1764.12 204.888 1765.84 199.657 Q1767.55 194.426 1771.04 188.963 L1774.75 188.963 Z" fill="#000000" fill-rule="nonzero" fill-opacity="1" /><path clip-path="url(#clip040)" d="M1804.56 199.009 L1795.19 211.625 L1805.05 224.935 L1800.03 224.935 L1792.48 214.749 L1784.93 224.935 L1779.91 224.935 L1789.98 211.37 L1780.77 199.009 L1785.79 199.009 L1792.66 208.245 L1799.54 199.009 L1804.56 199.009 Z" fill="#000000" fill-rule="nonzero" fill-opacity="1" /><path clip-path="url(#clip040)" d="M1810.4 188.963 L1814.1 188.963 Q1817.57 194.426 1819.29 199.657 Q1821.02 204.888 1821.02 210.05 Q1821.02 215.236 1819.29 220.49 Q1817.57 225.745 1814.1 231.185 L1810.4 231.185 Q1813.47 225.884 1814.98 220.652 Q1816.51 215.398 1816.51 210.05 Q1816.51 204.703 1814.98 199.495 Q1813.47 194.287 1810.4 188.963 Z" fill="#000000" fill-rule="nonzero" fill-opacity="1" /><path clip-path="url(#clip040)" d="M1861.97 195.213 L1861.97 204.171 L1874.86 204.171 L1874.86 208.106 L1861.97 208.106 L1861.97 217.064 L1858.08 217.064 L1858.08 208.106 L1845.19 208.106 L1845.19 204.171 L1858.08 204.171 L1858.08 195.213 L1861.97 195.213 M1845.19 220.999 L1874.86 220.999 L1874.86 224.935 L1845.19 224.935 L1845.19 220.999 Z" fill="#000000" fill-rule="nonzero" fill-opacity="1" /><path clip-path="url(#clip040)" d="M1904.05 220.999 L1920.37 220.999 L1920.37 224.935 L1898.43 224.935 L1898.43 220.999 Q1901.09 218.245 1905.67 213.615 Q1910.28 208.962 1911.46 207.62 Q1913.71 205.097 1914.59 203.361 Q1915.49 201.601 1915.49 199.912 Q1915.49 197.157 1913.54 195.421 Q1911.62 193.685 1908.52 193.685 Q1906.32 193.685 1903.87 194.449 Q1901.44 195.213 1898.66 196.763 L1898.66 192.041 Q1901.48 190.907 1903.94 190.328 Q1906.39 189.75 1908.43 189.75 Q1913.8 189.75 1916.99 192.435 Q1920.19 195.12 1920.19 199.611 Q1920.19 201.74 1919.38 203.662 Q1918.59 205.56 1916.48 208.152 Q1915.9 208.824 1912.8 212.041 Q1909.7 215.236 1904.05 220.999 Z" fill="#000000" fill-rule="nonzero" fill-opacity="1" /><path clip-path="url(#clip040)" d="M1950.49 191.509 L1950.49 196.069 Q1947.83 194.796 1945.46 194.171 Q1943.1 193.546 1940.9 193.546 Q1937.09 193.546 1935 195.027 Q1932.94 196.509 1932.94 199.24 Q1932.94 201.532 1934.31 202.713 Q1935.7 203.87 1939.54 204.588 L1942.36 205.166 Q1947.59 206.162 1950.07 208.685 Q1952.57 211.185 1952.57 215.398 Q1952.57 220.421 1949.19 223.013 Q1945.84 225.606 1939.33 225.606 Q1936.88 225.606 1934.1 225.05 Q1931.34 224.495 1928.38 223.407 L1928.38 218.592 Q1931.23 220.189 1933.96 220.999 Q1936.69 221.81 1939.33 221.81 Q1943.34 221.81 1945.51 220.236 Q1947.69 218.662 1947.69 215.745 Q1947.69 213.199 1946.11 211.763 Q1944.56 210.328 1941 209.611 L1938.15 209.055 Q1932.92 208.013 1930.58 205.791 Q1928.24 203.569 1928.24 199.611 Q1928.24 195.027 1931.46 192.389 Q1934.7 189.75 1940.37 189.75 Q1942.8 189.75 1945.33 190.189 Q1947.85 190.629 1950.49 191.509 Z" fill="#000000" fill-rule="nonzero" fill-opacity="1" /><path clip-path="url(#clip040)" d="M1959.86 190.375 L1981.71 190.375 L1981.71 194.31 L1964.54 194.31 L1964.54 204.541 L1981 204.541 L1981 208.476 L1964.54 208.476 L1964.54 220.999 L1982.13 220.999 L1982.13 224.935 L1959.86 224.935 L1959.86 190.375 Z" fill="#000000" fill-rule="nonzero" fill-opacity="1" /><polyline clip-path="url(#clip040)" style="stroke:#ff0000; stroke-linecap:round; stroke-linejoin:round; stroke-width:8; stroke-opacity:1; fill:none" stroke-dasharray="32, 20" points="1593.33,259.495 1717.26,259.495 "/>
<path clip-path="url(#clip040)" d="M1745.33 243.488 L1745.33 250.849 L1754.1 250.849 L1754.1 254.159 L1745.33 254.159 L1745.33 268.233 Q1745.33 271.404 1746.18 272.307 Q1747.06 273.21 1749.73 273.21 L1754.1 273.21 L1754.1 276.775 L1749.73 276.775 Q1744.79 276.775 1742.92 274.946 Q1741.04 273.094 1741.04 268.233 L1741.04 254.159 L1737.92 254.159 L1737.92 250.849 L1741.04 250.849 L1741.04 243.488 L1745.33 243.488 Z" fill="#000000" fill-rule="nonzero" fill-opacity="1" /><path clip-path="url(#clip040)" d="M1774.73 254.83 Q1774.01 254.414 1773.15 254.228 Q1772.32 254.02 1771.3 254.02 Q1767.69 254.02 1765.74 256.381 Q1763.82 258.719 1763.82 263.117 L1763.82 276.775 L1759.54 276.775 L1759.54 250.849 L1763.82 250.849 L1763.82 254.877 Q1765.17 252.515 1767.32 251.381 Q1769.47 250.224 1772.55 250.224 Q1772.99 250.224 1773.52 250.293 Q1774.05 250.34 1774.7 250.455 L1774.73 254.83 Z" fill="#000000" fill-rule="nonzero" fill-opacity="1" /><path clip-path="url(#clip040)" d="M1778.75 266.543 L1778.75 250.849 L1783.01 250.849 L1783.01 266.381 Q1783.01 270.062 1784.45 271.914 Q1785.88 273.742 1788.75 273.742 Q1792.2 273.742 1794.19 271.543 Q1796.21 269.344 1796.21 265.548 L1796.21 250.849 L1800.47 250.849 L1800.47 276.775 L1796.21 276.775 L1796.21 272.793 Q1794.66 275.154 1792.6 276.312 Q1790.56 277.446 1787.85 277.446 Q1783.38 277.446 1781.07 274.668 Q1778.75 271.89 1778.75 266.543 M1789.47 250.224 L1789.47 250.224 Z" fill="#000000" fill-rule="nonzero" fill-opacity="1" /><path clip-path="url(#clip040)" d="M1831.41 262.747 L1831.41 264.83 L1811.83 264.83 Q1812.11 269.228 1814.47 271.543 Q1816.85 273.835 1821.09 273.835 Q1823.54 273.835 1825.84 273.233 Q1828.15 272.631 1830.42 271.427 L1830.42 275.455 Q1828.13 276.427 1825.72 276.937 Q1823.31 277.446 1820.84 277.446 Q1814.63 277.446 1811 273.835 Q1807.39 270.224 1807.39 264.066 Q1807.39 257.701 1810.81 253.974 Q1814.26 250.224 1820.1 250.224 Q1825.33 250.224 1828.36 253.603 Q1831.41 256.96 1831.41 262.747 M1827.16 261.497 Q1827.11 258.002 1825.19 255.918 Q1823.29 253.835 1820.14 253.835 Q1816.58 253.835 1814.42 255.849 Q1812.29 257.863 1811.97 261.52 L1827.16 261.497 Z" fill="#000000" fill-rule="nonzero" fill-opacity="1" /><path clip-path="url(#clip040)" d="M1866.6 240.756 L1866.6 244.298 L1862.53 244.298 Q1860.23 244.298 1859.33 245.224 Q1858.45 246.15 1858.45 248.557 L1858.45 250.849 L1865.47 250.849 L1865.47 254.159 L1858.45 254.159 L1858.45 276.775 L1854.17 276.775 L1854.17 254.159 L1850.1 254.159 L1850.1 250.849 L1854.17 250.849 L1854.17 249.043 Q1854.17 244.715 1856.18 242.747 Q1858.2 240.756 1862.57 240.756 L1866.6 240.756 Z" fill="#000000" fill-rule="nonzero" fill-opacity="1" /><path clip-path="url(#clip040)" d="M1880.4 240.803 Q1877.29 246.127 1875.79 251.335 Q1874.28 256.543 1874.28 261.89 Q1874.28 267.238 1875.79 272.492 Q1877.32 277.724 1880.4 283.025 L1876.69 283.025 Q1873.22 277.585 1871.48 272.33 Q1869.77 267.076 1869.77 261.89 Q1869.77 256.728 1871.48 251.497 Q1873.2 246.266 1876.69 240.803 L1880.4 240.803 Z" fill="#000000" fill-rule="nonzero" fill-opacity="1" /><path clip-path="url(#clip040)" d="M1910.21 250.849 L1900.84 263.465 L1910.7 276.775 L1905.67 276.775 L1898.13 266.589 L1890.58 276.775 L1885.56 276.775 L1895.63 263.21 L1886.41 250.849 L1891.44 250.849 L1898.31 260.085 L1905.19 250.849 L1910.21 250.849 Z" fill="#000000" fill-rule="nonzero" fill-opacity="1" /><path clip-path="url(#clip040)" d="M1916.04 240.803 L1919.75 240.803 Q1923.22 246.266 1924.93 251.497 Q1926.67 256.728 1926.67 261.89 Q1926.67 267.076 1924.93 272.33 Q1923.22 277.585 1919.75 283.025 L1916.04 283.025 Q1919.12 277.724 1920.63 272.492 Q1922.15 267.238 1922.15 261.89 Q1922.15 256.543 1920.63 251.335 Q1919.12 246.127 1916.04 240.803 Z" fill="#000000" fill-rule="nonzero" fill-opacity="1" /></svg>
