<?xml version="1.0" encoding="utf-8"?>
<svg xmlns="http://www.w3.org/2000/svg" xmlns:xlink="http://www.w3.org/1999/xlink" width="528" height="336" viewBox="0 0 2112 1344">
<defs>
  <clipPath id="clip100">
    <rect x="0" y="0" width="2112" height="1344"/>
  </clipPath>
</defs>
<path clip-path="url(#clip100)" d="M0 1344 L2112 1344 L2112 2.13163e-14 L0 2.13163e-14  Z" fill="#ffffff" fill-rule="evenodd" fill-opacity="1"/>
<defs>
  <clipPath id="clip101">
    <rect x="252" y="120" width="1814" height="1054"/>
  </clipPath>
</defs>
<path clip-path="url(#clip100)" d="M252.164 1173.47 L2064.76 1173.47 L2064.76 120.723 L252.164 120.723  Z" fill="#ffffff" fill-rule="evenodd" fill-opacity="1"/>
<polyline clip-path="url(#clip101)" style="stroke:#000000; stroke-linecap:round; stroke-linejoin:round; stroke-width:2; stroke-opacity:0.1; fill:none" points="303.232,1173.47 303.232,120.723 "/>
<polyline clip-path="url(#clip101)" style="stroke:#000000; stroke-linecap:round; stroke-linejoin:round; stroke-width:2; stroke-opacity:0.1; fill:none" points="731.308,1173.47 731.308,120.723 "/>
<polyline clip-path="url(#clip101)" style="stroke:#000000; stroke-linecap:round; stroke-linejoin:round; stroke-width:2; stroke-opacity:0.1; fill:none" points="1159.38,1173.47 1159.38,120.723 "/>
<polyline clip-path="url(#clip101)" style="stroke:#000000; stroke-linecap:round; stroke-linejoin:round; stroke-width:2; stroke-opacity:0.1; fill:none" points="1587.46,1173.47 1587.46,120.723 "/>
<polyline clip-path="url(#clip101)" style="stroke:#000000; stroke-linecap:round; stroke-linejoin:round; stroke-width:2; stroke-opacity:0.1; fill:none" points="2015.53,1173.47 2015.53,120.723 "/>
<polyline clip-path="url(#clip101)" style="stroke:#000000; stroke-linecap:round; stroke-linejoin:round; stroke-width:2; stroke-opacity:0.1; fill:none" points="252.164,1090.8 2064.76,1090.8 "/>
<polyline clip-path="url(#clip101)" style="stroke:#000000; stroke-linecap:round; stroke-linejoin:round; stroke-width:2; stroke-opacity:0.1; fill:none" points="252.164,842.504 2064.76,842.504 "/>
<polyline clip-path="url(#clip101)" style="stroke:#000000; stroke-linecap:round; stroke-linejoin:round; stroke-width:2; stroke-opacity:0.1; fill:none" points="252.164,594.203 2064.76,594.203 "/>
<polyline clip-path="url(#clip101)" style="stroke:#000000; stroke-linecap:round; stroke-linejoin:round; stroke-width:2; stroke-opacity:0.1; fill:none" points="252.164,345.902 2064.76,345.902 "/>
<polyline clip-path="url(#clip100)" style="stroke:#000000; stroke-linecap:round; stroke-linejoin:round; stroke-width:4; stroke-opacity:1; fill:none" points="252.164,1173.47 2064.76,1173.47 "/>
<polyline clip-path="url(#clip100)" style="stroke:#000000; stroke-linecap:round; stroke-linejoin:round; stroke-width:4; stroke-opacity:1; fill:none" points="303.232,1173.47 303.232,1154.57 "/>
<polyline clip-path="url(#clip100)" style="stroke:#000000; stroke-linecap:round; stroke-linejoin:round; stroke-width:4; stroke-opacity:1; fill:none" points="731.308,1173.47 731.308,1154.57 "/>
<polyline clip-path="url(#clip100)" style="stroke:#000000; stroke-linecap:round; stroke-linejoin:round; stroke-width:4; stroke-opacity:1; fill:none" points="1159.38,1173.47 1159.38,1154.57 "/>
<polyline clip-path="url(#clip100)" style="stroke:#000000; stroke-linecap:round; stroke-linejoin:round; stroke-width:4; stroke-opacity:1; fill:none" points="1587.46,1173.47 1587.46,1154.57 "/>
<polyline clip-path="url(#clip100)" style="stroke:#000000; stroke-linecap:round; stroke-linejoin:round; stroke-width:4; stroke-opacity:1; fill:none" points="2015.53,1173.47 2015.53,1154.57 "/>
<path clip-path="url(#clip100)" d="M265.535 1202.09 Q261.924 1202.09 260.096 1205.65 Q258.29 1209.19 258.29 1216.32 Q258.29 1223.43 260.096 1226.99 Q261.924 1230.53 265.535 1230.53 Q269.17 1230.53 270.975 1226.99 Q272.804 1223.43 272.804 1216.32 Q272.804 1209.19 270.975 1205.65 Q269.17 1202.09 265.535 1202.09 M265.535 1198.38 Q271.346 1198.38 274.401 1202.99 Q277.48 1207.57 277.48 1216.32 Q277.48 1225.05 274.401 1229.65 Q271.346 1234.24 265.535 1234.24 Q259.725 1234.24 256.647 1229.65 Q253.591 1225.05 253.591 1216.32 Q253.591 1207.57 256.647 1202.99 Q259.725 1198.38 265.535 1198.38 Z" fill="#000000" fill-rule="nonzero" fill-opacity="1" /><path clip-path="url(#clip100)" d="M285.697 1227.69 L290.582 1227.69 L290.582 1233.57 L285.697 1233.57 L285.697 1227.69 Z" fill="#000000" fill-rule="nonzero" fill-opacity="1" /><path clip-path="url(#clip100)" d="M310.767 1202.09 Q307.156 1202.09 305.327 1205.65 Q303.521 1209.19 303.521 1216.32 Q303.521 1223.43 305.327 1226.99 Q307.156 1230.53 310.767 1230.53 Q314.401 1230.53 316.206 1226.99 Q318.035 1223.43 318.035 1216.32 Q318.035 1209.19 316.206 1205.65 Q314.401 1202.09 310.767 1202.09 M310.767 1198.38 Q316.577 1198.38 319.632 1202.99 Q322.711 1207.57 322.711 1216.32 Q322.711 1225.05 319.632 1229.65 Q316.577 1234.24 310.767 1234.24 Q304.956 1234.24 301.878 1229.65 Q298.822 1225.05 298.822 1216.32 Q298.822 1207.57 301.878 1202.99 Q304.956 1198.38 310.767 1198.38 Z" fill="#000000" fill-rule="nonzero" fill-opacity="1" /><path clip-path="url(#clip100)" d="M340.929 1202.09 Q337.317 1202.09 335.489 1205.65 Q333.683 1209.19 333.683 1216.32 Q333.683 1223.43 335.489 1226.99 Q337.317 1230.53 340.929 1230.53 Q344.563 1230.53 346.368 1226.99 Q348.197 1223.43 348.197 1216.32 Q348.197 1209.19 346.368 1205.65 Q344.563 1202.09 340.929 1202.09 M340.929 1198.38 Q346.739 1198.38 349.794 1202.99 Q352.873 1207.57 352.873 1216.32 Q352.873 1225.05 349.794 1229.65 Q346.739 1234.24 340.929 1234.24 Q335.118 1234.24 332.04 1229.65 Q328.984 1225.05 328.984 1216.32 Q328.984 1207.57 332.04 1202.99 Q335.118 1198.38 340.929 1198.38 Z" fill="#000000" fill-rule="nonzero" fill-opacity="1" /><path clip-path="url(#clip100)" d="M694.109 1202.09 Q690.498 1202.09 688.669 1205.65 Q686.863 1209.19 686.863 1216.32 Q686.863 1223.43 688.669 1226.99 Q690.498 1230.53 694.109 1230.53 Q697.743 1230.53 699.549 1226.99 Q701.377 1223.43 701.377 1216.32 Q701.377 1209.19 699.549 1205.65 Q697.743 1202.09 694.109 1202.09 M694.109 1198.38 Q699.919 1198.38 702.974 1202.99 Q706.053 1207.57 706.053 1216.32 Q706.053 1225.05 702.974 1229.65 Q699.919 1234.24 694.109 1234.24 Q688.299 1234.24 685.22 1229.65 Q682.164 1225.05 682.164 1216.32 Q682.164 1207.57 685.22 1202.99 Q688.299 1198.38 694.109 1198.38 Z" fill="#000000" fill-rule="nonzero" fill-opacity="1" /><path clip-path="url(#clip100)" d="M714.271 1227.69 L719.155 1227.69 L719.155 1233.57 L714.271 1233.57 L714.271 1227.69 Z" fill="#000000" fill-rule="nonzero" fill-opacity="1" /><path clip-path="url(#clip100)" d="M733.368 1229.63 L749.687 1229.63 L749.687 1233.57 L727.743 1233.57 L727.743 1229.63 Q730.405 1226.88 734.988 1222.25 Q739.595 1217.59 740.775 1216.25 Q743.021 1213.73 743.9 1211.99 Q744.803 1210.23 744.803 1208.54 Q744.803 1205.79 742.858 1204.05 Q740.937 1202.32 737.835 1202.32 Q735.636 1202.32 733.183 1203.08 Q730.752 1203.84 727.974 1205.4 L727.974 1200.67 Q730.798 1199.54 733.252 1198.96 Q735.706 1198.38 737.743 1198.38 Q743.113 1198.38 746.308 1201.07 Q749.502 1203.75 749.502 1208.24 Q749.502 1210.37 748.692 1212.29 Q747.905 1214.19 745.798 1216.78 Q745.22 1217.46 742.118 1220.67 Q739.016 1223.87 733.368 1229.63 Z" fill="#000000" fill-rule="nonzero" fill-opacity="1" /><path clip-path="url(#clip100)" d="M759.548 1199.01 L777.905 1199.01 L777.905 1202.94 L763.831 1202.94 L763.831 1211.41 Q764.849 1211.07 765.868 1210.9 Q766.886 1210.72 767.905 1210.72 Q773.692 1210.72 777.071 1213.89 Q780.451 1217.06 780.451 1222.48 Q780.451 1228.06 776.979 1231.16 Q773.506 1234.24 767.187 1234.24 Q765.011 1234.24 762.743 1233.87 Q760.497 1233.5 758.09 1232.76 L758.09 1228.06 Q760.173 1229.19 762.395 1229.75 Q764.618 1230.3 767.094 1230.3 Q771.099 1230.3 773.437 1228.2 Q775.775 1226.09 775.775 1222.48 Q775.775 1218.87 773.437 1216.76 Q771.099 1214.65 767.094 1214.65 Q765.219 1214.65 763.344 1215.07 Q761.493 1215.49 759.548 1216.37 L759.548 1199.01 Z" fill="#000000" fill-rule="nonzero" fill-opacity="1" /><path clip-path="url(#clip100)" d="M1121.69 1202.09 Q1118.08 1202.09 1116.25 1205.65 Q1114.44 1209.19 1114.44 1216.32 Q1114.44 1223.43 1116.25 1226.99 Q1118.08 1230.53 1121.69 1230.53 Q1125.32 1230.53 1127.13 1226.99 Q1128.96 1223.43 1128.96 1216.32 Q1128.96 1209.19 1127.13 1205.65 Q1125.32 1202.09 1121.69 1202.09 M1121.69 1198.38 Q1127.5 1198.38 1130.55 1202.99 Q1133.63 1207.57 1133.63 1216.32 Q1133.63 1225.05 1130.55 1229.65 Q1127.5 1234.24 1121.69 1234.24 Q1115.88 1234.24 1112.8 1229.65 Q1109.74 1225.05 1109.74 1216.32 Q1109.74 1207.57 1112.8 1202.99 Q1115.88 1198.38 1121.69 1198.38 Z" fill="#000000" fill-rule="nonzero" fill-opacity="1" /><path clip-path="url(#clip100)" d="M1141.85 1227.69 L1146.73 1227.69 L1146.73 1233.57 L1141.85 1233.57 L1141.85 1227.69 Z" fill="#000000" fill-rule="nonzero" fill-opacity="1" /><path clip-path="url(#clip100)" d="M1156.96 1199.01 L1175.32 1199.01 L1175.32 1202.94 L1161.25 1202.94 L1161.25 1211.41 Q1162.27 1211.07 1163.28 1210.9 Q1164.3 1210.72 1165.32 1210.72 Q1171.11 1210.72 1174.49 1213.89 Q1177.87 1217.06 1177.87 1222.48 Q1177.87 1228.06 1174.39 1231.16 Q1170.92 1234.24 1164.6 1234.24 Q1162.43 1234.24 1160.16 1233.87 Q1157.91 1233.5 1155.51 1232.76 L1155.51 1228.06 Q1157.59 1229.19 1159.81 1229.75 Q1162.03 1230.3 1164.51 1230.3 Q1168.52 1230.3 1170.85 1228.2 Q1173.19 1226.09 1173.19 1222.48 Q1173.19 1218.87 1170.85 1216.76 Q1168.52 1214.65 1164.51 1214.65 Q1162.64 1214.65 1160.76 1215.07 Q1158.91 1215.49 1156.96 1216.37 L1156.96 1199.01 Z" fill="#000000" fill-rule="nonzero" fill-opacity="1" /><path clip-path="url(#clip100)" d="M1197.08 1202.09 Q1193.47 1202.09 1191.64 1205.65 Q1189.83 1209.19 1189.83 1216.32 Q1189.83 1223.43 1191.64 1226.99 Q1193.47 1230.53 1197.08 1230.53 Q1200.71 1230.53 1202.52 1226.99 Q1204.35 1223.43 1204.35 1216.32 Q1204.35 1209.19 1202.52 1205.65 Q1200.71 1202.09 1197.08 1202.09 M1197.08 1198.38 Q1202.89 1198.38 1205.95 1202.99 Q1209.02 1207.57 1209.02 1216.32 Q1209.02 1225.05 1205.95 1229.65 Q1202.89 1234.24 1197.08 1234.24 Q1191.27 1234.24 1188.19 1229.65 Q1185.14 1225.05 1185.14 1216.32 Q1185.14 1207.57 1188.19 1202.99 Q1191.27 1198.38 1197.08 1198.38 Z" fill="#000000" fill-rule="nonzero" fill-opacity="1" /><path clip-path="url(#clip100)" d="M1550.26 1202.09 Q1546.65 1202.09 1544.82 1205.65 Q1543.01 1209.19 1543.01 1216.32 Q1543.01 1223.43 1544.82 1226.99 Q1546.65 1230.53 1550.26 1230.53 Q1553.89 1230.53 1555.7 1226.99 Q1557.53 1223.43 1557.53 1216.32 Q1557.53 1209.19 1555.7 1205.65 Q1553.89 1202.09 1550.26 1202.09 M1550.26 1198.38 Q1556.07 1198.38 1559.13 1202.99 Q1562.2 1207.57 1562.2 1216.32 Q1562.2 1225.05 1559.13 1229.65 Q1556.07 1234.24 1550.26 1234.24 Q1544.45 1234.24 1541.37 1229.65 Q1538.32 1225.05 1538.32 1216.32 Q1538.32 1207.57 1541.37 1202.99 Q1544.45 1198.38 1550.26 1198.38 Z" fill="#000000" fill-rule="nonzero" fill-opacity="1" /><path clip-path="url(#clip100)" d="M1570.42 1227.69 L1575.31 1227.69 L1575.31 1233.57 L1570.42 1233.57 L1570.42 1227.69 Z" fill="#000000" fill-rule="nonzero" fill-opacity="1" /><path clip-path="url(#clip100)" d="M1584.31 1199.01 L1606.53 1199.01 L1606.53 1201 L1593.99 1233.57 L1589.1 1233.57 L1600.91 1202.94 L1584.31 1202.94 L1584.31 1199.01 Z" fill="#000000" fill-rule="nonzero" fill-opacity="1" /><path clip-path="url(#clip100)" d="M1615.7 1199.01 L1634.06 1199.01 L1634.06 1202.94 L1619.98 1202.94 L1619.98 1211.41 Q1621 1211.07 1622.02 1210.9 Q1623.04 1210.72 1624.06 1210.72 Q1629.84 1210.72 1633.22 1213.89 Q1636.6 1217.06 1636.6 1222.48 Q1636.6 1228.06 1633.13 1231.16 Q1629.66 1234.24 1623.34 1234.24 Q1621.16 1234.24 1618.89 1233.87 Q1616.65 1233.5 1614.24 1232.76 L1614.24 1228.06 Q1616.32 1229.19 1618.55 1229.75 Q1620.77 1230.3 1623.25 1230.3 Q1627.25 1230.3 1629.59 1228.2 Q1631.93 1226.09 1631.93 1222.48 Q1631.93 1218.87 1629.59 1216.76 Q1627.25 1214.65 1623.25 1214.65 Q1621.37 1214.65 1619.5 1215.07 Q1617.64 1215.49 1615.7 1216.37 L1615.7 1199.01 Z" fill="#000000" fill-rule="nonzero" fill-opacity="1" /><path clip-path="url(#clip100)" d="M1967.61 1229.63 L1975.25 1229.63 L1975.25 1203.27 L1966.94 1204.93 L1966.94 1200.67 L1975.2 1199.01 L1979.88 1199.01 L1979.88 1229.63 L1987.51 1229.63 L1987.51 1233.57 L1967.61 1233.57 L1967.61 1229.63 Z" fill="#000000" fill-rule="nonzero" fill-opacity="1" /><path clip-path="url(#clip100)" d="M1996.96 1227.69 L2001.84 1227.69 L2001.84 1233.57 L1996.96 1233.57 L1996.96 1227.69 Z" fill="#000000" fill-rule="nonzero" fill-opacity="1" /><path clip-path="url(#clip100)" d="M2022.03 1202.09 Q2018.42 1202.09 2016.59 1205.65 Q2014.78 1209.19 2014.78 1216.32 Q2014.78 1223.43 2016.59 1226.99 Q2018.42 1230.53 2022.03 1230.53 Q2025.66 1230.53 2027.47 1226.99 Q2029.3 1223.43 2029.3 1216.32 Q2029.3 1209.19 2027.47 1205.65 Q2025.66 1202.09 2022.03 1202.09 M2022.03 1198.38 Q2027.84 1198.38 2030.89 1202.99 Q2033.97 1207.57 2033.97 1216.32 Q2033.97 1225.05 2030.89 1229.65 Q2027.84 1234.24 2022.03 1234.24 Q2016.22 1234.24 2013.14 1229.65 Q2010.08 1225.05 2010.08 1216.32 Q2010.08 1207.57 2013.14 1202.99 Q2016.22 1198.38 2022.03 1198.38 Z" fill="#000000" fill-rule="nonzero" fill-opacity="1" /><path clip-path="url(#clip100)" d="M2052.19 1202.09 Q2048.58 1202.09 2046.75 1205.65 Q2044.94 1209.19 2044.94 1216.32 Q2044.94 1223.43 2046.75 1226.99 Q2048.58 1230.53 2052.19 1230.53 Q2055.82 1230.53 2057.63 1226.99 Q2059.46 1223.43 2059.46 1216.32 Q2059.46 1209.19 2057.63 1205.65 Q2055.82 1202.09 2052.19 1202.09 M2052.19 1198.38 Q2058 1198.38 2061.06 1202.99 Q2064.13 1207.57 2064.13 1216.32 Q2064.13 1225.05 2061.06 1229.65 Q2058 1234.24 2052.19 1234.24 Q2046.38 1234.24 2043.3 1229.65 Q2040.25 1225.05 2040.25 1216.32 Q2040.25 1207.57 2043.3 1202.99 Q2046.38 1198.38 2052.19 1198.38 Z" fill="#000000" fill-rule="nonzero" fill-opacity="1" /><path clip-path="url(#clip100)" d="M1175.07 1278.37 L1162.18 1295.71 L1175.74 1314.01 L1168.84 1314.01 L1158.46 1300.01 L1148.08 1314.01 L1141.18 1314.01 L1155.02 1295.36 L1142.35 1278.37 L1149.26 1278.37 L1158.71 1291.07 L1168.17 1278.37 L1175.07 1278.37 Z" fill="#000000" fill-rule="nonzero" fill-opacity="1" /><polyline clip-path="url(#clip100)" style="stroke:#000000; stroke-linecap:round; stroke-linejoin:round; stroke-width:4; stroke-opacity:1; fill:none" points="252.164,1173.47 252.164,120.723 "/>
<polyline clip-path="url(#clip100)" style="stroke:#000000; stroke-linecap:round; stroke-linejoin:round; stroke-width:4; stroke-opacity:1; fill:none" points="252.164,1090.8 271.062,1090.8 "/>
<polyline clip-path="url(#clip100)" style="stroke:#000000; stroke-linecap:round; stroke-linejoin:round; stroke-width:4; stroke-opacity:1; fill:none" points="252.164,842.504 271.062,842.504 "/>
<polyline clip-path="url(#clip100)" style="stroke:#000000; stroke-linecap:round; stroke-linejoin:round; stroke-width:4; stroke-opacity:1; fill:none" points="252.164,594.203 271.062,594.203 "/>
<polyline clip-path="url(#clip100)" style="stroke:#000000; stroke-linecap:round; stroke-linejoin:round; stroke-width:4; stroke-opacity:1; fill:none" points="252.164,345.902 271.062,345.902 "/>
<path clip-path="url(#clip100)" d="M113.54 1091.26 L143.216 1091.26 L143.216 1095.19 L113.54 1095.19 L113.54 1091.26 Z" fill="#000000" fill-rule="nonzero" fill-opacity="1" /><path clip-path="url(#clip100)" d="M154.119 1104.15 L161.757 1104.15 L161.757 1077.78 L153.447 1079.45 L153.447 1075.19 L161.711 1073.52 L166.387 1073.52 L166.387 1104.15 L174.026 1104.15 L174.026 1108.08 L154.119 1108.08 L154.119 1104.15 Z" fill="#000000" fill-rule="nonzero" fill-opacity="1" /><path clip-path="url(#clip100)" d="M183.47 1102.2 L188.355 1102.2 L188.355 1108.08 L183.47 1108.08 L183.47 1102.2 Z" fill="#000000" fill-rule="nonzero" fill-opacity="1" /><path clip-path="url(#clip100)" d="M208.54 1076.6 Q204.929 1076.6 203.1 1080.17 Q201.294 1083.71 201.294 1090.84 Q201.294 1097.95 203.1 1101.51 Q204.929 1105.05 208.54 1105.05 Q212.174 1105.05 213.979 1101.51 Q215.808 1097.95 215.808 1090.84 Q215.808 1083.71 213.979 1080.17 Q212.174 1076.6 208.54 1076.6 M208.54 1072.9 Q214.35 1072.9 217.405 1077.51 Q220.484 1082.09 220.484 1090.84 Q220.484 1099.57 217.405 1104.17 Q214.35 1108.76 208.54 1108.76 Q202.729 1108.76 199.651 1104.17 Q196.595 1099.57 196.595 1090.84 Q196.595 1082.09 199.651 1077.51 Q202.729 1072.9 208.54 1072.9 Z" fill="#000000" fill-rule="nonzero" fill-opacity="1" /><path clip-path="url(#clip100)" d="M114.536 842.955 L144.211 842.955 L144.211 846.89 L114.536 846.89 L114.536 842.955 Z" fill="#000000" fill-rule="nonzero" fill-opacity="1" /><path clip-path="url(#clip100)" d="M164.304 828.302 Q160.693 828.302 158.864 831.867 Q157.058 835.409 157.058 842.538 Q157.058 849.645 158.864 853.21 Q160.693 856.751 164.304 856.751 Q167.938 856.751 169.744 853.21 Q171.572 849.645 171.572 842.538 Q171.572 835.409 169.744 831.867 Q167.938 828.302 164.304 828.302 M164.304 824.599 Q170.114 824.599 173.169 829.205 Q176.248 833.789 176.248 842.538 Q176.248 851.265 173.169 855.872 Q170.114 860.455 164.304 860.455 Q158.494 860.455 155.415 855.872 Q152.359 851.265 152.359 842.538 Q152.359 833.789 155.415 829.205 Q158.494 824.599 164.304 824.599 Z" fill="#000000" fill-rule="nonzero" fill-opacity="1" /><path clip-path="url(#clip100)" d="M184.466 853.904 L189.35 853.904 L189.35 859.784 L184.466 859.784 L184.466 853.904 Z" fill="#000000" fill-rule="nonzero" fill-opacity="1" /><path clip-path="url(#clip100)" d="M199.581 825.224 L217.938 825.224 L217.938 829.159 L203.864 829.159 L203.864 837.631 Q204.882 837.284 205.901 837.122 Q206.919 836.937 207.938 836.937 Q213.725 836.937 217.104 840.108 Q220.484 843.279 220.484 848.696 Q220.484 854.275 217.012 857.376 Q213.54 860.455 207.22 860.455 Q205.044 860.455 202.776 860.085 Q200.53 859.714 198.123 858.974 L198.123 854.275 Q200.206 855.409 202.429 855.964 Q204.651 856.52 207.128 856.52 Q211.132 856.52 213.47 854.413 Q215.808 852.307 215.808 848.696 Q215.808 845.085 213.47 842.978 Q211.132 840.872 207.128 840.872 Q205.253 840.872 203.378 841.288 Q201.526 841.705 199.581 842.585 L199.581 825.224 Z" fill="#000000" fill-rule="nonzero" fill-opacity="1" /><path clip-path="url(#clip100)" d="M163.308 580.002 Q159.697 580.002 157.869 583.566 Q156.063 587.108 156.063 594.238 Q156.063 601.344 157.869 604.909 Q159.697 608.451 163.308 608.451 Q166.943 608.451 168.748 604.909 Q170.577 601.344 170.577 594.238 Q170.577 587.108 168.748 583.566 Q166.943 580.002 163.308 580.002 M163.308 576.298 Q169.119 576.298 172.174 580.904 Q175.253 585.488 175.253 594.238 Q175.253 602.964 172.174 607.571 Q169.119 612.154 163.308 612.154 Q157.498 612.154 154.42 607.571 Q151.364 602.964 151.364 594.238 Q151.364 585.488 154.42 580.904 Q157.498 576.298 163.308 576.298 Z" fill="#000000" fill-rule="nonzero" fill-opacity="1" /><path clip-path="url(#clip100)" d="M183.47 605.603 L188.355 605.603 L188.355 611.483 L183.47 611.483 L183.47 605.603 Z" fill="#000000" fill-rule="nonzero" fill-opacity="1" /><path clip-path="url(#clip100)" d="M208.54 580.002 Q204.929 580.002 203.1 583.566 Q201.294 587.108 201.294 594.238 Q201.294 601.344 203.1 604.909 Q204.929 608.451 208.54 608.451 Q212.174 608.451 213.979 604.909 Q215.808 601.344 215.808 594.238 Q215.808 587.108 213.979 583.566 Q212.174 580.002 208.54 580.002 M208.54 576.298 Q214.35 576.298 217.405 580.904 Q220.484 585.488 220.484 594.238 Q220.484 602.964 217.405 607.571 Q214.35 612.154 208.54 612.154 Q202.729 612.154 199.651 607.571 Q196.595 602.964 196.595 594.238 Q196.595 585.488 199.651 580.904 Q202.729 576.298 208.54 576.298 Z" fill="#000000" fill-rule="nonzero" fill-opacity="1" /><path clip-path="url(#clip100)" d="M164.304 331.701 Q160.693 331.701 158.864 335.266 Q157.058 338.807 157.058 345.937 Q157.058 353.043 158.864 356.608 Q160.693 360.15 164.304 360.15 Q167.938 360.15 169.744 356.608 Q171.572 353.043 171.572 345.937 Q171.572 338.807 169.744 335.266 Q167.938 331.701 164.304 331.701 M164.304 327.997 Q170.114 327.997 173.169 332.604 Q176.248 337.187 176.248 345.937 Q176.248 354.664 173.169 359.27 Q170.114 363.853 164.304 363.853 Q158.494 363.853 155.415 359.27 Q152.359 354.664 152.359 345.937 Q152.359 337.187 155.415 332.604 Q158.494 327.997 164.304 327.997 Z" fill="#000000" fill-rule="nonzero" fill-opacity="1" /><path clip-path="url(#clip100)" d="M184.466 357.303 L189.35 357.303 L189.35 363.182 L184.466 363.182 L184.466 357.303 Z" fill="#000000" fill-rule="nonzero" fill-opacity="1" /><path clip-path="url(#clip100)" d="M199.581 328.622 L217.938 328.622 L217.938 332.557 L203.864 332.557 L203.864 341.029 Q204.882 340.682 205.901 340.52 Q206.919 340.335 207.938 340.335 Q213.725 340.335 217.104 343.506 Q220.484 346.678 220.484 352.094 Q220.484 357.673 217.012 360.775 Q213.54 363.853 207.22 363.853 Q205.044 363.853 202.776 363.483 Q200.53 363.113 198.123 362.372 L198.123 357.673 Q200.206 358.807 202.429 359.363 Q204.651 359.918 207.128 359.918 Q211.132 359.918 213.47 357.812 Q215.808 355.705 215.808 352.094 Q215.808 348.483 213.47 346.377 Q211.132 344.27 207.128 344.27 Q205.253 344.27 203.378 344.687 Q201.526 345.104 199.581 345.983 L199.581 328.622 Z" fill="#000000" fill-rule="nonzero" fill-opacity="1" /><path clip-path="url(#clip100)" d="M18.079 856.863 L22.9487 856.863 L22.9487 862.465 Q22.9487 865.616 24.2219 866.857 Q25.495 868.066 28.8052 868.066 L31.9562 868.066 L31.9562 858.422 L36.5077 858.422 L36.5077 868.066 L67.6042 868.066 L67.6042 873.955 L36.5077 873.955 L36.5077 879.557 L31.9562 879.557 L31.9562 873.955 L29.4736 873.955 Q23.5216 873.955 20.8162 871.186 Q18.079 868.417 18.079 862.401 L18.079 856.863 Z" fill="#000000" fill-rule="nonzero" fill-opacity="1" /><path clip-path="url(#clip100)" d="M18.1426 837.893 Q25.4632 842.158 32.6246 844.227 Q39.786 846.296 47.1384 846.296 Q54.4908 846.296 61.7159 844.227 Q68.9091 842.126 76.1979 837.893 L76.1979 842.986 Q68.7182 847.76 61.4931 850.147 Q54.268 852.502 47.1384 852.502 Q40.0406 852.502 32.8474 850.147 Q25.6542 847.792 18.1426 842.986 L18.1426 837.893 Z" fill="#000000" fill-rule="nonzero" fill-opacity="1" /><path clip-path="url(#clip100)" d="M31.9562 796.898 L49.3028 809.788 L67.6042 796.229 L67.6042 803.136 L53.5996 813.512 L67.6042 823.888 L67.6042 830.795 L48.9526 816.95 L31.9562 829.618 L31.9562 822.711 L44.6558 813.258 L31.9562 803.805 L31.9562 796.898 Z" fill="#000000" fill-rule="nonzero" fill-opacity="1" /><path clip-path="url(#clip100)" d="M18.1426 788.877 L18.1426 783.785 Q25.6542 779.01 32.8474 776.655 Q40.0406 774.268 47.1384 774.268 Q54.268 774.268 61.4931 776.655 Q68.7182 779.01 76.1979 783.785 L76.1979 788.877 Q68.9091 784.644 61.7159 782.575 Q54.4908 780.474 47.1384 780.474 Q39.786 780.474 32.6246 782.575 Q25.4632 784.644 18.1426 788.877 Z" fill="#000000" fill-rule="nonzero" fill-opacity="1" /><path clip-path="url(#clip100)" d="M18.079 742.344 L18.079 728.848 L22.6304 728.848 L22.6304 736.487 L71.6464 736.487 L71.6464 728.848 L76.1979 728.848 L76.1979 742.344 L18.079 742.344 Z" fill="#000000" fill-rule="nonzero" fill-opacity="1" /><path clip-path="url(#clip100)" d="M18.079 716.372 L18.079 710.515 L67.6042 710.515 L67.6042 716.372 L18.079 716.372 Z" fill="#000000" fill-rule="nonzero" fill-opacity="1" /><path clip-path="url(#clip100)" d="M36.0621 684.448 Q36.0621 689.158 39.7542 691.896 Q43.4145 694.633 49.812 694.633 Q56.2095 694.633 59.9017 691.927 Q63.5619 689.19 63.5619 684.448 Q63.5619 679.769 59.8698 677.032 Q56.1777 674.294 49.812 674.294 Q43.4781 674.294 39.786 677.032 Q36.0621 679.769 36.0621 684.448 M31.0968 684.448 Q31.0968 676.809 36.0621 672.448 Q41.0273 668.088 49.812 668.088 Q58.5649 668.088 63.5619 672.448 Q68.5272 676.809 68.5272 684.448 Q68.5272 692.118 63.5619 696.479 Q58.5649 700.808 49.812 700.808 Q41.0273 700.808 36.0621 696.479 Q31.0968 692.118 31.0968 684.448 Z" fill="#000000" fill-rule="nonzero" fill-opacity="1" /><path clip-path="url(#clip100)" d="M49.3664 634.922 Q43.0007 634.922 39.4996 637.564 Q35.9984 640.174 35.9984 644.917 Q35.9984 649.627 39.4996 652.269 Q43.0007 654.879 49.3664 654.879 Q55.7003 654.879 59.2014 652.269 Q62.7026 649.627 62.7026 644.917 Q62.7026 640.174 59.2014 637.564 Q55.7003 634.922 49.3664 634.922 M63.18 629.066 Q72.283 629.066 76.7071 633.108 Q81.1631 637.15 81.1631 645.49 Q81.1631 648.577 80.6857 651.314 Q80.2401 654.051 79.2852 656.63 L73.5879 656.63 Q74.9884 654.051 75.6568 651.537 Q76.3252 649.023 76.3252 646.413 Q76.3252 640.652 73.3015 637.787 Q70.3096 634.922 64.2303 634.922 L61.3339 634.922 Q64.485 636.737 66.0446 639.569 Q67.6042 642.402 67.6042 646.349 Q67.6042 652.906 62.6071 656.916 Q57.61 660.926 49.3664 660.926 Q41.091 660.926 36.0939 656.916 Q31.0968 652.906 31.0968 646.349 Q31.0968 642.402 32.6564 639.569 Q34.216 636.737 37.3671 634.922 L31.9562 634.922 L31.9562 629.066 L63.18 629.066 Z" fill="#000000" fill-rule="nonzero" fill-opacity="1" /><path clip-path="url(#clip100)" d="M33.0065 573.557 L38.5447 573.557 Q37.2716 576.04 36.635 578.713 Q35.9984 581.387 35.9984 584.251 Q35.9984 588.612 37.3352 590.808 Q38.672 592.972 41.3456 592.972 Q43.3826 592.972 44.5603 591.413 Q45.7061 589.853 46.7565 585.143 L47.2021 583.137 Q48.5389 576.899 50.9897 574.289 Q53.4086 571.647 57.7691 571.647 Q62.7344 571.647 65.6308 575.594 Q68.5272 579.509 68.5272 586.384 Q68.5272 589.249 67.9543 592.368 Q67.4132 595.455 66.2992 598.893 L60.2518 598.893 Q61.9387 595.646 62.798 592.495 Q63.6256 589.344 63.6256 586.257 Q63.6256 582.119 62.2251 579.891 Q60.7929 577.663 58.2147 577.663 Q55.8276 577.663 54.5545 579.286 Q53.2813 580.878 52.1037 586.32 L51.6262 588.357 Q50.4804 593.8 48.1251 596.219 Q45.738 598.638 41.6002 598.638 Q36.5713 598.638 33.8341 595.073 Q31.0968 591.508 31.0968 584.952 Q31.0968 581.705 31.5743 578.841 Q32.0517 575.976 33.0065 573.557 Z" fill="#000000" fill-rule="nonzero" fill-opacity="1" /><path clip-path="url(#clip100)" d="M33.3248 536.668 L38.7993 536.668 Q37.4307 539.15 36.7623 541.665 Q36.0621 544.148 36.0621 546.694 Q36.0621 552.391 39.6905 555.542 Q43.2872 558.693 49.812 558.693 Q56.3369 558.693 59.9653 555.542 Q63.5619 552.391 63.5619 546.694 Q63.5619 544.148 62.8935 541.665 Q62.1933 539.15 60.8247 536.668 L66.2355 536.668 Q67.3814 539.119 67.9543 541.76 Q68.5272 544.37 68.5272 547.33 Q68.5272 555.383 63.4664 560.125 Q58.4057 564.868 49.812 564.868 Q41.091 564.868 36.0939 560.094 Q31.0968 555.287 31.0968 546.948 Q31.0968 544.243 31.6697 541.665 Q32.2108 539.087 33.3248 536.668 Z" fill="#000000" fill-rule="nonzero" fill-opacity="1" /><path clip-path="url(#clip100)" d="M49.6847 510.282 Q49.6847 517.38 51.3079 520.117 Q52.9312 522.854 56.8461 522.854 Q59.9653 522.854 61.8114 520.817 Q63.6256 518.748 63.6256 515.215 Q63.6256 510.346 60.1881 507.417 Q56.7188 504.457 50.9897 504.457 L49.6847 504.457 L49.6847 510.282 M47.2657 498.601 L67.6042 498.601 L67.6042 504.457 L62.1933 504.457 Q65.4398 506.463 66.9994 509.454 Q68.5272 512.446 68.5272 516.775 Q68.5272 522.249 65.4716 525.496 Q62.3843 528.711 57.2281 528.711 Q51.2125 528.711 48.1569 524.7 Q45.1014 520.658 45.1014 512.669 L45.1014 504.457 L44.5285 504.457 Q40.4862 504.457 38.2901 507.131 Q36.0621 509.773 36.0621 514.579 Q36.0621 517.634 36.7941 520.531 Q37.5262 523.427 38.9903 526.101 L33.5795 526.101 Q32.3381 522.886 31.7334 519.862 Q31.0968 516.839 31.0968 513.974 Q31.0968 506.24 35.1072 502.42 Q39.1176 498.601 47.2657 498.601 Z" fill="#000000" fill-rule="nonzero" fill-opacity="1" /><path clip-path="url(#clip100)" d="M18.079 486.538 L18.079 480.681 L67.6042 480.681 L67.6042 486.538 L18.079 486.538 Z" fill="#000000" fill-rule="nonzero" fill-opacity="1" /><path clip-path="url(#clip100)" d="M48.3161 437.936 L51.1806 437.936 L51.1806 464.863 Q57.2281 464.481 60.4109 461.234 Q63.5619 457.956 63.5619 452.131 Q63.5619 448.757 62.7344 445.606 Q61.9069 442.424 60.2518 439.304 L65.7899 439.304 Q67.1267 442.455 67.827 445.766 Q68.5272 449.076 68.5272 452.481 Q68.5272 461.011 63.5619 466.008 Q58.5967 470.974 50.1303 470.974 Q41.3774 470.974 36.2531 466.263 Q31.0968 461.521 31.0968 453.5 Q31.0968 446.307 35.7438 442.137 Q40.3589 437.936 48.3161 437.936 M46.5973 443.792 Q41.7912 443.856 38.9266 446.498 Q36.0621 449.108 36.0621 453.436 Q36.0621 458.338 38.8312 461.298 Q41.6002 464.226 46.6292 464.672 L46.5973 443.792 Z" fill="#000000" fill-rule="nonzero" fill-opacity="1" /><path clip-path="url(#clip100)" d="M18.079 414.637 L76.1979 414.637 L76.1979 428.132 L71.6464 428.132 L71.6464 420.525 L22.6304 420.525 L22.6304 428.132 L18.079 428.132 L18.079 414.637 Z" fill="#000000" fill-rule="nonzero" fill-opacity="1" /><path clip-path="url(#clip100)" d="M439.769 63.9476 L439.769 47.7034 L426.401 47.7034 L426.401 40.9789 L447.871 40.9789 L447.871 66.9452 Q443.131 70.3075 437.419 72.0494 Q431.707 73.7508 425.226 73.7508 Q411.048 73.7508 403.027 65.4869 Q395.047 57.1826 395.047 42.3968 Q395.047 27.5705 403.027 19.3066 Q411.048 11.0023 425.226 11.0023 Q431.14 11.0023 436.447 12.4606 Q441.794 13.9189 446.291 16.7545 L446.291 25.464 Q441.754 21.6156 436.65 19.6712 Q431.545 17.7268 425.915 17.7268 Q414.815 17.7268 409.225 23.9246 Q403.675 30.1225 403.675 42.3968 Q403.675 54.6305 409.225 60.8284 Q414.815 67.0263 425.915 67.0263 Q430.249 67.0263 433.652 66.2971 Q437.055 65.5274 439.769 63.9476 Z" fill="#000000" fill-rule="nonzero" fill-opacity="1" /><path clip-path="url(#clip100)" d="M483.113 49.7694 Q474.08 49.7694 470.596 51.8354 Q467.112 53.9013 467.112 58.8839 Q467.112 62.8538 469.705 65.2034 Q472.338 67.5124 476.835 67.5124 Q483.032 67.5124 486.759 63.1374 Q490.527 58.7219 490.527 51.4303 L490.527 49.7694 L483.113 49.7694 M497.98 46.6907 L497.98 72.576 L490.527 72.576 L490.527 65.6895 Q487.975 69.8214 484.167 71.8063 Q480.359 73.7508 474.85 73.7508 Q467.882 73.7508 463.75 69.8619 Q459.659 65.9325 459.659 59.3701 Q459.659 51.7138 464.763 47.825 Q469.908 43.9361 480.075 43.9361 L490.527 43.9361 L490.527 43.2069 Q490.527 38.0623 487.124 35.2672 Q483.762 32.4315 477.645 32.4315 Q473.756 32.4315 470.07 33.3632 Q466.383 34.295 462.98 36.1584 L462.98 29.2718 Q467.072 27.692 470.92 26.9223 Q474.769 26.1121 478.414 26.1121 Q488.258 26.1121 493.119 31.2163 Q497.98 36.3204 497.98 46.6907 Z" fill="#000000" fill-rule="nonzero" fill-opacity="1" /><path clip-path="url(#clip100)" d="M548.657 35.9153 Q551.452 30.8922 555.341 28.5022 Q559.23 26.1121 564.496 26.1121 Q571.585 26.1121 575.434 31.0947 Q579.282 36.0368 579.282 45.1919 L579.282 72.576 L571.788 72.576 L571.788 45.4349 Q571.788 38.913 569.479 35.7533 Q567.17 32.5936 562.43 32.5936 Q556.637 32.5936 553.275 36.4419 Q549.913 40.2903 549.913 46.9338 L549.913 72.576 L542.419 72.576 L542.419 45.4349 Q542.419 38.8725 540.11 35.7533 Q537.801 32.5936 532.98 32.5936 Q527.268 32.5936 523.906 36.4824 Q520.544 40.3308 520.544 46.9338 L520.544 72.576 L513.05 72.576 L513.05 27.2059 L520.544 27.2059 L520.544 34.2544 Q523.096 30.082 526.661 28.0971 Q530.225 26.1121 535.127 26.1121 Q540.069 26.1121 543.512 28.6237 Q546.996 31.1352 548.657 35.9153 Z" fill="#000000" fill-rule="nonzero" fill-opacity="1" /><path clip-path="url(#clip100)" d="M629.473 35.9153 Q632.268 30.8922 636.157 28.5022 Q640.045 26.1121 645.312 26.1121 Q652.401 26.1121 656.249 31.0947 Q660.097 36.0368 660.097 45.1919 L660.097 72.576 L652.603 72.576 L652.603 45.4349 Q652.603 38.913 650.294 35.7533 Q647.985 32.5936 643.246 32.5936 Q637.453 32.5936 634.091 36.4419 Q630.728 40.2903 630.728 46.9338 L630.728 72.576 L623.234 72.576 L623.234 45.4349 Q623.234 38.8725 620.925 35.7533 Q618.616 32.5936 613.796 32.5936 Q608.084 32.5936 604.722 36.4824 Q601.359 40.3308 601.359 46.9338 L601.359 72.576 L593.865 72.576 L593.865 27.2059 L601.359 27.2059 L601.359 34.2544 Q603.911 30.082 607.476 28.0971 Q611.041 26.1121 615.943 26.1121 Q620.885 26.1121 624.328 28.6237 Q627.812 31.1352 629.473 35.9153 Z" fill="#000000" fill-rule="nonzero" fill-opacity="1" /><path clip-path="url(#clip100)" d="M695.583 49.7694 Q686.55 49.7694 683.066 51.8354 Q679.582 53.9013 679.582 58.8839 Q679.582 62.8538 682.175 65.2034 Q684.808 67.5124 689.304 67.5124 Q695.502 67.5124 699.229 63.1374 Q702.997 58.7219 702.997 51.4303 L702.997 49.7694 L695.583 49.7694 M710.45 46.6907 L710.45 72.576 L702.997 72.576 L702.997 65.6895 Q700.444 69.8214 696.637 71.8063 Q692.829 73.7508 687.32 73.7508 Q680.352 73.7508 676.22 69.8619 Q672.129 65.9325 672.129 59.3701 Q672.129 51.7138 677.233 47.825 Q682.377 43.9361 692.545 43.9361 L702.997 43.9361 L702.997 43.2069 Q702.997 38.0623 699.594 35.2672 Q696.232 32.4315 690.115 32.4315 Q686.226 32.4315 682.539 33.3632 Q678.853 34.295 675.45 36.1584 L675.45 29.2718 Q679.542 27.692 683.39 26.9223 Q687.239 26.1121 690.884 26.1121 Q700.728 26.1121 705.589 31.2163 Q710.45 36.3204 710.45 46.6907 Z" fill="#000000" fill-rule="nonzero" fill-opacity="1" /><path clip-path="url(#clip100)" d="M793.737 63.9476 L793.737 47.7034 L780.369 47.7034 L780.369 40.9789 L801.839 40.9789 L801.839 66.9452 Q797.099 70.3075 791.387 72.0494 Q785.676 73.7508 779.194 73.7508 Q765.016 73.7508 756.995 65.4869 Q749.015 57.1826 749.015 42.3968 Q749.015 27.5705 756.995 19.3066 Q765.016 11.0023 779.194 11.0023 Q785.108 11.0023 790.415 12.4606 Q795.762 13.9189 800.259 16.7545 L800.259 25.464 Q795.722 21.6156 790.618 19.6712 Q785.513 17.7268 779.883 17.7268 Q768.783 17.7268 763.193 23.9246 Q757.643 30.1225 757.643 42.3968 Q757.643 54.6305 763.193 60.8284 Q768.783 67.0263 779.883 67.0263 Q784.217 67.0263 787.62 66.2971 Q791.023 65.5274 793.737 63.9476 Z" fill="#000000" fill-rule="nonzero" fill-opacity="1" /><path clip-path="url(#clip100)" d="M837 20.1573 L825.901 50.2555 L848.14 50.2555 L837 20.1573 M832.382 12.096 L841.659 12.096 L864.709 72.576 L856.202 72.576 L850.693 57.061 L823.43 57.061 L817.921 72.576 L809.292 72.576 L832.382 12.096 Z" fill="#000000" fill-rule="nonzero" fill-opacity="1" /><path clip-path="url(#clip100)" d="M873.54 12.096 L885.733 12.096 L901.167 53.2532 L916.682 12.096 L928.875 12.096 L928.875 72.576 L920.895 72.576 L920.895 19.4686 L905.299 60.9499 L897.075 60.9499 L881.479 19.4686 L881.479 72.576 L873.54 72.576 L873.54 12.096 Z" fill="#000000" fill-rule="nonzero" fill-opacity="1" /><path clip-path="url(#clip100)" d="M967.399 46.9338 L1042.26 46.9338 L1042.26 52.7671 L967.399 52.7671 L967.399 46.9338 Z" fill="#000000" fill-rule="nonzero" fill-opacity="1" /><path clip-path="url(#clip100)" d="M1109.42 28.5427 L1109.42 35.5912 Q1106.26 33.9709 1102.86 33.1607 Q1099.46 32.3505 1095.81 32.3505 Q1090.26 32.3505 1087.47 34.0519 Q1084.71 35.7533 1084.71 39.156 Q1084.71 41.7486 1086.7 43.2475 Q1088.68 44.7058 1094.68 46.0426 L1097.23 46.6097 Q1105.17 48.3111 1108.49 51.4303 Q1111.85 54.509 1111.85 60.0587 Q1111.85 66.3781 1106.83 70.0644 Q1101.85 73.7508 1093.1 73.7508 Q1089.45 73.7508 1085.48 73.0216 Q1081.55 72.3329 1077.18 70.9151 L1077.18 63.2184 Q1081.31 65.3654 1085.32 66.4591 Q1089.33 67.5124 1093.26 67.5124 Q1098.53 67.5124 1101.36 65.73 Q1104.2 63.9071 1104.2 60.6258 Q1104.2 57.5877 1102.13 55.9673 Q1100.11 54.3469 1093.18 52.8481 L1090.59 52.2405 Q1083.66 50.7821 1080.58 47.7845 Q1077.5 44.7463 1077.5 39.4801 Q1077.5 33.0797 1082.04 29.5959 Q1086.58 26.1121 1094.92 26.1121 Q1099.05 26.1121 1102.7 26.7198 Q1106.35 27.3274 1109.42 28.5427 Z" fill="#000000" fill-rule="nonzero" fill-opacity="1" /><path clip-path="url(#clip100)" d="M1159.05 35.9153 Q1161.84 30.8922 1165.73 28.5022 Q1169.62 26.1121 1174.89 26.1121 Q1181.98 26.1121 1185.82 31.0947 Q1189.67 36.0368 1189.67 45.1919 L1189.67 72.576 L1182.18 72.576 L1182.18 45.4349 Q1182.18 38.913 1179.87 35.7533 Q1177.56 32.5936 1172.82 32.5936 Q1167.03 32.5936 1163.67 36.4419 Q1160.3 40.2903 1160.3 46.9338 L1160.3 72.576 L1152.81 72.576 L1152.81 45.4349 Q1152.81 38.8725 1150.5 35.7533 Q1148.19 32.5936 1143.37 32.5936 Q1137.66 32.5936 1134.3 36.4824 Q1130.93 40.3308 1130.93 46.9338 L1130.93 72.576 L1123.44 72.576 L1123.44 27.2059 L1130.93 27.2059 L1130.93 34.2544 Q1133.49 30.082 1137.05 28.0971 Q1140.62 26.1121 1145.52 26.1121 Q1150.46 26.1121 1153.9 28.6237 Q1157.39 31.1352 1159.05 35.9153 Z" fill="#000000" fill-rule="nonzero" fill-opacity="1" /><path clip-path="url(#clip100)" d="M1222.12 32.4315 Q1216.12 32.4315 1212.64 37.1306 Q1209.16 41.7891 1209.16 49.9314 Q1209.16 58.0738 1212.6 62.7728 Q1216.08 67.4314 1222.12 67.4314 Q1228.07 67.4314 1231.56 62.7323 Q1235.04 58.0333 1235.04 49.9314 Q1235.04 41.8701 1231.56 37.1711 Q1228.07 32.4315 1222.12 32.4315 M1222.12 26.1121 Q1231.84 26.1121 1237.39 32.4315 Q1242.94 38.7509 1242.94 49.9314 Q1242.94 61.0714 1237.39 67.4314 Q1231.84 73.7508 1222.12 73.7508 Q1212.36 73.7508 1206.81 67.4314 Q1201.3 61.0714 1201.3 49.9314 Q1201.3 38.7509 1206.81 32.4315 Q1212.36 26.1121 1222.12 26.1121 Z" fill="#000000" fill-rule="nonzero" fill-opacity="1" /><path clip-path="url(#clip100)" d="M1272.88 32.4315 Q1266.88 32.4315 1263.4 37.1306 Q1259.91 41.7891 1259.91 49.9314 Q1259.91 58.0738 1263.36 62.7728 Q1266.84 67.4314 1272.88 67.4314 Q1278.83 67.4314 1282.32 62.7323 Q1285.8 58.0333 1285.8 49.9314 Q1285.8 41.8701 1282.32 37.1711 Q1278.83 32.4315 1272.88 32.4315 M1272.88 26.1121 Q1282.6 26.1121 1288.15 32.4315 Q1293.7 38.7509 1293.7 49.9314 Q1293.7 61.0714 1288.15 67.4314 Q1282.6 73.7508 1272.88 73.7508 Q1263.12 73.7508 1257.57 67.4314 Q1252.06 61.0714 1252.06 49.9314 Q1252.06 38.7509 1257.57 32.4315 Q1263.12 26.1121 1272.88 26.1121 Z" fill="#000000" fill-rule="nonzero" fill-opacity="1" /><path clip-path="url(#clip100)" d="M1313.43 14.324 L1313.43 27.2059 L1328.78 27.2059 L1328.78 32.9987 L1313.43 32.9987 L1313.43 57.6282 Q1313.43 63.1779 1314.93 64.7578 Q1316.47 66.3376 1321.12 66.3376 L1328.78 66.3376 L1328.78 72.576 L1321.12 72.576 Q1312.5 72.576 1309.21 69.3758 Q1305.93 66.1351 1305.93 57.6282 L1305.93 32.9987 L1300.46 32.9987 L1300.46 27.2059 L1305.93 27.2059 L1305.93 14.324 L1313.43 14.324 Z" fill="#000000" fill-rule="nonzero" fill-opacity="1" /><path clip-path="url(#clip100)" d="M1376.3 45.1919 L1376.3 72.576 L1368.84 72.576 L1368.84 45.4349 Q1368.84 38.994 1366.33 35.7938 Q1363.82 32.5936 1358.8 32.5936 Q1352.76 32.5936 1349.28 36.4419 Q1345.79 40.2903 1345.79 46.9338 L1345.79 72.576 L1338.3 72.576 L1338.3 9.54393 L1345.79 9.54393 L1345.79 34.2544 Q1348.47 30.163 1352.07 28.1376 Q1355.72 26.1121 1360.46 26.1121 Q1368.28 26.1121 1372.29 30.9732 Q1376.3 35.7938 1376.3 45.1919 Z" fill="#000000" fill-rule="nonzero" fill-opacity="1" /><path clip-path="url(#clip100)" d="M1435.12 32.4315 Q1429.12 32.4315 1425.64 37.1306 Q1422.15 41.7891 1422.15 49.9314 Q1422.15 58.0738 1425.6 62.7728 Q1429.08 67.4314 1435.12 67.4314 Q1441.07 67.4314 1444.56 62.7323 Q1448.04 58.0333 1448.04 49.9314 Q1448.04 41.8701 1444.56 37.1711 Q1441.07 32.4315 1435.12 32.4315 M1435.12 26.1121 Q1444.84 26.1121 1450.39 32.4315 Q1455.94 38.7509 1455.94 49.9314 Q1455.94 61.0714 1450.39 67.4314 Q1444.84 73.7508 1435.12 73.7508 Q1425.35 73.7508 1419.8 67.4314 Q1414.29 61.0714 1414.29 49.9314 Q1414.29 38.7509 1419.8 32.4315 Q1425.35 26.1121 1435.12 26.1121 Z" fill="#000000" fill-rule="nonzero" fill-opacity="1" /><path clip-path="url(#clip100)" d="M1506.01 45.1919 L1506.01 72.576 L1498.55 72.576 L1498.55 45.4349 Q1498.55 38.994 1496.04 35.7938 Q1493.53 32.5936 1488.51 32.5936 Q1482.47 32.5936 1478.99 36.4419 Q1475.5 40.2903 1475.5 46.9338 L1475.5 72.576 L1468.01 72.576 L1468.01 27.2059 L1475.5 27.2059 L1475.5 34.2544 Q1478.18 30.163 1481.78 28.1376 Q1485.43 26.1121 1490.17 26.1121 Q1497.99 26.1121 1502 30.9732 Q1506.01 35.7938 1506.01 45.1919 Z" fill="#000000" fill-rule="nonzero" fill-opacity="1" /><path clip-path="url(#clip100)" d="M1547.25 9.54393 L1554.7 9.54393 L1554.7 72.576 L1547.25 72.576 L1547.25 9.54393 Z" fill="#000000" fill-rule="nonzero" fill-opacity="1" /><path clip-path="url(#clip100)" d="M1570.3 27.2059 L1577.75 27.2059 L1577.75 72.576 L1570.3 72.576 L1570.3 27.2059 M1570.3 9.54393 L1577.75 9.54393 L1577.75 18.9825 L1570.3 18.9825 L1570.3 9.54393 Z" fill="#000000" fill-rule="nonzero" fill-opacity="1" /><path clip-path="url(#clip100)" d="M1631.06 45.1919 L1631.06 72.576 L1623.61 72.576 L1623.61 45.4349 Q1623.61 38.994 1621.09 35.7938 Q1618.58 32.5936 1613.56 32.5936 Q1607.52 32.5936 1604.04 36.4419 Q1600.56 40.2903 1600.56 46.9338 L1600.56 72.576 L1593.06 72.576 L1593.06 27.2059 L1600.56 27.2059 L1600.56 34.2544 Q1603.23 30.163 1606.83 28.1376 Q1610.48 26.1121 1615.22 26.1121 Q1623.04 26.1121 1627.05 30.9732 Q1631.06 35.7938 1631.06 45.1919 Z" fill="#000000" fill-rule="nonzero" fill-opacity="1" /><path clip-path="url(#clip100)" d="M1645.64 9.54393 L1653.14 9.54393 L1653.14 46.7717 L1675.38 27.2059 L1684.9 27.2059 L1660.83 48.4326 L1685.91 72.576 L1676.19 72.576 L1653.14 50.4176 L1653.14 72.576 L1645.64 72.576 L1645.64 9.54393 Z" fill="#000000" fill-rule="nonzero" fill-opacity="1" /><path clip-path="url(#clip100)" d="M1749.26 28.5427 L1749.26 35.5912 Q1746.1 33.9709 1742.7 33.1607 Q1739.3 32.3505 1735.65 32.3505 Q1730.1 32.3505 1727.31 34.0519 Q1724.55 35.7533 1724.55 39.156 Q1724.55 41.7486 1726.54 43.2475 Q1728.52 44.7058 1734.52 46.0426 L1737.07 46.6097 Q1745.01 48.3111 1748.33 51.4303 Q1751.69 54.509 1751.69 60.0587 Q1751.69 66.3781 1746.67 70.0644 Q1741.69 73.7508 1732.94 73.7508 Q1729.29 73.7508 1725.32 73.0216 Q1721.39 72.3329 1717.02 70.9151 L1717.02 63.2184 Q1721.15 65.3654 1725.16 66.4591 Q1729.17 67.5124 1733.1 67.5124 Q1738.37 67.5124 1741.2 65.73 Q1744.04 63.9071 1744.04 60.6258 Q1744.04 57.5877 1741.97 55.9673 Q1739.95 54.3469 1733.02 52.8481 L1730.43 52.2405 Q1723.5 50.7821 1720.42 47.7845 Q1717.34 44.7463 1717.34 39.4801 Q1717.34 33.0797 1721.88 29.5959 Q1726.42 26.1121 1734.76 26.1121 Q1738.89 26.1121 1742.54 26.7198 Q1746.19 27.3274 1749.26 28.5427 Z" fill="#000000" fill-rule="nonzero" fill-opacity="1" /><path clip-path="url(#clip100)" d="M1796.21 28.9478 L1796.21 35.9153 Q1793.05 34.1734 1789.85 33.3227 Q1786.69 32.4315 1783.45 32.4315 Q1776.2 32.4315 1772.19 37.0496 Q1768.18 41.6271 1768.18 49.9314 Q1768.18 58.2358 1772.19 62.8538 Q1776.2 67.4314 1783.45 67.4314 Q1786.69 67.4314 1789.85 66.5807 Q1793.05 65.6895 1796.21 63.9476 L1796.21 70.8341 Q1793.09 72.2924 1789.73 73.0216 Q1786.41 73.7508 1782.64 73.7508 Q1772.39 73.7508 1766.36 67.3098 Q1760.32 60.8689 1760.32 49.9314 Q1760.32 38.832 1766.4 32.472 Q1772.52 26.1121 1783.13 26.1121 Q1786.57 26.1121 1789.85 26.8413 Q1793.14 27.5299 1796.21 28.9478 Z" fill="#000000" fill-rule="nonzero" fill-opacity="1" /><path clip-path="url(#clip100)" d="M1829.8 49.7694 Q1820.76 49.7694 1817.28 51.8354 Q1813.79 53.9013 1813.79 58.8839 Q1813.79 62.8538 1816.39 65.2034 Q1819.02 67.5124 1823.52 67.5124 Q1829.72 67.5124 1833.44 63.1374 Q1837.21 58.7219 1837.21 51.4303 L1837.21 49.7694 L1829.8 49.7694 M1844.66 46.6907 L1844.66 72.576 L1837.21 72.576 L1837.21 65.6895 Q1834.66 69.8214 1830.85 71.8063 Q1827.04 73.7508 1821.53 73.7508 Q1814.56 73.7508 1810.43 69.8619 Q1806.34 65.9325 1806.34 59.3701 Q1806.34 51.7138 1811.45 47.825 Q1816.59 43.9361 1826.76 43.9361 L1837.21 43.9361 L1837.21 43.2069 Q1837.21 38.0623 1833.81 35.2672 Q1830.44 32.4315 1824.33 32.4315 Q1820.44 32.4315 1816.75 33.3632 Q1813.07 34.295 1809.66 36.1584 L1809.66 29.2718 Q1813.75 27.692 1817.6 26.9223 Q1821.45 26.1121 1825.1 26.1121 Q1834.94 26.1121 1839.8 31.2163 Q1844.66 36.3204 1844.66 46.6907 Z" fill="#000000" fill-rule="nonzero" fill-opacity="1" /><path clip-path="url(#clip100)" d="M1860.02 9.54393 L1867.47 9.54393 L1867.47 72.576 L1860.02 72.576 L1860.02 9.54393 Z" fill="#000000" fill-rule="nonzero" fill-opacity="1" /><path clip-path="url(#clip100)" d="M1921.87 48.0275 L1921.87 51.6733 L1887.6 51.6733 Q1888.09 59.3701 1892.22 63.421 Q1896.39 67.4314 1903.81 67.4314 Q1908.1 67.4314 1912.11 66.3781 Q1916.16 65.3249 1920.13 63.2184 L1920.13 70.267 Q1916.12 71.9684 1911.91 72.8596 Q1907.69 73.7508 1903.36 73.7508 Q1892.5 73.7508 1886.14 67.4314 Q1879.82 61.1119 1879.82 50.3365 Q1879.82 39.1965 1885.82 32.6746 Q1891.86 26.1121 1902.06 26.1121 Q1911.22 26.1121 1916.53 32.0264 Q1921.87 37.9003 1921.87 48.0275 M1914.42 45.84 Q1914.34 39.7232 1910.98 36.0774 Q1907.65 32.4315 1902.15 32.4315 Q1895.91 32.4315 1892.14 35.9558 Q1888.41 39.4801 1887.85 45.8805 L1914.42 45.84 Z" fill="#000000" fill-rule="nonzero" fill-opacity="1" /><path clip-path="url(#clip101)" d="M303.464 784.046 L312.057 765.241 L320.65 746.796 L329.243 728.809 L337.836 711.375 L346.428 694.58 L355.021 678.5 L363.614 663.195 L372.207 648.702 L380.8 635.035 L389.393 622.179 L397.986 610.095 L406.579 598.723 L415.172 587.993 L423.765 577.828 L432.358 568.16 L440.951 558.936 L449.544 550.135 L458.136 541.758 L466.729 533.816 L475.322 526.323 L483.915 519.293 L492.508 512.728 L501.101 506.618 L509.694 500.937 L518.287 495.646 L526.88 490.687 L535.473 485.997 L544.066 481.501 L552.659 477.129 L561.252 472.816 L569.845 468.537 L578.437 464.341 L587.03 460.291 L595.623 456.454 L604.216 452.89 L612.809 449.647 L621.402 446.754 L629.995 444.218 L638.588 442.027 L647.181 440.148 L655.774 438.533 L664.367 437.125 L672.96 435.869 L681.553 434.714 L690.145 433.642 L698.738 432.701 L707.331 431.965 L715.924 431.502 L724.517 431.362 L733.11 431.571 L741.703 432.126 L750.296 432.992 L758.889 434.111 L767.482 435.409 L776.075 436.813 L784.668 438.265 L793.261 439.781 L801.854 441.428 L810.446 443.264 L819.039 445.325 L827.632 447.61 L836.225 450.081 L844.818 452.661 L853.411 455.248 L862.004 457.727 L870.597 460.041 L879.19 462.229 L887.783 464.355 L896.376 466.492 L904.969 468.71 L913.562 471.074 L922.154 473.629 L930.747 476.402 L939.34 479.399 L947.933 482.607 L956.526 485.996 L965.119 489.53 L973.712 493.177 L982.305 496.915 L990.898 500.766 L999.491 504.833 L1008.08 509.228 L1016.68 514.041 L1025.27 519.322 L1033.86 525.081 L1042.46 531.282 L1051.05 537.86 L1059.64 544.733 L1068.23 551.846 L1076.83 559.202 L1085.42 566.832 L1094.01 574.775 L1102.61 583.064 L1111.2 591.726 L1119.79 600.765 L1128.38 610.165 L1136.98 619.887 L1145.57 629.871 L1154.16 640.039 L1162.76 650.303 L1171.35 660.572 L1179.94 670.766 L1188.54 680.86 L1197.13 690.858 L1205.72 700.77 L1214.31 710.618 L1222.91 720.421 L1231.5 730.197 L1240.09 739.957 L1248.69 749.703 L1257.28 759.423 L1265.87 769.093 L1274.46 778.674 L1283.06 788.111 L1291.65 797.341 L1300.24 806.292 L1308.84 814.885 L1317.43 823.044 L1326.02 830.694 L1334.61 837.777 L1343.21 844.304 L1351.8 850.355 L1360.39 856.012 L1368.99 861.358 L1377.58 866.471 L1386.17 871.418 L1394.77 876.248 L1403.36 880.996 L1411.95 885.678 L1420.54 890.293 L1429.14 894.827 L1437.73 899.253 L1446.32 903.539 L1454.92 907.652 L1463.51 911.564 L1472.1 915.258 L1480.69 918.747 L1489.29 922.062 L1497.88 925.243 L1506.47 928.329 L1515.07 931.358 L1523.66 934.361 L1532.25 937.359 L1540.85 940.359 L1549.44 943.353 L1558.03 946.32 L1566.62 949.221 L1575.22 952.006 L1583.81 954.615 L1592.4 956.981 L1601 959.034 L1609.59 960.706 L1618.18 961.935 L1626.77 962.698 L1635.37 963.017 L1643.96 962.923 L1652.55 962.454 L1661.15 961.648 L1669.74 960.542 L1678.33 959.169 L1686.92 957.555 L1695.52 955.717 L1704.11 953.664 L1712.7 951.388 L1721.3 948.876 L1729.89 946.099 L1738.48 943.02 L1747.08 939.596 L1755.67 935.776 L1764.26 931.509 L1772.85 926.743 L1781.45 921.431 L1790.04 915.533 L1798.63 909.027 L1807.23 901.964 L1815.82 894.424 L1824.41 886.492 L1833 878.254 L1841.6 869.794 L1850.19 861.189 L1858.78 852.513 L1867.38 843.825 L1875.97 835.18 L1884.56 826.623 L1893.16 818.194 L1901.75 809.936 L1910.34 801.893 L1918.93 794.125 L1927.53 786.71 L1936.12 779.749 L1944.71 773.367 L1953.31 767.675 L1961.9 762.748 L1970.49 758.617 L1979.08 755.269 L1987.68 752.651 L1996.27 750.684 L2004.86 749.267 L2013.46 748.293 L2013.46 519.465 L2004.86 536.005 L1996.27 552.105 L1987.68 567.658 L1979.08 582.569 L1970.49 596.76 L1961.9 610.18 L1953.31 622.818 L1944.71 634.708 L1936.12 645.928 L1927.53 656.59 L1918.93 666.809 L1910.34 676.64 L1901.75 686.113 L1893.16 695.234 L1884.56 704.001 L1875.97 712.403 L1867.38 720.432 L1858.78 728.083 L1850.19 735.359 L1841.6 742.271 L1833 748.841 L1824.41 755.096 L1815.82 761.07 L1807.23 766.799 L1798.63 772.318 L1790.04 777.657 L1781.45 782.83 L1772.85 787.824 L1764.26 792.609 L1755.67 797.151 L1747.08 801.408 L1738.48 805.343 L1729.89 808.916 L1721.3 812.096 L1712.7 814.857 L1704.11 817.185 L1695.52 819.074 L1686.92 820.532 L1678.33 821.579 L1669.74 822.242 L1661.15 822.561 L1652.55 822.58 L1643.96 822.349 L1635.37 821.917 L1626.77 821.333 L1618.18 820.642 L1609.59 819.876 L1601 819.034 L1592.4 818.082 L1583.81 816.978 L1575.22 815.682 L1566.62 814.154 L1558.03 812.362 L1549.44 810.283 L1540.85 807.909 L1532.25 805.244 L1523.66 802.31 L1515.07 799.14 L1506.47 795.785 L1497.88 792.303 L1489.29 788.76 L1480.69 785.225 L1472.1 781.762 L1463.51 778.433 L1454.92 775.258 L1446.32 772.179 L1437.73 769.113 L1429.14 765.975 L1420.54 762.678 L1411.95 759.144 L1403.36 755.304 L1394.77 751.106 L1386.17 746.511 L1377.58 741.501 L1368.99 736.073 L1360.39 730.241 L1351.8 724.029 L1343.21 717.466 L1334.61 710.584 L1326.02 703.408 L1317.43 695.953 L1308.84 688.217 L1300.24 680.193 L1291.65 671.865 L1283.06 663.219 L1274.46 654.247 L1265.87 644.947 L1257.28 635.33 L1248.69 625.42 L1240.09 615.256 L1231.5 604.889 L1222.91 594.385 L1214.31 583.819 L1205.72 573.271 L1197.13 562.826 L1188.54 552.566 L1179.94 542.568 L1171.35 532.897 L1162.76 523.587 L1154.16 514.595 L1145.57 505.864 L1136.98 497.338 L1128.38 488.974 L1119.79 480.745 L1111.2 472.644 L1102.61 464.688 L1094.01 456.917 L1085.42 449.389 L1076.83 442.171 L1068.23 435.335 L1059.64 428.946 L1051.05 423.035 L1042.46 417.534 L1033.86 412.329 L1025.27 407.317 L1016.68 402.43 L1008.08 397.641 L999.491 392.966 L990.898 388.46 L982.305 384.2 L973.712 380.255 L965.119 376.618 L956.526 373.24 L947.933 370.062 L939.34 367.017 L930.747 364.052 L922.154 361.123 L913.562 358.21 L904.969 355.312 L896.376 352.447 L887.783 349.65 L879.19 346.966 L870.597 344.44 L862.004 342.108 L853.411 339.983 L844.818 338.015 L836.225 336.122 L827.632 334.232 L819.039 332.3 L810.446 330.317 L801.854 328.315 L793.261 326.361 L784.668 324.545 L776.075 322.963 L767.482 321.658 L758.889 320.59 L750.296 319.702 L741.703 318.936 L733.11 318.251 L724.517 317.63 L715.924 317.086 L707.331 316.66 L698.738 316.422 L690.145 316.455 L681.553 316.85 L672.96 317.666 L664.367 318.879 L655.774 320.432 L647.181 322.257 L638.588 324.291 L629.995 326.477 L621.402 328.773 L612.809 331.157 L604.216 333.629 L595.623 336.208 L587.03 338.934 L578.437 341.858 L569.845 345.037 L561.252 348.528 L552.659 352.372 L544.066 356.565 L535.473 361.074 L526.88 365.86 L518.287 370.883 L509.694 376.108 L501.101 381.512 L492.508 387.087 L483.915 392.838 L475.322 398.787 L466.729 404.971 L458.136 411.432 L449.544 418.218 L440.951 425.373 L432.358 432.928 L423.765 440.873 L415.172 449.109 L406.579 457.51 L397.986 465.945 L389.393 474.286 L380.8 482.418 L372.207 490.245 L363.614 497.696 L355.021 504.729 L346.428 511.324 L337.836 517.485 L329.243 523.232 L320.65 528.596 L312.057 533.614 L303.464 538.328  Z" fill="#009af9" fill-rule="evenodd" fill-opacity="0.2"/>
<polyline clip-path="url(#clip101)" style="stroke:#009af9; stroke-linecap:round; stroke-linejoin:round; stroke-width:8; stroke-opacity:1; fill:none" points="303.464,661.187 312.057,649.427 320.65,637.696 329.243,626.021 337.836,614.43 346.428,602.952 355.021,591.614 363.614,580.446 372.207,569.474 380.8,558.727 389.393,548.233 397.986,538.02 406.579,528.117 415.172,518.551 423.765,509.351 432.358,500.544 440.951,492.155 449.544,484.177 458.136,476.595 466.729,469.393 475.322,462.555 483.915,456.065 492.508,449.907 501.101,444.065 509.694,438.523 518.287,433.264 526.88,428.274 535.473,423.535 544.066,419.033 552.659,414.75 561.252,410.672 569.845,406.787 578.437,403.099 587.03,399.613 595.623,396.331 604.216,393.26 612.809,390.402 621.402,387.763 629.995,385.348 638.588,383.159 647.181,381.203 655.774,379.482 664.367,378.002 672.96,376.767 681.553,375.782 690.145,375.048 698.738,374.562 707.331,374.313 715.924,374.294 724.517,374.496 733.11,374.911 741.703,375.531 750.296,376.347 758.889,377.351 767.482,378.534 776.075,379.888 784.668,381.405 793.261,383.071 801.854,384.871 810.446,386.79 819.039,388.812 827.632,390.921 836.225,393.102 844.818,395.338 853.411,397.615 862.004,399.917 870.597,402.241 879.19,404.598 887.783,407.003 896.376,409.469 904.969,412.011 913.562,414.642 922.154,417.376 930.747,420.227 939.34,423.208 947.933,426.334 956.526,429.618 965.119,433.074 973.712,436.716 982.305,440.557 990.898,444.613 999.491,448.9 1008.08,453.435 1016.68,458.236 1025.27,463.32 1033.86,468.705 1042.46,474.408 1051.05,480.447 1059.64,486.839 1068.23,493.59 1076.83,500.686 1085.42,508.11 1094.01,515.846 1102.61,523.876 1111.2,532.185 1119.79,540.755 1128.38,549.569 1136.98,558.612 1145.57,567.867 1154.16,577.317 1162.76,586.945 1171.35,596.734 1179.94,606.667 1188.54,616.713 1197.13,626.842 1205.72,637.021 1214.31,647.218 1222.91,657.403 1231.5,667.543 1240.09,677.606 1248.69,687.561 1257.28,697.377 1265.87,707.02 1274.46,716.46 1283.06,725.665 1291.65,734.603 1300.24,743.242 1308.84,751.551 1317.43,759.498 1326.02,767.051 1334.61,774.18 1343.21,780.885 1351.8,787.192 1360.39,793.126 1368.99,798.716 1377.58,803.986 1386.17,808.964 1394.77,813.677 1403.36,818.15 1411.95,822.411 1420.54,826.485 1429.14,830.401 1437.73,834.183 1446.32,837.859 1454.92,841.455 1463.51,844.998 1472.1,848.51 1480.69,851.986 1489.29,855.411 1497.88,858.773 1506.47,862.057 1515.07,865.249 1523.66,868.335 1532.25,871.302 1540.85,874.134 1549.44,876.818 1558.03,879.341 1566.62,881.687 1575.22,883.844 1583.81,885.797 1592.4,887.531 1601,889.034 1609.59,890.291 1618.18,891.288 1626.77,892.016 1635.37,892.467 1643.96,892.636 1652.55,892.517 1661.15,892.105 1669.74,891.392 1678.33,890.374 1686.92,889.044 1695.52,887.396 1704.11,885.424 1712.7,883.123 1721.3,880.486 1729.89,877.508 1738.48,874.182 1747.08,870.502 1755.67,866.463 1764.26,862.059 1772.85,857.284 1781.45,852.131 1790.04,846.595 1798.63,840.673 1807.23,834.382 1815.82,827.747 1824.41,820.794 1833,813.547 1841.6,806.032 1850.19,798.274 1858.78,790.298 1867.38,782.129 1875.97,773.792 1884.56,765.312 1893.16,756.714 1901.75,748.024 1910.34,739.267 1918.93,730.467 1927.53,721.65 1936.12,712.838 1944.71,704.038 1953.31,695.246 1961.9,686.464 1970.49,677.689 1979.08,668.919 1987.68,660.155 1996.27,651.394 2004.86,642.636 2013.46,633.879 "/>
<polyline clip-path="url(#clip101)" style="stroke:#ff0000; stroke-linecap:round; stroke-linejoin:round; stroke-width:8; stroke-opacity:1; fill:none" stroke-dasharray="32, 20" points="303.464,646.653 304.312,645.107 310.449,633.926 313.676,628.049 323.722,609.772 324.138,609.017 325.196,607.095 346.428,568.69 358.355,547.311 370.76,525.278 373.451,520.529 378.082,512.389 382.422,504.794 396.663,480.136 398.192,477.515 398.419,477.126 400.638,473.334 404.112,467.417 412.669,452.972 416.287,446.92 425.238,432.103 433.029,419.394 434.429,417.13 441.618,405.601 456.29,382.6 460.424,376.254 465.888,367.963 490.045,332.698 494.391,326.607 494.548,326.388 500.659,317.967 502.126,315.97 517.059,296.197 519.237,293.399 529.754,280.213 537.666,270.651 543.228,264.12 548.825,257.708 549.488,256.958 556.602,249.072 558.369,247.154 558.68,246.818 559.114,246.35 559.584,245.846 564.02,241.136 576.793,228.179 590.633,215.179 598.323,208.436 598.639,208.167 602.83,204.646 605.177,202.72 610.523,198.456 613.36,196.264 617.181,193.388 623.077,189.125 623.281,188.981 627.324,186.187 634.669,181.372 647.377,173.84 648.775,173.074 653.72,170.465 665.083,165.065 677.041,160.287 679.706,159.35 682.238,158.502 683.38,158.134 684.093,157.908 701.746,153.393 712.014,151.718 713.388,151.547 715.089,151.353 719.961,150.904 720.425,150.87 722.504,150.733 725.772,150.576 734.931,150.518 735.371,150.529 740.688,150.768 742.805,150.916 749.748,151.61 759.615,153.15 760.959,153.41 761.544,153.527 768.476,155.085 772.272,156.074 776.632,157.326 782.87,159.336 787.593,161.028 789.474,161.742 793.882,163.508 797.523,165.06 803.411,167.754 807.476,169.745 811.575,171.859 813.449,172.861 817.311,174.999 817.6,175.162 821.721,177.554 823.693,178.737 826.132,180.234 831.554,183.695 840.164,189.567 841.664,190.637 846.225,193.975 852.144,198.497 856.001,201.556 858.543,203.622 858.855,203.878 877.342,220.083 884.295,226.691 902.899,245.703 903.536,246.388 905.746,248.781 915.252,259.367 917.277,261.683 918.492,263.083 932.119,279.303 940.933,290.286 940.945,290.301 942.007,291.65 944.889,295.338 945.379,295.968 955.936,309.833 957.798,312.331 965.127,322.317 969.309,328.12 970.307,329.516 970.49,329.773 982.139,346.386 982.184,346.452 984.659,350.054 994.824,365.101 998.82,371.125 999.595,372.3 999.646,372.379 1008.5,385.959 1008.77,386.385 1015.69,397.19 1015.74,397.27 1023.47,409.548 1023.82,410.108 1030.43,420.764 1032.08,423.435 1040.5,437.244 1044.36,443.643 1045.82,446.076 1048.56,450.645 1048.58,450.681 1051.18,455.047 1053.64,459.19 1060.96,471.6 1063.83,476.502 1064.83,478.206 1065.18,478.816 1068.96,485.304 1072.42,491.288 1073.33,492.859 1101.74,542.821 1105.91,550.261 1112.59,562.224 1123.47,581.815 1132.51,598.182 1136.12,604.733 1137.24,606.777 1138.25,608.611 1148.66,627.535 1157.34,643.354 1159.61,647.484 1163.22,654.075 1165.19,657.661 1167.37,661.633 1172.4,670.781 1194.58,711.027 1197.54,716.371 1199.3,719.553 1221.53,759.352 1233.97,781.309 1234.01,781.374 1245.06,800.645 1250.71,810.402 1255.16,818.027 1266.43,837.159 1272.73,847.723 1283.94,866.232 1287.64,872.26 1290.65,877.138 1297.68,888.407 1301.3,894.152 1303.32,897.345 1321.22,924.947 1323.5,928.384 1324.64,930.093 1329.51,937.337 1331.15,939.758 1334.9,945.255 1338.59,950.606 1345.99,961.163 1350.07,966.886 1350.16,967.011 1356.78,976.143 1357.37,976.946 1357.4,976.993 1358.55,978.556 1371.95,996.325 1391.21,1020.38 1401.33,1032.29 1401.33,1032.29 1429.92,1062.98 1434.58,1067.57 1436.43,1069.35 1441.43,1074.07 1453.65,1085.01 1460.36,1090.64 1463.25,1092.99 1465.46,1094.75 1469.57,1097.93 1470.23,1098.44 1478.95,1104.83 1487.68,1110.76 1505.27,1121.26 1510.48,1124 1511.79,1124.66 1522.33,1129.56 1527.64,1131.76 1531.46,1133.23 1540.11,1136.2 1565.21,1142.02 1565.98,1142.14 1566.75,1142.24 1570.92,1142.76 1575.38,1143.19 1576.19,1143.25 1586.89,1143.68 1595.12,1143.48 1609.12,1142.11 1614.48,1141.24 1619.25,1140.3 1626.92,1138.48 1654.3,1128.82 1676.03,1117.68 1685.09,1112.15 1688.57,1109.89 1700.93,1101.25 1701.15,1101.08 1707.83,1096.02 1711.01,1093.51 1718.68,1087.21 1728.17,1078.94 1735.7,1072 1739.27,1068.6 1744.98,1063.01 1749.41,1058.53 1749.72,1058.22 1761.18,1046.16 1767.9,1038.75 1774.88,1030.8 1788.62,1014.42 1798.13,1002.53 1808.15,989.55 1814.49,981.09 1817.97,976.37 1818.35,975.851 1847.95,933.576 1850.58,929.642 1863.21,910.413 1863.65,909.739 1882.88,879.366 1883.79,877.906 1887.71,871.555 1896.86,856.561 1899.34,852.461 1904.56,843.749 1905.12,842.821 1909.56,835.352 1910.36,834.005 1913.88,828.044 1925.57,808.059 1928.8,802.465 1928.95,802.221 1930.95,798.741 1933.77,793.841 1937.9,786.636 1939.53,783.787 1941.92,779.599 1942.52,778.539 1945.39,773.487 1948.28,768.391 1948.85,767.386 1949.5,766.238 1950.4,764.639 1961.18,745.471 1965.89,737.043 1966.21,736.464 1970.56,728.668 1982,708.023 1983.57,705.187 2004.1,667.9 2007.17,662.31 2008.71,659.514 2013.46,650.863 "/>
<path clip-path="url(#clip100)" d="M1578.87 311.335 L2004.34 311.335 L2004.34 155.815 L1578.87 155.815  Z" fill="#ffffff" fill-rule="evenodd" fill-opacity="1"/>
<polyline clip-path="url(#clip100)" style="stroke:#000000; stroke-linecap:round; stroke-linejoin:round; stroke-width:4; stroke-opacity:1; fill:none" points="1578.87,311.335 2004.34,311.335 2004.34,155.815 1578.87,155.815 1578.87,311.335 "/>
<polyline clip-path="url(#clip100)" style="stroke:#009af9; stroke-linecap:round; stroke-linejoin:round; stroke-width:8; stroke-opacity:1; fill:none" points="1599.01,207.655 1719.84,207.655 "/>
<path clip-path="url(#clip100)" d="M1758.41 199.773 L1758.41 203.8 Q1756.6 202.875 1754.66 202.412 Q1752.72 201.949 1750.63 201.949 Q1747.46 201.949 1745.86 202.921 Q1744.29 203.893 1744.29 205.838 Q1744.29 207.319 1745.42 208.175 Q1746.56 209.009 1749.98 209.773 L1751.44 210.097 Q1755.98 211.069 1757.88 212.851 Q1759.8 214.611 1759.8 217.782 Q1759.8 221.393 1756.93 223.499 Q1754.08 225.606 1749.08 225.606 Q1747 225.606 1744.73 225.189 Q1742.48 224.796 1739.98 223.986 L1739.98 219.587 Q1742.35 220.814 1744.64 221.439 Q1746.93 222.041 1749.17 222.041 Q1752.18 222.041 1753.8 221.023 Q1755.42 219.981 1755.42 218.106 Q1755.42 216.37 1754.24 215.444 Q1753.09 214.518 1749.13 213.662 L1747.65 213.314 Q1743.69 212.481 1741.93 210.768 Q1740.17 209.032 1740.17 206.023 Q1740.17 202.365 1742.76 200.375 Q1745.35 198.384 1750.12 198.384 Q1752.48 198.384 1754.57 198.731 Q1756.65 199.078 1758.41 199.773 Z" fill="#000000" fill-rule="nonzero" fill-opacity="1" /><path clip-path="url(#clip100)" d="M1776.81 188.963 Q1773.71 194.287 1772.21 199.495 Q1770.7 204.703 1770.7 210.05 Q1770.7 215.398 1772.21 220.652 Q1773.73 225.884 1776.81 231.185 L1773.11 231.185 Q1769.64 225.745 1767.9 220.49 Q1766.19 215.236 1766.19 210.05 Q1766.19 204.888 1767.9 199.657 Q1769.61 194.426 1773.11 188.963 L1776.81 188.963 Z" fill="#000000" fill-rule="nonzero" fill-opacity="1" /><path clip-path="url(#clip100)" d="M1806.63 199.009 L1797.25 211.625 L1807.11 224.935 L1802.09 224.935 L1794.54 214.749 L1787 224.935 L1781.98 224.935 L1792.04 211.37 L1782.83 199.009 L1787.85 199.009 L1794.73 208.245 L1801.6 199.009 L1806.63 199.009 Z" fill="#000000" fill-rule="nonzero" fill-opacity="1" /><path clip-path="url(#clip100)" d="M1812.46 188.963 L1816.16 188.963 Q1819.64 194.426 1821.35 199.657 Q1823.09 204.888 1823.09 210.05 Q1823.09 215.236 1821.35 220.49 Q1819.64 225.745 1816.16 231.185 L1812.46 231.185 Q1815.54 225.884 1817.04 220.652 Q1818.57 215.398 1818.57 210.05 Q1818.57 204.703 1817.04 199.495 Q1815.54 194.287 1812.46 188.963 Z" fill="#000000" fill-rule="nonzero" fill-opacity="1" /><path clip-path="url(#clip100)" d="M1864.03 195.213 L1864.03 204.171 L1876.93 204.171 L1876.93 208.106 L1864.03 208.106 L1864.03 217.064 L1860.15 217.064 L1860.15 208.106 L1847.25 208.106 L1847.25 204.171 L1860.15 204.171 L1860.15 195.213 L1864.03 195.213 M1847.25 220.999 L1876.93 220.999 L1876.93 224.935 L1847.25 224.935 L1847.25 220.999 Z" fill="#000000" fill-rule="nonzero" fill-opacity="1" /><path clip-path="url(#clip100)" d="M1906.12 220.999 L1922.44 220.999 L1922.44 224.935 L1900.49 224.935 L1900.49 220.999 Q1903.16 218.245 1907.74 213.615 Q1912.34 208.962 1913.53 207.62 Q1915.77 205.097 1916.65 203.361 Q1917.55 201.601 1917.55 199.912 Q1917.55 197.157 1915.61 195.421 Q1913.69 193.685 1910.59 193.685 Q1908.39 193.685 1905.93 194.449 Q1903.5 195.213 1900.72 196.763 L1900.72 192.041 Q1903.55 190.907 1906 190.328 Q1908.46 189.75 1910.49 189.75 Q1915.86 189.75 1919.06 192.435 Q1922.25 195.12 1922.25 199.611 Q1922.25 201.74 1921.44 203.662 Q1920.65 205.56 1918.55 208.152 Q1917.97 208.824 1914.87 212.041 Q1911.77 215.236 1906.12 220.999 Z" fill="#000000" fill-rule="nonzero" fill-opacity="1" /><path clip-path="url(#clip100)" d="M1952.55 191.509 L1952.55 196.069 Q1949.89 194.796 1947.53 194.171 Q1945.17 193.546 1942.97 193.546 Q1939.15 193.546 1937.07 195.027 Q1935.01 196.509 1935.01 199.24 Q1935.01 201.532 1936.37 202.713 Q1937.76 203.87 1941.6 204.588 L1944.43 205.166 Q1949.66 206.162 1952.14 208.685 Q1954.64 211.185 1954.64 215.398 Q1954.64 220.421 1951.26 223.013 Q1947.9 225.606 1941.4 225.606 Q1938.94 225.606 1936.16 225.05 Q1933.41 224.495 1930.45 223.407 L1930.45 218.592 Q1933.29 220.189 1936.03 220.999 Q1938.76 221.81 1941.4 221.81 Q1945.4 221.81 1947.58 220.236 Q1949.75 218.662 1949.75 215.745 Q1949.75 213.199 1948.18 211.763 Q1946.63 210.328 1943.06 209.611 L1940.22 209.055 Q1934.98 208.013 1932.65 205.791 Q1930.31 203.569 1930.31 199.611 Q1930.31 195.027 1933.53 192.389 Q1936.77 189.75 1942.44 189.75 Q1944.87 189.75 1947.39 190.189 Q1949.91 190.629 1952.55 191.509 Z" fill="#000000" fill-rule="nonzero" fill-opacity="1" /><path clip-path="url(#clip100)" d="M1961.93 190.375 L1983.78 190.375 L1983.78 194.31 L1966.6 194.31 L1966.6 204.541 L1983.06 204.541 L1983.06 208.476 L1966.6 208.476 L1966.6 220.999 L1984.2 220.999 L1984.2 224.935 L1961.93 224.935 L1961.93 190.375 Z" fill="#000000" fill-rule="nonzero" fill-opacity="1" /><polyline clip-path="url(#clip100)" style="stroke:#ff0000; stroke-linecap:round; stroke-linejoin:round; stroke-width:8; stroke-opacity:1; fill:none" stroke-dasharray="32, 20" points="1599.01,259.495 1719.84,259.495 "/>
<path clip-path="url(#clip100)" d="M1747.39 243.488 L1747.39 250.849 L1756.17 250.849 L1756.17 254.159 L1747.39 254.159 L1747.39 268.233 Q1747.39 271.404 1748.25 272.307 Q1749.13 273.21 1751.79 273.21 L1756.17 273.21 L1756.17 276.775 L1751.79 276.775 Q1746.86 276.775 1744.98 274.946 Q1743.11 273.094 1743.11 268.233 L1743.11 254.159 L1739.98 254.159 L1739.98 250.849 L1743.11 250.849 L1743.11 243.488 L1747.39 243.488 Z" fill="#000000" fill-rule="nonzero" fill-opacity="1" /><path clip-path="url(#clip100)" d="M1776.79 254.83 Q1776.07 254.414 1775.22 254.228 Q1774.38 254.02 1773.36 254.02 Q1769.75 254.02 1767.81 256.381 Q1765.89 258.719 1765.89 263.117 L1765.89 276.775 L1761.6 276.775 L1761.6 250.849 L1765.89 250.849 L1765.89 254.877 Q1767.23 252.515 1769.38 251.381 Q1771.54 250.224 1774.61 250.224 Q1775.05 250.224 1775.59 250.293 Q1776.12 250.34 1776.77 250.455 L1776.79 254.83 Z" fill="#000000" fill-rule="nonzero" fill-opacity="1" /><path clip-path="url(#clip100)" d="M1780.82 266.543 L1780.82 250.849 L1785.08 250.849 L1785.08 266.381 Q1785.08 270.062 1786.51 271.914 Q1787.95 273.742 1790.82 273.742 Q1794.27 273.742 1796.26 271.543 Q1798.27 269.344 1798.27 265.548 L1798.27 250.849 L1802.53 250.849 L1802.53 276.775 L1798.27 276.775 L1798.27 272.793 Q1796.72 275.154 1794.66 276.312 Q1792.62 277.446 1789.91 277.446 Q1785.45 277.446 1783.13 274.668 Q1780.82 271.89 1780.82 266.543 M1791.54 250.224 L1791.54 250.224 Z" fill="#000000" fill-rule="nonzero" fill-opacity="1" /><path clip-path="url(#clip100)" d="M1833.48 262.747 L1833.48 264.83 L1813.9 264.83 Q1814.17 269.228 1816.54 271.543 Q1818.92 273.835 1823.16 273.835 Q1825.61 273.835 1827.9 273.233 Q1830.22 272.631 1832.48 271.427 L1832.48 275.455 Q1830.19 276.427 1827.79 276.937 Q1825.38 277.446 1822.9 277.446 Q1816.7 277.446 1813.06 273.835 Q1809.45 270.224 1809.45 264.066 Q1809.45 257.701 1812.88 253.974 Q1816.33 250.224 1822.16 250.224 Q1827.39 250.224 1830.42 253.603 Q1833.48 256.96 1833.48 262.747 M1829.22 261.497 Q1829.17 258.002 1827.25 255.918 Q1825.35 253.835 1822.21 253.835 Q1818.64 253.835 1816.49 255.849 Q1814.36 257.863 1814.04 261.52 L1829.22 261.497 Z" fill="#000000" fill-rule="nonzero" fill-opacity="1" /><path clip-path="url(#clip100)" d="M1868.66 240.756 L1868.66 244.298 L1864.59 244.298 Q1862.3 244.298 1861.4 245.224 Q1860.52 246.15 1860.52 248.557 L1860.52 250.849 L1867.53 250.849 L1867.53 254.159 L1860.52 254.159 L1860.52 276.775 L1856.23 276.775 L1856.23 254.159 L1852.16 254.159 L1852.16 250.849 L1856.23 250.849 L1856.23 249.043 Q1856.23 244.715 1858.25 242.747 Q1860.26 240.756 1864.64 240.756 L1868.66 240.756 Z" fill="#000000" fill-rule="nonzero" fill-opacity="1" /><path clip-path="url(#clip100)" d="M1882.46 240.803 Q1879.36 246.127 1877.85 251.335 Q1876.35 256.543 1876.35 261.89 Q1876.35 267.238 1877.85 272.492 Q1879.38 277.724 1882.46 283.025 L1878.76 283.025 Q1875.28 277.585 1873.55 272.33 Q1871.84 267.076 1871.84 261.89 Q1871.84 256.728 1873.55 251.497 Q1875.26 246.266 1878.76 240.803 L1882.46 240.803 Z" fill="#000000" fill-rule="nonzero" fill-opacity="1" /><path clip-path="url(#clip100)" d="M1912.28 250.849 L1902.9 263.465 L1912.76 276.775 L1907.74 276.775 L1900.19 266.589 L1892.65 276.775 L1887.62 276.775 L1897.69 263.21 L1888.48 250.849 L1893.5 250.849 L1900.38 260.085 L1907.25 250.849 L1912.28 250.849 Z" fill="#000000" fill-rule="nonzero" fill-opacity="1" /><path clip-path="url(#clip100)" d="M1918.11 240.803 L1921.81 240.803 Q1925.28 246.266 1927 251.497 Q1928.73 256.728 1928.73 261.89 Q1928.73 267.076 1927 272.33 Q1925.28 277.585 1921.81 283.025 L1918.11 283.025 Q1921.19 277.724 1922.69 272.492 Q1924.22 267.238 1924.22 261.89 Q1924.22 256.543 1922.69 251.335 Q1921.19 246.127 1918.11 240.803 Z" fill="#000000" fill-rule="nonzero" fill-opacity="1" /></svg>
