<?xml version="1.0" encoding="utf-8"?>
<svg xmlns="http://www.w3.org/2000/svg" xmlns:xlink="http://www.w3.org/1999/xlink" width="528" height="336" viewBox="0 0 2112 1344">
<defs>
  <clipPath id="clip240">
    <rect x="0" y="0" width="2112" height="1344"/>
  </clipPath>
</defs>
<path clip-path="url(#clip240)" d="M0 1344 L2112 1344 L2112 2.13163e-14 L0 2.13163e-14  Z" fill="#ffffff" fill-rule="evenodd" fill-opacity="1"/>
<defs>
  <clipPath id="clip241">
    <rect x="205" y="120" width="1860" height="1054"/>
  </clipPath>
</defs>
<path clip-path="url(#clip240)" d="M205.706 1173.47 L2064.76 1173.47 L2064.76 120.723 L205.706 120.723  Z" fill="#ffffff" fill-rule="evenodd" fill-opacity="1"/>
<polyline clip-path="url(#clip241)" style="stroke:#000000; stroke-linecap:round; stroke-linejoin:round; stroke-width:2; stroke-opacity:0.1; fill:none" points="257.064,1173.47 257.064,120.723 "/>
<polyline clip-path="url(#clip241)" style="stroke:#000000; stroke-linecap:round; stroke-linejoin:round; stroke-width:2; stroke-opacity:0.1; fill:none" points="696.378,1173.47 696.378,120.723 "/>
<polyline clip-path="url(#clip241)" style="stroke:#000000; stroke-linecap:round; stroke-linejoin:round; stroke-width:2; stroke-opacity:0.1; fill:none" points="1135.69,1173.47 1135.69,120.723 "/>
<polyline clip-path="url(#clip241)" style="stroke:#000000; stroke-linecap:round; stroke-linejoin:round; stroke-width:2; stroke-opacity:0.1; fill:none" points="1575.01,1173.47 1575.01,120.723 "/>
<polyline clip-path="url(#clip241)" style="stroke:#000000; stroke-linecap:round; stroke-linejoin:round; stroke-width:2; stroke-opacity:0.1; fill:none" points="2014.32,1173.47 2014.32,120.723 "/>
<polyline clip-path="url(#clip241)" style="stroke:#000000; stroke-linecap:round; stroke-linejoin:round; stroke-width:2; stroke-opacity:0.1; fill:none" points="205.706,1007.72 2064.76,1007.72 "/>
<polyline clip-path="url(#clip241)" style="stroke:#000000; stroke-linecap:round; stroke-linejoin:round; stroke-width:2; stroke-opacity:0.1; fill:none" points="205.706,816.338 2064.76,816.338 "/>
<polyline clip-path="url(#clip241)" style="stroke:#000000; stroke-linecap:round; stroke-linejoin:round; stroke-width:2; stroke-opacity:0.1; fill:none" points="205.706,624.952 2064.76,624.952 "/>
<polyline clip-path="url(#clip241)" style="stroke:#000000; stroke-linecap:round; stroke-linejoin:round; stroke-width:2; stroke-opacity:0.1; fill:none" points="205.706,433.566 2064.76,433.566 "/>
<polyline clip-path="url(#clip241)" style="stroke:#000000; stroke-linecap:round; stroke-linejoin:round; stroke-width:2; stroke-opacity:0.1; fill:none" points="205.706,242.18 2064.76,242.18 "/>
<polyline clip-path="url(#clip240)" style="stroke:#000000; stroke-linecap:round; stroke-linejoin:round; stroke-width:4; stroke-opacity:1; fill:none" points="205.706,1173.47 2064.76,1173.47 "/>
<polyline clip-path="url(#clip240)" style="stroke:#000000; stroke-linecap:round; stroke-linejoin:round; stroke-width:4; stroke-opacity:1; fill:none" points="257.064,1173.47 257.064,1154.57 "/>
<polyline clip-path="url(#clip240)" style="stroke:#000000; stroke-linecap:round; stroke-linejoin:round; stroke-width:4; stroke-opacity:1; fill:none" points="696.378,1173.47 696.378,1154.57 "/>
<polyline clip-path="url(#clip240)" style="stroke:#000000; stroke-linecap:round; stroke-linejoin:round; stroke-width:4; stroke-opacity:1; fill:none" points="1135.69,1173.47 1135.69,1154.57 "/>
<polyline clip-path="url(#clip240)" style="stroke:#000000; stroke-linecap:round; stroke-linejoin:round; stroke-width:4; stroke-opacity:1; fill:none" points="1575.01,1173.47 1575.01,1154.57 "/>
<polyline clip-path="url(#clip240)" style="stroke:#000000; stroke-linecap:round; stroke-linejoin:round; stroke-width:4; stroke-opacity:1; fill:none" points="2014.32,1173.47 2014.32,1154.57 "/>
<path clip-path="url(#clip240)" d="M219.367 1202.09 Q215.756 1202.09 213.927 1205.65 Q212.122 1209.19 212.122 1216.32 Q212.122 1223.43 213.927 1226.99 Q215.756 1230.53 219.367 1230.53 Q223.001 1230.53 224.807 1226.99 Q226.636 1223.43 226.636 1216.32 Q226.636 1209.19 224.807 1205.65 Q223.001 1202.09 219.367 1202.09 M219.367 1198.38 Q225.177 1198.38 228.233 1202.99 Q231.312 1207.57 231.312 1216.32 Q231.312 1225.05 228.233 1229.65 Q225.177 1234.24 219.367 1234.24 Q213.557 1234.24 210.478 1229.65 Q207.423 1225.05 207.423 1216.32 Q207.423 1207.57 210.478 1202.99 Q213.557 1198.38 219.367 1198.38 Z" fill="#000000" fill-rule="nonzero" fill-opacity="1" /><path clip-path="url(#clip240)" d="M239.529 1227.69 L244.413 1227.69 L244.413 1233.57 L239.529 1233.57 L239.529 1227.69 Z" fill="#000000" fill-rule="nonzero" fill-opacity="1" /><path clip-path="url(#clip240)" d="M264.598 1202.09 Q260.987 1202.09 259.159 1205.65 Q257.353 1209.19 257.353 1216.32 Q257.353 1223.43 259.159 1226.99 Q260.987 1230.53 264.598 1230.53 Q268.233 1230.53 270.038 1226.99 Q271.867 1223.43 271.867 1216.32 Q271.867 1209.19 270.038 1205.65 Q268.233 1202.09 264.598 1202.09 M264.598 1198.38 Q270.409 1198.38 273.464 1202.99 Q276.543 1207.57 276.543 1216.32 Q276.543 1225.05 273.464 1229.65 Q270.409 1234.24 264.598 1234.24 Q258.788 1234.24 255.71 1229.65 Q252.654 1225.05 252.654 1216.32 Q252.654 1207.57 255.71 1202.99 Q258.788 1198.38 264.598 1198.38 Z" fill="#000000" fill-rule="nonzero" fill-opacity="1" /><path clip-path="url(#clip240)" d="M294.76 1202.09 Q291.149 1202.09 289.32 1205.65 Q287.515 1209.19 287.515 1216.32 Q287.515 1223.43 289.32 1226.99 Q291.149 1230.53 294.76 1230.53 Q298.394 1230.53 300.2 1226.99 Q302.029 1223.43 302.029 1216.32 Q302.029 1209.19 300.2 1205.65 Q298.394 1202.09 294.76 1202.09 M294.76 1198.38 Q300.57 1198.38 303.626 1202.99 Q306.705 1207.57 306.705 1216.32 Q306.705 1225.05 303.626 1229.65 Q300.57 1234.24 294.76 1234.24 Q288.95 1234.24 285.871 1229.65 Q282.816 1225.05 282.816 1216.32 Q282.816 1207.57 285.871 1202.99 Q288.95 1198.38 294.76 1198.38 Z" fill="#000000" fill-rule="nonzero" fill-opacity="1" /><path clip-path="url(#clip240)" d="M659.179 1202.09 Q655.568 1202.09 653.739 1205.65 Q651.933 1209.19 651.933 1216.32 Q651.933 1223.43 653.739 1226.99 Q655.568 1230.53 659.179 1230.53 Q662.813 1230.53 664.619 1226.99 Q666.447 1223.43 666.447 1216.32 Q666.447 1209.19 664.619 1205.65 Q662.813 1202.09 659.179 1202.09 M659.179 1198.38 Q664.989 1198.38 668.045 1202.99 Q671.123 1207.57 671.123 1216.32 Q671.123 1225.05 668.045 1229.65 Q664.989 1234.24 659.179 1234.24 Q653.369 1234.24 650.29 1229.65 Q647.234 1225.05 647.234 1216.32 Q647.234 1207.57 650.29 1202.99 Q653.369 1198.38 659.179 1198.38 Z" fill="#000000" fill-rule="nonzero" fill-opacity="1" /><path clip-path="url(#clip240)" d="M679.341 1227.69 L684.225 1227.69 L684.225 1233.57 L679.341 1233.57 L679.341 1227.69 Z" fill="#000000" fill-rule="nonzero" fill-opacity="1" /><path clip-path="url(#clip240)" d="M698.438 1229.63 L714.757 1229.63 L714.757 1233.57 L692.813 1233.57 L692.813 1229.63 Q695.475 1226.88 700.058 1222.25 Q704.665 1217.59 705.845 1216.25 Q708.091 1213.73 708.97 1211.99 Q709.873 1210.23 709.873 1208.54 Q709.873 1205.79 707.929 1204.05 Q706.007 1202.32 702.905 1202.32 Q700.706 1202.32 698.253 1203.08 Q695.822 1203.84 693.044 1205.4 L693.044 1200.67 Q695.868 1199.54 698.322 1198.96 Q700.776 1198.38 702.813 1198.38 Q708.183 1198.38 711.378 1201.07 Q714.572 1203.75 714.572 1208.24 Q714.572 1210.37 713.762 1212.29 Q712.975 1214.19 710.868 1216.78 Q710.29 1217.46 707.188 1220.67 Q704.086 1223.87 698.438 1229.63 Z" fill="#000000" fill-rule="nonzero" fill-opacity="1" /><path clip-path="url(#clip240)" d="M724.618 1199.01 L742.975 1199.01 L742.975 1202.94 L728.901 1202.94 L728.901 1211.41 Q729.919 1211.07 730.938 1210.9 Q731.956 1210.72 732.975 1210.72 Q738.762 1210.72 742.141 1213.89 Q745.521 1217.06 745.521 1222.48 Q745.521 1228.06 742.049 1231.16 Q738.577 1234.24 732.257 1234.24 Q730.081 1234.24 727.813 1233.87 Q725.567 1233.5 723.16 1232.76 L723.16 1228.06 Q725.243 1229.19 727.465 1229.75 Q729.688 1230.3 732.165 1230.3 Q736.169 1230.3 738.507 1228.2 Q740.845 1226.09 740.845 1222.48 Q740.845 1218.87 738.507 1216.76 Q736.169 1214.65 732.165 1214.65 Q730.29 1214.65 728.415 1215.07 Q726.563 1215.49 724.618 1216.37 L724.618 1199.01 Z" fill="#000000" fill-rule="nonzero" fill-opacity="1" /><path clip-path="url(#clip240)" d="M1098 1202.09 Q1094.38 1202.09 1092.56 1205.65 Q1090.75 1209.19 1090.75 1216.32 Q1090.75 1223.43 1092.56 1226.99 Q1094.38 1230.53 1098 1230.53 Q1101.63 1230.53 1103.43 1226.99 Q1105.26 1223.43 1105.26 1216.32 Q1105.26 1209.19 1103.43 1205.65 Q1101.63 1202.09 1098 1202.09 M1098 1198.38 Q1103.81 1198.38 1106.86 1202.99 Q1109.94 1207.57 1109.94 1216.32 Q1109.94 1225.05 1106.86 1229.65 Q1103.81 1234.24 1098 1234.24 Q1092.18 1234.24 1089.11 1229.65 Q1086.05 1225.05 1086.05 1216.32 Q1086.05 1207.57 1089.11 1202.99 Q1092.18 1198.38 1098 1198.38 Z" fill="#000000" fill-rule="nonzero" fill-opacity="1" /><path clip-path="url(#clip240)" d="M1118.16 1227.69 L1123.04 1227.69 L1123.04 1233.57 L1118.16 1233.57 L1118.16 1227.69 Z" fill="#000000" fill-rule="nonzero" fill-opacity="1" /><path clip-path="url(#clip240)" d="M1133.27 1199.01 L1151.63 1199.01 L1151.63 1202.94 L1137.56 1202.94 L1137.56 1211.41 Q1138.57 1211.07 1139.59 1210.9 Q1140.61 1210.72 1141.63 1210.72 Q1147.42 1210.72 1150.8 1213.89 Q1154.18 1217.06 1154.18 1222.48 Q1154.18 1228.06 1150.7 1231.16 Q1147.23 1234.24 1140.91 1234.24 Q1138.74 1234.24 1136.47 1233.87 Q1134.22 1233.5 1131.81 1232.76 L1131.81 1228.06 Q1133.9 1229.19 1136.12 1229.75 Q1138.34 1230.3 1140.82 1230.3 Q1144.82 1230.3 1147.16 1228.2 Q1149.5 1226.09 1149.5 1222.48 Q1149.5 1218.87 1147.16 1216.76 Q1144.82 1214.65 1140.82 1214.65 Q1138.94 1214.65 1137.07 1215.07 Q1135.22 1215.49 1133.27 1216.37 L1133.27 1199.01 Z" fill="#000000" fill-rule="nonzero" fill-opacity="1" /><path clip-path="url(#clip240)" d="M1173.39 1202.09 Q1169.78 1202.09 1167.95 1205.65 Q1166.14 1209.19 1166.14 1216.32 Q1166.14 1223.43 1167.95 1226.99 Q1169.78 1230.53 1173.39 1230.53 Q1177.02 1230.53 1178.83 1226.99 Q1180.66 1223.43 1180.66 1216.32 Q1180.66 1209.19 1178.83 1205.65 Q1177.02 1202.09 1173.39 1202.09 M1173.39 1198.38 Q1179.2 1198.38 1182.25 1202.99 Q1185.33 1207.57 1185.33 1216.32 Q1185.33 1225.05 1182.25 1229.65 Q1179.2 1234.24 1173.39 1234.24 Q1167.58 1234.24 1164.5 1229.65 Q1161.44 1225.05 1161.44 1216.32 Q1161.44 1207.57 1164.5 1202.99 Q1167.58 1198.38 1173.39 1198.38 Z" fill="#000000" fill-rule="nonzero" fill-opacity="1" /><path clip-path="url(#clip240)" d="M1537.81 1202.09 Q1534.2 1202.09 1532.37 1205.65 Q1530.56 1209.19 1530.56 1216.32 Q1530.56 1223.43 1532.37 1226.99 Q1534.2 1230.53 1537.81 1230.53 Q1541.44 1230.53 1543.25 1226.99 Q1545.08 1223.43 1545.08 1216.32 Q1545.08 1209.19 1543.25 1205.65 Q1541.44 1202.09 1537.81 1202.09 M1537.81 1198.38 Q1543.62 1198.38 1546.67 1202.99 Q1549.75 1207.57 1549.75 1216.32 Q1549.75 1225.05 1546.67 1229.65 Q1543.62 1234.24 1537.81 1234.24 Q1532 1234.24 1528.92 1229.65 Q1525.86 1225.05 1525.86 1216.32 Q1525.86 1207.57 1528.92 1202.99 Q1532 1198.38 1537.81 1198.38 Z" fill="#000000" fill-rule="nonzero" fill-opacity="1" /><path clip-path="url(#clip240)" d="M1557.97 1227.69 L1562.85 1227.69 L1562.85 1233.57 L1557.97 1233.57 L1557.97 1227.69 Z" fill="#000000" fill-rule="nonzero" fill-opacity="1" /><path clip-path="url(#clip240)" d="M1571.86 1199.01 L1594.08 1199.01 L1594.08 1201 L1581.53 1233.57 L1576.65 1233.57 L1588.45 1202.94 L1571.86 1202.94 L1571.86 1199.01 Z" fill="#000000" fill-rule="nonzero" fill-opacity="1" /><path clip-path="url(#clip240)" d="M1603.25 1199.01 L1621.6 1199.01 L1621.6 1202.94 L1607.53 1202.94 L1607.53 1211.41 Q1608.55 1211.07 1609.57 1210.9 Q1610.58 1210.72 1611.6 1210.72 Q1617.39 1210.72 1620.77 1213.89 Q1624.15 1217.06 1624.15 1222.48 Q1624.15 1228.06 1620.68 1231.16 Q1617.2 1234.24 1610.89 1234.24 Q1608.71 1234.24 1606.44 1233.87 Q1604.2 1233.5 1601.79 1232.76 L1601.79 1228.06 Q1603.87 1229.19 1606.09 1229.75 Q1608.32 1230.3 1610.79 1230.3 Q1614.8 1230.3 1617.14 1228.2 Q1619.47 1226.09 1619.47 1222.48 Q1619.47 1218.87 1617.14 1216.76 Q1614.8 1214.65 1610.79 1214.65 Q1608.92 1214.65 1607.04 1215.07 Q1605.19 1215.49 1603.25 1216.37 L1603.25 1199.01 Z" fill="#000000" fill-rule="nonzero" fill-opacity="1" /><path clip-path="url(#clip240)" d="M1966.39 1229.63 L1974.03 1229.63 L1974.03 1203.27 L1965.72 1204.93 L1965.72 1200.67 L1973.98 1199.01 L1978.66 1199.01 L1978.66 1229.63 L1986.3 1229.63 L1986.3 1233.57 L1966.39 1233.57 L1966.39 1229.63 Z" fill="#000000" fill-rule="nonzero" fill-opacity="1" /><path clip-path="url(#clip240)" d="M1995.74 1227.69 L2000.63 1227.69 L2000.63 1233.57 L1995.74 1233.57 L1995.74 1227.69 Z" fill="#000000" fill-rule="nonzero" fill-opacity="1" /><path clip-path="url(#clip240)" d="M2020.81 1202.09 Q2017.2 1202.09 2015.37 1205.65 Q2013.57 1209.19 2013.57 1216.32 Q2013.57 1223.43 2015.37 1226.99 Q2017.2 1230.53 2020.81 1230.53 Q2024.45 1230.53 2026.25 1226.99 Q2028.08 1223.43 2028.08 1216.32 Q2028.08 1209.19 2026.25 1205.65 Q2024.45 1202.09 2020.81 1202.09 M2020.81 1198.38 Q2026.62 1198.38 2029.68 1202.99 Q2032.76 1207.57 2032.76 1216.32 Q2032.76 1225.05 2029.68 1229.65 Q2026.62 1234.24 2020.81 1234.24 Q2015 1234.24 2011.92 1229.65 Q2008.87 1225.05 2008.87 1216.32 Q2008.87 1207.57 2011.92 1202.99 Q2015 1198.38 2020.81 1198.38 Z" fill="#000000" fill-rule="nonzero" fill-opacity="1" /><path clip-path="url(#clip240)" d="M2050.97 1202.09 Q2047.36 1202.09 2045.53 1205.65 Q2043.73 1209.19 2043.73 1216.32 Q2043.73 1223.43 2045.53 1226.99 Q2047.36 1230.53 2050.97 1230.53 Q2054.61 1230.53 2056.41 1226.99 Q2058.24 1223.43 2058.24 1216.32 Q2058.24 1209.19 2056.41 1205.65 Q2054.61 1202.09 2050.97 1202.09 M2050.97 1198.38 Q2056.78 1198.38 2059.84 1202.99 Q2062.92 1207.57 2062.92 1216.32 Q2062.92 1225.05 2059.84 1229.65 Q2056.78 1234.24 2050.97 1234.24 Q2045.16 1234.24 2042.09 1229.65 Q2039.03 1225.05 2039.03 1216.32 Q2039.03 1207.57 2042.09 1202.99 Q2045.16 1198.38 2050.97 1198.38 Z" fill="#000000" fill-rule="nonzero" fill-opacity="1" /><path clip-path="url(#clip240)" d="M1151.85 1278.37 L1138.95 1295.71 L1152.51 1314.01 L1145.61 1314.01 L1135.23 1300.01 L1124.85 1314.01 L1117.95 1314.01 L1131.79 1295.36 L1119.13 1278.37 L1126.03 1278.37 L1135.49 1291.07 L1144.94 1278.37 L1151.85 1278.37 Z" fill="#000000" fill-rule="nonzero" fill-opacity="1" /><polyline clip-path="url(#clip240)" style="stroke:#000000; stroke-linecap:round; stroke-linejoin:round; stroke-width:4; stroke-opacity:1; fill:none" points="205.706,1173.47 205.706,120.723 "/>
<polyline clip-path="url(#clip240)" style="stroke:#000000; stroke-linecap:round; stroke-linejoin:round; stroke-width:4; stroke-opacity:1; fill:none" points="205.706,1007.72 224.604,1007.72 "/>
<polyline clip-path="url(#clip240)" style="stroke:#000000; stroke-linecap:round; stroke-linejoin:round; stroke-width:4; stroke-opacity:1; fill:none" points="205.706,816.338 224.604,816.338 "/>
<polyline clip-path="url(#clip240)" style="stroke:#000000; stroke-linecap:round; stroke-linejoin:round; stroke-width:4; stroke-opacity:1; fill:none" points="205.706,624.952 224.604,624.952 "/>
<polyline clip-path="url(#clip240)" style="stroke:#000000; stroke-linecap:round; stroke-linejoin:round; stroke-width:4; stroke-opacity:1; fill:none" points="205.706,433.566 224.604,433.566 "/>
<polyline clip-path="url(#clip240)" style="stroke:#000000; stroke-linecap:round; stroke-linejoin:round; stroke-width:4; stroke-opacity:1; fill:none" points="205.706,242.18 224.604,242.18 "/>
<path clip-path="url(#clip240)" d="M113.911 1008.18 L143.586 1008.18 L143.586 1012.11 L113.911 1012.11 L113.911 1008.18 Z" fill="#000000" fill-rule="nonzero" fill-opacity="1" /><path clip-path="url(#clip240)" d="M157.707 1021.07 L174.026 1021.07 L174.026 1025 L152.082 1025 L152.082 1021.07 Q154.744 1018.31 159.327 1013.68 Q163.933 1009.03 165.114 1007.69 Q167.359 1005.17 168.239 1003.43 Q169.142 1001.67 169.142 999.981 Q169.142 997.226 167.197 995.49 Q165.276 993.754 162.174 993.754 Q159.975 993.754 157.521 994.518 Q155.091 995.282 152.313 996.833 L152.313 992.111 Q155.137 990.976 157.591 990.398 Q160.045 989.819 162.082 989.819 Q167.452 989.819 170.646 992.504 Q173.841 995.189 173.841 999.68 Q173.841 1001.81 173.031 1003.73 Q172.244 1005.63 170.137 1008.22 Q169.558 1008.89 166.457 1012.11 Q163.355 1015.31 157.707 1021.07 Z" fill="#000000" fill-rule="nonzero" fill-opacity="1" /><path clip-path="url(#clip240)" d="M113.54 816.789 L143.216 816.789 L143.216 820.725 L113.54 820.725 L113.54 816.789 Z" fill="#000000" fill-rule="nonzero" fill-opacity="1" /><path clip-path="url(#clip240)" d="M154.119 829.683 L161.757 829.683 L161.757 803.317 L153.447 804.984 L153.447 800.725 L161.711 799.058 L166.387 799.058 L166.387 829.683 L174.026 829.683 L174.026 833.618 L154.119 833.618 L154.119 829.683 Z" fill="#000000" fill-rule="nonzero" fill-opacity="1" /><path clip-path="url(#clip240)" d="M162.082 610.751 Q158.47 610.751 156.642 614.315 Q154.836 617.857 154.836 624.987 Q154.836 632.093 156.642 635.658 Q158.47 639.199 162.082 639.199 Q165.716 639.199 167.521 635.658 Q169.35 632.093 169.35 624.987 Q169.35 617.857 167.521 614.315 Q165.716 610.751 162.082 610.751 M162.082 607.047 Q167.892 607.047 170.947 611.653 Q174.026 616.237 174.026 624.987 Q174.026 633.713 170.947 638.32 Q167.892 642.903 162.082 642.903 Q156.271 642.903 153.193 638.32 Q150.137 633.713 150.137 624.987 Q150.137 616.237 153.193 611.653 Q156.271 607.047 162.082 607.047 Z" fill="#000000" fill-rule="nonzero" fill-opacity="1" /><path clip-path="url(#clip240)" d="M154.119 446.911 L161.757 446.911 L161.757 420.545 L153.447 422.212 L153.447 417.952 L161.711 416.286 L166.387 416.286 L166.387 446.911 L174.026 446.911 L174.026 450.846 L154.119 450.846 L154.119 446.911 Z" fill="#000000" fill-rule="nonzero" fill-opacity="1" /><path clip-path="url(#clip240)" d="M157.707 255.524 L174.026 255.524 L174.026 259.46 L152.082 259.46 L152.082 255.524 Q154.744 252.77 159.327 248.14 Q163.933 243.487 165.114 242.145 Q167.359 239.622 168.239 237.886 Q169.142 236.126 169.142 234.437 Q169.142 231.682 167.197 229.946 Q165.276 228.21 162.174 228.21 Q159.975 228.21 157.521 228.974 Q155.091 229.738 152.313 231.288 L152.313 226.566 Q155.137 225.432 157.591 224.853 Q160.045 224.275 162.082 224.275 Q167.452 224.275 170.646 226.96 Q173.841 229.645 173.841 234.136 Q173.841 236.265 173.031 238.187 Q172.244 240.085 170.137 242.677 Q169.558 243.349 166.457 246.566 Q163.355 249.761 157.707 255.524 Z" fill="#000000" fill-rule="nonzero" fill-opacity="1" /><path clip-path="url(#clip240)" d="M18.079 878.697 L22.9487 878.697 L22.9487 884.299 Q22.9487 887.45 24.2219 888.691 Q25.495 889.901 28.8052 889.901 L31.9562 889.901 L31.9562 880.257 L36.5077 880.257 L36.5077 889.901 L67.6042 889.901 L67.6042 895.789 L36.5077 895.789 L36.5077 901.391 L31.9562 901.391 L31.9562 895.789 L29.4736 895.789 Q23.5216 895.789 20.8162 893.02 Q18.079 890.251 18.079 884.235 L18.079 878.697 Z" fill="#000000" fill-rule="nonzero" fill-opacity="1" /><path clip-path="url(#clip240)" d="M18.1426 859.727 Q25.4632 863.992 32.6246 866.061 Q39.786 868.13 47.1384 868.13 Q54.4908 868.13 61.7159 866.061 Q68.9091 863.961 76.1979 859.727 L76.1979 864.82 Q68.7182 869.594 61.4931 871.981 Q54.268 874.337 47.1384 874.337 Q40.0406 874.337 32.8474 871.981 Q25.6542 869.626 18.1426 864.82 L18.1426 859.727 Z" fill="#000000" fill-rule="nonzero" fill-opacity="1" /><path clip-path="url(#clip240)" d="M31.9562 818.732 L49.3028 831.623 L67.6042 818.064 L67.6042 824.971 L53.5996 835.347 L67.6042 845.723 L67.6042 852.63 L48.9526 838.784 L31.9562 851.452 L31.9562 844.545 L44.6558 835.092 L31.9562 825.639 L31.9562 818.732 Z" fill="#000000" fill-rule="nonzero" fill-opacity="1" /><path clip-path="url(#clip240)" d="M18.1426 810.711 L18.1426 805.619 Q25.6542 800.845 32.8474 798.489 Q40.0406 796.102 47.1384 796.102 Q54.268 796.102 61.4931 798.489 Q68.7182 800.845 76.1979 805.619 L76.1979 810.711 Q68.9091 806.478 61.7159 804.409 Q54.4908 802.309 47.1384 802.309 Q39.786 802.309 32.6246 804.409 Q25.4632 806.478 18.1426 810.711 Z" fill="#000000" fill-rule="nonzero" fill-opacity="1" /><path clip-path="url(#clip240)" d="M18.079 764.178 L18.079 750.683 L22.6304 750.683 L22.6304 758.322 L71.6464 758.322 L71.6464 750.683 L76.1979 750.683 L76.1979 764.178 L18.079 764.178 Z" fill="#000000" fill-rule="nonzero" fill-opacity="1" /><path clip-path="url(#clip240)" d="M18.079 738.206 L18.079 732.35 L67.6042 732.35 L67.6042 738.206 L18.079 738.206 Z" fill="#000000" fill-rule="nonzero" fill-opacity="1" /><path clip-path="url(#clip240)" d="M36.0621 706.282 Q36.0621 710.993 39.7542 713.73 Q43.4145 716.467 49.812 716.467 Q56.2095 716.467 59.9017 713.762 Q63.5619 711.025 63.5619 706.282 Q63.5619 701.603 59.8698 698.866 Q56.1777 696.129 49.812 696.129 Q43.4781 696.129 39.786 698.866 Q36.0621 701.603 36.0621 706.282 M31.0968 706.282 Q31.0968 698.643 36.0621 694.283 Q41.0273 689.922 49.812 689.922 Q58.5649 689.922 63.5619 694.283 Q68.5272 698.643 68.5272 706.282 Q68.5272 713.953 63.5619 718.313 Q58.5649 722.642 49.812 722.642 Q41.0273 722.642 36.0621 718.313 Q31.0968 713.953 31.0968 706.282 Z" fill="#000000" fill-rule="nonzero" fill-opacity="1" /><path clip-path="url(#clip240)" d="M49.3664 656.757 Q43.0007 656.757 39.4996 659.399 Q35.9984 662.009 35.9984 666.751 Q35.9984 671.462 39.4996 674.103 Q43.0007 676.713 49.3664 676.713 Q55.7003 676.713 59.2014 674.103 Q62.7026 671.462 62.7026 666.751 Q62.7026 662.009 59.2014 659.399 Q55.7003 656.757 49.3664 656.757 M63.18 650.9 Q72.283 650.9 76.7071 654.943 Q81.1631 658.985 81.1631 667.324 Q81.1631 670.411 80.6857 673.149 Q80.2401 675.886 79.2852 678.464 L73.5879 678.464 Q74.9884 675.886 75.6568 673.371 Q76.3252 670.857 76.3252 668.247 Q76.3252 662.486 73.3015 659.621 Q70.3096 656.757 64.2303 656.757 L61.3339 656.757 Q64.485 658.571 66.0446 661.404 Q67.6042 664.237 67.6042 668.183 Q67.6042 674.74 62.6071 678.75 Q57.61 682.761 49.3664 682.761 Q41.091 682.761 36.0939 678.75 Q31.0968 674.74 31.0968 668.183 Q31.0968 664.237 32.6564 661.404 Q34.216 658.571 37.3671 656.757 L31.9562 656.757 L31.9562 650.9 L63.18 650.9 Z" fill="#000000" fill-rule="nonzero" fill-opacity="1" /><path clip-path="url(#clip240)" d="M31.9562 638.837 L31.9562 632.981 L67.6042 632.981 L67.6042 638.837 L31.9562 638.837 M18.079 638.837 L18.079 632.981 L25.495 632.981 L25.495 638.837 L18.079 638.837 Z" fill="#000000" fill-rule="nonzero" fill-opacity="1" /><path clip-path="url(#clip240)" d="M21.8347 614.934 L31.9562 614.934 L31.9562 602.871 L36.5077 602.871 L36.5077 614.934 L55.8594 614.934 Q60.2199 614.934 61.4613 613.757 Q62.7026 612.547 62.7026 608.887 L62.7026 602.871 L67.6042 602.871 L67.6042 608.887 Q67.6042 615.666 65.0897 618.244 Q62.5434 620.822 55.8594 620.822 L36.5077 620.822 L36.5077 625.119 L31.9562 625.119 L31.9562 620.822 L21.8347 620.822 L21.8347 614.934 Z" fill="#000000" fill-rule="nonzero" fill-opacity="1" /><path clip-path="url(#clip240)" d="M33.0065 551.723 L38.5447 551.723 Q37.2716 554.205 36.635 556.879 Q35.9984 559.553 35.9984 562.417 Q35.9984 566.778 37.3352 568.974 Q38.672 571.138 41.3456 571.138 Q43.3826 571.138 44.5603 569.579 Q45.7061 568.019 46.7565 563.308 L47.2021 561.303 Q48.5389 555.065 50.9897 552.455 Q53.4086 549.813 57.7691 549.813 Q62.7344 549.813 65.6308 553.76 Q68.5272 557.675 68.5272 564.55 Q68.5272 567.414 67.9543 570.533 Q67.4132 573.621 66.2992 577.058 L60.2518 577.058 Q61.9387 573.812 62.798 570.661 Q63.6256 567.51 63.6256 564.422 Q63.6256 560.285 62.2251 558.057 Q60.7929 555.829 58.2147 555.829 Q55.8276 555.829 54.5545 557.452 Q53.2813 559.043 52.1037 564.486 L51.6262 566.523 Q50.4804 571.966 48.1251 574.385 Q45.738 576.804 41.6002 576.804 Q36.5713 576.804 33.8341 573.239 Q31.0968 569.674 31.0968 563.117 Q31.0968 559.871 31.5743 557.006 Q32.0517 554.142 33.0065 551.723 Z" fill="#000000" fill-rule="nonzero" fill-opacity="1" /><path clip-path="url(#clip240)" d="M33.3248 514.833 L38.7993 514.833 Q37.4307 517.316 36.7623 519.831 Q36.0621 522.313 36.0621 524.859 Q36.0621 530.557 39.6905 533.708 Q43.2872 536.859 49.812 536.859 Q56.3369 536.859 59.9653 533.708 Q63.5619 530.557 63.5619 524.859 Q63.5619 522.313 62.8935 519.831 Q62.1933 517.316 60.8247 514.833 L66.2355 514.833 Q67.3814 517.284 67.9543 519.926 Q68.5272 522.536 68.5272 525.496 Q68.5272 533.549 63.4664 538.291 Q58.4057 543.034 49.812 543.034 Q41.091 543.034 36.0939 538.259 Q31.0968 533.453 31.0968 525.114 Q31.0968 522.409 31.6697 519.831 Q32.2108 517.252 33.3248 514.833 Z" fill="#000000" fill-rule="nonzero" fill-opacity="1" /><path clip-path="url(#clip240)" d="M49.6847 488.448 Q49.6847 495.545 51.3079 498.283 Q52.9312 501.02 56.8461 501.02 Q59.9653 501.02 61.8114 498.983 Q63.6256 496.914 63.6256 493.381 Q63.6256 488.511 60.1881 485.583 Q56.7188 482.623 50.9897 482.623 L49.6847 482.623 L49.6847 488.448 M47.2657 476.766 L67.6042 476.766 L67.6042 482.623 L62.1933 482.623 Q65.4398 484.628 66.9994 487.62 Q68.5272 490.612 68.5272 494.941 Q68.5272 500.415 65.4716 503.662 Q62.3843 506.876 57.2281 506.876 Q51.2125 506.876 48.1569 502.866 Q45.1014 498.824 45.1014 490.835 L45.1014 482.623 L44.5285 482.623 Q40.4862 482.623 38.2901 485.297 Q36.0621 487.938 36.0621 492.744 Q36.0621 495.8 36.7941 498.696 Q37.5262 501.593 38.9903 504.266 L33.5795 504.266 Q32.3381 501.052 31.7334 498.028 Q31.0968 495.004 31.0968 492.14 Q31.0968 484.405 35.1072 480.586 Q39.1176 476.766 47.2657 476.766 Z" fill="#000000" fill-rule="nonzero" fill-opacity="1" /><path clip-path="url(#clip240)" d="M18.079 464.703 L18.079 458.847 L67.6042 458.847 L67.6042 464.703 L18.079 464.703 Z" fill="#000000" fill-rule="nonzero" fill-opacity="1" /><path clip-path="url(#clip240)" d="M48.3161 416.101 L51.1806 416.101 L51.1806 443.028 Q57.2281 442.646 60.4109 439.4 Q63.5619 436.121 63.5619 430.297 Q63.5619 426.923 62.7344 423.772 Q61.9069 420.589 60.2518 417.47 L65.7899 417.47 Q67.1267 420.621 67.827 423.931 Q68.5272 427.241 68.5272 430.647 Q68.5272 439.177 63.5619 444.174 Q58.5967 449.139 50.1303 449.139 Q41.3774 449.139 36.2531 444.429 Q31.0968 439.686 31.0968 431.665 Q31.0968 424.472 35.7438 420.303 Q40.3589 416.101 48.3161 416.101 M46.5973 421.958 Q41.7912 422.021 38.9266 424.663 Q36.0621 427.273 36.0621 431.602 Q36.0621 436.503 38.8312 439.463 Q41.6002 442.392 46.6292 442.837 L46.5973 421.958 Z" fill="#000000" fill-rule="nonzero" fill-opacity="1" /><path clip-path="url(#clip240)" d="M18.079 392.803 L76.1979 392.803 L76.1979 406.298 L71.6464 406.298 L71.6464 398.691 L22.6304 398.691 L22.6304 406.298 L18.079 406.298 L18.079 392.803 Z" fill="#000000" fill-rule="nonzero" fill-opacity="1" /><path clip-path="url(#clip240)" d="M365.012 43.6931 L365.012 65.8515 L378.137 65.8515 Q384.74 65.8515 387.9 63.1374 Q391.1 60.3828 391.1 54.752 Q391.1 49.0808 387.9 46.4072 Q384.74 43.6931 378.137 43.6931 L365.012 43.6931 M365.012 18.8205 L365.012 37.0496 L377.124 37.0496 Q383.12 37.0496 386.036 34.8216 Q388.994 32.5531 388.994 27.935 Q388.994 23.3575 386.036 21.089 Q383.12 18.8205 377.124 18.8205 L365.012 18.8205 M356.829 12.096 L377.732 12.096 Q387.09 12.096 392.153 15.9849 Q397.217 19.8737 397.217 27.0438 Q397.217 32.5936 394.624 35.8748 Q392.032 39.156 387.009 39.9662 Q393.045 41.2625 396.366 45.3944 Q399.729 49.4858 399.729 55.6432 Q399.729 63.745 394.219 68.1605 Q388.71 72.576 378.542 72.576 L356.829 72.576 L356.829 12.096 Z" fill="#000000" fill-rule="nonzero" fill-opacity="1" /><path clip-path="url(#clip240)" d="M413.421 27.2059 L420.874 27.2059 L420.874 72.576 L413.421 72.576 L413.421 27.2059 M413.421 9.54393 L420.874 9.54393 L420.874 18.9825 L413.421 18.9825 L413.421 9.54393 Z" fill="#000000" fill-rule="nonzero" fill-opacity="1" /><path clip-path="url(#clip240)" d="M474.184 45.1919 L474.184 72.576 L466.73 72.576 L466.73 45.4349 Q466.73 38.994 464.219 35.7938 Q461.707 32.5936 456.684 32.5936 Q450.648 32.5936 447.165 36.4419 Q443.681 40.2903 443.681 46.9338 L443.681 72.576 L436.187 72.576 L436.187 27.2059 L443.681 27.2059 L443.681 34.2544 Q446.354 30.163 449.96 28.1376 Q453.606 26.1121 458.345 26.1121 Q466.163 26.1121 470.174 30.9732 Q474.184 35.7938 474.184 45.1919 Z" fill="#000000" fill-rule="nonzero" fill-opacity="1" /><path clip-path="url(#clip240)" d="M506.632 32.4315 Q500.637 32.4315 497.153 37.1306 Q493.669 41.7891 493.669 49.9314 Q493.669 58.0738 497.112 62.7728 Q500.596 67.4314 506.632 67.4314 Q512.587 67.4314 516.07 62.7323 Q519.554 58.0333 519.554 49.9314 Q519.554 41.8701 516.07 37.1711 Q512.587 32.4315 506.632 32.4315 M506.632 26.1121 Q516.354 26.1121 521.904 32.4315 Q527.454 38.7509 527.454 49.9314 Q527.454 61.0714 521.904 67.4314 Q516.354 73.7508 506.632 73.7508 Q496.869 73.7508 491.319 67.4314 Q485.81 61.0714 485.81 49.9314 Q485.81 38.7509 491.319 32.4315 Q496.869 26.1121 506.632 26.1121 Z" fill="#000000" fill-rule="nonzero" fill-opacity="1" /><path clip-path="url(#clip240)" d="M575.133 35.9153 Q577.928 30.8922 581.817 28.5022 Q585.706 26.1121 590.972 26.1121 Q598.061 26.1121 601.909 31.0947 Q605.757 36.0368 605.757 45.1919 L605.757 72.576 L598.263 72.576 L598.263 45.4349 Q598.263 38.913 595.954 35.7533 Q593.645 32.5936 588.906 32.5936 Q583.113 32.5936 579.751 36.4419 Q576.388 40.2903 576.388 46.9338 L576.388 72.576 L568.894 72.576 L568.894 45.4349 Q568.894 38.8725 566.585 35.7533 Q564.276 32.5936 559.456 32.5936 Q553.744 32.5936 550.382 36.4824 Q547.019 40.3308 547.019 46.9338 L547.019 72.576 L539.525 72.576 L539.525 27.2059 L547.019 27.2059 L547.019 34.2544 Q549.571 30.082 553.136 28.0971 Q556.701 26.1121 561.603 26.1121 Q566.545 26.1121 569.988 28.6237 Q573.472 31.1352 575.133 35.9153 Z" fill="#000000" fill-rule="nonzero" fill-opacity="1" /><path clip-path="url(#clip240)" d="M620.624 27.2059 L628.078 27.2059 L628.078 72.576 L620.624 72.576 L620.624 27.2059 M620.624 9.54393 L628.078 9.54393 L628.078 18.9825 L620.624 18.9825 L620.624 9.54393 Z" fill="#000000" fill-rule="nonzero" fill-opacity="1" /><path clip-path="url(#clip240)" d="M664.293 49.7694 Q655.26 49.7694 651.776 51.8354 Q648.292 53.9013 648.292 58.8839 Q648.292 62.8538 650.885 65.2034 Q653.518 67.5124 658.014 67.5124 Q664.212 67.5124 667.939 63.1374 Q671.706 58.7219 671.706 51.4303 L671.706 49.7694 L664.293 49.7694 M679.16 46.6907 L679.16 72.576 L671.706 72.576 L671.706 65.6895 Q669.154 69.8214 665.346 71.8063 Q661.538 73.7508 656.029 73.7508 Q649.062 73.7508 644.93 69.8619 Q640.838 65.9325 640.838 59.3701 Q640.838 51.7138 645.942 47.825 Q651.087 43.9361 661.255 43.9361 L671.706 43.9361 L671.706 43.2069 Q671.706 38.0623 668.303 35.2672 Q664.941 32.4315 658.824 32.4315 Q654.935 32.4315 651.249 33.3632 Q647.563 34.295 644.16 36.1584 L644.16 29.2718 Q648.251 27.692 652.1 26.9223 Q655.948 26.1121 659.594 26.1121 Q669.438 26.1121 674.299 31.2163 Q679.16 36.3204 679.16 46.6907 Z" fill="#000000" fill-rule="nonzero" fill-opacity="1" /><path clip-path="url(#clip240)" d="M694.513 9.54393 L701.966 9.54393 L701.966 72.576 L694.513 72.576 L694.513 9.54393 Z" fill="#000000" fill-rule="nonzero" fill-opacity="1" /><path clip-path="url(#clip240)" d="M785.496 63.9476 L785.496 47.7034 L772.128 47.7034 L772.128 40.9789 L793.598 40.9789 L793.598 66.9452 Q788.858 70.3075 783.147 72.0494 Q777.435 73.7508 770.953 73.7508 Q756.775 73.7508 748.754 65.4869 Q740.774 57.1826 740.774 42.3968 Q740.774 27.5705 748.754 19.3066 Q756.775 11.0023 770.953 11.0023 Q776.868 11.0023 782.174 12.4606 Q787.522 13.9189 792.018 16.7545 L792.018 25.464 Q787.481 21.6156 782.377 19.6712 Q777.273 17.7268 771.642 17.7268 Q760.543 17.7268 754.952 23.9246 Q749.403 30.1225 749.403 42.3968 Q749.403 54.6305 754.952 60.8284 Q760.543 67.0263 771.642 67.0263 Q775.976 67.0263 779.379 66.2971 Q782.782 65.5274 785.496 63.9476 Z" fill="#000000" fill-rule="nonzero" fill-opacity="1" /><path clip-path="url(#clip240)" d="M828.76 20.1573 L817.66 50.2555 L839.9 50.2555 L828.76 20.1573 M824.142 12.096 L833.418 12.096 L856.468 72.576 L847.961 72.576 L842.452 57.061 L815.189 57.061 L809.68 72.576 L801.052 72.576 L824.142 12.096 Z" fill="#000000" fill-rule="nonzero" fill-opacity="1" /><path clip-path="url(#clip240)" d="M865.299 12.096 L877.492 12.096 L892.926 53.2532 L908.441 12.096 L920.634 12.096 L920.634 72.576 L912.654 72.576 L912.654 19.4686 L897.058 60.9499 L888.835 60.9499 L873.239 19.4686 L873.239 72.576 L865.299 72.576 L865.299 12.096 Z" fill="#000000" fill-rule="nonzero" fill-opacity="1" /><path clip-path="url(#clip240)" d="M959.158 46.9338 L1034.02 46.9338 L1034.02 52.7671 L959.158 52.7671 L959.158 46.9338 Z" fill="#000000" fill-rule="nonzero" fill-opacity="1" /><path clip-path="url(#clip240)" d="M1101.18 28.5427 L1101.18 35.5912 Q1098.02 33.9709 1094.62 33.1607 Q1091.22 32.3505 1087.57 32.3505 Q1082.02 32.3505 1079.23 34.0519 Q1076.47 35.7533 1076.47 39.156 Q1076.47 41.7486 1078.46 43.2475 Q1080.44 44.7058 1086.44 46.0426 L1088.99 46.6097 Q1096.93 48.3111 1100.25 51.4303 Q1103.61 54.509 1103.61 60.0587 Q1103.61 66.3781 1098.59 70.0644 Q1093.61 73.7508 1084.86 73.7508 Q1081.21 73.7508 1077.24 73.0216 Q1073.31 72.3329 1068.94 70.9151 L1068.94 63.2184 Q1073.07 65.3654 1077.08 66.4591 Q1081.09 67.5124 1085.02 67.5124 Q1090.29 67.5124 1093.12 65.73 Q1095.96 63.9071 1095.96 60.6258 Q1095.96 57.5877 1093.89 55.9673 Q1091.87 54.3469 1084.94 52.8481 L1082.35 52.2405 Q1075.42 50.7821 1072.34 47.7845 Q1069.26 44.7463 1069.26 39.4801 Q1069.26 33.0797 1073.8 29.5959 Q1078.34 26.1121 1086.68 26.1121 Q1090.81 26.1121 1094.46 26.7198 Q1098.1 27.3274 1101.18 28.5427 Z" fill="#000000" fill-rule="nonzero" fill-opacity="1" /><path clip-path="url(#clip240)" d="M1150.81 35.9153 Q1153.6 30.8922 1157.49 28.5022 Q1161.38 26.1121 1166.65 26.1121 Q1173.73 26.1121 1177.58 31.0947 Q1181.43 36.0368 1181.43 45.1919 L1181.43 72.576 L1173.94 72.576 L1173.94 45.4349 Q1173.94 38.913 1171.63 35.7533 Q1169.32 32.5936 1164.58 32.5936 Q1158.79 32.5936 1155.42 36.4419 Q1152.06 40.2903 1152.06 46.9338 L1152.06 72.576 L1144.57 72.576 L1144.57 45.4349 Q1144.57 38.8725 1142.26 35.7533 Q1139.95 32.5936 1135.13 32.5936 Q1129.42 32.5936 1126.06 36.4824 Q1122.69 40.3308 1122.69 46.9338 L1122.69 72.576 L1115.2 72.576 L1115.2 27.2059 L1122.69 27.2059 L1122.69 34.2544 Q1125.25 30.082 1128.81 28.0971 Q1132.38 26.1121 1137.28 26.1121 Q1142.22 26.1121 1145.66 28.6237 Q1149.15 31.1352 1150.81 35.9153 Z" fill="#000000" fill-rule="nonzero" fill-opacity="1" /><path clip-path="url(#clip240)" d="M1213.88 32.4315 Q1207.88 32.4315 1204.4 37.1306 Q1200.92 41.7891 1200.92 49.9314 Q1200.92 58.0738 1204.36 62.7728 Q1207.84 67.4314 1213.88 67.4314 Q1219.83 67.4314 1223.32 62.7323 Q1226.8 58.0333 1226.8 49.9314 Q1226.8 41.8701 1223.32 37.1711 Q1219.83 32.4315 1213.88 32.4315 M1213.88 26.1121 Q1223.6 26.1121 1229.15 32.4315 Q1234.7 38.7509 1234.7 49.9314 Q1234.7 61.0714 1229.15 67.4314 Q1223.6 73.7508 1213.88 73.7508 Q1204.12 73.7508 1198.57 67.4314 Q1193.06 61.0714 1193.06 49.9314 Q1193.06 38.7509 1198.57 32.4315 Q1204.12 26.1121 1213.88 26.1121 Z" fill="#000000" fill-rule="nonzero" fill-opacity="1" /><path clip-path="url(#clip240)" d="M1264.64 32.4315 Q1258.64 32.4315 1255.16 37.1306 Q1251.67 41.7891 1251.67 49.9314 Q1251.67 58.0738 1255.12 62.7728 Q1258.6 67.4314 1264.64 67.4314 Q1270.59 67.4314 1274.08 62.7323 Q1277.56 58.0333 1277.56 49.9314 Q1277.56 41.8701 1274.08 37.1711 Q1270.59 32.4315 1264.64 32.4315 M1264.64 26.1121 Q1274.36 26.1121 1279.91 32.4315 Q1285.46 38.7509 1285.46 49.9314 Q1285.46 61.0714 1279.91 67.4314 Q1274.36 73.7508 1264.64 73.7508 Q1254.87 73.7508 1249.32 67.4314 Q1243.82 61.0714 1243.82 49.9314 Q1243.82 38.7509 1249.32 32.4315 Q1254.87 26.1121 1264.64 26.1121 Z" fill="#000000" fill-rule="nonzero" fill-opacity="1" /><path clip-path="url(#clip240)" d="M1305.19 14.324 L1305.19 27.2059 L1320.54 27.2059 L1320.54 32.9987 L1305.19 32.9987 L1305.19 57.6282 Q1305.19 63.1779 1306.69 64.7578 Q1308.22 66.3376 1312.88 66.3376 L1320.54 66.3376 L1320.54 72.576 L1312.88 72.576 Q1304.25 72.576 1300.97 69.3758 Q1297.69 66.1351 1297.69 57.6282 L1297.69 32.9987 L1292.22 32.9987 L1292.22 27.2059 L1297.69 27.2059 L1297.69 14.324 L1305.19 14.324 Z" fill="#000000" fill-rule="nonzero" fill-opacity="1" /><path clip-path="url(#clip240)" d="M1368.06 45.1919 L1368.06 72.576 L1360.6 72.576 L1360.6 45.4349 Q1360.6 38.994 1358.09 35.7938 Q1355.58 32.5936 1350.56 32.5936 Q1344.52 32.5936 1341.04 36.4419 Q1337.55 40.2903 1337.55 46.9338 L1337.55 72.576 L1330.06 72.576 L1330.06 9.54393 L1337.55 9.54393 L1337.55 34.2544 Q1340.23 30.163 1343.83 28.1376 Q1347.48 26.1121 1352.22 26.1121 Q1360.04 26.1121 1364.05 30.9732 Q1368.06 35.7938 1368.06 45.1919 Z" fill="#000000" fill-rule="nonzero" fill-opacity="1" /><path clip-path="url(#clip240)" d="M1426.88 32.4315 Q1420.88 32.4315 1417.4 37.1306 Q1413.91 41.7891 1413.91 49.9314 Q1413.91 58.0738 1417.36 62.7728 Q1420.84 67.4314 1426.88 67.4314 Q1432.83 67.4314 1436.31 62.7323 Q1439.8 58.0333 1439.8 49.9314 Q1439.8 41.8701 1436.31 37.1711 Q1432.83 32.4315 1426.88 32.4315 M1426.88 26.1121 Q1436.6 26.1121 1442.15 32.4315 Q1447.7 38.7509 1447.7 49.9314 Q1447.7 61.0714 1442.15 67.4314 Q1436.6 73.7508 1426.88 73.7508 Q1417.11 73.7508 1411.56 67.4314 Q1406.05 61.0714 1406.05 49.9314 Q1406.05 38.7509 1411.56 32.4315 Q1417.11 26.1121 1426.88 26.1121 Z" fill="#000000" fill-rule="nonzero" fill-opacity="1" /><path clip-path="url(#clip240)" d="M1497.77 45.1919 L1497.77 72.576 L1490.31 72.576 L1490.31 45.4349 Q1490.31 38.994 1487.8 35.7938 Q1485.29 32.5936 1480.27 32.5936 Q1474.23 32.5936 1470.75 36.4419 Q1467.26 40.2903 1467.26 46.9338 L1467.26 72.576 L1459.77 72.576 L1459.77 27.2059 L1467.26 27.2059 L1467.26 34.2544 Q1469.94 30.163 1473.54 28.1376 Q1477.19 26.1121 1481.93 26.1121 Q1489.75 26.1121 1493.76 30.9732 Q1497.77 35.7938 1497.77 45.1919 Z" fill="#000000" fill-rule="nonzero" fill-opacity="1" /><path clip-path="url(#clip240)" d="M1539 9.54393 L1546.46 9.54393 L1546.46 72.576 L1539 72.576 L1539 9.54393 Z" fill="#000000" fill-rule="nonzero" fill-opacity="1" /><path clip-path="url(#clip240)" d="M1562.05 27.2059 L1569.51 27.2059 L1569.51 72.576 L1562.05 72.576 L1562.05 27.2059 M1562.05 9.54393 L1569.51 9.54393 L1569.51 18.9825 L1562.05 18.9825 L1562.05 9.54393 Z" fill="#000000" fill-rule="nonzero" fill-opacity="1" /><path clip-path="url(#clip240)" d="M1622.82 45.1919 L1622.82 72.576 L1615.36 72.576 L1615.36 45.4349 Q1615.36 38.994 1612.85 35.7938 Q1610.34 32.5936 1605.32 32.5936 Q1599.28 32.5936 1595.8 36.4419 Q1592.31 40.2903 1592.31 46.9338 L1592.31 72.576 L1584.82 72.576 L1584.82 27.2059 L1592.31 27.2059 L1592.31 34.2544 Q1594.99 30.163 1598.59 28.1376 Q1602.24 26.1121 1606.98 26.1121 Q1614.8 26.1121 1618.81 30.9732 Q1622.82 35.7938 1622.82 45.1919 Z" fill="#000000" fill-rule="nonzero" fill-opacity="1" /><path clip-path="url(#clip240)" d="M1637.4 9.54393 L1644.9 9.54393 L1644.9 46.7717 L1667.13 27.2059 L1676.65 27.2059 L1652.59 48.4326 L1677.67 72.576 L1667.95 72.576 L1644.9 50.4176 L1644.9 72.576 L1637.4 72.576 L1637.4 9.54393 Z" fill="#000000" fill-rule="nonzero" fill-opacity="1" /><path clip-path="url(#clip240)" d="M1741.02 28.5427 L1741.02 35.5912 Q1737.86 33.9709 1734.46 33.1607 Q1731.06 32.3505 1727.41 32.3505 Q1721.86 32.3505 1719.07 34.0519 Q1716.31 35.7533 1716.31 39.156 Q1716.31 41.7486 1718.3 43.2475 Q1720.28 44.7058 1726.28 46.0426 L1728.83 46.6097 Q1736.77 48.3111 1740.09 51.4303 Q1743.45 54.509 1743.45 60.0587 Q1743.45 66.3781 1738.43 70.0644 Q1733.45 73.7508 1724.7 73.7508 Q1721.05 73.7508 1717.08 73.0216 Q1713.15 72.3329 1708.78 70.9151 L1708.78 63.2184 Q1712.91 65.3654 1716.92 66.4591 Q1720.93 67.5124 1724.86 67.5124 Q1730.13 67.5124 1732.96 65.73 Q1735.8 63.9071 1735.8 60.6258 Q1735.8 57.5877 1733.73 55.9673 Q1731.71 54.3469 1724.78 52.8481 L1722.19 52.2405 Q1715.26 50.7821 1712.18 47.7845 Q1709.1 44.7463 1709.1 39.4801 Q1709.1 33.0797 1713.64 29.5959 Q1718.18 26.1121 1726.52 26.1121 Q1730.65 26.1121 1734.3 26.7198 Q1737.94 27.3274 1741.02 28.5427 Z" fill="#000000" fill-rule="nonzero" fill-opacity="1" /><path clip-path="url(#clip240)" d="M1787.97 28.9478 L1787.97 35.9153 Q1784.81 34.1734 1781.61 33.3227 Q1778.45 32.4315 1775.21 32.4315 Q1767.96 32.4315 1763.95 37.0496 Q1759.94 41.6271 1759.94 49.9314 Q1759.94 58.2358 1763.95 62.8538 Q1767.96 67.4314 1775.21 67.4314 Q1778.45 67.4314 1781.61 66.5807 Q1784.81 65.6895 1787.97 63.9476 L1787.97 70.8341 Q1784.85 72.2924 1781.49 73.0216 Q1778.17 73.7508 1774.4 73.7508 Q1764.15 73.7508 1758.12 67.3098 Q1752.08 60.8689 1752.08 49.9314 Q1752.08 38.832 1758.16 32.472 Q1764.28 26.1121 1774.89 26.1121 Q1778.33 26.1121 1781.61 26.8413 Q1784.89 27.5299 1787.97 28.9478 Z" fill="#000000" fill-rule="nonzero" fill-opacity="1" /><path clip-path="url(#clip240)" d="M1821.56 49.7694 Q1812.52 49.7694 1809.04 51.8354 Q1805.55 53.9013 1805.55 58.8839 Q1805.55 62.8538 1808.15 65.2034 Q1810.78 67.5124 1815.28 67.5124 Q1821.47 67.5124 1825.2 63.1374 Q1828.97 58.7219 1828.97 51.4303 L1828.97 49.7694 L1821.56 49.7694 M1836.42 46.6907 L1836.42 72.576 L1828.97 72.576 L1828.97 65.6895 Q1826.42 69.8214 1822.61 71.8063 Q1818.8 73.7508 1813.29 73.7508 Q1806.32 73.7508 1802.19 69.8619 Q1798.1 65.9325 1798.1 59.3701 Q1798.1 51.7138 1803.2 47.825 Q1808.35 43.9361 1818.52 43.9361 L1828.97 43.9361 L1828.97 43.2069 Q1828.97 38.0623 1825.57 35.2672 Q1822.2 32.4315 1816.09 32.4315 Q1812.2 32.4315 1808.51 33.3632 Q1804.83 34.295 1801.42 36.1584 L1801.42 29.2718 Q1805.51 27.692 1809.36 26.9223 Q1813.21 26.1121 1816.86 26.1121 Q1826.7 26.1121 1831.56 31.2163 Q1836.42 36.3204 1836.42 46.6907 Z" fill="#000000" fill-rule="nonzero" fill-opacity="1" /><path clip-path="url(#clip240)" d="M1851.78 9.54393 L1859.23 9.54393 L1859.23 72.576 L1851.78 72.576 L1851.78 9.54393 Z" fill="#000000" fill-rule="nonzero" fill-opacity="1" /><path clip-path="url(#clip240)" d="M1913.63 48.0275 L1913.63 51.6733 L1879.36 51.6733 Q1879.85 59.3701 1883.98 63.421 Q1888.15 67.4314 1895.57 67.4314 Q1899.86 67.4314 1903.87 66.3781 Q1907.92 65.3249 1911.89 63.2184 L1911.89 70.267 Q1907.88 71.9684 1903.67 72.8596 Q1899.45 73.7508 1895.12 73.7508 Q1884.26 73.7508 1877.9 67.4314 Q1871.58 61.1119 1871.58 50.3365 Q1871.58 39.1965 1877.58 32.6746 Q1883.62 26.1121 1893.82 26.1121 Q1902.98 26.1121 1908.29 32.0264 Q1913.63 37.9003 1913.63 48.0275 M1906.18 45.84 Q1906.1 39.7232 1902.74 36.0774 Q1899.41 32.4315 1893.9 32.4315 Q1887.67 32.4315 1883.9 35.9558 Q1880.17 39.4801 1879.6 45.8805 L1906.18 45.84 Z" fill="#000000" fill-rule="nonzero" fill-opacity="1" /><path clip-path="url(#clip241)" d="M258.321 875.327 L267.134 852.752 L275.947 830.618 L284.76 809.023 L293.573 788.064 L302.386 767.828 L311.2 748.394 L320.013 729.825 L328.826 712.164 L337.639 695.428 L346.452 679.608 L355.265 664.662 L364.079 650.526 L372.892 637.111 L381.705 624.318 L390.518 612.05 L399.331 600.238 L408.144 588.875 L416.958 577.968 L425.771 567.528 L434.584 557.558 L443.397 548.045 L452.21 538.959 L461.023 530.246 L469.837 521.836 L478.65 513.645 L487.463 505.584 L496.276 497.565 L505.089 489.512 L513.902 481.391 L522.716 473.273 L531.529 465.277 L540.342 457.514 L549.155 450.081 L557.968 443.051 L566.781 436.463 L575.595 430.326 L584.408 424.621 L593.221 419.312 L602.034 414.35 L610.847 409.699 L619.661 405.373 L628.474 401.423 L637.287 397.909 L646.1 394.884 L654.913 392.38 L663.726 390.406 L672.54 388.94 L681.353 387.932 L690.166 387.307 L698.979 386.972 L707.792 386.825 L716.605 386.776 L725.419 386.82 L734.232 387.021 L743.045 387.453 L751.858 388.193 L760.671 389.311 L769.484 390.864 L778.298 392.89 L787.111 395.406 L795.924 398.405 L804.737 401.862 L813.55 405.733 L822.363 409.963 L831.177 414.494 L839.99 419.272 L848.803 424.278 L857.616 429.554 L866.429 435.162 L875.242 441.166 L884.056 447.626 L892.869 454.591 L901.682 462.095 L910.495 470.149 L919.308 478.744 L928.121 487.846 L936.935 497.402 L945.748 507.341 L954.561 517.579 L963.374 528.027 L972.187 538.599 L981 549.251 L989.814 559.981 L998.627 570.803 L1007.44 581.74 L1016.25 592.82 L1025.07 604.074 L1033.88 615.527 L1042.69 627.202 L1051.51 639.111 L1060.32 651.259 L1069.13 663.636 L1077.95 676.22 L1086.76 688.979 L1095.57 701.867 L1104.38 714.828 L1113.2 727.8 L1122.01 740.717 L1130.82 753.509 L1139.64 766.114 L1148.45 778.473 L1157.26 790.542 L1166.08 802.313 L1174.89 813.842 L1183.7 825.196 L1192.52 836.436 L1201.33 847.614 L1210.14 858.765 L1218.96 869.907 L1227.77 881.036 L1236.58 892.127 L1245.4 903.138 L1254.21 914.007 L1263.02 924.666 L1271.84 935.04 L1280.65 945.055 L1289.46 954.647 L1298.27 963.772 L1307.09 972.461 L1315.9 980.793 L1324.71 988.846 L1333.53 996.686 L1342.34 1004.36 L1351.15 1011.9 L1359.97 1019.31 L1368.78 1026.56 L1377.59 1033.61 L1386.41 1040.41 L1395.22 1046.89 L1404.03 1053 L1412.85 1058.68 L1421.66 1064 L1430.47 1069.02 L1439.29 1073.81 L1448.1 1078.46 L1456.91 1083.01 L1465.72 1087.51 L1474.54 1091.98 L1483.35 1096.4 L1492.16 1100.77 L1500.98 1105.04 L1509.79 1109.16 L1518.6 1113.09 L1527.42 1116.76 L1536.23 1120.18 L1545.04 1123.33 L1553.86 1126.24 L1562.67 1128.93 L1571.48 1131.44 L1580.3 1133.76 L1589.11 1135.9 L1597.92 1137.86 L1606.74 1139.62 L1615.55 1141.14 L1624.36 1142.36 L1633.17 1143.23 L1641.99 1143.68 L1650.8 1143.62 L1659.61 1142.97 L1668.43 1141.65 L1677.24 1139.6 L1686.05 1136.81 L1694.87 1133.33 L1703.68 1129.19 L1712.49 1124.46 L1721.31 1119.17 L1730.12 1113.36 L1738.93 1107.07 L1747.75 1100.3 L1756.56 1093.07 L1765.37 1085.37 L1774.19 1077.18 L1783 1068.48 L1791.81 1059.23 L1800.63 1049.38 L1809.44 1038.9 L1818.25 1027.76 L1827.06 1015.94 L1835.88 1003.46 L1844.69 990.441 L1853.5 977.037 L1862.32 963.393 L1871.13 949.647 L1879.94 935.921 L1888.76 922.317 L1897.57 908.916 L1906.38 895.781 L1915.2 882.966 L1924.01 870.528 L1932.82 858.559 L1941.64 847.204 L1950.45 836.611 L1959.26 826.904 L1968.08 818.168 L1976.89 810.439 L1985.7 803.706 L1994.51 797.913 L2003.33 792.972 L2012.14 788.772 L2012.14 410.571 L2003.33 435.882 L1994.51 460.412 L1985.7 484.01 L1976.89 506.546 L1968.08 527.927 L1959.26 548.102 L1950.45 567.065 L1941.64 584.861 L1932.82 601.575 L1924.01 617.315 L1915.2 632.184 L1906.38 646.226 L1897.57 659.444 L1888.76 671.84 L1879.94 683.424 L1871.13 694.225 L1862.32 704.292 L1853.5 713.694 L1844.69 722.518 L1835.88 730.856 L1827.06 738.806 L1818.25 746.442 L1809.44 753.785 L1800.63 760.82 L1791.81 767.516 L1783 773.838 L1774.19 779.75 L1765.37 785.219 L1756.56 790.221 L1747.75 794.741 L1738.93 798.778 L1730.12 802.342 L1721.31 805.455 L1712.49 808.151 L1703.68 810.472 L1694.87 812.467 L1686.05 814.186 L1677.24 815.679 L1668.43 816.989 L1659.61 818.136 L1650.8 819.096 L1641.99 819.838 L1633.17 820.328 L1624.36 820.533 L1615.55 820.431 L1606.74 820.007 L1597.92 819.259 L1589.11 818.199 L1580.3 816.854 L1571.48 815.264 L1562.67 813.483 L1553.86 811.573 L1545.04 809.604 L1536.23 807.647 L1527.42 805.77 L1518.6 804.03 L1509.79 802.413 L1500.98 800.841 L1492.16 799.228 L1483.35 797.495 L1474.54 795.573 L1465.72 793.409 L1456.91 790.969 L1448.1 788.24 L1439.29 785.229 L1430.47 781.961 L1421.66 778.476 L1412.85 774.817 L1404.03 771.029 L1395.22 767.128 L1386.41 763.069 L1377.59 758.783 L1368.78 754.203 L1359.97 749.265 L1351.15 743.923 L1342.34 738.15 L1333.53 731.941 L1324.71 725.318 L1315.9 718.323 L1307.09 711.019 L1298.27 703.477 L1289.46 695.771 L1280.65 687.935 L1271.84 679.944 L1263.02 671.752 L1254.21 663.304 L1245.4 654.544 L1236.58 645.42 L1227.77 635.892 L1218.96 625.935 L1210.14 615.542 L1201.33 604.728 L1192.52 593.53 L1183.7 582.002 L1174.89 570.213 L1166.08 558.245 L1157.26 546.181 L1148.45 534.098 L1139.64 522.028 L1130.82 509.97 L1122.01 497.912 L1113.2 485.835 L1104.38 473.714 L1095.57 461.529 L1086.76 449.262 L1077.95 436.902 L1069.13 424.449 L1060.32 411.914 L1051.51 399.321 L1042.69 386.706 L1033.88 374.116 L1025.07 361.611 L1016.25 349.257 L1007.44 337.125 L998.627 325.29 L989.814 313.826 L981 302.799 L972.187 292.269 L963.374 282.28 L954.561 272.818 L945.748 263.812 L936.935 255.188 L928.121 246.876 L919.308 238.821 L910.495 230.982 L901.682 223.342 L892.869 215.904 L884.056 208.696 L875.242 201.764 L866.429 195.173 L857.616 188.997 L848.803 183.315 L839.99 178.202 L831.177 173.713 L822.363 169.821 L813.55 166.452 L804.737 163.529 L795.924 160.978 L787.111 158.736 L778.298 156.76 L769.484 155.022 L760.671 153.522 L751.858 152.278 L743.045 151.327 L734.232 150.721 L725.419 150.518 L716.605 150.773 L707.792 151.531 L698.979 152.786 L690.166 154.474 L681.353 156.523 L672.54 158.867 L663.726 161.46 L654.913 164.279 L646.1 167.334 L637.287 170.658 L628.474 174.316 L619.661 178.387 L610.847 182.959 L602.034 188.112 L593.221 193.854 L584.408 200.094 L575.595 206.728 L566.781 213.661 L557.968 220.817 L549.155 228.147 L540.342 235.635 L531.529 243.295 L522.716 251.165 L513.902 259.302 L505.089 267.765 L496.276 276.582 L487.463 285.702 L478.65 295.041 L469.837 304.501 L461.023 313.982 L452.21 323.392 L443.397 332.649 L434.584 341.693 L425.771 350.481 L416.958 358.992 L408.144 367.218 L399.331 375.162 L390.518 382.821 L381.705 390.176 L372.892 397.15 L364.079 403.636 L355.265 409.524 L346.452 414.715 L337.639 419.134 L328.826 422.73 L320.013 425.482 L311.2 427.399 L302.386 428.512 L293.573 428.875 L284.76 428.555 L275.947 427.63 L267.134 426.187 L258.321 424.313  Z" fill="#009af9" fill-rule="evenodd" fill-opacity="0.2"/>
<polyline clip-path="url(#clip241)" style="stroke:#009af9; stroke-linecap:round; stroke-linejoin:round; stroke-width:8; stroke-opacity:1; fill:none" points="258.321,649.82 267.134,639.469 275.947,629.124 284.76,618.789 293.573,608.469 302.386,598.17 311.2,587.897 320.013,577.654 328.826,567.447 337.639,557.281 346.452,547.161 355.265,537.093 364.079,527.081 372.892,517.131 381.705,507.247 390.518,497.435 399.331,487.7 408.144,478.047 416.958,468.48 425.771,459.005 434.584,449.625 443.397,440.347 452.21,431.175 461.023,422.114 469.837,413.168 478.65,404.343 487.463,395.643 496.276,387.073 505.089,378.639 513.902,370.346 522.716,362.219 531.529,354.286 540.342,346.574 549.155,339.114 557.968,331.934 566.781,325.062 575.595,318.527 584.408,312.358 593.221,306.583 602.034,301.231 610.847,296.329 619.661,291.88 628.474,287.87 637.287,284.284 646.1,281.109 654.913,278.33 663.726,275.933 672.54,273.903 681.353,272.227 690.166,270.891 698.979,269.879 707.792,269.178 716.605,268.774 725.419,268.669 734.232,268.871 743.045,269.39 751.858,270.235 760.671,271.416 769.484,272.943 778.298,274.825 787.111,277.071 795.924,279.691 804.737,282.695 813.55,286.092 822.363,289.892 831.177,294.104 839.99,298.737 848.803,303.796 857.616,309.276 866.429,315.168 875.242,321.465 884.056,328.161 892.869,335.248 901.682,342.718 910.495,350.566 919.308,358.782 928.121,367.361 936.935,376.295 945.748,385.576 954.561,395.198 963.374,405.154 972.187,415.434 981,426.025 989.814,436.903 998.627,448.047 1007.44,459.432 1016.25,471.039 1025.07,482.843 1033.88,494.822 1042.69,506.954 1051.51,519.216 1060.32,531.586 1069.13,544.042 1077.95,556.561 1086.76,569.121 1095.57,581.698 1104.38,594.271 1113.2,606.817 1122.01,619.315 1130.82,631.74 1139.64,644.071 1148.45,656.286 1157.26,668.361 1166.08,680.279 1174.89,692.028 1183.7,703.599 1192.52,714.983 1201.33,726.171 1210.14,737.154 1218.96,747.921 1227.77,758.464 1236.58,768.774 1245.4,778.841 1254.21,788.656 1263.02,798.209 1271.84,807.492 1280.65,816.495 1289.46,825.209 1298.27,833.625 1307.09,841.74 1315.9,849.558 1324.71,857.082 1333.53,864.314 1342.34,871.257 1351.15,877.914 1359.97,884.288 1368.78,890.382 1377.59,896.198 1386.41,901.74 1395.22,907.011 1404.03,912.012 1412.85,916.75 1421.66,921.237 1430.47,925.488 1439.29,929.521 1448.1,933.35 1456.91,936.991 1465.72,940.461 1474.54,943.775 1483.35,946.948 1492.16,949.998 1500.98,952.939 1509.79,955.787 1518.6,958.558 1527.42,961.268 1536.23,963.911 1545.04,966.465 1553.86,968.906 1562.67,971.209 1571.48,973.35 1580.3,975.305 1589.11,977.05 1597.92,978.561 1606.74,979.814 1615.55,980.784 1624.36,981.447 1633.17,981.779 1641.99,981.757 1650.8,981.356 1659.61,980.551 1668.43,979.319 1677.24,977.637 1686.05,975.497 1694.87,972.896 1703.68,969.833 1712.49,966.306 1721.31,962.314 1730.12,957.853 1738.93,952.923 1747.75,947.521 1756.56,941.645 1765.37,935.295 1774.19,928.467 1783,921.16 1791.81,913.372 1800.63,905.101 1809.44,896.345 1818.25,887.103 1827.06,877.372 1835.88,867.157 1844.69,856.479 1853.5,845.366 1862.32,833.842 1871.13,821.936 1879.94,809.672 1888.76,797.078 1897.57,784.18 1906.38,771.003 1915.2,757.575 1924.01,743.921 1932.82,730.067 1941.64,716.032 1950.45,701.838 1959.26,687.503 1968.08,673.048 1976.89,658.493 1985.7,643.858 1994.51,629.162 2003.33,614.427 2012.14,599.672 "/>
<polyline clip-path="url(#clip241)" style="stroke:#ff0000; stroke-linecap:round; stroke-linejoin:round; stroke-width:8; stroke-opacity:1; fill:none" stroke-dasharray="32, 20" points="258.321,632.062 259.165,630.907 274.719,609.634 285.347,595.139 304.483,569.194 310.107,561.62 322.025,545.672 323.831,543.268 327.725,538.099 331.716,532.82 339.187,522.995 339.296,522.851 342.262,518.973 347.243,512.488 354.237,503.448 355.414,501.935 360.405,495.543 360.652,495.228 363.279,491.883 371.612,481.355 374.223,478.083 384.747,465.039 395.298,452.201 396.474,450.786 413.589,430.567 418.002,425.474 423.004,419.765 424.029,418.602 427.131,415.105 433.106,408.444 433.818,407.657 440.994,399.808 441.501,399.26 442.486,398.195 453.075,386.944 454.045,385.932 463.1,376.619 463.245,376.472 468.213,371.479 491.305,349.382 492.34,348.435 498.381,342.991 504.216,337.863 507.214,335.277 510.926,332.123 532.371,314.96 537.11,311.417 544.435,306.123 549.539,302.566 553.023,300.202 559.682,295.828 562.079,294.3 567.809,290.748 577.407,285.123 577.412,285.12 577.862,284.867 579.396,284.009 593.178,276.775 593.404,276.663 594.248,276.249 596.905,274.967 597.085,274.881 601.15,272.985 603.357,271.987 605.14,271.198 606.923,270.423 607.14,270.33 612.961,267.91 619.092,265.532 623.046,264.093 625.176,263.348 628.246,262.312 643.888,257.732 651.064,256.023 661.358,254.007 667.87,252.997 669.182,252.818 673.286,252.314 675.554,252.071 680.06,251.661 680.51,251.626 695.643,251.011 698.871,251.025 699.103,251.028 706.747,251.273 710.74,251.515 710.892,251.525 711.465,251.567 719.482,252.315 724.479,252.941 731.457,254.017 731.517,254.027 743.896,256.522 749.522,257.9 752.36,258.653 763.887,262.107 787.628,271.204 792.05,273.189 793.58,273.897 799.13,276.555 803.213,278.6 811.297,282.872 813.169,283.903 821.113,288.453 822.306,289.16 834.388,296.676 836.027,297.745 838.379,299.298 847.637,305.64 849.229,306.767 859.718,314.456 863.536,317.367 867.725,320.629 870.351,322.709 872.492,324.426 872.833,324.702 874.676,326.196 904.868,352.534 906.089,353.67 911.372,358.647 913.719,360.89 915.76,362.855 934.981,382.064 940.583,387.89 943.559,391.026 946.755,394.423 952.594,400.711 960.622,409.522 963.867,413.136 986.462,439.097 987.005,439.737 990.365,443.715 999.938,455.197 1000.14,455.437 1019.56,479.372 1025.73,487.129 1052.67,521.814 1074.88,551.212 1086.45,566.737 1092.69,575.164 1105.86,593.027 1109.23,597.614 1110.45,599.28 1132.54,629.472 1133.09,630.221 1135.69,633.785 1140.68,640.603 1142.76,643.451 1143.5,644.468 1155.47,660.831 1155.91,661.429 1162.48,670.386 1180.7,695.121 1183.16,698.443 1188.4,705.498 1189.22,706.597 1211.13,735.781 1214.28,739.928 1214.34,740.014 1215.67,741.751 1217.18,743.74 1221.37,749.222 1226.09,755.358 1241.68,775.399 1245.95,780.802 1252.38,788.895 1259.85,798.176 1276.64,818.63 1280.63,823.384 1282.55,825.663 1285.44,829.084 1294.1,839.174 1299.1,844.916 1306.14,852.89 1314.61,862.291 1318.43,866.466 1323.65,872.093 1338.86,888.026 1342.49,891.713 1346.09,895.338 1351.21,900.413 1354.38,903.502 1358.46,907.442 1362.7,911.464 1366.95,915.432 1372.89,920.873 1379.2,926.511 1385.61,932.09 1395.35,940.263 1397.12,941.704 1400.18,944.172 1400.68,944.572 1402.27,945.841 1413.28,954.325 1414.23,955.029 1415.09,955.666 1416.78,956.916 1420.4,959.542 1441.71,973.895 1452.52,980.429 1458.34,983.732 1460.52,984.932 1460.64,984.996 1466.34,988.024 1477.98,993.749 1484.03,996.482 1484.65,996.753 1487.07,997.789 1498.39,1002.28 1510.87,1006.53 1511.12,1006.61 1516.76,1008.28 1519.08,1008.93 1519.3,1008.99 1525.77,1010.64 1534.08,1012.46 1536.17,1012.87 1538.06,1013.22 1544.07,1014.21 1558.62,1015.9 1564.85,1016.3 1578.73,1016.52 1582.57,1016.41 1587.84,1016.15 1588.41,1016.11 1588.9,1016.08 1608.87,1013.75 1611.33,1013.33 1617.21,1012.2 1622.98,1010.94 1656.56,1000.4 1666.47,996.265 1667.39,995.862 1667.72,995.713 1668.45,995.388 1670.58,994.421 1683.99,987.859 1693.14,982.914 1703.41,976.918 1704.52,976.239 1709.99,972.828 1711.62,971.79 1713.54,970.546 1725.19,962.681 1728.48,960.356 1733.69,956.579 1740.15,951.739 1749.34,944.566 1755.67,939.43 1763.3,933.033 1771.63,925.793 1784.2,914.376 1800.35,898.886 1802.4,896.855 1807.03,892.212 1814.85,884.215 1824.81,873.753 1830.75,867.365 1831.28,866.791 1833.14,864.771 1842.67,854.231 1847.92,848.316 1849.96,846.003 1851.39,844.37 1853.22,842.273 1871.22,821.2 1879.5,811.241 1896.88,789.833 1900.39,785.431 1900.94,784.737 1901.99,783.417 1904.12,780.733 1908.63,775.02 1910.56,772.55 1912.34,770.28 1914.39,767.661 1914.62,767.359 1919.38,761.236 1924.12,755.106 1925.61,753.164 1935.85,739.777 1937.49,737.613 1940.12,734.15 1945,727.69 1955.35,713.89 1967.03,698.203 1974.44,688.179 1975.16,687.196 1975.79,686.345 1976.78,685.003 1977.29,684.315 1980.51,679.948 1980.61,679.813 1987.91,669.87 1991.87,664.471 1994.29,661.169 1995.54,659.469 2011.36,637.837 2011.76,637.284 2012.14,636.764 "/>
<path clip-path="url(#clip240)" d="M1572.67 311.335 L2002.79 311.335 L2002.79 155.815 L1572.67 155.815  Z" fill="#ffffff" fill-rule="evenodd" fill-opacity="1"/>
<polyline clip-path="url(#clip240)" style="stroke:#000000; stroke-linecap:round; stroke-linejoin:round; stroke-width:4; stroke-opacity:1; fill:none" points="1572.67,311.335 2002.79,311.335 2002.79,155.815 1572.67,155.815 1572.67,311.335 "/>
<polyline clip-path="url(#clip240)" style="stroke:#009af9; stroke-linecap:round; stroke-linejoin:round; stroke-width:8; stroke-opacity:1; fill:none" points="1593.33,207.655 1717.26,207.655 "/>
<path clip-path="url(#clip240)" d="M1756.35 199.773 L1756.35 203.8 Q1754.54 202.875 1752.6 202.412 Q1750.65 201.949 1748.57 201.949 Q1745.4 201.949 1743.8 202.921 Q1742.23 203.893 1742.23 205.838 Q1742.23 207.319 1743.36 208.175 Q1744.49 209.009 1747.92 209.773 L1749.38 210.097 Q1753.92 211.069 1755.81 212.851 Q1757.73 214.611 1757.73 217.782 Q1757.73 221.393 1754.86 223.499 Q1752.02 225.606 1747.02 225.606 Q1744.93 225.606 1742.67 225.189 Q1740.42 224.796 1737.92 223.986 L1737.92 219.587 Q1740.28 220.814 1742.57 221.439 Q1744.86 222.041 1747.11 222.041 Q1750.12 222.041 1751.74 221.023 Q1753.36 219.981 1753.36 218.106 Q1753.36 216.37 1752.18 215.444 Q1751.02 214.518 1747.06 213.662 L1745.58 213.314 Q1741.62 212.481 1739.86 210.768 Q1738.1 209.032 1738.1 206.023 Q1738.1 202.365 1740.7 200.375 Q1743.29 198.384 1748.06 198.384 Q1750.42 198.384 1752.5 198.731 Q1754.59 199.078 1756.35 199.773 Z" fill="#000000" fill-rule="nonzero" fill-opacity="1" /><path clip-path="url(#clip240)" d="M1774.75 188.963 Q1771.65 194.287 1770.14 199.495 Q1768.64 204.703 1768.64 210.05 Q1768.64 215.398 1770.14 220.652 Q1771.67 225.884 1774.75 231.185 L1771.04 231.185 Q1767.57 225.745 1765.84 220.49 Q1764.12 215.236 1764.12 210.05 Q1764.12 204.888 1765.84 199.657 Q1767.55 194.426 1771.04 188.963 L1774.75 188.963 Z" fill="#000000" fill-rule="nonzero" fill-opacity="1" /><path clip-path="url(#clip240)" d="M1804.56 199.009 L1795.19 211.625 L1805.05 224.935 L1800.03 224.935 L1792.48 214.749 L1784.93 224.935 L1779.91 224.935 L1789.98 211.37 L1780.77 199.009 L1785.79 199.009 L1792.66 208.245 L1799.54 199.009 L1804.56 199.009 Z" fill="#000000" fill-rule="nonzero" fill-opacity="1" /><path clip-path="url(#clip240)" d="M1810.4 188.963 L1814.1 188.963 Q1817.57 194.426 1819.29 199.657 Q1821.02 204.888 1821.02 210.05 Q1821.02 215.236 1819.29 220.49 Q1817.57 225.745 1814.1 231.185 L1810.4 231.185 Q1813.47 225.884 1814.98 220.652 Q1816.51 215.398 1816.51 210.05 Q1816.51 204.703 1814.98 199.495 Q1813.47 194.287 1810.4 188.963 Z" fill="#000000" fill-rule="nonzero" fill-opacity="1" /><path clip-path="url(#clip240)" d="M1861.97 195.213 L1861.97 204.171 L1874.86 204.171 L1874.86 208.106 L1861.97 208.106 L1861.97 217.064 L1858.08 217.064 L1858.08 208.106 L1845.19 208.106 L1845.19 204.171 L1858.08 204.171 L1858.08 195.213 L1861.97 195.213 M1845.19 220.999 L1874.86 220.999 L1874.86 224.935 L1845.19 224.935 L1845.19 220.999 Z" fill="#000000" fill-rule="nonzero" fill-opacity="1" /><path clip-path="url(#clip240)" d="M1904.05 220.999 L1920.37 220.999 L1920.37 224.935 L1898.43 224.935 L1898.43 220.999 Q1901.09 218.245 1905.67 213.615 Q1910.28 208.962 1911.46 207.62 Q1913.71 205.097 1914.59 203.361 Q1915.49 201.601 1915.49 199.912 Q1915.49 197.157 1913.54 195.421 Q1911.62 193.685 1908.52 193.685 Q1906.32 193.685 1903.87 194.449 Q1901.44 195.213 1898.66 196.763 L1898.66 192.041 Q1901.48 190.907 1903.94 190.328 Q1906.39 189.75 1908.43 189.75 Q1913.8 189.75 1916.99 192.435 Q1920.19 195.12 1920.19 199.611 Q1920.19 201.74 1919.38 203.662 Q1918.59 205.56 1916.48 208.152 Q1915.9 208.824 1912.8 212.041 Q1909.7 215.236 1904.05 220.999 Z" fill="#000000" fill-rule="nonzero" fill-opacity="1" /><path clip-path="url(#clip240)" d="M1950.49 191.509 L1950.49 196.069 Q1947.83 194.796 1945.46 194.171 Q1943.1 193.546 1940.9 193.546 Q1937.09 193.546 1935 195.027 Q1932.94 196.509 1932.94 199.24 Q1932.94 201.532 1934.31 202.713 Q1935.7 203.87 1939.54 204.588 L1942.36 205.166 Q1947.59 206.162 1950.07 208.685 Q1952.57 211.185 1952.57 215.398 Q1952.57 220.421 1949.19 223.013 Q1945.84 225.606 1939.33 225.606 Q1936.88 225.606 1934.1 225.05 Q1931.34 224.495 1928.38 223.407 L1928.38 218.592 Q1931.23 220.189 1933.96 220.999 Q1936.69 221.81 1939.33 221.81 Q1943.34 221.81 1945.51 220.236 Q1947.69 218.662 1947.69 215.745 Q1947.69 213.199 1946.11 211.763 Q1944.56 210.328 1941 209.611 L1938.15 209.055 Q1932.92 208.013 1930.58 205.791 Q1928.24 203.569 1928.24 199.611 Q1928.24 195.027 1931.46 192.389 Q1934.7 189.75 1940.37 189.75 Q1942.8 189.75 1945.33 190.189 Q1947.85 190.629 1950.49 191.509 Z" fill="#000000" fill-rule="nonzero" fill-opacity="1" /><path clip-path="url(#clip240)" d="M1959.86 190.375 L1981.71 190.375 L1981.71 194.31 L1964.54 194.31 L1964.54 204.541 L1981 204.541 L1981 208.476 L1964.54 208.476 L1964.54 220.999 L1982.13 220.999 L1982.13 224.935 L1959.86 224.935 L1959.86 190.375 Z" fill="#000000" fill-rule="nonzero" fill-opacity="1" /><polyline clip-path="url(#clip240)" style="stroke:#ff0000; stroke-linecap:round; stroke-linejoin:round; stroke-width:8; stroke-opacity:1; fill:none" stroke-dasharray="32, 20" points="1593.33,259.495 1717.26,259.495 "/>
<path clip-path="url(#clip240)" d="M1745.33 243.488 L1745.33 250.849 L1754.1 250.849 L1754.1 254.159 L1745.33 254.159 L1745.33 268.233 Q1745.33 271.404 1746.18 272.307 Q1747.06 273.21 1749.73 273.21 L1754.1 273.21 L1754.1 276.775 L1749.73 276.775 Q1744.79 276.775 1742.92 274.946 Q1741.04 273.094 1741.04 268.233 L1741.04 254.159 L1737.92 254.159 L1737.92 250.849 L1741.04 250.849 L1741.04 243.488 L1745.33 243.488 Z" fill="#000000" fill-rule="nonzero" fill-opacity="1" /><path clip-path="url(#clip240)" d="M1774.73 254.83 Q1774.01 254.414 1773.15 254.228 Q1772.32 254.02 1771.3 254.02 Q1767.69 254.02 1765.74 256.381 Q1763.82 258.719 1763.82 263.117 L1763.82 276.775 L1759.54 276.775 L1759.54 250.849 L1763.82 250.849 L1763.82 254.877 Q1765.17 252.515 1767.32 251.381 Q1769.47 250.224 1772.55 250.224 Q1772.99 250.224 1773.52 250.293 Q1774.05 250.34 1774.7 250.455 L1774.73 254.83 Z" fill="#000000" fill-rule="nonzero" fill-opacity="1" /><path clip-path="url(#clip240)" d="M1778.75 266.543 L1778.75 250.849 L1783.01 250.849 L1783.01 266.381 Q1783.01 270.062 1784.45 271.914 Q1785.88 273.742 1788.75 273.742 Q1792.2 273.742 1794.19 271.543 Q1796.21 269.344 1796.21 265.548 L1796.21 250.849 L1800.47 250.849 L1800.47 276.775 L1796.21 276.775 L1796.21 272.793 Q1794.66 275.154 1792.6 276.312 Q1790.56 277.446 1787.85 277.446 Q1783.38 277.446 1781.07 274.668 Q1778.75 271.89 1778.75 266.543 M1789.47 250.224 L1789.47 250.224 Z" fill="#000000" fill-rule="nonzero" fill-opacity="1" /><path clip-path="url(#clip240)" d="M1831.41 262.747 L1831.41 264.83 L1811.83 264.83 Q1812.11 269.228 1814.47 271.543 Q1816.85 273.835 1821.09 273.835 Q1823.54 273.835 1825.84 273.233 Q1828.15 272.631 1830.42 271.427 L1830.42 275.455 Q1828.13 276.427 1825.72 276.937 Q1823.31 277.446 1820.84 277.446 Q1814.63 277.446 1811 273.835 Q1807.39 270.224 1807.39 264.066 Q1807.39 257.701 1810.81 253.974 Q1814.26 250.224 1820.1 250.224 Q1825.33 250.224 1828.36 253.603 Q1831.41 256.96 1831.41 262.747 M1827.16 261.497 Q1827.11 258.002 1825.19 255.918 Q1823.29 253.835 1820.14 253.835 Q1816.58 253.835 1814.42 255.849 Q1812.29 257.863 1811.97 261.52 L1827.16 261.497 Z" fill="#000000" fill-rule="nonzero" fill-opacity="1" /><path clip-path="url(#clip240)" d="M1866.6 240.756 L1866.6 244.298 L1862.53 244.298 Q1860.23 244.298 1859.33 245.224 Q1858.45 246.15 1858.45 248.557 L1858.45 250.849 L1865.47 250.849 L1865.47 254.159 L1858.45 254.159 L1858.45 276.775 L1854.17 276.775 L1854.17 254.159 L1850.1 254.159 L1850.1 250.849 L1854.17 250.849 L1854.17 249.043 Q1854.17 244.715 1856.18 242.747 Q1858.2 240.756 1862.57 240.756 L1866.6 240.756 Z" fill="#000000" fill-rule="nonzero" fill-opacity="1" /><path clip-path="url(#clip240)" d="M1880.4 240.803 Q1877.29 246.127 1875.79 251.335 Q1874.28 256.543 1874.28 261.89 Q1874.28 267.238 1875.79 272.492 Q1877.32 277.724 1880.4 283.025 L1876.69 283.025 Q1873.22 277.585 1871.48 272.33 Q1869.77 267.076 1869.77 261.89 Q1869.77 256.728 1871.48 251.497 Q1873.2 246.266 1876.69 240.803 L1880.4 240.803 Z" fill="#000000" fill-rule="nonzero" fill-opacity="1" /><path clip-path="url(#clip240)" d="M1910.21 250.849 L1900.84 263.465 L1910.7 276.775 L1905.67 276.775 L1898.13 266.589 L1890.58 276.775 L1885.56 276.775 L1895.63 263.21 L1886.41 250.849 L1891.44 250.849 L1898.31 260.085 L1905.19 250.849 L1910.21 250.849 Z" fill="#000000" fill-rule="nonzero" fill-opacity="1" /><path clip-path="url(#clip240)" d="M1916.04 240.803 L1919.75 240.803 Q1923.22 246.266 1924.93 251.497 Q1926.67 256.728 1926.67 261.89 Q1926.67 267.076 1924.93 272.33 Q1923.22 277.585 1919.75 283.025 L1916.04 283.025 Q1919.12 277.724 1920.63 272.492 Q1922.15 267.238 1922.15 261.89 Q1922.15 256.543 1920.63 251.335 Q1919.12 246.127 1916.04 240.803 Z" fill="#000000" fill-rule="nonzero" fill-opacity="1" /></svg>
