<?xml version="1.0" encoding="utf-8"?>
<svg xmlns="http://www.w3.org/2000/svg" xmlns:xlink="http://www.w3.org/1999/xlink" width="528" height="336" viewBox="0 0 2112 1344">
<defs>
  <clipPath id="clip300">
    <rect x="0" y="0" width="2112" height="1344"/>
  </clipPath>
</defs>
<path clip-path="url(#clip300)" d="M0 1344 L2112 1344 L2112 2.13163e-14 L0 2.13163e-14  Z" fill="#ffffff" fill-rule="evenodd" fill-opacity="1"/>
<defs>
  <clipPath id="clip301">
    <rect x="252" y="120" width="1814" height="1054"/>
  </clipPath>
</defs>
<path clip-path="url(#clip300)" d="M252.164 1173.47 L2064.76 1173.47 L2064.76 120.723 L252.164 120.723  Z" fill="#ffffff" fill-rule="evenodd" fill-opacity="1"/>
<polyline clip-path="url(#clip301)" style="stroke:#000000; stroke-linecap:round; stroke-linejoin:round; stroke-width:2; stroke-opacity:0.1; fill:none" points="302.238,1173.47 302.238,120.723 "/>
<polyline clip-path="url(#clip301)" style="stroke:#000000; stroke-linecap:round; stroke-linejoin:round; stroke-width:2; stroke-opacity:0.1; fill:none" points="730.574,1173.47 730.574,120.723 "/>
<polyline clip-path="url(#clip301)" style="stroke:#000000; stroke-linecap:round; stroke-linejoin:round; stroke-width:2; stroke-opacity:0.1; fill:none" points="1158.91,1173.47 1158.91,120.723 "/>
<polyline clip-path="url(#clip301)" style="stroke:#000000; stroke-linecap:round; stroke-linejoin:round; stroke-width:2; stroke-opacity:0.1; fill:none" points="1587.24,1173.47 1587.24,120.723 "/>
<polyline clip-path="url(#clip301)" style="stroke:#000000; stroke-linecap:round; stroke-linejoin:round; stroke-width:2; stroke-opacity:0.1; fill:none" points="2015.58,1173.47 2015.58,120.723 "/>
<polyline clip-path="url(#clip301)" style="stroke:#000000; stroke-linecap:round; stroke-linejoin:round; stroke-width:2; stroke-opacity:0.1; fill:none" points="252.164,1046.62 2064.76,1046.62 "/>
<polyline clip-path="url(#clip301)" style="stroke:#000000; stroke-linecap:round; stroke-linejoin:round; stroke-width:2; stroke-opacity:0.1; fill:none" points="252.164,842.38 2064.76,842.38 "/>
<polyline clip-path="url(#clip301)" style="stroke:#000000; stroke-linecap:round; stroke-linejoin:round; stroke-width:2; stroke-opacity:0.1; fill:none" points="252.164,638.14 2064.76,638.14 "/>
<polyline clip-path="url(#clip301)" style="stroke:#000000; stroke-linecap:round; stroke-linejoin:round; stroke-width:2; stroke-opacity:0.1; fill:none" points="252.164,433.901 2064.76,433.901 "/>
<polyline clip-path="url(#clip301)" style="stroke:#000000; stroke-linecap:round; stroke-linejoin:round; stroke-width:2; stroke-opacity:0.1; fill:none" points="252.164,229.661 2064.76,229.661 "/>
<polyline clip-path="url(#clip300)" style="stroke:#000000; stroke-linecap:round; stroke-linejoin:round; stroke-width:4; stroke-opacity:1; fill:none" points="252.164,1173.47 2064.76,1173.47 "/>
<polyline clip-path="url(#clip300)" style="stroke:#000000; stroke-linecap:round; stroke-linejoin:round; stroke-width:4; stroke-opacity:1; fill:none" points="302.238,1173.47 302.238,1154.57 "/>
<polyline clip-path="url(#clip300)" style="stroke:#000000; stroke-linecap:round; stroke-linejoin:round; stroke-width:4; stroke-opacity:1; fill:none" points="730.574,1173.47 730.574,1154.57 "/>
<polyline clip-path="url(#clip300)" style="stroke:#000000; stroke-linecap:round; stroke-linejoin:round; stroke-width:4; stroke-opacity:1; fill:none" points="1158.91,1173.47 1158.91,1154.57 "/>
<polyline clip-path="url(#clip300)" style="stroke:#000000; stroke-linecap:round; stroke-linejoin:round; stroke-width:4; stroke-opacity:1; fill:none" points="1587.24,1173.47 1587.24,1154.57 "/>
<polyline clip-path="url(#clip300)" style="stroke:#000000; stroke-linecap:round; stroke-linejoin:round; stroke-width:4; stroke-opacity:1; fill:none" points="2015.58,1173.47 2015.58,1154.57 "/>
<path clip-path="url(#clip300)" d="M264.542 1202.09 Q260.931 1202.09 259.102 1205.65 Q257.296 1209.19 257.296 1216.32 Q257.296 1223.43 259.102 1226.99 Q260.931 1230.53 264.542 1230.53 Q268.176 1230.53 269.982 1226.99 Q271.81 1223.43 271.81 1216.32 Q271.81 1209.19 269.982 1205.65 Q268.176 1202.09 264.542 1202.09 M264.542 1198.38 Q270.352 1198.38 273.407 1202.99 Q276.486 1207.57 276.486 1216.32 Q276.486 1225.05 273.407 1229.65 Q270.352 1234.24 264.542 1234.24 Q258.732 1234.24 255.653 1229.65 Q252.597 1225.05 252.597 1216.32 Q252.597 1207.57 255.653 1202.99 Q258.732 1198.38 264.542 1198.38 Z" fill="#000000" fill-rule="nonzero" fill-opacity="1" /><path clip-path="url(#clip300)" d="M284.704 1227.69 L289.588 1227.69 L289.588 1233.57 L284.704 1233.57 L284.704 1227.69 Z" fill="#000000" fill-rule="nonzero" fill-opacity="1" /><path clip-path="url(#clip300)" d="M309.773 1202.09 Q306.162 1202.09 304.333 1205.65 Q302.528 1209.19 302.528 1216.32 Q302.528 1223.43 304.333 1226.99 Q306.162 1230.53 309.773 1230.53 Q313.407 1230.53 315.213 1226.99 Q317.041 1223.43 317.041 1216.32 Q317.041 1209.19 315.213 1205.65 Q313.407 1202.09 309.773 1202.09 M309.773 1198.38 Q315.583 1198.38 318.639 1202.99 Q321.717 1207.57 321.717 1216.32 Q321.717 1225.05 318.639 1229.65 Q315.583 1234.24 309.773 1234.24 Q303.963 1234.24 300.884 1229.65 Q297.829 1225.05 297.829 1216.32 Q297.829 1207.57 300.884 1202.99 Q303.963 1198.38 309.773 1198.38 Z" fill="#000000" fill-rule="nonzero" fill-opacity="1" /><path clip-path="url(#clip300)" d="M339.935 1202.09 Q336.324 1202.09 334.495 1205.65 Q332.69 1209.19 332.69 1216.32 Q332.69 1223.43 334.495 1226.99 Q336.324 1230.53 339.935 1230.53 Q343.569 1230.53 345.375 1226.99 Q347.203 1223.43 347.203 1216.32 Q347.203 1209.19 345.375 1205.65 Q343.569 1202.09 339.935 1202.09 M339.935 1198.38 Q345.745 1198.38 348.801 1202.99 Q351.879 1207.57 351.879 1216.32 Q351.879 1225.05 348.801 1229.65 Q345.745 1234.24 339.935 1234.24 Q334.125 1234.24 331.046 1229.65 Q327.991 1225.05 327.991 1216.32 Q327.991 1207.57 331.046 1202.99 Q334.125 1198.38 339.935 1198.38 Z" fill="#000000" fill-rule="nonzero" fill-opacity="1" /><path clip-path="url(#clip300)" d="M693.375 1202.09 Q689.764 1202.09 687.935 1205.65 Q686.13 1209.19 686.13 1216.32 Q686.13 1223.43 687.935 1226.99 Q689.764 1230.53 693.375 1230.53 Q697.009 1230.53 698.815 1226.99 Q700.643 1223.43 700.643 1216.32 Q700.643 1209.19 698.815 1205.65 Q697.009 1202.09 693.375 1202.09 M693.375 1198.38 Q699.185 1198.38 702.241 1202.99 Q705.319 1207.57 705.319 1216.32 Q705.319 1225.05 702.241 1229.65 Q699.185 1234.24 693.375 1234.24 Q687.565 1234.24 684.486 1229.65 Q681.431 1225.05 681.431 1216.32 Q681.431 1207.57 684.486 1202.99 Q687.565 1198.38 693.375 1198.38 Z" fill="#000000" fill-rule="nonzero" fill-opacity="1" /><path clip-path="url(#clip300)" d="M713.537 1227.69 L718.421 1227.69 L718.421 1233.57 L713.537 1233.57 L713.537 1227.69 Z" fill="#000000" fill-rule="nonzero" fill-opacity="1" /><path clip-path="url(#clip300)" d="M732.634 1229.63 L748.953 1229.63 L748.953 1233.57 L727.009 1233.57 L727.009 1229.63 Q729.671 1226.88 734.254 1222.25 Q738.861 1217.59 740.041 1216.25 Q742.287 1213.73 743.166 1211.99 Q744.069 1210.23 744.069 1208.54 Q744.069 1205.79 742.125 1204.05 Q740.203 1202.32 737.102 1202.32 Q734.902 1202.32 732.449 1203.08 Q730.018 1203.84 727.24 1205.4 L727.24 1200.67 Q730.065 1199.54 732.518 1198.96 Q734.972 1198.38 737.009 1198.38 Q742.379 1198.38 745.574 1201.07 Q748.768 1203.75 748.768 1208.24 Q748.768 1210.37 747.958 1212.29 Q747.171 1214.19 745.064 1216.78 Q744.486 1217.46 741.384 1220.67 Q738.282 1223.87 732.634 1229.63 Z" fill="#000000" fill-rule="nonzero" fill-opacity="1" /><path clip-path="url(#clip300)" d="M758.814 1199.01 L777.171 1199.01 L777.171 1202.94 L763.097 1202.94 L763.097 1211.41 Q764.115 1211.07 765.134 1210.9 Q766.152 1210.72 767.171 1210.72 Q772.958 1210.72 776.337 1213.89 Q779.717 1217.06 779.717 1222.48 Q779.717 1228.06 776.245 1231.16 Q772.773 1234.24 766.453 1234.24 Q764.277 1234.24 762.009 1233.87 Q759.763 1233.5 757.356 1232.76 L757.356 1228.06 Q759.439 1229.19 761.662 1229.75 Q763.884 1230.3 766.361 1230.3 Q770.365 1230.3 772.703 1228.2 Q775.041 1226.09 775.041 1222.48 Q775.041 1218.87 772.703 1216.76 Q770.365 1214.65 766.361 1214.65 Q764.486 1214.65 762.611 1215.07 Q760.759 1215.49 758.814 1216.37 L758.814 1199.01 Z" fill="#000000" fill-rule="nonzero" fill-opacity="1" /><path clip-path="url(#clip300)" d="M1121.21 1202.09 Q1117.6 1202.09 1115.77 1205.65 Q1113.97 1209.19 1113.97 1216.32 Q1113.97 1223.43 1115.77 1226.99 Q1117.6 1230.53 1121.21 1230.53 Q1124.85 1230.53 1126.65 1226.99 Q1128.48 1223.43 1128.48 1216.32 Q1128.48 1209.19 1126.65 1205.65 Q1124.85 1202.09 1121.21 1202.09 M1121.21 1198.38 Q1127.02 1198.38 1130.08 1202.99 Q1133.16 1207.57 1133.16 1216.32 Q1133.16 1225.05 1130.08 1229.65 Q1127.02 1234.24 1121.21 1234.24 Q1115.4 1234.24 1112.32 1229.65 Q1109.27 1225.05 1109.27 1216.32 Q1109.27 1207.57 1112.32 1202.99 Q1115.4 1198.38 1121.21 1198.38 Z" fill="#000000" fill-rule="nonzero" fill-opacity="1" /><path clip-path="url(#clip300)" d="M1141.37 1227.69 L1146.26 1227.69 L1146.26 1233.57 L1141.37 1233.57 L1141.37 1227.69 Z" fill="#000000" fill-rule="nonzero" fill-opacity="1" /><path clip-path="url(#clip300)" d="M1156.49 1199.01 L1174.85 1199.01 L1174.85 1202.94 L1160.77 1202.94 L1160.77 1211.41 Q1161.79 1211.07 1162.81 1210.9 Q1163.83 1210.72 1164.85 1210.72 Q1170.63 1210.72 1174.01 1213.89 Q1177.39 1217.06 1177.39 1222.48 Q1177.39 1228.06 1173.92 1231.16 Q1170.45 1234.24 1164.13 1234.24 Q1161.95 1234.24 1159.68 1233.87 Q1157.44 1233.5 1155.03 1232.76 L1155.03 1228.06 Q1157.12 1229.19 1159.34 1229.75 Q1161.56 1230.3 1164.04 1230.3 Q1168.04 1230.3 1170.38 1228.2 Q1172.72 1226.09 1172.72 1222.48 Q1172.72 1218.87 1170.38 1216.76 Q1168.04 1214.65 1164.04 1214.65 Q1162.16 1214.65 1160.29 1215.07 Q1158.43 1215.49 1156.49 1216.37 L1156.49 1199.01 Z" fill="#000000" fill-rule="nonzero" fill-opacity="1" /><path clip-path="url(#clip300)" d="M1196.61 1202.09 Q1192.99 1202.09 1191.17 1205.65 Q1189.36 1209.19 1189.36 1216.32 Q1189.36 1223.43 1191.17 1226.99 Q1192.99 1230.53 1196.61 1230.53 Q1200.24 1230.53 1202.05 1226.99 Q1203.87 1223.43 1203.87 1216.32 Q1203.87 1209.19 1202.05 1205.65 Q1200.24 1202.09 1196.61 1202.09 M1196.61 1198.38 Q1202.42 1198.38 1205.47 1202.99 Q1208.55 1207.57 1208.55 1216.32 Q1208.55 1225.05 1205.47 1229.65 Q1202.42 1234.24 1196.61 1234.24 Q1190.8 1234.24 1187.72 1229.65 Q1184.66 1225.05 1184.66 1216.32 Q1184.66 1207.57 1187.72 1202.99 Q1190.8 1198.38 1196.61 1198.38 Z" fill="#000000" fill-rule="nonzero" fill-opacity="1" /><path clip-path="url(#clip300)" d="M1550.05 1202.09 Q1546.43 1202.09 1544.61 1205.65 Q1542.8 1209.19 1542.8 1216.32 Q1542.8 1223.43 1544.61 1226.99 Q1546.43 1230.53 1550.05 1230.53 Q1553.68 1230.53 1555.49 1226.99 Q1557.31 1223.43 1557.31 1216.32 Q1557.31 1209.19 1555.49 1205.65 Q1553.68 1202.09 1550.05 1202.09 M1550.05 1198.38 Q1555.86 1198.38 1558.91 1202.99 Q1561.99 1207.57 1561.99 1216.32 Q1561.99 1225.05 1558.91 1229.65 Q1555.86 1234.24 1550.05 1234.24 Q1544.24 1234.24 1541.16 1229.65 Q1538.1 1225.05 1538.1 1216.32 Q1538.1 1207.57 1541.16 1202.99 Q1544.24 1198.38 1550.05 1198.38 Z" fill="#000000" fill-rule="nonzero" fill-opacity="1" /><path clip-path="url(#clip300)" d="M1570.21 1227.69 L1575.09 1227.69 L1575.09 1233.57 L1570.21 1233.57 L1570.21 1227.69 Z" fill="#000000" fill-rule="nonzero" fill-opacity="1" /><path clip-path="url(#clip300)" d="M1584.1 1199.01 L1606.32 1199.01 L1606.32 1201 L1593.77 1233.57 L1588.89 1233.57 L1600.69 1202.94 L1584.1 1202.94 L1584.1 1199.01 Z" fill="#000000" fill-rule="nonzero" fill-opacity="1" /><path clip-path="url(#clip300)" d="M1615.49 1199.01 L1633.84 1199.01 L1633.84 1202.94 L1619.77 1202.94 L1619.77 1211.41 Q1620.79 1211.07 1621.8 1210.9 Q1622.82 1210.72 1623.84 1210.72 Q1629.63 1210.72 1633.01 1213.89 Q1636.39 1217.06 1636.39 1222.48 Q1636.39 1228.06 1632.92 1231.16 Q1629.44 1234.24 1623.12 1234.24 Q1620.95 1234.24 1618.68 1233.87 Q1616.43 1233.5 1614.03 1232.76 L1614.03 1228.06 Q1616.11 1229.19 1618.33 1229.75 Q1620.55 1230.3 1623.03 1230.3 Q1627.04 1230.3 1629.37 1228.2 Q1631.71 1226.09 1631.71 1222.48 Q1631.71 1218.87 1629.37 1216.76 Q1627.04 1214.65 1623.03 1214.65 Q1621.16 1214.65 1619.28 1215.07 Q1617.43 1215.49 1615.49 1216.37 L1615.49 1199.01 Z" fill="#000000" fill-rule="nonzero" fill-opacity="1" /><path clip-path="url(#clip300)" d="M1967.65 1229.63 L1975.29 1229.63 L1975.29 1203.27 L1966.98 1204.93 L1966.98 1200.67 L1975.24 1199.01 L1979.92 1199.01 L1979.92 1229.63 L1987.56 1229.63 L1987.56 1233.57 L1967.65 1233.57 L1967.65 1229.63 Z" fill="#000000" fill-rule="nonzero" fill-opacity="1" /><path clip-path="url(#clip300)" d="M1997 1227.69 L2001.89 1227.69 L2001.89 1233.57 L1997 1233.57 L1997 1227.69 Z" fill="#000000" fill-rule="nonzero" fill-opacity="1" /><path clip-path="url(#clip300)" d="M2022.07 1202.09 Q2018.46 1202.09 2016.63 1205.65 Q2014.83 1209.19 2014.83 1216.32 Q2014.83 1223.43 2016.63 1226.99 Q2018.46 1230.53 2022.07 1230.53 Q2025.71 1230.53 2027.51 1226.99 Q2029.34 1223.43 2029.34 1216.32 Q2029.34 1209.19 2027.51 1205.65 Q2025.71 1202.09 2022.07 1202.09 M2022.07 1198.38 Q2027.88 1198.38 2030.94 1202.99 Q2034.02 1207.57 2034.02 1216.32 Q2034.02 1225.05 2030.94 1229.65 Q2027.88 1234.24 2022.07 1234.24 Q2016.26 1234.24 2013.18 1229.65 Q2010.13 1225.05 2010.13 1216.32 Q2010.13 1207.57 2013.18 1202.99 Q2016.26 1198.38 2022.07 1198.38 Z" fill="#000000" fill-rule="nonzero" fill-opacity="1" /><path clip-path="url(#clip300)" d="M2052.24 1202.09 Q2048.62 1202.09 2046.8 1205.65 Q2044.99 1209.19 2044.99 1216.32 Q2044.99 1223.43 2046.8 1226.99 Q2048.62 1230.53 2052.24 1230.53 Q2055.87 1230.53 2057.67 1226.99 Q2059.5 1223.43 2059.5 1216.32 Q2059.5 1209.19 2057.67 1205.65 Q2055.87 1202.09 2052.24 1202.09 M2052.24 1198.38 Q2058.05 1198.38 2061.1 1202.99 Q2064.18 1207.57 2064.18 1216.32 Q2064.18 1225.05 2061.1 1229.65 Q2058.05 1234.24 2052.24 1234.24 Q2046.42 1234.24 2043.35 1229.65 Q2040.29 1225.05 2040.29 1216.32 Q2040.29 1207.57 2043.35 1202.99 Q2046.42 1198.38 2052.24 1198.38 Z" fill="#000000" fill-rule="nonzero" fill-opacity="1" /><path clip-path="url(#clip300)" d="M1175.07 1278.37 L1162.18 1295.71 L1175.74 1314.01 L1168.84 1314.01 L1158.46 1300.01 L1148.08 1314.01 L1141.18 1314.01 L1155.02 1295.36 L1142.35 1278.37 L1149.26 1278.37 L1158.71 1291.07 L1168.17 1278.37 L1175.07 1278.37 Z" fill="#000000" fill-rule="nonzero" fill-opacity="1" /><polyline clip-path="url(#clip300)" style="stroke:#000000; stroke-linecap:round; stroke-linejoin:round; stroke-width:4; stroke-opacity:1; fill:none" points="252.164,1173.47 252.164,120.723 "/>
<polyline clip-path="url(#clip300)" style="stroke:#000000; stroke-linecap:round; stroke-linejoin:round; stroke-width:4; stroke-opacity:1; fill:none" points="252.164,1046.62 271.062,1046.62 "/>
<polyline clip-path="url(#clip300)" style="stroke:#000000; stroke-linecap:round; stroke-linejoin:round; stroke-width:4; stroke-opacity:1; fill:none" points="252.164,842.38 271.062,842.38 "/>
<polyline clip-path="url(#clip300)" style="stroke:#000000; stroke-linecap:round; stroke-linejoin:round; stroke-width:4; stroke-opacity:1; fill:none" points="252.164,638.14 271.062,638.14 "/>
<polyline clip-path="url(#clip300)" style="stroke:#000000; stroke-linecap:round; stroke-linejoin:round; stroke-width:4; stroke-opacity:1; fill:none" points="252.164,433.901 271.062,433.901 "/>
<polyline clip-path="url(#clip300)" style="stroke:#000000; stroke-linecap:round; stroke-linejoin:round; stroke-width:4; stroke-opacity:1; fill:none" points="252.164,229.661 271.062,229.661 "/>
<path clip-path="url(#clip300)" d="M113.54 1047.07 L143.216 1047.07 L143.216 1051.01 L113.54 1051.01 L113.54 1047.07 Z" fill="#000000" fill-rule="nonzero" fill-opacity="1" /><path clip-path="url(#clip300)" d="M154.119 1059.96 L161.757 1059.96 L161.757 1033.6 L153.447 1035.27 L153.447 1031.01 L161.711 1029.34 L166.387 1029.34 L166.387 1059.96 L174.026 1059.96 L174.026 1063.9 L154.119 1063.9 L154.119 1059.96 Z" fill="#000000" fill-rule="nonzero" fill-opacity="1" /><path clip-path="url(#clip300)" d="M183.47 1058.02 L188.355 1058.02 L188.355 1063.9 L183.47 1063.9 L183.47 1058.02 Z" fill="#000000" fill-rule="nonzero" fill-opacity="1" /><path clip-path="url(#clip300)" d="M208.54 1032.42 Q204.929 1032.42 203.1 1035.98 Q201.294 1039.52 201.294 1046.65 Q201.294 1053.76 203.1 1057.33 Q204.929 1060.87 208.54 1060.87 Q212.174 1060.87 213.979 1057.33 Q215.808 1053.76 215.808 1046.65 Q215.808 1039.52 213.979 1035.98 Q212.174 1032.42 208.54 1032.42 M208.54 1028.71 Q214.35 1028.71 217.405 1033.32 Q220.484 1037.9 220.484 1046.65 Q220.484 1055.38 217.405 1059.99 Q214.35 1064.57 208.54 1064.57 Q202.729 1064.57 199.651 1059.99 Q196.595 1055.38 196.595 1046.65 Q196.595 1037.9 199.651 1033.32 Q202.729 1028.71 208.54 1028.71 Z" fill="#000000" fill-rule="nonzero" fill-opacity="1" /><path clip-path="url(#clip300)" d="M114.536 842.832 L144.211 842.832 L144.211 846.767 L114.536 846.767 L114.536 842.832 Z" fill="#000000" fill-rule="nonzero" fill-opacity="1" /><path clip-path="url(#clip300)" d="M164.304 828.179 Q160.693 828.179 158.864 831.744 Q157.058 835.285 157.058 842.415 Q157.058 849.521 158.864 853.086 Q160.693 856.628 164.304 856.628 Q167.938 856.628 169.744 853.086 Q171.572 849.521 171.572 842.415 Q171.572 835.285 169.744 831.744 Q167.938 828.179 164.304 828.179 M164.304 824.475 Q170.114 824.475 173.169 829.082 Q176.248 833.665 176.248 842.415 Q176.248 851.142 173.169 855.748 Q170.114 860.331 164.304 860.331 Q158.494 860.331 155.415 855.748 Q152.359 851.142 152.359 842.415 Q152.359 833.665 155.415 829.082 Q158.494 824.475 164.304 824.475 Z" fill="#000000" fill-rule="nonzero" fill-opacity="1" /><path clip-path="url(#clip300)" d="M184.466 853.781 L189.35 853.781 L189.35 859.66 L184.466 859.66 L184.466 853.781 Z" fill="#000000" fill-rule="nonzero" fill-opacity="1" /><path clip-path="url(#clip300)" d="M199.581 825.1 L217.938 825.1 L217.938 829.035 L203.864 829.035 L203.864 837.508 Q204.882 837.16 205.901 836.998 Q206.919 836.813 207.938 836.813 Q213.725 836.813 217.104 839.984 Q220.484 843.156 220.484 848.572 Q220.484 854.151 217.012 857.253 Q213.54 860.331 207.22 860.331 Q205.044 860.331 202.776 859.961 Q200.53 859.591 198.123 858.85 L198.123 854.151 Q200.206 855.285 202.429 855.841 Q204.651 856.396 207.128 856.396 Q211.132 856.396 213.47 854.29 Q215.808 852.183 215.808 848.572 Q215.808 844.961 213.47 842.855 Q211.132 840.748 207.128 840.748 Q205.253 840.748 203.378 841.165 Q201.526 841.582 199.581 842.461 L199.581 825.1 Z" fill="#000000" fill-rule="nonzero" fill-opacity="1" /><path clip-path="url(#clip300)" d="M163.308 623.939 Q159.697 623.939 157.869 627.504 Q156.063 631.046 156.063 638.175 Q156.063 645.282 157.869 648.846 Q159.697 652.388 163.308 652.388 Q166.943 652.388 168.748 648.846 Q170.577 645.282 170.577 638.175 Q170.577 631.046 168.748 627.504 Q166.943 623.939 163.308 623.939 M163.308 620.235 Q169.119 620.235 172.174 624.842 Q175.253 629.425 175.253 638.175 Q175.253 646.902 172.174 651.508 Q169.119 656.092 163.308 656.092 Q157.498 656.092 154.42 651.508 Q151.364 646.902 151.364 638.175 Q151.364 629.425 154.42 624.842 Q157.498 620.235 163.308 620.235 Z" fill="#000000" fill-rule="nonzero" fill-opacity="1" /><path clip-path="url(#clip300)" d="M183.47 649.541 L188.355 649.541 L188.355 655.42 L183.47 655.42 L183.47 649.541 Z" fill="#000000" fill-rule="nonzero" fill-opacity="1" /><path clip-path="url(#clip300)" d="M208.54 623.939 Q204.929 623.939 203.1 627.504 Q201.294 631.046 201.294 638.175 Q201.294 645.282 203.1 648.846 Q204.929 652.388 208.54 652.388 Q212.174 652.388 213.979 648.846 Q215.808 645.282 215.808 638.175 Q215.808 631.046 213.979 627.504 Q212.174 623.939 208.54 623.939 M208.54 620.235 Q214.35 620.235 217.405 624.842 Q220.484 629.425 220.484 638.175 Q220.484 646.902 217.405 651.508 Q214.35 656.092 208.54 656.092 Q202.729 656.092 199.651 651.508 Q196.595 646.902 196.595 638.175 Q196.595 629.425 199.651 624.842 Q202.729 620.235 208.54 620.235 Z" fill="#000000" fill-rule="nonzero" fill-opacity="1" /><path clip-path="url(#clip300)" d="M164.304 419.699 Q160.693 419.699 158.864 423.264 Q157.058 426.806 157.058 433.936 Q157.058 441.042 158.864 444.607 Q160.693 448.148 164.304 448.148 Q167.938 448.148 169.744 444.607 Q171.572 441.042 171.572 433.936 Q171.572 426.806 169.744 423.264 Q167.938 419.699 164.304 419.699 M164.304 415.996 Q170.114 415.996 173.169 420.602 Q176.248 425.186 176.248 433.936 Q176.248 442.662 173.169 447.269 Q170.114 451.852 164.304 451.852 Q158.494 451.852 155.415 447.269 Q152.359 442.662 152.359 433.936 Q152.359 425.186 155.415 420.602 Q158.494 415.996 164.304 415.996 Z" fill="#000000" fill-rule="nonzero" fill-opacity="1" /><path clip-path="url(#clip300)" d="M184.466 445.301 L189.35 445.301 L189.35 451.181 L184.466 451.181 L184.466 445.301 Z" fill="#000000" fill-rule="nonzero" fill-opacity="1" /><path clip-path="url(#clip300)" d="M199.581 416.621 L217.938 416.621 L217.938 420.556 L203.864 420.556 L203.864 429.028 Q204.882 428.681 205.901 428.519 Q206.919 428.334 207.938 428.334 Q213.725 428.334 217.104 431.505 Q220.484 434.676 220.484 440.093 Q220.484 445.672 217.012 448.773 Q213.54 451.852 207.22 451.852 Q205.044 451.852 202.776 451.482 Q200.53 451.111 198.123 450.371 L198.123 445.672 Q200.206 446.806 202.429 447.361 Q204.651 447.917 207.128 447.917 Q211.132 447.917 213.47 445.81 Q215.808 443.704 215.808 440.093 Q215.808 436.482 213.47 434.375 Q211.132 432.269 207.128 432.269 Q205.253 432.269 203.378 432.686 Q201.526 433.102 199.581 433.982 L199.581 416.621 Z" fill="#000000" fill-rule="nonzero" fill-opacity="1" /><path clip-path="url(#clip300)" d="M154.119 243.006 L161.757 243.006 L161.757 216.64 L153.447 218.307 L153.447 214.048 L161.711 212.381 L166.387 212.381 L166.387 243.006 L174.026 243.006 L174.026 246.941 L154.119 246.941 L154.119 243.006 Z" fill="#000000" fill-rule="nonzero" fill-opacity="1" /><path clip-path="url(#clip300)" d="M183.47 241.062 L188.355 241.062 L188.355 246.941 L183.47 246.941 L183.47 241.062 Z" fill="#000000" fill-rule="nonzero" fill-opacity="1" /><path clip-path="url(#clip300)" d="M208.54 215.46 Q204.929 215.46 203.1 219.025 Q201.294 222.566 201.294 229.696 Q201.294 236.802 203.1 240.367 Q204.929 243.909 208.54 243.909 Q212.174 243.909 213.979 240.367 Q215.808 236.802 215.808 229.696 Q215.808 222.566 213.979 219.025 Q212.174 215.46 208.54 215.46 M208.54 211.756 Q214.35 211.756 217.405 216.363 Q220.484 220.946 220.484 229.696 Q220.484 238.423 217.405 243.029 Q214.35 247.612 208.54 247.612 Q202.729 247.612 199.651 243.029 Q196.595 238.423 196.595 229.696 Q196.595 220.946 199.651 216.363 Q202.729 211.756 208.54 211.756 Z" fill="#000000" fill-rule="nonzero" fill-opacity="1" /><path clip-path="url(#clip300)" d="M18.079 856.863 L22.9487 856.863 L22.9487 862.465 Q22.9487 865.616 24.2219 866.857 Q25.495 868.066 28.8052 868.066 L31.9562 868.066 L31.9562 858.422 L36.5077 858.422 L36.5077 868.066 L67.6042 868.066 L67.6042 873.955 L36.5077 873.955 L36.5077 879.557 L31.9562 879.557 L31.9562 873.955 L29.4736 873.955 Q23.5216 873.955 20.8162 871.186 Q18.079 868.417 18.079 862.401 L18.079 856.863 Z" fill="#000000" fill-rule="nonzero" fill-opacity="1" /><path clip-path="url(#clip300)" d="M18.1426 837.893 Q25.4632 842.158 32.6246 844.227 Q39.786 846.296 47.1384 846.296 Q54.4908 846.296 61.7159 844.227 Q68.9091 842.126 76.1979 837.893 L76.1979 842.986 Q68.7182 847.76 61.4931 850.147 Q54.268 852.502 47.1384 852.502 Q40.0406 852.502 32.8474 850.147 Q25.6542 847.792 18.1426 842.986 L18.1426 837.893 Z" fill="#000000" fill-rule="nonzero" fill-opacity="1" /><path clip-path="url(#clip300)" d="M31.9562 796.898 L49.3028 809.788 L67.6042 796.229 L67.6042 803.136 L53.5996 813.512 L67.6042 823.888 L67.6042 830.795 L48.9526 816.95 L31.9562 829.618 L31.9562 822.711 L44.6558 813.258 L31.9562 803.805 L31.9562 796.898 Z" fill="#000000" fill-rule="nonzero" fill-opacity="1" /><path clip-path="url(#clip300)" d="M18.1426 788.877 L18.1426 783.785 Q25.6542 779.01 32.8474 776.655 Q40.0406 774.268 47.1384 774.268 Q54.268 774.268 61.4931 776.655 Q68.7182 779.01 76.1979 783.785 L76.1979 788.877 Q68.9091 784.644 61.7159 782.575 Q54.4908 780.474 47.1384 780.474 Q39.786 780.474 32.6246 782.575 Q25.4632 784.644 18.1426 788.877 Z" fill="#000000" fill-rule="nonzero" fill-opacity="1" /><path clip-path="url(#clip300)" d="M18.079 742.344 L18.079 728.848 L22.6304 728.848 L22.6304 736.487 L71.6464 736.487 L71.6464 728.848 L76.1979 728.848 L76.1979 742.344 L18.079 742.344 Z" fill="#000000" fill-rule="nonzero" fill-opacity="1" /><path clip-path="url(#clip300)" d="M18.079 716.372 L18.079 710.515 L67.6042 710.515 L67.6042 716.372 L18.079 716.372 Z" fill="#000000" fill-rule="nonzero" fill-opacity="1" /><path clip-path="url(#clip300)" d="M36.0621 684.448 Q36.0621 689.158 39.7542 691.896 Q43.4145 694.633 49.812 694.633 Q56.2095 694.633 59.9017 691.927 Q63.5619 689.19 63.5619 684.448 Q63.5619 679.769 59.8698 677.032 Q56.1777 674.294 49.812 674.294 Q43.4781 674.294 39.786 677.032 Q36.0621 679.769 36.0621 684.448 M31.0968 684.448 Q31.0968 676.809 36.0621 672.448 Q41.0273 668.088 49.812 668.088 Q58.5649 668.088 63.5619 672.448 Q68.5272 676.809 68.5272 684.448 Q68.5272 692.118 63.5619 696.479 Q58.5649 700.808 49.812 700.808 Q41.0273 700.808 36.0621 696.479 Q31.0968 692.118 31.0968 684.448 Z" fill="#000000" fill-rule="nonzero" fill-opacity="1" /><path clip-path="url(#clip300)" d="M49.3664 634.922 Q43.0007 634.922 39.4996 637.564 Q35.9984 640.174 35.9984 644.917 Q35.9984 649.627 39.4996 652.269 Q43.0007 654.879 49.3664 654.879 Q55.7003 654.879 59.2014 652.269 Q62.7026 649.627 62.7026 644.917 Q62.7026 640.174 59.2014 637.564 Q55.7003 634.922 49.3664 634.922 M63.18 629.066 Q72.283 629.066 76.7071 633.108 Q81.1631 637.15 81.1631 645.49 Q81.1631 648.577 80.6857 651.314 Q80.2401 654.051 79.2852 656.63 L73.5879 656.63 Q74.9884 654.051 75.6568 651.537 Q76.3252 649.023 76.3252 646.413 Q76.3252 640.652 73.3015 637.787 Q70.3096 634.922 64.2303 634.922 L61.3339 634.922 Q64.485 636.737 66.0446 639.569 Q67.6042 642.402 67.6042 646.349 Q67.6042 652.906 62.6071 656.916 Q57.61 660.926 49.3664 660.926 Q41.091 660.926 36.0939 656.916 Q31.0968 652.906 31.0968 646.349 Q31.0968 642.402 32.6564 639.569 Q34.216 636.737 37.3671 634.922 L31.9562 634.922 L31.9562 629.066 L63.18 629.066 Z" fill="#000000" fill-rule="nonzero" fill-opacity="1" /><path clip-path="url(#clip300)" d="M33.0065 573.557 L38.5447 573.557 Q37.2716 576.04 36.635 578.713 Q35.9984 581.387 35.9984 584.251 Q35.9984 588.612 37.3352 590.808 Q38.672 592.972 41.3456 592.972 Q43.3826 592.972 44.5603 591.413 Q45.7061 589.853 46.7565 585.143 L47.2021 583.137 Q48.5389 576.899 50.9897 574.289 Q53.4086 571.647 57.7691 571.647 Q62.7344 571.647 65.6308 575.594 Q68.5272 579.509 68.5272 586.384 Q68.5272 589.249 67.9543 592.368 Q67.4132 595.455 66.2992 598.893 L60.2518 598.893 Q61.9387 595.646 62.798 592.495 Q63.6256 589.344 63.6256 586.257 Q63.6256 582.119 62.2251 579.891 Q60.7929 577.663 58.2147 577.663 Q55.8276 577.663 54.5545 579.286 Q53.2813 580.878 52.1037 586.32 L51.6262 588.357 Q50.4804 593.8 48.1251 596.219 Q45.738 598.638 41.6002 598.638 Q36.5713 598.638 33.8341 595.073 Q31.0968 591.508 31.0968 584.952 Q31.0968 581.705 31.5743 578.841 Q32.0517 575.976 33.0065 573.557 Z" fill="#000000" fill-rule="nonzero" fill-opacity="1" /><path clip-path="url(#clip300)" d="M33.3248 536.668 L38.7993 536.668 Q37.4307 539.15 36.7623 541.665 Q36.0621 544.148 36.0621 546.694 Q36.0621 552.391 39.6905 555.542 Q43.2872 558.693 49.812 558.693 Q56.3369 558.693 59.9653 555.542 Q63.5619 552.391 63.5619 546.694 Q63.5619 544.148 62.8935 541.665 Q62.1933 539.15 60.8247 536.668 L66.2355 536.668 Q67.3814 539.119 67.9543 541.76 Q68.5272 544.37 68.5272 547.33 Q68.5272 555.383 63.4664 560.125 Q58.4057 564.868 49.812 564.868 Q41.091 564.868 36.0939 560.094 Q31.0968 555.287 31.0968 546.948 Q31.0968 544.243 31.6697 541.665 Q32.2108 539.087 33.3248 536.668 Z" fill="#000000" fill-rule="nonzero" fill-opacity="1" /><path clip-path="url(#clip300)" d="M49.6847 510.282 Q49.6847 517.38 51.3079 520.117 Q52.9312 522.854 56.8461 522.854 Q59.9653 522.854 61.8114 520.817 Q63.6256 518.748 63.6256 515.215 Q63.6256 510.346 60.1881 507.417 Q56.7188 504.457 50.9897 504.457 L49.6847 504.457 L49.6847 510.282 M47.2657 498.601 L67.6042 498.601 L67.6042 504.457 L62.1933 504.457 Q65.4398 506.463 66.9994 509.454 Q68.5272 512.446 68.5272 516.775 Q68.5272 522.249 65.4716 525.496 Q62.3843 528.711 57.2281 528.711 Q51.2125 528.711 48.1569 524.7 Q45.1014 520.658 45.1014 512.669 L45.1014 504.457 L44.5285 504.457 Q40.4862 504.457 38.2901 507.131 Q36.0621 509.773 36.0621 514.579 Q36.0621 517.634 36.7941 520.531 Q37.5262 523.427 38.9903 526.101 L33.5795 526.101 Q32.3381 522.886 31.7334 519.862 Q31.0968 516.839 31.0968 513.974 Q31.0968 506.24 35.1072 502.42 Q39.1176 498.601 47.2657 498.601 Z" fill="#000000" fill-rule="nonzero" fill-opacity="1" /><path clip-path="url(#clip300)" d="M18.079 486.538 L18.079 480.681 L67.6042 480.681 L67.6042 486.538 L18.079 486.538 Z" fill="#000000" fill-rule="nonzero" fill-opacity="1" /><path clip-path="url(#clip300)" d="M48.3161 437.936 L51.1806 437.936 L51.1806 464.863 Q57.2281 464.481 60.4109 461.234 Q63.5619 457.956 63.5619 452.131 Q63.5619 448.757 62.7344 445.606 Q61.9069 442.424 60.2518 439.304 L65.7899 439.304 Q67.1267 442.455 67.827 445.766 Q68.5272 449.076 68.5272 452.481 Q68.5272 461.011 63.5619 466.008 Q58.5967 470.974 50.1303 470.974 Q41.3774 470.974 36.2531 466.263 Q31.0968 461.521 31.0968 453.5 Q31.0968 446.307 35.7438 442.137 Q40.3589 437.936 48.3161 437.936 M46.5973 443.792 Q41.7912 443.856 38.9266 446.498 Q36.0621 449.108 36.0621 453.436 Q36.0621 458.338 38.8312 461.298 Q41.6002 464.226 46.6292 464.672 L46.5973 443.792 Z" fill="#000000" fill-rule="nonzero" fill-opacity="1" /><path clip-path="url(#clip300)" d="M18.079 414.637 L76.1979 414.637 L76.1979 428.132 L71.6464 428.132 L71.6464 420.525 L22.6304 420.525 L22.6304 428.132 L18.079 428.132 L18.079 414.637 Z" fill="#000000" fill-rule="nonzero" fill-opacity="1" /><path clip-path="url(#clip300)" d="M439.769 63.9476 L439.769 47.7034 L426.401 47.7034 L426.401 40.9789 L447.871 40.9789 L447.871 66.9452 Q443.131 70.3075 437.419 72.0494 Q431.707 73.7508 425.226 73.7508 Q411.048 73.7508 403.027 65.4869 Q395.047 57.1826 395.047 42.3968 Q395.047 27.5705 403.027 19.3066 Q411.048 11.0023 425.226 11.0023 Q431.14 11.0023 436.447 12.4606 Q441.794 13.9189 446.291 16.7545 L446.291 25.464 Q441.754 21.6156 436.65 19.6712 Q431.545 17.7268 425.915 17.7268 Q414.815 17.7268 409.225 23.9246 Q403.675 30.1225 403.675 42.3968 Q403.675 54.6305 409.225 60.8284 Q414.815 67.0263 425.915 67.0263 Q430.249 67.0263 433.652 66.2971 Q437.055 65.5274 439.769 63.9476 Z" fill="#000000" fill-rule="nonzero" fill-opacity="1" /><path clip-path="url(#clip300)" d="M483.113 49.7694 Q474.08 49.7694 470.596 51.8354 Q467.112 53.9013 467.112 58.8839 Q467.112 62.8538 469.705 65.2034 Q472.338 67.5124 476.835 67.5124 Q483.032 67.5124 486.759 63.1374 Q490.527 58.7219 490.527 51.4303 L490.527 49.7694 L483.113 49.7694 M497.98 46.6907 L497.98 72.576 L490.527 72.576 L490.527 65.6895 Q487.975 69.8214 484.167 71.8063 Q480.359 73.7508 474.85 73.7508 Q467.882 73.7508 463.75 69.8619 Q459.659 65.9325 459.659 59.3701 Q459.659 51.7138 464.763 47.825 Q469.908 43.9361 480.075 43.9361 L490.527 43.9361 L490.527 43.2069 Q490.527 38.0623 487.124 35.2672 Q483.762 32.4315 477.645 32.4315 Q473.756 32.4315 470.07 33.3632 Q466.383 34.295 462.98 36.1584 L462.98 29.2718 Q467.072 27.692 470.92 26.9223 Q474.769 26.1121 478.414 26.1121 Q488.258 26.1121 493.119 31.2163 Q497.98 36.3204 497.98 46.6907 Z" fill="#000000" fill-rule="nonzero" fill-opacity="1" /><path clip-path="url(#clip300)" d="M548.657 35.9153 Q551.452 30.8922 555.341 28.5022 Q559.23 26.1121 564.496 26.1121 Q571.585 26.1121 575.434 31.0947 Q579.282 36.0368 579.282 45.1919 L579.282 72.576 L571.788 72.576 L571.788 45.4349 Q571.788 38.913 569.479 35.7533 Q567.17 32.5936 562.43 32.5936 Q556.637 32.5936 553.275 36.4419 Q549.913 40.2903 549.913 46.9338 L549.913 72.576 L542.419 72.576 L542.419 45.4349 Q542.419 38.8725 540.11 35.7533 Q537.801 32.5936 532.98 32.5936 Q527.268 32.5936 523.906 36.4824 Q520.544 40.3308 520.544 46.9338 L520.544 72.576 L513.05 72.576 L513.05 27.2059 L520.544 27.2059 L520.544 34.2544 Q523.096 30.082 526.661 28.0971 Q530.225 26.1121 535.127 26.1121 Q540.069 26.1121 543.512 28.6237 Q546.996 31.1352 548.657 35.9153 Z" fill="#000000" fill-rule="nonzero" fill-opacity="1" /><path clip-path="url(#clip300)" d="M629.473 35.9153 Q632.268 30.8922 636.157 28.5022 Q640.045 26.1121 645.312 26.1121 Q652.401 26.1121 656.249 31.0947 Q660.097 36.0368 660.097 45.1919 L660.097 72.576 L652.603 72.576 L652.603 45.4349 Q652.603 38.913 650.294 35.7533 Q647.985 32.5936 643.246 32.5936 Q637.453 32.5936 634.091 36.4419 Q630.728 40.2903 630.728 46.9338 L630.728 72.576 L623.234 72.576 L623.234 45.4349 Q623.234 38.8725 620.925 35.7533 Q618.616 32.5936 613.796 32.5936 Q608.084 32.5936 604.722 36.4824 Q601.359 40.3308 601.359 46.9338 L601.359 72.576 L593.865 72.576 L593.865 27.2059 L601.359 27.2059 L601.359 34.2544 Q603.911 30.082 607.476 28.0971 Q611.041 26.1121 615.943 26.1121 Q620.885 26.1121 624.328 28.6237 Q627.812 31.1352 629.473 35.9153 Z" fill="#000000" fill-rule="nonzero" fill-opacity="1" /><path clip-path="url(#clip300)" d="M695.583 49.7694 Q686.55 49.7694 683.066 51.8354 Q679.582 53.9013 679.582 58.8839 Q679.582 62.8538 682.175 65.2034 Q684.808 67.5124 689.304 67.5124 Q695.502 67.5124 699.229 63.1374 Q702.997 58.7219 702.997 51.4303 L702.997 49.7694 L695.583 49.7694 M710.45 46.6907 L710.45 72.576 L702.997 72.576 L702.997 65.6895 Q700.444 69.8214 696.637 71.8063 Q692.829 73.7508 687.32 73.7508 Q680.352 73.7508 676.22 69.8619 Q672.129 65.9325 672.129 59.3701 Q672.129 51.7138 677.233 47.825 Q682.377 43.9361 692.545 43.9361 L702.997 43.9361 L702.997 43.2069 Q702.997 38.0623 699.594 35.2672 Q696.232 32.4315 690.115 32.4315 Q686.226 32.4315 682.539 33.3632 Q678.853 34.295 675.45 36.1584 L675.45 29.2718 Q679.542 27.692 683.39 26.9223 Q687.239 26.1121 690.884 26.1121 Q700.728 26.1121 705.589 31.2163 Q710.45 36.3204 710.45 46.6907 Z" fill="#000000" fill-rule="nonzero" fill-opacity="1" /><path clip-path="url(#clip300)" d="M793.737 63.9476 L793.737 47.7034 L780.369 47.7034 L780.369 40.9789 L801.839 40.9789 L801.839 66.9452 Q797.099 70.3075 791.387 72.0494 Q785.676 73.7508 779.194 73.7508 Q765.016 73.7508 756.995 65.4869 Q749.015 57.1826 749.015 42.3968 Q749.015 27.5705 756.995 19.3066 Q765.016 11.0023 779.194 11.0023 Q785.108 11.0023 790.415 12.4606 Q795.762 13.9189 800.259 16.7545 L800.259 25.464 Q795.722 21.6156 790.618 19.6712 Q785.513 17.7268 779.883 17.7268 Q768.783 17.7268 763.193 23.9246 Q757.643 30.1225 757.643 42.3968 Q757.643 54.6305 763.193 60.8284 Q768.783 67.0263 779.883 67.0263 Q784.217 67.0263 787.62 66.2971 Q791.023 65.5274 793.737 63.9476 Z" fill="#000000" fill-rule="nonzero" fill-opacity="1" /><path clip-path="url(#clip300)" d="M837 20.1573 L825.901 50.2555 L848.14 50.2555 L837 20.1573 M832.382 12.096 L841.659 12.096 L864.709 72.576 L856.202 72.576 L850.693 57.061 L823.43 57.061 L817.921 72.576 L809.292 72.576 L832.382 12.096 Z" fill="#000000" fill-rule="nonzero" fill-opacity="1" /><path clip-path="url(#clip300)" d="M873.54 12.096 L885.733 12.096 L901.167 53.2532 L916.682 12.096 L928.875 12.096 L928.875 72.576 L920.895 72.576 L920.895 19.4686 L905.299 60.9499 L897.075 60.9499 L881.479 19.4686 L881.479 72.576 L873.54 72.576 L873.54 12.096 Z" fill="#000000" fill-rule="nonzero" fill-opacity="1" /><path clip-path="url(#clip300)" d="M967.399 46.9338 L1042.26 46.9338 L1042.26 52.7671 L967.399 52.7671 L967.399 46.9338 Z" fill="#000000" fill-rule="nonzero" fill-opacity="1" /><path clip-path="url(#clip300)" d="M1109.42 28.5427 L1109.42 35.5912 Q1106.26 33.9709 1102.86 33.1607 Q1099.46 32.3505 1095.81 32.3505 Q1090.26 32.3505 1087.47 34.0519 Q1084.71 35.7533 1084.71 39.156 Q1084.71 41.7486 1086.7 43.2475 Q1088.68 44.7058 1094.68 46.0426 L1097.23 46.6097 Q1105.17 48.3111 1108.49 51.4303 Q1111.85 54.509 1111.85 60.0587 Q1111.85 66.3781 1106.83 70.0644 Q1101.85 73.7508 1093.1 73.7508 Q1089.45 73.7508 1085.48 73.0216 Q1081.55 72.3329 1077.18 70.9151 L1077.18 63.2184 Q1081.31 65.3654 1085.32 66.4591 Q1089.33 67.5124 1093.26 67.5124 Q1098.53 67.5124 1101.36 65.73 Q1104.2 63.9071 1104.2 60.6258 Q1104.2 57.5877 1102.13 55.9673 Q1100.11 54.3469 1093.18 52.8481 L1090.59 52.2405 Q1083.66 50.7821 1080.58 47.7845 Q1077.5 44.7463 1077.5 39.4801 Q1077.5 33.0797 1082.04 29.5959 Q1086.58 26.1121 1094.92 26.1121 Q1099.05 26.1121 1102.7 26.7198 Q1106.35 27.3274 1109.42 28.5427 Z" fill="#000000" fill-rule="nonzero" fill-opacity="1" /><path clip-path="url(#clip300)" d="M1159.05 35.9153 Q1161.84 30.8922 1165.73 28.5022 Q1169.62 26.1121 1174.89 26.1121 Q1181.98 26.1121 1185.82 31.0947 Q1189.67 36.0368 1189.67 45.1919 L1189.67 72.576 L1182.18 72.576 L1182.18 45.4349 Q1182.18 38.913 1179.87 35.7533 Q1177.56 32.5936 1172.82 32.5936 Q1167.03 32.5936 1163.67 36.4419 Q1160.3 40.2903 1160.3 46.9338 L1160.3 72.576 L1152.81 72.576 L1152.81 45.4349 Q1152.81 38.8725 1150.5 35.7533 Q1148.19 32.5936 1143.37 32.5936 Q1137.66 32.5936 1134.3 36.4824 Q1130.93 40.3308 1130.93 46.9338 L1130.93 72.576 L1123.44 72.576 L1123.44 27.2059 L1130.93 27.2059 L1130.93 34.2544 Q1133.49 30.082 1137.05 28.0971 Q1140.62 26.1121 1145.52 26.1121 Q1150.46 26.1121 1153.9 28.6237 Q1157.39 31.1352 1159.05 35.9153 Z" fill="#000000" fill-rule="nonzero" fill-opacity="1" /><path clip-path="url(#clip300)" d="M1222.12 32.4315 Q1216.12 32.4315 1212.64 37.1306 Q1209.16 41.7891 1209.16 49.9314 Q1209.16 58.0738 1212.6 62.7728 Q1216.08 67.4314 1222.12 67.4314 Q1228.07 67.4314 1231.56 62.7323 Q1235.04 58.0333 1235.04 49.9314 Q1235.04 41.8701 1231.56 37.1711 Q1228.07 32.4315 1222.12 32.4315 M1222.12 26.1121 Q1231.84 26.1121 1237.39 32.4315 Q1242.94 38.7509 1242.94 49.9314 Q1242.94 61.0714 1237.39 67.4314 Q1231.84 73.7508 1222.12 73.7508 Q1212.36 73.7508 1206.81 67.4314 Q1201.3 61.0714 1201.3 49.9314 Q1201.3 38.7509 1206.81 32.4315 Q1212.36 26.1121 1222.12 26.1121 Z" fill="#000000" fill-rule="nonzero" fill-opacity="1" /><path clip-path="url(#clip300)" d="M1272.88 32.4315 Q1266.88 32.4315 1263.4 37.1306 Q1259.91 41.7891 1259.91 49.9314 Q1259.91 58.0738 1263.36 62.7728 Q1266.84 67.4314 1272.88 67.4314 Q1278.83 67.4314 1282.32 62.7323 Q1285.8 58.0333 1285.8 49.9314 Q1285.8 41.8701 1282.32 37.1711 Q1278.83 32.4315 1272.88 32.4315 M1272.88 26.1121 Q1282.6 26.1121 1288.15 32.4315 Q1293.7 38.7509 1293.7 49.9314 Q1293.7 61.0714 1288.15 67.4314 Q1282.6 73.7508 1272.88 73.7508 Q1263.12 73.7508 1257.57 67.4314 Q1252.06 61.0714 1252.06 49.9314 Q1252.06 38.7509 1257.57 32.4315 Q1263.12 26.1121 1272.88 26.1121 Z" fill="#000000" fill-rule="nonzero" fill-opacity="1" /><path clip-path="url(#clip300)" d="M1313.43 14.324 L1313.43 27.2059 L1328.78 27.2059 L1328.78 32.9987 L1313.43 32.9987 L1313.43 57.6282 Q1313.43 63.1779 1314.93 64.7578 Q1316.47 66.3376 1321.12 66.3376 L1328.78 66.3376 L1328.78 72.576 L1321.12 72.576 Q1312.5 72.576 1309.21 69.3758 Q1305.93 66.1351 1305.93 57.6282 L1305.93 32.9987 L1300.46 32.9987 L1300.46 27.2059 L1305.93 27.2059 L1305.93 14.324 L1313.43 14.324 Z" fill="#000000" fill-rule="nonzero" fill-opacity="1" /><path clip-path="url(#clip300)" d="M1376.3 45.1919 L1376.3 72.576 L1368.84 72.576 L1368.84 45.4349 Q1368.84 38.994 1366.33 35.7938 Q1363.82 32.5936 1358.8 32.5936 Q1352.76 32.5936 1349.28 36.4419 Q1345.79 40.2903 1345.79 46.9338 L1345.79 72.576 L1338.3 72.576 L1338.3 9.54393 L1345.79 9.54393 L1345.79 34.2544 Q1348.47 30.163 1352.07 28.1376 Q1355.72 26.1121 1360.46 26.1121 Q1368.28 26.1121 1372.29 30.9732 Q1376.3 35.7938 1376.3 45.1919 Z" fill="#000000" fill-rule="nonzero" fill-opacity="1" /><path clip-path="url(#clip300)" d="M1435.12 32.4315 Q1429.12 32.4315 1425.64 37.1306 Q1422.15 41.7891 1422.15 49.9314 Q1422.15 58.0738 1425.6 62.7728 Q1429.08 67.4314 1435.12 67.4314 Q1441.07 67.4314 1444.56 62.7323 Q1448.04 58.0333 1448.04 49.9314 Q1448.04 41.8701 1444.56 37.1711 Q1441.07 32.4315 1435.12 32.4315 M1435.12 26.1121 Q1444.84 26.1121 1450.39 32.4315 Q1455.94 38.7509 1455.94 49.9314 Q1455.94 61.0714 1450.39 67.4314 Q1444.84 73.7508 1435.12 73.7508 Q1425.35 73.7508 1419.8 67.4314 Q1414.29 61.0714 1414.29 49.9314 Q1414.29 38.7509 1419.8 32.4315 Q1425.35 26.1121 1435.12 26.1121 Z" fill="#000000" fill-rule="nonzero" fill-opacity="1" /><path clip-path="url(#clip300)" d="M1506.01 45.1919 L1506.01 72.576 L1498.55 72.576 L1498.55 45.4349 Q1498.55 38.994 1496.04 35.7938 Q1493.53 32.5936 1488.51 32.5936 Q1482.47 32.5936 1478.99 36.4419 Q1475.5 40.2903 1475.5 46.9338 L1475.5 72.576 L1468.01 72.576 L1468.01 27.2059 L1475.5 27.2059 L1475.5 34.2544 Q1478.18 30.163 1481.78 28.1376 Q1485.43 26.1121 1490.17 26.1121 Q1497.99 26.1121 1502 30.9732 Q1506.01 35.7938 1506.01 45.1919 Z" fill="#000000" fill-rule="nonzero" fill-opacity="1" /><path clip-path="url(#clip300)" d="M1547.25 9.54393 L1554.7 9.54393 L1554.7 72.576 L1547.25 72.576 L1547.25 9.54393 Z" fill="#000000" fill-rule="nonzero" fill-opacity="1" /><path clip-path="url(#clip300)" d="M1570.3 27.2059 L1577.75 27.2059 L1577.75 72.576 L1570.3 72.576 L1570.3 27.2059 M1570.3 9.54393 L1577.75 9.54393 L1577.75 18.9825 L1570.3 18.9825 L1570.3 9.54393 Z" fill="#000000" fill-rule="nonzero" fill-opacity="1" /><path clip-path="url(#clip300)" d="M1631.06 45.1919 L1631.06 72.576 L1623.61 72.576 L1623.61 45.4349 Q1623.61 38.994 1621.09 35.7938 Q1618.58 32.5936 1613.56 32.5936 Q1607.52 32.5936 1604.04 36.4419 Q1600.56 40.2903 1600.56 46.9338 L1600.56 72.576 L1593.06 72.576 L1593.06 27.2059 L1600.56 27.2059 L1600.56 34.2544 Q1603.23 30.163 1606.83 28.1376 Q1610.48 26.1121 1615.22 26.1121 Q1623.04 26.1121 1627.05 30.9732 Q1631.06 35.7938 1631.06 45.1919 Z" fill="#000000" fill-rule="nonzero" fill-opacity="1" /><path clip-path="url(#clip300)" d="M1645.64 9.54393 L1653.14 9.54393 L1653.14 46.7717 L1675.38 27.2059 L1684.9 27.2059 L1660.83 48.4326 L1685.91 72.576 L1676.19 72.576 L1653.14 50.4176 L1653.14 72.576 L1645.64 72.576 L1645.64 9.54393 Z" fill="#000000" fill-rule="nonzero" fill-opacity="1" /><path clip-path="url(#clip300)" d="M1749.26 28.5427 L1749.26 35.5912 Q1746.1 33.9709 1742.7 33.1607 Q1739.3 32.3505 1735.65 32.3505 Q1730.1 32.3505 1727.31 34.0519 Q1724.55 35.7533 1724.55 39.156 Q1724.55 41.7486 1726.54 43.2475 Q1728.52 44.7058 1734.52 46.0426 L1737.07 46.6097 Q1745.01 48.3111 1748.33 51.4303 Q1751.69 54.509 1751.69 60.0587 Q1751.69 66.3781 1746.67 70.0644 Q1741.69 73.7508 1732.94 73.7508 Q1729.29 73.7508 1725.32 73.0216 Q1721.39 72.3329 1717.02 70.9151 L1717.02 63.2184 Q1721.15 65.3654 1725.16 66.4591 Q1729.17 67.5124 1733.1 67.5124 Q1738.37 67.5124 1741.2 65.73 Q1744.04 63.9071 1744.04 60.6258 Q1744.04 57.5877 1741.97 55.9673 Q1739.95 54.3469 1733.02 52.8481 L1730.43 52.2405 Q1723.5 50.7821 1720.42 47.7845 Q1717.34 44.7463 1717.34 39.4801 Q1717.34 33.0797 1721.88 29.5959 Q1726.42 26.1121 1734.76 26.1121 Q1738.89 26.1121 1742.54 26.7198 Q1746.19 27.3274 1749.26 28.5427 Z" fill="#000000" fill-rule="nonzero" fill-opacity="1" /><path clip-path="url(#clip300)" d="M1796.21 28.9478 L1796.21 35.9153 Q1793.05 34.1734 1789.85 33.3227 Q1786.69 32.4315 1783.45 32.4315 Q1776.2 32.4315 1772.19 37.0496 Q1768.18 41.6271 1768.18 49.9314 Q1768.18 58.2358 1772.19 62.8538 Q1776.2 67.4314 1783.45 67.4314 Q1786.69 67.4314 1789.85 66.5807 Q1793.05 65.6895 1796.21 63.9476 L1796.21 70.8341 Q1793.09 72.2924 1789.73 73.0216 Q1786.41 73.7508 1782.64 73.7508 Q1772.39 73.7508 1766.36 67.3098 Q1760.32 60.8689 1760.32 49.9314 Q1760.32 38.832 1766.4 32.472 Q1772.52 26.1121 1783.13 26.1121 Q1786.57 26.1121 1789.85 26.8413 Q1793.14 27.5299 1796.21 28.9478 Z" fill="#000000" fill-rule="nonzero" fill-opacity="1" /><path clip-path="url(#clip300)" d="M1829.8 49.7694 Q1820.76 49.7694 1817.28 51.8354 Q1813.79 53.9013 1813.79 58.8839 Q1813.79 62.8538 1816.39 65.2034 Q1819.02 67.5124 1823.52 67.5124 Q1829.72 67.5124 1833.44 63.1374 Q1837.21 58.7219 1837.21 51.4303 L1837.21 49.7694 L1829.8 49.7694 M1844.66 46.6907 L1844.66 72.576 L1837.21 72.576 L1837.21 65.6895 Q1834.66 69.8214 1830.85 71.8063 Q1827.04 73.7508 1821.53 73.7508 Q1814.56 73.7508 1810.43 69.8619 Q1806.34 65.9325 1806.34 59.3701 Q1806.34 51.7138 1811.45 47.825 Q1816.59 43.9361 1826.76 43.9361 L1837.21 43.9361 L1837.21 43.2069 Q1837.21 38.0623 1833.81 35.2672 Q1830.44 32.4315 1824.33 32.4315 Q1820.44 32.4315 1816.75 33.3632 Q1813.07 34.295 1809.66 36.1584 L1809.66 29.2718 Q1813.75 27.692 1817.6 26.9223 Q1821.45 26.1121 1825.1 26.1121 Q1834.94 26.1121 1839.8 31.2163 Q1844.66 36.3204 1844.66 46.6907 Z" fill="#000000" fill-rule="nonzero" fill-opacity="1" /><path clip-path="url(#clip300)" d="M1860.02 9.54393 L1867.47 9.54393 L1867.47 72.576 L1860.02 72.576 L1860.02 9.54393 Z" fill="#000000" fill-rule="nonzero" fill-opacity="1" /><path clip-path="url(#clip300)" d="M1921.87 48.0275 L1921.87 51.6733 L1887.6 51.6733 Q1888.09 59.3701 1892.22 63.421 Q1896.39 67.4314 1903.81 67.4314 Q1908.1 67.4314 1912.11 66.3781 Q1916.16 65.3249 1920.13 63.2184 L1920.13 70.267 Q1916.12 71.9684 1911.91 72.8596 Q1907.69 73.7508 1903.36 73.7508 Q1892.5 73.7508 1886.14 67.4314 Q1879.82 61.1119 1879.82 50.3365 Q1879.82 39.1965 1885.82 32.6746 Q1891.86 26.1121 1902.06 26.1121 Q1911.22 26.1121 1916.53 32.0264 Q1921.87 37.9003 1921.87 48.0275 M1914.42 45.84 Q1914.34 39.7232 1910.98 36.0774 Q1907.65 32.4315 1902.15 32.4315 Q1895.91 32.4315 1892.14 35.9558 Q1888.41 39.4801 1887.85 45.8805 L1914.42 45.84 Z" fill="#000000" fill-rule="nonzero" fill-opacity="1" /><path clip-path="url(#clip301)" d="M303.464 840.653 L312.057 820.275 L320.65 800.303 L329.243 780.817 L337.836 761.894 L346.428 743.605 L355.021 726.01 L363.614 709.155 L372.207 693.069 L380.8 677.76 L389.393 663.211 L397.986 649.383 L406.579 636.217 L415.172 623.633 L423.765 611.545 L432.358 599.865 L440.951 588.537 L449.544 577.564 L458.136 566.965 L466.729 556.761 L475.322 546.966 L483.915 537.583 L492.508 528.595 L501.101 519.968 L509.694 511.65 L518.287 503.574 L526.88 495.666 L535.473 487.853 L544.066 480.072 L552.659 472.291 L561.252 464.558 L569.845 456.96 L578.437 449.58 L587.03 442.489 L595.623 435.735 L604.216 429.339 L612.809 423.293 L621.402 417.561 L629.995 412.089 L638.588 406.813 L647.181 401.679 L655.774 396.701 L664.367 391.946 L672.96 387.491 L681.553 383.404 L690.145 379.738 L698.738 376.523 L707.331 373.758 L715.924 371.417 L724.517 369.447 L733.11 367.78 L741.703 366.338 L750.296 365.054 L758.889 363.93 L767.482 363.028 L776.075 362.421 L784.668 362.181 L793.261 362.378 L801.854 363.064 L810.446 364.278 L819.039 366.033 L827.632 368.324 L836.225 371.125 L844.818 374.395 L853.411 378.084 L862.004 382.137 L870.597 386.506 L879.19 391.175 L887.783 396.183 L896.376 401.587 L904.969 407.441 L913.562 413.799 L922.154 420.701 L930.747 428.17 L939.34 436.21 L947.933 444.805 L956.526 453.917 L965.119 463.491 L973.712 473.455 L982.305 483.729 L990.898 494.228 L999.491 504.869 L1008.08 515.617 L1016.68 526.475 L1025.27 537.464 L1033.86 548.61 L1042.46 559.945 L1051.05 571.499 L1059.64 583.301 L1068.23 595.375 L1076.83 607.738 L1085.42 620.395 L1094.01 633.344 L1102.61 646.569 L1111.2 660.044 L1119.79 673.733 L1128.38 687.589 L1136.98 701.56 L1145.57 715.588 L1154.16 729.616 L1162.76 743.586 L1171.35 757.446 L1179.94 771.156 L1188.54 784.703 L1197.13 798.121 L1205.72 811.452 L1214.31 824.737 L1222.91 838.01 L1231.5 851.29 L1240.09 864.583 L1248.69 877.876 L1257.28 891.134 L1265.87 904.307 L1274.46 917.323 L1283.06 930.103 L1291.65 942.556 L1300.24 954.594 L1308.84 966.13 L1317.43 977.102 L1326.02 987.526 L1334.61 997.481 L1343.21 1007.05 L1351.8 1016.3 L1360.39 1025.28 L1368.99 1034.05 L1377.58 1042.59 L1386.17 1050.91 L1394.77 1058.94 L1403.36 1066.65 L1411.95 1073.96 L1420.54 1080.81 L1429.14 1087.14 L1437.73 1092.99 L1446.32 1098.42 L1454.92 1103.5 L1463.51 1108.3 L1472.1 1112.86 L1480.69 1117.22 L1489.29 1121.4 L1497.88 1125.36 L1506.47 1129.08 L1515.07 1132.5 L1523.66 1135.55 L1532.25 1138.16 L1540.85 1140.24 L1549.44 1141.8 L1558.03 1142.85 L1566.62 1143.46 L1575.22 1143.68 L1583.81 1143.56 L1592.4 1143.16 L1601 1142.52 L1609.59 1141.66 L1618.18 1140.58 L1626.77 1139.28 L1635.37 1137.74 L1643.96 1135.91 L1652.55 1133.74 L1661.15 1131.18 L1669.74 1128.17 L1678.33 1124.65 L1686.92 1120.58 L1695.52 1115.97 L1704.11 1110.89 L1712.7 1105.39 L1721.3 1099.54 L1729.89 1093.38 L1738.48 1086.98 L1747.08 1080.37 L1755.67 1073.56 L1764.26 1066.59 L1772.85 1059.43 L1781.45 1052.08 L1790.04 1044.51 L1798.63 1036.67 L1807.23 1028.54 L1815.82 1020.09 L1824.41 1011.28 L1833 1002.11 L1841.6 992.616 L1850.19 982.926 L1858.78 973.177 L1867.38 963.501 L1875.97 954.017 L1884.56 944.821 L1893.16 935.982 L1901.75 927.547 L1910.34 919.544 L1918.93 911.994 L1927.53 904.924 L1936.12 898.391 L1944.71 892.499 L1953.31 887.351 L1961.9 883.03 L1970.49 879.584 L1979.08 877.025 L1987.68 875.325 L1996.27 874.425 L2004.86 874.237 L2013.46 874.654 L2013.46 503.975 L2004.86 524.089 L1996.27 543.596 L1987.68 562.387 L1979.08 580.373 L1970.49 597.492 L1961.9 613.715 L1953.31 629.05 L1944.71 643.545 L1936.12 657.281 L1927.53 670.359 L1918.93 682.878 L1910.34 694.868 L1901.75 706.323 L1893.16 717.228 L1884.56 727.577 L1875.97 737.381 L1867.38 746.676 L1858.78 755.522 L1850.19 764.003 L1841.6 772.217 L1833 780.269 L1824.41 788.249 L1815.82 796.177 L1807.23 804.033 L1798.63 811.779 L1790.04 819.368 L1781.45 826.748 L1772.85 833.873 L1764.26 840.7 L1755.67 847.198 L1747.08 853.351 L1738.48 859.155 L1729.89 864.621 L1721.3 869.774 L1712.7 874.65 L1704.11 879.291 L1695.52 883.745 L1686.92 888.059 L1678.33 892.273 L1669.74 896.396 L1661.15 900.38 L1652.55 904.164 L1643.96 907.685 L1635.37 910.881 L1626.77 913.697 L1618.18 916.089 L1609.59 918.027 L1601 919.498 L1592.4 920.505 L1583.81 921.069 L1575.22 921.224 L1566.62 921.014 L1558.03 920.491 L1549.44 919.708 L1540.85 918.712 L1532.25 917.536 L1523.66 916.158 L1515.07 914.505 L1506.47 912.501 L1497.88 910.073 L1489.29 907.163 L1480.69 903.733 L1472.1 899.766 L1463.51 895.27 L1454.92 890.276 L1446.32 884.833 L1437.73 879.004 L1429.14 872.856 L1420.54 866.451 L1411.95 859.817 L1403.36 852.905 L1394.77 845.642 L1386.17 837.955 L1377.58 829.782 L1368.99 821.078 L1360.39 811.821 L1351.8 802.017 L1343.21 791.694 L1334.61 780.905 L1326.02 769.716 L1317.43 758.204 L1308.84 746.442 L1300.24 734.468 L1291.65 722.271 L1283.06 709.824 L1274.46 697.091 L1265.87 684.041 L1257.28 670.646 L1248.69 656.894 L1240.09 642.789 L1231.5 628.353 L1222.91 613.628 L1214.31 598.676 L1205.72 583.573 L1197.13 568.408 L1188.54 553.278 L1179.94 538.282 L1171.35 523.507 L1162.76 508.976 L1154.16 494.68 L1145.57 480.597 L1136.98 466.701 L1128.38 452.962 L1119.79 439.354 L1111.2 425.854 L1102.61 412.447 L1094.01 399.126 L1085.42 385.894 L1076.83 372.768 L1068.23 359.773 L1059.64 346.947 L1051.05 334.335 L1042.46 321.992 L1033.86 309.976 L1025.27 298.35 L1016.68 287.173 L1008.08 276.504 L999.491 266.39 L990.898 256.869 L982.305 247.926 L973.712 239.495 L965.119 231.506 L956.526 223.893 L947.933 216.6 L939.34 209.587 L930.747 202.831 L922.154 196.331 L913.562 190.106 L904.969 184.194 L896.376 178.651 L887.783 173.544 L879.19 168.945 L870.597 164.924 L862.004 161.532 L853.411 158.744 L844.818 156.492 L836.225 154.699 L827.632 153.293 L819.039 152.213 L810.446 151.412 L801.854 150.863 L793.261 150.56 L784.668 150.518 L776.075 150.77 L767.482 151.363 L758.889 152.351 L750.296 153.784 L741.703 155.702 L733.11 158.092 L724.517 160.874 L715.924 163.961 L707.331 167.273 L698.738 170.746 L690.145 174.344 L681.553 178.056 L672.96 181.9 L664.367 185.918 L655.774 190.168 L647.181 194.717 L638.588 199.62 L629.995 204.881 L621.402 210.432 L612.809 216.198 L604.216 222.113 L595.623 228.13 L587.03 234.227 L578.437 240.414 L569.845 246.726 L561.252 253.222 L552.659 259.974 L544.066 267.055 L535.473 274.5 L526.88 282.248 L518.287 290.21 L509.694 298.285 L501.101 306.37 L492.508 314.373 L483.915 322.213 L475.322 329.827 L466.729 337.173 L458.136 344.224 L449.544 350.967 L440.951 357.396 L432.358 363.503 L423.765 369.264 L415.172 374.615 L406.579 379.468 L397.986 383.737 L389.393 387.344 L380.8 390.228 L372.207 392.35 L363.614 393.695 L355.021 394.27 L346.428 394.104 L337.836 393.244 L329.243 391.749 L320.65 389.69 L312.057 387.145 L303.464 384.194  Z" fill="#009af9" fill-rule="evenodd" fill-opacity="0.2"/>
<polyline clip-path="url(#clip301)" style="stroke:#009af9; stroke-linecap:round; stroke-linejoin:round; stroke-width:8; stroke-opacity:1; fill:none" points="303.464,612.424 312.057,603.71 320.65,594.996 329.243,586.283 337.836,577.569 346.428,568.855 355.021,560.14 363.614,551.425 372.207,542.71 380.8,533.994 389.393,525.277 397.986,516.56 406.579,507.842 415.172,499.124 423.765,490.404 432.358,481.684 440.951,472.967 449.544,464.266 458.136,455.594 466.729,446.967 475.322,438.397 483.915,429.898 492.508,421.484 501.101,413.169 509.694,404.967 518.287,396.892 526.88,388.957 535.473,381.176 544.066,373.564 552.659,366.132 561.252,358.89 569.845,351.843 578.437,344.997 587.03,338.358 595.623,331.932 604.216,325.726 612.809,319.746 621.402,313.996 629.995,308.485 638.588,303.217 647.181,298.198 655.774,293.435 664.367,288.932 672.96,284.695 681.553,280.73 690.145,277.041 698.738,273.635 707.331,270.515 715.924,267.689 724.517,265.161 733.11,262.936 741.703,261.02 750.296,259.419 758.889,258.141 767.482,257.196 776.075,256.595 784.668,256.349 793.261,256.469 801.854,256.964 810.446,257.845 819.039,259.123 827.632,260.808 836.225,262.912 844.818,265.443 853.411,268.414 862.004,271.834 870.597,275.715 879.19,280.06 887.783,284.864 896.376,290.119 904.969,295.818 913.562,301.953 922.154,308.516 930.747,315.5 939.34,322.898 947.933,330.702 956.526,338.905 965.119,347.498 973.712,356.475 982.305,365.828 990.898,375.548 999.491,385.63 1008.08,396.06 1016.68,406.824 1025.27,417.907 1033.86,429.293 1042.46,440.968 1051.05,452.917 1059.64,465.124 1068.23,477.574 1076.83,490.253 1085.42,503.145 1094.01,516.235 1102.61,529.508 1111.2,542.949 1119.79,556.543 1128.38,570.275 1136.98,584.13 1145.57,598.093 1154.16,612.148 1162.76,626.281 1171.35,640.476 1179.94,654.719 1188.54,668.991 1197.13,683.265 1205.72,697.513 1214.31,711.707 1222.91,725.819 1231.5,739.821 1240.09,753.686 1248.69,767.385 1257.28,780.89 1265.87,794.174 1274.46,807.207 1283.06,819.963 1291.65,832.414 1300.24,844.531 1308.84,856.286 1317.43,867.653 1326.02,878.621 1334.61,889.193 1343.21,899.37 1351.8,909.156 1360.39,918.553 1368.99,927.562 1377.58,936.187 1386.17,944.43 1394.77,952.294 1403.36,959.779 1411.95,966.89 1420.54,973.629 1429.14,979.997 1437.73,985.995 1446.32,991.626 1454.92,996.888 1463.51,1001.78 1472.1,1006.31 1480.69,1010.48 1489.29,1014.28 1497.88,1017.72 1506.47,1020.79 1515.07,1023.5 1523.66,1025.85 1532.25,1027.85 1540.85,1029.48 1549.44,1030.75 1558.03,1031.67 1566.62,1032.24 1575.22,1032.45 1583.81,1032.32 1592.4,1031.83 1601,1031.01 1609.59,1029.84 1618.18,1028.33 1626.77,1026.49 1635.37,1024.31 1643.96,1021.8 1652.55,1018.95 1661.15,1015.78 1669.74,1012.28 1678.33,1008.46 1686.92,1004.32 1695.52,999.859 1704.11,995.091 1712.7,990.021 1721.3,984.656 1729.89,979.002 1738.48,973.068 1747.08,966.858 1755.67,960.382 1764.26,953.644 1772.85,946.653 1781.45,939.415 1790.04,931.937 1798.63,924.226 1807.23,916.288 1815.82,908.131 1824.41,899.762 1833,891.187 1841.6,882.416 1850.19,873.464 1858.78,864.349 1867.38,855.088 1875.97,845.699 1884.56,836.199 1893.16,826.605 1901.75,816.935 1910.34,807.206 1918.93,797.436 1927.53,787.642 1936.12,777.836 1944.71,768.022 1953.31,758.2 1961.9,748.372 1970.49,738.538 1979.08,728.699 1987.68,718.856 1996.27,709.01 2004.86,699.163 2013.46,689.314 "/>
<polyline clip-path="url(#clip301)" style="stroke:#ff0000; stroke-linecap:round; stroke-linejoin:round; stroke-width:8; stroke-opacity:1; fill:none" stroke-dasharray="32, 20" points="303.464,645.728 304.287,644.495 319.453,621.794 329.815,606.326 348.472,578.638 353.956,570.555 365.576,553.536 367.338,550.97 371.134,545.455 375.025,539.82 382.309,529.336 382.416,529.183 385.307,525.044 390.164,518.123 396.983,508.477 398.131,506.862 402.997,500.041 403.238,499.705 405.799,496.134 413.924,484.9 416.47,481.408 426.731,467.488 437.018,453.788 438.164,452.277 454.852,430.701 459.155,425.266 464.032,419.173 465.032,417.933 468.055,414.201 473.882,407.092 474.575,406.252 481.573,397.875 482.066,397.291 483.027,396.155 493.352,384.148 494.297,383.068 503.126,373.13 503.267,372.973 508.111,367.644 530.626,344.063 531.635,343.053 537.526,337.243 543.214,331.77 546.137,329.011 549.757,325.645 570.666,307.329 575.287,303.548 582.428,297.899 587.405,294.103 590.801,291.581 597.294,286.912 599.631,285.282 605.218,281.492 614.576,275.489 614.581,275.486 615.02,275.215 616.515,274.3 629.953,266.579 630.173,266.461 630.996,266.019 633.587,264.65 633.762,264.559 637.726,262.536 639.878,261.471 641.617,260.628 643.355,259.802 643.566,259.702 649.242,257.119 655.219,254.582 659.075,253.046 661.151,252.251 664.145,251.146 679.396,246.258 686.393,244.434 696.429,242.283 702.778,241.205 704.058,241.014 708.059,240.476 710.271,240.216 714.663,239.78 715.102,239.742 729.858,239.086 733.005,239.101 733.231,239.104 740.684,239.365 744.577,239.623 744.725,239.635 745.284,239.679 753.1,240.478 757.972,241.145 764.777,242.294 764.835,242.305 776.905,244.967 782.39,246.437 785.157,247.241 796.396,250.927 819.543,260.634 823.855,262.753 825.347,263.508 830.759,266.345 834.739,268.527 842.621,273.086 844.447,274.187 852.192,279.042 853.355,279.797 865.136,287.818 866.733,288.958 869.026,290.615 878.053,297.384 879.605,298.587 889.832,306.792 893.555,309.899 897.639,313.379 900.199,315.599 902.287,317.432 902.62,317.725 904.417,319.32 933.854,347.426 935.045,348.639 940.195,353.95 942.484,356.344 944.473,358.441 963.214,378.94 968.676,385.157 971.578,388.504 974.694,392.13 980.387,398.84 988.215,408.242 991.379,412.099 1013.41,439.803 1013.94,440.487 1017.21,444.732 1026.55,456.985 1026.74,457.241 1045.68,482.784 1051.69,491.061 1077.96,528.076 1099.62,559.448 1110.9,576.016 1116.98,585.009 1129.82,604.072 1133.1,608.967 1134.3,610.744 1155.84,642.964 1156.37,643.764 1158.91,647.567 1163.77,654.843 1165.8,657.882 1166.52,658.967 1178.19,676.43 1178.62,677.067 1185.03,686.626 1202.8,713.022 1205.2,716.567 1210.3,724.096 1211.1,725.269 1232.46,756.413 1235.53,760.839 1235.6,760.93 1236.88,762.783 1238.36,764.907 1242.45,770.756 1247.05,777.305 1262.25,798.692 1266.41,804.458 1272.68,813.094 1279.96,822.999 1296.34,844.826 1300.22,849.9 1302.09,852.331 1304.92,855.982 1313.36,866.749 1318.23,872.878 1325.1,881.387 1333.36,891.419 1337.08,895.875 1342.17,901.88 1357,918.883 1360.54,922.817 1364.05,926.686 1369.05,932.101 1372.13,935.398 1376.11,939.602 1380.25,943.895 1384.39,948.13 1390.18,953.936 1396.33,959.953 1402.58,965.906 1412.08,974.628 1413.8,976.166 1416.79,978.799 1417.27,979.226 1418.83,980.581 1429.57,989.634 1430.49,990.386 1431.32,991.066 1432.98,992.399 1436.5,995.202 1457.28,1010.52 1467.82,1017.49 1473.5,1021.02 1475.62,1022.3 1475.74,1022.37 1481.29,1025.6 1492.64,1031.71 1498.54,1034.62 1499.15,1034.91 1501.51,1036.02 1512.54,1040.81 1524.71,1045.35 1524.95,1045.43 1530.46,1047.22 1532.72,1047.9 1532.93,1047.97 1539.24,1049.73 1547.34,1051.68 1549.38,1052.11 1551.22,1052.48 1557.08,1053.55 1571.27,1055.34 1577.34,1055.77 1590.87,1056.01 1594.62,1055.89 1599.75,1055.61 1600.32,1055.57 1600.79,1055.54 1620.26,1053.05 1622.66,1052.6 1628.39,1051.4 1634.02,1050.05 1666.76,1038.8 1676.43,1034.39 1677.32,1033.96 1677.64,1033.8 1678.35,1033.45 1680.43,1032.42 1693.5,1025.42 1702.42,1020.14 1712.44,1013.74 1713.52,1013.02 1718.86,1009.38 1720.44,1008.27 1722.32,1006.95 1733.67,998.551 1736.88,996.07 1741.96,992.039 1748.26,986.874 1757.22,979.22 1763.39,973.739 1770.83,966.912 1778.95,959.187 1791.21,947.003 1806.96,930.472 1808.95,928.305 1813.47,923.35 1821.1,914.816 1830.81,903.651 1836.6,896.834 1837.11,896.222 1838.92,894.066 1848.22,882.819 1853.34,876.505 1855.33,874.037 1856.72,872.295 1858.51,870.057 1876.05,847.569 1884.13,836.941 1901.07,814.095 1904.5,809.397 1905.04,808.657 1906.06,807.248 1908.13,804.384 1912.53,798.287 1914.42,795.652 1916.15,793.229 1918.14,790.434 1918.37,790.111 1923.01,783.578 1927.63,777.036 1929.09,774.963 1939.07,760.678 1940.67,758.368 1943.23,754.672 1947.99,747.779 1958.09,733.052 1969.47,716.311 1976.7,705.614 1977.4,704.565 1978.02,703.657 1978.98,702.225 1979.48,701.49 1982.61,696.83 1982.71,696.686 1989.83,686.075 1993.69,680.314 1996.05,676.79 1997.27,674.976 2012.69,651.891 2013.09,651.301 2013.46,650.746 "/>
<path clip-path="url(#clip300)" d="M1578.87 311.335 L2004.34 311.335 L2004.34 155.815 L1578.87 155.815  Z" fill="#ffffff" fill-rule="evenodd" fill-opacity="1"/>
<polyline clip-path="url(#clip300)" style="stroke:#000000; stroke-linecap:round; stroke-linejoin:round; stroke-width:4; stroke-opacity:1; fill:none" points="1578.87,311.335 2004.34,311.335 2004.34,155.815 1578.87,155.815 1578.87,311.335 "/>
<polyline clip-path="url(#clip300)" style="stroke:#009af9; stroke-linecap:round; stroke-linejoin:round; stroke-width:8; stroke-opacity:1; fill:none" points="1599.01,207.655 1719.84,207.655 "/>
<path clip-path="url(#clip300)" d="M1758.41 199.773 L1758.41 203.8 Q1756.6 202.875 1754.66 202.412 Q1752.72 201.949 1750.63 201.949 Q1747.46 201.949 1745.86 202.921 Q1744.29 203.893 1744.29 205.838 Q1744.29 207.319 1745.42 208.175 Q1746.56 209.009 1749.98 209.773 L1751.44 210.097 Q1755.98 211.069 1757.88 212.851 Q1759.8 214.611 1759.8 217.782 Q1759.8 221.393 1756.93 223.499 Q1754.08 225.606 1749.08 225.606 Q1747 225.606 1744.73 225.189 Q1742.48 224.796 1739.98 223.986 L1739.98 219.587 Q1742.35 220.814 1744.64 221.439 Q1746.93 222.041 1749.17 222.041 Q1752.18 222.041 1753.8 221.023 Q1755.42 219.981 1755.42 218.106 Q1755.42 216.37 1754.24 215.444 Q1753.09 214.518 1749.13 213.662 L1747.65 213.314 Q1743.69 212.481 1741.93 210.768 Q1740.17 209.032 1740.17 206.023 Q1740.17 202.365 1742.76 200.375 Q1745.35 198.384 1750.12 198.384 Q1752.48 198.384 1754.57 198.731 Q1756.65 199.078 1758.41 199.773 Z" fill="#000000" fill-rule="nonzero" fill-opacity="1" /><path clip-path="url(#clip300)" d="M1776.81 188.963 Q1773.71 194.287 1772.21 199.495 Q1770.7 204.703 1770.7 210.05 Q1770.7 215.398 1772.21 220.652 Q1773.73 225.884 1776.81 231.185 L1773.11 231.185 Q1769.64 225.745 1767.9 220.49 Q1766.19 215.236 1766.19 210.05 Q1766.19 204.888 1767.9 199.657 Q1769.61 194.426 1773.11 188.963 L1776.81 188.963 Z" fill="#000000" fill-rule="nonzero" fill-opacity="1" /><path clip-path="url(#clip300)" d="M1806.63 199.009 L1797.25 211.625 L1807.11 224.935 L1802.09 224.935 L1794.54 214.749 L1787 224.935 L1781.98 224.935 L1792.04 211.37 L1782.83 199.009 L1787.85 199.009 L1794.73 208.245 L1801.6 199.009 L1806.63 199.009 Z" fill="#000000" fill-rule="nonzero" fill-opacity="1" /><path clip-path="url(#clip300)" d="M1812.46 188.963 L1816.16 188.963 Q1819.64 194.426 1821.35 199.657 Q1823.09 204.888 1823.09 210.05 Q1823.09 215.236 1821.35 220.49 Q1819.64 225.745 1816.16 231.185 L1812.46 231.185 Q1815.54 225.884 1817.04 220.652 Q1818.57 215.398 1818.57 210.05 Q1818.57 204.703 1817.04 199.495 Q1815.54 194.287 1812.46 188.963 Z" fill="#000000" fill-rule="nonzero" fill-opacity="1" /><path clip-path="url(#clip300)" d="M1864.03 195.213 L1864.03 204.171 L1876.93 204.171 L1876.93 208.106 L1864.03 208.106 L1864.03 217.064 L1860.15 217.064 L1860.15 208.106 L1847.25 208.106 L1847.25 204.171 L1860.15 204.171 L1860.15 195.213 L1864.03 195.213 M1847.25 220.999 L1876.93 220.999 L1876.93 224.935 L1847.25 224.935 L1847.25 220.999 Z" fill="#000000" fill-rule="nonzero" fill-opacity="1" /><path clip-path="url(#clip300)" d="M1906.12 220.999 L1922.44 220.999 L1922.44 224.935 L1900.49 224.935 L1900.49 220.999 Q1903.16 218.245 1907.74 213.615 Q1912.34 208.962 1913.53 207.62 Q1915.77 205.097 1916.65 203.361 Q1917.55 201.601 1917.55 199.912 Q1917.55 197.157 1915.61 195.421 Q1913.69 193.685 1910.59 193.685 Q1908.39 193.685 1905.93 194.449 Q1903.5 195.213 1900.72 196.763 L1900.72 192.041 Q1903.55 190.907 1906 190.328 Q1908.46 189.75 1910.49 189.75 Q1915.86 189.75 1919.06 192.435 Q1922.25 195.12 1922.25 199.611 Q1922.25 201.74 1921.44 203.662 Q1920.65 205.56 1918.55 208.152 Q1917.97 208.824 1914.87 212.041 Q1911.77 215.236 1906.12 220.999 Z" fill="#000000" fill-rule="nonzero" fill-opacity="1" /><path clip-path="url(#clip300)" d="M1952.55 191.509 L1952.55 196.069 Q1949.89 194.796 1947.53 194.171 Q1945.17 193.546 1942.97 193.546 Q1939.15 193.546 1937.07 195.027 Q1935.01 196.509 1935.01 199.24 Q1935.01 201.532 1936.37 202.713 Q1937.76 203.87 1941.6 204.588 L1944.43 205.166 Q1949.66 206.162 1952.14 208.685 Q1954.64 211.185 1954.64 215.398 Q1954.64 220.421 1951.26 223.013 Q1947.9 225.606 1941.4 225.606 Q1938.94 225.606 1936.16 225.05 Q1933.41 224.495 1930.45 223.407 L1930.45 218.592 Q1933.29 220.189 1936.03 220.999 Q1938.76 221.81 1941.4 221.81 Q1945.4 221.81 1947.58 220.236 Q1949.75 218.662 1949.75 215.745 Q1949.75 213.199 1948.18 211.763 Q1946.63 210.328 1943.06 209.611 L1940.22 209.055 Q1934.98 208.013 1932.65 205.791 Q1930.31 203.569 1930.31 199.611 Q1930.31 195.027 1933.53 192.389 Q1936.77 189.75 1942.44 189.75 Q1944.87 189.75 1947.39 190.189 Q1949.91 190.629 1952.55 191.509 Z" fill="#000000" fill-rule="nonzero" fill-opacity="1" /><path clip-path="url(#clip300)" d="M1961.93 190.375 L1983.78 190.375 L1983.78 194.31 L1966.6 194.31 L1966.6 204.541 L1983.06 204.541 L1983.06 208.476 L1966.6 208.476 L1966.6 220.999 L1984.2 220.999 L1984.2 224.935 L1961.93 224.935 L1961.93 190.375 Z" fill="#000000" fill-rule="nonzero" fill-opacity="1" /><polyline clip-path="url(#clip300)" style="stroke:#ff0000; stroke-linecap:round; stroke-linejoin:round; stroke-width:8; stroke-opacity:1; fill:none" stroke-dasharray="32, 20" points="1599.01,259.495 1719.84,259.495 "/>
<path clip-path="url(#clip300)" d="M1747.39 243.488 L1747.39 250.849 L1756.17 250.849 L1756.17 254.159 L1747.39 254.159 L1747.39 268.233 Q1747.39 271.404 1748.25 272.307 Q1749.13 273.21 1751.79 273.21 L1756.17 273.21 L1756.17 276.775 L1751.79 276.775 Q1746.86 276.775 1744.98 274.946 Q1743.11 273.094 1743.11 268.233 L1743.11 254.159 L1739.98 254.159 L1739.98 250.849 L1743.11 250.849 L1743.11 243.488 L1747.39 243.488 Z" fill="#000000" fill-rule="nonzero" fill-opacity="1" /><path clip-path="url(#clip300)" d="M1776.79 254.83 Q1776.07 254.414 1775.22 254.228 Q1774.38 254.02 1773.36 254.02 Q1769.75 254.02 1767.81 256.381 Q1765.89 258.719 1765.89 263.117 L1765.89 276.775 L1761.6 276.775 L1761.6 250.849 L1765.89 250.849 L1765.89 254.877 Q1767.23 252.515 1769.38 251.381 Q1771.54 250.224 1774.61 250.224 Q1775.05 250.224 1775.59 250.293 Q1776.12 250.34 1776.77 250.455 L1776.79 254.83 Z" fill="#000000" fill-rule="nonzero" fill-opacity="1" /><path clip-path="url(#clip300)" d="M1780.82 266.543 L1780.82 250.849 L1785.08 250.849 L1785.08 266.381 Q1785.08 270.062 1786.51 271.914 Q1787.95 273.742 1790.82 273.742 Q1794.27 273.742 1796.26 271.543 Q1798.27 269.344 1798.27 265.548 L1798.27 250.849 L1802.53 250.849 L1802.53 276.775 L1798.27 276.775 L1798.27 272.793 Q1796.72 275.154 1794.66 276.312 Q1792.62 277.446 1789.91 277.446 Q1785.45 277.446 1783.13 274.668 Q1780.82 271.89 1780.82 266.543 M1791.54 250.224 L1791.54 250.224 Z" fill="#000000" fill-rule="nonzero" fill-opacity="1" /><path clip-path="url(#clip300)" d="M1833.48 262.747 L1833.48 264.83 L1813.9 264.83 Q1814.17 269.228 1816.54 271.543 Q1818.92 273.835 1823.16 273.835 Q1825.61 273.835 1827.9 273.233 Q1830.22 272.631 1832.48 271.427 L1832.48 275.455 Q1830.19 276.427 1827.79 276.937 Q1825.38 277.446 1822.9 277.446 Q1816.7 277.446 1813.06 273.835 Q1809.45 270.224 1809.45 264.066 Q1809.45 257.701 1812.88 253.974 Q1816.33 250.224 1822.16 250.224 Q1827.39 250.224 1830.42 253.603 Q1833.48 256.96 1833.48 262.747 M1829.22 261.497 Q1829.17 258.002 1827.25 255.918 Q1825.35 253.835 1822.21 253.835 Q1818.64 253.835 1816.49 255.849 Q1814.36 257.863 1814.04 261.52 L1829.22 261.497 Z" fill="#000000" fill-rule="nonzero" fill-opacity="1" /><path clip-path="url(#clip300)" d="M1868.66 240.756 L1868.66 244.298 L1864.59 244.298 Q1862.3 244.298 1861.4 245.224 Q1860.52 246.15 1860.52 248.557 L1860.52 250.849 L1867.53 250.849 L1867.53 254.159 L1860.52 254.159 L1860.52 276.775 L1856.23 276.775 L1856.23 254.159 L1852.16 254.159 L1852.16 250.849 L1856.23 250.849 L1856.23 249.043 Q1856.23 244.715 1858.25 242.747 Q1860.26 240.756 1864.64 240.756 L1868.66 240.756 Z" fill="#000000" fill-rule="nonzero" fill-opacity="1" /><path clip-path="url(#clip300)" d="M1882.46 240.803 Q1879.36 246.127 1877.85 251.335 Q1876.35 256.543 1876.35 261.89 Q1876.35 267.238 1877.85 272.492 Q1879.38 277.724 1882.46 283.025 L1878.76 283.025 Q1875.28 277.585 1873.55 272.33 Q1871.84 267.076 1871.84 261.89 Q1871.84 256.728 1873.55 251.497 Q1875.26 246.266 1878.76 240.803 L1882.46 240.803 Z" fill="#000000" fill-rule="nonzero" fill-opacity="1" /><path clip-path="url(#clip300)" d="M1912.28 250.849 L1902.9 263.465 L1912.76 276.775 L1907.74 276.775 L1900.19 266.589 L1892.65 276.775 L1887.62 276.775 L1897.69 263.21 L1888.48 250.849 L1893.5 250.849 L1900.38 260.085 L1907.25 250.849 L1912.28 250.849 Z" fill="#000000" fill-rule="nonzero" fill-opacity="1" /><path clip-path="url(#clip300)" d="M1918.11 240.803 L1921.81 240.803 Q1925.28 246.266 1927 251.497 Q1928.73 256.728 1928.73 261.89 Q1928.73 267.076 1927 272.33 Q1925.28 277.585 1921.81 283.025 L1918.11 283.025 Q1921.19 277.724 1922.69 272.492 Q1924.22 267.238 1924.22 261.89 Q1924.22 256.543 1922.69 251.335 Q1921.19 246.127 1918.11 240.803 Z" fill="#000000" fill-rule="nonzero" fill-opacity="1" /></svg>
