<?xml version="1.0" encoding="utf-8"?>
<svg xmlns="http://www.w3.org/2000/svg" xmlns:xlink="http://www.w3.org/1999/xlink" width="600" height="400" viewBox="0 0 2400 1600">
<defs>
  <clipPath id="clip590">
    <rect x="0" y="0" width="2400" height="1600"/>
  </clipPath>
</defs>
<path clip-path="url(#clip590)" d="M0 1600 L2400 1600 L2400 8.88178e-14 L0 8.88178e-14  Z" fill="#ffffff" fill-rule="evenodd" fill-opacity="1"/>
<defs>
  <clipPath id="clip591">
    <rect x="367" y="123" width="1986" height="1301"/>
  </clipPath>
</defs>
<path clip-path="url(#clip590)" d="M367.296 1423.18 L2352.76 1423.18 L2352.76 123.472 L367.296 123.472  Z" fill="#ffffff" fill-rule="evenodd" fill-opacity="1"/>
<polyline clip-path="url(#clip591)" style="stroke:#000000; stroke-linecap:round; stroke-linejoin:round; stroke-width:2; stroke-opacity:0.1; fill:none" points="422.787,1423.18 422.787,123.472 "/>
<polyline clip-path="url(#clip591)" style="stroke:#000000; stroke-linecap:round; stroke-linejoin:round; stroke-width:2; stroke-opacity:0.1; fill:none" points="891.586,1423.18 891.586,123.472 "/>
<polyline clip-path="url(#clip591)" style="stroke:#000000; stroke-linecap:round; stroke-linejoin:round; stroke-width:2; stroke-opacity:0.1; fill:none" points="1360.39,1423.18 1360.39,123.472 "/>
<polyline clip-path="url(#clip591)" style="stroke:#000000; stroke-linecap:round; stroke-linejoin:round; stroke-width:2; stroke-opacity:0.1; fill:none" points="1829.19,1423.18 1829.19,123.472 "/>
<polyline clip-path="url(#clip591)" style="stroke:#000000; stroke-linecap:round; stroke-linejoin:round; stroke-width:2; stroke-opacity:0.1; fill:none" points="2297.98,1423.18 2297.98,123.472 "/>
<polyline clip-path="url(#clip591)" style="stroke:#000000; stroke-linecap:round; stroke-linejoin:round; stroke-width:2; stroke-opacity:0.1; fill:none" points="367.296,1289.49 2352.76,1289.49 "/>
<polyline clip-path="url(#clip591)" style="stroke:#000000; stroke-linecap:round; stroke-linejoin:round; stroke-width:2; stroke-opacity:0.1; fill:none" points="367.296,1002.2 2352.76,1002.2 "/>
<polyline clip-path="url(#clip591)" style="stroke:#000000; stroke-linecap:round; stroke-linejoin:round; stroke-width:2; stroke-opacity:0.1; fill:none" points="367.296,714.904 2352.76,714.904 "/>
<polyline clip-path="url(#clip591)" style="stroke:#000000; stroke-linecap:round; stroke-linejoin:round; stroke-width:2; stroke-opacity:0.1; fill:none" points="367.296,427.612 2352.76,427.612 "/>
<polyline clip-path="url(#clip591)" style="stroke:#000000; stroke-linecap:round; stroke-linejoin:round; stroke-width:2; stroke-opacity:0.1; fill:none" points="367.296,140.319 2352.76,140.319 "/>
<polyline clip-path="url(#clip590)" style="stroke:#000000; stroke-linecap:round; stroke-linejoin:round; stroke-width:4; stroke-opacity:1; fill:none" points="367.296,1423.18 2352.76,1423.18 "/>
<polyline clip-path="url(#clip590)" style="stroke:#000000; stroke-linecap:round; stroke-linejoin:round; stroke-width:4; stroke-opacity:1; fill:none" points="422.787,1423.18 422.787,1404.28 "/>
<polyline clip-path="url(#clip590)" style="stroke:#000000; stroke-linecap:round; stroke-linejoin:round; stroke-width:4; stroke-opacity:1; fill:none" points="891.586,1423.18 891.586,1404.28 "/>
<polyline clip-path="url(#clip590)" style="stroke:#000000; stroke-linecap:round; stroke-linejoin:round; stroke-width:4; stroke-opacity:1; fill:none" points="1360.39,1423.18 1360.39,1404.28 "/>
<polyline clip-path="url(#clip590)" style="stroke:#000000; stroke-linecap:round; stroke-linejoin:round; stroke-width:4; stroke-opacity:1; fill:none" points="1829.19,1423.18 1829.19,1404.28 "/>
<polyline clip-path="url(#clip590)" style="stroke:#000000; stroke-linecap:round; stroke-linejoin:round; stroke-width:4; stroke-opacity:1; fill:none" points="2297.98,1423.18 2297.98,1404.28 "/>
<path clip-path="url(#clip590)" d="M385.09 1454.1 Q381.479 1454.1 379.65 1457.66 Q377.845 1461.2 377.845 1468.33 Q377.845 1475.44 379.65 1479.01 Q381.479 1482.55 385.09 1482.55 Q388.724 1482.55 390.53 1479.01 Q392.359 1475.44 392.359 1468.33 Q392.359 1461.2 390.53 1457.66 Q388.724 1454.1 385.09 1454.1 M385.09 1450.39 Q390.9 1450.39 393.956 1455 Q397.035 1459.58 397.035 1468.33 Q397.035 1477.06 393.956 1481.67 Q390.9 1486.25 385.09 1486.25 Q379.28 1486.25 376.201 1481.67 Q373.146 1477.06 373.146 1468.33 Q373.146 1459.58 376.201 1455 Q379.28 1450.39 385.09 1450.39 Z" fill="#000000" fill-rule="nonzero" fill-opacity="1" /><path clip-path="url(#clip590)" d="M405.252 1479.7 L410.136 1479.7 L410.136 1485.58 L405.252 1485.58 L405.252 1479.7 Z" fill="#000000" fill-rule="nonzero" fill-opacity="1" /><path clip-path="url(#clip590)" d="M430.321 1454.1 Q426.71 1454.1 424.882 1457.66 Q423.076 1461.2 423.076 1468.33 Q423.076 1475.44 424.882 1479.01 Q426.71 1482.55 430.321 1482.55 Q433.956 1482.55 435.761 1479.01 Q437.59 1475.44 437.59 1468.33 Q437.59 1461.2 435.761 1457.66 Q433.956 1454.1 430.321 1454.1 M430.321 1450.39 Q436.132 1450.39 439.187 1455 Q442.266 1459.58 442.266 1468.33 Q442.266 1477.06 439.187 1481.67 Q436.132 1486.25 430.321 1486.25 Q424.511 1486.25 421.433 1481.67 Q418.377 1477.06 418.377 1468.33 Q418.377 1459.58 421.433 1455 Q424.511 1450.39 430.321 1450.39 Z" fill="#000000" fill-rule="nonzero" fill-opacity="1" /><path clip-path="url(#clip590)" d="M460.483 1454.1 Q456.872 1454.1 455.044 1457.66 Q453.238 1461.2 453.238 1468.33 Q453.238 1475.44 455.044 1479.01 Q456.872 1482.55 460.483 1482.55 Q464.118 1482.55 465.923 1479.01 Q467.752 1475.44 467.752 1468.33 Q467.752 1461.2 465.923 1457.66 Q464.118 1454.1 460.483 1454.1 M460.483 1450.39 Q466.293 1450.39 469.349 1455 Q472.428 1459.58 472.428 1468.33 Q472.428 1477.06 469.349 1481.67 Q466.293 1486.25 460.483 1486.25 Q454.673 1486.25 451.595 1481.67 Q448.539 1477.06 448.539 1468.33 Q448.539 1459.58 451.595 1455 Q454.673 1450.39 460.483 1450.39 Z" fill="#000000" fill-rule="nonzero" fill-opacity="1" /><path clip-path="url(#clip590)" d="M854.387 1454.1 Q850.776 1454.1 848.948 1457.66 Q847.142 1461.2 847.142 1468.33 Q847.142 1475.44 848.948 1479.01 Q850.776 1482.55 854.387 1482.55 Q858.022 1482.55 859.827 1479.01 Q861.656 1475.44 861.656 1468.33 Q861.656 1461.2 859.827 1457.66 Q858.022 1454.1 854.387 1454.1 M854.387 1450.39 Q860.197 1450.39 863.253 1455 Q866.332 1459.58 866.332 1468.33 Q866.332 1477.06 863.253 1481.67 Q860.197 1486.25 854.387 1486.25 Q848.577 1486.25 845.498 1481.67 Q842.443 1477.06 842.443 1468.33 Q842.443 1459.58 845.498 1455 Q848.577 1450.39 854.387 1450.39 Z" fill="#000000" fill-rule="nonzero" fill-opacity="1" /><path clip-path="url(#clip590)" d="M874.549 1479.7 L879.433 1479.7 L879.433 1485.58 L874.549 1485.58 L874.549 1479.7 Z" fill="#000000" fill-rule="nonzero" fill-opacity="1" /><path clip-path="url(#clip590)" d="M893.646 1481.64 L909.966 1481.64 L909.966 1485.58 L888.021 1485.58 L888.021 1481.64 Q890.683 1478.89 895.267 1474.26 Q899.873 1469.61 901.054 1468.27 Q903.299 1465.74 904.179 1464.01 Q905.081 1462.25 905.081 1460.56 Q905.081 1457.8 903.137 1456.07 Q901.216 1454.33 898.114 1454.33 Q895.915 1454.33 893.461 1455.09 Q891.031 1455.86 888.253 1457.41 L888.253 1452.69 Q891.077 1451.55 893.531 1450.97 Q895.984 1450.39 898.021 1450.39 Q903.392 1450.39 906.586 1453.08 Q909.781 1455.77 909.781 1460.26 Q909.781 1462.39 908.97 1464.31 Q908.183 1466.2 906.077 1468.8 Q905.498 1469.47 902.396 1472.69 Q899.294 1475.88 893.646 1481.64 Z" fill="#000000" fill-rule="nonzero" fill-opacity="1" /><path clip-path="url(#clip590)" d="M919.827 1451.02 L938.183 1451.02 L938.183 1454.96 L924.109 1454.96 L924.109 1463.43 Q925.128 1463.08 926.146 1462.92 Q927.165 1462.73 928.183 1462.73 Q933.97 1462.73 937.35 1465.9 Q940.729 1469.08 940.729 1474.49 Q940.729 1480.07 937.257 1483.17 Q933.785 1486.25 927.466 1486.25 Q925.29 1486.25 923.021 1485.88 Q920.776 1485.51 918.368 1484.77 L918.368 1480.07 Q920.452 1481.2 922.674 1481.76 Q924.896 1482.32 927.373 1482.32 Q931.378 1482.32 933.716 1480.21 Q936.054 1478.1 936.054 1474.49 Q936.054 1470.88 933.716 1468.77 Q931.378 1466.67 927.373 1466.67 Q925.498 1466.67 923.623 1467.08 Q921.771 1467.5 919.827 1468.38 L919.827 1451.02 Z" fill="#000000" fill-rule="nonzero" fill-opacity="1" /><path clip-path="url(#clip590)" d="M1322.69 1454.1 Q1319.08 1454.1 1317.25 1457.66 Q1315.44 1461.2 1315.44 1468.33 Q1315.44 1475.44 1317.25 1479.01 Q1319.08 1482.55 1322.69 1482.55 Q1326.32 1482.55 1328.13 1479.01 Q1329.96 1475.44 1329.96 1468.33 Q1329.96 1461.2 1328.13 1457.66 Q1326.32 1454.1 1322.69 1454.1 M1322.69 1450.39 Q1328.5 1450.39 1331.55 1455 Q1334.63 1459.58 1334.63 1468.33 Q1334.63 1477.06 1331.55 1481.67 Q1328.5 1486.25 1322.69 1486.25 Q1316.88 1486.25 1313.8 1481.67 Q1310.74 1477.06 1310.74 1468.33 Q1310.74 1459.58 1313.8 1455 Q1316.88 1450.39 1322.69 1450.39 Z" fill="#000000" fill-rule="nonzero" fill-opacity="1" /><path clip-path="url(#clip590)" d="M1342.85 1479.7 L1347.74 1479.7 L1347.74 1485.58 L1342.85 1485.58 L1342.85 1479.7 Z" fill="#000000" fill-rule="nonzero" fill-opacity="1" /><path clip-path="url(#clip590)" d="M1357.97 1451.02 L1376.32 1451.02 L1376.32 1454.96 L1362.25 1454.96 L1362.25 1463.43 Q1363.27 1463.08 1364.29 1462.92 Q1365.3 1462.73 1366.32 1462.73 Q1372.11 1462.73 1375.49 1465.9 Q1378.87 1469.08 1378.87 1474.49 Q1378.87 1480.07 1375.4 1483.17 Q1371.92 1486.25 1365.61 1486.25 Q1363.43 1486.25 1361.16 1485.88 Q1358.92 1485.51 1356.51 1484.77 L1356.51 1480.07 Q1358.59 1481.2 1360.81 1481.76 Q1363.04 1482.32 1365.51 1482.32 Q1369.52 1482.32 1371.86 1480.21 Q1374.19 1478.1 1374.19 1474.49 Q1374.19 1470.88 1371.86 1468.77 Q1369.52 1466.67 1365.51 1466.67 Q1363.64 1466.67 1361.76 1467.08 Q1359.91 1467.5 1357.97 1468.38 L1357.97 1451.02 Z" fill="#000000" fill-rule="nonzero" fill-opacity="1" /><path clip-path="url(#clip590)" d="M1398.08 1454.1 Q1394.47 1454.1 1392.64 1457.66 Q1390.84 1461.2 1390.84 1468.33 Q1390.84 1475.44 1392.64 1479.01 Q1394.47 1482.55 1398.08 1482.55 Q1401.72 1482.55 1403.52 1479.01 Q1405.35 1475.44 1405.35 1468.33 Q1405.35 1461.2 1403.52 1457.66 Q1401.72 1454.1 1398.08 1454.1 M1398.08 1450.39 Q1403.89 1450.39 1406.95 1455 Q1410.03 1459.58 1410.03 1468.33 Q1410.03 1477.06 1406.95 1481.67 Q1403.89 1486.25 1398.08 1486.25 Q1392.27 1486.25 1389.19 1481.67 Q1386.14 1477.06 1386.14 1468.33 Q1386.14 1459.58 1389.19 1455 Q1392.27 1450.39 1398.08 1450.39 Z" fill="#000000" fill-rule="nonzero" fill-opacity="1" /><path clip-path="url(#clip590)" d="M1791.99 1454.1 Q1788.38 1454.1 1786.55 1457.66 Q1784.74 1461.2 1784.74 1468.33 Q1784.74 1475.44 1786.55 1479.01 Q1788.38 1482.55 1791.99 1482.55 Q1795.62 1482.55 1797.43 1479.01 Q1799.25 1475.44 1799.25 1468.33 Q1799.25 1461.2 1797.43 1457.66 Q1795.62 1454.1 1791.99 1454.1 M1791.99 1450.39 Q1797.8 1450.39 1800.85 1455 Q1803.93 1459.58 1803.93 1468.33 Q1803.93 1477.06 1800.85 1481.67 Q1797.8 1486.25 1791.99 1486.25 Q1786.18 1486.25 1783.1 1481.67 Q1780.04 1477.06 1780.04 1468.33 Q1780.04 1459.58 1783.1 1455 Q1786.18 1450.39 1791.99 1450.39 Z" fill="#000000" fill-rule="nonzero" fill-opacity="1" /><path clip-path="url(#clip590)" d="M1812.15 1479.7 L1817.03 1479.7 L1817.03 1485.58 L1812.15 1485.58 L1812.15 1479.7 Z" fill="#000000" fill-rule="nonzero" fill-opacity="1" /><path clip-path="url(#clip590)" d="M1826.04 1451.02 L1848.26 1451.02 L1848.26 1453.01 L1835.71 1485.58 L1830.83 1485.58 L1842.63 1454.96 L1826.04 1454.96 L1826.04 1451.02 Z" fill="#000000" fill-rule="nonzero" fill-opacity="1" /><path clip-path="url(#clip590)" d="M1857.43 1451.02 L1875.78 1451.02 L1875.78 1454.96 L1861.71 1454.96 L1861.71 1463.43 Q1862.73 1463.08 1863.75 1462.92 Q1864.76 1462.73 1865.78 1462.73 Q1871.57 1462.73 1874.95 1465.9 Q1878.33 1469.08 1878.33 1474.49 Q1878.33 1480.07 1874.86 1483.17 Q1871.38 1486.25 1865.06 1486.25 Q1862.89 1486.25 1860.62 1485.88 Q1858.37 1485.51 1855.97 1484.77 L1855.97 1480.07 Q1858.05 1481.2 1860.27 1481.76 Q1862.5 1482.32 1864.97 1482.32 Q1868.98 1482.32 1871.31 1480.21 Q1873.65 1478.1 1873.65 1474.49 Q1873.65 1470.88 1871.31 1468.77 Q1868.98 1466.67 1864.97 1466.67 Q1863.1 1466.67 1861.22 1467.08 Q1859.37 1467.5 1857.43 1468.38 L1857.43 1451.02 Z" fill="#000000" fill-rule="nonzero" fill-opacity="1" /><path clip-path="url(#clip590)" d="M2250.06 1481.64 L2257.7 1481.64 L2257.7 1455.28 L2249.39 1456.95 L2249.39 1452.69 L2257.65 1451.02 L2262.32 1451.02 L2262.32 1481.64 L2269.96 1481.64 L2269.96 1485.58 L2250.06 1485.58 L2250.06 1481.64 Z" fill="#000000" fill-rule="nonzero" fill-opacity="1" /><path clip-path="url(#clip590)" d="M2279.41 1479.7 L2284.29 1479.7 L2284.29 1485.58 L2279.41 1485.58 L2279.41 1479.7 Z" fill="#000000" fill-rule="nonzero" fill-opacity="1" /><path clip-path="url(#clip590)" d="M2304.48 1454.1 Q2300.87 1454.1 2299.04 1457.66 Q2297.23 1461.2 2297.23 1468.33 Q2297.23 1475.44 2299.04 1479.01 Q2300.87 1482.55 2304.48 1482.55 Q2308.11 1482.55 2309.92 1479.01 Q2311.75 1475.44 2311.75 1468.33 Q2311.75 1461.2 2309.92 1457.66 Q2308.11 1454.1 2304.48 1454.1 M2304.48 1450.39 Q2310.29 1450.39 2313.34 1455 Q2316.42 1459.58 2316.42 1468.33 Q2316.42 1477.06 2313.34 1481.67 Q2310.29 1486.25 2304.48 1486.25 Q2298.67 1486.25 2295.59 1481.67 Q2292.53 1477.06 2292.53 1468.33 Q2292.53 1459.58 2295.59 1455 Q2298.67 1450.39 2304.48 1450.39 Z" fill="#000000" fill-rule="nonzero" fill-opacity="1" /><path clip-path="url(#clip590)" d="M2334.64 1454.1 Q2331.03 1454.1 2329.2 1457.66 Q2327.39 1461.2 2327.39 1468.33 Q2327.39 1475.44 2329.2 1479.01 Q2331.03 1482.55 2334.64 1482.55 Q2338.27 1482.55 2340.08 1479.01 Q2341.91 1475.44 2341.91 1468.33 Q2341.91 1461.2 2340.08 1457.66 Q2338.27 1454.1 2334.64 1454.1 M2334.64 1450.39 Q2340.45 1450.39 2343.51 1455 Q2346.58 1459.58 2346.58 1468.33 Q2346.58 1477.06 2343.51 1481.67 Q2340.45 1486.25 2334.64 1486.25 Q2328.83 1486.25 2325.75 1481.67 Q2322.69 1477.06 2322.69 1468.33 Q2322.69 1459.58 2325.75 1455 Q2328.83 1450.39 2334.64 1450.39 Z" fill="#000000" fill-rule="nonzero" fill-opacity="1" /><path clip-path="url(#clip590)" d="M1363.64 1532.4 L1350.75 1549.74 L1364.31 1568.04 L1357.4 1568.04 L1347.02 1554.04 L1336.65 1568.04 L1329.74 1568.04 L1343.59 1549.39 L1330.92 1532.4 L1337.83 1532.4 L1347.28 1545.1 L1356.73 1532.4 L1363.64 1532.4 Z" fill="#000000" fill-rule="nonzero" fill-opacity="1" /><path clip-path="url(#clip590)" d="M1384.58 1546.5 Q1382.99 1543.76 1379.78 1543.76 Q1376.56 1543.76 1374.97 1546.5 Q1373.35 1549.23 1373.35 1554.71 Q1373.35 1560.21 1374.97 1562.95 Q1376.56 1565.69 1379.78 1565.69 Q1382.99 1565.69 1384.58 1562.95 Q1386.2 1560.21 1386.2 1554.71 Q1386.2 1549.23 1384.58 1546.5 M1379.78 1540.93 Q1384.9 1540.93 1387.61 1544.46 Q1390.31 1547.99 1390.31 1554.71 Q1390.31 1561.46 1387.61 1564.99 Q1384.9 1568.52 1379.78 1568.52 Q1374.62 1568.52 1371.91 1564.99 Q1369.21 1561.46 1369.21 1554.71 Q1369.21 1547.99 1371.91 1544.46 Q1374.62 1540.93 1379.78 1540.93 Z" fill="#000000" fill-rule="nonzero" fill-opacity="1" /><polyline clip-path="url(#clip590)" style="stroke:#000000; stroke-linecap:round; stroke-linejoin:round; stroke-width:4; stroke-opacity:1; fill:none" points="367.296,1423.18 367.296,123.472 "/>
<polyline clip-path="url(#clip590)" style="stroke:#000000; stroke-linecap:round; stroke-linejoin:round; stroke-width:4; stroke-opacity:1; fill:none" points="367.296,1289.49 386.194,1289.49 "/>
<polyline clip-path="url(#clip590)" style="stroke:#000000; stroke-linecap:round; stroke-linejoin:round; stroke-width:4; stroke-opacity:1; fill:none" points="367.296,1002.2 386.194,1002.2 "/>
<polyline clip-path="url(#clip590)" style="stroke:#000000; stroke-linecap:round; stroke-linejoin:round; stroke-width:4; stroke-opacity:1; fill:none" points="367.296,714.904 386.194,714.904 "/>
<polyline clip-path="url(#clip590)" style="stroke:#000000; stroke-linecap:round; stroke-linejoin:round; stroke-width:4; stroke-opacity:1; fill:none" points="367.296,427.612 386.194,427.612 "/>
<polyline clip-path="url(#clip590)" style="stroke:#000000; stroke-linecap:round; stroke-linejoin:round; stroke-width:4; stroke-opacity:1; fill:none" points="367.296,140.319 386.194,140.319 "/>
<path clip-path="url(#clip590)" d="M319.352 1275.29 Q315.741 1275.29 313.912 1278.85 Q312.106 1282.39 312.106 1289.52 Q312.106 1296.63 313.912 1300.19 Q315.741 1303.74 319.352 1303.74 Q322.986 1303.74 324.791 1300.19 Q326.62 1296.63 326.62 1289.52 Q326.62 1282.39 324.791 1278.85 Q322.986 1275.29 319.352 1275.29 M319.352 1271.58 Q325.162 1271.58 328.217 1276.19 Q331.296 1280.77 331.296 1289.52 Q331.296 1298.25 328.217 1302.86 Q325.162 1307.44 319.352 1307.44 Q313.541 1307.44 310.463 1302.86 Q307.407 1298.25 307.407 1289.52 Q307.407 1280.77 310.463 1276.19 Q313.541 1271.58 319.352 1271.58 Z" fill="#000000" fill-rule="nonzero" fill-opacity="1" /><path clip-path="url(#clip590)" d="M119.885 1021.99 L136.204 1021.99 L136.204 1025.92 L114.26 1025.92 L114.26 1021.99 Q116.922 1019.23 121.505 1014.6 Q126.112 1009.95 127.292 1008.61 Q129.538 1006.09 130.417 1004.35 Q131.32 1002.59 131.32 1000.9 Q131.32 998.146 129.376 996.41 Q127.455 994.674 124.353 994.674 Q122.154 994.674 119.7 995.438 Q117.269 996.202 114.492 997.753 L114.492 993.031 Q117.316 991.896 119.769 991.318 Q122.223 990.739 124.26 990.739 Q129.63 990.739 132.825 993.424 Q136.019 996.109 136.019 1000.6 Q136.019 1002.73 135.209 1004.65 Q134.422 1006.55 132.316 1009.14 Q131.737 1009.81 128.635 1013.03 Q125.533 1016.23 119.885 1021.99 Z" fill="#000000" fill-rule="nonzero" fill-opacity="1" /><path clip-path="url(#clip590)" d="M146.019 1020.04 L150.903 1020.04 L150.903 1025.92 L146.019 1025.92 L146.019 1020.04 Z" fill="#000000" fill-rule="nonzero" fill-opacity="1" /><path clip-path="url(#clip590)" d="M161.135 991.364 L179.491 991.364 L179.491 995.299 L165.417 995.299 L165.417 1003.77 Q166.436 1003.42 167.454 1003.26 Q168.473 1003.08 169.491 1003.08 Q175.278 1003.08 178.658 1006.25 Q182.038 1009.42 182.038 1014.84 Q182.038 1020.41 178.565 1023.52 Q175.093 1026.6 168.774 1026.6 Q166.598 1026.6 164.329 1026.22 Q162.084 1025.85 159.677 1025.11 L159.677 1020.41 Q161.76 1021.55 163.982 1022.1 Q166.204 1022.66 168.681 1022.66 Q172.686 1022.66 175.024 1020.55 Q177.362 1018.45 177.362 1014.84 Q177.362 1011.23 175.024 1009.12 Q172.686 1007.01 168.681 1007.01 Q166.806 1007.01 164.931 1007.43 Q163.079 1007.85 161.135 1008.73 L161.135 991.364 Z" fill="#000000" fill-rule="nonzero" fill-opacity="1" /><path clip-path="url(#clip590)" d="M201.25 994.443 Q197.639 994.443 195.811 998.008 Q194.005 1001.55 194.005 1008.68 Q194.005 1015.79 195.811 1019.35 Q197.639 1022.89 201.25 1022.89 Q204.885 1022.89 206.69 1019.35 Q208.519 1015.79 208.519 1008.68 Q208.519 1001.55 206.69 998.008 Q204.885 994.443 201.25 994.443 M201.25 990.739 Q207.061 990.739 210.116 995.346 Q213.195 999.929 213.195 1008.68 Q213.195 1017.41 210.116 1022.01 Q207.061 1026.6 201.25 1026.6 Q195.44 1026.6 192.362 1022.01 Q189.306 1017.41 189.306 1008.68 Q189.306 999.929 192.362 995.346 Q195.44 990.739 201.25 990.739 Z" fill="#000000" fill-rule="nonzero" fill-opacity="1" /><path clip-path="url(#clip590)" d="M249.584 1000.46 L239.005 1011.09 L249.584 1021.66 L246.829 1024.47 L236.204 1013.84 L225.579 1024.47 L222.848 1021.66 L233.403 1011.09 L222.848 1000.46 L225.579 997.66 L236.204 1008.29 L246.829 997.66 L249.584 1000.46 Z" fill="#000000" fill-rule="nonzero" fill-opacity="1" /><path clip-path="url(#clip590)" d="M261.945 1021.99 L269.583 1021.99 L269.583 995.623 L261.273 997.29 L261.273 993.031 L269.537 991.364 L274.213 991.364 L274.213 1021.99 L281.852 1021.99 L281.852 1025.92 L261.945 1025.92 L261.945 1021.99 Z" fill="#000000" fill-rule="nonzero" fill-opacity="1" /><path clip-path="url(#clip590)" d="M301.296 994.443 Q297.685 994.443 295.856 998.008 Q294.051 1001.55 294.051 1008.68 Q294.051 1015.79 295.856 1019.35 Q297.685 1022.89 301.296 1022.89 Q304.93 1022.89 306.736 1019.35 Q308.565 1015.79 308.565 1008.68 Q308.565 1001.55 306.736 998.008 Q304.93 994.443 301.296 994.443 M301.296 990.739 Q307.106 990.739 310.162 995.346 Q313.241 999.929 313.241 1008.68 Q313.241 1017.41 310.162 1022.01 Q307.106 1026.6 301.296 1026.6 Q295.486 1026.6 292.407 1022.01 Q289.352 1017.41 289.352 1008.68 Q289.352 999.929 292.407 995.346 Q295.486 990.739 301.296 990.739 Z" fill="#000000" fill-rule="nonzero" fill-opacity="1" /><path clip-path="url(#clip590)" d="M313.241 970.434 L331.296 970.434 L331.296 972.051 L321.102 998.514 L317.134 998.514 L326.726 973.631 L313.241 973.631 L313.241 970.434 Z" fill="#000000" fill-rule="nonzero" fill-opacity="1" /><path clip-path="url(#clip590)" d="M115.904 704.072 L134.26 704.072 L134.26 708.007 L120.186 708.007 L120.186 716.479 Q121.205 716.132 122.223 715.97 Q123.242 715.785 124.26 715.785 Q130.047 715.785 133.427 718.956 Q136.806 722.127 136.806 727.544 Q136.806 733.122 133.334 736.224 Q129.862 739.303 123.543 739.303 Q121.367 739.303 119.098 738.933 Q116.853 738.562 114.445 737.822 L114.445 733.122 Q116.529 734.257 118.751 734.812 Q120.973 735.368 123.45 735.368 Q127.455 735.368 129.792 733.261 Q132.13 731.155 132.13 727.544 Q132.13 723.933 129.792 721.826 Q127.455 719.72 123.45 719.72 Q121.575 719.72 119.7 720.136 Q117.848 720.553 115.904 721.433 L115.904 704.072 Z" fill="#000000" fill-rule="nonzero" fill-opacity="1" /><path clip-path="url(#clip590)" d="M146.019 732.752 L150.903 732.752 L150.903 738.632 L146.019 738.632 L146.019 732.752 Z" fill="#000000" fill-rule="nonzero" fill-opacity="1" /><path clip-path="url(#clip590)" d="M171.089 707.15 Q167.477 707.15 165.649 710.715 Q163.843 714.257 163.843 721.386 Q163.843 728.493 165.649 732.058 Q167.477 735.599 171.089 735.599 Q174.723 735.599 176.528 732.058 Q178.357 728.493 178.357 721.386 Q178.357 714.257 176.528 710.715 Q174.723 707.15 171.089 707.15 M171.089 703.447 Q176.899 703.447 179.954 708.053 Q183.033 712.636 183.033 721.386 Q183.033 730.113 179.954 734.72 Q176.899 739.303 171.089 739.303 Q165.278 739.303 162.2 734.72 Q159.144 730.113 159.144 721.386 Q159.144 712.636 162.2 708.053 Q165.278 703.447 171.089 703.447 Z" fill="#000000" fill-rule="nonzero" fill-opacity="1" /><path clip-path="url(#clip590)" d="M201.25 707.15 Q197.639 707.15 195.811 710.715 Q194.005 714.257 194.005 721.386 Q194.005 728.493 195.811 732.058 Q197.639 735.599 201.25 735.599 Q204.885 735.599 206.69 732.058 Q208.519 728.493 208.519 721.386 Q208.519 714.257 206.69 710.715 Q204.885 707.15 201.25 707.15 M201.25 703.447 Q207.061 703.447 210.116 708.053 Q213.195 712.636 213.195 721.386 Q213.195 730.113 210.116 734.72 Q207.061 739.303 201.25 739.303 Q195.44 739.303 192.362 734.72 Q189.306 730.113 189.306 721.386 Q189.306 712.636 192.362 708.053 Q195.44 703.447 201.25 703.447 Z" fill="#000000" fill-rule="nonzero" fill-opacity="1" /><path clip-path="url(#clip590)" d="M249.584 713.169 L239.005 723.794 L249.584 734.372 L246.829 737.173 L236.204 726.548 L225.579 737.173 L222.848 734.372 L233.403 723.794 L222.848 713.169 L225.579 710.368 L236.204 720.993 L246.829 710.368 L249.584 713.169 Z" fill="#000000" fill-rule="nonzero" fill-opacity="1" /><path clip-path="url(#clip590)" d="M261.945 734.697 L269.583 734.697 L269.583 708.331 L261.273 709.998 L261.273 705.738 L269.537 704.072 L274.213 704.072 L274.213 734.697 L281.852 734.697 L281.852 738.632 L261.945 738.632 L261.945 734.697 Z" fill="#000000" fill-rule="nonzero" fill-opacity="1" /><path clip-path="url(#clip590)" d="M301.296 707.15 Q297.685 707.15 295.856 710.715 Q294.051 714.257 294.051 721.386 Q294.051 728.493 295.856 732.058 Q297.685 735.599 301.296 735.599 Q304.93 735.599 306.736 732.058 Q308.565 728.493 308.565 721.386 Q308.565 714.257 306.736 710.715 Q304.93 707.15 301.296 707.15 M301.296 703.447 Q307.106 703.447 310.162 708.053 Q313.241 712.636 313.241 721.386 Q313.241 730.113 310.162 734.72 Q307.106 739.303 301.296 739.303 Q295.486 739.303 292.407 734.72 Q289.352 730.113 289.352 721.386 Q289.352 712.636 292.407 708.053 Q295.486 703.447 301.296 703.447 Z" fill="#000000" fill-rule="nonzero" fill-opacity="1" /><path clip-path="url(#clip590)" d="M313.241 683.141 L331.296 683.141 L331.296 684.759 L321.102 711.221 L317.134 711.221 L326.726 686.339 L313.241 686.339 L313.241 683.141 Z" fill="#000000" fill-rule="nonzero" fill-opacity="1" /><path clip-path="url(#clip590)" d="M114.677 416.779 L136.899 416.779 L136.899 418.77 L124.353 451.339 L119.468 451.339 L131.274 420.715 L114.677 420.715 L114.677 416.779 Z" fill="#000000" fill-rule="nonzero" fill-opacity="1" /><path clip-path="url(#clip590)" d="M146.019 445.46 L150.903 445.46 L150.903 451.339 L146.019 451.339 L146.019 445.46 Z" fill="#000000" fill-rule="nonzero" fill-opacity="1" /><path clip-path="url(#clip590)" d="M161.135 416.779 L179.491 416.779 L179.491 420.715 L165.417 420.715 L165.417 429.187 Q166.436 428.839 167.454 428.677 Q168.473 428.492 169.491 428.492 Q175.278 428.492 178.658 431.664 Q182.038 434.835 182.038 440.251 Q182.038 445.83 178.565 448.932 Q175.093 452.011 168.774 452.011 Q166.598 452.011 164.329 451.64 Q162.084 451.27 159.677 450.529 L159.677 445.83 Q161.76 446.964 163.982 447.52 Q166.204 448.075 168.681 448.075 Q172.686 448.075 175.024 445.969 Q177.362 443.863 177.362 440.251 Q177.362 436.64 175.024 434.534 Q172.686 432.427 168.681 432.427 Q166.806 432.427 164.931 432.844 Q163.079 433.261 161.135 434.14 L161.135 416.779 Z" fill="#000000" fill-rule="nonzero" fill-opacity="1" /><path clip-path="url(#clip590)" d="M201.25 419.858 Q197.639 419.858 195.811 423.423 Q194.005 426.964 194.005 434.094 Q194.005 441.201 195.811 444.765 Q197.639 448.307 201.25 448.307 Q204.885 448.307 206.69 444.765 Q208.519 441.201 208.519 434.094 Q208.519 426.964 206.69 423.423 Q204.885 419.858 201.25 419.858 M201.25 416.154 Q207.061 416.154 210.116 420.761 Q213.195 425.344 213.195 434.094 Q213.195 442.821 210.116 447.427 Q207.061 452.011 201.25 452.011 Q195.44 452.011 192.362 447.427 Q189.306 442.821 189.306 434.094 Q189.306 425.344 192.362 420.761 Q195.44 416.154 201.25 416.154 Z" fill="#000000" fill-rule="nonzero" fill-opacity="1" /><path clip-path="url(#clip590)" d="M249.584 425.877 L239.005 436.501 L249.584 447.08 L246.829 449.881 L236.204 439.256 L225.579 449.881 L222.848 447.08 L233.403 436.501 L222.848 425.877 L225.579 423.076 L236.204 433.701 L246.829 423.076 L249.584 425.877 Z" fill="#000000" fill-rule="nonzero" fill-opacity="1" /><path clip-path="url(#clip590)" d="M261.945 447.404 L269.583 447.404 L269.583 421.039 L261.273 422.705 L261.273 418.446 L269.537 416.779 L274.213 416.779 L274.213 447.404 L281.852 447.404 L281.852 451.339 L261.945 451.339 L261.945 447.404 Z" fill="#000000" fill-rule="nonzero" fill-opacity="1" /><path clip-path="url(#clip590)" d="M301.296 419.858 Q297.685 419.858 295.856 423.423 Q294.051 426.964 294.051 434.094 Q294.051 441.201 295.856 444.765 Q297.685 448.307 301.296 448.307 Q304.93 448.307 306.736 444.765 Q308.565 441.201 308.565 434.094 Q308.565 426.964 306.736 423.423 Q304.93 419.858 301.296 419.858 M301.296 416.154 Q307.106 416.154 310.162 420.761 Q313.241 425.344 313.241 434.094 Q313.241 442.821 310.162 447.427 Q307.106 452.011 301.296 452.011 Q295.486 452.011 292.407 447.427 Q289.352 442.821 289.352 434.094 Q289.352 425.344 292.407 420.761 Q295.486 416.154 301.296 416.154 Z" fill="#000000" fill-rule="nonzero" fill-opacity="1" /><path clip-path="url(#clip590)" d="M313.241 395.849 L331.296 395.849 L331.296 397.466 L321.102 423.929 L317.134 423.929 L326.726 399.046 L313.241 399.046 L313.241 395.849 Z" fill="#000000" fill-rule="nonzero" fill-opacity="1" /><path clip-path="url(#clip590)" d="M115.464 160.112 L123.103 160.112 L123.103 133.746 L114.793 135.413 L114.793 131.154 L123.056 129.487 L127.732 129.487 L127.732 160.112 L135.371 160.112 L135.371 164.047 L115.464 164.047 L115.464 160.112 Z" fill="#000000" fill-rule="nonzero" fill-opacity="1" /><path clip-path="url(#clip590)" d="M144.816 158.167 L149.7 158.167 L149.7 164.047 L144.816 164.047 L144.816 158.167 Z" fill="#000000" fill-rule="nonzero" fill-opacity="1" /><path clip-path="url(#clip590)" d="M169.885 132.566 Q166.274 132.566 164.445 136.13 Q162.64 139.672 162.64 146.802 Q162.64 153.908 164.445 157.473 Q166.274 161.015 169.885 161.015 Q173.519 161.015 175.325 157.473 Q177.153 153.908 177.153 146.802 Q177.153 139.672 175.325 136.13 Q173.519 132.566 169.885 132.566 M169.885 128.862 Q175.695 128.862 178.751 133.468 Q181.829 138.052 181.829 146.802 Q181.829 155.529 178.751 160.135 Q175.695 164.718 169.885 164.718 Q164.075 164.718 160.996 160.135 Q157.94 155.529 157.94 146.802 Q157.94 138.052 160.996 133.468 Q164.075 128.862 169.885 128.862 Z" fill="#000000" fill-rule="nonzero" fill-opacity="1" /><path clip-path="url(#clip590)" d="M200.047 132.566 Q196.436 132.566 194.607 136.13 Q192.801 139.672 192.801 146.802 Q192.801 153.908 194.607 157.473 Q196.436 161.015 200.047 161.015 Q203.681 161.015 205.487 157.473 Q207.315 153.908 207.315 146.802 Q207.315 139.672 205.487 136.13 Q203.681 132.566 200.047 132.566 M200.047 128.862 Q205.857 128.862 208.912 133.468 Q211.991 138.052 211.991 146.802 Q211.991 155.529 208.912 160.135 Q205.857 164.718 200.047 164.718 Q194.237 164.718 191.158 160.135 Q188.102 155.529 188.102 146.802 Q188.102 138.052 191.158 133.468 Q194.237 128.862 200.047 128.862 Z" fill="#000000" fill-rule="nonzero" fill-opacity="1" /><path clip-path="url(#clip590)" d="M248.38 138.584 L237.801 149.209 L248.38 159.788 L245.625 162.589 L235 151.964 L224.375 162.589 L221.644 159.788 L232.199 149.209 L221.644 138.584 L224.375 135.783 L235 146.408 L245.625 135.783 L248.38 138.584 Z" fill="#000000" fill-rule="nonzero" fill-opacity="1" /><path clip-path="url(#clip590)" d="M260.741 160.112 L268.38 160.112 L268.38 133.746 L260.07 135.413 L260.07 131.154 L268.333 129.487 L273.009 129.487 L273.009 160.112 L280.648 160.112 L280.648 164.047 L260.741 164.047 L260.741 160.112 Z" fill="#000000" fill-rule="nonzero" fill-opacity="1" /><path clip-path="url(#clip590)" d="M300.092 132.566 Q296.481 132.566 294.653 136.13 Q292.847 139.672 292.847 146.802 Q292.847 153.908 294.653 157.473 Q296.481 161.015 300.092 161.015 Q303.727 161.015 305.532 157.473 Q307.361 153.908 307.361 146.802 Q307.361 139.672 305.532 136.13 Q303.727 132.566 300.092 132.566 M300.092 128.862 Q305.903 128.862 308.958 133.468 Q312.037 138.052 312.037 146.802 Q312.037 155.529 308.958 160.135 Q305.903 164.718 300.092 164.718 Q294.282 164.718 291.204 160.135 Q288.148 155.529 288.148 146.802 Q288.148 138.052 291.204 133.468 Q294.282 128.862 300.092 128.862 Z" fill="#000000" fill-rule="nonzero" fill-opacity="1" /><path clip-path="url(#clip590)" d="M321.666 123.302 Q318.958 123.302 317.397 124.75 Q315.855 126.198 315.855 128.737 Q315.855 131.276 317.397 132.725 Q318.958 134.173 321.666 134.173 Q324.375 134.173 325.936 132.725 Q327.497 131.258 327.497 128.737 Q327.497 126.198 325.936 124.75 Q324.394 123.302 321.666 123.302 M317.867 121.684 Q315.422 121.083 314.049 119.409 Q312.695 117.735 312.695 115.327 Q312.695 111.961 315.084 110.005 Q317.491 108.049 321.666 108.049 Q325.861 108.049 328.249 110.005 Q330.638 111.961 330.638 115.327 Q330.638 117.735 329.265 119.409 Q327.911 121.083 325.484 121.684 Q328.23 122.324 329.754 124.186 Q331.296 126.048 331.296 128.737 Q331.296 132.819 328.795 135 Q326.312 137.182 321.666 137.182 Q317.021 137.182 314.52 135 Q312.037 132.819 312.037 128.737 Q312.037 126.048 313.579 124.186 Q315.121 122.324 317.867 121.684 M316.476 115.685 Q316.476 117.866 317.83 119.089 Q319.203 120.311 321.666 120.311 Q324.111 120.311 325.484 119.089 Q326.876 117.866 326.876 115.685 Q326.876 113.503 325.484 112.281 Q324.111 111.058 321.666 111.058 Q319.203 111.058 317.83 112.281 Q316.476 113.503 316.476 115.685 Z" fill="#000000" fill-rule="nonzero" fill-opacity="1" /><path clip-path="url(#clip590)" d="M29.4065 1034.72 L34.9447 1034.72 Q33.6716 1037.2 33.035 1039.87 Q32.3984 1042.55 32.3984 1045.41 Q32.3984 1049.77 33.7352 1051.97 Q35.072 1054.13 37.7456 1054.13 Q39.7826 1054.13 40.9603 1052.57 Q42.1061 1051.01 43.1565 1046.3 L43.6021 1044.3 Q44.9389 1038.06 47.3897 1035.45 Q49.8086 1032.81 54.1691 1032.81 Q59.1344 1032.81 62.0308 1036.75 Q64.9272 1040.67 64.9272 1047.54 Q64.9272 1050.41 64.3543 1053.53 Q63.8132 1056.62 62.6992 1060.05 L56.6518 1060.05 Q58.3387 1056.81 59.198 1053.66 Q60.0256 1050.5 60.0256 1047.42 Q60.0256 1043.28 58.6251 1041.05 Q57.1929 1038.82 54.6147 1038.82 Q52.2276 1038.82 50.9545 1040.45 Q49.6813 1042.04 48.5037 1047.48 L48.0262 1049.52 Q46.8804 1054.96 44.5251 1057.38 Q42.138 1059.8 38.0002 1059.8 Q32.9713 1059.8 30.2341 1056.23 Q27.4968 1052.67 27.4968 1046.11 Q27.4968 1042.87 27.9743 1040 Q28.4517 1037.14 29.4065 1034.72 Z" fill="#000000" fill-rule="nonzero" fill-opacity="1" /><path clip-path="url(#clip590)" d="M44.7161 992.991 L47.5806 992.991 L47.5806 1019.92 Q53.6281 1019.54 56.8109 1016.29 Q59.9619 1013.01 59.9619 1007.19 Q59.9619 1003.81 59.1344 1000.66 Q58.3069 997.478 56.6518 994.359 L62.1899 994.359 Q63.5267 997.51 64.227 1000.82 Q64.9272 1004.13 64.9272 1007.54 Q64.9272 1016.07 59.9619 1021.06 Q54.9967 1026.03 46.5303 1026.03 Q37.7774 1026.03 32.6531 1021.32 Q27.4968 1016.58 27.4968 1008.55 Q27.4968 1001.36 32.1438 997.192 Q36.7589 992.991 44.7161 992.991 M42.9973 998.847 Q38.1912 998.911 35.3266 1001.55 Q32.4621 1004.16 32.4621 1008.49 Q32.4621 1013.39 35.2312 1016.35 Q38.0002 1019.28 43.0292 1019.73 L42.9973 998.847 Z" fill="#000000" fill-rule="nonzero" fill-opacity="1" /><path clip-path="url(#clip590)" d="M29.7248 957.725 L35.1993 957.725 Q33.8307 960.207 33.1623 962.722 Q32.4621 965.204 32.4621 967.751 Q32.4621 973.448 36.0905 976.599 Q39.6872 979.75 46.212 979.75 Q52.7369 979.75 56.3653 976.599 Q59.9619 973.448 59.9619 967.751 Q59.9619 965.204 59.2935 962.722 Q58.5933 960.207 57.2247 957.725 L62.6355 957.725 Q63.7814 960.175 64.3543 962.817 Q64.9272 965.427 64.9272 968.387 Q64.9272 976.44 59.8664 981.182 Q54.8057 985.925 46.212 985.925 Q37.491 985.925 32.4939 981.15 Q27.4968 976.344 27.4968 968.005 Q27.4968 965.3 28.0697 962.722 Q28.6108 960.144 29.7248 957.725 Z" fill="#000000" fill-rule="nonzero" fill-opacity="1" /><path clip-path="url(#clip590)" d="M32.4621 933.726 Q32.4621 938.436 36.1542 941.174 Q39.8145 943.911 46.212 943.911 Q52.6095 943.911 56.3017 941.206 Q59.9619 938.468 59.9619 933.726 Q59.9619 929.047 56.2698 926.31 Q52.5777 923.573 46.212 923.573 Q39.8781 923.573 36.186 926.31 Q32.4621 929.047 32.4621 933.726 M27.4968 933.726 Q27.4968 926.087 32.4621 921.727 Q37.4273 917.366 46.212 917.366 Q54.9649 917.366 59.9619 921.727 Q64.9272 926.087 64.9272 933.726 Q64.9272 941.397 59.9619 945.757 Q54.9649 950.086 46.212 950.086 Q37.4273 950.086 32.4621 945.757 Q27.4968 941.397 27.4968 933.726 Z" fill="#000000" fill-rule="nonzero" fill-opacity="1" /><path clip-path="url(#clip590)" d="M42.4881 878.026 L64.0042 878.026 L64.0042 883.882 L42.679 883.882 Q37.6183 883.882 35.1038 885.856 Q32.5894 887.829 32.5894 891.776 Q32.5894 896.518 35.6131 899.256 Q38.6368 901.993 43.8567 901.993 L64.0042 901.993 L64.0042 907.881 L28.3562 907.881 L28.3562 901.993 L33.8944 901.993 Q30.6797 899.892 29.0883 897.059 Q27.4968 894.195 27.4968 890.471 Q27.4968 884.328 31.3163 881.177 Q35.1038 878.026 42.4881 878.026 Z" fill="#000000" fill-rule="nonzero" fill-opacity="1" /><path clip-path="url(#clip590)" d="M33.7671 842.887 L14.479 842.887 L14.479 837.031 L64.0042 837.031 L64.0042 842.887 L58.657 842.887 Q61.8398 844.733 63.3994 847.566 Q64.9272 850.367 64.9272 854.314 Q64.9272 860.775 59.771 864.849 Q54.6147 868.891 46.212 868.891 Q37.8093 868.891 32.6531 864.849 Q27.4968 860.775 27.4968 854.314 Q27.4968 850.367 29.0564 847.566 Q30.5842 844.733 33.7671 842.887 M46.212 862.844 Q52.6732 862.844 56.3653 860.202 Q60.0256 857.528 60.0256 852.881 Q60.0256 848.234 56.3653 845.561 Q52.6732 842.887 46.212 842.887 Q39.7508 842.887 36.0905 845.561 Q32.3984 848.234 32.3984 852.881 Q32.3984 857.528 36.0905 860.202 Q39.7508 862.844 46.212 862.844 Z" fill="#000000" fill-rule="nonzero" fill-opacity="1" /><path clip-path="url(#clip590)" d="M33.7671 780.79 L14.479 780.79 L14.479 774.933 L64.0042 774.933 L64.0042 780.79 L58.657 780.79 Q61.8398 782.636 63.3994 785.469 Q64.9272 788.269 64.9272 792.216 Q64.9272 798.677 59.771 802.751 Q54.6147 806.794 46.212 806.794 Q37.8093 806.794 32.6531 802.751 Q27.4968 798.677 27.4968 792.216 Q27.4968 788.269 29.0564 785.469 Q30.5842 782.636 33.7671 780.79 M46.212 800.746 Q52.6732 800.746 56.3653 798.104 Q60.0256 795.431 60.0256 790.784 Q60.0256 786.137 56.3653 783.463 Q52.6732 780.79 46.212 780.79 Q39.7508 780.79 36.0905 783.463 Q32.3984 786.137 32.3984 790.784 Q32.3984 795.431 36.0905 798.104 Q39.7508 800.746 46.212 800.746 Z" fill="#000000" fill-rule="nonzero" fill-opacity="1" /><path clip-path="url(#clip590)" d="M44.7161 732.379 L47.5806 732.379 L47.5806 759.306 Q53.6281 758.924 56.8109 755.677 Q59.9619 752.399 59.9619 746.574 Q59.9619 743.2 59.1344 740.049 Q58.3069 736.866 56.6518 733.747 L62.1899 733.747 Q63.5267 736.898 64.227 740.208 Q64.9272 743.519 64.9272 746.924 Q64.9272 755.454 59.9619 760.451 Q54.9967 765.417 46.5303 765.417 Q37.7774 765.417 32.6531 760.706 Q27.4968 755.964 27.4968 747.943 Q27.4968 740.749 32.1438 736.58 Q36.7589 732.379 44.7161 732.379 M42.9973 738.235 Q38.1912 738.299 35.3266 740.94 Q32.4621 743.55 32.4621 747.879 Q32.4621 752.781 35.2312 755.741 Q38.0002 758.669 43.0292 759.115 L42.9973 738.235 Z" fill="#000000" fill-rule="nonzero" fill-opacity="1" /><path clip-path="url(#clip590)" d="M33.8307 702.11 Q33.2578 703.096 33.0032 704.274 Q32.7167 705.42 32.7167 706.82 Q32.7167 711.786 35.9632 714.459 Q39.1779 717.101 45.2253 717.101 L64.0042 717.101 L64.0042 722.989 L28.3562 722.989 L28.3562 717.101 L33.8944 717.101 Q30.6479 715.255 29.0883 712.295 Q27.4968 709.335 27.4968 705.102 Q27.4968 704.497 27.5923 703.765 Q27.656 703.033 27.8151 702.141 L33.8307 702.11 Z" fill="#000000" fill-rule="nonzero" fill-opacity="1" /><path clip-path="url(#clip590)" d="M28.3562 695.967 L28.3562 690.11 L64.0042 690.11 L64.0042 695.967 L28.3562 695.967 M14.479 695.967 L14.479 690.11 L21.895 690.11 L21.895 695.967 L14.479 695.967 Z" fill="#000000" fill-rule="nonzero" fill-opacity="1" /><path clip-path="url(#clip590)" d="M28.3562 682.058 L28.3562 675.851 L58.275 664.711 L28.3562 653.571 L28.3562 647.365 L64.0042 660.733 L64.0042 668.69 L28.3562 682.058 Z" fill="#000000" fill-rule="nonzero" fill-opacity="1" /><path clip-path="url(#clip590)" d="M46.0847 623.079 Q46.0847 630.177 47.7079 632.914 Q49.3312 635.652 53.2461 635.652 Q56.3653 635.652 58.2114 633.615 Q60.0256 631.546 60.0256 628.013 Q60.0256 623.143 56.5881 620.215 Q53.1188 617.255 47.3897 617.255 L46.0847 617.255 L46.0847 623.079 M43.6657 611.398 L64.0042 611.398 L64.0042 617.255 L58.5933 617.255 Q61.8398 619.26 63.3994 622.252 Q64.9272 625.244 64.9272 629.572 Q64.9272 635.047 61.8716 638.293 Q58.7843 641.508 53.6281 641.508 Q47.6125 641.508 44.5569 637.498 Q41.5014 633.455 41.5014 625.467 L41.5014 617.255 L40.9285 617.255 Q36.8862 617.255 34.6901 619.928 Q32.4621 622.57 32.4621 627.376 Q32.4621 630.432 33.1941 633.328 Q33.9262 636.225 35.3903 638.898 L29.9795 638.898 Q28.7381 635.683 28.1334 632.66 Q27.4968 629.636 27.4968 626.772 Q27.4968 619.037 31.5072 615.218 Q35.5176 611.398 43.6657 611.398 Z" fill="#000000" fill-rule="nonzero" fill-opacity="1" /><path clip-path="url(#clip590)" d="M18.2347 593.543 L28.3562 593.543 L28.3562 581.48 L32.9077 581.48 L32.9077 593.543 L52.2594 593.543 Q56.6199 593.543 57.8613 592.365 Q59.1026 591.155 59.1026 587.495 L59.1026 581.48 L64.0042 581.48 L64.0042 587.495 Q64.0042 594.275 61.4897 596.853 Q58.9434 599.431 52.2594 599.431 L32.9077 599.431 L32.9077 603.728 L28.3562 603.728 L28.3562 599.431 L18.2347 599.431 L18.2347 593.543 Z" fill="#000000" fill-rule="nonzero" fill-opacity="1" /><path clip-path="url(#clip590)" d="M28.3562 573.777 L28.3562 567.921 L64.0042 567.921 L64.0042 573.777 L28.3562 573.777 M14.479 573.777 L14.479 567.921 L21.895 567.921 L21.895 573.777 L14.479 573.777 Z" fill="#000000" fill-rule="nonzero" fill-opacity="1" /><path clip-path="url(#clip590)" d="M28.3562 559.868 L28.3562 553.661 L58.275 542.521 L28.3562 531.381 L28.3562 525.175 L64.0042 538.543 L64.0042 546.5 L28.3562 559.868 Z" fill="#000000" fill-rule="nonzero" fill-opacity="1" /><path clip-path="url(#clip590)" d="M44.7161 486.599 L47.5806 486.599 L47.5806 513.526 Q53.6281 513.144 56.8109 509.897 Q59.9619 506.619 59.9619 500.794 Q59.9619 497.42 59.1344 494.269 Q58.3069 491.086 56.6518 487.967 L62.1899 487.967 Q63.5267 491.118 64.227 494.428 Q64.9272 497.739 64.9272 501.144 Q64.9272 509.674 59.9619 514.671 Q54.9967 519.637 46.5303 519.637 Q37.7774 519.637 32.6531 514.926 Q27.4968 510.184 27.4968 502.163 Q27.4968 494.97 32.1438 490.8 Q36.7589 486.599 44.7161 486.599 M42.9973 492.455 Q38.1912 492.519 35.3266 495.161 Q32.4621 497.77 32.4621 502.099 Q32.4621 507.001 35.2312 509.961 Q38.0002 512.889 43.0292 513.335 L42.9973 492.455 Z" fill="#000000" fill-rule="nonzero" fill-opacity="1" /><path clip-path="url(#clip590)" d="M859.881 14.0809 L859.881 22.0612 Q855.223 19.8332 851.091 18.7395 Q846.959 17.6457 843.11 17.6457 Q836.426 17.6457 832.781 20.2383 Q829.175 22.8309 829.175 27.611 Q829.175 31.6214 831.565 33.6873 Q833.996 35.7128 840.72 36.9686 L845.662 37.9813 Q854.817 39.7232 859.152 44.1387 Q863.527 48.5136 863.527 55.8863 Q863.527 64.6767 857.613 69.2137 Q851.739 73.7508 840.356 73.7508 Q836.062 73.7508 831.201 72.7785 Q826.38 71.8063 821.195 69.9024 L821.195 61.4765 Q826.178 64.2716 830.958 65.6895 Q835.738 67.1073 840.356 67.1073 Q847.364 67.1073 851.172 64.3527 Q854.979 61.598 854.979 56.4939 Q854.979 52.0379 852.225 49.5264 Q849.511 47.0148 843.272 45.759 L838.29 44.7868 Q829.135 42.9639 825.043 39.075 Q820.952 35.1862 820.952 28.2591 Q820.952 20.2383 826.583 15.6203 Q832.254 11.0023 842.179 11.0023 Q846.432 11.0023 850.848 11.7719 Q855.263 12.5416 859.881 14.0809 Z" fill="#000000" fill-rule="nonzero" fill-opacity="1" /><path clip-path="url(#clip590)" d="M914.771 48.0275 L914.771 51.6733 L880.5 51.6733 Q880.986 59.3701 885.118 63.421 Q889.291 67.4314 896.704 67.4314 Q900.998 67.4314 905.008 66.3781 Q909.059 65.3249 913.029 63.2184 L913.029 70.267 Q909.019 71.9684 904.806 72.8596 Q900.593 73.7508 896.258 73.7508 Q885.402 73.7508 879.042 67.4314 Q872.722 61.1119 872.722 50.3365 Q872.722 39.1965 878.718 32.6746 Q884.754 26.1121 894.962 26.1121 Q904.117 26.1121 909.424 32.0264 Q914.771 37.9003 914.771 48.0275 M907.317 45.84 Q907.236 39.7232 903.874 36.0774 Q900.552 32.4315 895.043 32.4315 Q888.805 32.4315 885.037 35.9558 Q881.31 39.4801 880.743 45.8805 L907.317 45.84 Z" fill="#000000" fill-rule="nonzero" fill-opacity="1" /><path clip-path="url(#clip590)" d="M959.655 28.9478 L959.655 35.9153 Q956.495 34.1734 953.295 33.3227 Q950.135 32.4315 946.895 32.4315 Q939.643 32.4315 935.633 37.0496 Q931.623 41.6271 931.623 49.9314 Q931.623 58.2358 935.633 62.8538 Q939.643 67.4314 946.895 67.4314 Q950.135 67.4314 953.295 66.5807 Q956.495 65.6895 959.655 63.9476 L959.655 70.8341 Q956.536 72.2924 953.173 73.0216 Q949.852 73.7508 946.084 73.7508 Q935.836 73.7508 929.8 67.3098 Q923.764 60.8689 923.764 49.9314 Q923.764 38.832 929.84 32.472 Q935.957 26.1121 946.57 26.1121 Q950.014 26.1121 953.295 26.8413 Q956.576 27.5299 959.655 28.9478 Z" fill="#000000" fill-rule="nonzero" fill-opacity="1" /><path clip-path="url(#clip590)" d="M990.199 32.4315 Q984.203 32.4315 980.72 37.1306 Q977.236 41.7891 977.236 49.9314 Q977.236 58.0738 980.679 62.7728 Q984.163 67.4314 990.199 67.4314 Q996.153 67.4314 999.637 62.7323 Q1003.12 58.0333 1003.12 49.9314 Q1003.12 41.8701 999.637 37.1711 Q996.153 32.4315 990.199 32.4315 M990.199 26.1121 Q999.921 26.1121 1005.47 32.4315 Q1011.02 38.7509 1011.02 49.9314 Q1011.02 61.0714 1005.47 67.4314 Q999.921 73.7508 990.199 73.7508 Q980.436 73.7508 974.886 67.4314 Q969.377 61.0714 969.377 49.9314 Q969.377 38.7509 974.886 32.4315 Q980.436 26.1121 990.199 26.1121 Z" fill="#000000" fill-rule="nonzero" fill-opacity="1" /><path clip-path="url(#clip590)" d="M1061.09 45.1919 L1061.09 72.576 L1053.64 72.576 L1053.64 45.4349 Q1053.64 38.994 1051.12 35.7938 Q1048.61 32.5936 1043.59 32.5936 Q1037.55 32.5936 1034.07 36.4419 Q1030.59 40.2903 1030.59 46.9338 L1030.59 72.576 L1023.09 72.576 L1023.09 27.2059 L1030.59 27.2059 L1030.59 34.2544 Q1033.26 30.163 1036.87 28.1376 Q1040.51 26.1121 1045.25 26.1121 Q1053.07 26.1121 1057.08 30.9732 Q1061.09 35.7938 1061.09 45.1919 Z" fill="#000000" fill-rule="nonzero" fill-opacity="1" /><path clip-path="url(#clip590)" d="M1105.81 34.0924 L1105.81 9.54393 L1113.27 9.54393 L1113.27 72.576 L1105.81 72.576 L1105.81 65.7705 Q1103.46 69.8214 1099.86 71.8063 Q1096.29 73.7508 1091.27 73.7508 Q1083.05 73.7508 1077.86 67.1883 Q1072.72 60.6258 1072.72 49.9314 Q1072.72 39.2371 1077.86 32.6746 Q1083.05 26.1121 1091.27 26.1121 Q1096.29 26.1121 1099.86 28.0971 Q1103.46 30.0415 1105.81 34.0924 M1080.41 49.9314 Q1080.41 58.1548 1083.77 62.8538 Q1087.18 67.5124 1093.09 67.5124 Q1099.01 67.5124 1102.41 62.8538 Q1105.81 58.1548 1105.81 49.9314 Q1105.81 41.7081 1102.41 37.0496 Q1099.01 32.3505 1093.09 32.3505 Q1087.18 32.3505 1083.77 37.0496 Q1080.41 41.7081 1080.41 49.9314 Z" fill="#000000" fill-rule="nonzero" fill-opacity="1" /><path clip-path="url(#clip590)" d="M1184.84 34.0924 L1184.84 9.54393 L1192.3 9.54393 L1192.3 72.576 L1184.84 72.576 L1184.84 65.7705 Q1182.5 69.8214 1178.89 71.8063 Q1175.32 73.7508 1170.3 73.7508 Q1162.08 73.7508 1156.89 67.1883 Q1151.75 60.6258 1151.75 49.9314 Q1151.75 39.2371 1156.89 32.6746 Q1162.08 26.1121 1170.3 26.1121 Q1175.32 26.1121 1178.89 28.0971 Q1182.5 30.0415 1184.84 34.0924 M1159.45 49.9314 Q1159.45 58.1548 1162.81 62.8538 Q1166.21 67.5124 1172.12 67.5124 Q1178.04 67.5124 1181.44 62.8538 Q1184.84 58.1548 1184.84 49.9314 Q1184.84 41.7081 1181.44 37.0496 Q1178.04 32.3505 1172.12 32.3505 Q1166.21 32.3505 1162.81 37.0496 Q1159.45 41.7081 1159.45 49.9314 Z" fill="#000000" fill-rule="nonzero" fill-opacity="1" /><path clip-path="url(#clip590)" d="M1246.46 48.0275 L1246.46 51.6733 L1212.19 51.6733 Q1212.67 59.3701 1216.81 63.421 Q1220.98 67.4314 1228.39 67.4314 Q1232.69 67.4314 1236.7 66.3781 Q1240.75 65.3249 1244.72 63.2184 L1244.72 70.267 Q1240.71 71.9684 1236.49 72.8596 Q1232.28 73.7508 1227.95 73.7508 Q1217.09 73.7508 1210.73 67.4314 Q1204.41 61.1119 1204.41 50.3365 Q1204.41 39.1965 1210.41 32.6746 Q1216.44 26.1121 1226.65 26.1121 Q1235.8 26.1121 1241.11 32.0264 Q1246.46 37.9003 1246.46 48.0275 M1239.01 45.84 Q1238.92 39.7232 1235.56 36.0774 Q1232.24 32.4315 1226.73 32.4315 Q1220.49 32.4315 1216.73 35.9558 Q1213 39.4801 1212.43 45.8805 L1239.01 45.84 Z" fill="#000000" fill-rule="nonzero" fill-opacity="1" /><path clip-path="url(#clip590)" d="M1284.98 34.1734 Q1283.73 33.4443 1282.23 33.1202 Q1280.77 32.7556 1278.99 32.7556 Q1272.67 32.7556 1269.27 36.8875 Q1265.9 40.9789 1265.9 48.6757 L1265.9 72.576 L1258.41 72.576 L1258.41 27.2059 L1265.9 27.2059 L1265.9 34.2544 Q1268.25 30.1225 1272.02 28.1376 Q1275.79 26.1121 1281.18 26.1121 Q1281.94 26.1121 1282.88 26.2337 Q1283.81 26.3147 1284.94 26.5172 L1284.98 34.1734 Z" fill="#000000" fill-rule="nonzero" fill-opacity="1" /><path clip-path="url(#clip590)" d="M1292.8 27.2059 L1300.25 27.2059 L1300.25 72.576 L1292.8 72.576 L1292.8 27.2059 M1292.8 9.54393 L1300.25 9.54393 L1300.25 18.9825 L1292.8 18.9825 L1292.8 9.54393 Z" fill="#000000" fill-rule="nonzero" fill-opacity="1" /><path clip-path="url(#clip590)" d="M1310.5 27.2059 L1318.4 27.2059 L1332.58 65.2844 L1346.76 27.2059 L1354.66 27.2059 L1337.64 72.576 L1327.52 72.576 L1310.5 27.2059 Z" fill="#000000" fill-rule="nonzero" fill-opacity="1" /><path clip-path="url(#clip590)" d="M1385.57 49.7694 Q1376.53 49.7694 1373.05 51.8354 Q1369.57 53.9013 1369.57 58.8839 Q1369.57 62.8538 1372.16 65.2034 Q1374.79 67.5124 1379.29 67.5124 Q1385.49 67.5124 1389.21 63.1374 Q1392.98 58.7219 1392.98 51.4303 L1392.98 49.7694 L1385.57 49.7694 M1400.43 46.6907 L1400.43 72.576 L1392.98 72.576 L1392.98 65.6895 Q1390.43 69.8214 1386.62 71.8063 Q1382.81 73.7508 1377.3 73.7508 Q1370.34 73.7508 1366.2 69.8619 Q1362.11 65.9325 1362.11 59.3701 Q1362.11 51.7138 1367.22 47.825 Q1372.36 43.9361 1382.53 43.9361 L1392.98 43.9361 L1392.98 43.2069 Q1392.98 38.0623 1389.58 35.2672 Q1386.22 32.4315 1380.1 32.4315 Q1376.21 32.4315 1372.52 33.3632 Q1368.84 34.295 1365.43 36.1584 L1365.43 29.2718 Q1369.53 27.692 1373.37 26.9223 Q1377.22 26.1121 1380.87 26.1121 Q1390.71 26.1121 1395.57 31.2163 Q1400.43 36.3204 1400.43 46.6907 Z" fill="#000000" fill-rule="nonzero" fill-opacity="1" /><path clip-path="url(#clip590)" d="M1423.16 14.324 L1423.16 27.2059 L1438.51 27.2059 L1438.51 32.9987 L1423.16 32.9987 L1423.16 57.6282 Q1423.16 63.1779 1424.66 64.7578 Q1426.2 66.3376 1430.86 66.3376 L1438.51 66.3376 L1438.51 72.576 L1430.86 72.576 Q1422.23 72.576 1418.95 69.3758 Q1415.67 66.1351 1415.67 57.6282 L1415.67 32.9987 L1410.2 32.9987 L1410.2 27.2059 L1415.67 27.2059 L1415.67 14.324 L1423.16 14.324 Z" fill="#000000" fill-rule="nonzero" fill-opacity="1" /><path clip-path="url(#clip590)" d="M1448.32 27.2059 L1455.77 27.2059 L1455.77 72.576 L1448.32 72.576 L1448.32 27.2059 M1448.32 9.54393 L1455.77 9.54393 L1455.77 18.9825 L1448.32 18.9825 L1448.32 9.54393 Z" fill="#000000" fill-rule="nonzero" fill-opacity="1" /><path clip-path="url(#clip590)" d="M1466.02 27.2059 L1473.92 27.2059 L1488.1 65.2844 L1502.27 27.2059 L1510.17 27.2059 L1493.16 72.576 L1483.03 72.576 L1466.02 27.2059 Z" fill="#000000" fill-rule="nonzero" fill-opacity="1" /><path clip-path="url(#clip590)" d="M1559.27 48.0275 L1559.27 51.6733 L1525 51.6733 Q1525.49 59.3701 1529.62 63.421 Q1533.79 67.4314 1541.2 67.4314 Q1545.5 67.4314 1549.51 66.3781 Q1553.56 65.3249 1557.53 63.2184 L1557.53 70.267 Q1553.52 71.9684 1549.3 72.8596 Q1545.09 73.7508 1540.76 73.7508 Q1529.9 73.7508 1523.54 67.4314 Q1517.22 61.1119 1517.22 50.3365 Q1517.22 39.1965 1523.22 32.6746 Q1529.25 26.1121 1539.46 26.1121 Q1548.62 26.1121 1553.92 32.0264 Q1559.27 37.9003 1559.27 48.0275 M1551.82 45.84 Q1551.74 39.7232 1548.37 36.0774 Q1545.05 32.4315 1539.54 32.4315 Q1533.3 32.4315 1529.54 35.9558 Q1525.81 39.4801 1525.24 45.8805 L1551.82 45.84 Z" fill="#000000" fill-rule="nonzero" fill-opacity="1" /><path clip-path="url(#clip590)" d="M1615.46 32.4315 Q1609.46 32.4315 1605.98 37.1306 Q1602.49 41.7891 1602.49 49.9314 Q1602.49 58.0738 1605.94 62.7728 Q1609.42 67.4314 1615.46 67.4314 Q1621.41 67.4314 1624.89 62.7323 Q1628.38 58.0333 1628.38 49.9314 Q1628.38 41.8701 1624.89 37.1711 Q1621.41 32.4315 1615.46 32.4315 M1615.46 26.1121 Q1625.18 26.1121 1630.73 32.4315 Q1636.28 38.7509 1636.28 49.9314 Q1636.28 61.0714 1630.73 67.4314 Q1625.18 73.7508 1615.46 73.7508 Q1605.69 73.7508 1600.14 67.4314 Q1594.63 61.0714 1594.63 49.9314 Q1594.63 38.7509 1600.14 32.4315 Q1605.69 26.1121 1615.46 26.1121 Z" fill="#000000" fill-rule="nonzero" fill-opacity="1" /><path clip-path="url(#clip590)" d="M1671.6 9.54393 L1671.6 15.7418 L1664.47 15.7418 Q1660.46 15.7418 1658.88 17.3622 Q1657.34 18.9825 1657.34 23.1955 L1657.34 27.2059 L1669.62 27.2059 L1669.62 32.9987 L1657.34 32.9987 L1657.34 72.576 L1649.85 72.576 L1649.85 32.9987 L1642.72 32.9987 L1642.72 27.2059 L1649.85 27.2059 L1649.85 24.0462 Q1649.85 16.471 1653.37 13.0277 Q1656.9 9.54393 1664.55 9.54393 L1671.6 9.54393 Z" fill="#000000" fill-rule="nonzero" fill-opacity="1" /><path clip-path="url(#clip590)" d="M1733.13 28.5427 L1733.13 35.5912 Q1729.97 33.9709 1726.57 33.1607 Q1723.17 32.3505 1719.52 32.3505 Q1713.97 32.3505 1711.18 34.0519 Q1708.42 35.7533 1708.42 39.156 Q1708.42 41.7486 1710.41 43.2475 Q1712.39 44.7058 1718.39 46.0426 L1720.94 46.6097 Q1728.88 48.3111 1732.2 51.4303 Q1735.57 54.509 1735.57 60.0587 Q1735.57 66.3781 1730.54 70.0644 Q1725.56 73.7508 1716.81 73.7508 Q1713.16 73.7508 1709.19 73.0216 Q1705.26 72.3329 1700.89 70.9151 L1700.89 63.2184 Q1705.02 65.3654 1709.03 66.4591 Q1713.04 67.5124 1716.97 67.5124 Q1722.24 67.5124 1725.07 65.73 Q1727.91 63.9071 1727.91 60.6258 Q1727.91 57.5877 1725.84 55.9673 Q1723.82 54.3469 1716.89 52.8481 L1714.3 52.2405 Q1707.37 50.7821 1704.29 47.7845 Q1701.21 44.7463 1701.21 39.4801 Q1701.21 33.0797 1705.75 29.5959 Q1710.29 26.1121 1718.63 26.1121 Q1722.76 26.1121 1726.41 26.7198 Q1730.06 27.3274 1733.13 28.5427 Z" fill="#000000" fill-rule="nonzero" fill-opacity="1" /><path clip-path="url(#clip590)" d="M1765.34 9.62495 Q1759.91 18.942 1757.28 28.0566 Q1754.64 37.1711 1754.64 46.5287 Q1754.64 55.8863 1757.28 65.0818 Q1759.95 74.2369 1765.34 83.5134 L1758.86 83.5134 Q1752.78 73.9938 1749.74 64.7983 Q1746.75 55.6027 1746.75 46.5287 Q1746.75 37.4952 1749.74 28.3401 Q1752.74 19.1851 1758.86 9.62495 L1765.34 9.62495 Z" fill="#000000" fill-rule="nonzero" fill-opacity="1" /><path clip-path="url(#clip590)" d="M1817.51 27.2059 L1801.11 49.2833 L1818.37 72.576 L1809.58 72.576 L1796.37 54.752 L1783.16 72.576 L1774.37 72.576 L1791.99 48.8377 L1775.87 27.2059 L1784.66 27.2059 L1796.69 43.369 L1808.72 27.2059 L1817.51 27.2059 Z" fill="#000000" fill-rule="nonzero" fill-opacity="1" /><path clip-path="url(#clip590)" d="M1847.45 17.4837 Q1841.13 17.4837 1837.93 23.7221 Q1834.77 29.92 1834.77 42.3968 Q1834.77 54.833 1837.93 61.0714 Q1841.13 67.2693 1847.45 67.2693 Q1853.81 67.2693 1856.97 61.0714 Q1860.17 54.833 1860.17 42.3968 Q1860.17 29.92 1856.97 23.7221 Q1853.81 17.4837 1847.45 17.4837 M1847.45 11.0023 Q1857.62 11.0023 1862.97 19.0636 Q1868.35 27.0843 1868.35 42.3968 Q1868.35 57.6687 1862.97 65.73 Q1857.62 73.7508 1847.45 73.7508 Q1837.28 73.7508 1831.9 65.73 Q1826.55 57.6687 1826.55 42.3968 Q1826.55 27.0843 1831.9 19.0636 Q1837.28 11.0023 1847.45 11.0023 Z" fill="#000000" fill-rule="nonzero" fill-opacity="1" /><path clip-path="url(#clip590)" d="M1880.51 9.62495 L1886.99 9.62495 Q1893.06 19.1851 1896.06 28.3401 Q1899.1 37.4952 1899.1 46.5287 Q1899.1 55.6027 1896.06 64.7983 Q1893.06 73.9938 1886.99 83.5134 L1880.51 83.5134 Q1885.89 74.2369 1888.53 65.0818 Q1891.2 55.8863 1891.2 46.5287 Q1891.2 37.1711 1888.53 28.0566 Q1885.89 18.942 1880.51 9.62495 Z" fill="#000000" fill-rule="nonzero" fill-opacity="1" /><path clip-path="url(#clip591)" d="M423.488 1386.4 L432.901 1289.49 L442.313 1289.49 L451.726 1289.49 L461.138 1289.49 L470.55 1289.49 L479.963 1289.49 L489.375 1289.49 L498.788 1289.49 L508.2 1289.49 L517.613 1289.49 L527.025 1289.49 L536.438 1289.49 L545.85 1289.49 L555.262 1289.49 L564.675 1289.49 L574.087 1289.49 L583.5 1289.49 L592.912 1289.49 L602.325 1289.49 L611.737 1289.49 L621.15 1289.49 L630.562 1289.49 L639.974 1289.49 L649.387 1289.49 L658.799 1289.49 L668.212 1289.49 L677.624 1289.49 L687.037 1289.49 L696.449 1289.49 L705.861 1289.49 L715.274 1289.49 L724.686 1289.49 L734.099 1289.49 L743.511 1289.49 L752.924 1289.49 L762.336 1289.49 L771.749 1289.49 L781.161 1289.49 L790.573 1289.49 L799.986 1289.49 L809.398 1289.49 L818.811 1289.49 L828.223 1289.49 L837.636 1289.49 L847.048 1289.49 L856.46 1289.49 L865.873 1289.49 L875.285 1289.49 L884.698 1289.49 L894.11 1289.49 L903.523 1289.49 L912.935 1289.49 L922.348 1289.49 L931.76 1289.49 L941.172 1289.49 L950.585 1289.49 L959.997 1289.49 L969.41 1289.49 L978.822 1289.49 L988.235 1289.49 L997.647 1289.49 L1007.06 1289.49 L1016.47 1289.49 L1025.88 1289.49 L1035.3 1289.49 L1044.71 1289.49 L1054.12 1289.49 L1063.53 1289.49 L1072.95 1289.49 L1082.36 1289.49 L1091.77 1289.49 L1101.18 1289.49 L1110.6 1289.49 L1120.01 1289.49 L1129.42 1289.49 L1138.83 1289.49 L1148.25 1289.49 L1157.66 1289.49 L1167.07 1289.49 L1176.48 1289.49 L1185.9 1289.49 L1195.31 1289.49 L1204.72 1289.49 L1214.13 1289.49 L1223.55 1289.49 L1232.96 1289.49 L1242.37 1289.49 L1251.78 1289.49 L1261.2 1289.49 L1270.61 1289.49 L1280.02 1289.49 L1289.43 1289.49 L1298.85 1289.49 L1308.26 1289.49 L1317.67 1289.49 L1327.08 1289.49 L1336.49 1289.49 L1345.91 1289.49 L1355.32 1289.49 L1364.73 1289.49 L1374.14 1289.49 L1383.56 1289.49 L1392.97 1289.49 L1402.38 1289.49 L1411.79 1289.49 L1421.21 1289.49 L1430.62 1289.49 L1440.03 1289.49 L1449.44 1289.49 L1458.86 1289.49 L1468.27 1289.49 L1477.68 1289.49 L1487.09 1289.49 L1496.51 1289.49 L1505.92 1289.49 L1515.33 1289.49 L1524.74 1289.49 L1534.16 1289.49 L1543.57 1289.49 L1552.98 1289.49 L1562.39 1289.49 L1571.81 1289.49 L1581.22 1289.49 L1590.63 1289.49 L1600.04 1289.49 L1609.46 1289.49 L1618.87 1289.49 L1628.28 1289.49 L1637.69 1289.49 L1647.11 1289.49 L1656.52 1289.49 L1665.93 1289.49 L1675.34 1289.49 L1684.76 1289.49 L1694.17 1289.49 L1703.58 1289.49 L1712.99 1289.49 L1722.4 1289.49 L1731.82 1289.49 L1741.23 1289.49 L1750.64 1289.49 L1760.05 1289.49 L1769.47 1289.49 L1778.88 1289.49 L1788.29 1289.49 L1797.7 1289.49 L1807.12 1289.49 L1816.53 1289.49 L1825.94 1289.49 L1835.35 1289.49 L1844.77 1289.49 L1854.18 1289.49 L1863.59 1289.49 L1873 1289.49 L1882.42 1289.49 L1891.83 1289.49 L1901.24 1289.49 L1910.65 1289.49 L1920.07 1289.49 L1929.48 1289.49 L1938.89 1289.49 L1948.3 1289.49 L1957.72 1289.49 L1967.13 1289.49 L1976.54 1289.49 L1985.95 1289.49 L1995.37 1289.49 L2004.78 1289.49 L2014.19 1289.49 L2023.6 1289.49 L2033.02 1289.49 L2042.43 1289.49 L2051.84 1289.49 L2061.25 1289.49 L2070.67 1289.49 L2080.08 1289.49 L2089.49 1289.49 L2098.9 1289.49 L2108.31 1289.49 L2117.73 1289.49 L2127.14 1289.49 L2136.55 1289.49 L2145.96 1289.49 L2155.38 1289.49 L2164.79 1289.49 L2174.2 1289.49 L2183.61 1289.49 L2193.03 1289.49 L2202.44 1289.49 L2211.85 1289.49 L2221.26 1289.49 L2230.68 1289.49 L2240.09 1289.49 L2249.5 1289.49 L2258.91 1289.49 L2268.33 1289.49 L2277.74 1289.49 L2287.15 1289.49 L2296.56 1360.46 L2296.56 160.256 L2287.15 1289.49 L2277.74 1289.49 L2268.33 1289.49 L2258.91 1289.49 L2249.5 1289.49 L2240.09 1289.49 L2230.68 1289.49 L2221.26 1289.49 L2211.85 1289.49 L2202.44 1289.49 L2193.03 1289.49 L2183.61 1289.49 L2174.2 1289.49 L2164.79 1289.49 L2155.38 1289.49 L2145.96 1289.49 L2136.55 1289.49 L2127.14 1289.49 L2117.73 1289.49 L2108.31 1289.49 L2098.9 1289.49 L2089.49 1289.49 L2080.08 1289.49 L2070.67 1289.49 L2061.25 1289.49 L2051.84 1289.49 L2042.43 1289.49 L2033.02 1289.49 L2023.6 1289.49 L2014.19 1289.49 L2004.78 1289.49 L1995.37 1289.49 L1985.95 1289.49 L1976.54 1289.49 L1967.13 1289.49 L1957.72 1289.49 L1948.3 1289.49 L1938.89 1289.49 L1929.48 1289.49 L1920.07 1289.49 L1910.65 1289.49 L1901.24 1289.49 L1891.83 1289.49 L1882.42 1289.49 L1873 1289.49 L1863.59 1289.49 L1854.18 1289.49 L1844.77 1289.49 L1835.35 1289.49 L1825.94 1289.49 L1816.53 1289.49 L1807.12 1289.49 L1797.7 1289.49 L1788.29 1289.49 L1778.88 1289.49 L1769.47 1289.49 L1760.05 1289.49 L1750.64 1289.49 L1741.23 1289.49 L1731.82 1289.49 L1722.4 1289.49 L1712.99 1289.49 L1703.58 1289.49 L1694.17 1289.49 L1684.76 1289.49 L1675.34 1289.49 L1665.93 1289.49 L1656.52 1289.49 L1647.11 1289.49 L1637.69 1289.49 L1628.28 1289.49 L1618.87 1289.49 L1609.46 1289.49 L1600.04 1289.49 L1590.63 1289.49 L1581.22 1289.49 L1571.81 1289.49 L1562.39 1289.49 L1552.98 1289.49 L1543.57 1289.49 L1534.16 1289.49 L1524.74 1289.49 L1515.33 1289.49 L1505.92 1289.49 L1496.51 1289.49 L1487.09 1289.49 L1477.68 1289.49 L1468.27 1289.49 L1458.86 1289.49 L1449.44 1289.49 L1440.03 1289.49 L1430.62 1289.49 L1421.21 1289.49 L1411.79 1289.49 L1402.38 1289.49 L1392.97 1289.49 L1383.56 1289.49 L1374.14 1289.49 L1364.73 1289.49 L1355.32 1289.49 L1345.91 1289.49 L1336.49 1289.49 L1327.08 1289.49 L1317.67 1289.49 L1308.26 1289.49 L1298.85 1289.49 L1289.43 1289.49 L1280.02 1289.49 L1270.61 1289.49 L1261.2 1289.49 L1251.78 1289.49 L1242.37 1289.49 L1232.96 1289.49 L1223.55 1289.49 L1214.13 1289.49 L1204.72 1289.49 L1195.31 1289.49 L1185.9 1289.49 L1176.48 1289.49 L1167.07 1289.49 L1157.66 1289.49 L1148.25 1289.49 L1138.83 1289.49 L1129.42 1289.49 L1120.01 1289.49 L1110.6 1289.49 L1101.18 1289.49 L1091.77 1289.49 L1082.36 1289.49 L1072.95 1289.49 L1063.53 1289.49 L1054.12 1289.49 L1044.71 1289.49 L1035.3 1289.49 L1025.88 1289.49 L1016.47 1289.49 L1007.06 1289.49 L997.647 1289.49 L988.235 1289.49 L978.822 1289.49 L969.41 1289.49 L959.997 1289.49 L950.585 1289.49 L941.172 1289.49 L931.76 1289.49 L922.348 1289.49 L912.935 1289.49 L903.523 1289.49 L894.11 1289.49 L884.698 1289.49 L875.285 1289.49 L865.873 1289.49 L856.46 1289.49 L847.048 1289.49 L837.636 1289.49 L828.223 1289.49 L818.811 1289.49 L809.398 1289.49 L799.986 1289.49 L790.573 1289.49 L781.161 1289.49 L771.749 1289.49 L762.336 1289.49 L752.924 1289.49 L743.511 1289.49 L734.099 1289.49 L724.686 1289.49 L715.274 1289.49 L705.861 1289.49 L696.449 1289.49 L687.037 1289.49 L677.624 1289.49 L668.212 1289.49 L658.799 1289.49 L649.387 1289.49 L639.974 1289.49 L630.562 1289.49 L621.15 1289.49 L611.737 1289.49 L602.325 1289.49 L592.912 1289.49 L583.5 1289.49 L574.087 1289.49 L564.675 1289.49 L555.262 1289.49 L545.85 1289.49 L536.438 1289.49 L527.025 1289.49 L517.613 1289.49 L508.2 1289.49 L498.788 1289.49 L489.375 1289.49 L479.963 1289.49 L470.55 1289.49 L461.138 1289.49 L451.726 1289.49 L442.313 1289.49 L432.901 1289.49 L423.488 177.081  Z" fill="#ff8c00" fill-rule="evenodd" fill-opacity="0.2"/>
<polyline clip-path="url(#clip591)" style="stroke:#ff8c00; stroke-linecap:round; stroke-linejoin:round; stroke-width:8; stroke-opacity:1; fill:none" points="423.488,781.738 432.901,1289.49 442.313,1289.49 451.726,1289.49 461.138,1289.49 470.55,1289.49 479.963,1289.49 489.375,1289.49 498.788,1289.49 508.2,1289.49 517.613,1289.49 527.025,1289.49 536.438,1289.49 545.85,1289.49 555.262,1289.49 564.675,1289.49 574.087,1289.49 583.5,1289.49 592.912,1289.49 602.325,1289.49 611.737,1289.49 621.15,1289.49 630.562,1289.49 639.974,1289.49 649.387,1289.49 658.799,1289.49 668.212,1289.49 677.624,1289.49 687.037,1289.49 696.449,1289.49 705.861,1289.49 715.274,1289.49 724.686,1289.49 734.099,1289.49 743.511,1289.49 752.924,1289.49 762.336,1289.49 771.749,1289.49 781.161,1289.49 790.573,1289.49 799.986,1289.49 809.398,1289.49 818.811,1289.49 828.223,1289.49 837.636,1289.49 847.048,1289.49 856.46,1289.49 865.873,1289.49 875.285,1289.49 884.698,1289.49 894.11,1289.49 903.523,1289.49 912.935,1289.49 922.348,1289.49 931.76,1289.49 941.172,1289.49 950.585,1289.49 959.997,1289.49 969.41,1289.49 978.822,1289.49 988.235,1289.49 997.647,1289.49 1007.06,1289.49 1016.47,1289.49 1025.88,1289.49 1035.3,1289.49 1044.71,1289.49 1054.12,1289.49 1063.53,1289.49 1072.95,1289.49 1082.36,1289.49 1091.77,1289.49 1101.18,1289.49 1110.6,1289.49 1120.01,1289.49 1129.42,1289.49 1138.83,1289.49 1148.25,1289.49 1157.66,1289.49 1167.07,1289.49 1176.48,1289.49 1185.9,1289.49 1195.31,1289.49 1204.72,1289.49 1214.13,1289.49 1223.55,1289.49 1232.96,1289.49 1242.37,1289.49 1251.78,1289.49 1261.2,1289.49 1270.61,1289.49 1280.02,1289.49 1289.43,1289.49 1298.85,1289.49 1308.26,1289.49 1317.67,1289.49 1327.08,1289.49 1336.49,1289.49 1345.91,1289.49 1355.32,1289.49 1364.73,1289.49 1374.14,1289.49 1383.56,1289.49 1392.97,1289.49 1402.38,1289.49 1411.79,1289.49 1421.21,1289.49 1430.62,1289.49 1440.03,1289.49 1449.44,1289.49 1458.86,1289.49 1468.27,1289.49 1477.68,1289.49 1487.09,1289.49 1496.51,1289.49 1505.92,1289.49 1515.33,1289.49 1524.74,1289.49 1534.16,1289.49 1543.57,1289.49 1552.98,1289.49 1562.39,1289.49 1571.81,1289.49 1581.22,1289.49 1590.63,1289.49 1600.04,1289.49 1609.46,1289.49 1618.87,1289.49 1628.28,1289.49 1637.69,1289.49 1647.11,1289.49 1656.52,1289.49 1665.93,1289.49 1675.34,1289.49 1684.76,1289.49 1694.17,1289.49 1703.58,1289.49 1712.99,1289.49 1722.4,1289.49 1731.82,1289.49 1741.23,1289.49 1750.64,1289.49 1760.05,1289.49 1769.47,1289.49 1778.88,1289.49 1788.29,1289.49 1797.7,1289.49 1807.12,1289.49 1816.53,1289.49 1825.94,1289.49 1835.35,1289.49 1844.77,1289.49 1854.18,1289.49 1863.59,1289.49 1873,1289.49 1882.42,1289.49 1891.83,1289.49 1901.24,1289.49 1910.65,1289.49 1920.07,1289.49 1929.48,1289.49 1938.89,1289.49 1948.3,1289.49 1957.72,1289.49 1967.13,1289.49 1976.54,1289.49 1985.95,1289.49 1995.37,1289.49 2004.78,1289.49 2014.19,1289.49 2023.6,1289.49 2033.02,1289.49 2042.43,1289.49 2051.84,1289.49 2061.25,1289.49 2070.67,1289.49 2080.08,1289.49 2089.49,1289.49 2098.9,1289.49 2108.31,1289.49 2117.73,1289.49 2127.14,1289.49 2136.55,1289.49 2145.96,1289.49 2155.38,1289.49 2164.79,1289.49 2174.2,1289.49 2183.61,1289.49 2193.03,1289.49 2202.44,1289.49 2211.85,1289.49 2221.26,1289.49 2230.68,1289.49 2240.09,1289.49 2249.5,1289.49 2258.91,1289.49 2268.33,1289.49 2277.74,1289.49 2287.15,1289.49 2296.56,760.359 "/>
<path clip-path="url(#clip590)" d="M1907.45 270.476 L2286.57 270.476 L2286.57 166.796 L1907.45 166.796  Z" fill="#ffffff" fill-rule="evenodd" fill-opacity="1"/>
<polyline clip-path="url(#clip590)" style="stroke:#000000; stroke-linecap:round; stroke-linejoin:round; stroke-width:4; stroke-opacity:1; fill:none" points="1907.45,270.476 2286.57,270.476 2286.57,166.796 1907.45,166.796 1907.45,270.476 "/>
<polyline clip-path="url(#clip590)" style="stroke:#ff8c00; stroke-linecap:round; stroke-linejoin:round; stroke-width:8; stroke-opacity:1; fill:none" points="1929.51,218.636 2061.87,218.636 "/>
<path clip-path="url(#clip590)" d="M2091.85 236.587 Q2088.59 236.587 2086.46 234.619 Q2083.94 232.281 2083.94 228.045 Q2083.94 223.647 2086.16 220.221 Q2088.45 216.703 2092.57 216.703 Q2095.28 216.703 2097.41 218.393 Q2098.66 219.388 2099.51 221.055 Q2099.82 219.18 2099.82 217.05 Q2099.82 213.925 2099.07 212.12 Q2097.43 208.115 2093.08 208.115 Q2091.44 208.115 2088.89 209.133 L2088.89 205.245 Q2091.57 204.527 2093.98 204.527 Q2100.19 204.527 2102.82 210.221 Q2104.05 212.907 2104.05 216.911 Q2104.05 219.527 2103.47 222.559 Q2102.01 230.152 2098.24 233.763 Q2095.28 236.587 2091.85 236.587 M2087.89 228.74 Q2087.89 231.055 2088.91 232.305 Q2090 233.624 2091.67 233.624 Q2093.15 233.624 2094.33 232.582 Q2096 231.147 2097.22 228.809 Q2098.24 226.888 2098.75 224.828 Q2096.69 219.851 2093.13 219.851 Q2090.07 219.851 2088.73 223.879 Q2087.89 226.379 2087.89 228.74 Z" fill="#000000" fill-rule="nonzero" fill-opacity="1" /><path clip-path="url(#clip590)" d="M2112.45 217.814 L2122.27 217.814 L2122.27 220.453 L2108.43 220.453 L2108.43 217.907 Q2109.21 217.189 2110.67 215.893 Q2118.63 208.833 2118.63 206.657 Q2118.63 205.129 2117.43 204.203 Q2116.23 203.254 2114.26 203.254 Q2113.06 203.254 2111.64 203.671 Q2110.23 204.064 2108.57 204.874 L2108.57 202.027 Q2110.35 201.379 2111.88 201.055 Q2113.43 200.731 2114.75 200.731 Q2118.1 200.731 2120.12 202.258 Q2122.13 203.786 2122.13 206.286 Q2122.13 209.504 2114.47 216.078 Q2113.17 217.189 2112.45 217.814 Z" fill="#000000" fill-rule="nonzero" fill-opacity="1" /><path clip-path="url(#clip590)" d="M2142.85 199.897 L2142.85 203.439 L2138.77 203.439 Q2136.48 203.439 2135.58 204.365 Q2134.7 205.291 2134.7 207.698 L2134.7 209.99 L2141.71 209.99 L2141.71 213.3 L2134.7 213.3 L2134.7 235.916 L2130.42 235.916 L2130.42 213.3 L2126.34 213.3 L2126.34 209.99 L2130.42 209.99 L2130.42 208.184 Q2130.42 203.856 2132.43 201.888 Q2134.44 199.897 2138.82 199.897 L2142.85 199.897 Z" fill="#000000" fill-rule="nonzero" fill-opacity="1" /><path clip-path="url(#clip590)" d="M2155.14 220.245 Q2153.98 218.254 2151.64 218.254 Q2149.31 218.254 2148.15 220.245 Q2146.97 222.235 2146.97 226.217 Q2146.97 230.221 2148.15 232.212 Q2149.31 234.203 2151.64 234.203 Q2153.98 234.203 2155.14 232.212 Q2156.32 230.221 2156.32 226.217 Q2156.32 222.235 2155.14 220.245 M2151.64 216.194 Q2155.37 216.194 2157.34 218.763 Q2159.31 221.332 2159.31 226.217 Q2159.31 231.124 2157.34 233.694 Q2155.37 236.263 2151.64 236.263 Q2147.89 236.263 2145.93 233.694 Q2143.96 231.124 2143.96 226.217 Q2143.96 221.332 2145.93 218.763 Q2147.89 216.194 2151.64 216.194 Z" fill="#000000" fill-rule="nonzero" fill-opacity="1" /><path clip-path="url(#clip590)" d="M2172.99 201.356 L2176.92 201.356 L2164.88 240.314 L2160.95 240.314 L2172.99 201.356 Z" fill="#000000" fill-rule="nonzero" fill-opacity="1" /><path clip-path="url(#clip590)" d="M2187.04 236.587 Q2183.77 236.587 2181.64 234.619 Q2179.12 232.281 2179.12 228.045 Q2179.12 223.647 2181.34 220.221 Q2183.63 216.703 2187.75 216.703 Q2190.46 216.703 2192.59 218.393 Q2193.84 219.388 2194.7 221.055 Q2195 219.18 2195 217.05 Q2195 213.925 2194.26 212.12 Q2192.62 208.115 2188.26 208.115 Q2186.62 208.115 2184.07 209.133 L2184.07 205.245 Q2186.76 204.527 2189.17 204.527 Q2195.37 204.527 2198.01 210.221 Q2199.24 212.907 2199.24 216.911 Q2199.24 219.527 2198.66 222.559 Q2197.2 230.152 2193.43 233.763 Q2190.46 236.587 2187.04 236.587 M2183.08 228.74 Q2183.08 231.055 2184.1 232.305 Q2185.18 233.624 2186.85 233.624 Q2188.33 233.624 2189.51 232.582 Q2191.18 231.147 2192.41 228.809 Q2193.43 226.888 2193.93 224.828 Q2191.87 219.851 2188.31 219.851 Q2185.25 219.851 2183.91 223.879 Q2183.08 226.379 2183.08 228.74 Z" fill="#000000" fill-rule="nonzero" fill-opacity="1" /><path clip-path="url(#clip590)" d="M2227.45 209.99 L2218.08 222.606 L2227.94 235.916 L2222.92 235.916 L2215.37 225.731 L2207.82 235.916 L2202.8 235.916 L2212.87 222.351 L2203.66 209.99 L2208.68 209.99 L2215.56 219.226 L2222.43 209.99 L2227.45 209.99 Z" fill="#000000" fill-rule="nonzero" fill-opacity="1" /><path clip-path="url(#clip590)" d="M2242.68 220.245 Q2241.53 218.254 2239.19 218.254 Q2236.85 218.254 2235.69 220.245 Q2234.51 222.235 2234.51 226.217 Q2234.51 230.221 2235.69 232.212 Q2236.85 234.203 2239.19 234.203 Q2241.53 234.203 2242.68 232.212 Q2243.87 230.221 2243.87 226.217 Q2243.87 222.235 2242.68 220.245 M2239.19 216.194 Q2242.92 216.194 2244.88 218.763 Q2246.85 221.332 2246.85 226.217 Q2246.85 231.124 2244.88 233.694 Q2242.92 236.263 2239.19 236.263 Q2235.44 236.263 2233.47 233.694 Q2231.5 231.124 2231.5 226.217 Q2231.5 221.332 2233.47 218.763 Q2235.44 216.194 2239.19 216.194 Z" fill="#000000" fill-rule="nonzero" fill-opacity="1" /><path clip-path="url(#clip590)" d="M2254.7 217.814 L2264.51 217.814 L2264.51 220.453 L2250.67 220.453 L2250.67 217.907 Q2251.46 217.189 2252.92 215.893 Q2260.88 208.833 2260.88 206.657 Q2260.88 205.129 2259.68 204.203 Q2258.47 203.254 2256.5 203.254 Q2255.3 203.254 2253.89 203.671 Q2252.48 204.064 2250.81 204.874 L2250.81 202.027 Q2252.59 201.379 2254.12 201.055 Q2255.67 200.731 2256.99 200.731 Q2260.35 200.731 2262.36 202.258 Q2264.37 203.786 2264.37 206.286 Q2264.37 209.504 2256.71 216.078 Q2255.42 217.189 2254.7 217.814 Z" fill="#000000" fill-rule="nonzero" fill-opacity="1" /></svg>
