<?xml version="1.0" encoding="utf-8"?>
<svg xmlns="http://www.w3.org/2000/svg" xmlns:xlink="http://www.w3.org/1999/xlink" width="900" height="350" viewBox="0 0 3600 1400">
<defs>
  <clipPath id="clip140">
    <rect x="0" y="0" width="3600" height="1400"/>
  </clipPath>
</defs>
<path clip-path="url(#clip140)" d="M0 1400 L3600 1400 L3600 -2.22045e-14 L0 -2.22045e-14  Z" fill="#ffffff" fill-rule="evenodd" fill-opacity="1"/>
<defs>
  <clipPath id="clip141">
    <rect x="2052" y="98" width="1501" height="1155"/>
  </clipPath>
</defs>
<path clip-path="url(#clip140)" d="M281.244 1252.21 L1781.08 1252.21 L1781.08 98.2721 L281.244 98.2721  Z" fill="#ffffff" fill-rule="evenodd" fill-opacity="1"/>
<defs>
  <clipPath id="clip142">
    <rect x="281" y="98" width="1501" height="1155"/>
  </clipPath>
</defs>
<polyline clip-path="url(#clip142)" style="stroke:#000000; stroke-linecap:round; stroke-linejoin:round; stroke-width:2; stroke-opacity:0.1; fill:none" points="323.692,1252.21 323.692,98.2721 "/>
<polyline clip-path="url(#clip142)" style="stroke:#000000; stroke-linecap:round; stroke-linejoin:round; stroke-width:2; stroke-opacity:0.1; fill:none" points="867.47,1252.21 867.47,98.2721 "/>
<polyline clip-path="url(#clip142)" style="stroke:#000000; stroke-linecap:round; stroke-linejoin:round; stroke-width:2; stroke-opacity:0.1; fill:none" points="1411.25,1252.21 1411.25,98.2721 "/>
<polyline clip-path="url(#clip142)" style="stroke:#000000; stroke-linecap:round; stroke-linejoin:round; stroke-width:2; stroke-opacity:0.1; fill:none" points="281.244,1007.2 1781.08,1007.2 "/>
<polyline clip-path="url(#clip142)" style="stroke:#000000; stroke-linecap:round; stroke-linejoin:round; stroke-width:2; stroke-opacity:0.1; fill:none" points="281.244,700.372 1781.08,700.372 "/>
<polyline clip-path="url(#clip142)" style="stroke:#000000; stroke-linecap:round; stroke-linejoin:round; stroke-width:2; stroke-opacity:0.1; fill:none" points="281.244,393.543 1781.08,393.543 "/>
<polyline clip-path="url(#clip140)" style="stroke:#000000; stroke-linecap:round; stroke-linejoin:round; stroke-width:4; stroke-opacity:1; fill:none" points="281.244,1252.21 1781.08,1252.21 "/>
<polyline clip-path="url(#clip140)" style="stroke:#000000; stroke-linecap:round; stroke-linejoin:round; stroke-width:4; stroke-opacity:1; fill:none" points="323.692,1252.21 323.692,1233.32 "/>
<polyline clip-path="url(#clip140)" style="stroke:#000000; stroke-linecap:round; stroke-linejoin:round; stroke-width:4; stroke-opacity:1; fill:none" points="867.47,1252.21 867.47,1233.32 "/>
<polyline clip-path="url(#clip140)" style="stroke:#000000; stroke-linecap:round; stroke-linejoin:round; stroke-width:4; stroke-opacity:1; fill:none" points="1411.25,1252.21 1411.25,1233.32 "/>
<path clip-path="url(#clip140)" d="M270.498 1335.94 L278.136 1335.94 L278.136 1309.57 L269.826 1311.24 L269.826 1306.98 L278.09 1305.31 L282.766 1305.31 L282.766 1335.94 L290.405 1335.94 L290.405 1339.87 L270.498 1339.87 L270.498 1335.94 Z" fill="#000000" fill-rule="nonzero" fill-opacity="1" /><path clip-path="url(#clip140)" d="M309.849 1308.39 Q306.238 1308.39 304.409 1311.96 Q302.604 1315.5 302.604 1322.63 Q302.604 1329.74 304.409 1333.3 Q306.238 1336.84 309.849 1336.84 Q313.483 1336.84 315.289 1333.3 Q317.118 1329.74 317.118 1322.63 Q317.118 1315.5 315.289 1311.96 Q313.483 1308.39 309.849 1308.39 M309.849 1304.69 Q315.659 1304.69 318.715 1309.3 Q321.794 1313.88 321.794 1322.63 Q321.794 1331.36 318.715 1335.96 Q315.659 1340.55 309.849 1340.55 Q304.039 1340.55 300.96 1335.96 Q297.905 1331.36 297.905 1322.63 Q297.905 1313.88 300.96 1309.3 Q304.039 1304.69 309.849 1304.69 Z" fill="#000000" fill-rule="nonzero" fill-opacity="1" /><path clip-path="url(#clip140)" d="M334.489 1297.32 Q337.216 1297.91 338.739 1299.75 Q340.282 1301.59 340.282 1304.3 Q340.282 1308.46 337.423 1310.73 Q334.564 1313.01 329.298 1313.01 Q327.53 1313.01 325.649 1312.65 Q323.787 1312.31 321.794 1311.62 L321.794 1307.95 Q323.373 1308.87 325.254 1309.34 Q327.135 1309.81 329.185 1309.81 Q332.758 1309.81 334.62 1308.4 Q336.501 1306.99 336.501 1304.3 Q336.501 1301.82 334.752 1300.43 Q333.022 1299.02 329.919 1299.02 L326.646 1299.02 L326.646 1295.89 L330.069 1295.89 Q332.871 1295.89 334.357 1294.78 Q335.843 1293.66 335.843 1291.55 Q335.843 1289.39 334.301 1288.24 Q332.777 1287.07 329.919 1287.07 Q328.357 1287.07 326.571 1287.41 Q324.784 1287.75 322.64 1288.47 L322.64 1285.08 Q324.803 1284.48 326.684 1284.18 Q328.583 1283.88 330.257 1283.88 Q334.583 1283.88 337.103 1285.85 Q339.623 1287.81 339.623 1291.16 Q339.623 1293.49 338.288 1295.1 Q336.953 1296.7 334.489 1297.32 Z" fill="#000000" fill-rule="nonzero" fill-opacity="1" /><path clip-path="url(#clip140)" d="M347.485 1307.69 L351.453 1307.69 L351.453 1312.46 L347.485 1312.46 L347.485 1307.69 Z" fill="#000000" fill-rule="nonzero" fill-opacity="1" /><path clip-path="url(#clip140)" d="M367.854 1286.89 Q364.92 1286.89 363.434 1289.78 Q361.967 1292.66 361.967 1298.45 Q361.967 1304.23 363.434 1307.12 Q364.92 1310 367.854 1310 Q370.807 1310 372.274 1307.12 Q373.759 1304.23 373.759 1298.45 Q373.759 1292.66 372.274 1289.78 Q370.807 1286.89 367.854 1286.89 M367.854 1283.88 Q372.575 1283.88 375.057 1287.62 Q377.559 1291.34 377.559 1298.45 Q377.559 1305.54 375.057 1309.29 Q372.575 1313.01 367.854 1313.01 Q363.133 1313.01 360.632 1309.29 Q358.149 1305.54 358.149 1298.45 Q358.149 1291.34 360.632 1287.62 Q363.133 1283.88 367.854 1283.88 Z" fill="#000000" fill-rule="nonzero" fill-opacity="1" /><path clip-path="url(#clip140)" d="M814.68 1335.94 L822.319 1335.94 L822.319 1309.57 L814.008 1311.24 L814.008 1306.98 L822.272 1305.31 L826.948 1305.31 L826.948 1335.94 L834.587 1335.94 L834.587 1339.87 L814.68 1339.87 L814.68 1335.94 Z" fill="#000000" fill-rule="nonzero" fill-opacity="1" /><path clip-path="url(#clip140)" d="M854.031 1308.39 Q850.42 1308.39 848.592 1311.96 Q846.786 1315.5 846.786 1322.63 Q846.786 1329.74 848.592 1333.3 Q850.42 1336.84 854.031 1336.84 Q857.666 1336.84 859.471 1333.3 Q861.3 1329.74 861.3 1322.63 Q861.3 1315.5 859.471 1311.96 Q857.666 1308.39 854.031 1308.39 M854.031 1304.69 Q859.842 1304.69 862.897 1309.3 Q865.976 1313.88 865.976 1322.63 Q865.976 1331.36 862.897 1335.96 Q859.842 1340.55 854.031 1340.55 Q848.221 1340.55 845.143 1335.96 Q842.087 1331.36 842.087 1322.63 Q842.087 1313.88 845.143 1309.3 Q848.221 1304.69 854.031 1304.69 Z" fill="#000000" fill-rule="nonzero" fill-opacity="1" /><path clip-path="url(#clip140)" d="M878.671 1297.32 Q881.398 1297.91 882.922 1299.75 Q884.464 1301.59 884.464 1304.3 Q884.464 1308.46 881.605 1310.73 Q878.746 1313.01 873.48 1313.01 Q871.712 1313.01 869.831 1312.65 Q867.969 1312.31 865.976 1311.62 L865.976 1307.95 Q867.556 1308.87 869.436 1309.34 Q871.317 1309.81 873.367 1309.81 Q876.941 1309.81 878.803 1308.4 Q880.683 1306.99 880.683 1304.3 Q880.683 1301.82 878.934 1300.43 Q877.204 1299.02 874.101 1299.02 L870.828 1299.02 L870.828 1295.89 L874.251 1295.89 Q877.054 1295.89 878.539 1294.78 Q880.025 1293.66 880.025 1291.55 Q880.025 1289.39 878.483 1288.24 Q876.96 1287.07 874.101 1287.07 Q872.54 1287.07 870.753 1287.41 Q868.966 1287.75 866.822 1288.47 L866.822 1285.08 Q868.985 1284.48 870.866 1284.18 Q872.765 1283.88 874.439 1283.88 Q878.765 1283.88 881.285 1285.85 Q883.806 1287.81 883.806 1291.16 Q883.806 1293.49 882.47 1295.1 Q881.135 1296.7 878.671 1297.32 Z" fill="#000000" fill-rule="nonzero" fill-opacity="1" /><path clip-path="url(#clip140)" d="M891.667 1307.69 L895.636 1307.69 L895.636 1312.46 L891.667 1312.46 L891.667 1307.69 Z" fill="#000000" fill-rule="nonzero" fill-opacity="1" /><path clip-path="url(#clip140)" d="M903.949 1284.38 L918.863 1284.38 L918.863 1287.58 L907.428 1287.58 L907.428 1294.47 Q908.256 1294.18 909.083 1294.05 Q909.911 1293.9 910.738 1293.9 Q915.44 1293.9 918.186 1296.48 Q920.932 1299.05 920.932 1303.46 Q920.932 1307.99 918.111 1310.51 Q915.29 1313.01 910.155 1313.01 Q908.387 1313.01 906.544 1312.71 Q904.72 1312.41 902.764 1311.81 L902.764 1307.99 Q904.456 1308.91 906.262 1309.36 Q908.068 1309.81 910.08 1309.81 Q913.334 1309.81 915.233 1308.1 Q917.133 1306.39 917.133 1303.46 Q917.133 1300.52 915.233 1298.81 Q913.334 1297.1 910.08 1297.1 Q908.557 1297.1 907.033 1297.44 Q905.529 1297.78 903.949 1298.49 L903.949 1284.38 Z" fill="#000000" fill-rule="nonzero" fill-opacity="1" /><path clip-path="url(#clip140)" d="M1357.53 1335.94 L1365.17 1335.94 L1365.17 1309.57 L1356.86 1311.24 L1356.86 1306.98 L1365.12 1305.31 L1369.8 1305.31 L1369.8 1335.94 L1377.43 1335.94 L1377.43 1339.87 L1357.53 1339.87 L1357.53 1335.94 Z" fill="#000000" fill-rule="nonzero" fill-opacity="1" /><path clip-path="url(#clip140)" d="M1396.88 1308.39 Q1393.27 1308.39 1391.44 1311.96 Q1389.63 1315.5 1389.63 1322.63 Q1389.63 1329.74 1391.44 1333.3 Q1393.27 1336.84 1396.88 1336.84 Q1400.51 1336.84 1402.32 1333.3 Q1404.15 1329.74 1404.15 1322.63 Q1404.15 1315.5 1402.32 1311.96 Q1400.51 1308.39 1396.88 1308.39 M1396.88 1304.69 Q1402.69 1304.69 1405.74 1309.3 Q1408.82 1313.88 1408.82 1322.63 Q1408.82 1331.36 1405.74 1335.96 Q1402.69 1340.55 1396.88 1340.55 Q1391.07 1340.55 1387.99 1335.96 Q1384.93 1331.36 1384.93 1322.63 Q1384.93 1313.88 1387.99 1309.3 Q1391.07 1304.69 1396.88 1304.69 Z" fill="#000000" fill-rule="nonzero" fill-opacity="1" /><path clip-path="url(#clip140)" d="M1421.5 1287.69 L1411.91 1302.68 L1421.5 1302.68 L1421.5 1287.69 M1420.5 1284.38 L1425.28 1284.38 L1425.28 1302.68 L1429.29 1302.68 L1429.29 1305.84 L1425.28 1305.84 L1425.28 1312.46 L1421.5 1312.46 L1421.5 1305.84 L1408.82 1305.84 L1408.82 1302.18 L1420.5 1284.38 Z" fill="#000000" fill-rule="nonzero" fill-opacity="1" /><path clip-path="url(#clip140)" d="M1435.57 1307.69 L1439.54 1307.69 L1439.54 1312.46 L1435.57 1312.46 L1435.57 1307.69 Z" fill="#000000" fill-rule="nonzero" fill-opacity="1" /><path clip-path="url(#clip140)" d="M1455.94 1286.89 Q1453 1286.89 1451.52 1289.78 Q1450.05 1292.66 1450.05 1298.45 Q1450.05 1304.23 1451.52 1307.12 Q1453 1310 1455.94 1310 Q1458.89 1310 1460.36 1307.12 Q1461.84 1304.23 1461.84 1298.45 Q1461.84 1292.66 1460.36 1289.78 Q1458.89 1286.89 1455.94 1286.89 M1455.94 1283.88 Q1460.66 1283.88 1463.14 1287.62 Q1465.64 1291.34 1465.64 1298.45 Q1465.64 1305.54 1463.14 1309.29 Q1460.66 1313.01 1455.94 1313.01 Q1451.22 1313.01 1448.71 1309.29 Q1446.23 1305.54 1446.23 1298.45 Q1446.23 1291.34 1448.71 1287.62 Q1451.22 1283.88 1455.94 1283.88 Z" fill="#000000" fill-rule="nonzero" fill-opacity="1" /><path clip-path="url(#clip140)" d="M1046.09 1411.99 L1046.09 1433.5 L1040.23 1433.5 L1040.23 1412.18 Q1040.23 1407.12 1038.26 1404.6 Q1036.29 1402.09 1032.34 1402.09 Q1027.6 1402.09 1024.86 1405.11 Q1022.12 1408.14 1022.12 1413.36 L1022.12 1433.5 L1016.24 1433.5 L1016.24 1397.86 L1022.12 1397.86 L1022.12 1403.39 Q1024.23 1400.18 1027.06 1398.59 Q1029.92 1397 1033.65 1397 Q1039.79 1397 1042.94 1400.82 Q1046.09 1404.6 1046.09 1411.99 Z" fill="#000000" fill-rule="nonzero" fill-opacity="1" /><polyline clip-path="url(#clip140)" style="stroke:#000000; stroke-linecap:round; stroke-linejoin:round; stroke-width:4; stroke-opacity:1; fill:none" points="281.244,1252.21 281.244,98.2721 "/>
<polyline clip-path="url(#clip140)" style="stroke:#000000; stroke-linecap:round; stroke-linejoin:round; stroke-width:4; stroke-opacity:1; fill:none" points="281.244,1007.2 300.142,1007.2 "/>
<polyline clip-path="url(#clip140)" style="stroke:#000000; stroke-linecap:round; stroke-linejoin:round; stroke-width:4; stroke-opacity:1; fill:none" points="281.244,700.372 300.142,700.372 "/>
<polyline clip-path="url(#clip140)" style="stroke:#000000; stroke-linecap:round; stroke-linejoin:round; stroke-width:4; stroke-opacity:1; fill:none" points="281.244,393.543 300.142,393.543 "/>
<path clip-path="url(#clip140)" d="M89.1315 1026.99 L96.7703 1026.99 L96.7703 1000.63 L88.4602 1002.29 L88.4602 998.035 L96.724 996.368 L101.4 996.368 L101.4 1026.99 L109.039 1026.99 L109.039 1030.93 L89.1315 1030.93 L89.1315 1026.99 Z" fill="#000000" fill-rule="nonzero" fill-opacity="1" /><path clip-path="url(#clip140)" d="M128.483 999.447 Q124.872 999.447 123.043 1003.01 Q121.238 1006.55 121.238 1013.68 Q121.238 1020.79 123.043 1024.35 Q124.872 1027.9 128.483 1027.9 Q132.117 1027.9 133.923 1024.35 Q135.752 1020.79 135.752 1013.68 Q135.752 1006.55 133.923 1003.01 Q132.117 999.447 128.483 999.447 M128.483 995.743 Q134.293 995.743 137.349 1000.35 Q140.427 1004.93 140.427 1013.68 Q140.427 1022.41 137.349 1027.02 Q134.293 1031.6 128.483 1031.6 Q122.673 1031.6 119.594 1027.02 Q116.539 1022.41 116.539 1013.68 Q116.539 1004.93 119.594 1000.35 Q122.673 995.743 128.483 995.743 Z" fill="#000000" fill-rule="nonzero" fill-opacity="1" /><path clip-path="url(#clip140)" d="M140.427 989.845 L164.539 989.845 L164.539 993.042 L140.427 993.042 L140.427 989.845 Z" fill="#000000" fill-rule="nonzero" fill-opacity="1" /><path clip-path="url(#clip140)" d="M173.397 1000.32 L179.604 1000.32 L179.604 978.899 L172.852 980.253 L172.852 976.792 L179.566 975.438 L183.366 975.438 L183.366 1000.32 L189.572 1000.32 L189.572 1003.52 L173.397 1003.52 L173.397 1000.32 Z" fill="#000000" fill-rule="nonzero" fill-opacity="1" /><path clip-path="url(#clip140)" d="M197.246 998.741 L201.214 998.741 L201.214 1003.52 L197.246 1003.52 L197.246 998.741 Z" fill="#000000" fill-rule="nonzero" fill-opacity="1" /><path clip-path="url(#clip140)" d="M217.615 990.183 Q214.906 990.183 213.345 991.632 Q211.803 993.08 211.803 995.619 Q211.803 998.158 213.345 999.606 Q214.906 1001.05 217.615 1001.05 Q220.323 1001.05 221.884 999.606 Q223.445 998.139 223.445 995.619 Q223.445 993.08 221.884 991.632 Q220.342 990.183 217.615 990.183 M213.815 988.566 Q211.37 987.964 209.997 986.29 Q208.643 984.616 208.643 982.209 Q208.643 978.842 211.032 976.886 Q213.439 974.93 217.615 974.93 Q221.809 974.93 224.197 976.886 Q226.586 978.842 226.586 982.209 Q226.586 984.616 225.213 986.29 Q223.859 987.964 221.433 988.566 Q224.178 989.205 225.702 991.067 Q227.244 992.929 227.244 995.619 Q227.244 999.7 224.743 1001.88 Q222.26 1004.06 217.615 1004.06 Q212.969 1004.06 210.468 1001.88 Q207.985 999.7 207.985 995.619 Q207.985 992.929 209.527 991.067 Q211.069 989.205 213.815 988.566 M212.424 982.566 Q212.424 984.748 213.778 985.97 Q215.151 987.193 217.615 987.193 Q220.06 987.193 221.433 985.97 Q222.824 984.748 222.824 982.566 Q222.824 980.384 221.433 979.162 Q220.06 977.939 217.615 977.939 Q215.151 977.939 213.778 979.162 Q212.424 980.384 212.424 982.566 Z" fill="#000000" fill-rule="nonzero" fill-opacity="1" /><path clip-path="url(#clip140)" d="M89.865 720.164 L97.5038 720.164 L97.5038 693.799 L89.1937 695.465 L89.1937 691.206 L97.4575 689.539 L102.133 689.539 L102.133 720.164 L109.772 720.164 L109.772 724.099 L89.865 724.099 L89.865 720.164 Z" fill="#000000" fill-rule="nonzero" fill-opacity="1" /><path clip-path="url(#clip140)" d="M129.217 692.618 Q125.606 692.618 123.777 696.183 Q121.971 699.725 121.971 706.854 Q121.971 713.961 123.777 717.525 Q125.606 721.067 129.217 721.067 Q132.851 721.067 134.656 717.525 Q136.485 713.961 136.485 706.854 Q136.485 699.725 134.656 696.183 Q132.851 692.618 129.217 692.618 M129.217 688.914 Q135.027 688.914 138.082 693.521 Q141.161 698.104 141.161 706.854 Q141.161 715.581 138.082 720.187 Q135.027 724.771 129.217 724.771 Q123.406 724.771 120.328 720.187 Q117.272 715.581 117.272 706.854 Q117.272 698.104 120.328 693.521 Q123.406 688.914 129.217 688.914 Z" fill="#000000" fill-rule="nonzero" fill-opacity="1" /><path clip-path="url(#clip140)" d="M141.161 683.016 L165.273 683.016 L165.273 686.213 L141.161 686.213 L141.161 683.016 Z" fill="#000000" fill-rule="nonzero" fill-opacity="1" /><path clip-path="url(#clip140)" d="M174.131 693.492 L180.338 693.492 L180.338 672.07 L173.586 673.424 L173.586 669.963 L180.3 668.609 L184.099 668.609 L184.099 693.492 L190.306 693.492 L190.306 696.689 L174.131 696.689 L174.131 693.492 Z" fill="#000000" fill-rule="nonzero" fill-opacity="1" /><path clip-path="url(#clip140)" d="M197.979 691.912 L201.948 691.912 L201.948 696.689 L197.979 696.689 L197.979 691.912 Z" fill="#000000" fill-rule="nonzero" fill-opacity="1" /><path clip-path="url(#clip140)" d="M210.261 668.609 L225.175 668.609 L225.175 671.806 L213.74 671.806 L213.74 678.69 Q214.568 678.408 215.395 678.276 Q216.223 678.126 217.05 678.126 Q221.752 678.126 224.498 680.702 Q227.244 683.279 227.244 687.68 Q227.244 692.213 224.423 694.733 Q221.602 697.235 216.467 697.235 Q214.699 697.235 212.856 696.934 Q211.032 696.633 209.076 696.031 L209.076 692.213 Q210.769 693.134 212.574 693.586 Q214.38 694.037 216.392 694.037 Q219.646 694.037 221.545 692.326 Q223.445 690.614 223.445 687.68 Q223.445 684.746 221.545 683.035 Q219.646 681.323 216.392 681.323 Q214.869 681.323 213.345 681.662 Q211.841 682 210.261 682.715 L210.261 668.609 Z" fill="#000000" fill-rule="nonzero" fill-opacity="1" /><path clip-path="url(#clip140)" d="M90.354 413.335 L97.9928 413.335 L97.9928 386.97 L89.6827 388.636 L89.6827 384.377 L97.9465 382.711 L102.622 382.711 L102.622 413.335 L110.261 413.335 L110.261 417.271 L90.354 417.271 L90.354 413.335 Z" fill="#000000" fill-rule="nonzero" fill-opacity="1" /><path clip-path="url(#clip140)" d="M129.706 385.789 Q126.095 385.789 124.266 389.354 Q122.46 392.896 122.46 400.025 Q122.46 407.132 124.266 410.696 Q126.095 414.238 129.706 414.238 Q133.34 414.238 135.145 410.696 Q136.974 407.132 136.974 400.025 Q136.974 392.896 135.145 389.354 Q133.34 385.789 129.706 385.789 M129.706 382.086 Q135.516 382.086 138.571 386.692 Q141.65 391.275 141.65 400.025 Q141.65 408.752 138.571 413.359 Q135.516 417.942 129.706 417.942 Q123.895 417.942 120.817 413.359 Q117.761 408.752 117.761 400.025 Q117.761 391.275 120.817 386.692 Q123.895 382.086 129.706 382.086 Z" fill="#000000" fill-rule="nonzero" fill-opacity="1" /><path clip-path="url(#clip140)" d="M141.65 376.187 L165.762 376.187 L165.762 379.384 L141.65 379.384 L141.65 376.187 Z" fill="#000000" fill-rule="nonzero" fill-opacity="1" /><path clip-path="url(#clip140)" d="M174.62 386.663 L180.827 386.663 L180.827 365.241 L174.075 366.595 L174.075 363.134 L180.789 361.78 L184.588 361.78 L184.588 386.663 L190.795 386.663 L190.795 389.86 L174.62 389.86 L174.62 386.663 Z" fill="#000000" fill-rule="nonzero" fill-opacity="1" /><path clip-path="url(#clip140)" d="M198.468 385.083 L202.437 385.083 L202.437 389.86 L198.468 389.86 L198.468 385.083 Z" fill="#000000" fill-rule="nonzero" fill-opacity="1" /><path clip-path="url(#clip140)" d="M213.985 386.663 L227.244 386.663 L227.244 389.86 L209.414 389.86 L209.414 386.663 Q211.577 384.425 215.301 380.663 Q219.044 376.883 220.003 375.792 Q221.827 373.742 222.542 372.331 Q223.276 370.902 223.276 369.529 Q223.276 367.291 221.696 365.88 Q220.135 364.47 217.615 364.47 Q215.828 364.47 213.834 365.09 Q211.859 365.711 209.602 366.971 L209.602 363.134 Q211.897 362.213 213.891 361.743 Q215.884 361.272 217.539 361.272 Q221.903 361.272 224.498 363.454 Q227.094 365.636 227.094 369.284 Q227.094 371.015 226.435 372.576 Q225.796 374.118 224.084 376.224 Q223.614 376.77 221.094 379.384 Q218.574 381.98 213.985 386.663 Z" fill="#000000" fill-rule="nonzero" fill-opacity="1" /><path clip-path="url(#clip140)" d="M-14.3935 779.768 L-8.85529 779.768 Q-10.1284 782.251 -10.765 784.925 Q-11.4016 787.598 -11.4016 790.463 Q-11.4016 794.823 -10.0648 797.019 Q-8.72798 799.184 -6.05438 799.184 Q-4.01736 799.184 -2.8397 797.624 Q-1.69387 796.064 -0.643532 791.354 L-0.197932 789.349 Q1.13887 783.11 3.58966 780.5 Q6.00863 777.859 10.3691 777.859 Q15.3344 777.859 18.2308 781.805 Q21.1272 785.72 21.1272 792.595 Q21.1272 795.46 20.5543 798.579 Q20.0132 801.666 18.8992 805.104 L12.8518 805.104 Q14.5387 801.857 15.398 798.706 Q16.2256 795.555 16.2256 792.468 Q16.2256 788.33 14.8251 786.102 Q13.3929 783.874 10.8147 783.874 Q8.4276 783.874 7.15446 785.497 Q5.88132 787.089 4.70366 792.532 L4.22623 794.569 Q3.08041 800.011 0.725095 802.43 Q-1.66204 804.849 -5.79975 804.849 Q-10.8287 804.849 -13.5659 801.284 Q-16.3032 797.72 -16.3032 791.163 Q-16.3032 787.916 -15.8257 785.052 Q-15.3483 782.187 -14.3935 779.768 Z" fill="#000000" fill-rule="nonzero" fill-opacity="1" /><path clip-path="url(#clip140)" d="M0.916066 738.041 L3.78063 738.041 L3.78063 764.968 Q9.82806 764.586 13.0109 761.34 Q16.1619 758.061 16.1619 752.237 Q16.1619 748.863 15.3344 745.712 Q14.5069 742.529 12.8518 739.41 L18.3899 739.41 Q19.7267 742.561 20.427 745.871 Q21.1272 749.181 21.1272 752.587 Q21.1272 761.117 16.1619 766.114 Q11.1967 771.079 2.73029 771.079 Q-6.02255 771.079 -11.1469 766.368 Q-16.3032 761.626 -16.3032 753.605 Q-16.3032 746.412 -11.6562 742.242 Q-7.04107 738.041 0.916066 738.041 M-0.802674 743.898 Q-5.60878 743.961 -8.47335 746.603 Q-11.3379 749.213 -11.3379 753.542 Q-11.3379 758.443 -8.56884 761.403 Q-5.79975 764.331 -0.770846 764.777 L-0.802674 743.898 Z" fill="#000000" fill-rule="nonzero" fill-opacity="1" /><path clip-path="url(#clip140)" d="M-14.0752 702.775 L-8.60067 702.775 Q-9.96929 705.258 -10.6377 707.772 Q-11.3379 710.255 -11.3379 712.801 Q-11.3379 718.498 -7.70947 721.649 Q-4.11284 724.8 2.41201 724.8 Q8.93686 724.8 12.5653 721.649 Q16.1619 718.498 16.1619 712.801 Q16.1619 710.255 15.4935 707.772 Q14.7933 705.258 13.4247 702.775 L18.8355 702.775 Q19.9814 705.226 20.5543 707.868 Q21.1272 710.478 21.1272 713.438 Q21.1272 721.49 16.0664 726.233 Q11.0057 730.975 2.41201 730.975 Q-6.30901 730.975 -11.3061 726.201 Q-16.3032 721.395 -16.3032 713.056 Q-16.3032 710.35 -15.7303 707.772 Q-15.1892 705.194 -14.0752 702.775 Z" fill="#000000" fill-rule="nonzero" fill-opacity="1" /><path clip-path="url(#clip140)" d="M-11.3379 678.776 Q-11.3379 683.487 -7.64581 686.224 Q-3.98553 688.961 2.41201 688.961 Q8.80954 688.961 12.5017 686.256 Q16.1619 683.519 16.1619 678.776 Q16.1619 674.098 12.4698 671.36 Q8.77771 668.623 2.41201 668.623 Q-3.92187 668.623 -7.61398 671.36 Q-11.3379 674.098 -11.3379 678.776 M-16.3032 678.776 Q-16.3032 671.138 -11.3379 666.777 Q-6.37267 662.416 2.41201 662.416 Q11.1649 662.416 16.1619 666.777 Q21.1272 671.138 21.1272 678.776 Q21.1272 686.447 16.1619 690.808 Q11.1649 695.136 2.41201 695.136 Q-6.37267 695.136 -11.3379 690.808 Q-16.3032 686.447 -16.3032 678.776 Z" fill="#000000" fill-rule="nonzero" fill-opacity="1" /><path clip-path="url(#clip140)" d="M-1.31193 623.076 L20.2042 623.076 L20.2042 628.933 L-1.12096 628.933 Q-6.1817 628.933 -8.69615 630.906 Q-11.2106 632.88 -11.2106 636.826 Q-11.2106 641.569 -8.18689 644.306 Q-5.16318 647.043 0.056696 647.043 L20.2042 647.043 L20.2042 652.932 L-15.4438 652.932 L-15.4438 647.043 L-9.90563 647.043 Q-13.1203 644.943 -14.7117 642.11 Q-16.3032 639.245 -16.3032 635.521 Q-16.3032 629.378 -12.4837 626.227 Q-8.69615 623.076 -1.31193 623.076 Z" fill="#000000" fill-rule="nonzero" fill-opacity="1" /><path clip-path="url(#clip140)" d="M-10.0329 587.938 L-29.321 587.938 L-29.321 582.081 L20.2042 582.081 L20.2042 587.938 L14.857 587.938 Q18.0398 589.784 19.5994 592.617 Q21.1272 595.417 21.1272 599.364 Q21.1272 605.825 15.971 609.899 Q10.8147 613.942 2.41201 613.942 Q-5.99073 613.942 -11.1469 609.899 Q-16.3032 605.825 -16.3032 599.364 Q-16.3032 595.417 -14.7436 592.617 Q-13.2158 589.784 -10.0329 587.938 M2.41201 607.894 Q8.8732 607.894 12.5653 605.252 Q16.2256 602.579 16.2256 597.932 Q16.2256 593.285 12.5653 590.611 Q8.8732 587.938 2.41201 587.938 Q-4.04918 587.938 -7.70947 590.611 Q-11.4016 593.285 -11.4016 597.932 Q-11.4016 602.579 -7.70947 605.252 Q-4.04918 607.894 2.41201 607.894 Z" fill="#000000" fill-rule="nonzero" fill-opacity="1" /><path clip-path="url(#clip140)" d="M-14.3935 547.293 L-8.85529 547.293 Q-10.1284 549.775 -10.765 552.449 Q-11.4016 555.123 -11.4016 557.987 Q-11.4016 562.348 -10.0648 564.544 Q-8.72798 566.708 -6.05438 566.708 Q-4.01736 566.708 -2.8397 565.148 Q-1.69387 563.589 -0.643532 558.878 L-0.197932 556.873 Q1.13887 550.635 3.58966 548.025 Q6.00863 545.383 10.3691 545.383 Q15.3344 545.383 18.2308 549.33 Q21.1272 553.245 21.1272 560.12 Q21.1272 562.984 20.5543 566.103 Q20.0132 569.191 18.8992 572.628 L12.8518 572.628 Q14.5387 569.382 15.398 566.231 Q16.2256 563.08 16.2256 559.992 Q16.2256 555.855 14.8251 553.627 Q13.3929 551.399 10.8147 551.399 Q8.4276 551.399 7.15446 553.022 Q5.88132 554.613 4.70366 560.056 L4.22623 562.093 Q3.08041 567.536 0.725095 569.955 Q-1.66204 572.374 -5.79975 572.374 Q-10.8287 572.374 -13.5659 568.809 Q-16.3032 565.244 -16.3032 558.687 Q-16.3032 555.441 -15.8257 552.576 Q-15.3483 549.712 -14.3935 547.293 Z" fill="#000000" fill-rule="nonzero" fill-opacity="1" /><path clip-path="url(#clip140)" d="M881.908 12.096 L916.665 12.096 L916.665 18.9825 L890.091 18.9825 L890.091 36.8065 L914.072 36.8065 L914.072 43.6931 L890.091 43.6931 L890.091 72.576 L881.908 72.576 L881.908 12.096 Z" fill="#000000" fill-rule="nonzero" fill-opacity="1" /><path clip-path="url(#clip140)" d="M923.268 27.2059 L930.722 27.2059 L930.722 72.576 L923.268 72.576 L923.268 27.2059 M923.268 9.54393 L930.722 9.54393 L930.722 18.9825 L923.268 18.9825 L923.268 9.54393 Z" fill="#000000" fill-rule="nonzero" fill-opacity="1" /><path clip-path="url(#clip140)" d="M953.69 14.324 L953.69 27.2059 L969.043 27.2059 L969.043 32.9987 L953.69 32.9987 L953.69 57.6282 Q953.69 63.1779 955.189 64.7578 Q956.728 66.3376 961.387 66.3376 L969.043 66.3376 L969.043 72.576 L961.387 72.576 Q952.758 72.576 949.477 69.3758 Q946.196 66.1351 946.196 57.6282 L946.196 32.9987 L940.727 32.9987 L940.727 27.2059 L946.196 27.2059 L946.196 14.324 L953.69 14.324 Z" fill="#000000" fill-rule="nonzero" fill-opacity="1" /><path clip-path="url(#clip140)" d="M1012.59 14.324 L1012.59 27.2059 L1027.94 27.2059 L1027.94 32.9987 L1012.59 32.9987 L1012.59 57.6282 Q1012.59 63.1779 1014.09 64.7578 Q1015.63 66.3376 1020.29 66.3376 L1027.94 66.3376 L1027.94 72.576 L1020.29 72.576 Q1011.66 72.576 1008.38 69.3758 Q1005.1 66.1351 1005.1 57.6282 L1005.1 32.9987 L999.627 32.9987 L999.627 27.2059 L1005.1 27.2059 L1005.1 14.324 L1012.59 14.324 Z" fill="#000000" fill-rule="nonzero" fill-opacity="1" /><path clip-path="url(#clip140)" d="M1037.75 27.2059 L1045.2 27.2059 L1045.2 72.576 L1037.75 72.576 L1037.75 27.2059 M1037.75 9.54393 L1045.2 9.54393 L1045.2 18.9825 L1037.75 18.9825 L1037.75 9.54393 Z" fill="#000000" fill-rule="nonzero" fill-opacity="1" /><path clip-path="url(#clip140)" d="M1096.12 35.9153 Q1098.92 30.8922 1102.8 28.5022 Q1106.69 26.1121 1111.96 26.1121 Q1119.05 26.1121 1122.9 31.0947 Q1126.74 36.0368 1126.74 45.1919 L1126.74 72.576 L1119.25 72.576 L1119.25 45.4349 Q1119.25 38.913 1116.94 35.7533 Q1114.63 32.5936 1109.89 32.5936 Q1104.1 32.5936 1100.74 36.4419 Q1097.38 40.2903 1097.38 46.9338 L1097.38 72.576 L1089.88 72.576 L1089.88 45.4349 Q1089.88 38.8725 1087.57 35.7533 Q1085.26 32.5936 1080.44 32.5936 Q1074.73 32.5936 1071.37 36.4824 Q1068.01 40.3308 1068.01 46.9338 L1068.01 72.576 L1060.51 72.576 L1060.51 27.2059 L1068.01 27.2059 L1068.01 34.2544 Q1070.56 30.082 1074.12 28.0971 Q1077.69 26.1121 1082.59 26.1121 Q1087.53 26.1121 1090.98 28.6237 Q1094.46 31.1352 1096.12 35.9153 Z" fill="#000000" fill-rule="nonzero" fill-opacity="1" /><path clip-path="url(#clip140)" d="M1180.42 48.0275 L1180.42 51.6733 L1146.15 51.6733 Q1146.63 59.3701 1150.77 63.421 Q1154.94 67.4314 1162.35 67.4314 Q1166.65 67.4314 1170.66 66.3781 Q1174.71 65.3249 1178.68 63.2184 L1178.68 70.267 Q1174.67 71.9684 1170.45 72.8596 Q1166.24 73.7508 1161.91 73.7508 Q1151.05 73.7508 1144.69 67.4314 Q1138.37 61.1119 1138.37 50.3365 Q1138.37 39.1965 1144.37 32.6746 Q1150.4 26.1121 1160.61 26.1121 Q1169.77 26.1121 1175.07 32.0264 Q1180.42 37.9003 1180.42 48.0275 M1172.97 45.84 Q1172.88 39.7232 1169.52 36.0774 Q1166.2 32.4315 1160.69 32.4315 Q1154.45 32.4315 1150.69 35.9558 Q1146.96 39.4801 1146.39 45.8805 L1172.97 45.84 Z" fill="#000000" fill-rule="nonzero" fill-opacity="1" /><polyline clip-path="url(#clip142)" style="stroke:#009af9; stroke-linecap:round; stroke-linejoin:round; stroke-width:8; stroke-opacity:1; fill:none" points="323.692,1219.56 651.079,1009.11 1083.86,630.195 1411.25,426.901 1738.64,130.931 "/>
<circle clip-path="url(#clip142)" cx="323.692" cy="1219.56" r="14.4" fill="#009af9" fill-rule="evenodd" fill-opacity="1" stroke="#000000" stroke-opacity="1" stroke-width="2.8"/>
<circle clip-path="url(#clip142)" cx="651.079" cy="1009.11" r="14.4" fill="#009af9" fill-rule="evenodd" fill-opacity="1" stroke="#000000" stroke-opacity="1" stroke-width="2.8"/>
<circle clip-path="url(#clip142)" cx="1083.86" cy="630.195" r="14.4" fill="#009af9" fill-rule="evenodd" fill-opacity="1" stroke="#000000" stroke-opacity="1" stroke-width="2.8"/>
<circle clip-path="url(#clip142)" cx="1411.25" cy="426.901" r="14.4" fill="#009af9" fill-rule="evenodd" fill-opacity="1" stroke="#000000" stroke-opacity="1" stroke-width="2.8"/>
<circle clip-path="url(#clip142)" cx="1738.64" cy="130.931" r="14.4" fill="#009af9" fill-rule="evenodd" fill-opacity="1" stroke="#000000" stroke-opacity="1" stroke-width="2.8"/>
<polyline clip-path="url(#clip142)" style="stroke:#e26f46; stroke-linecap:round; stroke-linejoin:round; stroke-width:8; stroke-opacity:1; fill:none" points="323.692,1179.12 651.079,1120.42 1083.86,1009.4 1411.25,868.196 1738.64,675.03 "/>
<path clip-path="url(#clip142)" d="M307.692 1163.12 L307.692 1195.12 L339.692 1195.12 L339.692 1163.12 L307.692 1163.12 Z" fill="#e26f46" fill-rule="evenodd" fill-opacity="1" stroke="#000000" stroke-opacity="1" stroke-width="2.8"/>
<path clip-path="url(#clip142)" d="M635.079 1104.42 L635.079 1136.42 L667.079 1136.42 L667.079 1104.42 L635.079 1104.42 Z" fill="#e26f46" fill-rule="evenodd" fill-opacity="1" stroke="#000000" stroke-opacity="1" stroke-width="2.8"/>
<path clip-path="url(#clip142)" d="M1067.86 993.397 L1067.86 1025.4 L1099.86 1025.4 L1099.86 993.397 L1067.86 993.397 Z" fill="#e26f46" fill-rule="evenodd" fill-opacity="1" stroke="#000000" stroke-opacity="1" stroke-width="2.8"/>
<path clip-path="url(#clip142)" d="M1395.25 852.196 L1395.25 884.196 L1427.25 884.196 L1427.25 852.196 L1395.25 852.196 Z" fill="#e26f46" fill-rule="evenodd" fill-opacity="1" stroke="#000000" stroke-opacity="1" stroke-width="2.8"/>
<path clip-path="url(#clip142)" d="M1722.64 659.03 L1722.64 691.03 L1754.64 691.03 L1754.64 659.03 L1722.64 659.03 Z" fill="#e26f46" fill-rule="evenodd" fill-opacity="1" stroke="#000000" stroke-opacity="1" stroke-width="2.8"/>
<path clip-path="url(#clip140)" d="M331.239 292.257 L579.903 292.257 L579.903 136.737 L331.239 136.737  Z" fill="#ffffff" fill-rule="evenodd" fill-opacity="1"/>
<polyline clip-path="url(#clip140)" style="stroke:#000000; stroke-linecap:round; stroke-linejoin:round; stroke-width:4; stroke-opacity:1; fill:none" points="331.239,292.257 579.903,292.257 579.903,136.737 331.239,136.737 331.239,292.257 "/>
<polyline clip-path="url(#clip140)" style="stroke:#009af9; stroke-linecap:round; stroke-linejoin:round; stroke-width:8; stroke-opacity:1; fill:none" points="347.904,188.577 447.893,188.577 "/>
<circle clip-path="url(#clip140)" cx="397.898" cy="188.577" r="13.8874" fill="#009af9" fill-rule="evenodd" fill-opacity="1" stroke="#000000" stroke-opacity="1" stroke-width="3.98222"/>
<path clip-path="url(#clip140)" d="M483.47 192.593 Q483.47 187.963 481.548 185.417 Q479.65 182.871 476.201 182.871 Q472.775 182.871 470.854 185.417 Q468.956 187.963 468.956 192.593 Q468.956 197.2 470.854 199.746 Q472.775 202.292 476.201 202.292 Q479.65 202.292 481.548 199.746 Q483.47 197.2 483.47 192.593 M487.729 202.639 Q487.729 209.26 484.789 212.477 Q481.849 215.718 475.785 215.718 Q473.539 215.718 471.549 215.371 Q469.558 215.047 467.683 214.352 L467.683 210.209 Q469.558 211.227 471.386 211.713 Q473.215 212.199 475.113 212.199 Q479.303 212.199 481.386 210 Q483.47 207.824 483.47 203.403 L483.47 201.297 Q482.15 203.588 480.09 204.723 Q478.03 205.857 475.16 205.857 Q470.391 205.857 467.474 202.223 Q464.558 198.588 464.558 192.593 Q464.558 186.575 467.474 182.94 Q470.391 179.306 475.16 179.306 Q478.03 179.306 480.09 180.44 Q482.15 181.575 483.47 183.866 L483.47 179.931 L487.729 179.931 L487.729 202.639 Z" fill="#000000" fill-rule="nonzero" fill-opacity="1" /><path clip-path="url(#clip140)" d="M508.284 192.825 Q503.122 192.825 501.132 194.005 Q499.141 195.186 499.141 198.033 Q499.141 200.301 500.622 201.644 Q502.127 202.963 504.696 202.963 Q508.238 202.963 510.368 200.463 Q512.521 197.94 512.521 193.774 L512.521 192.825 L508.284 192.825 M516.78 191.065 L516.78 205.857 L512.521 205.857 L512.521 201.922 Q511.062 204.283 508.886 205.417 Q506.71 206.528 503.562 206.528 Q499.581 206.528 497.22 204.306 Q494.882 202.061 494.882 198.311 Q494.882 193.936 497.798 191.713 Q500.738 189.491 506.548 189.491 L512.521 189.491 L512.521 189.075 Q512.521 186.135 510.576 184.538 Q508.655 182.917 505.159 182.917 Q502.937 182.917 500.831 183.45 Q498.724 183.982 496.78 185.047 L496.78 181.112 Q499.118 180.209 501.317 179.769 Q503.516 179.306 505.599 179.306 Q511.224 179.306 514.002 182.223 Q516.78 185.139 516.78 191.065 Z" fill="#000000" fill-rule="nonzero" fill-opacity="1" /><path clip-path="url(#clip140)" d="M545.738 184.908 Q547.335 182.038 549.557 180.672 Q551.78 179.306 554.789 179.306 Q558.84 179.306 561.039 182.153 Q563.238 184.977 563.238 190.209 L563.238 205.857 L558.955 205.857 L558.955 190.348 Q558.955 186.621 557.636 184.815 Q556.317 183.01 553.608 183.01 Q550.298 183.01 548.377 185.209 Q546.456 187.408 546.456 191.204 L546.456 205.857 L542.173 205.857 L542.173 190.348 Q542.173 186.598 540.854 184.815 Q539.534 183.01 536.78 183.01 Q533.516 183.01 531.594 185.232 Q529.673 187.431 529.673 191.204 L529.673 205.857 L525.391 205.857 L525.391 179.931 L529.673 179.931 L529.673 183.959 Q531.132 181.575 533.169 180.44 Q535.206 179.306 538.006 179.306 Q540.831 179.306 542.798 180.741 Q544.789 182.176 545.738 184.908 Z" fill="#000000" fill-rule="nonzero" fill-opacity="1" /><polyline clip-path="url(#clip140)" style="stroke:#e26f46; stroke-linecap:round; stroke-linejoin:round; stroke-width:8; stroke-opacity:1; fill:none" points="347.904,240.417 447.893,240.417 "/>
<path clip-path="url(#clip140)" d="M382.468 224.986 L382.468 255.847 L413.329 255.847 L413.329 224.986 L382.468 224.986 Z" fill="#e26f46" fill-rule="evenodd" fill-opacity="1" stroke="#000000" stroke-opacity="1" stroke-width="3.98222"/>
<path clip-path="url(#clip140)" d="M483.331 244.757 Q483.331 240.058 481.386 237.396 Q479.465 234.711 476.086 234.711 Q472.706 234.711 470.761 237.396 Q468.84 240.058 468.84 244.757 Q468.84 249.456 470.761 252.141 Q472.706 254.803 476.086 254.803 Q479.465 254.803 481.386 252.141 Q483.331 249.456 483.331 244.757 M468.84 235.706 Q470.183 233.391 472.22 232.28 Q474.28 231.146 477.127 231.146 Q481.849 231.146 484.789 234.896 Q487.752 238.646 487.752 244.757 Q487.752 250.868 484.789 254.618 Q481.849 258.368 477.127 258.368 Q474.28 258.368 472.22 257.257 Q470.183 256.123 468.84 253.808 L468.84 257.697 L464.558 257.697 L464.558 221.679 L468.84 221.679 L468.84 235.706 Z" fill="#000000" fill-rule="nonzero" fill-opacity="1" /><path clip-path="url(#clip140)" d="M506.595 244.665 Q501.433 244.665 499.442 245.845 Q497.451 247.026 497.451 249.873 Q497.451 252.141 498.933 253.484 Q500.437 254.803 503.007 254.803 Q506.548 254.803 508.678 252.303 Q510.831 249.78 510.831 245.614 L510.831 244.665 L506.595 244.665 M515.09 242.905 L515.09 257.697 L510.831 257.697 L510.831 253.762 Q509.372 256.123 507.196 257.257 Q505.021 258.368 501.872 258.368 Q497.891 258.368 495.53 256.146 Q493.192 253.901 493.192 250.151 Q493.192 245.776 496.109 243.553 Q499.048 241.331 504.859 241.331 L510.831 241.331 L510.831 240.915 Q510.831 237.975 508.886 236.378 Q506.965 234.757 503.47 234.757 Q501.247 234.757 499.141 235.29 Q497.034 235.822 495.09 236.887 L495.09 232.952 Q497.428 232.049 499.627 231.609 Q501.826 231.146 503.909 231.146 Q509.534 231.146 512.312 234.063 Q515.09 236.979 515.09 242.905 Z" fill="#000000" fill-rule="nonzero" fill-opacity="1" /><path clip-path="url(#clip140)" d="M544.048 236.748 Q545.645 233.878 547.868 232.512 Q550.09 231.146 553.099 231.146 Q557.15 231.146 559.349 233.993 Q561.548 236.817 561.548 242.049 L561.548 257.697 L557.266 257.697 L557.266 242.188 Q557.266 238.461 555.946 236.655 Q554.627 234.85 551.918 234.85 Q548.608 234.85 546.687 237.049 Q544.766 239.248 544.766 243.044 L544.766 257.697 L540.483 257.697 L540.483 242.188 Q540.483 238.438 539.164 236.655 Q537.844 234.85 535.09 234.85 Q531.826 234.85 529.905 237.072 Q527.983 239.271 527.983 243.044 L527.983 257.697 L523.701 257.697 L523.701 231.771 L527.983 231.771 L527.983 235.799 Q529.442 233.415 531.479 232.28 Q533.516 231.146 536.317 231.146 Q539.141 231.146 541.108 232.581 Q543.099 234.016 544.048 236.748 Z" fill="#000000" fill-rule="nonzero" fill-opacity="1" /><path clip-path="url(#clip140)" d="M2052.92 1252.21 L3552.76 1252.21 L3552.76 98.2721 L2052.92 98.2721  Z" fill="#ffffff" fill-rule="evenodd" fill-opacity="1"/>
<polyline clip-path="url(#clip141)" style="stroke:#000000; stroke-linecap:round; stroke-linejoin:round; stroke-width:2; stroke-opacity:0.1; fill:none" points="2095.37,1252.21 2095.37,98.2721 "/>
<polyline clip-path="url(#clip141)" style="stroke:#000000; stroke-linecap:round; stroke-linejoin:round; stroke-width:2; stroke-opacity:0.1; fill:none" points="2639.14,1252.21 2639.14,98.2721 "/>
<polyline clip-path="url(#clip141)" style="stroke:#000000; stroke-linecap:round; stroke-linejoin:round; stroke-width:2; stroke-opacity:0.1; fill:none" points="3182.92,1252.21 3182.92,98.2721 "/>
<polyline clip-path="url(#clip141)" style="stroke:#000000; stroke-linecap:round; stroke-linejoin:round; stroke-width:2; stroke-opacity:0.1; fill:none" points="2052.92,1177.88 3552.76,1177.88 "/>
<polyline clip-path="url(#clip141)" style="stroke:#000000; stroke-linecap:round; stroke-linejoin:round; stroke-width:2; stroke-opacity:0.1; fill:none" points="2052.92,942.38 3552.76,942.38 "/>
<polyline clip-path="url(#clip141)" style="stroke:#000000; stroke-linecap:round; stroke-linejoin:round; stroke-width:2; stroke-opacity:0.1; fill:none" points="2052.92,706.879 3552.76,706.879 "/>
<polyline clip-path="url(#clip141)" style="stroke:#000000; stroke-linecap:round; stroke-linejoin:round; stroke-width:2; stroke-opacity:0.1; fill:none" points="2052.92,471.377 3552.76,471.377 "/>
<polyline clip-path="url(#clip141)" style="stroke:#000000; stroke-linecap:round; stroke-linejoin:round; stroke-width:2; stroke-opacity:0.1; fill:none" points="2052.92,235.876 3552.76,235.876 "/>
<polyline clip-path="url(#clip140)" style="stroke:#000000; stroke-linecap:round; stroke-linejoin:round; stroke-width:4; stroke-opacity:1; fill:none" points="2052.92,1252.21 3552.76,1252.21 "/>
<polyline clip-path="url(#clip140)" style="stroke:#000000; stroke-linecap:round; stroke-linejoin:round; stroke-width:4; stroke-opacity:1; fill:none" points="2095.37,1252.21 2095.37,1233.32 "/>
<polyline clip-path="url(#clip140)" style="stroke:#000000; stroke-linecap:round; stroke-linejoin:round; stroke-width:4; stroke-opacity:1; fill:none" points="2639.14,1252.21 2639.14,1233.32 "/>
<polyline clip-path="url(#clip140)" style="stroke:#000000; stroke-linecap:round; stroke-linejoin:round; stroke-width:4; stroke-opacity:1; fill:none" points="3182.92,1252.21 3182.92,1233.32 "/>
<path clip-path="url(#clip140)" d="M2042.17 1335.94 L2049.81 1335.94 L2049.81 1309.57 L2041.5 1311.24 L2041.5 1306.98 L2049.76 1305.31 L2054.44 1305.31 L2054.44 1335.94 L2062.08 1335.94 L2062.08 1339.87 L2042.17 1339.87 L2042.17 1335.94 Z" fill="#000000" fill-rule="nonzero" fill-opacity="1" /><path clip-path="url(#clip140)" d="M2081.52 1308.39 Q2077.91 1308.39 2076.08 1311.96 Q2074.28 1315.5 2074.28 1322.63 Q2074.28 1329.74 2076.08 1333.3 Q2077.91 1336.84 2081.52 1336.84 Q2085.16 1336.84 2086.96 1333.3 Q2088.79 1329.74 2088.79 1322.63 Q2088.79 1315.5 2086.96 1311.96 Q2085.16 1308.39 2081.52 1308.39 M2081.52 1304.69 Q2087.33 1304.69 2090.39 1309.3 Q2093.47 1313.88 2093.47 1322.63 Q2093.47 1331.36 2090.39 1335.96 Q2087.33 1340.55 2081.52 1340.55 Q2075.71 1340.55 2072.63 1335.96 Q2069.58 1331.36 2069.58 1322.63 Q2069.58 1313.88 2072.63 1309.3 Q2075.71 1304.69 2081.52 1304.69 Z" fill="#000000" fill-rule="nonzero" fill-opacity="1" /><path clip-path="url(#clip140)" d="M2106.16 1297.32 Q2108.89 1297.91 2110.41 1299.75 Q2111.95 1301.59 2111.95 1304.3 Q2111.95 1308.46 2109.1 1310.73 Q2106.24 1313.01 2100.97 1313.01 Q2099.2 1313.01 2097.32 1312.65 Q2095.46 1312.31 2093.47 1311.62 L2093.47 1307.95 Q2095.05 1308.87 2096.93 1309.34 Q2098.81 1309.81 2100.86 1309.81 Q2104.43 1309.81 2106.29 1308.4 Q2108.17 1306.99 2108.17 1304.3 Q2108.17 1301.82 2106.42 1300.43 Q2104.69 1299.02 2101.59 1299.02 L2098.32 1299.02 L2098.32 1295.89 L2101.74 1295.89 Q2104.54 1295.89 2106.03 1294.78 Q2107.52 1293.66 2107.52 1291.55 Q2107.52 1289.39 2105.97 1288.24 Q2104.45 1287.07 2101.59 1287.07 Q2100.03 1287.07 2098.24 1287.41 Q2096.46 1287.75 2094.31 1288.47 L2094.31 1285.08 Q2096.48 1284.48 2098.36 1284.18 Q2100.26 1283.88 2101.93 1283.88 Q2106.26 1283.88 2108.78 1285.85 Q2111.3 1287.81 2111.3 1291.16 Q2111.3 1293.49 2109.96 1295.1 Q2108.63 1296.7 2106.16 1297.32 Z" fill="#000000" fill-rule="nonzero" fill-opacity="1" /><path clip-path="url(#clip140)" d="M2119.16 1307.69 L2123.13 1307.69 L2123.13 1312.46 L2119.16 1312.46 L2119.16 1307.69 Z" fill="#000000" fill-rule="nonzero" fill-opacity="1" /><path clip-path="url(#clip140)" d="M2139.53 1286.89 Q2136.59 1286.89 2135.11 1289.78 Q2133.64 1292.66 2133.64 1298.45 Q2133.64 1304.23 2135.11 1307.12 Q2136.59 1310 2139.53 1310 Q2142.48 1310 2143.95 1307.12 Q2145.43 1304.23 2145.43 1298.45 Q2145.43 1292.66 2143.95 1289.78 Q2142.48 1286.89 2139.53 1286.89 M2139.53 1283.88 Q2144.25 1283.88 2146.73 1287.62 Q2149.23 1291.34 2149.23 1298.45 Q2149.23 1305.54 2146.73 1309.29 Q2144.25 1313.01 2139.53 1313.01 Q2134.81 1313.01 2132.3 1309.29 Q2129.82 1305.54 2129.82 1298.45 Q2129.82 1291.34 2132.3 1287.62 Q2134.81 1283.88 2139.53 1283.88 Z" fill="#000000" fill-rule="nonzero" fill-opacity="1" /><path clip-path="url(#clip140)" d="M2586.35 1335.94 L2593.99 1335.94 L2593.99 1309.57 L2585.68 1311.24 L2585.68 1306.98 L2593.94 1305.31 L2598.62 1305.31 L2598.62 1335.94 L2606.26 1335.94 L2606.26 1339.87 L2586.35 1339.87 L2586.35 1335.94 Z" fill="#000000" fill-rule="nonzero" fill-opacity="1" /><path clip-path="url(#clip140)" d="M2625.7 1308.39 Q2622.09 1308.39 2620.26 1311.96 Q2618.46 1315.5 2618.46 1322.63 Q2618.46 1329.74 2620.26 1333.3 Q2622.09 1336.84 2625.7 1336.84 Q2629.34 1336.84 2631.14 1333.3 Q2632.97 1329.74 2632.97 1322.63 Q2632.97 1315.5 2631.14 1311.96 Q2629.34 1308.39 2625.7 1308.39 M2625.7 1304.69 Q2631.51 1304.69 2634.57 1309.3 Q2637.65 1313.88 2637.65 1322.63 Q2637.65 1331.36 2634.57 1335.96 Q2631.51 1340.55 2625.7 1340.55 Q2619.89 1340.55 2616.82 1335.96 Q2613.76 1331.36 2613.76 1322.63 Q2613.76 1313.88 2616.82 1309.3 Q2619.89 1304.69 2625.7 1304.69 Z" fill="#000000" fill-rule="nonzero" fill-opacity="1" /><path clip-path="url(#clip140)" d="M2650.34 1297.32 Q2653.07 1297.91 2654.59 1299.75 Q2656.14 1301.59 2656.14 1304.3 Q2656.14 1308.46 2653.28 1310.73 Q2650.42 1313.01 2645.15 1313.01 Q2643.38 1313.01 2641.5 1312.65 Q2639.64 1312.31 2637.65 1311.62 L2637.65 1307.95 Q2639.23 1308.87 2641.11 1309.34 Q2642.99 1309.81 2645.04 1309.81 Q2648.61 1309.81 2650.48 1308.4 Q2652.36 1306.99 2652.36 1304.3 Q2652.36 1301.82 2650.61 1300.43 Q2648.88 1299.02 2645.77 1299.02 L2642.5 1299.02 L2642.5 1295.89 L2645.92 1295.89 Q2648.73 1295.89 2650.21 1294.78 Q2651.7 1293.66 2651.7 1291.55 Q2651.7 1289.39 2650.16 1288.24 Q2648.63 1287.07 2645.77 1287.07 Q2644.21 1287.07 2642.43 1287.41 Q2640.64 1287.75 2638.49 1288.47 L2638.49 1285.08 Q2640.66 1284.48 2642.54 1284.18 Q2644.44 1283.88 2646.11 1283.88 Q2650.44 1283.88 2652.96 1285.85 Q2655.48 1287.81 2655.48 1291.16 Q2655.48 1293.49 2654.14 1295.1 Q2652.81 1296.7 2650.34 1297.32 Z" fill="#000000" fill-rule="nonzero" fill-opacity="1" /><path clip-path="url(#clip140)" d="M2663.34 1307.69 L2667.31 1307.69 L2667.31 1312.46 L2663.34 1312.46 L2663.34 1307.69 Z" fill="#000000" fill-rule="nonzero" fill-opacity="1" /><path clip-path="url(#clip140)" d="M2675.62 1284.38 L2690.54 1284.38 L2690.54 1287.58 L2679.1 1287.58 L2679.1 1294.47 Q2679.93 1294.18 2680.76 1294.05 Q2681.58 1293.9 2682.41 1293.9 Q2687.11 1293.9 2689.86 1296.48 Q2692.6 1299.05 2692.6 1303.46 Q2692.6 1307.99 2689.78 1310.51 Q2686.96 1313.01 2681.83 1313.01 Q2680.06 1313.01 2678.22 1312.71 Q2676.39 1312.41 2674.44 1311.81 L2674.44 1307.99 Q2676.13 1308.91 2677.93 1309.36 Q2679.74 1309.81 2681.75 1309.81 Q2685.01 1309.81 2686.91 1308.1 Q2688.81 1306.39 2688.81 1303.46 Q2688.81 1300.52 2686.91 1298.81 Q2685.01 1297.1 2681.75 1297.1 Q2680.23 1297.1 2678.71 1297.44 Q2677.2 1297.78 2675.62 1298.49 L2675.62 1284.38 Z" fill="#000000" fill-rule="nonzero" fill-opacity="1" /><path clip-path="url(#clip140)" d="M3129.2 1335.94 L3136.84 1335.94 L3136.84 1309.57 L3128.53 1311.24 L3128.53 1306.98 L3136.79 1305.31 L3141.47 1305.31 L3141.47 1335.94 L3149.11 1335.94 L3149.11 1339.87 L3129.2 1339.87 L3129.2 1335.94 Z" fill="#000000" fill-rule="nonzero" fill-opacity="1" /><path clip-path="url(#clip140)" d="M3168.55 1308.39 Q3164.94 1308.39 3163.11 1311.96 Q3161.31 1315.5 3161.31 1322.63 Q3161.31 1329.74 3163.11 1333.3 Q3164.94 1336.84 3168.55 1336.84 Q3172.19 1336.84 3173.99 1333.3 Q3175.82 1329.74 3175.82 1322.63 Q3175.82 1315.5 3173.99 1311.96 Q3172.19 1308.39 3168.55 1308.39 M3168.55 1304.69 Q3174.36 1304.69 3177.42 1309.3 Q3180.5 1313.88 3180.5 1322.63 Q3180.5 1331.36 3177.42 1335.96 Q3174.36 1340.55 3168.55 1340.55 Q3162.74 1340.55 3159.66 1335.96 Q3156.61 1331.36 3156.61 1322.63 Q3156.61 1313.88 3159.66 1309.3 Q3162.74 1304.69 3168.55 1304.69 Z" fill="#000000" fill-rule="nonzero" fill-opacity="1" /><path clip-path="url(#clip140)" d="M3193.17 1287.69 L3183.58 1302.68 L3193.17 1302.68 L3193.17 1287.69 M3192.17 1284.38 L3196.95 1284.38 L3196.95 1302.68 L3200.96 1302.68 L3200.96 1305.84 L3196.95 1305.84 L3196.95 1312.46 L3193.17 1312.46 L3193.17 1305.84 L3180.5 1305.84 L3180.5 1302.18 L3192.17 1284.38 Z" fill="#000000" fill-rule="nonzero" fill-opacity="1" /><path clip-path="url(#clip140)" d="M3207.24 1307.69 L3211.21 1307.69 L3211.21 1312.46 L3207.24 1312.46 L3207.24 1307.69 Z" fill="#000000" fill-rule="nonzero" fill-opacity="1" /><path clip-path="url(#clip140)" d="M3227.61 1286.89 Q3224.67 1286.89 3223.19 1289.78 Q3221.72 1292.66 3221.72 1298.45 Q3221.72 1304.23 3223.19 1307.12 Q3224.67 1310 3227.61 1310 Q3230.56 1310 3232.03 1307.12 Q3233.51 1304.23 3233.51 1298.45 Q3233.51 1292.66 3232.03 1289.78 Q3230.56 1286.89 3227.61 1286.89 M3227.61 1283.88 Q3232.33 1283.88 3234.81 1287.62 Q3237.31 1291.34 3237.31 1298.45 Q3237.31 1305.54 3234.81 1309.29 Q3232.33 1313.01 3227.61 1313.01 Q3222.89 1313.01 3220.39 1309.29 Q3217.9 1305.54 3217.9 1298.45 Q3217.9 1291.34 3220.39 1287.62 Q3222.89 1283.88 3227.61 1283.88 Z" fill="#000000" fill-rule="nonzero" fill-opacity="1" /><path clip-path="url(#clip140)" d="M2817.76 1411.99 L2817.76 1433.5 L2811.91 1433.5 L2811.91 1412.18 Q2811.91 1407.12 2809.93 1404.6 Q2807.96 1402.09 2804.01 1402.09 Q2799.27 1402.09 2796.53 1405.11 Q2793.8 1408.14 2793.8 1413.36 L2793.8 1433.5 L2787.91 1433.5 L2787.91 1397.86 L2793.8 1397.86 L2793.8 1403.39 Q2795.9 1400.18 2798.73 1398.59 Q2801.6 1397 2805.32 1397 Q2811.46 1397 2814.61 1400.82 Q2817.76 1404.6 2817.76 1411.99 Z" fill="#000000" fill-rule="nonzero" fill-opacity="1" /><polyline clip-path="url(#clip140)" style="stroke:#000000; stroke-linecap:round; stroke-linejoin:round; stroke-width:4; stroke-opacity:1; fill:none" points="2052.92,1252.21 2052.92,98.2721 "/>
<polyline clip-path="url(#clip140)" style="stroke:#000000; stroke-linecap:round; stroke-linejoin:round; stroke-width:4; stroke-opacity:1; fill:none" points="2052.92,1177.88 2071.81,1177.88 "/>
<polyline clip-path="url(#clip140)" style="stroke:#000000; stroke-linecap:round; stroke-linejoin:round; stroke-width:4; stroke-opacity:1; fill:none" points="2052.92,942.38 2071.81,942.38 "/>
<polyline clip-path="url(#clip140)" style="stroke:#000000; stroke-linecap:round; stroke-linejoin:round; stroke-width:4; stroke-opacity:1; fill:none" points="2052.92,706.879 2071.81,706.879 "/>
<polyline clip-path="url(#clip140)" style="stroke:#000000; stroke-linecap:round; stroke-linejoin:round; stroke-width:4; stroke-opacity:1; fill:none" points="2052.92,471.377 2071.81,471.377 "/>
<polyline clip-path="url(#clip140)" style="stroke:#000000; stroke-linecap:round; stroke-linejoin:round; stroke-width:4; stroke-opacity:1; fill:none" points="2052.92,235.876 2071.81,235.876 "/>
<path clip-path="url(#clip140)" d="M1951.83 1191.23 L1968.15 1191.23 L1968.15 1195.16 L1946.21 1195.16 L1946.21 1191.23 Q1948.87 1188.47 1953.45 1183.84 Q1958.06 1179.19 1959.24 1177.85 Q1961.49 1175.32 1962.37 1173.59 Q1963.27 1171.83 1963.27 1170.14 Q1963.27 1167.38 1961.32 1165.65 Q1959.4 1163.91 1956.3 1163.91 Q1954.1 1163.91 1951.65 1164.68 Q1949.22 1165.44 1946.44 1166.99 L1946.44 1162.27 Q1949.26 1161.13 1951.72 1160.55 Q1954.17 1159.98 1956.21 1159.98 Q1961.58 1159.98 1964.77 1162.66 Q1967.97 1165.35 1967.97 1169.84 Q1967.97 1171.97 1967.16 1173.89 Q1966.37 1175.79 1964.26 1178.38 Q1963.69 1179.05 1960.58 1182.27 Q1957.48 1185.46 1951.83 1191.23 Z" fill="#000000" fill-rule="nonzero" fill-opacity="1" /><path clip-path="url(#clip140)" d="M1978.01 1160.6 L1996.37 1160.6 L1996.37 1164.54 L1982.3 1164.54 L1982.3 1173.01 Q1983.31 1172.66 1984.33 1172.5 Q1985.35 1172.31 1986.37 1172.31 Q1992.16 1172.31 1995.54 1175.49 Q1998.92 1178.66 1998.92 1184.07 Q1998.92 1189.65 1995.44 1192.75 Q1991.97 1195.83 1985.65 1195.83 Q1983.48 1195.83 1981.21 1195.46 Q1978.96 1195.09 1976.56 1194.35 L1976.56 1189.65 Q1978.64 1190.79 1980.86 1191.34 Q1983.08 1191.9 1985.56 1191.9 Q1989.56 1191.9 1991.9 1189.79 Q1994.24 1187.68 1994.24 1184.07 Q1994.24 1180.46 1991.9 1178.36 Q1989.56 1176.25 1985.56 1176.25 Q1983.69 1176.25 1981.81 1176.67 Q1979.96 1177.08 1978.01 1177.96 L1978.01 1160.6 Z" fill="#000000" fill-rule="nonzero" fill-opacity="1" /><path clip-path="url(#clip140)" d="M1946.86 925.1 L1965.21 925.1 L1965.21 929.035 L1951.14 929.035 L1951.14 937.507 Q1952.16 937.16 1953.18 936.998 Q1954.19 936.813 1955.21 936.813 Q1961 936.813 1964.38 939.984 Q1967.76 943.155 1967.76 948.572 Q1967.76 954.151 1964.29 957.252 Q1960.82 960.331 1954.5 960.331 Q1952.32 960.331 1950.05 959.961 Q1947.81 959.59 1945.4 958.85 L1945.4 954.151 Q1947.48 955.285 1949.7 955.84 Q1951.93 956.396 1954.4 956.396 Q1958.41 956.396 1960.75 954.289 Q1963.08 952.183 1963.08 948.572 Q1963.08 944.961 1960.75 942.854 Q1958.41 940.748 1954.4 940.748 Q1952.53 940.748 1950.65 941.165 Q1948.8 941.581 1946.86 942.461 L1946.86 925.1 Z" fill="#000000" fill-rule="nonzero" fill-opacity="1" /><path clip-path="url(#clip140)" d="M1986.97 928.178 Q1983.36 928.178 1981.53 931.743 Q1979.73 935.285 1979.73 942.415 Q1979.73 949.521 1981.53 953.086 Q1983.36 956.627 1986.97 956.627 Q1990.61 956.627 1992.41 953.086 Q1994.24 949.521 1994.24 942.415 Q1994.24 935.285 1992.41 931.743 Q1990.61 928.178 1986.97 928.178 M1986.97 924.475 Q1992.78 924.475 1995.84 929.081 Q1998.92 933.665 1998.92 942.415 Q1998.92 951.141 1995.84 955.748 Q1992.78 960.331 1986.97 960.331 Q1981.16 960.331 1978.08 955.748 Q1975.03 951.141 1975.03 942.415 Q1975.03 933.665 1978.08 929.081 Q1981.16 924.475 1986.97 924.475 Z" fill="#000000" fill-rule="nonzero" fill-opacity="1" /><path clip-path="url(#clip140)" d="M1946.63 689.599 L1968.85 689.599 L1968.85 691.589 L1956.3 724.159 L1951.42 724.159 L1963.22 693.534 L1946.63 693.534 L1946.63 689.599 Z" fill="#000000" fill-rule="nonzero" fill-opacity="1" /><path clip-path="url(#clip140)" d="M1978.01 689.599 L1996.37 689.599 L1996.37 693.534 L1982.3 693.534 L1982.3 702.006 Q1983.31 701.659 1984.33 701.497 Q1985.35 701.311 1986.37 701.311 Q1992.16 701.311 1995.54 704.483 Q1998.92 707.654 1998.92 713.071 Q1998.92 718.649 1995.44 721.751 Q1991.97 724.83 1985.65 724.83 Q1983.48 724.83 1981.21 724.459 Q1978.96 724.089 1976.56 723.348 L1976.56 718.649 Q1978.64 719.784 1980.86 720.339 Q1983.08 720.895 1985.56 720.895 Q1989.56 720.895 1991.9 718.788 Q1994.24 716.682 1994.24 713.071 Q1994.24 709.46 1991.9 707.353 Q1989.56 705.247 1985.56 705.247 Q1983.69 705.247 1981.81 705.663 Q1979.96 706.08 1978.01 706.96 L1978.01 689.599 Z" fill="#000000" fill-rule="nonzero" fill-opacity="1" /><path clip-path="url(#clip140)" d="M1917.46 484.722 L1925.1 484.722 L1925.1 458.356 L1916.79 460.023 L1916.79 455.764 L1925.05 454.097 L1929.73 454.097 L1929.73 484.722 L1937.37 484.722 L1937.37 488.657 L1917.46 488.657 L1917.46 484.722 Z" fill="#000000" fill-rule="nonzero" fill-opacity="1" /><path clip-path="url(#clip140)" d="M1956.81 457.176 Q1953.2 457.176 1951.37 460.741 Q1949.57 464.282 1949.57 471.412 Q1949.57 478.518 1951.37 482.083 Q1953.2 485.625 1956.81 485.625 Q1960.44 485.625 1962.25 482.083 Q1964.08 478.518 1964.08 471.412 Q1964.08 464.282 1962.25 460.741 Q1960.44 457.176 1956.81 457.176 M1956.81 453.472 Q1962.62 453.472 1965.68 458.079 Q1968.75 462.662 1968.75 471.412 Q1968.75 480.139 1965.68 484.745 Q1962.62 489.329 1956.81 489.329 Q1951 489.329 1947.92 484.745 Q1944.87 480.139 1944.87 471.412 Q1944.87 462.662 1947.92 458.079 Q1951 453.472 1956.81 453.472 Z" fill="#000000" fill-rule="nonzero" fill-opacity="1" /><path clip-path="url(#clip140)" d="M1986.97 457.176 Q1983.36 457.176 1981.53 460.741 Q1979.73 464.282 1979.73 471.412 Q1979.73 478.518 1981.53 482.083 Q1983.36 485.625 1986.97 485.625 Q1990.61 485.625 1992.41 482.083 Q1994.24 478.518 1994.24 471.412 Q1994.24 464.282 1992.41 460.741 Q1990.61 457.176 1986.97 457.176 M1986.97 453.472 Q1992.78 453.472 1995.84 458.079 Q1998.92 462.662 1998.92 471.412 Q1998.92 480.139 1995.84 484.745 Q1992.78 489.329 1986.97 489.329 Q1981.16 489.329 1978.08 484.745 Q1975.03 480.139 1975.03 471.412 Q1975.03 462.662 1978.08 458.079 Q1981.16 453.472 1986.97 453.472 Z" fill="#000000" fill-rule="nonzero" fill-opacity="1" /><path clip-path="url(#clip140)" d="M1918.45 249.221 L1926.09 249.221 L1926.09 222.855 L1917.78 224.522 L1917.78 220.263 L1926.05 218.596 L1930.72 218.596 L1930.72 249.221 L1938.36 249.221 L1938.36 253.156 L1918.45 253.156 L1918.45 249.221 Z" fill="#000000" fill-rule="nonzero" fill-opacity="1" /><path clip-path="url(#clip140)" d="M1951.83 249.221 L1968.15 249.221 L1968.15 253.156 L1946.21 253.156 L1946.21 249.221 Q1948.87 246.466 1953.45 241.837 Q1958.06 237.184 1959.24 235.841 Q1961.49 233.318 1962.37 231.582 Q1963.27 229.823 1963.27 228.133 Q1963.27 225.378 1961.32 223.642 Q1959.4 221.906 1956.3 221.906 Q1954.1 221.906 1951.65 222.67 Q1949.22 223.434 1946.44 224.985 L1946.44 220.263 Q1949.26 219.128 1951.72 218.55 Q1954.17 217.971 1956.21 217.971 Q1961.58 217.971 1964.77 220.656 Q1967.97 223.341 1967.97 227.832 Q1967.97 229.962 1967.16 231.883 Q1966.37 233.781 1964.26 236.374 Q1963.69 237.045 1960.58 240.263 Q1957.48 243.457 1951.83 249.221 Z" fill="#000000" fill-rule="nonzero" fill-opacity="1" /><path clip-path="url(#clip140)" d="M1978.01 218.596 L1996.37 218.596 L1996.37 222.531 L1982.3 222.531 L1982.3 231.003 Q1983.31 230.656 1984.33 230.494 Q1985.35 230.309 1986.37 230.309 Q1992.16 230.309 1995.54 233.48 Q1998.92 236.651 1998.92 242.068 Q1998.92 247.647 1995.44 250.749 Q1991.97 253.827 1985.65 253.827 Q1983.48 253.827 1981.21 253.457 Q1978.96 253.087 1976.56 252.346 L1976.56 247.647 Q1978.64 248.781 1980.86 249.337 Q1983.08 249.892 1985.56 249.892 Q1989.56 249.892 1991.9 247.786 Q1994.24 245.679 1994.24 242.068 Q1994.24 238.457 1991.9 236.351 Q1989.56 234.244 1985.56 234.244 Q1983.69 234.244 1981.81 234.661 Q1979.96 235.077 1978.01 235.957 L1978.01 218.596 Z" fill="#000000" fill-rule="nonzero" fill-opacity="1" /><path clip-path="url(#clip140)" d="M1801.01 888.415 L1801.01 878.835 L1833.35 866.708 L1801.01 854.518 L1801.01 844.937 L1848.53 844.937 L1848.53 851.207 L1806.8 851.207 L1839.4 863.461 L1839.4 869.923 L1806.8 882.177 L1848.53 882.177 L1848.53 888.415 L1801.01 888.415 Z" fill="#000000" fill-rule="nonzero" fill-opacity="1" /><path clip-path="url(#clip140)" d="M1812.88 832.429 L1812.88 826.572 L1848.53 826.572 L1848.53 832.429 L1812.88 832.429 M1799.01 832.429 L1799.01 826.572 L1806.42 826.572 L1806.42 832.429 L1799.01 832.429 Z" fill="#000000" fill-rule="nonzero" fill-opacity="1" /><path clip-path="url(#clip140)" d="M1825.84 807.634 L1843.25 807.634 L1843.25 797.322 Q1843.25 792.134 1841.12 789.651 Q1838.95 787.137 1834.53 787.137 Q1830.07 787.137 1827.97 789.651 Q1825.84 792.134 1825.84 797.322 L1825.84 807.634 M1806.3 807.634 L1820.62 807.634 L1820.62 798.117 Q1820.62 793.407 1818.87 791.115 Q1817.08 788.792 1813.46 788.792 Q1809.86 788.792 1808.08 791.115 Q1806.3 793.407 1806.3 798.117 L1806.3 807.634 M1801.01 814.064 L1801.01 797.64 Q1801.01 790.288 1804.07 786.309 Q1807.12 782.33 1812.76 782.33 Q1817.12 782.33 1819.69 784.368 Q1822.27 786.405 1822.91 790.351 Q1823.93 785.609 1827.17 782.999 Q1830.39 780.357 1835.23 780.357 Q1841.59 780.357 1845.06 784.686 Q1848.53 789.014 1848.53 797.003 L1848.53 814.064 L1801.01 814.064 Z" fill="#000000" fill-rule="nonzero" fill-opacity="1" /><path clip-path="url(#clip140)" d="M1830.61 732.678 Q1830.61 739.776 1832.24 742.513 Q1833.86 745.25 1837.77 745.25 Q1840.89 745.25 1842.74 743.213 Q1844.55 741.144 1844.55 737.611 Q1844.55 732.742 1841.12 729.813 Q1837.65 726.853 1831.92 726.853 L1830.61 726.853 L1830.61 732.678 M1828.19 720.997 L1848.53 720.997 L1848.53 726.853 L1843.12 726.853 Q1846.37 728.859 1847.93 731.85 Q1849.45 734.842 1849.45 739.171 Q1849.45 744.646 1846.4 747.892 Q1843.31 751.107 1838.16 751.107 Q1832.14 751.107 1829.08 747.096 Q1826.03 743.054 1826.03 735.065 L1826.03 726.853 L1825.46 726.853 Q1821.41 726.853 1819.22 729.527 Q1816.99 732.169 1816.99 736.975 Q1816.99 740.03 1817.72 742.927 Q1818.45 745.823 1819.92 748.497 L1814.51 748.497 Q1813.27 745.282 1812.66 742.258 Q1812.02 739.235 1812.02 736.37 Q1812.02 728.636 1816.03 724.816 Q1820.05 720.997 1828.19 720.997 Z" fill="#000000" fill-rule="nonzero" fill-opacity="1" /><path clip-path="url(#clip140)" d="M1799.01 708.934 L1799.01 703.077 L1848.53 703.077 L1848.53 708.934 L1799.01 708.934 Z" fill="#000000" fill-rule="nonzero" fill-opacity="1" /><path clip-path="url(#clip140)" d="M1799.01 690.823 L1799.01 684.967 L1848.53 684.967 L1848.53 690.823 L1799.01 690.823 Z" fill="#000000" fill-rule="nonzero" fill-opacity="1" /><path clip-path="url(#clip140)" d="M1816.99 658.899 Q1816.99 663.61 1820.68 666.347 Q1824.34 669.085 1830.74 669.085 Q1837.14 669.085 1840.83 666.379 Q1844.49 663.642 1844.49 658.899 Q1844.49 654.221 1840.8 651.483 Q1837.11 648.746 1830.74 648.746 Q1824.41 648.746 1820.71 651.483 Q1816.99 654.221 1816.99 658.899 M1812.02 658.899 Q1812.02 651.261 1816.99 646.9 Q1821.95 642.54 1830.74 642.54 Q1839.49 642.54 1844.49 646.9 Q1849.45 651.261 1849.45 658.899 Q1849.45 666.57 1844.49 670.931 Q1839.49 675.259 1830.74 675.259 Q1821.95 675.259 1816.99 670.931 Q1812.02 666.57 1812.02 658.899 Z" fill="#000000" fill-rule="nonzero" fill-opacity="1" /><path clip-path="url(#clip140)" d="M1814.25 607.178 L1819.73 607.178 Q1818.36 609.661 1817.69 612.175 Q1816.99 614.658 1816.99 617.204 Q1816.99 622.901 1820.62 626.052 Q1824.21 629.203 1830.74 629.203 Q1837.26 629.203 1840.89 626.052 Q1844.49 622.901 1844.49 617.204 Q1844.49 614.658 1843.82 612.175 Q1843.12 609.661 1841.75 607.178 L1847.16 607.178 Q1848.31 609.629 1848.88 612.271 Q1849.45 614.881 1849.45 617.841 Q1849.45 625.893 1844.39 630.636 Q1839.33 635.378 1830.74 635.378 Q1822.02 635.378 1817.02 630.604 Q1812.02 625.798 1812.02 617.459 Q1812.02 614.753 1812.6 612.175 Q1813.14 609.597 1814.25 607.178 Z" fill="#000000" fill-rule="nonzero" fill-opacity="1" /><path clip-path="url(#clip140)" d="M1830.61 580.792 Q1830.61 587.89 1832.24 590.627 Q1833.86 593.364 1837.77 593.364 Q1840.89 593.364 1842.74 591.327 Q1844.55 589.259 1844.55 585.726 Q1844.55 580.856 1841.12 577.928 Q1837.65 574.968 1831.92 574.968 L1830.61 574.968 L1830.61 580.792 M1828.19 569.111 L1848.53 569.111 L1848.53 574.968 L1843.12 574.968 Q1846.37 576.973 1847.93 579.965 Q1849.45 582.957 1849.45 587.285 Q1849.45 592.76 1846.4 596.006 Q1843.31 599.221 1838.16 599.221 Q1832.14 599.221 1829.08 595.211 Q1826.03 591.168 1826.03 583.179 L1826.03 574.968 L1825.46 574.968 Q1821.41 574.968 1819.22 577.641 Q1816.99 580.283 1816.99 585.089 Q1816.99 588.145 1817.72 591.041 Q1818.45 593.937 1819.92 596.611 L1814.51 596.611 Q1813.27 593.396 1812.66 590.373 Q1812.02 587.349 1812.02 584.484 Q1812.02 576.75 1816.03 572.931 Q1820.05 569.111 1828.19 569.111 Z" fill="#000000" fill-rule="nonzero" fill-opacity="1" /><path clip-path="url(#clip140)" d="M1802.76 551.255 L1812.88 551.255 L1812.88 539.192 L1817.44 539.192 L1817.44 551.255 L1836.79 551.255 Q1841.15 551.255 1842.39 550.078 Q1843.63 548.868 1843.63 545.208 L1843.63 539.192 L1848.53 539.192 L1848.53 545.208 Q1848.53 551.987 1846.02 554.566 Q1843.47 557.144 1836.79 557.144 L1817.44 557.144 L1817.44 561.44 L1812.88 561.44 L1812.88 557.144 L1802.76 557.144 L1802.76 551.255 Z" fill="#000000" fill-rule="nonzero" fill-opacity="1" /><path clip-path="url(#clip140)" d="M1829.24 500.998 L1832.11 500.998 L1832.11 527.925 Q1838.16 527.543 1841.34 524.297 Q1844.49 521.018 1844.49 515.194 Q1844.49 511.82 1843.66 508.669 Q1842.83 505.486 1841.18 502.367 L1846.72 502.367 Q1848.05 505.518 1848.75 508.828 Q1849.45 512.138 1849.45 515.544 Q1849.45 524.074 1844.49 529.071 Q1839.52 534.036 1831.06 534.036 Q1822.3 534.036 1817.18 529.325 Q1812.02 524.583 1812.02 516.562 Q1812.02 509.369 1816.67 505.199 Q1821.29 500.998 1829.24 500.998 M1827.52 506.855 Q1822.72 506.918 1819.85 509.56 Q1816.99 512.17 1816.99 516.499 Q1816.99 521.4 1819.76 524.36 Q1822.53 527.288 1827.56 527.734 L1827.52 506.855 Z" fill="#000000" fill-rule="nonzero" fill-opacity="1" /><path clip-path="url(#clip140)" d="M1818.29 467.928 L1799.01 467.928 L1799.01 462.072 L1848.53 462.072 L1848.53 467.928 L1843.18 467.928 Q1846.37 469.774 1847.93 472.607 Q1849.45 475.408 1849.45 479.355 Q1849.45 485.816 1844.3 489.89 Q1839.14 493.932 1830.74 493.932 Q1822.34 493.932 1817.18 489.89 Q1812.02 485.816 1812.02 479.355 Q1812.02 475.408 1813.58 472.607 Q1815.11 469.774 1818.29 467.928 M1830.74 487.885 Q1837.2 487.885 1840.89 485.243 Q1844.55 482.569 1844.55 477.922 Q1844.55 473.275 1840.89 470.602 Q1837.2 467.928 1830.74 467.928 Q1824.28 467.928 1820.62 470.602 Q1816.93 473.275 1816.93 477.922 Q1816.93 482.569 1820.62 485.243 Q1824.28 487.885 1830.74 487.885 Z" fill="#000000" fill-rule="nonzero" fill-opacity="1" /><path clip-path="url(#clip140)" d="M2629.9 20.1573 L2618.8 50.2555 L2641.04 50.2555 L2629.9 20.1573 M2625.29 12.096 L2634.56 12.096 L2657.61 72.576 L2649.1 72.576 L2643.6 57.061 L2616.33 57.061 L2610.82 72.576 L2602.2 72.576 L2625.29 12.096 Z" fill="#000000" fill-rule="nonzero" fill-opacity="1" /><path clip-path="url(#clip140)" d="M2666.12 9.54393 L2673.57 9.54393 L2673.57 72.576 L2666.12 72.576 L2666.12 9.54393 Z" fill="#000000" fill-rule="nonzero" fill-opacity="1" /><path clip-path="url(#clip140)" d="M2689.17 9.54393 L2696.62 9.54393 L2696.62 72.576 L2689.17 72.576 L2689.17 9.54393 Z" fill="#000000" fill-rule="nonzero" fill-opacity="1" /><path clip-path="url(#clip140)" d="M2729.8 32.4315 Q2723.8 32.4315 2720.32 37.1306 Q2716.84 41.7891 2716.84 49.9314 Q2716.84 58.0738 2720.28 62.7728 Q2723.76 67.4314 2729.8 67.4314 Q2735.75 67.4314 2739.24 62.7323 Q2742.72 58.0333 2742.72 49.9314 Q2742.72 41.8701 2739.24 37.1711 Q2735.75 32.4315 2729.8 32.4315 M2729.8 26.1121 Q2739.52 26.1121 2745.07 32.4315 Q2750.62 38.7509 2750.62 49.9314 Q2750.62 61.0714 2745.07 67.4314 Q2739.52 73.7508 2729.8 73.7508 Q2720.04 73.7508 2714.49 67.4314 Q2708.98 61.0714 2708.98 49.9314 Q2708.98 38.7509 2714.49 32.4315 Q2720.04 26.1121 2729.8 26.1121 Z" fill="#000000" fill-rule="nonzero" fill-opacity="1" /><path clip-path="url(#clip140)" d="M2795.63 28.9478 L2795.63 35.9153 Q2792.47 34.1734 2789.27 33.3227 Q2786.11 32.4315 2782.87 32.4315 Q2775.61 32.4315 2771.6 37.0496 Q2767.59 41.6271 2767.59 49.9314 Q2767.59 58.2358 2771.6 62.8538 Q2775.61 67.4314 2782.87 67.4314 Q2786.11 67.4314 2789.27 66.5807 Q2792.47 65.6895 2795.63 63.9476 L2795.63 70.8341 Q2792.51 72.2924 2789.14 73.0216 Q2785.82 73.7508 2782.06 73.7508 Q2771.81 73.7508 2765.77 67.3098 Q2759.73 60.8689 2759.73 49.9314 Q2759.73 38.832 2765.81 32.472 Q2771.93 26.1121 2782.54 26.1121 Q2785.98 26.1121 2789.27 26.8413 Q2792.55 27.5299 2795.63 28.9478 Z" fill="#000000" fill-rule="nonzero" fill-opacity="1" /><path clip-path="url(#clip140)" d="M2829.21 49.7694 Q2820.17 49.7694 2816.69 51.8354 Q2813.21 53.9013 2813.21 58.8839 Q2813.21 62.8538 2815.8 65.2034 Q2818.43 67.5124 2822.93 67.5124 Q2829.13 67.5124 2832.85 63.1374 Q2836.62 58.7219 2836.62 51.4303 L2836.62 49.7694 L2829.21 49.7694 M2844.07 46.6907 L2844.07 72.576 L2836.62 72.576 L2836.62 65.6895 Q2834.07 69.8214 2830.26 71.8063 Q2826.45 73.7508 2820.94 73.7508 Q2813.98 73.7508 2809.84 69.8619 Q2805.75 65.9325 2805.75 59.3701 Q2805.75 51.7138 2810.86 47.825 Q2816 43.9361 2826.17 43.9361 L2836.62 43.9361 L2836.62 43.2069 Q2836.62 38.0623 2833.22 35.2672 Q2829.86 32.4315 2823.74 32.4315 Q2819.85 32.4315 2816.16 33.3632 Q2812.48 34.295 2809.07 36.1584 L2809.07 29.2718 Q2813.17 27.692 2817.01 26.9223 Q2820.86 26.1121 2824.51 26.1121 Q2834.35 26.1121 2839.21 31.2163 Q2844.07 36.3204 2844.07 46.6907 Z" fill="#000000" fill-rule="nonzero" fill-opacity="1" /><path clip-path="url(#clip140)" d="M2866.8 14.324 L2866.8 27.2059 L2882.15 27.2059 L2882.15 32.9987 L2866.8 32.9987 L2866.8 57.6282 Q2866.8 63.1779 2868.3 64.7578 Q2869.84 66.3376 2874.5 66.3376 L2882.15 66.3376 L2882.15 72.576 L2874.5 72.576 Q2865.87 72.576 2862.59 69.3758 Q2859.31 66.1351 2859.31 57.6282 L2859.31 32.9987 L2853.84 32.9987 L2853.84 27.2059 L2859.31 27.2059 L2859.31 14.324 L2866.8 14.324 Z" fill="#000000" fill-rule="nonzero" fill-opacity="1" /><path clip-path="url(#clip140)" d="M2891.96 27.2059 L2899.41 27.2059 L2899.41 72.576 L2891.96 72.576 L2891.96 27.2059 M2891.96 9.54393 L2899.41 9.54393 L2899.41 18.9825 L2891.96 18.9825 L2891.96 9.54393 Z" fill="#000000" fill-rule="nonzero" fill-opacity="1" /><path clip-path="url(#clip140)" d="M2932.59 32.4315 Q2926.59 32.4315 2923.11 37.1306 Q2919.62 41.7891 2919.62 49.9314 Q2919.62 58.0738 2923.07 62.7728 Q2926.55 67.4314 2932.59 67.4314 Q2938.54 67.4314 2942.03 62.7323 Q2945.51 58.0333 2945.51 49.9314 Q2945.51 41.8701 2942.03 37.1711 Q2938.54 32.4315 2932.59 32.4315 M2932.59 26.1121 Q2942.31 26.1121 2947.86 32.4315 Q2953.41 38.7509 2953.41 49.9314 Q2953.41 61.0714 2947.86 67.4314 Q2942.31 73.7508 2932.59 73.7508 Q2922.82 73.7508 2917.27 67.4314 Q2911.77 61.0714 2911.77 49.9314 Q2911.77 38.7509 2917.27 32.4315 Q2922.82 26.1121 2932.59 26.1121 Z" fill="#000000" fill-rule="nonzero" fill-opacity="1" /><path clip-path="url(#clip140)" d="M3003.48 45.1919 L3003.48 72.576 L2996.02 72.576 L2996.02 45.4349 Q2996.02 38.994 2993.51 35.7938 Q2991 32.5936 2985.98 32.5936 Q2979.94 32.5936 2976.46 36.4419 Q2972.97 40.2903 2972.97 46.9338 L2972.97 72.576 L2965.48 72.576 L2965.48 27.2059 L2972.97 27.2059 L2972.97 34.2544 Q2975.65 30.163 2979.25 28.1376 Q2982.9 26.1121 2987.64 26.1121 Q2995.46 26.1121 2999.47 30.9732 Q3003.48 35.7938 3003.48 45.1919 Z" fill="#000000" fill-rule="nonzero" fill-opacity="1" /><polyline clip-path="url(#clip141)" style="stroke:#009af9; stroke-linecap:round; stroke-linejoin:round; stroke-width:8; stroke-opacity:1; fill:none" points="2095.37,1219.56 2422.75,1166.93 2855.53,1001.13 3182.92,769.891 3510.31,130.931 "/>
<circle clip-path="url(#clip141)" cx="2095.37" cy="1219.56" r="14.4" fill="#009af9" fill-rule="evenodd" fill-opacity="1" stroke="#000000" stroke-opacity="1" stroke-width="2.8"/>
<circle clip-path="url(#clip141)" cx="2422.75" cy="1166.93" r="14.4" fill="#009af9" fill-rule="evenodd" fill-opacity="1" stroke="#000000" stroke-opacity="1" stroke-width="2.8"/>
<circle clip-path="url(#clip141)" cx="2855.53" cy="1001.13" r="14.4" fill="#009af9" fill-rule="evenodd" fill-opacity="1" stroke="#000000" stroke-opacity="1" stroke-width="2.8"/>
<circle clip-path="url(#clip141)" cx="3182.92" cy="769.891" r="14.4" fill="#009af9" fill-rule="evenodd" fill-opacity="1" stroke="#000000" stroke-opacity="1" stroke-width="2.8"/>
<circle clip-path="url(#clip141)" cx="3510.31" cy="130.931" r="14.4" fill="#009af9" fill-rule="evenodd" fill-opacity="1" stroke="#000000" stroke-opacity="1" stroke-width="2.8"/>
<polyline clip-path="url(#clip141)" style="stroke:#e26f46; stroke-linecap:round; stroke-linejoin:round; stroke-width:8; stroke-opacity:1; fill:none" points="2095.37,1166.66 2422.75,1129.78 2855.53,1028.82 3182.92,850.571 3510.31,501.576 "/>
<path clip-path="url(#clip141)" d="M2079.37 1150.66 L2079.37 1182.66 L2111.37 1182.66 L2111.37 1150.66 L2079.37 1150.66 Z" fill="#e26f46" fill-rule="evenodd" fill-opacity="1" stroke="#000000" stroke-opacity="1" stroke-width="2.8"/>
<path clip-path="url(#clip141)" d="M2406.75 1113.78 L2406.75 1145.78 L2438.75 1145.78 L2438.75 1113.78 L2406.75 1113.78 Z" fill="#e26f46" fill-rule="evenodd" fill-opacity="1" stroke="#000000" stroke-opacity="1" stroke-width="2.8"/>
<path clip-path="url(#clip141)" d="M2839.53 1012.82 L2839.53 1044.82 L2871.53 1044.82 L2871.53 1012.82 L2839.53 1012.82 Z" fill="#e26f46" fill-rule="evenodd" fill-opacity="1" stroke="#000000" stroke-opacity="1" stroke-width="2.8"/>
<path clip-path="url(#clip141)" d="M3166.92 834.571 L3166.92 866.571 L3198.92 866.571 L3198.92 834.571 L3166.92 834.571 Z" fill="#e26f46" fill-rule="evenodd" fill-opacity="1" stroke="#000000" stroke-opacity="1" stroke-width="2.8"/>
<path clip-path="url(#clip141)" d="M3494.31 485.576 L3494.31 517.576 L3526.31 517.576 L3526.31 485.576 L3494.31 485.576 Z" fill="#e26f46" fill-rule="evenodd" fill-opacity="1" stroke="#000000" stroke-opacity="1" stroke-width="2.8"/>
<path clip-path="url(#clip140)" d="M2102.91 292.257 L2351.58 292.257 L2351.58 136.737 L2102.91 136.737  Z" fill="#ffffff" fill-rule="evenodd" fill-opacity="1"/>
<polyline clip-path="url(#clip140)" style="stroke:#000000; stroke-linecap:round; stroke-linejoin:round; stroke-width:4; stroke-opacity:1; fill:none" points="2102.91,292.257 2351.58,292.257 2351.58,136.737 2102.91,136.737 2102.91,292.257 "/>
<polyline clip-path="url(#clip140)" style="stroke:#009af9; stroke-linecap:round; stroke-linejoin:round; stroke-width:8; stroke-opacity:1; fill:none" points="2119.58,188.577 2219.57,188.577 "/>
<circle clip-path="url(#clip140)" cx="2169.57" cy="188.577" r="13.8874" fill="#009af9" fill-rule="evenodd" fill-opacity="1" stroke="#000000" stroke-opacity="1" stroke-width="3.98222"/>
<path clip-path="url(#clip140)" d="M2255.14 192.593 Q2255.14 187.963 2253.22 185.417 Q2251.32 182.871 2247.87 182.871 Q2244.45 182.871 2242.53 185.417 Q2240.63 187.963 2240.63 192.593 Q2240.63 197.2 2242.53 199.746 Q2244.45 202.292 2247.87 202.292 Q2251.32 202.292 2253.22 199.746 Q2255.14 197.2 2255.14 192.593 M2259.4 202.639 Q2259.4 209.26 2256.46 212.477 Q2253.52 215.718 2247.46 215.718 Q2245.21 215.718 2243.22 215.371 Q2241.23 215.047 2239.36 214.352 L2239.36 210.209 Q2241.23 211.227 2243.06 211.713 Q2244.89 212.199 2246.79 212.199 Q2250.98 212.199 2253.06 210 Q2255.14 207.824 2255.14 203.403 L2255.14 201.297 Q2253.82 203.588 2251.76 204.723 Q2249.7 205.857 2246.83 205.857 Q2242.06 205.857 2239.15 202.223 Q2236.23 198.588 2236.23 192.593 Q2236.23 186.575 2239.15 182.94 Q2242.06 179.306 2246.83 179.306 Q2249.7 179.306 2251.76 180.44 Q2253.82 181.575 2255.14 183.866 L2255.14 179.931 L2259.4 179.931 L2259.4 202.639 Z" fill="#000000" fill-rule="nonzero" fill-opacity="1" /><path clip-path="url(#clip140)" d="M2279.96 192.825 Q2274.8 192.825 2272.8 194.005 Q2270.81 195.186 2270.81 198.033 Q2270.81 200.301 2272.3 201.644 Q2273.8 202.963 2276.37 202.963 Q2279.91 202.963 2282.04 200.463 Q2284.19 197.94 2284.19 193.774 L2284.19 192.825 L2279.96 192.825 M2288.45 191.065 L2288.45 205.857 L2284.19 205.857 L2284.19 201.922 Q2282.73 204.283 2280.56 205.417 Q2278.38 206.528 2275.23 206.528 Q2271.25 206.528 2268.89 204.306 Q2266.55 202.061 2266.55 198.311 Q2266.55 193.936 2269.47 191.713 Q2272.41 189.491 2278.22 189.491 L2284.19 189.491 L2284.19 189.075 Q2284.19 186.135 2282.25 184.538 Q2280.33 182.917 2276.83 182.917 Q2274.61 182.917 2272.5 183.45 Q2270.4 183.982 2268.45 185.047 L2268.45 181.112 Q2270.79 180.209 2272.99 179.769 Q2275.19 179.306 2277.27 179.306 Q2282.9 179.306 2285.67 182.223 Q2288.45 185.139 2288.45 191.065 Z" fill="#000000" fill-rule="nonzero" fill-opacity="1" /><path clip-path="url(#clip140)" d="M2317.41 184.908 Q2319.01 182.038 2321.23 180.672 Q2323.45 179.306 2326.46 179.306 Q2330.51 179.306 2332.71 182.153 Q2334.91 184.977 2334.91 190.209 L2334.91 205.857 L2330.63 205.857 L2330.63 190.348 Q2330.63 186.621 2329.31 184.815 Q2327.99 183.01 2325.28 183.01 Q2321.97 183.01 2320.05 185.209 Q2318.13 187.408 2318.13 191.204 L2318.13 205.857 L2313.85 205.857 L2313.85 190.348 Q2313.85 186.598 2312.53 184.815 Q2311.21 183.01 2308.45 183.01 Q2305.19 183.01 2303.27 185.232 Q2301.35 187.431 2301.35 191.204 L2301.35 205.857 L2297.06 205.857 L2297.06 179.931 L2301.35 179.931 L2301.35 183.959 Q2302.8 181.575 2304.84 180.44 Q2306.88 179.306 2309.68 179.306 Q2312.5 179.306 2314.47 180.741 Q2316.46 182.176 2317.41 184.908 Z" fill="#000000" fill-rule="nonzero" fill-opacity="1" /><polyline clip-path="url(#clip140)" style="stroke:#e26f46; stroke-linecap:round; stroke-linejoin:round; stroke-width:8; stroke-opacity:1; fill:none" points="2119.58,240.417 2219.57,240.417 "/>
<path clip-path="url(#clip140)" d="M2154.14 224.986 L2154.14 255.847 L2185 255.847 L2185 224.986 L2154.14 224.986 Z" fill="#e26f46" fill-rule="evenodd" fill-opacity="1" stroke="#000000" stroke-opacity="1" stroke-width="3.98222"/>
<path clip-path="url(#clip140)" d="M2255 244.757 Q2255 240.058 2253.06 237.396 Q2251.14 234.711 2247.76 234.711 Q2244.38 234.711 2242.43 237.396 Q2240.51 240.058 2240.51 244.757 Q2240.51 249.456 2242.43 252.141 Q2244.38 254.803 2247.76 254.803 Q2251.14 254.803 2253.06 252.141 Q2255 249.456 2255 244.757 M2240.51 235.706 Q2241.86 233.391 2243.89 232.28 Q2245.95 231.146 2248.8 231.146 Q2253.52 231.146 2256.46 234.896 Q2259.42 238.646 2259.42 244.757 Q2259.42 250.868 2256.46 254.618 Q2253.52 258.368 2248.8 258.368 Q2245.95 258.368 2243.89 257.257 Q2241.86 256.123 2240.51 253.808 L2240.51 257.697 L2236.23 257.697 L2236.23 221.679 L2240.51 221.679 L2240.51 235.706 Z" fill="#000000" fill-rule="nonzero" fill-opacity="1" /><path clip-path="url(#clip140)" d="M2278.27 244.665 Q2273.11 244.665 2271.11 245.845 Q2269.12 247.026 2269.12 249.873 Q2269.12 252.141 2270.61 253.484 Q2272.11 254.803 2274.68 254.803 Q2278.22 254.803 2280.35 252.303 Q2282.5 249.78 2282.5 245.614 L2282.5 244.665 L2278.27 244.665 M2286.76 242.905 L2286.76 257.697 L2282.5 257.697 L2282.5 253.762 Q2281.04 256.123 2278.87 257.257 Q2276.69 258.368 2273.55 258.368 Q2269.56 258.368 2267.2 256.146 Q2264.86 253.901 2264.86 250.151 Q2264.86 245.776 2267.78 243.553 Q2270.72 241.331 2276.53 241.331 L2282.5 241.331 L2282.5 240.915 Q2282.5 237.975 2280.56 236.378 Q2278.64 234.757 2275.14 234.757 Q2272.92 234.757 2270.81 235.29 Q2268.71 235.822 2266.76 236.887 L2266.76 232.952 Q2269.1 232.049 2271.3 231.609 Q2273.5 231.146 2275.58 231.146 Q2281.21 231.146 2283.98 234.063 Q2286.76 236.979 2286.76 242.905 Z" fill="#000000" fill-rule="nonzero" fill-opacity="1" /><path clip-path="url(#clip140)" d="M2315.72 236.748 Q2317.32 233.878 2319.54 232.512 Q2321.76 231.146 2324.77 231.146 Q2328.82 231.146 2331.02 233.993 Q2333.22 236.817 2333.22 242.049 L2333.22 257.697 L2328.94 257.697 L2328.94 242.188 Q2328.94 238.461 2327.62 236.655 Q2326.3 234.85 2323.59 234.85 Q2320.28 234.85 2318.36 237.049 Q2316.44 239.248 2316.44 243.044 L2316.44 257.697 L2312.16 257.697 L2312.16 242.188 Q2312.16 238.438 2310.84 236.655 Q2309.52 234.85 2306.76 234.85 Q2303.5 234.85 2301.58 237.072 Q2299.66 239.271 2299.66 243.044 L2299.66 257.697 L2295.37 257.697 L2295.37 231.771 L2299.66 231.771 L2299.66 235.799 Q2301.11 233.415 2303.15 232.28 Q2305.19 231.146 2307.99 231.146 Q2310.81 231.146 2312.78 232.581 Q2314.77 234.016 2315.72 236.748 Z" fill="#000000" fill-rule="nonzero" fill-opacity="1" /></svg>
