<?xml version="1.0" encoding="utf-8"?>
<svg xmlns="http://www.w3.org/2000/svg" xmlns:xlink="http://www.w3.org/1999/xlink" width="672" height="480" viewBox="0 0 2688 1920">
<defs>
  <clipPath id="clip050">
    <rect x="0" y="0" width="2688" height="1920"/>
  </clipPath>
</defs>
<path clip-path="url(#clip050)" d="M0 1920 L2688 1920 L2688 -4.26326e-14 L0 -4.26326e-14  Z" fill="#ffffff" fill-rule="evenodd" fill-opacity="1"/>
<defs>
  <clipPath id="clip051">
    <rect x="238" y="127" width="2403" height="1607"/>
  </clipPath>
</defs>
<path clip-path="url(#clip050)" d="M238.664 1734.12 L2640.76 1734.12 L2640.76 127.792 L238.664 127.792  Z" fill="#ffffff" fill-rule="evenodd" fill-opacity="1"/>
<polyline clip-path="url(#clip051)" style="stroke:#000000; stroke-linecap:round; stroke-linejoin:round; stroke-width:2; stroke-opacity:0.1; fill:none" points="548.937,1734.12 548.937,127.792 "/>
<polyline clip-path="url(#clip051)" style="stroke:#000000; stroke-linecap:round; stroke-linejoin:round; stroke-width:2; stroke-opacity:0.1; fill:none" points="994.324,1734.12 994.324,127.792 "/>
<polyline clip-path="url(#clip051)" style="stroke:#000000; stroke-linecap:round; stroke-linejoin:round; stroke-width:2; stroke-opacity:0.1; fill:none" points="1439.71,1734.12 1439.71,127.792 "/>
<polyline clip-path="url(#clip051)" style="stroke:#000000; stroke-linecap:round; stroke-linejoin:round; stroke-width:2; stroke-opacity:0.1; fill:none" points="1885.1,1734.12 1885.1,127.792 "/>
<polyline clip-path="url(#clip051)" style="stroke:#000000; stroke-linecap:round; stroke-linejoin:round; stroke-width:2; stroke-opacity:0.1; fill:none" points="2330.48,1734.12 2330.48,127.792 "/>
<polyline clip-path="url(#clip051)" style="stroke:#000000; stroke-linecap:round; stroke-linejoin:round; stroke-width:2; stroke-opacity:0.1; fill:none" points="238.664,1734.12 2640.76,1734.12 "/>
<polyline clip-path="url(#clip051)" style="stroke:#000000; stroke-linecap:round; stroke-linejoin:round; stroke-width:2; stroke-opacity:0.1; fill:none" points="238.664,1406.87 2640.76,1406.87 "/>
<polyline clip-path="url(#clip051)" style="stroke:#000000; stroke-linecap:round; stroke-linejoin:round; stroke-width:2; stroke-opacity:0.1; fill:none" points="238.664,1079.62 2640.76,1079.62 "/>
<polyline clip-path="url(#clip051)" style="stroke:#000000; stroke-linecap:round; stroke-linejoin:round; stroke-width:2; stroke-opacity:0.1; fill:none" points="238.664,752.374 2640.76,752.374 "/>
<polyline clip-path="url(#clip051)" style="stroke:#000000; stroke-linecap:round; stroke-linejoin:round; stroke-width:2; stroke-opacity:0.1; fill:none" points="238.664,425.126 2640.76,425.126 "/>
<polyline clip-path="url(#clip050)" style="stroke:#000000; stroke-linecap:round; stroke-linejoin:round; stroke-width:4; stroke-opacity:1; fill:none" points="238.664,1734.12 2640.76,1734.12 "/>
<polyline clip-path="url(#clip050)" style="stroke:#000000; stroke-linecap:round; stroke-linejoin:round; stroke-width:4; stroke-opacity:1; fill:none" points="548.937,1734.12 548.937,1715.22 "/>
<polyline clip-path="url(#clip050)" style="stroke:#000000; stroke-linecap:round; stroke-linejoin:round; stroke-width:4; stroke-opacity:1; fill:none" points="994.324,1734.12 994.324,1715.22 "/>
<polyline clip-path="url(#clip050)" style="stroke:#000000; stroke-linecap:round; stroke-linejoin:round; stroke-width:4; stroke-opacity:1; fill:none" points="1439.71,1734.12 1439.71,1715.22 "/>
<polyline clip-path="url(#clip050)" style="stroke:#000000; stroke-linecap:round; stroke-linejoin:round; stroke-width:4; stroke-opacity:1; fill:none" points="1885.1,1734.12 1885.1,1715.22 "/>
<polyline clip-path="url(#clip050)" style="stroke:#000000; stroke-linecap:round; stroke-linejoin:round; stroke-width:4; stroke-opacity:1; fill:none" points="2330.48,1734.12 2330.48,1715.22 "/>
<path clip-path="url(#clip050)" d="M495.315 1794.1 Q496.148 1795.21 498.648 1795.21 L500.709 1795.21 L500.709 1798.82 L498.139 1798.82 Q493.972 1798.82 492.074 1796.6 Q490.176 1794.33 490.176 1789.42 L490.176 1777.15 L480.454 1777.15 L480.454 1772.9 L504.366 1772.9 L504.366 1777.15 L494.528 1777.15 L494.528 1789.68 Q494.528 1793.03 495.315 1794.1 Z" fill="#000000" fill-rule="nonzero" fill-opacity="1" /><path clip-path="url(#clip050)" d="M511.704 1777.29 L541.38 1777.29 L541.38 1781.18 L511.704 1781.18 L511.704 1777.29 M511.704 1786.74 L541.38 1786.74 L541.38 1790.67 L511.704 1790.67 L511.704 1786.74 Z" fill="#000000" fill-rule="nonzero" fill-opacity="1" /><path clip-path="url(#clip050)" d="M561.472 1767.34 Q557.861 1767.34 556.032 1770.9 Q554.227 1774.45 554.227 1781.58 Q554.227 1788.68 556.032 1792.25 Q557.861 1795.79 561.472 1795.79 Q565.106 1795.79 566.912 1792.25 Q568.741 1788.68 568.741 1781.58 Q568.741 1774.45 566.912 1770.9 Q565.106 1767.34 561.472 1767.34 M561.472 1763.64 Q567.282 1763.64 570.338 1768.24 Q573.416 1772.83 573.416 1781.58 Q573.416 1790.3 570.338 1794.91 Q567.282 1799.49 561.472 1799.49 Q555.662 1799.49 552.583 1794.91 Q549.528 1790.3 549.528 1781.58 Q549.528 1772.83 552.583 1768.24 Q555.662 1763.64 561.472 1763.64 Z" fill="#000000" fill-rule="nonzero" fill-opacity="1" /><path clip-path="url(#clip050)" d="M581.634 1792.94 L586.518 1792.94 L586.518 1798.82 L581.634 1798.82 L581.634 1792.94 Z" fill="#000000" fill-rule="nonzero" fill-opacity="1" /><path clip-path="url(#clip050)" d="M597.514 1794.89 L605.152 1794.89 L605.152 1768.52 L596.842 1770.19 L596.842 1765.93 L605.106 1764.26 L609.782 1764.26 L609.782 1794.89 L617.421 1794.89 L617.421 1798.82 L597.514 1798.82 L597.514 1794.89 Z" fill="#000000" fill-rule="nonzero" fill-opacity="1" /><path clip-path="url(#clip050)" d="M925.505 1794.1 Q926.338 1795.21 928.838 1795.21 L930.898 1795.21 L930.898 1798.82 L928.329 1798.82 Q924.162 1798.82 922.264 1796.6 Q920.366 1794.33 920.366 1789.42 L920.366 1777.15 L910.644 1777.15 L910.644 1772.9 L934.555 1772.9 L934.555 1777.15 L924.717 1777.15 L924.717 1789.68 Q924.717 1793.03 925.505 1794.1 Z" fill="#000000" fill-rule="nonzero" fill-opacity="1" /><path clip-path="url(#clip050)" d="M941.893 1777.29 L971.569 1777.29 L971.569 1781.18 L941.893 1781.18 L941.893 1777.29 M941.893 1786.74 L971.569 1786.74 L971.569 1790.67 L941.893 1790.67 L941.893 1786.74 Z" fill="#000000" fill-rule="nonzero" fill-opacity="1" /><path clip-path="url(#clip050)" d="M991.662 1767.34 Q988.05 1767.34 986.222 1770.9 Q984.416 1774.45 984.416 1781.58 Q984.416 1788.68 986.222 1792.25 Q988.05 1795.79 991.662 1795.79 Q995.296 1795.79 997.101 1792.25 Q998.93 1788.68 998.93 1781.58 Q998.93 1774.45 997.101 1770.9 Q995.296 1767.34 991.662 1767.34 M991.662 1763.64 Q997.472 1763.64 1000.53 1768.24 Q1003.61 1772.83 1003.61 1781.58 Q1003.61 1790.3 1000.53 1794.91 Q997.472 1799.49 991.662 1799.49 Q985.851 1799.49 982.773 1794.91 Q979.717 1790.3 979.717 1781.58 Q979.717 1772.83 982.773 1768.24 Q985.851 1763.64 991.662 1763.64 Z" fill="#000000" fill-rule="nonzero" fill-opacity="1" /><path clip-path="url(#clip050)" d="M1011.82 1792.94 L1016.71 1792.94 L1016.71 1798.82 L1011.82 1798.82 L1011.82 1792.94 Z" fill="#000000" fill-rule="nonzero" fill-opacity="1" /><path clip-path="url(#clip050)" d="M1030.92 1794.89 L1047.24 1794.89 L1047.24 1798.82 L1025.3 1798.82 L1025.3 1794.89 Q1027.96 1792.13 1032.54 1787.5 Q1037.15 1782.85 1038.33 1781.51 Q1040.57 1778.98 1041.45 1777.25 Q1042.36 1775.49 1042.36 1773.8 Q1042.36 1771.04 1040.41 1769.31 Q1038.49 1767.57 1035.39 1767.57 Q1033.19 1767.57 1030.74 1768.34 Q1028.3 1769.1 1025.53 1770.65 L1025.53 1765.93 Q1028.35 1764.79 1030.8 1764.21 Q1033.26 1763.64 1035.3 1763.64 Q1040.67 1763.64 1043.86 1766.32 Q1047.05 1769.01 1047.05 1773.5 Q1047.05 1775.63 1046.24 1777.55 Q1045.46 1779.45 1043.35 1782.04 Q1042.77 1782.71 1039.67 1785.93 Q1036.57 1789.12 1030.92 1794.89 Z" fill="#000000" fill-rule="nonzero" fill-opacity="1" /><path clip-path="url(#clip050)" d="M1057.1 1764.26 L1075.46 1764.26 L1075.46 1768.2 L1061.38 1768.2 L1061.38 1776.67 Q1062.4 1776.32 1063.42 1776.16 Q1064.44 1775.97 1065.46 1775.97 Q1071.24 1775.97 1074.62 1779.15 Q1078 1782.32 1078 1787.73 Q1078 1793.31 1074.53 1796.41 Q1071.06 1799.49 1064.74 1799.49 Q1062.56 1799.49 1060.3 1799.12 Q1058.05 1798.75 1055.64 1798.01 L1055.64 1793.31 Q1057.73 1794.45 1059.95 1795 Q1062.17 1795.56 1064.65 1795.56 Q1068.65 1795.56 1070.99 1793.45 Q1073.33 1791.34 1073.33 1787.73 Q1073.33 1784.12 1070.99 1782.02 Q1068.65 1779.91 1064.65 1779.91 Q1062.77 1779.91 1060.9 1780.33 Q1059.05 1780.74 1057.1 1781.62 L1057.1 1764.26 Z" fill="#000000" fill-rule="nonzero" fill-opacity="1" /><path clip-path="url(#clip050)" d="M1385.97 1794.1 Q1386.8 1795.21 1389.3 1795.21 L1391.37 1795.21 L1391.37 1798.82 L1388.8 1798.82 Q1384.63 1798.82 1382.73 1796.6 Q1380.83 1794.33 1380.83 1789.42 L1380.83 1777.15 L1371.11 1777.15 L1371.11 1772.9 L1395.02 1772.9 L1395.02 1777.15 L1385.18 1777.15 L1385.18 1789.68 Q1385.18 1793.03 1385.97 1794.1 Z" fill="#000000" fill-rule="nonzero" fill-opacity="1" /><path clip-path="url(#clip050)" d="M1402.36 1777.29 L1432.04 1777.29 L1432.04 1781.18 L1402.36 1781.18 L1402.36 1777.29 M1402.36 1786.74 L1432.04 1786.74 L1432.04 1790.67 L1402.36 1790.67 L1402.36 1786.74 Z" fill="#000000" fill-rule="nonzero" fill-opacity="1" /><path clip-path="url(#clip050)" d="M1452.13 1767.34 Q1448.52 1767.34 1446.69 1770.9 Q1444.88 1774.45 1444.88 1781.58 Q1444.88 1788.68 1446.69 1792.25 Q1448.52 1795.79 1452.13 1795.79 Q1455.76 1795.79 1457.57 1792.25 Q1459.4 1788.68 1459.4 1781.58 Q1459.4 1774.45 1457.57 1770.9 Q1455.76 1767.34 1452.13 1767.34 M1452.13 1763.64 Q1457.94 1763.64 1460.99 1768.24 Q1464.07 1772.83 1464.07 1781.58 Q1464.07 1790.3 1460.99 1794.91 Q1457.94 1799.49 1452.13 1799.49 Q1446.32 1799.49 1443.24 1794.91 Q1440.18 1790.3 1440.18 1781.58 Q1440.18 1772.83 1443.24 1768.24 Q1446.32 1763.64 1452.13 1763.64 Z" fill="#000000" fill-rule="nonzero" fill-opacity="1" /><path clip-path="url(#clip050)" d="M1472.29 1792.94 L1477.17 1792.94 L1477.17 1798.82 L1472.29 1798.82 L1472.29 1792.94 Z" fill="#000000" fill-rule="nonzero" fill-opacity="1" /><path clip-path="url(#clip050)" d="M1487.41 1764.26 L1505.76 1764.26 L1505.76 1768.2 L1491.69 1768.2 L1491.69 1776.67 Q1492.71 1776.32 1493.73 1776.16 Q1494.74 1775.97 1495.76 1775.97 Q1501.55 1775.97 1504.93 1779.15 Q1508.31 1782.32 1508.31 1787.73 Q1508.31 1793.31 1504.84 1796.41 Q1501.36 1799.49 1495.05 1799.49 Q1492.87 1799.49 1490.6 1799.12 Q1488.36 1798.75 1485.95 1798.01 L1485.95 1793.31 Q1488.03 1794.45 1490.25 1795 Q1492.48 1795.56 1494.95 1795.56 Q1498.96 1795.56 1501.3 1793.45 Q1503.63 1791.34 1503.63 1787.73 Q1503.63 1784.12 1501.3 1782.02 Q1498.96 1779.91 1494.95 1779.91 Q1493.08 1779.91 1491.2 1780.33 Q1489.35 1780.74 1487.41 1781.62 L1487.41 1764.26 Z" fill="#000000" fill-rule="nonzero" fill-opacity="1" /><path clip-path="url(#clip050)" d="M1816.28 1794.1 Q1817.11 1795.21 1819.61 1795.21 L1821.67 1795.21 L1821.67 1798.82 L1819.1 1798.82 Q1814.93 1798.82 1813.04 1796.6 Q1811.14 1794.33 1811.14 1789.42 L1811.14 1777.15 L1801.42 1777.15 L1801.42 1772.9 L1825.33 1772.9 L1825.33 1777.15 L1815.49 1777.15 L1815.49 1789.68 Q1815.49 1793.03 1816.28 1794.1 Z" fill="#000000" fill-rule="nonzero" fill-opacity="1" /><path clip-path="url(#clip050)" d="M1832.67 1777.29 L1862.34 1777.29 L1862.34 1781.18 L1832.67 1781.18 L1832.67 1777.29 M1832.67 1786.74 L1862.34 1786.74 L1862.34 1790.67 L1832.67 1790.67 L1832.67 1786.74 Z" fill="#000000" fill-rule="nonzero" fill-opacity="1" /><path clip-path="url(#clip050)" d="M1882.43 1767.34 Q1878.82 1767.34 1876.99 1770.9 Q1875.19 1774.45 1875.19 1781.58 Q1875.19 1788.68 1876.99 1792.25 Q1878.82 1795.79 1882.43 1795.79 Q1886.07 1795.79 1887.87 1792.25 Q1889.7 1788.68 1889.7 1781.58 Q1889.7 1774.45 1887.87 1770.9 Q1886.07 1767.34 1882.43 1767.34 M1882.43 1763.64 Q1888.24 1763.64 1891.3 1768.24 Q1894.38 1772.83 1894.38 1781.58 Q1894.38 1790.3 1891.3 1794.91 Q1888.24 1799.49 1882.43 1799.49 Q1876.62 1799.49 1873.55 1794.91 Q1870.49 1790.3 1870.49 1781.58 Q1870.49 1772.83 1873.55 1768.24 Q1876.62 1763.64 1882.43 1763.64 Z" fill="#000000" fill-rule="nonzero" fill-opacity="1" /><path clip-path="url(#clip050)" d="M1902.6 1792.94 L1907.48 1792.94 L1907.48 1798.82 L1902.6 1798.82 L1902.6 1792.94 Z" fill="#000000" fill-rule="nonzero" fill-opacity="1" /><path clip-path="url(#clip050)" d="M1916.48 1764.26 L1938.71 1764.26 L1938.71 1766.25 L1926.16 1798.82 L1921.28 1798.82 L1933.08 1768.2 L1916.48 1768.2 L1916.48 1764.26 Z" fill="#000000" fill-rule="nonzero" fill-opacity="1" /><path clip-path="url(#clip050)" d="M1947.87 1764.26 L1966.23 1764.26 L1966.23 1768.2 L1952.16 1768.2 L1952.16 1776.67 Q1953.17 1776.32 1954.19 1776.16 Q1955.21 1775.97 1956.23 1775.97 Q1962.02 1775.97 1965.4 1779.15 Q1968.78 1782.32 1968.78 1787.73 Q1968.78 1793.31 1965.3 1796.41 Q1961.83 1799.49 1955.51 1799.49 Q1953.34 1799.49 1951.07 1799.12 Q1948.82 1798.75 1946.42 1798.01 L1946.42 1793.31 Q1948.5 1794.45 1950.72 1795 Q1952.94 1795.56 1955.42 1795.56 Q1959.42 1795.56 1961.76 1793.45 Q1964.1 1791.34 1964.1 1787.73 Q1964.1 1784.12 1961.76 1782.02 Q1959.42 1779.91 1955.42 1779.91 Q1953.54 1779.91 1951.67 1780.33 Q1949.82 1780.74 1947.87 1781.62 L1947.87 1764.26 Z" fill="#000000" fill-rule="nonzero" fill-opacity="1" /><path clip-path="url(#clip050)" d="M2276.34 1794.1 Q2277.17 1795.21 2279.67 1795.21 L2281.73 1795.21 L2281.73 1798.82 L2279.16 1798.82 Q2275 1798.82 2273.1 1796.6 Q2271.2 1794.33 2271.2 1789.42 L2271.2 1777.15 L2261.48 1777.15 L2261.48 1772.9 L2285.39 1772.9 L2285.39 1777.15 L2275.55 1777.15 L2275.55 1789.68 Q2275.55 1793.03 2276.34 1794.1 Z" fill="#000000" fill-rule="nonzero" fill-opacity="1" /><path clip-path="url(#clip050)" d="M2292.73 1777.29 L2322.4 1777.29 L2322.4 1781.18 L2292.73 1781.18 L2292.73 1777.29 M2292.73 1786.74 L2322.4 1786.74 L2322.4 1790.67 L2292.73 1790.67 L2292.73 1786.74 Z" fill="#000000" fill-rule="nonzero" fill-opacity="1" /><path clip-path="url(#clip050)" d="M2342.5 1767.34 Q2338.88 1767.34 2337.06 1770.9 Q2335.25 1774.45 2335.25 1781.58 Q2335.25 1788.68 2337.06 1792.25 Q2338.88 1795.79 2342.5 1795.79 Q2346.13 1795.79 2347.94 1792.25 Q2349.76 1788.68 2349.76 1781.58 Q2349.76 1774.45 2347.94 1770.9 Q2346.13 1767.34 2342.5 1767.34 M2342.5 1763.64 Q2348.31 1763.64 2351.36 1768.24 Q2354.44 1772.83 2354.44 1781.58 Q2354.44 1790.3 2351.36 1794.91 Q2348.31 1799.49 2342.5 1799.49 Q2336.69 1799.49 2333.61 1794.91 Q2330.55 1790.3 2330.55 1781.58 Q2330.55 1772.83 2333.61 1768.24 Q2336.69 1763.64 2342.5 1763.64 Z" fill="#000000" fill-rule="nonzero" fill-opacity="1" /><path clip-path="url(#clip050)" d="M2362.66 1792.94 L2367.54 1792.94 L2367.54 1798.82 L2362.66 1798.82 L2362.66 1792.94 Z" fill="#000000" fill-rule="nonzero" fill-opacity="1" /><path clip-path="url(#clip050)" d="M2377.87 1798.1 L2377.87 1793.84 Q2379.63 1794.68 2381.43 1795.12 Q2383.24 1795.56 2384.97 1795.56 Q2389.6 1795.56 2392.03 1792.46 Q2394.49 1789.33 2394.83 1782.99 Q2393.49 1784.98 2391.43 1786.04 Q2389.37 1787.11 2386.87 1787.11 Q2381.69 1787.11 2378.65 1783.98 Q2375.64 1780.83 2375.64 1775.4 Q2375.64 1770.07 2378.79 1766.85 Q2381.94 1763.64 2387.17 1763.64 Q2393.17 1763.64 2396.32 1768.24 Q2399.49 1772.83 2399.49 1781.58 Q2399.49 1789.75 2395.6 1794.63 Q2391.73 1799.49 2385.18 1799.49 Q2383.42 1799.49 2381.62 1799.15 Q2379.81 1798.8 2377.87 1798.1 M2387.17 1783.45 Q2390.32 1783.45 2392.15 1781.3 Q2394 1779.15 2394 1775.4 Q2394 1771.67 2392.15 1769.52 Q2390.32 1767.34 2387.17 1767.34 Q2384.02 1767.34 2382.17 1769.52 Q2380.34 1771.67 2380.34 1775.4 Q2380.34 1779.15 2382.17 1781.3 Q2384.02 1783.45 2387.17 1783.45 Z" fill="#000000" fill-rule="nonzero" fill-opacity="1" /><path clip-path="url(#clip050)" d="M1273.07 1840.14 Q1266.07 1840.14 1261.93 1845.36 Q1257.83 1850.58 1257.83 1859.59 Q1257.83 1868.56 1261.93 1873.78 Q1266.07 1879 1273.07 1879 Q1280.07 1879 1284.15 1873.78 Q1288.25 1868.56 1288.25 1859.59 Q1288.25 1850.58 1284.15 1845.36 Q1280.07 1840.14 1273.07 1840.14 M1282.08 1882.44 L1290.55 1891.7 L1282.78 1891.7 L1275.75 1884.1 Q1274.69 1884.16 1274.12 1884.19 Q1273.58 1884.22 1273.07 1884.22 Q1263.05 1884.22 1257.03 1877.54 Q1251.05 1870.82 1251.05 1859.59 Q1251.05 1848.32 1257.03 1841.64 Q1263.05 1834.92 1273.07 1834.92 Q1283.07 1834.92 1289.05 1841.64 Q1295.03 1848.32 1295.03 1859.59 Q1295.03 1867.86 1291.69 1873.75 Q1288.38 1879.64 1282.08 1882.44 Z" fill="#000000" fill-rule="nonzero" fill-opacity="1" /><path clip-path="url(#clip050)" d="M1304.23 1869.23 L1304.23 1847.65 L1310.09 1847.65 L1310.09 1869.01 Q1310.09 1874.07 1312.06 1876.62 Q1314.03 1879.13 1317.98 1879.13 Q1322.72 1879.13 1325.46 1876.11 Q1328.23 1873.08 1328.23 1867.86 L1328.23 1847.65 L1334.09 1847.65 L1334.09 1883.3 L1328.23 1883.3 L1328.23 1877.83 Q1326.1 1881.07 1323.27 1882.66 Q1320.46 1884.22 1316.74 1884.22 Q1310.6 1884.22 1307.41 1880.4 Q1304.23 1876.59 1304.23 1869.23 M1318.97 1846.79 L1318.97 1846.79 Z" fill="#000000" fill-rule="nonzero" fill-opacity="1" /><path clip-path="url(#clip050)" d="M1362.35 1865.38 Q1355.25 1865.38 1352.52 1867 Q1349.78 1868.63 1349.78 1872.54 Q1349.78 1875.66 1351.82 1877.51 Q1353.88 1879.32 1357.42 1879.32 Q1362.29 1879.32 1365.22 1875.88 Q1368.18 1872.42 1368.18 1866.69 L1368.18 1865.38 L1362.35 1865.38 M1374.03 1862.96 L1374.03 1883.3 L1368.18 1883.3 L1368.18 1877.89 Q1366.17 1881.14 1363.18 1882.7 Q1360.19 1884.22 1355.86 1884.22 Q1350.38 1884.22 1347.14 1881.17 Q1343.92 1878.08 1343.92 1872.92 Q1343.92 1866.91 1347.93 1863.85 Q1351.97 1860.8 1359.96 1860.8 L1368.18 1860.8 L1368.18 1860.23 Q1368.18 1856.18 1365.5 1853.99 Q1362.86 1851.76 1358.05 1851.76 Q1355 1851.76 1352.1 1852.49 Q1349.21 1853.22 1346.53 1854.69 L1346.53 1849.28 Q1349.75 1848.03 1352.77 1847.43 Q1355.79 1846.79 1358.66 1846.79 Q1366.39 1846.79 1370.21 1850.8 Q1374.03 1854.81 1374.03 1862.96 Z" fill="#000000" fill-rule="nonzero" fill-opacity="1" /><path clip-path="url(#clip050)" d="M1415.73 1861.78 L1415.73 1883.3 L1409.87 1883.3 L1409.87 1861.98 Q1409.87 1856.92 1407.9 1854.4 Q1405.92 1851.89 1401.98 1851.89 Q1397.23 1851.89 1394.5 1854.91 Q1391.76 1857.93 1391.76 1863.15 L1391.76 1883.3 L1385.87 1883.3 L1385.87 1847.65 L1391.76 1847.65 L1391.76 1853.19 Q1393.86 1849.98 1396.69 1848.39 Q1399.56 1846.79 1403.28 1846.79 Q1409.42 1846.79 1412.58 1850.61 Q1415.73 1854.4 1415.73 1861.78 Z" fill="#000000" fill-rule="nonzero" fill-opacity="1" /><path clip-path="url(#clip050)" d="M1433.2 1837.53 L1433.2 1847.65 L1445.26 1847.65 L1445.26 1852.2 L1433.2 1852.2 L1433.2 1871.56 Q1433.2 1875.92 1434.38 1877.16 Q1435.59 1878.4 1439.25 1878.4 L1445.26 1878.4 L1445.26 1883.3 L1439.25 1883.3 Q1432.47 1883.3 1429.89 1880.79 Q1427.31 1878.24 1427.31 1871.56 L1427.31 1852.2 L1423.02 1852.2 L1423.02 1847.65 L1427.31 1847.65 L1427.31 1837.53 L1433.2 1837.53 Z" fill="#000000" fill-rule="nonzero" fill-opacity="1" /><path clip-path="url(#clip050)" d="M1452.97 1847.65 L1458.82 1847.65 L1458.82 1883.3 L1452.97 1883.3 L1452.97 1847.65 M1452.97 1833.78 L1458.82 1833.78 L1458.82 1841.19 L1452.97 1841.19 L1452.97 1833.78 Z" fill="#000000" fill-rule="nonzero" fill-opacity="1" /><path clip-path="url(#clip050)" d="M1471.08 1833.78 L1476.93 1833.78 L1476.93 1883.3 L1471.08 1883.3 L1471.08 1833.78 Z" fill="#000000" fill-rule="nonzero" fill-opacity="1" /><path clip-path="url(#clip050)" d="M1519.68 1864.01 L1519.68 1866.88 L1492.75 1866.88 Q1493.13 1872.92 1496.38 1876.11 Q1499.66 1879.26 1505.48 1879.26 Q1508.86 1879.26 1512.01 1878.43 Q1515.19 1877.6 1518.31 1875.95 L1518.31 1881.49 Q1515.16 1882.82 1511.85 1883.52 Q1508.54 1884.22 1505.13 1884.22 Q1496.6 1884.22 1491.61 1879.26 Q1486.64 1874.29 1486.64 1865.83 Q1486.64 1857.07 1491.35 1851.95 Q1496.09 1846.79 1504.11 1846.79 Q1511.31 1846.79 1515.48 1851.44 Q1519.68 1856.06 1519.68 1864.01 M1513.82 1862.29 Q1513.76 1857.49 1511.12 1854.62 Q1508.51 1851.76 1504.18 1851.76 Q1499.28 1851.76 1496.32 1854.53 Q1493.39 1857.3 1492.94 1862.33 L1513.82 1862.29 Z" fill="#000000" fill-rule="nonzero" fill-opacity="1" /><path clip-path="url(#clip050)" d="M1564.08 1833.84 Q1559.81 1841.16 1557.75 1848.32 Q1555.68 1855.48 1555.68 1862.84 Q1555.68 1870.19 1557.75 1877.41 Q1559.85 1884.61 1564.08 1891.89 L1558.99 1891.89 Q1554.21 1884.41 1551.83 1877.19 Q1549.47 1869.96 1549.47 1862.84 Q1549.47 1855.74 1551.83 1848.54 Q1554.18 1841.35 1558.99 1833.84 L1564.08 1833.84 Z" fill="#000000" fill-rule="nonzero" fill-opacity="1" /><path clip-path="url(#clip050)" d="M1592.92 1876.81 Q1594.06 1878.34 1597.5 1878.34 L1600.33 1878.34 L1600.33 1883.3 L1596.8 1883.3 Q1591.07 1883.3 1588.46 1880.25 Q1585.85 1877.13 1585.85 1870.38 L1585.85 1853.51 L1572.48 1853.51 L1572.48 1847.65 L1605.36 1847.65 L1605.36 1853.51 L1591.83 1853.51 L1591.83 1870.73 Q1591.83 1875.34 1592.92 1876.81 Z" fill="#000000" fill-rule="nonzero" fill-opacity="1" /><path clip-path="url(#clip050)" d="M1613.76 1833.84 L1618.86 1833.84 Q1623.63 1841.35 1625.99 1848.54 Q1628.37 1855.74 1628.37 1862.84 Q1628.37 1869.96 1625.99 1877.19 Q1623.63 1884.41 1618.86 1891.89 L1613.76 1891.89 Q1618 1884.61 1620.07 1877.41 Q1622.17 1870.19 1622.17 1862.84 Q1622.17 1855.48 1620.07 1848.32 Q1618 1841.16 1613.76 1833.84 Z" fill="#000000" fill-rule="nonzero" fill-opacity="1" /><polyline clip-path="url(#clip050)" style="stroke:#000000; stroke-linecap:round; stroke-linejoin:round; stroke-width:4; stroke-opacity:1; fill:none" points="238.664,1734.12 238.664,127.792 "/>
<polyline clip-path="url(#clip050)" style="stroke:#000000; stroke-linecap:round; stroke-linejoin:round; stroke-width:4; stroke-opacity:1; fill:none" points="238.664,1734.12 257.561,1734.12 "/>
<polyline clip-path="url(#clip050)" style="stroke:#000000; stroke-linecap:round; stroke-linejoin:round; stroke-width:4; stroke-opacity:1; fill:none" points="238.664,1406.87 257.561,1406.87 "/>
<polyline clip-path="url(#clip050)" style="stroke:#000000; stroke-linecap:round; stroke-linejoin:round; stroke-width:4; stroke-opacity:1; fill:none" points="238.664,1079.62 257.561,1079.62 "/>
<polyline clip-path="url(#clip050)" style="stroke:#000000; stroke-linecap:round; stroke-linejoin:round; stroke-width:4; stroke-opacity:1; fill:none" points="238.664,752.374 257.561,752.374 "/>
<polyline clip-path="url(#clip050)" style="stroke:#000000; stroke-linecap:round; stroke-linejoin:round; stroke-width:4; stroke-opacity:1; fill:none" points="238.664,425.126 257.561,425.126 "/>
<path clip-path="url(#clip050)" d="M186.399 1719.92 Q182.788 1719.92 180.959 1723.48 Q179.154 1727.02 179.154 1734.15 Q179.154 1741.26 180.959 1744.82 Q182.788 1748.36 186.399 1748.36 Q190.033 1748.36 191.839 1744.82 Q193.668 1741.26 193.668 1734.15 Q193.668 1727.02 191.839 1723.48 Q190.033 1719.92 186.399 1719.92 M186.399 1716.21 Q192.209 1716.21 195.265 1720.82 Q198.344 1725.4 198.344 1734.15 Q198.344 1742.88 195.265 1747.48 Q192.209 1752.07 186.399 1752.07 Q180.589 1752.07 177.51 1747.48 Q174.455 1742.88 174.455 1734.15 Q174.455 1725.4 177.51 1720.82 Q180.589 1716.21 186.399 1716.21 Z" fill="#000000" fill-rule="nonzero" fill-opacity="1" /><path clip-path="url(#clip050)" d="M151.261 1420.21 L167.58 1420.21 L167.58 1424.15 L145.636 1424.15 L145.636 1420.21 Q148.298 1417.46 152.881 1412.83 Q157.487 1408.18 158.668 1406.83 Q160.913 1404.31 161.793 1402.58 Q162.696 1400.82 162.696 1399.13 Q162.696 1396.37 160.751 1394.64 Q158.83 1392.9 155.728 1392.9 Q153.529 1392.9 151.075 1393.66 Q148.645 1394.43 145.867 1395.98 L145.867 1391.26 Q148.691 1390.12 151.145 1389.54 Q153.599 1388.96 155.636 1388.96 Q161.006 1388.96 164.2 1391.65 Q167.395 1394.33 167.395 1398.83 Q167.395 1400.95 166.585 1402.88 Q165.798 1404.77 163.691 1407.37 Q163.112 1408.04 160.011 1411.26 Q156.909 1414.45 151.261 1420.21 Z" fill="#000000" fill-rule="nonzero" fill-opacity="1" /><path clip-path="url(#clip050)" d="M177.441 1389.59 L195.797 1389.59 L195.797 1393.52 L181.723 1393.52 L181.723 1402 Q182.742 1401.65 183.76 1401.49 Q184.779 1401.3 185.797 1401.3 Q191.584 1401.3 194.964 1404.47 Q198.344 1407.64 198.344 1413.06 Q198.344 1418.64 194.871 1421.74 Q191.399 1424.82 185.08 1424.82 Q182.904 1424.82 180.635 1424.45 Q178.39 1424.08 175.983 1423.34 L175.983 1418.64 Q178.066 1419.77 180.288 1420.33 Q182.51 1420.89 184.987 1420.89 Q188.992 1420.89 191.33 1418.78 Q193.668 1416.67 193.668 1413.06 Q193.668 1409.45 191.33 1407.34 Q188.992 1405.24 184.987 1405.24 Q183.112 1405.24 181.237 1405.65 Q179.385 1406.07 177.441 1406.95 L177.441 1389.59 Z" fill="#000000" fill-rule="nonzero" fill-opacity="1" /><path clip-path="url(#clip050)" d="M146.284 1062.34 L164.64 1062.34 L164.64 1066.28 L150.566 1066.28 L150.566 1074.75 Q151.585 1074.4 152.603 1074.24 Q153.622 1074.05 154.64 1074.05 Q160.427 1074.05 163.807 1077.23 Q167.186 1080.4 167.186 1085.81 Q167.186 1091.39 163.714 1094.49 Q160.242 1097.57 153.923 1097.57 Q151.747 1097.57 149.478 1097.2 Q147.233 1096.83 144.825 1096.09 L144.825 1091.39 Q146.909 1092.53 149.131 1093.08 Q151.353 1093.64 153.83 1093.64 Q157.835 1093.64 160.173 1091.53 Q162.51 1089.42 162.51 1085.81 Q162.51 1082.2 160.173 1080.1 Q157.835 1077.99 153.83 1077.99 Q151.955 1077.99 150.08 1078.41 Q148.228 1078.82 146.284 1079.7 L146.284 1062.34 Z" fill="#000000" fill-rule="nonzero" fill-opacity="1" /><path clip-path="url(#clip050)" d="M186.399 1065.42 Q182.788 1065.42 180.959 1068.99 Q179.154 1072.53 179.154 1079.66 Q179.154 1086.76 180.959 1090.33 Q182.788 1093.87 186.399 1093.87 Q190.033 1093.87 191.839 1090.33 Q193.668 1086.76 193.668 1079.66 Q193.668 1072.53 191.839 1068.99 Q190.033 1065.42 186.399 1065.42 M186.399 1061.72 Q192.209 1061.72 195.265 1066.32 Q198.344 1070.91 198.344 1079.66 Q198.344 1088.38 195.265 1092.99 Q192.209 1097.57 186.399 1097.57 Q180.589 1097.57 177.51 1092.99 Q174.455 1088.38 174.455 1079.66 Q174.455 1070.91 177.51 1066.32 Q180.589 1061.72 186.399 1061.72 Z" fill="#000000" fill-rule="nonzero" fill-opacity="1" /><path clip-path="url(#clip050)" d="M146.052 735.094 L168.274 735.094 L168.274 737.085 L155.728 769.654 L150.844 769.654 L162.649 739.029 L146.052 739.029 L146.052 735.094 Z" fill="#000000" fill-rule="nonzero" fill-opacity="1" /><path clip-path="url(#clip050)" d="M177.441 735.094 L195.797 735.094 L195.797 739.029 L181.723 739.029 L181.723 747.501 Q182.742 747.154 183.76 746.992 Q184.779 746.807 185.797 746.807 Q191.584 746.807 194.964 749.978 Q198.344 753.149 198.344 758.566 Q198.344 764.145 194.871 767.246 Q191.399 770.325 185.08 770.325 Q182.904 770.325 180.635 769.955 Q178.39 769.584 175.983 768.844 L175.983 764.145 Q178.066 765.279 180.288 765.834 Q182.51 766.39 184.987 766.39 Q188.992 766.39 191.33 764.284 Q193.668 762.177 193.668 758.566 Q193.668 754.955 191.33 752.848 Q188.992 750.742 184.987 750.742 Q183.112 750.742 181.237 751.159 Q179.385 751.575 177.441 752.455 L177.441 735.094 Z" fill="#000000" fill-rule="nonzero" fill-opacity="1" /><path clip-path="url(#clip050)" d="M116.886 438.471 L124.525 438.471 L124.525 412.105 L116.214 413.772 L116.214 409.513 L124.478 407.846 L129.154 407.846 L129.154 438.471 L136.793 438.471 L136.793 442.406 L116.886 442.406 L116.886 438.471 Z" fill="#000000" fill-rule="nonzero" fill-opacity="1" /><path clip-path="url(#clip050)" d="M156.237 410.925 Q152.626 410.925 150.798 414.49 Q148.992 418.031 148.992 425.161 Q148.992 432.267 150.798 435.832 Q152.626 439.374 156.237 439.374 Q159.872 439.374 161.677 435.832 Q163.506 432.267 163.506 425.161 Q163.506 418.031 161.677 414.49 Q159.872 410.925 156.237 410.925 M156.237 407.221 Q162.048 407.221 165.103 411.828 Q168.182 416.411 168.182 425.161 Q168.182 433.888 165.103 438.494 Q162.048 443.077 156.237 443.077 Q150.427 443.077 147.349 438.494 Q144.293 433.888 144.293 425.161 Q144.293 416.411 147.349 411.828 Q150.427 407.221 156.237 407.221 Z" fill="#000000" fill-rule="nonzero" fill-opacity="1" /><path clip-path="url(#clip050)" d="M186.399 410.925 Q182.788 410.925 180.959 414.49 Q179.154 418.031 179.154 425.161 Q179.154 432.267 180.959 435.832 Q182.788 439.374 186.399 439.374 Q190.033 439.374 191.839 435.832 Q193.668 432.267 193.668 425.161 Q193.668 418.031 191.839 414.49 Q190.033 410.925 186.399 410.925 M186.399 407.221 Q192.209 407.221 195.265 411.828 Q198.344 416.411 198.344 425.161 Q198.344 433.888 195.265 438.494 Q192.209 443.077 186.399 443.077 Q180.589 443.077 177.51 438.494 Q174.455 433.888 174.455 425.161 Q174.455 416.411 177.51 411.828 Q180.589 407.221 186.399 407.221 Z" fill="#000000" fill-rule="nonzero" fill-opacity="1" /><path clip-path="url(#clip050)" d="M19.402 1109 L37.2578 1109 L37.2578 1100.92 Q37.2578 1096.43 34.9343 1093.98 Q32.6108 1091.53 28.314 1091.53 Q24.0489 1091.53 21.7255 1093.98 Q19.402 1096.43 19.402 1100.92 L19.402 1109 M14.1184 1115.43 L14.1184 1100.92 Q14.1184 1092.93 17.7469 1088.86 Q21.3435 1084.75 28.314 1084.75 Q35.3481 1084.75 38.9447 1088.86 Q42.5413 1092.93 42.5413 1100.92 L42.5413 1109 L61.6384 1109 L61.6384 1115.43 L14.1184 1115.43 Z" fill="#000000" fill-rule="nonzero" fill-opacity="1" /><path clip-path="url(#clip050)" d="M25.9905 1077.81 L25.9905 1071.95 L61.6384 1071.95 L61.6384 1077.81 L25.9905 1077.81 M12.1132 1077.81 L12.1132 1071.95 L19.5293 1071.95 L19.5293 1077.81 L12.1132 1077.81 Z" fill="#000000" fill-rule="nonzero" fill-opacity="1" /><path clip-path="url(#clip050)" d="M40.1224 1030.07 L61.6384 1030.07 L61.6384 1035.93 L40.3133 1035.93 Q35.2526 1035.93 32.7381 1037.9 Q30.2237 1039.87 30.2237 1043.82 Q30.2237 1048.56 33.2474 1051.3 Q36.2711 1054.04 41.491 1054.04 L61.6384 1054.04 L61.6384 1059.92 L25.9905 1059.92 L25.9905 1054.04 L31.5287 1054.04 Q28.314 1051.93 26.7225 1049.1 Q25.1311 1046.24 25.1311 1042.51 Q25.1311 1036.37 28.9505 1033.22 Q32.7381 1030.07 40.1224 1030.07 Z" fill="#000000" fill-rule="nonzero" fill-opacity="1" /><path clip-path="url(#clip050)" d="M43.8463 992.797 Q37.3851 992.797 33.7248 995.471 Q30.0327 998.113 30.0327 1002.76 Q30.0327 1007.41 33.7248 1010.08 Q37.3851 1012.72 43.8463 1012.72 Q50.3075 1012.72 53.9996 1010.08 Q57.6599 1007.41 57.6599 1002.76 Q57.6599 998.113 53.9996 995.471 Q50.3075 992.797 43.8463 992.797 M31.4013 1012.72 Q28.2185 1010.88 26.6907 1008.08 Q25.1311 1005.24 25.1311 1001.33 Q25.1311 994.834 30.2873 990.792 Q35.4436 986.718 43.8463 986.718 Q52.249 986.718 57.4052 990.792 Q62.5615 994.834 62.5615 1001.33 Q62.5615 1005.24 61.0337 1008.08 Q59.4741 1010.88 56.2912 1012.72 L61.6384 1012.72 L61.6384 1018.61 L12.1132 1018.61 L12.1132 1012.72 L31.4013 1012.72 Z" fill="#000000" fill-rule="nonzero" fill-opacity="1" /><path clip-path="url(#clip050)" d="M43.719 960.81 Q43.719 967.907 45.3422 970.645 Q46.9655 973.382 50.8804 973.382 Q53.9996 973.382 55.8457 971.345 Q57.6599 969.276 57.6599 965.743 Q57.6599 960.873 54.2224 957.945 Q50.7531 954.985 45.0239 954.985 L43.719 954.985 L43.719 960.81 M41.3 949.129 L61.6384 949.129 L61.6384 954.985 L56.2276 954.985 Q59.4741 956.99 61.0337 959.982 Q62.5615 962.974 62.5615 967.303 Q62.5615 972.777 59.5059 976.024 Q56.4186 979.238 51.2623 979.238 Q45.2467 979.238 42.1912 975.228 Q39.1357 971.186 39.1357 963.197 L39.1357 954.985 L38.5628 954.985 Q34.5205 954.985 32.3244 957.659 Q30.0964 960.3 30.0964 965.107 Q30.0964 968.162 30.8284 971.059 Q31.5605 973.955 33.0246 976.629 L27.6137 976.629 Q26.3724 973.414 25.7677 970.39 Q25.1311 967.366 25.1311 964.502 Q25.1311 956.767 29.1415 952.948 Q33.1519 949.129 41.3 949.129 Z" fill="#000000" fill-rule="nonzero" fill-opacity="1" /><path clip-path="url(#clip050)" d="M12.1132 937.066 L12.1132 931.209 L61.6384 931.209 L61.6384 937.066 L12.1132 937.066 Z" fill="#000000" fill-rule="nonzero" fill-opacity="1" /><path clip-path="url(#clip050)" d="M12.1132 918.955 L12.1132 913.099 L61.6384 913.099 L61.6384 918.955 L12.1132 918.955 Z" fill="#000000" fill-rule="nonzero" fill-opacity="1" /><path clip-path="url(#clip050)" d="M14.1184 879.87 L14.1184 873.44 L56.2276 873.44 L56.2276 850.301 L61.6384 850.301 L61.6384 879.87 L14.1184 879.87 Z" fill="#000000" fill-rule="nonzero" fill-opacity="1" /><path clip-path="url(#clip050)" d="M30.0964 831.14 Q30.0964 835.851 33.7885 838.588 Q37.4488 841.325 43.8463 841.325 Q50.2438 841.325 53.9359 838.62 Q57.5962 835.883 57.5962 831.14 Q57.5962 826.461 53.9041 823.724 Q50.212 820.987 43.8463 820.987 Q37.5124 820.987 33.8203 823.724 Q30.0964 826.461 30.0964 831.14 M25.1311 831.14 Q25.1311 823.501 30.0964 819.141 Q35.0616 814.78 43.8463 814.78 Q52.5991 814.78 57.5962 819.141 Q62.5615 823.501 62.5615 831.14 Q62.5615 838.811 57.5962 843.171 Q52.5991 847.5 43.8463 847.5 Q35.0616 847.5 30.0964 843.171 Q25.1311 838.811 25.1311 831.14 Z" fill="#000000" fill-rule="nonzero" fill-opacity="1" /><path clip-path="url(#clip050)" d="M27.0408 782.347 L32.579 782.347 Q31.3059 784.83 30.6693 787.503 Q30.0327 790.177 30.0327 793.042 Q30.0327 797.402 31.3695 799.598 Q32.7063 801.763 35.3799 801.763 Q37.4169 801.763 38.5946 800.203 Q39.7404 798.643 40.7908 793.933 L41.2364 791.928 Q42.5732 785.689 45.0239 783.079 Q47.4429 780.437 51.8034 780.437 Q56.7687 780.437 59.6651 784.384 Q62.5615 788.299 62.5615 795.174 Q62.5615 798.039 61.9886 801.158 Q61.4475 804.245 60.3335 807.683 L54.2861 807.683 Q55.973 804.436 56.8323 801.285 Q57.6599 798.134 57.6599 795.047 Q57.6599 790.909 56.2594 788.681 Q54.8271 786.453 52.249 786.453 Q49.8619 786.453 48.5887 788.076 Q47.3156 789.668 46.1379 795.11 L45.6605 797.147 Q44.5147 802.59 42.1594 805.009 Q39.7722 807.428 35.6345 807.428 Q30.6056 807.428 27.8684 803.863 Q25.1311 800.298 25.1311 793.742 Q25.1311 790.495 25.6085 787.631 Q26.086 784.766 27.0408 782.347 Z" fill="#000000" fill-rule="nonzero" fill-opacity="1" /><path clip-path="url(#clip050)" d="M27.0408 748.386 L32.579 748.386 Q31.3059 750.869 30.6693 753.542 Q30.0327 756.216 30.0327 759.08 Q30.0327 763.441 31.3695 765.637 Q32.7063 767.801 35.3799 767.801 Q37.4169 767.801 38.5946 766.242 Q39.7404 764.682 40.7908 759.972 L41.2364 757.966 Q42.5732 751.728 45.0239 749.118 Q47.4429 746.476 51.8034 746.476 Q56.7687 746.476 59.6651 750.423 Q62.5615 754.338 62.5615 761.213 Q62.5615 764.078 61.9886 767.197 Q61.4475 770.284 60.3335 773.722 L54.2861 773.722 Q55.973 770.475 56.8323 767.324 Q57.6599 764.173 57.6599 761.086 Q57.6599 756.948 56.2594 754.72 Q54.8271 752.492 52.249 752.492 Q49.8619 752.492 48.5887 754.115 Q47.3156 755.707 46.1379 761.149 L45.6605 763.186 Q44.5147 768.629 42.1594 771.048 Q39.7722 773.467 35.6345 773.467 Q30.6056 773.467 27.8684 769.902 Q25.1311 766.337 25.1311 759.781 Q25.1311 756.534 25.6085 753.67 Q26.086 750.805 27.0408 748.386 Z" fill="#000000" fill-rule="nonzero" fill-opacity="1" /><path clip-path="url(#clip050)" d="M960.549 18.8205 L960.549 41.5461 L970.838 41.5461 Q976.55 41.5461 979.669 38.5889 Q982.788 35.6318 982.788 30.163 Q982.788 24.7348 979.669 21.7777 Q976.55 18.8205 970.838 18.8205 L960.549 18.8205 M952.366 12.096 L970.838 12.096 Q981.006 12.096 986.191 16.714 Q991.416 21.2916 991.416 30.163 Q991.416 39.1155 986.191 43.6931 Q981.006 48.2706 970.838 48.2706 L960.549 48.2706 L960.549 72.576 L952.366 72.576 L952.366 12.096 Z" fill="#000000" fill-rule="nonzero" fill-opacity="1" /><path clip-path="url(#clip050)" d="M1000.25 27.2059 L1007.7 27.2059 L1007.7 72.576 L1000.25 72.576 L1000.25 27.2059 M1000.25 9.54393 L1007.7 9.54393 L1007.7 18.9825 L1000.25 18.9825 L1000.25 9.54393 Z" fill="#000000" fill-rule="nonzero" fill-opacity="1" /><path clip-path="url(#clip050)" d="M1061.01 45.1919 L1061.01 72.576 L1053.56 72.576 L1053.56 45.4349 Q1053.56 38.994 1051.05 35.7938 Q1048.53 32.5936 1043.51 32.5936 Q1037.48 32.5936 1033.99 36.4419 Q1030.51 40.2903 1030.51 46.9338 L1030.51 72.576 L1023.01 72.576 L1023.01 27.2059 L1030.51 27.2059 L1030.51 34.2544 Q1033.18 30.163 1036.79 28.1376 Q1040.43 26.1121 1045.17 26.1121 Q1052.99 26.1121 1057 30.9732 Q1061.01 35.7938 1061.01 45.1919 Z" fill="#000000" fill-rule="nonzero" fill-opacity="1" /><path clip-path="url(#clip050)" d="M1108.45 49.9314 Q1108.45 41.7081 1105.04 37.0496 Q1101.68 32.3505 1095.77 32.3505 Q1089.85 32.3505 1086.45 37.0496 Q1083.09 41.7081 1083.09 49.9314 Q1083.09 58.1548 1086.45 62.8538 Q1089.85 67.5124 1095.77 67.5124 Q1101.68 67.5124 1105.04 62.8538 Q1108.45 58.1548 1108.45 49.9314 M1083.09 34.0924 Q1085.44 30.0415 1089 28.0971 Q1092.61 26.1121 1097.59 26.1121 Q1105.85 26.1121 1111 32.6746 Q1116.18 39.2371 1116.18 49.9314 Q1116.18 60.6258 1111 67.1883 Q1105.85 73.7508 1097.59 73.7508 Q1092.61 73.7508 1089 71.8063 Q1085.44 69.8214 1083.09 65.7705 L1083.09 72.576 L1075.59 72.576 L1075.59 9.54393 L1083.09 9.54393 L1083.09 34.0924 Z" fill="#000000" fill-rule="nonzero" fill-opacity="1" /><path clip-path="url(#clip050)" d="M1149.16 49.7694 Q1140.13 49.7694 1136.64 51.8354 Q1133.16 53.9013 1133.16 58.8839 Q1133.16 62.8538 1135.75 65.2034 Q1138.38 67.5124 1142.88 67.5124 Q1149.08 67.5124 1152.8 63.1374 Q1156.57 58.7219 1156.57 51.4303 L1156.57 49.7694 L1149.16 49.7694 M1164.03 46.6907 L1164.03 72.576 L1156.57 72.576 L1156.57 65.6895 Q1154.02 69.8214 1150.21 71.8063 Q1146.4 73.7508 1140.89 73.7508 Q1133.93 73.7508 1129.8 69.8619 Q1125.7 65.9325 1125.7 59.3701 Q1125.7 51.7138 1130.81 47.825 Q1135.95 43.9361 1146.12 43.9361 L1156.57 43.9361 L1156.57 43.2069 Q1156.57 38.0623 1153.17 35.2672 Q1149.81 32.4315 1143.69 32.4315 Q1139.8 32.4315 1136.11 33.3632 Q1132.43 34.295 1129.03 36.1584 L1129.03 29.2718 Q1133.12 27.692 1136.97 26.9223 Q1140.81 26.1121 1144.46 26.1121 Q1154.3 26.1121 1159.16 31.2163 Q1164.03 36.3204 1164.03 46.6907 Z" fill="#000000" fill-rule="nonzero" fill-opacity="1" /><path clip-path="url(#clip050)" d="M1179.38 9.54393 L1186.83 9.54393 L1186.83 72.576 L1179.38 72.576 L1179.38 9.54393 Z" fill="#000000" fill-rule="nonzero" fill-opacity="1" /><path clip-path="url(#clip050)" d="M1202.43 9.54393 L1209.88 9.54393 L1209.88 72.576 L1202.43 72.576 L1202.43 9.54393 Z" fill="#000000" fill-rule="nonzero" fill-opacity="1" /><path clip-path="url(#clip050)" d="M1252.17 12.096 L1260.36 12.096 L1260.36 65.6895 L1289.81 65.6895 L1289.81 72.576 L1252.17 72.576 L1252.17 12.096 Z" fill="#000000" fill-rule="nonzero" fill-opacity="1" /><path clip-path="url(#clip050)" d="M1314.19 32.4315 Q1308.2 32.4315 1304.71 37.1306 Q1301.23 41.7891 1301.23 49.9314 Q1301.23 58.0738 1304.67 62.7728 Q1308.16 67.4314 1314.19 67.4314 Q1320.15 67.4314 1323.63 62.7323 Q1327.11 58.0333 1327.11 49.9314 Q1327.11 41.8701 1323.63 37.1711 Q1320.15 32.4315 1314.19 32.4315 M1314.19 26.1121 Q1323.91 26.1121 1329.46 32.4315 Q1335.01 38.7509 1335.01 49.9314 Q1335.01 61.0714 1329.46 67.4314 Q1323.91 73.7508 1314.19 73.7508 Q1304.43 73.7508 1298.88 67.4314 Q1293.37 61.0714 1293.37 49.9314 Q1293.37 38.7509 1298.88 32.4315 Q1304.43 26.1121 1314.19 26.1121 Z" fill="#000000" fill-rule="nonzero" fill-opacity="1" /><path clip-path="url(#clip050)" d="M1376.29 28.5427 L1376.29 35.5912 Q1373.13 33.9709 1369.73 33.1607 Q1366.33 32.3505 1362.68 32.3505 Q1357.13 32.3505 1354.34 34.0519 Q1351.58 35.7533 1351.58 39.156 Q1351.58 41.7486 1353.57 43.2475 Q1355.55 44.7058 1361.55 46.0426 L1364.1 46.6097 Q1372.04 48.3111 1375.36 51.4303 Q1378.72 54.509 1378.72 60.0587 Q1378.72 66.3781 1373.7 70.0644 Q1368.72 73.7508 1359.97 73.7508 Q1356.32 73.7508 1352.35 73.0216 Q1348.42 72.3329 1344.05 70.9151 L1344.05 63.2184 Q1348.18 65.3654 1352.19 66.4591 Q1356.2 67.5124 1360.13 67.5124 Q1365.4 67.5124 1368.23 65.73 Q1371.07 63.9071 1371.07 60.6258 Q1371.07 57.5877 1369 55.9673 Q1366.98 54.3469 1360.05 52.8481 L1357.46 52.2405 Q1350.53 50.7821 1347.45 47.7845 Q1344.37 44.7463 1344.37 39.4801 Q1344.37 33.0797 1348.91 29.5959 Q1353.45 26.1121 1361.79 26.1121 Q1365.92 26.1121 1369.57 26.7198 Q1373.21 27.3274 1376.29 28.5427 Z" fill="#000000" fill-rule="nonzero" fill-opacity="1" /><path clip-path="url(#clip050)" d="M1419.52 28.5427 L1419.52 35.5912 Q1416.36 33.9709 1412.95 33.1607 Q1409.55 32.3505 1405.9 32.3505 Q1400.36 32.3505 1397.56 34.0519 Q1394.81 35.7533 1394.81 39.156 Q1394.81 41.7486 1396.79 43.2475 Q1398.78 44.7058 1404.77 46.0426 L1407.32 46.6097 Q1415.26 48.3111 1418.58 51.4303 Q1421.95 54.509 1421.95 60.0587 Q1421.95 66.3781 1416.92 70.0644 Q1411.94 73.7508 1403.19 73.7508 Q1399.55 73.7508 1395.58 73.0216 Q1391.65 72.3329 1387.27 70.9151 L1387.27 63.2184 Q1391.4 65.3654 1395.41 66.4591 Q1399.42 67.5124 1403.35 67.5124 Q1408.62 67.5124 1411.45 65.73 Q1414.29 63.9071 1414.29 60.6258 Q1414.29 57.5877 1412.22 55.9673 Q1410.2 54.3469 1403.27 52.8481 L1400.68 52.2405 Q1393.75 50.7821 1390.67 47.7845 Q1387.59 44.7463 1387.59 39.4801 Q1387.59 33.0797 1392.13 29.5959 Q1396.67 26.1121 1405.01 26.1121 Q1409.15 26.1121 1412.79 26.7198 Q1416.44 27.3274 1419.52 28.5427 Z" fill="#000000" fill-rule="nonzero" fill-opacity="1" /><path clip-path="url(#clip050)" d="M1492.76 49.9314 Q1492.76 41.7081 1489.35 37.0496 Q1485.99 32.3505 1480.08 32.3505 Q1474.16 32.3505 1470.76 37.0496 Q1467.4 41.7081 1467.4 49.9314 Q1467.4 58.1548 1470.76 62.8538 Q1474.16 67.5124 1480.08 67.5124 Q1485.99 67.5124 1489.35 62.8538 Q1492.76 58.1548 1492.76 49.9314 M1467.4 34.0924 Q1469.75 30.0415 1473.31 28.0971 Q1476.92 26.1121 1481.9 26.1121 Q1490.16 26.1121 1495.31 32.6746 Q1500.49 39.2371 1500.49 49.9314 Q1500.49 60.6258 1495.31 67.1883 Q1490.16 73.7508 1481.9 73.7508 Q1476.92 73.7508 1473.31 71.8063 Q1469.75 69.8214 1467.4 65.7705 L1467.4 72.576 L1459.9 72.576 L1459.9 9.54393 L1467.4 9.54393 L1467.4 34.0924 Z" fill="#000000" fill-rule="nonzero" fill-opacity="1" /><path clip-path="url(#clip050)" d="M1531.73 76.7889 Q1528.57 84.8907 1525.57 87.3618 Q1522.57 89.8329 1517.55 89.8329 L1511.59 89.8329 L1511.59 83.5945 L1515.97 83.5945 Q1519.05 83.5945 1520.75 82.1361 Q1522.45 80.6778 1524.52 75.2496 L1525.85 71.8468 L1507.5 27.2059 L1515.4 27.2059 L1529.58 62.6918 L1543.76 27.2059 L1551.66 27.2059 L1531.73 76.7889 Z" fill="#000000" fill-rule="nonzero" fill-opacity="1" /><path clip-path="url(#clip050)" d="M1613.19 17.6457 Q1604.28 17.6457 1599.01 24.2892 Q1593.79 30.9327 1593.79 42.3968 Q1593.79 53.8203 1599.01 60.4638 Q1604.28 67.1073 1613.19 67.1073 Q1622.1 67.1073 1627.29 60.4638 Q1632.51 53.8203 1632.51 42.3968 Q1632.51 30.9327 1627.29 24.2892 Q1622.1 17.6457 1613.19 17.6457 M1624.65 71.4823 L1635.43 83.2704 L1625.55 83.2704 L1616.59 73.5887 Q1615.26 73.6697 1614.53 73.7103 Q1613.84 73.7508 1613.19 73.7508 Q1600.43 73.7508 1592.77 65.2439 Q1585.16 56.6965 1585.16 42.3968 Q1585.16 28.0566 1592.77 19.5497 Q1600.43 11.0023 1613.19 11.0023 Q1625.91 11.0023 1633.53 19.5497 Q1641.14 28.0566 1641.14 42.3968 Q1641.14 52.9291 1636.89 60.4233 Q1632.67 67.9175 1624.65 71.4823 Z" fill="#000000" fill-rule="nonzero" fill-opacity="1" /><path clip-path="url(#clip050)" d="M1652.85 54.671 L1652.85 27.2059 L1660.3 27.2059 L1660.3 54.3874 Q1660.3 60.8284 1662.81 64.0691 Q1665.32 67.2693 1670.35 67.2693 Q1676.38 67.2693 1679.87 63.421 Q1683.39 59.5726 1683.39 52.9291 L1683.39 27.2059 L1690.85 27.2059 L1690.85 72.576 L1683.39 72.576 L1683.39 65.6084 Q1680.68 69.7404 1677.07 71.7658 Q1673.51 73.7508 1668.77 73.7508 Q1660.95 73.7508 1656.9 68.8897 Q1652.85 64.0286 1652.85 54.671 M1671.6 26.1121 L1671.6 26.1121 Z" fill="#000000" fill-rule="nonzero" fill-opacity="1" /><path clip-path="url(#clip050)" d="M1726.82 49.7694 Q1717.78 49.7694 1714.3 51.8354 Q1710.82 53.9013 1710.82 58.8839 Q1710.82 62.8538 1713.41 65.2034 Q1716.04 67.5124 1720.54 67.5124 Q1726.74 67.5124 1730.46 63.1374 Q1734.23 58.7219 1734.23 51.4303 L1734.23 49.7694 L1726.82 49.7694 M1741.68 46.6907 L1741.68 72.576 L1734.23 72.576 L1734.23 65.6895 Q1731.68 69.8214 1727.87 71.8063 Q1724.06 73.7508 1718.55 73.7508 Q1711.59 73.7508 1707.45 69.8619 Q1703.36 65.9325 1703.36 59.3701 Q1703.36 51.7138 1708.47 47.825 Q1713.61 43.9361 1723.78 43.9361 L1734.23 43.9361 L1734.23 43.2069 Q1734.23 38.0623 1730.83 35.2672 Q1727.47 32.4315 1721.35 32.4315 Q1717.46 32.4315 1713.77 33.3632 Q1710.09 34.295 1706.68 36.1584 L1706.68 29.2718 Q1710.78 27.692 1714.62 26.9223 Q1718.47 26.1121 1722.12 26.1121 Q1731.96 26.1121 1736.82 31.2163 Q1741.68 36.3204 1741.68 46.6907 Z" fill="#000000" fill-rule="nonzero" fill-opacity="1" /><path clip-path="url(#clip050)" d="M1794.75 45.1919 L1794.75 72.576 L1787.3 72.576 L1787.3 45.4349 Q1787.3 38.994 1784.79 35.7938 Q1782.27 32.5936 1777.25 32.5936 Q1771.22 32.5936 1767.73 36.4419 Q1764.25 40.2903 1764.25 46.9338 L1764.25 72.576 L1756.75 72.576 L1756.75 27.2059 L1764.25 27.2059 L1764.25 34.2544 Q1766.92 30.163 1770.53 28.1376 Q1774.17 26.1121 1778.91 26.1121 Q1786.73 26.1121 1790.74 30.9732 Q1794.75 35.7938 1794.75 45.1919 Z" fill="#000000" fill-rule="nonzero" fill-opacity="1" /><path clip-path="url(#clip050)" d="M1816.99 14.324 L1816.99 27.2059 L1832.34 27.2059 L1832.34 32.9987 L1816.99 32.9987 L1816.99 57.6282 Q1816.99 63.1779 1818.49 64.7578 Q1820.03 66.3376 1824.69 66.3376 L1832.34 66.3376 L1832.34 72.576 L1824.69 72.576 Q1816.06 72.576 1812.78 69.3758 Q1809.5 66.1351 1809.5 57.6282 L1809.5 32.9987 L1804.03 32.9987 L1804.03 27.2059 L1809.5 27.2059 L1809.5 14.324 L1816.99 14.324 Z" fill="#000000" fill-rule="nonzero" fill-opacity="1" /><path clip-path="url(#clip050)" d="M1842.15 27.2059 L1849.6 27.2059 L1849.6 72.576 L1842.15 72.576 L1842.15 27.2059 M1842.15 9.54393 L1849.6 9.54393 L1849.6 18.9825 L1842.15 18.9825 L1842.15 9.54393 Z" fill="#000000" fill-rule="nonzero" fill-opacity="1" /><path clip-path="url(#clip050)" d="M1865.2 9.54393 L1872.65 9.54393 L1872.65 72.576 L1865.2 72.576 L1865.2 9.54393 Z" fill="#000000" fill-rule="nonzero" fill-opacity="1" /><path clip-path="url(#clip050)" d="M1927.05 48.0275 L1927.05 51.6733 L1892.78 51.6733 Q1893.27 59.3701 1897.4 63.421 Q1901.57 67.4314 1908.99 67.4314 Q1913.28 67.4314 1917.29 66.3781 Q1921.34 65.3249 1925.31 63.2184 L1925.31 70.267 Q1921.3 71.9684 1917.09 72.8596 Q1912.88 73.7508 1908.54 73.7508 Q1897.68 73.7508 1891.32 67.4314 Q1885.01 61.1119 1885.01 50.3365 Q1885.01 39.1965 1891 32.6746 Q1897.04 26.1121 1907.24 26.1121 Q1916.4 26.1121 1921.71 32.0264 Q1927.05 37.9003 1927.05 48.0275 M1919.6 45.84 Q1919.52 39.7232 1916.16 36.0774 Q1912.84 32.4315 1907.33 32.4315 Q1901.09 32.4315 1897.32 35.9558 Q1893.59 39.4801 1893.03 45.8805 L1919.6 45.84 Z" fill="#000000" fill-rule="nonzero" fill-opacity="1" /><path clip-path="url(#clip051)" d="M370.783 547.951 L370.783 1734.12 L727.092 1734.12 L727.092 547.951 L370.783 547.951 L370.783 547.951  Z" fill="#008080" fill-rule="evenodd" fill-opacity="0.8"/>
<polyline clip-path="url(#clip051)" style="stroke:#000000; stroke-linecap:round; stroke-linejoin:round; stroke-width:4; stroke-opacity:0.8; fill:none" points="370.783,547.951 370.783,1734.12 727.092,1734.12 727.092,547.951 370.783,547.951 "/>
<path clip-path="url(#clip051)" d="M816.169 127.792 L816.169 1734.12 L1172.48 1734.12 L1172.48 127.792 L816.169 127.792 L816.169 127.792  Z" fill="#008080" fill-rule="evenodd" fill-opacity="0.8"/>
<polyline clip-path="url(#clip051)" style="stroke:#000000; stroke-linecap:round; stroke-linejoin:round; stroke-width:4; stroke-opacity:0.8; fill:none" points="816.169,127.792 816.169,1734.12 1172.48,1734.12 1172.48,127.792 816.169,127.792 "/>
<path clip-path="url(#clip051)" d="M1261.56 225.718 L1261.56 1734.12 L1617.86 1734.12 L1617.86 225.718 L1261.56 225.718 L1261.56 225.718  Z" fill="#008080" fill-rule="evenodd" fill-opacity="0.8"/>
<polyline clip-path="url(#clip051)" style="stroke:#000000; stroke-linecap:round; stroke-linejoin:round; stroke-width:4; stroke-opacity:0.8; fill:none" points="1261.56,225.718 1261.56,1734.12 1617.86,1734.12 1617.86,225.718 1261.56,225.718 "/>
<path clip-path="url(#clip051)" d="M1706.94 383.565 L1706.94 1734.12 L2063.25 1734.12 L2063.25 383.565 L1706.94 383.565 L1706.94 383.565  Z" fill="#008080" fill-rule="evenodd" fill-opacity="0.8"/>
<polyline clip-path="url(#clip051)" style="stroke:#000000; stroke-linecap:round; stroke-linejoin:round; stroke-width:4; stroke-opacity:0.8; fill:none" points="1706.94,383.565 1706.94,1734.12 2063.25,1734.12 2063.25,383.565 1706.94,383.565 "/>
<path clip-path="url(#clip051)" d="M2152.33 823.942 L2152.33 1734.12 L2508.64 1734.12 L2508.64 823.942 L2152.33 823.942 L2152.33 823.942  Z" fill="#008080" fill-rule="evenodd" fill-opacity="0.8"/>
<polyline clip-path="url(#clip051)" style="stroke:#000000; stroke-linecap:round; stroke-linejoin:round; stroke-width:4; stroke-opacity:0.8; fill:none" points="2152.33,823.942 2152.33,1734.12 2508.64,1734.12 2508.64,823.942 2152.33,823.942 "/>
<circle clip-path="url(#clip051)" style="fill:#008080; stroke:none; fill-opacity:0" cx="548.937" cy="547.951" r="2"/>
<circle clip-path="url(#clip051)" style="fill:#008080; stroke:none; fill-opacity:0" cx="1439.71" cy="225.718" r="2"/>
<circle clip-path="url(#clip051)" style="fill:#008080; stroke:none; fill-opacity:0" cx="1885.1" cy="383.565" r="2"/>
<circle clip-path="url(#clip051)" style="fill:#008080; stroke:none; fill-opacity:0" cx="2330.48" cy="823.942" r="2"/>
</svg>
