<?xml version="1.0" encoding="utf-8"?>
<svg xmlns="http://www.w3.org/2000/svg" xmlns:xlink="http://www.w3.org/1999/xlink" width="672" height="480" viewBox="0 0 2688 1920">
<defs>
  <clipPath id="clip020">
    <rect x="0" y="0" width="2688" height="1920"/>
  </clipPath>
</defs>
<path clip-path="url(#clip020)" d="M0 1920 L2688 1920 L2688 -4.26326e-14 L0 -4.26326e-14  Z" fill="#ffffff" fill-rule="evenodd" fill-opacity="1"/>
<defs>
  <clipPath id="clip021">
    <rect x="226" y="127" width="2416" height="1607"/>
  </clipPath>
</defs>
<path clip-path="url(#clip020)" d="M226.141 1734.12 L2640.76 1734.12 L2640.76 127.792 L226.141 127.792  Z" fill="#ffffff" fill-rule="evenodd" fill-opacity="1"/>
<polyline clip-path="url(#clip021)" style="stroke:#000000; stroke-linecap:round; stroke-linejoin:round; stroke-width:2; stroke-opacity:0.1; fill:none" points="538.032,1734.12 538.032,127.792 "/>
<polyline clip-path="url(#clip021)" style="stroke:#000000; stroke-linecap:round; stroke-linejoin:round; stroke-width:2; stroke-opacity:0.1; fill:none" points="985.74,1734.12 985.74,127.792 "/>
<polyline clip-path="url(#clip021)" style="stroke:#000000; stroke-linecap:round; stroke-linejoin:round; stroke-width:2; stroke-opacity:0.1; fill:none" points="1433.45,1734.12 1433.45,127.792 "/>
<polyline clip-path="url(#clip021)" style="stroke:#000000; stroke-linecap:round; stroke-linejoin:round; stroke-width:2; stroke-opacity:0.1; fill:none" points="1881.16,1734.12 1881.16,127.792 "/>
<polyline clip-path="url(#clip021)" style="stroke:#000000; stroke-linecap:round; stroke-linejoin:round; stroke-width:2; stroke-opacity:0.1; fill:none" points="2328.86,1734.12 2328.86,127.792 "/>
<polyline clip-path="url(#clip021)" style="stroke:#000000; stroke-linecap:round; stroke-linejoin:round; stroke-width:2; stroke-opacity:0.1; fill:none" points="226.141,1734.12 2640.76,1734.12 "/>
<polyline clip-path="url(#clip021)" style="stroke:#000000; stroke-linecap:round; stroke-linejoin:round; stroke-width:2; stroke-opacity:0.1; fill:none" points="226.141,1412.85 2640.76,1412.85 "/>
<polyline clip-path="url(#clip021)" style="stroke:#000000; stroke-linecap:round; stroke-linejoin:round; stroke-width:2; stroke-opacity:0.1; fill:none" points="226.141,1091.59 2640.76,1091.59 "/>
<polyline clip-path="url(#clip021)" style="stroke:#000000; stroke-linecap:round; stroke-linejoin:round; stroke-width:2; stroke-opacity:0.1; fill:none" points="226.141,770.322 2640.76,770.322 "/>
<polyline clip-path="url(#clip021)" style="stroke:#000000; stroke-linecap:round; stroke-linejoin:round; stroke-width:2; stroke-opacity:0.1; fill:none" points="226.141,449.057 2640.76,449.057 "/>
<polyline clip-path="url(#clip021)" style="stroke:#000000; stroke-linecap:round; stroke-linejoin:round; stroke-width:2; stroke-opacity:0.1; fill:none" points="226.141,127.792 2640.76,127.792 "/>
<polyline clip-path="url(#clip020)" style="stroke:#000000; stroke-linecap:round; stroke-linejoin:round; stroke-width:4; stroke-opacity:1; fill:none" points="226.141,1734.12 2640.76,1734.12 "/>
<polyline clip-path="url(#clip020)" style="stroke:#000000; stroke-linecap:round; stroke-linejoin:round; stroke-width:4; stroke-opacity:1; fill:none" points="538.032,1734.12 538.032,1715.22 "/>
<polyline clip-path="url(#clip020)" style="stroke:#000000; stroke-linecap:round; stroke-linejoin:round; stroke-width:4; stroke-opacity:1; fill:none" points="985.74,1734.12 985.74,1715.22 "/>
<polyline clip-path="url(#clip020)" style="stroke:#000000; stroke-linecap:round; stroke-linejoin:round; stroke-width:4; stroke-opacity:1; fill:none" points="1433.45,1734.12 1433.45,1715.22 "/>
<polyline clip-path="url(#clip020)" style="stroke:#000000; stroke-linecap:round; stroke-linejoin:round; stroke-width:4; stroke-opacity:1; fill:none" points="1881.16,1734.12 1881.16,1715.22 "/>
<polyline clip-path="url(#clip020)" style="stroke:#000000; stroke-linecap:round; stroke-linejoin:round; stroke-width:4; stroke-opacity:1; fill:none" points="2328.86,1734.12 2328.86,1715.22 "/>
<path clip-path="url(#clip020)" d="M484.41 1794.1 Q485.243 1795.21 487.743 1795.21 L489.803 1795.21 L489.803 1798.82 L487.234 1798.82 Q483.067 1798.82 481.169 1796.6 Q479.271 1794.33 479.271 1789.42 L479.271 1777.15 L469.549 1777.15 L469.549 1772.9 L493.46 1772.9 L493.46 1777.15 L483.623 1777.15 L483.623 1789.68 Q483.623 1793.03 484.41 1794.1 Z" fill="#000000" fill-rule="nonzero" fill-opacity="1" /><path clip-path="url(#clip020)" d="M500.798 1777.29 L530.474 1777.29 L530.474 1781.18 L500.798 1781.18 L500.798 1777.29 M500.798 1786.74 L530.474 1786.74 L530.474 1790.67 L500.798 1790.67 L500.798 1786.74 Z" fill="#000000" fill-rule="nonzero" fill-opacity="1" /><path clip-path="url(#clip020)" d="M550.567 1767.34 Q546.956 1767.34 545.127 1770.9 Q543.321 1774.45 543.321 1781.58 Q543.321 1788.68 545.127 1792.25 Q546.956 1795.79 550.567 1795.79 Q554.201 1795.79 556.006 1792.25 Q557.835 1788.68 557.835 1781.58 Q557.835 1774.45 556.006 1770.9 Q554.201 1767.34 550.567 1767.34 M550.567 1763.64 Q556.377 1763.64 559.432 1768.24 Q562.511 1772.83 562.511 1781.58 Q562.511 1790.3 559.432 1794.91 Q556.377 1799.49 550.567 1799.49 Q544.756 1799.49 541.678 1794.91 Q538.622 1790.3 538.622 1781.58 Q538.622 1772.83 541.678 1768.24 Q544.756 1763.64 550.567 1763.64 Z" fill="#000000" fill-rule="nonzero" fill-opacity="1" /><path clip-path="url(#clip020)" d="M570.729 1792.94 L575.613 1792.94 L575.613 1798.82 L570.729 1798.82 L570.729 1792.94 Z" fill="#000000" fill-rule="nonzero" fill-opacity="1" /><path clip-path="url(#clip020)" d="M586.608 1794.89 L594.247 1794.89 L594.247 1768.52 L585.937 1770.19 L585.937 1765.93 L594.201 1764.26 L598.877 1764.26 L598.877 1794.89 L606.515 1794.89 L606.515 1798.82 L586.608 1798.82 L586.608 1794.89 Z" fill="#000000" fill-rule="nonzero" fill-opacity="1" /><path clip-path="url(#clip020)" d="M916.921 1794.1 Q917.754 1795.21 920.254 1795.21 L922.315 1795.21 L922.315 1798.82 L919.745 1798.82 Q915.578 1798.82 913.68 1796.6 Q911.782 1794.33 911.782 1789.42 L911.782 1777.15 L902.06 1777.15 L902.06 1772.9 L925.972 1772.9 L925.972 1777.15 L916.134 1777.15 L916.134 1789.68 Q916.134 1793.03 916.921 1794.1 Z" fill="#000000" fill-rule="nonzero" fill-opacity="1" /><path clip-path="url(#clip020)" d="M933.31 1777.29 L962.986 1777.29 L962.986 1781.18 L933.31 1781.18 L933.31 1777.29 M933.31 1786.74 L962.986 1786.74 L962.986 1790.67 L933.31 1790.67 L933.31 1786.74 Z" fill="#000000" fill-rule="nonzero" fill-opacity="1" /><path clip-path="url(#clip020)" d="M983.078 1767.34 Q979.467 1767.34 977.638 1770.9 Q975.833 1774.45 975.833 1781.58 Q975.833 1788.68 977.638 1792.25 Q979.467 1795.79 983.078 1795.79 Q986.712 1795.79 988.518 1792.25 Q990.347 1788.68 990.347 1781.58 Q990.347 1774.45 988.518 1770.9 Q986.712 1767.34 983.078 1767.34 M983.078 1763.64 Q988.888 1763.64 991.944 1768.24 Q995.022 1772.83 995.022 1781.58 Q995.022 1790.3 991.944 1794.91 Q988.888 1799.49 983.078 1799.49 Q977.268 1799.49 974.189 1794.91 Q971.134 1790.3 971.134 1781.58 Q971.134 1772.83 974.189 1768.24 Q977.268 1763.64 983.078 1763.64 Z" fill="#000000" fill-rule="nonzero" fill-opacity="1" /><path clip-path="url(#clip020)" d="M1003.24 1792.94 L1008.12 1792.94 L1008.12 1798.82 L1003.24 1798.82 L1003.24 1792.94 Z" fill="#000000" fill-rule="nonzero" fill-opacity="1" /><path clip-path="url(#clip020)" d="M1022.34 1794.89 L1038.66 1794.89 L1038.66 1798.82 L1016.71 1798.82 L1016.71 1794.89 Q1019.37 1792.13 1023.96 1787.5 Q1028.56 1782.85 1029.74 1781.51 Q1031.99 1778.98 1032.87 1777.25 Q1033.77 1775.49 1033.77 1773.8 Q1033.77 1771.04 1031.83 1769.31 Q1029.91 1767.57 1026.8 1767.57 Q1024.61 1767.57 1022.15 1768.34 Q1019.72 1769.1 1016.94 1770.65 L1016.94 1765.93 Q1019.77 1764.79 1022.22 1764.21 Q1024.68 1763.64 1026.71 1763.64 Q1032.08 1763.64 1035.28 1766.32 Q1038.47 1769.01 1038.47 1773.5 Q1038.47 1775.63 1037.66 1777.55 Q1036.87 1779.45 1034.77 1782.04 Q1034.19 1782.71 1031.09 1785.93 Q1027.99 1789.12 1022.34 1794.89 Z" fill="#000000" fill-rule="nonzero" fill-opacity="1" /><path clip-path="url(#clip020)" d="M1048.52 1764.26 L1066.87 1764.26 L1066.87 1768.2 L1052.8 1768.2 L1052.8 1776.67 Q1053.82 1776.32 1054.84 1776.16 Q1055.86 1775.97 1056.87 1775.97 Q1062.66 1775.97 1066.04 1779.15 Q1069.42 1782.32 1069.42 1787.73 Q1069.42 1793.31 1065.95 1796.41 Q1062.48 1799.49 1056.16 1799.49 Q1053.98 1799.49 1051.71 1799.12 Q1049.47 1798.75 1047.06 1798.01 L1047.06 1793.31 Q1049.14 1794.45 1051.36 1795 Q1053.59 1795.56 1056.06 1795.56 Q1060.07 1795.56 1062.41 1793.45 Q1064.74 1791.34 1064.74 1787.73 Q1064.74 1784.12 1062.41 1782.02 Q1060.07 1779.91 1056.06 1779.91 Q1054.19 1779.91 1052.31 1780.33 Q1050.46 1780.74 1048.52 1781.62 L1048.52 1764.26 Z" fill="#000000" fill-rule="nonzero" fill-opacity="1" /><path clip-path="url(#clip020)" d="M1379.71 1794.1 Q1380.54 1795.21 1383.04 1795.21 L1385.1 1795.21 L1385.1 1798.82 L1382.53 1798.82 Q1378.37 1798.82 1376.47 1796.6 Q1374.57 1794.33 1374.57 1789.42 L1374.57 1777.15 L1364.85 1777.15 L1364.85 1772.9 L1388.76 1772.9 L1388.76 1777.15 L1378.92 1777.15 L1378.92 1789.68 Q1378.92 1793.03 1379.71 1794.1 Z" fill="#000000" fill-rule="nonzero" fill-opacity="1" /><path clip-path="url(#clip020)" d="M1396.1 1777.29 L1425.77 1777.29 L1425.77 1781.18 L1396.1 1781.18 L1396.1 1777.29 M1396.1 1786.74 L1425.77 1786.74 L1425.77 1790.67 L1396.1 1790.67 L1396.1 1786.74 Z" fill="#000000" fill-rule="nonzero" fill-opacity="1" /><path clip-path="url(#clip020)" d="M1445.87 1767.34 Q1442.26 1767.34 1440.43 1770.9 Q1438.62 1774.45 1438.62 1781.58 Q1438.62 1788.68 1440.43 1792.25 Q1442.26 1795.79 1445.87 1795.79 Q1449.5 1795.79 1451.31 1792.25 Q1453.14 1788.68 1453.14 1781.58 Q1453.14 1774.45 1451.31 1770.9 Q1449.5 1767.34 1445.87 1767.34 M1445.87 1763.64 Q1451.68 1763.64 1454.73 1768.24 Q1457.81 1772.83 1457.81 1781.58 Q1457.81 1790.3 1454.73 1794.91 Q1451.68 1799.49 1445.87 1799.49 Q1440.06 1799.49 1436.98 1794.91 Q1433.92 1790.3 1433.92 1781.58 Q1433.92 1772.83 1436.98 1768.24 Q1440.06 1763.64 1445.87 1763.64 Z" fill="#000000" fill-rule="nonzero" fill-opacity="1" /><path clip-path="url(#clip020)" d="M1466.03 1792.94 L1470.91 1792.94 L1470.91 1798.82 L1466.03 1798.82 L1466.03 1792.94 Z" fill="#000000" fill-rule="nonzero" fill-opacity="1" /><path clip-path="url(#clip020)" d="M1481.14 1764.26 L1499.5 1764.26 L1499.5 1768.2 L1485.43 1768.2 L1485.43 1776.67 Q1486.45 1776.32 1487.46 1776.16 Q1488.48 1775.97 1489.5 1775.97 Q1495.29 1775.97 1498.67 1779.15 Q1502.05 1782.32 1502.05 1787.73 Q1502.05 1793.31 1498.58 1796.41 Q1495.1 1799.49 1488.78 1799.49 Q1486.61 1799.49 1484.34 1799.12 Q1482.09 1798.75 1479.69 1798.01 L1479.69 1793.31 Q1481.77 1794.45 1483.99 1795 Q1486.21 1795.56 1488.69 1795.56 Q1492.7 1795.56 1495.03 1793.45 Q1497.37 1791.34 1497.37 1787.73 Q1497.37 1784.12 1495.03 1782.02 Q1492.7 1779.91 1488.69 1779.91 Q1486.82 1779.91 1484.94 1780.33 Q1483.09 1780.74 1481.14 1781.62 L1481.14 1764.26 Z" fill="#000000" fill-rule="nonzero" fill-opacity="1" /><path clip-path="url(#clip020)" d="M1812.34 1794.1 Q1813.17 1795.21 1815.67 1795.21 L1817.73 1795.21 L1817.73 1798.82 L1815.16 1798.82 Q1810.99 1798.82 1809.1 1796.6 Q1807.2 1794.33 1807.2 1789.42 L1807.2 1777.15 L1797.48 1777.15 L1797.48 1772.9 L1821.39 1772.9 L1821.39 1777.15 L1811.55 1777.15 L1811.55 1789.68 Q1811.55 1793.03 1812.34 1794.1 Z" fill="#000000" fill-rule="nonzero" fill-opacity="1" /><path clip-path="url(#clip020)" d="M1828.73 1777.29 L1858.4 1777.29 L1858.4 1781.18 L1828.73 1781.18 L1828.73 1777.29 M1828.73 1786.74 L1858.4 1786.74 L1858.4 1790.67 L1828.73 1790.67 L1828.73 1786.74 Z" fill="#000000" fill-rule="nonzero" fill-opacity="1" /><path clip-path="url(#clip020)" d="M1878.49 1767.34 Q1874.88 1767.34 1873.05 1770.9 Q1871.25 1774.45 1871.25 1781.58 Q1871.25 1788.68 1873.05 1792.25 Q1874.88 1795.79 1878.49 1795.79 Q1882.13 1795.79 1883.93 1792.25 Q1885.76 1788.68 1885.76 1781.58 Q1885.76 1774.45 1883.93 1770.9 Q1882.13 1767.34 1878.49 1767.34 M1878.49 1763.64 Q1884.3 1763.64 1887.36 1768.24 Q1890.44 1772.83 1890.44 1781.58 Q1890.44 1790.3 1887.36 1794.91 Q1884.3 1799.49 1878.49 1799.49 Q1872.68 1799.49 1869.61 1794.91 Q1866.55 1790.3 1866.55 1781.58 Q1866.55 1772.83 1869.61 1768.24 Q1872.68 1763.64 1878.49 1763.64 Z" fill="#000000" fill-rule="nonzero" fill-opacity="1" /><path clip-path="url(#clip020)" d="M1898.66 1792.94 L1903.54 1792.94 L1903.54 1798.82 L1898.66 1798.82 L1898.66 1792.94 Z" fill="#000000" fill-rule="nonzero" fill-opacity="1" /><path clip-path="url(#clip020)" d="M1912.55 1764.26 L1934.77 1764.26 L1934.77 1766.25 L1922.22 1798.82 L1917.34 1798.82 L1929.14 1768.2 L1912.55 1768.2 L1912.55 1764.26 Z" fill="#000000" fill-rule="nonzero" fill-opacity="1" /><path clip-path="url(#clip020)" d="M1943.93 1764.26 L1962.29 1764.26 L1962.29 1768.2 L1948.22 1768.2 L1948.22 1776.67 Q1949.23 1776.32 1950.25 1776.16 Q1951.27 1775.97 1952.29 1775.97 Q1958.08 1775.97 1961.46 1779.15 Q1964.84 1782.32 1964.84 1787.73 Q1964.84 1793.31 1961.36 1796.41 Q1957.89 1799.49 1951.57 1799.49 Q1949.4 1799.49 1947.13 1799.12 Q1944.88 1798.75 1942.48 1798.01 L1942.48 1793.31 Q1944.56 1794.45 1946.78 1795 Q1949 1795.56 1951.48 1795.56 Q1955.48 1795.56 1957.82 1793.45 Q1960.16 1791.34 1960.16 1787.73 Q1960.16 1784.12 1957.82 1782.02 Q1955.48 1779.91 1951.48 1779.91 Q1949.61 1779.91 1947.73 1780.33 Q1945.88 1780.74 1943.93 1781.62 L1943.93 1764.26 Z" fill="#000000" fill-rule="nonzero" fill-opacity="1" /><path clip-path="url(#clip020)" d="M2274.72 1794.1 Q2275.55 1795.21 2278.05 1795.21 L2280.11 1795.21 L2280.11 1798.82 L2277.55 1798.82 Q2273.38 1798.82 2271.48 1796.6 Q2269.58 1794.33 2269.58 1789.42 L2269.58 1777.15 L2259.86 1777.15 L2259.86 1772.9 L2283.77 1772.9 L2283.77 1777.15 L2273.93 1777.15 L2273.93 1789.68 Q2273.93 1793.03 2274.72 1794.1 Z" fill="#000000" fill-rule="nonzero" fill-opacity="1" /><path clip-path="url(#clip020)" d="M2291.11 1777.29 L2320.79 1777.29 L2320.79 1781.18 L2291.11 1781.18 L2291.11 1777.29 M2291.11 1786.74 L2320.79 1786.74 L2320.79 1790.67 L2291.11 1790.67 L2291.11 1786.74 Z" fill="#000000" fill-rule="nonzero" fill-opacity="1" /><path clip-path="url(#clip020)" d="M2340.88 1767.34 Q2337.27 1767.34 2335.44 1770.9 Q2333.63 1774.45 2333.63 1781.58 Q2333.63 1788.68 2335.44 1792.25 Q2337.27 1795.79 2340.88 1795.79 Q2344.51 1795.79 2346.32 1792.25 Q2348.15 1788.68 2348.15 1781.58 Q2348.15 1774.45 2346.32 1770.9 Q2344.51 1767.34 2340.88 1767.34 M2340.88 1763.64 Q2346.69 1763.64 2349.74 1768.24 Q2352.82 1772.83 2352.82 1781.58 Q2352.82 1790.3 2349.74 1794.91 Q2346.69 1799.49 2340.88 1799.49 Q2335.07 1799.49 2331.99 1794.91 Q2328.93 1790.3 2328.93 1781.58 Q2328.93 1772.83 2331.99 1768.24 Q2335.07 1763.64 2340.88 1763.64 Z" fill="#000000" fill-rule="nonzero" fill-opacity="1" /><path clip-path="url(#clip020)" d="M2361.04 1792.94 L2365.92 1792.94 L2365.92 1798.82 L2361.04 1798.82 L2361.04 1792.94 Z" fill="#000000" fill-rule="nonzero" fill-opacity="1" /><path clip-path="url(#clip020)" d="M2376.25 1798.1 L2376.25 1793.84 Q2378.01 1794.68 2379.81 1795.12 Q2381.62 1795.56 2383.35 1795.56 Q2387.98 1795.56 2390.42 1792.46 Q2392.87 1789.33 2393.22 1782.99 Q2391.87 1784.98 2389.81 1786.04 Q2387.75 1787.11 2385.25 1787.11 Q2380.07 1787.11 2377.04 1783.98 Q2374.03 1780.83 2374.03 1775.4 Q2374.03 1770.07 2377.17 1766.85 Q2380.32 1763.64 2385.55 1763.64 Q2391.55 1763.64 2394.7 1768.24 Q2397.87 1772.83 2397.87 1781.58 Q2397.87 1789.75 2393.98 1794.63 Q2390.11 1799.49 2383.56 1799.49 Q2381.8 1799.49 2380 1799.15 Q2378.19 1798.8 2376.25 1798.1 M2385.55 1783.45 Q2388.7 1783.45 2390.53 1781.3 Q2392.38 1779.15 2392.38 1775.4 Q2392.38 1771.67 2390.53 1769.52 Q2388.7 1767.34 2385.55 1767.34 Q2382.41 1767.34 2380.55 1769.52 Q2378.73 1771.67 2378.73 1775.4 Q2378.73 1779.15 2380.55 1781.3 Q2382.41 1783.45 2385.55 1783.45 Z" fill="#000000" fill-rule="nonzero" fill-opacity="1" /><path clip-path="url(#clip020)" d="M1266.81 1840.14 Q1259.81 1840.14 1255.67 1845.36 Q1251.56 1850.58 1251.56 1859.59 Q1251.56 1868.56 1255.67 1873.78 Q1259.81 1879 1266.81 1879 Q1273.81 1879 1277.89 1873.78 Q1281.99 1868.56 1281.99 1859.59 Q1281.99 1850.58 1277.89 1845.36 Q1273.81 1840.14 1266.81 1840.14 M1275.82 1882.44 L1284.28 1891.7 L1276.52 1891.7 L1269.48 1884.1 Q1268.43 1884.16 1267.86 1884.19 Q1267.32 1884.22 1266.81 1884.22 Q1256.78 1884.22 1250.77 1877.54 Q1244.78 1870.82 1244.78 1859.59 Q1244.78 1848.32 1250.77 1841.64 Q1256.78 1834.92 1266.81 1834.92 Q1276.8 1834.92 1282.79 1841.64 Q1288.77 1848.32 1288.77 1859.59 Q1288.77 1867.86 1285.43 1873.75 Q1282.12 1879.64 1275.82 1882.44 Z" fill="#000000" fill-rule="nonzero" fill-opacity="1" /><path clip-path="url(#clip020)" d="M1297.97 1869.23 L1297.97 1847.65 L1303.83 1847.65 L1303.83 1869.01 Q1303.83 1874.07 1305.8 1876.62 Q1307.77 1879.13 1311.72 1879.13 Q1316.46 1879.13 1319.2 1876.11 Q1321.97 1873.08 1321.97 1867.86 L1321.97 1847.65 L1327.83 1847.65 L1327.83 1883.3 L1321.97 1883.3 L1321.97 1877.83 Q1319.84 1881.07 1317 1882.66 Q1314.2 1884.22 1310.48 1884.22 Q1304.34 1884.22 1301.15 1880.4 Q1297.97 1876.59 1297.97 1869.23 M1312.71 1846.79 L1312.71 1846.79 Z" fill="#000000" fill-rule="nonzero" fill-opacity="1" /><path clip-path="url(#clip020)" d="M1356.09 1865.38 Q1348.99 1865.38 1346.25 1867 Q1343.52 1868.63 1343.52 1872.54 Q1343.52 1875.66 1345.55 1877.51 Q1347.62 1879.32 1351.16 1879.32 Q1356.03 1879.32 1358.95 1875.88 Q1361.91 1872.42 1361.91 1866.69 L1361.91 1865.38 L1356.09 1865.38 M1367.77 1862.96 L1367.77 1883.3 L1361.91 1883.3 L1361.91 1877.89 Q1359.91 1881.14 1356.92 1882.7 Q1353.92 1884.22 1349.6 1884.22 Q1344.12 1884.22 1340.87 1881.17 Q1337.66 1878.08 1337.66 1872.92 Q1337.66 1866.91 1341.67 1863.85 Q1345.71 1860.8 1353.7 1860.8 L1361.91 1860.8 L1361.91 1860.23 Q1361.91 1856.18 1359.24 1853.99 Q1356.6 1851.76 1351.79 1851.76 Q1348.74 1851.76 1345.84 1852.49 Q1342.94 1853.22 1340.27 1854.69 L1340.27 1849.28 Q1343.48 1848.03 1346.51 1847.43 Q1349.53 1846.79 1352.4 1846.79 Q1360.13 1846.79 1363.95 1850.8 Q1367.77 1854.81 1367.77 1862.96 Z" fill="#000000" fill-rule="nonzero" fill-opacity="1" /><path clip-path="url(#clip020)" d="M1409.47 1861.78 L1409.47 1883.3 L1403.61 1883.3 L1403.61 1861.98 Q1403.61 1856.92 1401.64 1854.4 Q1399.66 1851.89 1395.72 1851.89 Q1390.97 1851.89 1388.24 1854.91 Q1385.5 1857.93 1385.5 1863.15 L1385.5 1883.3 L1379.61 1883.3 L1379.61 1847.65 L1385.5 1847.65 L1385.5 1853.19 Q1387.6 1849.98 1390.43 1848.39 Q1393.3 1846.79 1397.02 1846.79 Q1403.16 1846.79 1406.31 1850.61 Q1409.47 1854.4 1409.47 1861.78 Z" fill="#000000" fill-rule="nonzero" fill-opacity="1" /><path clip-path="url(#clip020)" d="M1426.94 1837.53 L1426.94 1847.65 L1439 1847.65 L1439 1852.2 L1426.94 1852.2 L1426.94 1871.56 Q1426.94 1875.92 1428.12 1877.16 Q1429.33 1878.4 1432.99 1878.4 L1439 1878.4 L1439 1883.3 L1432.99 1883.3 Q1426.21 1883.3 1423.63 1880.79 Q1421.05 1878.24 1421.05 1871.56 L1421.05 1852.2 L1416.75 1852.2 L1416.75 1847.65 L1421.05 1847.65 L1421.05 1837.53 L1426.94 1837.53 Z" fill="#000000" fill-rule="nonzero" fill-opacity="1" /><path clip-path="url(#clip020)" d="M1446.7 1847.65 L1452.56 1847.65 L1452.56 1883.3 L1446.7 1883.3 L1446.7 1847.65 M1446.7 1833.78 L1452.56 1833.78 L1452.56 1841.19 L1446.7 1841.19 L1446.7 1833.78 Z" fill="#000000" fill-rule="nonzero" fill-opacity="1" /><path clip-path="url(#clip020)" d="M1464.82 1833.78 L1470.67 1833.78 L1470.67 1883.3 L1464.82 1883.3 L1464.82 1833.78 Z" fill="#000000" fill-rule="nonzero" fill-opacity="1" /><path clip-path="url(#clip020)" d="M1513.42 1864.01 L1513.42 1866.88 L1486.49 1866.88 Q1486.87 1872.92 1490.12 1876.11 Q1493.4 1879.26 1499.22 1879.26 Q1502.6 1879.26 1505.75 1878.43 Q1508.93 1877.6 1512.05 1875.95 L1512.05 1881.49 Q1508.9 1882.82 1505.59 1883.52 Q1502.28 1884.22 1498.87 1884.22 Q1490.34 1884.22 1485.34 1879.26 Q1480.38 1874.29 1480.38 1865.83 Q1480.38 1857.07 1485.09 1851.95 Q1489.83 1846.79 1497.85 1846.79 Q1505.05 1846.79 1509.22 1851.44 Q1513.42 1856.06 1513.42 1864.01 M1507.56 1862.29 Q1507.5 1857.49 1504.86 1854.62 Q1502.25 1851.76 1497.92 1851.76 Q1493.02 1851.76 1490.06 1854.53 Q1487.13 1857.3 1486.68 1862.33 L1507.56 1862.29 Z" fill="#000000" fill-rule="nonzero" fill-opacity="1" /><path clip-path="url(#clip020)" d="M1557.82 1833.84 Q1553.55 1841.16 1551.48 1848.32 Q1549.42 1855.48 1549.42 1862.84 Q1549.42 1870.19 1551.48 1877.41 Q1553.59 1884.61 1557.82 1891.89 L1552.73 1891.89 Q1547.95 1884.41 1545.56 1877.19 Q1543.21 1869.96 1543.21 1862.84 Q1543.21 1855.74 1545.56 1848.54 Q1547.92 1841.35 1552.73 1833.84 L1557.82 1833.84 Z" fill="#000000" fill-rule="nonzero" fill-opacity="1" /><path clip-path="url(#clip020)" d="M1586.65 1876.81 Q1587.8 1878.34 1591.24 1878.34 L1594.07 1878.34 L1594.07 1883.3 L1590.54 1883.3 Q1584.81 1883.3 1582.2 1880.25 Q1579.59 1877.13 1579.59 1870.38 L1579.59 1853.51 L1566.22 1853.51 L1566.22 1847.65 L1599.1 1847.65 L1599.1 1853.51 L1585.57 1853.51 L1585.57 1870.73 Q1585.57 1875.34 1586.65 1876.81 Z" fill="#000000" fill-rule="nonzero" fill-opacity="1" /><path clip-path="url(#clip020)" d="M1607.5 1833.84 L1612.6 1833.84 Q1617.37 1841.35 1619.72 1848.54 Q1622.11 1855.74 1622.11 1862.84 Q1622.11 1869.96 1619.72 1877.19 Q1617.37 1884.41 1612.6 1891.89 L1607.5 1891.89 Q1611.74 1884.61 1613.8 1877.41 Q1615.91 1870.19 1615.91 1862.84 Q1615.91 1855.48 1613.8 1848.32 Q1611.74 1841.16 1607.5 1833.84 Z" fill="#000000" fill-rule="nonzero" fill-opacity="1" /><polyline clip-path="url(#clip020)" style="stroke:#000000; stroke-linecap:round; stroke-linejoin:round; stroke-width:4; stroke-opacity:1; fill:none" points="226.141,1734.12 226.141,127.792 "/>
<polyline clip-path="url(#clip020)" style="stroke:#000000; stroke-linecap:round; stroke-linejoin:round; stroke-width:4; stroke-opacity:1; fill:none" points="226.141,1734.12 245.038,1734.12 "/>
<polyline clip-path="url(#clip020)" style="stroke:#000000; stroke-linecap:round; stroke-linejoin:round; stroke-width:4; stroke-opacity:1; fill:none" points="226.141,1412.85 245.038,1412.85 "/>
<polyline clip-path="url(#clip020)" style="stroke:#000000; stroke-linecap:round; stroke-linejoin:round; stroke-width:4; stroke-opacity:1; fill:none" points="226.141,1091.59 245.038,1091.59 "/>
<polyline clip-path="url(#clip020)" style="stroke:#000000; stroke-linecap:round; stroke-linejoin:round; stroke-width:4; stroke-opacity:1; fill:none" points="226.141,770.322 245.038,770.322 "/>
<polyline clip-path="url(#clip020)" style="stroke:#000000; stroke-linecap:round; stroke-linejoin:round; stroke-width:4; stroke-opacity:1; fill:none" points="226.141,449.057 245.038,449.057 "/>
<polyline clip-path="url(#clip020)" style="stroke:#000000; stroke-linecap:round; stroke-linejoin:round; stroke-width:4; stroke-opacity:1; fill:none" points="226.141,127.792 245.038,127.792 "/>
<path clip-path="url(#clip020)" d="M128.645 1719.92 Q125.034 1719.92 123.205 1723.48 Q121.4 1727.02 121.4 1734.15 Q121.4 1741.26 123.205 1744.82 Q125.034 1748.36 128.645 1748.36 Q132.279 1748.36 134.085 1744.82 Q135.913 1741.26 135.913 1734.15 Q135.913 1727.02 134.085 1723.48 Q132.279 1719.92 128.645 1719.92 M128.645 1716.21 Q134.455 1716.21 137.511 1720.82 Q140.589 1725.4 140.589 1734.15 Q140.589 1742.88 137.511 1747.48 Q134.455 1752.07 128.645 1752.07 Q122.835 1752.07 119.756 1747.48 Q116.701 1742.88 116.701 1734.15 Q116.701 1725.4 119.756 1720.82 Q122.835 1716.21 128.645 1716.21 Z" fill="#000000" fill-rule="nonzero" fill-opacity="1" /><path clip-path="url(#clip020)" d="M148.807 1745.52 L153.691 1745.52 L153.691 1751.4 L148.807 1751.4 L148.807 1745.52 Z" fill="#000000" fill-rule="nonzero" fill-opacity="1" /><path clip-path="url(#clip020)" d="M173.876 1719.92 Q170.265 1719.92 168.436 1723.48 Q166.631 1727.02 166.631 1734.15 Q166.631 1741.26 168.436 1744.82 Q170.265 1748.36 173.876 1748.36 Q177.51 1748.36 179.316 1744.82 Q181.145 1741.26 181.145 1734.15 Q181.145 1727.02 179.316 1723.48 Q177.51 1719.92 173.876 1719.92 M173.876 1716.21 Q179.686 1716.21 182.742 1720.82 Q185.821 1725.4 185.821 1734.15 Q185.821 1742.88 182.742 1747.48 Q179.686 1752.07 173.876 1752.07 Q168.066 1752.07 164.987 1747.48 Q161.932 1742.88 161.932 1734.15 Q161.932 1725.4 164.987 1720.82 Q168.066 1716.21 173.876 1716.21 Z" fill="#000000" fill-rule="nonzero" fill-opacity="1" /><path clip-path="url(#clip020)" d="M130.242 1398.65 Q126.631 1398.65 124.802 1402.22 Q122.997 1405.76 122.997 1412.89 Q122.997 1419.99 124.802 1423.56 Q126.631 1427.1 130.242 1427.1 Q133.876 1427.1 135.682 1423.56 Q137.511 1419.99 137.511 1412.89 Q137.511 1405.76 135.682 1402.22 Q133.876 1398.65 130.242 1398.65 M130.242 1394.95 Q136.052 1394.95 139.108 1399.55 Q142.187 1404.14 142.187 1412.89 Q142.187 1421.61 139.108 1426.22 Q136.052 1430.8 130.242 1430.8 Q124.432 1430.8 121.353 1426.22 Q118.298 1421.61 118.298 1412.89 Q118.298 1404.14 121.353 1399.55 Q124.432 1394.95 130.242 1394.95 Z" fill="#000000" fill-rule="nonzero" fill-opacity="1" /><path clip-path="url(#clip020)" d="M150.404 1424.25 L155.288 1424.25 L155.288 1430.13 L150.404 1430.13 L150.404 1424.25 Z" fill="#000000" fill-rule="nonzero" fill-opacity="1" /><path clip-path="url(#clip020)" d="M169.501 1426.2 L185.821 1426.2 L185.821 1430.13 L163.876 1430.13 L163.876 1426.2 Q166.538 1423.44 171.122 1418.81 Q175.728 1414.16 176.909 1412.82 Q179.154 1410.29 180.034 1408.56 Q180.936 1406.8 180.936 1405.11 Q180.936 1402.35 178.992 1400.62 Q177.071 1398.88 173.969 1398.88 Q171.77 1398.88 169.316 1399.65 Q166.885 1400.41 164.108 1401.96 L164.108 1397.24 Q166.932 1396.1 169.385 1395.53 Q171.839 1394.95 173.876 1394.95 Q179.247 1394.95 182.441 1397.63 Q185.635 1400.32 185.635 1404.81 Q185.635 1406.94 184.825 1408.86 Q184.038 1410.76 181.932 1413.35 Q181.353 1414.02 178.251 1417.24 Q175.149 1420.43 169.501 1426.2 Z" fill="#000000" fill-rule="nonzero" fill-opacity="1" /><path clip-path="url(#clip020)" d="M128.159 1077.39 Q124.548 1077.39 122.719 1080.95 Q120.913 1084.49 120.913 1091.62 Q120.913 1098.73 122.719 1102.29 Q124.548 1105.83 128.159 1105.83 Q131.793 1105.83 133.599 1102.29 Q135.427 1098.73 135.427 1091.62 Q135.427 1084.49 133.599 1080.95 Q131.793 1077.39 128.159 1077.39 M128.159 1073.68 Q133.969 1073.68 137.025 1078.29 Q140.103 1082.87 140.103 1091.62 Q140.103 1100.35 137.025 1104.96 Q133.969 1109.54 128.159 1109.54 Q122.349 1109.54 119.27 1104.96 Q116.214 1100.35 116.214 1091.62 Q116.214 1082.87 119.27 1078.29 Q122.349 1073.68 128.159 1073.68 Z" fill="#000000" fill-rule="nonzero" fill-opacity="1" /><path clip-path="url(#clip020)" d="M148.321 1102.99 L153.205 1102.99 L153.205 1108.87 L148.321 1108.87 L148.321 1102.99 Z" fill="#000000" fill-rule="nonzero" fill-opacity="1" /><path clip-path="url(#clip020)" d="M176.237 1078.38 L164.432 1096.83 L176.237 1096.83 L176.237 1078.38 M175.01 1074.31 L180.89 1074.31 L180.89 1096.83 L185.821 1096.83 L185.821 1100.72 L180.89 1100.72 L180.89 1108.87 L176.237 1108.87 L176.237 1100.72 L160.636 1100.72 L160.636 1096.21 L175.01 1074.31 Z" fill="#000000" fill-rule="nonzero" fill-opacity="1" /><path clip-path="url(#clip020)" d="M128.483 756.121 Q124.872 756.121 123.043 759.686 Q121.238 763.227 121.238 770.357 Q121.238 777.463 123.043 781.028 Q124.872 784.57 128.483 784.57 Q132.117 784.57 133.923 781.028 Q135.751 777.463 135.751 770.357 Q135.751 763.227 133.923 759.686 Q132.117 756.121 128.483 756.121 M128.483 752.417 Q134.293 752.417 137.349 757.024 Q140.427 761.607 140.427 770.357 Q140.427 779.084 137.349 783.69 Q134.293 788.273 128.483 788.273 Q122.673 788.273 119.594 783.69 Q116.539 779.084 116.539 770.357 Q116.539 761.607 119.594 757.024 Q122.673 752.417 128.483 752.417 Z" fill="#000000" fill-rule="nonzero" fill-opacity="1" /><path clip-path="url(#clip020)" d="M148.645 781.722 L153.529 781.722 L153.529 787.602 L148.645 787.602 L148.645 781.722 Z" fill="#000000" fill-rule="nonzero" fill-opacity="1" /><path clip-path="url(#clip020)" d="M174.293 768.459 Q171.145 768.459 169.293 770.611 Q167.464 772.764 167.464 776.514 Q167.464 780.241 169.293 782.417 Q171.145 784.57 174.293 784.57 Q177.441 784.57 179.27 782.417 Q181.122 780.241 181.122 776.514 Q181.122 772.764 179.27 770.611 Q177.441 768.459 174.293 768.459 M183.575 753.806 L183.575 758.065 Q181.816 757.232 180.01 756.792 Q178.228 756.352 176.469 756.352 Q171.839 756.352 169.385 759.477 Q166.955 762.602 166.608 768.922 Q167.973 766.908 170.034 765.843 Q172.094 764.755 174.571 764.755 Q179.779 764.755 182.788 767.926 Q185.821 771.074 185.821 776.514 Q185.821 781.838 182.672 785.056 Q179.524 788.273 174.293 788.273 Q168.297 788.273 165.126 783.69 Q161.955 779.084 161.955 770.357 Q161.955 762.162 165.844 757.301 Q169.733 752.417 176.284 752.417 Q178.043 752.417 179.825 752.764 Q181.631 753.112 183.575 753.806 Z" fill="#000000" fill-rule="nonzero" fill-opacity="1" /><path clip-path="url(#clip020)" d="M128.738 434.856 Q125.126 434.856 123.298 438.421 Q121.492 441.962 121.492 449.092 Q121.492 456.198 123.298 459.763 Q125.126 463.305 128.738 463.305 Q132.372 463.305 134.177 459.763 Q136.006 456.198 136.006 449.092 Q136.006 441.962 134.177 438.421 Q132.372 434.856 128.738 434.856 M128.738 431.152 Q134.548 431.152 137.603 435.759 Q140.682 440.342 140.682 449.092 Q140.682 457.819 137.603 462.425 Q134.548 467.008 128.738 467.008 Q122.927 467.008 119.849 462.425 Q116.793 457.819 116.793 449.092 Q116.793 440.342 119.849 435.759 Q122.927 431.152 128.738 431.152 Z" fill="#000000" fill-rule="nonzero" fill-opacity="1" /><path clip-path="url(#clip020)" d="M148.899 460.457 L153.784 460.457 L153.784 466.337 L148.899 466.337 L148.899 460.457 Z" fill="#000000" fill-rule="nonzero" fill-opacity="1" /><path clip-path="url(#clip020)" d="M173.969 449.925 Q170.635 449.925 168.714 451.708 Q166.816 453.49 166.816 456.615 Q166.816 459.74 168.714 461.522 Q170.635 463.305 173.969 463.305 Q177.302 463.305 179.223 461.522 Q181.145 459.717 181.145 456.615 Q181.145 453.49 179.223 451.708 Q177.325 449.925 173.969 449.925 M169.293 447.934 Q166.284 447.194 164.594 445.134 Q162.927 443.073 162.927 440.11 Q162.927 435.967 165.867 433.559 Q168.83 431.152 173.969 431.152 Q179.131 431.152 182.071 433.559 Q185.01 435.967 185.01 440.11 Q185.01 443.073 183.321 445.134 Q181.654 447.194 178.668 447.934 Q182.047 448.721 183.922 451.013 Q185.821 453.305 185.821 456.615 Q185.821 461.638 182.742 464.323 Q179.686 467.008 173.969 467.008 Q168.251 467.008 165.173 464.323 Q162.117 461.638 162.117 456.615 Q162.117 453.305 164.015 451.013 Q165.913 448.721 169.293 447.934 M167.58 440.55 Q167.58 443.235 169.247 444.74 Q170.936 446.245 173.969 446.245 Q176.978 446.245 178.668 444.74 Q180.381 443.235 180.381 440.55 Q180.381 437.865 178.668 436.36 Q176.978 434.856 173.969 434.856 Q170.936 434.856 169.247 436.36 Q167.58 437.865 167.58 440.55 Z" fill="#000000" fill-rule="nonzero" fill-opacity="1" /><path clip-path="url(#clip020)" d="M119.455 141.137 L127.094 141.137 L127.094 114.771 L118.784 116.438 L118.784 112.179 L127.048 110.512 L131.724 110.512 L131.724 141.137 L139.362 141.137 L139.362 145.072 L119.455 145.072 L119.455 141.137 Z" fill="#000000" fill-rule="nonzero" fill-opacity="1" /><path clip-path="url(#clip020)" d="M148.807 139.193 L153.691 139.193 L153.691 145.072 L148.807 145.072 L148.807 139.193 Z" fill="#000000" fill-rule="nonzero" fill-opacity="1" /><path clip-path="url(#clip020)" d="M173.876 113.591 Q170.265 113.591 168.436 117.156 Q166.631 120.697 166.631 127.827 Q166.631 134.933 168.436 138.498 Q170.265 142.04 173.876 142.04 Q177.51 142.04 179.316 138.498 Q181.145 134.933 181.145 127.827 Q181.145 120.697 179.316 117.156 Q177.51 113.591 173.876 113.591 M173.876 109.887 Q179.686 109.887 182.742 114.494 Q185.821 119.077 185.821 127.827 Q185.821 136.554 182.742 141.16 Q179.686 145.743 173.876 145.743 Q168.066 145.743 164.987 141.16 Q161.932 136.554 161.932 127.827 Q161.932 119.077 164.987 114.494 Q168.066 109.887 173.876 109.887 Z" fill="#000000" fill-rule="nonzero" fill-opacity="1" /><path clip-path="url(#clip020)" d="M17.7787 1045.22 L24.5582 1045.22 Q21.5345 1048.47 20.0386 1052.16 Q18.5426 1055.82 18.5426 1059.96 Q18.5426 1068.1 23.5397 1072.43 Q28.5049 1076.76 37.9262 1076.76 Q47.3156 1076.76 52.3127 1072.43 Q57.2779 1068.1 57.2779 1059.96 Q57.2779 1055.82 55.782 1052.16 Q54.2861 1048.47 51.2623 1045.22 L57.9782 1045.22 Q60.2698 1048.59 61.4156 1052.38 Q62.5615 1056.14 62.5615 1060.34 Q62.5615 1071.13 55.973 1077.33 Q49.3526 1083.54 37.9262 1083.54 Q26.4679 1083.54 19.8794 1077.33 Q13.2591 1071.13 13.2591 1060.34 Q13.2591 1056.07 14.4049 1052.32 Q15.5189 1048.53 17.7787 1045.22 Z" fill="#000000" fill-rule="nonzero" fill-opacity="1" /><path clip-path="url(#clip020)" d="M30.0964 1021.73 Q30.0964 1026.44 33.7885 1029.18 Q37.4488 1031.91 43.8463 1031.91 Q50.2438 1031.91 53.9359 1029.21 Q57.5962 1026.47 57.5962 1021.73 Q57.5962 1017.05 53.9041 1014.31 Q50.212 1011.58 43.8463 1011.58 Q37.5124 1011.58 33.8203 1014.31 Q30.0964 1017.05 30.0964 1021.73 M25.1311 1021.73 Q25.1311 1014.09 30.0964 1009.73 Q35.0616 1005.37 43.8463 1005.37 Q52.5991 1005.37 57.5962 1009.73 Q62.5615 1014.09 62.5615 1021.73 Q62.5615 1029.4 57.5962 1033.76 Q52.5991 1038.09 43.8463 1038.09 Q35.0616 1038.09 30.0964 1033.76 Q25.1311 1029.4 25.1311 1021.73 Z" fill="#000000" fill-rule="nonzero" fill-opacity="1" /><path clip-path="url(#clip020)" d="M25.9905 999.863 L25.9905 993.657 L55.9093 982.517 L25.9905 971.377 L25.9905 965.17 L61.6384 978.538 L61.6384 986.495 L25.9905 999.863 Z" fill="#000000" fill-rule="nonzero" fill-opacity="1" /><path clip-path="url(#clip020)" d="M42.3504 926.594 L45.2149 926.594 L45.2149 953.521 Q51.2623 953.139 54.4452 949.893 Q57.5962 946.614 57.5962 940.79 Q57.5962 937.416 56.7687 934.265 Q55.9411 931.082 54.2861 927.963 L59.8242 927.963 Q61.161 931.114 61.8612 934.424 Q62.5615 937.734 62.5615 941.14 Q62.5615 949.67 57.5962 954.667 Q52.631 959.632 44.1646 959.632 Q35.4117 959.632 30.2873 954.921 Q25.1311 950.179 25.1311 942.158 Q25.1311 934.965 29.7781 930.795 Q34.3932 926.594 42.3504 926.594 M40.6316 932.45 Q35.8255 932.514 32.9609 935.156 Q30.0964 937.766 30.0964 942.095 Q30.0964 946.996 32.8654 949.956 Q35.6345 952.884 40.6634 953.33 L40.6316 932.45 Z" fill="#000000" fill-rule="nonzero" fill-opacity="1" /><path clip-path="url(#clip020)" d="M31.465 896.325 Q30.8921 897.312 30.6375 898.489 Q30.351 899.635 30.351 901.036 Q30.351 906.001 33.5975 908.675 Q36.8122 911.316 42.8596 911.316 L61.6384 911.316 L61.6384 917.205 L25.9905 917.205 L25.9905 911.316 L31.5287 911.316 Q28.2821 909.47 26.7225 906.51 Q25.1311 903.55 25.1311 899.317 Q25.1311 898.712 25.2266 897.98 Q25.2903 897.248 25.4494 896.357 L31.465 896.325 Z" fill="#000000" fill-rule="nonzero" fill-opacity="1" /><path clip-path="url(#clip020)" d="M43.719 873.981 Q43.719 881.079 45.3422 883.816 Q46.9655 886.554 50.8804 886.554 Q53.9996 886.554 55.8457 884.517 Q57.6599 882.448 57.6599 878.915 Q57.6599 874.045 54.2224 871.117 Q50.7531 868.157 45.0239 868.157 L43.719 868.157 L43.719 873.981 M41.3 862.3 L61.6384 862.3 L61.6384 868.157 L56.2276 868.157 Q59.4741 870.162 61.0337 873.154 Q62.5615 876.146 62.5615 880.475 Q62.5615 885.949 59.5059 889.196 Q56.4186 892.41 51.2623 892.41 Q45.2467 892.41 42.1912 888.4 Q39.1357 884.358 39.1357 876.369 L39.1357 868.157 L38.5628 868.157 Q34.5205 868.157 32.3244 870.83 Q30.0964 873.472 30.0964 878.278 Q30.0964 881.334 30.8284 884.23 Q31.5605 887.127 33.0246 889.8 L27.6137 889.8 Q26.3724 886.586 25.7677 883.562 Q25.1311 880.538 25.1311 877.674 Q25.1311 869.939 29.1415 866.12 Q33.1519 862.3 41.3 862.3 Z" fill="#000000" fill-rule="nonzero" fill-opacity="1" /><path clip-path="url(#clip020)" d="M43.4007 826.78 Q37.035 826.78 33.5338 829.422 Q30.0327 832.031 30.0327 836.774 Q30.0327 841.485 33.5338 844.126 Q37.035 846.736 43.4007 846.736 Q49.7346 846.736 53.2357 844.126 Q56.7368 841.485 56.7368 836.774 Q56.7368 832.031 53.2357 829.422 Q49.7346 826.78 43.4007 826.78 M57.2143 820.923 Q66.3172 820.923 70.7414 824.966 Q75.1974 829.008 75.1974 837.347 Q75.1974 840.434 74.72 843.171 Q74.2744 845.909 73.3195 848.487 L67.6222 848.487 Q69.0227 845.909 69.6911 843.394 Q70.3595 840.88 70.3595 838.27 Q70.3595 832.509 67.3358 829.644 Q64.3439 826.78 58.2646 826.78 L55.3682 826.78 Q58.5192 828.594 60.0788 831.427 Q61.6384 834.259 61.6384 838.206 Q61.6384 844.763 56.6414 848.773 Q51.6443 852.784 43.4007 852.784 Q35.1253 852.784 30.1282 848.773 Q25.1311 844.763 25.1311 838.206 Q25.1311 834.259 26.6907 831.427 Q28.2503 828.594 31.4013 826.78 L25.9905 826.78 L25.9905 820.923 L57.2143 820.923 Z" fill="#000000" fill-rule="nonzero" fill-opacity="1" /><path clip-path="url(#clip020)" d="M42.3504 778.369 L45.2149 778.369 L45.2149 805.296 Q51.2623 804.914 54.4452 801.667 Q57.5962 798.389 57.5962 792.564 Q57.5962 789.19 56.7687 786.039 Q55.9411 782.856 54.2861 779.737 L59.8242 779.737 Q61.161 782.888 61.8612 786.198 Q62.5615 789.509 62.5615 792.914 Q62.5615 801.444 57.5962 806.441 Q52.631 811.407 44.1646 811.407 Q35.4117 811.407 30.2873 806.696 Q25.1311 801.954 25.1311 793.933 Q25.1311 786.739 29.7781 782.57 Q34.3932 778.369 42.3504 778.369 M40.6316 784.225 Q35.8255 784.289 32.9609 786.93 Q30.0964 789.54 30.0964 793.869 Q30.0964 798.771 32.8654 801.731 Q35.6345 804.659 40.6634 805.105 L40.6316 784.225 Z" fill="#000000" fill-rule="nonzero" fill-opacity="1" /><path clip-path="url(#clip020)" d="M647.958 16.7545 L647.958 25.383 Q643.826 21.5346 639.127 19.6307 Q634.468 17.7268 629.202 17.7268 Q618.832 17.7268 613.322 24.0867 Q607.813 30.4061 607.813 42.3968 Q607.813 54.3469 613.322 60.7069 Q618.832 67.0263 629.202 67.0263 Q634.468 67.0263 639.127 65.1223 Q643.826 63.2184 647.958 59.3701 L647.958 67.9175 Q643.664 70.8341 638.843 72.2924 Q634.063 73.7508 628.716 73.7508 Q614.983 73.7508 607.084 65.3654 Q599.185 56.9395 599.185 42.3968 Q599.185 27.8135 607.084 19.4281 Q614.983 11.0023 628.716 11.0023 Q634.144 11.0023 638.924 12.4606 Q643.745 13.8784 647.958 16.7545 Z" fill="#000000" fill-rule="nonzero" fill-opacity="1" /><path clip-path="url(#clip020)" d="M677.853 32.4315 Q671.858 32.4315 668.374 37.1306 Q664.89 41.7891 664.89 49.9314 Q664.89 58.0738 668.334 62.7728 Q671.817 67.4314 677.853 67.4314 Q683.808 67.4314 687.292 62.7323 Q690.776 58.0333 690.776 49.9314 Q690.776 41.8701 687.292 37.1711 Q683.808 32.4315 677.853 32.4315 M677.853 26.1121 Q687.575 26.1121 693.125 32.4315 Q698.675 38.7509 698.675 49.9314 Q698.675 61.0714 693.125 67.4314 Q687.575 73.7508 677.853 73.7508 Q668.091 73.7508 662.541 67.4314 Q657.032 61.0714 657.032 49.9314 Q657.032 38.7509 662.541 32.4315 Q668.091 26.1121 677.853 26.1121 Z" fill="#000000" fill-rule="nonzero" fill-opacity="1" /><path clip-path="url(#clip020)" d="M705.683 27.2059 L713.582 27.2059 L727.76 65.2844 L741.939 27.2059 L749.838 27.2059 L732.824 72.576 L722.697 72.576 L705.683 27.2059 Z" fill="#000000" fill-rule="nonzero" fill-opacity="1" /><path clip-path="url(#clip020)" d="M798.935 48.0275 L798.935 51.6733 L764.664 51.6733 Q765.15 59.3701 769.282 63.421 Q773.455 67.4314 780.868 67.4314 Q785.162 67.4314 789.172 66.3781 Q793.223 65.3249 797.193 63.2184 L797.193 70.267 Q793.183 71.9684 788.97 72.8596 Q784.757 73.7508 780.422 73.7508 Q769.566 73.7508 763.206 67.4314 Q756.886 61.1119 756.886 50.3365 Q756.886 39.1965 762.882 32.6746 Q768.918 26.1121 779.126 26.1121 Q788.281 26.1121 793.588 32.0264 Q798.935 37.9003 798.935 48.0275 M791.481 45.84 Q791.4 39.7232 788.038 36.0774 Q784.716 32.4315 779.207 32.4315 Q772.969 32.4315 769.201 35.9558 Q765.474 39.4801 764.907 45.8805 L791.481 45.84 Z" fill="#000000" fill-rule="nonzero" fill-opacity="1" /><path clip-path="url(#clip020)" d="M837.459 34.1734 Q836.203 33.4443 834.704 33.1202 Q833.246 32.7556 831.464 32.7556 Q825.144 32.7556 821.741 36.8875 Q818.379 40.9789 818.379 48.6757 L818.379 72.576 L810.885 72.576 L810.885 27.2059 L818.379 27.2059 L818.379 34.2544 Q820.729 30.1225 824.496 28.1376 Q828.263 26.1121 833.651 26.1121 Q834.421 26.1121 835.352 26.2337 Q836.284 26.3147 837.418 26.5172 L837.459 34.1734 Z" fill="#000000" fill-rule="nonzero" fill-opacity="1" /><path clip-path="url(#clip020)" d="M865.896 49.7694 Q856.863 49.7694 853.379 51.8354 Q849.895 53.9013 849.895 58.8839 Q849.895 62.8538 852.488 65.2034 Q855.121 67.5124 859.617 67.5124 Q865.815 67.5124 869.542 63.1374 Q873.309 58.7219 873.309 51.4303 L873.309 49.7694 L865.896 49.7694 M880.763 46.6907 L880.763 72.576 L873.309 72.576 L873.309 65.6895 Q870.757 69.8214 866.95 71.8063 Q863.142 73.7508 857.632 73.7508 Q850.665 73.7508 846.533 69.8619 Q842.442 65.9325 842.442 59.3701 Q842.442 51.7138 847.546 47.825 Q852.69 43.9361 862.858 43.9361 L873.309 43.9361 L873.309 43.2069 Q873.309 38.0623 869.907 35.2672 Q866.544 32.4315 860.428 32.4315 Q856.539 32.4315 852.852 33.3632 Q849.166 34.295 845.763 36.1584 L845.763 29.2718 Q849.855 27.692 853.703 26.9223 Q857.551 26.1121 861.197 26.1121 Q871.041 26.1121 875.902 31.2163 Q880.763 36.3204 880.763 46.6907 Z" fill="#000000" fill-rule="nonzero" fill-opacity="1" /><path clip-path="url(#clip020)" d="M925.971 49.3643 Q925.971 41.2625 922.609 36.8065 Q919.287 32.3505 913.251 32.3505 Q907.256 32.3505 903.894 36.8065 Q900.572 41.2625 900.572 49.3643 Q900.572 57.4256 903.894 61.8816 Q907.256 66.3376 913.251 66.3376 Q919.287 66.3376 922.609 61.8816 Q925.971 57.4256 925.971 49.3643 M933.425 66.9452 Q933.425 78.5308 928.28 84.1616 Q923.136 89.8329 912.522 89.8329 Q908.593 89.8329 905.109 89.2252 Q901.625 88.6581 898.344 87.4428 L898.344 80.1917 Q901.625 81.9741 904.825 82.8248 Q908.026 83.6755 911.347 83.6755 Q918.68 83.6755 922.325 79.8271 Q925.971 76.0193 925.971 68.282 L925.971 64.5957 Q923.662 68.6061 920.057 70.5911 Q916.452 72.576 911.428 72.576 Q903.084 72.576 897.979 66.2161 Q892.875 59.8562 892.875 49.3643 Q892.875 38.832 897.979 32.472 Q903.084 26.1121 911.428 26.1121 Q916.452 26.1121 920.057 28.0971 Q923.662 30.082 925.971 34.0924 L925.971 27.2059 L933.425 27.2059 L933.425 66.9452 Z" fill="#000000" fill-rule="nonzero" fill-opacity="1" /><path clip-path="url(#clip020)" d="M987.585 48.0275 L987.585 51.6733 L953.315 51.6733 Q953.801 59.3701 957.933 63.421 Q962.105 67.4314 969.518 67.4314 Q973.812 67.4314 977.823 66.3781 Q981.874 65.3249 985.844 63.2184 L985.844 70.267 Q981.833 71.9684 977.62 72.8596 Q973.407 73.7508 969.073 73.7508 Q958.216 73.7508 951.856 67.4314 Q945.537 61.1119 945.537 50.3365 Q945.537 39.1965 951.532 32.6746 Q957.568 26.1121 967.777 26.1121 Q976.932 26.1121 982.238 32.0264 Q987.585 37.9003 987.585 48.0275 M980.132 45.84 Q980.051 39.7232 976.689 36.0774 Q973.367 32.4315 967.858 32.4315 Q961.619 32.4315 957.852 35.9558 Q954.125 39.4801 953.558 45.8805 L980.132 45.84 Z" fill="#000000" fill-rule="nonzero" fill-opacity="1" /><path clip-path="url(#clip020)" d="M1042.11 72.576 L1019.02 12.096 L1027.57 12.096 L1046.73 63.0159 L1065.93 12.096 L1074.44 12.096 L1051.39 72.576 L1042.11 72.576 Z" fill="#000000" fill-rule="nonzero" fill-opacity="1" /><path clip-path="url(#clip020)" d="M1097.12 49.7694 Q1088.09 49.7694 1084.6 51.8354 Q1081.12 53.9013 1081.12 58.8839 Q1081.12 62.8538 1083.71 65.2034 Q1086.35 67.5124 1090.84 67.5124 Q1097.04 67.5124 1100.77 63.1374 Q1104.54 58.7219 1104.54 51.4303 L1104.54 49.7694 L1097.12 49.7694 M1111.99 46.6907 L1111.99 72.576 L1104.54 72.576 L1104.54 65.6895 Q1101.98 69.8214 1098.18 71.8063 Q1094.37 73.7508 1088.86 73.7508 Q1081.89 73.7508 1077.76 69.8619 Q1073.67 65.9325 1073.67 59.3701 Q1073.67 51.7138 1078.77 47.825 Q1083.92 43.9361 1094.08 43.9361 L1104.54 43.9361 L1104.54 43.2069 Q1104.54 38.0623 1101.13 35.2672 Q1097.77 32.4315 1091.65 32.4315 Q1087.76 32.4315 1084.08 33.3632 Q1080.39 34.295 1076.99 36.1584 L1076.99 29.2718 Q1081.08 27.692 1084.93 26.9223 Q1088.78 26.1121 1092.42 26.1121 Q1102.27 26.1121 1107.13 31.2163 Q1111.99 36.3204 1111.99 46.6907 Z" fill="#000000" fill-rule="nonzero" fill-opacity="1" /><path clip-path="url(#clip020)" d="M1127.34 9.54393 L1134.8 9.54393 L1134.8 72.576 L1127.34 72.576 L1127.34 9.54393 Z" fill="#000000" fill-rule="nonzero" fill-opacity="1" /><path clip-path="url(#clip020)" d="M1150.39 27.2059 L1157.84 27.2059 L1157.84 72.576 L1150.39 72.576 L1150.39 27.2059 M1150.39 9.54393 L1157.84 9.54393 L1157.84 18.9825 L1150.39 18.9825 L1150.39 9.54393 Z" fill="#000000" fill-rule="nonzero" fill-opacity="1" /><path clip-path="url(#clip020)" d="M1203.3 34.0924 L1203.3 9.54393 L1210.75 9.54393 L1210.75 72.576 L1203.3 72.576 L1203.3 65.7705 Q1200.95 69.8214 1197.34 71.8063 Q1193.78 73.7508 1188.75 73.7508 Q1180.53 73.7508 1175.34 67.1883 Q1170.2 60.6258 1170.2 49.9314 Q1170.2 39.2371 1175.34 32.6746 Q1180.53 26.1121 1188.75 26.1121 Q1193.78 26.1121 1197.34 28.0971 Q1200.95 30.0415 1203.3 34.0924 M1177.9 49.9314 Q1177.9 58.1548 1181.26 62.8538 Q1184.66 67.5124 1190.58 67.5124 Q1196.49 67.5124 1199.89 62.8538 Q1203.3 58.1548 1203.3 49.9314 Q1203.3 41.7081 1199.89 37.0496 Q1196.49 32.3505 1190.58 32.3505 Q1184.66 32.3505 1181.26 37.0496 Q1177.9 41.7081 1177.9 49.9314 Z" fill="#000000" fill-rule="nonzero" fill-opacity="1" /><path clip-path="url(#clip020)" d="M1246.72 49.7694 Q1237.69 49.7694 1234.2 51.8354 Q1230.72 53.9013 1230.72 58.8839 Q1230.72 62.8538 1233.31 65.2034 Q1235.95 67.5124 1240.44 67.5124 Q1246.64 67.5124 1250.37 63.1374 Q1254.13 58.7219 1254.13 51.4303 L1254.13 49.7694 L1246.72 49.7694 M1261.59 46.6907 L1261.59 72.576 L1254.13 72.576 L1254.13 65.6895 Q1251.58 69.8214 1247.78 71.8063 Q1243.97 73.7508 1238.46 73.7508 Q1231.49 73.7508 1227.36 69.8619 Q1223.27 65.9325 1223.27 59.3701 Q1223.27 51.7138 1228.37 47.825 Q1233.52 43.9361 1243.68 43.9361 L1254.13 43.9361 L1254.13 43.2069 Q1254.13 38.0623 1250.73 35.2672 Q1247.37 32.4315 1241.25 32.4315 Q1237.36 32.4315 1233.68 33.3632 Q1229.99 34.295 1226.59 36.1584 L1226.59 29.2718 Q1230.68 27.692 1234.53 26.9223 Q1238.38 26.1121 1242.02 26.1121 Q1251.87 26.1121 1256.73 31.2163 Q1261.59 36.3204 1261.59 46.6907 Z" fill="#000000" fill-rule="nonzero" fill-opacity="1" /><path clip-path="url(#clip020)" d="M1284.31 14.324 L1284.31 27.2059 L1299.67 27.2059 L1299.67 32.9987 L1284.31 32.9987 L1284.31 57.6282 Q1284.31 63.1779 1285.81 64.7578 Q1287.35 66.3376 1292.01 66.3376 L1299.67 66.3376 L1299.67 72.576 L1292.01 72.576 Q1283.38 72.576 1280.1 69.3758 Q1276.82 66.1351 1276.82 57.6282 L1276.82 32.9987 L1271.35 32.9987 L1271.35 27.2059 L1276.82 27.2059 L1276.82 14.324 L1284.31 14.324 Z" fill="#000000" fill-rule="nonzero" fill-opacity="1" /><path clip-path="url(#clip020)" d="M1309.47 27.2059 L1316.92 27.2059 L1316.92 72.576 L1309.47 72.576 L1309.47 27.2059 M1309.47 9.54393 L1316.92 9.54393 L1316.92 18.9825 L1309.47 18.9825 L1309.47 9.54393 Z" fill="#000000" fill-rule="nonzero" fill-opacity="1" /><path clip-path="url(#clip020)" d="M1350.1 32.4315 Q1344.11 32.4315 1340.62 37.1306 Q1337.14 41.7891 1337.14 49.9314 Q1337.14 58.0738 1340.58 62.7728 Q1344.07 67.4314 1350.1 67.4314 Q1356.06 67.4314 1359.54 62.7323 Q1363.02 58.0333 1363.02 49.9314 Q1363.02 41.8701 1359.54 37.1711 Q1356.06 32.4315 1350.1 32.4315 M1350.1 26.1121 Q1359.82 26.1121 1365.37 32.4315 Q1370.92 38.7509 1370.92 49.9314 Q1370.92 61.0714 1365.37 67.4314 Q1359.82 73.7508 1350.1 73.7508 Q1340.34 73.7508 1334.79 67.4314 Q1329.28 61.0714 1329.28 49.9314 Q1329.28 38.7509 1334.79 32.4315 Q1340.34 26.1121 1350.1 26.1121 Z" fill="#000000" fill-rule="nonzero" fill-opacity="1" /><path clip-path="url(#clip020)" d="M1420.99 45.1919 L1420.99 72.576 L1413.54 72.576 L1413.54 45.4349 Q1413.54 38.994 1411.03 35.7938 Q1408.51 32.5936 1403.49 32.5936 Q1397.46 32.5936 1393.97 36.4419 Q1390.49 40.2903 1390.49 46.9338 L1390.49 72.576 L1382.99 72.576 L1382.99 27.2059 L1390.49 27.2059 L1390.49 34.2544 Q1393.16 30.163 1396.77 28.1376 Q1400.41 26.1121 1405.15 26.1121 Q1412.97 26.1121 1416.98 30.9732 Q1420.99 35.7938 1420.99 45.1919 Z" fill="#000000" fill-rule="nonzero" fill-opacity="1" /><path clip-path="url(#clip020)" d="M1437.76 62.2867 L1446.31 62.2867 L1446.31 72.576 L1437.76 72.576 L1437.76 62.2867 M1437.76 29.6769 L1446.31 29.6769 L1446.31 39.9662 L1437.76 39.9662 L1437.76 29.6769 Z" fill="#000000" fill-rule="nonzero" fill-opacity="1" /><path clip-path="url(#clip020)" d="M1490.51 12.096 L1528.75 12.096 L1528.75 18.9825 L1498.69 18.9825 L1498.69 36.8875 L1527.49 36.8875 L1527.49 43.7741 L1498.69 43.7741 L1498.69 65.6895 L1529.47 65.6895 L1529.47 72.576 L1490.51 72.576 L1490.51 12.096 Z" fill="#000000" fill-rule="nonzero" fill-opacity="1" /><path clip-path="url(#clip020)" d="M1577.92 35.9153 Q1580.72 30.8922 1584.61 28.5022 Q1588.5 26.1121 1593.76 26.1121 Q1600.85 26.1121 1604.7 31.0947 Q1608.55 36.0368 1608.55 45.1919 L1608.55 72.576 L1601.05 72.576 L1601.05 45.4349 Q1601.05 38.913 1598.75 35.7533 Q1596.44 32.5936 1591.7 32.5936 Q1585.9 32.5936 1582.54 36.4419 Q1579.18 40.2903 1579.18 46.9338 L1579.18 72.576 L1571.69 72.576 L1571.69 45.4349 Q1571.69 38.8725 1569.38 35.7533 Q1567.07 32.5936 1562.25 32.5936 Q1556.53 32.5936 1553.17 36.4824 Q1549.81 40.3308 1549.81 46.9338 L1549.81 72.576 L1542.32 72.576 L1542.32 27.2059 L1549.81 27.2059 L1549.81 34.2544 Q1552.36 30.082 1555.93 28.0971 Q1559.49 26.1121 1564.39 26.1121 Q1569.34 26.1121 1572.78 28.6237 Q1576.26 31.1352 1577.92 35.9153 Z" fill="#000000" fill-rule="nonzero" fill-opacity="1" /><path clip-path="url(#clip020)" d="M1630.63 65.7705 L1630.63 89.8329 L1623.13 89.8329 L1623.13 27.2059 L1630.63 27.2059 L1630.63 34.0924 Q1632.98 30.0415 1636.54 28.0971 Q1640.15 26.1121 1645.13 26.1121 Q1653.39 26.1121 1658.54 32.6746 Q1663.72 39.2371 1663.72 49.9314 Q1663.72 60.6258 1658.54 67.1883 Q1653.39 73.7508 1645.13 73.7508 Q1640.15 73.7508 1636.54 71.8063 Q1632.98 69.8214 1630.63 65.7705 M1655.98 49.9314 Q1655.98 41.7081 1652.58 37.0496 Q1649.22 32.3505 1643.31 32.3505 Q1637.39 32.3505 1633.99 37.0496 Q1630.63 41.7081 1630.63 49.9314 Q1630.63 58.1548 1633.99 62.8538 Q1637.39 67.5124 1643.31 67.5124 Q1649.22 67.5124 1652.58 62.8538 Q1655.98 58.1548 1655.98 49.9314 Z" fill="#000000" fill-rule="nonzero" fill-opacity="1" /><path clip-path="url(#clip020)" d="M1676.08 27.2059 L1683.53 27.2059 L1683.53 72.576 L1676.08 72.576 L1676.08 27.2059 M1676.08 9.54393 L1683.53 9.54393 L1683.53 18.9825 L1676.08 18.9825 L1676.08 9.54393 Z" fill="#000000" fill-rule="nonzero" fill-opacity="1" /><path clip-path="url(#clip020)" d="M1725.42 34.1734 Q1724.16 33.4443 1722.66 33.1202 Q1721.2 32.7556 1719.42 32.7556 Q1713.1 32.7556 1709.7 36.8875 Q1706.34 40.9789 1706.34 48.6757 L1706.34 72.576 L1698.84 72.576 L1698.84 27.2059 L1706.34 27.2059 L1706.34 34.2544 Q1708.69 30.1225 1712.45 28.1376 Q1716.22 26.1121 1721.61 26.1121 Q1722.38 26.1121 1723.31 26.2337 Q1724.24 26.3147 1725.38 26.5172 L1725.42 34.1734 Z" fill="#000000" fill-rule="nonzero" fill-opacity="1" /><path clip-path="url(#clip020)" d="M1733.24 27.2059 L1740.69 27.2059 L1740.69 72.576 L1733.24 72.576 L1733.24 27.2059 M1733.24 9.54393 L1740.69 9.54393 L1740.69 18.9825 L1733.24 18.9825 L1733.24 9.54393 Z" fill="#000000" fill-rule="nonzero" fill-opacity="1" /><path clip-path="url(#clip020)" d="M1788.94 28.9478 L1788.94 35.9153 Q1785.78 34.1734 1782.58 33.3227 Q1779.42 32.4315 1776.17 32.4315 Q1768.92 32.4315 1764.91 37.0496 Q1760.9 41.6271 1760.9 49.9314 Q1760.9 58.2358 1764.91 62.8538 Q1768.92 67.4314 1776.17 67.4314 Q1779.42 67.4314 1782.58 66.5807 Q1785.78 65.6895 1788.94 63.9476 L1788.94 70.8341 Q1785.82 72.2924 1782.45 73.0216 Q1779.13 73.7508 1775.36 73.7508 Q1765.12 73.7508 1759.08 67.3098 Q1753.04 60.8689 1753.04 49.9314 Q1753.04 38.832 1759.12 32.472 Q1765.24 26.1121 1775.85 26.1121 Q1779.29 26.1121 1782.58 26.8413 Q1785.86 27.5299 1788.94 28.9478 Z" fill="#000000" fill-rule="nonzero" fill-opacity="1" /><path clip-path="url(#clip020)" d="M1822.52 49.7694 Q1813.48 49.7694 1810 51.8354 Q1806.52 53.9013 1806.52 58.8839 Q1806.52 62.8538 1809.11 65.2034 Q1811.74 67.5124 1816.24 67.5124 Q1822.44 67.5124 1826.16 63.1374 Q1829.93 58.7219 1829.93 51.4303 L1829.93 49.7694 L1822.52 49.7694 M1837.38 46.6907 L1837.38 72.576 L1829.93 72.576 L1829.93 65.6895 Q1827.38 69.8214 1823.57 71.8063 Q1819.76 73.7508 1814.25 73.7508 Q1807.29 73.7508 1803.15 69.8619 Q1799.06 65.9325 1799.06 59.3701 Q1799.06 51.7138 1804.17 47.825 Q1809.31 43.9361 1819.48 43.9361 L1829.93 43.9361 L1829.93 43.2069 Q1829.93 38.0623 1826.53 35.2672 Q1823.17 32.4315 1817.05 32.4315 Q1813.16 32.4315 1809.47 33.3632 Q1805.79 34.295 1802.38 36.1584 L1802.38 29.2718 Q1806.48 27.692 1810.32 26.9223 Q1814.17 26.1121 1817.82 26.1121 Q1827.66 26.1121 1832.52 31.2163 Q1837.38 36.3204 1837.38 46.6907 Z" fill="#000000" fill-rule="nonzero" fill-opacity="1" /><path clip-path="url(#clip020)" d="M1852.74 9.54393 L1860.19 9.54393 L1860.19 72.576 L1852.74 72.576 L1852.74 9.54393 Z" fill="#000000" fill-rule="nonzero" fill-opacity="1" /><path clip-path="url(#clip020)" d="M1896.81 27.2059 L1904.71 27.2059 L1918.89 65.2844 L1933.07 27.2059 L1940.97 27.2059 L1923.95 72.576 L1913.82 72.576 L1896.81 27.2059 Z" fill="#000000" fill-rule="nonzero" fill-opacity="1" /><path clip-path="url(#clip020)" d="M1980.18 28.5427 L1980.18 35.5912 Q1977.02 33.9709 1973.62 33.1607 Q1970.21 32.3505 1966.57 32.3505 Q1961.02 32.3505 1958.22 34.0519 Q1955.47 35.7533 1955.47 39.156 Q1955.47 41.7486 1957.45 43.2475 Q1959.44 44.7058 1965.43 46.0426 L1967.99 46.6097 Q1975.93 48.3111 1979.25 51.4303 Q1982.61 54.509 1982.61 60.0587 Q1982.61 66.3781 1977.59 70.0644 Q1972.6 73.7508 1963.85 73.7508 Q1960.21 73.7508 1956.24 73.0216 Q1952.31 72.3329 1947.93 70.9151 L1947.93 63.2184 Q1952.07 65.3654 1956.08 66.4591 Q1960.09 67.5124 1964.02 67.5124 Q1969.28 67.5124 1972.12 65.73 Q1974.95 63.9071 1974.95 60.6258 Q1974.95 57.5877 1972.89 55.9673 Q1970.86 54.3469 1963.93 52.8481 L1961.34 52.2405 Q1954.41 50.7821 1951.34 47.7845 Q1948.26 44.7463 1948.26 39.4801 Q1948.26 33.0797 1952.79 29.5959 Q1957.33 26.1121 1965.68 26.1121 Q1969.81 26.1121 1973.45 26.7198 Q1977.1 27.3274 1980.18 28.5427 Z" fill="#000000" fill-rule="nonzero" fill-opacity="1" /><path clip-path="url(#clip020)" d="M2012.79 12.096 L2063.95 12.096 L2063.95 18.9825 L2042.48 18.9825 L2042.48 72.576 L2034.26 72.576 L2034.26 18.9825 L2012.79 18.9825 L2012.79 12.096 Z" fill="#000000" fill-rule="nonzero" fill-opacity="1" /><path clip-path="url(#clip020)" d="M2078.41 49.7694 Q2069.38 49.7694 2065.9 51.8354 Q2062.41 53.9013 2062.41 58.8839 Q2062.41 62.8538 2065 65.2034 Q2067.64 67.5124 2072.13 67.5124 Q2078.33 67.5124 2082.06 63.1374 Q2085.83 58.7219 2085.83 51.4303 L2085.83 49.7694 L2078.41 49.7694 M2093.28 46.6907 L2093.28 72.576 L2085.83 72.576 L2085.83 65.6895 Q2083.27 69.8214 2079.47 71.8063 Q2075.66 73.7508 2070.15 73.7508 Q2063.18 73.7508 2059.05 69.8619 Q2054.96 65.9325 2054.96 59.3701 Q2054.96 51.7138 2060.06 47.825 Q2065.21 43.9361 2075.37 43.9361 L2085.83 43.9361 L2085.83 43.2069 Q2085.83 38.0623 2082.42 35.2672 Q2079.06 32.4315 2072.94 32.4315 Q2069.06 32.4315 2065.37 33.3632 Q2061.68 34.295 2058.28 36.1584 L2058.28 29.2718 Q2062.37 27.692 2066.22 26.9223 Q2070.07 26.1121 2073.71 26.1121 Q2083.56 26.1121 2088.42 31.2163 Q2093.28 36.3204 2093.28 46.6907 Z" fill="#000000" fill-rule="nonzero" fill-opacity="1" /><path clip-path="url(#clip020)" d="M2134.92 34.1734 Q2133.67 33.4443 2132.17 33.1202 Q2130.71 32.7556 2128.93 32.7556 Q2122.61 32.7556 2119.21 36.8875 Q2115.84 40.9789 2115.84 48.6757 L2115.84 72.576 L2108.35 72.576 L2108.35 27.2059 L2115.84 27.2059 L2115.84 34.2544 Q2118.19 30.1225 2121.96 28.1376 Q2125.73 26.1121 2131.12 26.1121 Q2131.88 26.1121 2132.82 26.2337 Q2133.75 26.3147 2134.88 26.5172 L2134.92 34.1734 Z" fill="#000000" fill-rule="nonzero" fill-opacity="1" /><path clip-path="url(#clip020)" d="M2171.14 49.3643 Q2171.14 41.2625 2167.78 36.8065 Q2164.45 32.3505 2158.42 32.3505 Q2152.42 32.3505 2149.06 36.8065 Q2145.74 41.2625 2145.74 49.3643 Q2145.74 57.4256 2149.06 61.8816 Q2152.42 66.3376 2158.42 66.3376 Q2164.45 66.3376 2167.78 61.8816 Q2171.14 57.4256 2171.14 49.3643 M2178.59 66.9452 Q2178.59 78.5308 2173.45 84.1616 Q2168.3 89.8329 2157.69 89.8329 Q2153.76 89.8329 2150.28 89.2252 Q2146.79 88.6581 2143.51 87.4428 L2143.51 80.1917 Q2146.79 81.9741 2149.99 82.8248 Q2153.19 83.6755 2156.51 83.6755 Q2163.85 83.6755 2167.49 79.8271 Q2171.14 76.0193 2171.14 68.282 L2171.14 64.5957 Q2168.83 68.6061 2165.22 70.5911 Q2161.62 72.576 2156.6 72.576 Q2148.25 72.576 2143.15 66.2161 Q2138.04 59.8562 2138.04 49.3643 Q2138.04 38.832 2143.15 32.472 Q2148.25 26.1121 2156.6 26.1121 Q2161.62 26.1121 2165.22 28.0971 Q2168.83 30.082 2171.14 34.0924 L2171.14 27.2059 L2178.59 27.2059 L2178.59 66.9452 Z" fill="#000000" fill-rule="nonzero" fill-opacity="1" /><path clip-path="url(#clip020)" d="M2232.75 48.0275 L2232.75 51.6733 L2198.48 51.6733 Q2198.97 59.3701 2203.1 63.421 Q2207.27 67.4314 2214.69 67.4314 Q2218.98 67.4314 2222.99 66.3781 Q2227.04 65.3249 2231.01 63.2184 L2231.01 70.267 Q2227 71.9684 2222.79 72.8596 Q2218.57 73.7508 2214.24 73.7508 Q2203.38 73.7508 2197.02 67.4314 Q2190.7 61.1119 2190.7 50.3365 Q2190.7 39.1965 2196.7 32.6746 Q2202.74 26.1121 2212.94 26.1121 Q2222.1 26.1121 2227.41 32.0264 Q2232.75 37.9003 2232.75 48.0275 M2225.3 45.84 Q2225.22 39.7232 2221.86 36.0774 Q2218.53 32.4315 2213.02 32.4315 Q2206.79 32.4315 2203.02 35.9558 Q2199.29 39.4801 2198.72 45.8805 L2225.3 45.84 Z" fill="#000000" fill-rule="nonzero" fill-opacity="1" /><path clip-path="url(#clip020)" d="M2252.36 14.324 L2252.36 27.2059 L2267.71 27.2059 L2267.71 32.9987 L2252.36 32.9987 L2252.36 57.6282 Q2252.36 63.1779 2253.86 64.7578 Q2255.4 66.3376 2260.06 66.3376 L2267.71 66.3376 L2267.71 72.576 L2260.06 72.576 Q2251.43 72.576 2248.15 69.3758 Q2244.86 66.1351 2244.86 57.6282 L2244.86 32.9987 L2239.4 32.9987 L2239.4 27.2059 L2244.86 27.2059 L2244.86 14.324 L2252.36 14.324 Z" fill="#000000" fill-rule="nonzero" fill-opacity="1" /><path clip-path="url(#clip021)" d="M358.949 1563.85 L358.949 1734.12 L717.115 1734.12 L717.115 1563.85 L358.949 1563.85 L358.949 1563.85  Z" fill="#4682b4" fill-rule="evenodd" fill-opacity="0.8"/>
<polyline clip-path="url(#clip021)" style="stroke:#000000; stroke-linecap:round; stroke-linejoin:round; stroke-width:4; stroke-opacity:0.8; fill:none" points="358.949,1563.85 358.949,1734.12 717.115,1734.12 717.115,1563.85 358.949,1563.85 "/>
<path clip-path="url(#clip021)" d="M806.657 1313.26 L806.657 1734.12 L1164.82 1734.12 L1164.82 1313.26 L806.657 1313.26 L806.657 1313.26  Z" fill="#4682b4" fill-rule="evenodd" fill-opacity="0.8"/>
<polyline clip-path="url(#clip021)" style="stroke:#000000; stroke-linecap:round; stroke-linejoin:round; stroke-width:4; stroke-opacity:0.8; fill:none" points="806.657,1313.26 806.657,1734.12 1164.82,1734.12 1164.82,1313.26 806.657,1313.26 "/>
<path clip-path="url(#clip021)" d="M1254.36 937.38 L1254.36 1734.12 L1612.53 1734.12 L1612.53 937.38 L1254.36 937.38 L1254.36 937.38  Z" fill="#4682b4" fill-rule="evenodd" fill-opacity="0.8"/>
<polyline clip-path="url(#clip021)" style="stroke:#000000; stroke-linecap:round; stroke-linejoin:round; stroke-width:4; stroke-opacity:0.8; fill:none" points="1254.36,937.38 1254.36,1734.12 1612.53,1734.12 1612.53,937.38 1254.36,937.38 "/>
<path clip-path="url(#clip021)" d="M1702.07 638.603 L1702.07 1734.12 L2060.24 1734.12 L2060.24 638.603 L1702.07 638.603 L1702.07 638.603  Z" fill="#4682b4" fill-rule="evenodd" fill-opacity="0.8"/>
<polyline clip-path="url(#clip021)" style="stroke:#000000; stroke-linecap:round; stroke-linejoin:round; stroke-width:4; stroke-opacity:0.8; fill:none" points="1702.07,638.603 1702.07,1734.12 2060.24,1734.12 2060.24,638.603 1702.07,638.603 "/>
<path clip-path="url(#clip021)" d="M2149.78 288.425 L2149.78 1734.12 L2507.95 1734.12 L2507.95 288.425 L2149.78 288.425 L2149.78 288.425  Z" fill="#4682b4" fill-rule="evenodd" fill-opacity="0.8"/>
<polyline clip-path="url(#clip021)" style="stroke:#000000; stroke-linecap:round; stroke-linejoin:round; stroke-width:4; stroke-opacity:0.8; fill:none" points="2149.78,288.425 2149.78,1734.12 2507.95,1734.12 2507.95,288.425 2149.78,288.425 "/>
<circle clip-path="url(#clip021)" style="fill:#4682b4; stroke:none; fill-opacity:0" cx="538.032" cy="1563.85" r="2"/>
<circle clip-path="url(#clip021)" style="fill:#4682b4; stroke:none; fill-opacity:0" cx="985.74" cy="1313.26" r="2"/>
<circle clip-path="url(#clip021)" style="fill:#4682b4; stroke:none; fill-opacity:0" cx="1433.45" cy="937.38" r="2"/>
<circle clip-path="url(#clip021)" style="fill:#4682b4; stroke:none; fill-opacity:0" cx="1881.16" cy="638.603" r="2"/>
<circle clip-path="url(#clip021)" style="fill:#4682b4; stroke:none; fill-opacity:0" cx="2328.86" cy="288.425" r="2"/>
<path clip-path="url(#clip021)" d="M538.032 1541.48 L506.032 1573.48 L538.032 1605.48 L570.032 1573.48 L538.032 1541.48 Z" fill="#ff0000" fill-rule="evenodd" fill-opacity="1" stroke="#000000" stroke-opacity="1" stroke-width="3.84"/>
<path clip-path="url(#clip021)" d="M985.74 1300.54 L953.74 1332.54 L985.74 1364.54 L1017.74 1332.54 L985.74 1300.54 Z" fill="#ff0000" fill-rule="evenodd" fill-opacity="1" stroke="#000000" stroke-opacity="1" stroke-width="3.84"/>
<path clip-path="url(#clip021)" d="M1433.45 898.955 L1401.45 930.955 L1433.45 962.955 L1465.45 930.955 L1433.45 898.955 Z" fill="#ff0000" fill-rule="evenodd" fill-opacity="1" stroke="#000000" stroke-opacity="1" stroke-width="3.84"/>
<path clip-path="url(#clip021)" d="M1881.16 497.373 L1849.16 529.373 L1881.16 561.373 L1913.16 529.373 L1881.16 497.373 Z" fill="#ff0000" fill-rule="evenodd" fill-opacity="1" stroke="#000000" stroke-opacity="1" stroke-width="3.84"/>
<path clip-path="url(#clip021)" d="M2328.86 256.425 L2296.86 288.425 L2328.86 320.425 L2360.86 288.425 L2328.86 256.425 Z" fill="#ff0000" fill-rule="evenodd" fill-opacity="1" stroke="#000000" stroke-opacity="1" stroke-width="3.84"/>
<path clip-path="url(#clip020)" d="M306.628 336.856 L759.338 336.856 L759.338 181.336 L306.628 181.336  Z" fill="#ffffff" fill-rule="evenodd" fill-opacity="1"/>
<polyline clip-path="url(#clip020)" style="stroke:#000000; stroke-linecap:round; stroke-linejoin:round; stroke-width:4; stroke-opacity:1; fill:none" points="306.628,336.856 759.338,336.856 759.338,181.336 306.628,181.336 306.628,336.856 "/>
<path clip-path="url(#clip020)" d="M333.457 253.912 L494.431 253.912 L494.431 212.44 L333.457 212.44 L333.457 253.912  Z" fill="#4682b4" fill-rule="evenodd" fill-opacity="0.8"/>
<polyline clip-path="url(#clip020)" style="stroke:#000000; stroke-linecap:round; stroke-linejoin:round; stroke-width:4; stroke-opacity:1; fill:none" points="333.457,253.912 494.431,253.912 494.431,212.44 333.457,212.44 333.457,253.912 "/>
<path clip-path="url(#clip020)" d="M521.26 215.896 L543.112 215.896 L543.112 219.831 L525.936 219.831 L525.936 230.063 L542.394 230.063 L542.394 233.998 L525.936 233.998 L525.936 246.521 L543.529 246.521 L543.529 250.456 L521.26 250.456 L521.26 215.896 Z" fill="#000000" fill-rule="nonzero" fill-opacity="1" /><path clip-path="url(#clip020)" d="M571.214 229.507 Q572.811 226.637 575.033 225.271 Q577.255 223.906 580.265 223.906 Q584.315 223.906 586.514 226.753 Q588.714 229.577 588.714 234.808 L588.714 250.456 L584.431 250.456 L584.431 234.947 Q584.431 231.22 583.112 229.415 Q581.792 227.609 579.084 227.609 Q575.774 227.609 573.853 229.808 Q571.931 232.007 571.931 235.804 L571.931 250.456 L567.649 250.456 L567.649 234.947 Q567.649 231.197 566.329 229.415 Q565.01 227.609 562.255 227.609 Q558.991 227.609 557.07 229.831 Q555.149 232.03 555.149 235.804 L555.149 250.456 L550.867 250.456 L550.867 224.531 L555.149 224.531 L555.149 228.558 Q556.607 226.174 558.644 225.04 Q560.681 223.906 563.482 223.906 Q566.306 223.906 568.274 225.341 Q570.265 226.776 571.214 229.507 Z" fill="#000000" fill-rule="nonzero" fill-opacity="1" /><path clip-path="url(#clip020)" d="M601.329 246.567 L601.329 260.317 L597.047 260.317 L597.047 224.531 L601.329 224.531 L601.329 228.466 Q602.672 226.151 604.709 225.04 Q606.769 223.906 609.616 223.906 Q614.338 223.906 617.278 227.655 Q620.241 231.405 620.241 237.517 Q620.241 243.628 617.278 247.378 Q614.338 251.128 609.616 251.128 Q606.769 251.128 604.709 250.016 Q602.672 248.882 601.329 246.567 M615.82 237.517 Q615.82 232.817 613.875 230.155 Q611.954 227.47 608.575 227.47 Q605.195 227.47 603.251 230.155 Q601.329 232.817 601.329 237.517 Q601.329 242.216 603.251 244.901 Q605.195 247.563 608.575 247.563 Q611.954 247.563 613.875 244.901 Q615.82 242.216 615.82 237.517 Z" fill="#000000" fill-rule="nonzero" fill-opacity="1" /><path clip-path="url(#clip020)" d="M627.301 224.531 L631.561 224.531 L631.561 250.456 L627.301 250.456 L627.301 224.531 M627.301 214.438 L631.561 214.438 L631.561 219.831 L627.301 219.831 L627.301 214.438 Z" fill="#000000" fill-rule="nonzero" fill-opacity="1" /><path clip-path="url(#clip020)" d="M655.496 228.512 Q654.778 228.095 653.922 227.91 Q653.088 227.702 652.07 227.702 Q648.459 227.702 646.514 230.063 Q644.593 232.401 644.593 236.799 L644.593 250.456 L640.31 250.456 L640.31 224.531 L644.593 224.531 L644.593 228.558 Q645.935 226.197 648.088 225.063 Q650.241 223.906 653.32 223.906 Q653.759 223.906 654.292 223.975 Q654.824 224.021 655.472 224.137 L655.496 228.512 Z" fill="#000000" fill-rule="nonzero" fill-opacity="1" /><path clip-path="url(#clip020)" d="M659.963 224.531 L664.222 224.531 L664.222 250.456 L659.963 250.456 L659.963 224.531 M659.963 214.438 L664.222 214.438 L664.222 219.831 L659.963 219.831 L659.963 214.438 Z" fill="#000000" fill-rule="nonzero" fill-opacity="1" /><path clip-path="url(#clip020)" d="M691.792 225.526 L691.792 229.507 Q689.986 228.512 688.157 228.026 Q686.352 227.517 684.5 227.517 Q680.357 227.517 678.065 230.155 Q675.773 232.771 675.773 237.517 Q675.773 242.262 678.065 244.901 Q680.357 247.516 684.5 247.516 Q686.352 247.516 688.157 247.03 Q689.986 246.521 691.792 245.526 L691.792 249.461 Q690.009 250.294 688.088 250.711 Q686.19 251.128 684.037 251.128 Q678.181 251.128 674.732 247.447 Q671.283 243.767 671.283 237.517 Q671.283 231.174 674.755 227.54 Q678.25 223.906 684.315 223.906 Q686.282 223.906 688.157 224.322 Q690.032 224.716 691.792 225.526 Z" fill="#000000" fill-rule="nonzero" fill-opacity="1" /><path clip-path="url(#clip020)" d="M710.981 237.424 Q705.819 237.424 703.829 238.604 Q701.838 239.785 701.838 242.632 Q701.838 244.901 703.319 246.243 Q704.824 247.563 707.393 247.563 Q710.935 247.563 713.065 245.063 Q715.218 242.54 715.218 238.373 L715.218 237.424 L710.981 237.424 M719.477 235.665 L719.477 250.456 L715.218 250.456 L715.218 246.521 Q713.759 248.882 711.583 250.016 Q709.407 251.128 706.259 251.128 Q702.278 251.128 699.917 248.905 Q697.579 246.66 697.579 242.91 Q697.579 238.535 700.495 236.313 Q703.435 234.091 709.245 234.091 L715.218 234.091 L715.218 233.674 Q715.218 230.734 713.273 229.137 Q711.352 227.517 707.856 227.517 Q705.634 227.517 703.528 228.049 Q701.421 228.581 699.477 229.646 L699.477 225.711 Q701.815 224.808 704.014 224.368 Q706.213 223.906 708.296 223.906 Q713.921 223.906 716.699 226.822 Q719.477 229.739 719.477 235.665 Z" fill="#000000" fill-rule="nonzero" fill-opacity="1" /><path clip-path="url(#clip020)" d="M728.25 214.438 L732.509 214.438 L732.509 250.456 L728.25 250.456 L728.25 214.438 Z" fill="#000000" fill-rule="nonzero" fill-opacity="1" /><path clip-path="url(#clip020)" d="M413.944 260.922 L389.85 285.016 L413.944 309.11 L438.038 285.016 L413.944 260.922 Z" fill="#ff0000" fill-rule="evenodd" fill-opacity="1" stroke="#000000" stroke-opacity="1" stroke-width="2.89129"/>
<path clip-path="url(#clip020)" d="M521.26 267.736 L550.496 267.736 L550.496 271.671 L538.228 271.671 L538.228 302.296 L533.529 302.296 L533.529 271.671 L521.26 271.671 L521.26 267.736 Z" fill="#000000" fill-rule="nonzero" fill-opacity="1" /><path clip-path="url(#clip020)" d="M558.76 289.264 Q553.598 289.264 551.607 290.444 Q549.617 291.625 549.617 294.472 Q549.617 296.741 551.098 298.083 Q552.603 299.403 555.172 299.403 Q558.714 299.403 560.843 296.903 Q562.996 294.38 562.996 290.213 L562.996 289.264 L558.76 289.264 M567.255 287.505 L567.255 302.296 L562.996 302.296 L562.996 298.361 Q561.538 300.722 559.362 301.856 Q557.186 302.968 554.038 302.968 Q550.056 302.968 547.695 300.745 Q545.357 298.5 545.357 294.75 Q545.357 290.375 548.274 288.153 Q551.214 285.931 557.024 285.931 L562.996 285.931 L562.996 285.514 Q562.996 282.574 561.052 280.977 Q559.13 279.357 555.635 279.357 Q553.413 279.357 551.306 279.889 Q549.2 280.421 547.255 281.486 L547.255 277.551 Q549.593 276.648 551.792 276.208 Q553.992 275.746 556.075 275.746 Q561.7 275.746 564.478 278.662 Q567.255 281.579 567.255 287.505 Z" fill="#000000" fill-rule="nonzero" fill-opacity="1" /><path clip-path="url(#clip020)" d="M591.051 280.352 Q590.334 279.935 589.477 279.75 Q588.644 279.542 587.626 279.542 Q584.014 279.542 582.07 281.903 Q580.149 284.241 580.149 288.639 L580.149 302.296 L575.866 302.296 L575.866 276.371 L580.149 276.371 L580.149 280.398 Q581.491 278.037 583.644 276.903 Q585.797 275.746 588.876 275.746 Q589.315 275.746 589.848 275.815 Q590.38 275.861 591.028 275.977 L591.051 280.352 Z" fill="#000000" fill-rule="nonzero" fill-opacity="1" /><path clip-path="url(#clip020)" d="M611.746 289.032 Q611.746 284.403 609.825 281.857 Q607.926 279.31 604.477 279.31 Q601.051 279.31 599.13 281.857 Q597.232 284.403 597.232 289.032 Q597.232 293.639 599.13 296.185 Q601.051 298.731 604.477 298.731 Q607.926 298.731 609.825 296.185 Q611.746 293.639 611.746 289.032 M616.005 299.079 Q616.005 305.699 613.065 308.917 Q610.125 312.157 604.061 312.157 Q601.815 312.157 599.825 311.81 Q597.834 311.486 595.959 310.792 L595.959 306.648 Q597.834 307.667 599.663 308.153 Q601.491 308.639 603.389 308.639 Q607.579 308.639 609.663 306.44 Q611.746 304.264 611.746 299.843 L611.746 297.736 Q610.426 300.028 608.366 301.162 Q606.306 302.296 603.436 302.296 Q598.667 302.296 595.751 298.662 Q592.834 295.028 592.834 289.032 Q592.834 283.014 595.751 279.38 Q598.667 275.746 603.436 275.746 Q606.306 275.746 608.366 276.88 Q610.426 278.014 611.746 280.306 L611.746 276.371 L616.005 276.371 L616.005 299.079 Z" fill="#000000" fill-rule="nonzero" fill-opacity="1" /><path clip-path="url(#clip020)" d="M646.954 288.269 L646.954 290.352 L627.371 290.352 Q627.649 294.75 630.01 297.065 Q632.394 299.356 636.63 299.356 Q639.084 299.356 641.375 298.755 Q643.69 298.153 645.959 296.949 L645.959 300.977 Q643.667 301.949 641.26 302.458 Q638.852 302.968 636.375 302.968 Q630.172 302.968 626.537 299.356 Q622.926 295.745 622.926 289.588 Q622.926 283.222 626.352 279.495 Q629.801 275.746 635.635 275.746 Q640.866 275.746 643.898 279.125 Q646.954 282.482 646.954 288.269 M642.695 287.019 Q642.648 283.523 640.727 281.44 Q638.829 279.357 635.681 279.357 Q632.116 279.357 629.963 281.37 Q627.834 283.384 627.51 287.042 L642.695 287.019 Z" fill="#000000" fill-rule="nonzero" fill-opacity="1" /><path clip-path="url(#clip020)" d="M658.158 269.009 L658.158 276.371 L666.931 276.371 L666.931 279.681 L658.158 279.681 L658.158 293.755 Q658.158 296.926 659.014 297.829 Q659.894 298.731 662.556 298.731 L666.931 298.731 L666.931 302.296 L662.556 302.296 Q657.625 302.296 655.75 300.468 Q653.875 298.616 653.875 293.755 L653.875 279.681 L650.75 279.681 L650.75 276.371 L653.875 276.371 L653.875 269.009 L658.158 269.009 Z" fill="#000000" fill-rule="nonzero" fill-opacity="1" /></svg>
