<?xml version="1.0" encoding="utf-8"?>
<svg xmlns="http://www.w3.org/2000/svg" xmlns:xlink="http://www.w3.org/1999/xlink" width="672" height="480" viewBox="0 0 2688 1920">
<defs>
  <clipPath id="clip860">
    <rect x="0" y="0" width="2688" height="1920"/>
  </clipPath>
</defs>
<path clip-path="url(#clip860)" d="M0 1920 L2688 1920 L2688 -4.26326e-14 L0 -4.26326e-14  Z" fill="#ffffff" fill-rule="evenodd" fill-opacity="1"/>
<defs>
  <clipPath id="clip861">
    <rect x="210" y="127" width="2432" height="1607"/>
  </clipPath>
</defs>
<path clip-path="url(#clip860)" d="M210.238 1734.12 L2640.76 1734.12 L2640.76 127.792 L210.238 127.792  Z" fill="#ffffff" fill-rule="evenodd" fill-opacity="1"/>
<polyline clip-path="url(#clip861)" style="stroke:#000000; stroke-linecap:round; stroke-linejoin:round; stroke-width:2; stroke-opacity:0.1; fill:none" points="516.973,1734.12 516.973,127.792 "/>
<polyline clip-path="url(#clip861)" style="stroke:#000000; stroke-linecap:round; stroke-linejoin:round; stroke-width:2; stroke-opacity:0.1; fill:none" points="949.603,1734.12 949.603,127.792 "/>
<polyline clip-path="url(#clip861)" style="stroke:#000000; stroke-linecap:round; stroke-linejoin:round; stroke-width:2; stroke-opacity:0.1; fill:none" points="1382.23,1734.12 1382.23,127.792 "/>
<polyline clip-path="url(#clip861)" style="stroke:#000000; stroke-linecap:round; stroke-linejoin:round; stroke-width:2; stroke-opacity:0.1; fill:none" points="1814.86,1734.12 1814.86,127.792 "/>
<polyline clip-path="url(#clip861)" style="stroke:#000000; stroke-linecap:round; stroke-linejoin:round; stroke-width:2; stroke-opacity:0.1; fill:none" points="2247.49,1734.12 2247.49,127.792 "/>
<polyline clip-path="url(#clip861)" style="stroke:#000000; stroke-linecap:round; stroke-linejoin:round; stroke-width:2; stroke-opacity:0.1; fill:none" points="210.238,1734.12 2640.76,1734.12 "/>
<polyline clip-path="url(#clip861)" style="stroke:#000000; stroke-linecap:round; stroke-linejoin:round; stroke-width:2; stroke-opacity:0.1; fill:none" points="210.238,1420.99 2640.76,1420.99 "/>
<polyline clip-path="url(#clip861)" style="stroke:#000000; stroke-linecap:round; stroke-linejoin:round; stroke-width:2; stroke-opacity:0.1; fill:none" points="210.238,1107.87 2640.76,1107.87 "/>
<polyline clip-path="url(#clip861)" style="stroke:#000000; stroke-linecap:round; stroke-linejoin:round; stroke-width:2; stroke-opacity:0.1; fill:none" points="210.238,794.746 2640.76,794.746 "/>
<polyline clip-path="url(#clip861)" style="stroke:#000000; stroke-linecap:round; stroke-linejoin:round; stroke-width:2; stroke-opacity:0.1; fill:none" points="210.238,481.622 2640.76,481.622 "/>
<polyline clip-path="url(#clip861)" style="stroke:#000000; stroke-linecap:round; stroke-linejoin:round; stroke-width:2; stroke-opacity:0.1; fill:none" points="210.238,168.498 2640.76,168.498 "/>
<polyline clip-path="url(#clip860)" style="stroke:#000000; stroke-linecap:round; stroke-linejoin:round; stroke-width:4; stroke-opacity:1; fill:none" points="210.238,1734.12 2640.76,1734.12 "/>
<polyline clip-path="url(#clip860)" style="stroke:#000000; stroke-linecap:round; stroke-linejoin:round; stroke-width:4; stroke-opacity:1; fill:none" points="516.973,1734.12 516.973,1715.22 "/>
<polyline clip-path="url(#clip860)" style="stroke:#000000; stroke-linecap:round; stroke-linejoin:round; stroke-width:4; stroke-opacity:1; fill:none" points="949.603,1734.12 949.603,1715.22 "/>
<polyline clip-path="url(#clip860)" style="stroke:#000000; stroke-linecap:round; stroke-linejoin:round; stroke-width:4; stroke-opacity:1; fill:none" points="1382.23,1734.12 1382.23,1715.22 "/>
<polyline clip-path="url(#clip860)" style="stroke:#000000; stroke-linecap:round; stroke-linejoin:round; stroke-width:4; stroke-opacity:1; fill:none" points="1814.86,1734.12 1814.86,1715.22 "/>
<polyline clip-path="url(#clip860)" style="stroke:#000000; stroke-linecap:round; stroke-linejoin:round; stroke-width:4; stroke-opacity:1; fill:none" points="2247.49,1734.12 2247.49,1715.22 "/>
<path clip-path="url(#clip860)" d="M464.693 1767.34 Q461.082 1767.34 459.253 1770.9 Q457.448 1774.45 457.448 1781.58 Q457.448 1788.68 459.253 1792.25 Q461.082 1795.79 464.693 1795.79 Q468.327 1795.79 470.133 1792.25 Q471.962 1788.68 471.962 1781.58 Q471.962 1774.45 470.133 1770.9 Q468.327 1767.34 464.693 1767.34 M464.693 1763.64 Q470.503 1763.64 473.559 1768.24 Q476.637 1772.83 476.637 1781.58 Q476.637 1790.3 473.559 1794.91 Q470.503 1799.49 464.693 1799.49 Q458.883 1799.49 455.804 1794.91 Q452.749 1790.3 452.749 1781.58 Q452.749 1772.83 455.804 1768.24 Q458.883 1763.64 464.693 1763.64 Z" fill="#000000" fill-rule="nonzero" fill-opacity="1" /><path clip-path="url(#clip860)" d="M484.855 1792.94 L489.739 1792.94 L489.739 1798.82 L484.855 1798.82 L484.855 1792.94 Z" fill="#000000" fill-rule="nonzero" fill-opacity="1" /><path clip-path="url(#clip860)" d="M503.952 1794.89 L520.271 1794.89 L520.271 1798.82 L498.327 1798.82 L498.327 1794.89 Q500.989 1792.13 505.572 1787.5 Q510.179 1782.85 511.359 1781.51 Q513.605 1778.98 514.484 1777.25 Q515.387 1775.49 515.387 1773.8 Q515.387 1771.04 513.443 1769.31 Q511.522 1767.57 508.42 1767.57 Q506.221 1767.57 503.767 1768.34 Q501.336 1769.1 498.559 1770.65 L498.559 1765.93 Q501.383 1764.79 503.836 1764.21 Q506.29 1763.64 508.327 1763.64 Q513.697 1763.64 516.892 1766.32 Q520.086 1769.01 520.086 1773.5 Q520.086 1775.63 519.276 1777.55 Q518.489 1779.45 516.383 1782.04 Q515.804 1782.71 512.702 1785.93 Q509.6 1789.12 503.952 1794.89 Z" fill="#000000" fill-rule="nonzero" fill-opacity="1" /><path clip-path="url(#clip860)" d="M528.906 1764.26 L551.128 1764.26 L551.128 1766.25 L538.582 1798.82 L533.697 1798.82 L545.503 1768.2 L528.906 1768.2 L528.906 1764.26 Z" fill="#000000" fill-rule="nonzero" fill-opacity="1" /><path clip-path="url(#clip860)" d="M560.294 1764.26 L578.651 1764.26 L578.651 1768.2 L564.577 1768.2 L564.577 1776.67 Q565.595 1776.32 566.614 1776.16 Q567.632 1775.97 568.651 1775.97 Q574.438 1775.97 577.817 1779.15 Q581.197 1782.32 581.197 1787.73 Q581.197 1793.31 577.725 1796.41 Q574.253 1799.49 567.933 1799.49 Q565.757 1799.49 563.489 1799.12 Q561.243 1798.75 558.836 1798.01 L558.836 1793.31 Q560.919 1794.45 563.142 1795 Q565.364 1795.56 567.841 1795.56 Q571.845 1795.56 574.183 1793.45 Q576.521 1791.34 576.521 1787.73 Q576.521 1784.12 574.183 1782.02 Q571.845 1779.91 567.841 1779.91 Q565.966 1779.91 564.091 1780.33 Q562.239 1780.74 560.294 1781.62 L560.294 1764.26 Z" fill="#000000" fill-rule="nonzero" fill-opacity="1" /><path clip-path="url(#clip860)" d="M896.826 1767.34 Q893.215 1767.34 891.386 1770.9 Q889.581 1774.45 889.581 1781.58 Q889.581 1788.68 891.386 1792.25 Q893.215 1795.79 896.826 1795.79 Q900.46 1795.79 902.266 1792.25 Q904.094 1788.68 904.094 1781.58 Q904.094 1774.45 902.266 1770.9 Q900.46 1767.34 896.826 1767.34 M896.826 1763.64 Q902.636 1763.64 905.692 1768.24 Q908.77 1772.83 908.77 1781.58 Q908.77 1790.3 905.692 1794.91 Q902.636 1799.49 896.826 1799.49 Q891.016 1799.49 887.937 1794.91 Q884.881 1790.3 884.881 1781.58 Q884.881 1772.83 887.937 1768.24 Q891.016 1763.64 896.826 1763.64 Z" fill="#000000" fill-rule="nonzero" fill-opacity="1" /><path clip-path="url(#clip860)" d="M916.988 1792.94 L921.872 1792.94 L921.872 1798.82 L916.988 1798.82 L916.988 1792.94 Z" fill="#000000" fill-rule="nonzero" fill-opacity="1" /><path clip-path="url(#clip860)" d="M946.224 1780.19 Q949.58 1780.9 951.455 1783.17 Q953.353 1785.44 953.353 1788.77 Q953.353 1793.89 949.835 1796.69 Q946.316 1799.49 939.835 1799.49 Q937.659 1799.49 935.344 1799.05 Q933.053 1798.64 930.599 1797.78 L930.599 1793.27 Q932.543 1794.4 934.858 1794.98 Q937.173 1795.56 939.696 1795.56 Q944.094 1795.56 946.386 1793.82 Q948.701 1792.08 948.701 1788.77 Q948.701 1785.72 946.548 1784.01 Q944.418 1782.27 940.599 1782.27 L936.571 1782.27 L936.571 1778.43 L940.784 1778.43 Q944.233 1778.43 946.062 1777.06 Q947.89 1775.67 947.89 1773.08 Q947.89 1770.42 945.992 1769.01 Q944.117 1767.57 940.599 1767.57 Q938.677 1767.57 936.478 1767.99 Q934.279 1768.4 931.64 1769.28 L931.64 1765.12 Q934.303 1764.38 936.617 1764.01 Q938.955 1763.64 941.015 1763.64 Q946.339 1763.64 949.441 1766.07 Q952.543 1768.47 952.543 1772.59 Q952.543 1775.46 950.9 1777.46 Q949.256 1779.42 946.224 1780.19 Z" fill="#000000" fill-rule="nonzero" fill-opacity="1" /><path clip-path="url(#clip860)" d="M972.219 1767.34 Q968.608 1767.34 966.779 1770.9 Q964.974 1774.45 964.974 1781.58 Q964.974 1788.68 966.779 1792.25 Q968.608 1795.79 972.219 1795.79 Q975.853 1795.79 977.659 1792.25 Q979.487 1788.68 979.487 1781.58 Q979.487 1774.45 977.659 1770.9 Q975.853 1767.34 972.219 1767.34 M972.219 1763.64 Q978.029 1763.64 981.085 1768.24 Q984.163 1772.83 984.163 1781.58 Q984.163 1790.3 981.085 1794.91 Q978.029 1799.49 972.219 1799.49 Q966.409 1799.49 963.33 1794.91 Q960.275 1790.3 960.275 1781.58 Q960.275 1772.83 963.33 1768.24 Q966.409 1763.64 972.219 1763.64 Z" fill="#000000" fill-rule="nonzero" fill-opacity="1" /><path clip-path="url(#clip860)" d="M1002.38 1767.34 Q998.77 1767.34 996.941 1770.9 Q995.136 1774.45 995.136 1781.58 Q995.136 1788.68 996.941 1792.25 Q998.77 1795.79 1002.38 1795.79 Q1006.02 1795.79 1007.82 1792.25 Q1009.65 1788.68 1009.65 1781.58 Q1009.65 1774.45 1007.82 1770.9 Q1006.02 1767.34 1002.38 1767.34 M1002.38 1763.64 Q1008.19 1763.64 1011.25 1768.24 Q1014.33 1772.83 1014.33 1781.58 Q1014.33 1790.3 1011.25 1794.91 Q1008.19 1799.49 1002.38 1799.49 Q996.571 1799.49 993.492 1794.91 Q990.436 1790.3 990.436 1781.58 Q990.436 1772.83 993.492 1768.24 Q996.571 1763.64 1002.38 1763.64 Z" fill="#000000" fill-rule="nonzero" fill-opacity="1" /><path clip-path="url(#clip860)" d="M1329.95 1767.34 Q1326.34 1767.34 1324.51 1770.9 Q1322.71 1774.45 1322.71 1781.58 Q1322.71 1788.68 1324.51 1792.25 Q1326.34 1795.79 1329.95 1795.79 Q1333.59 1795.79 1335.39 1792.25 Q1337.22 1788.68 1337.22 1781.58 Q1337.22 1774.45 1335.39 1770.9 Q1333.59 1767.34 1329.95 1767.34 M1329.95 1763.64 Q1335.76 1763.64 1338.82 1768.24 Q1341.9 1772.83 1341.9 1781.58 Q1341.9 1790.3 1338.82 1794.91 Q1335.76 1799.49 1329.95 1799.49 Q1324.14 1799.49 1321.07 1794.91 Q1318.01 1790.3 1318.01 1781.58 Q1318.01 1772.83 1321.07 1768.24 Q1324.14 1763.64 1329.95 1763.64 Z" fill="#000000" fill-rule="nonzero" fill-opacity="1" /><path clip-path="url(#clip860)" d="M1350.12 1792.94 L1355 1792.94 L1355 1798.82 L1350.12 1798.82 L1350.12 1792.94 Z" fill="#000000" fill-rule="nonzero" fill-opacity="1" /><path clip-path="url(#clip860)" d="M1379.35 1780.19 Q1382.71 1780.9 1384.58 1783.17 Q1386.48 1785.44 1386.48 1788.77 Q1386.48 1793.89 1382.96 1796.69 Q1379.44 1799.49 1372.96 1799.49 Q1370.79 1799.49 1368.47 1799.05 Q1366.18 1798.64 1363.73 1797.78 L1363.73 1793.27 Q1365.67 1794.4 1367.99 1794.98 Q1370.3 1795.56 1372.82 1795.56 Q1377.22 1795.56 1379.51 1793.82 Q1381.83 1792.08 1381.83 1788.77 Q1381.83 1785.72 1379.68 1784.01 Q1377.55 1782.27 1373.73 1782.27 L1369.7 1782.27 L1369.7 1778.43 L1373.91 1778.43 Q1377.36 1778.43 1379.19 1777.06 Q1381.02 1775.67 1381.02 1773.08 Q1381.02 1770.42 1379.12 1769.01 Q1377.25 1767.57 1373.73 1767.57 Q1371.81 1767.57 1369.61 1767.99 Q1367.41 1768.4 1364.77 1769.28 L1364.77 1765.12 Q1367.43 1764.38 1369.75 1764.01 Q1372.08 1763.64 1374.14 1763.64 Q1379.47 1763.64 1382.57 1766.07 Q1385.67 1768.47 1385.67 1772.59 Q1385.67 1775.46 1384.03 1777.46 Q1382.38 1779.42 1379.35 1780.19 Z" fill="#000000" fill-rule="nonzero" fill-opacity="1" /><path clip-path="url(#clip860)" d="M1399.37 1794.89 L1415.69 1794.89 L1415.69 1798.82 L1393.75 1798.82 L1393.75 1794.89 Q1396.41 1792.13 1401 1787.5 Q1405.6 1782.85 1406.78 1781.51 Q1409.03 1778.98 1409.91 1777.25 Q1410.81 1775.49 1410.81 1773.8 Q1410.81 1771.04 1408.87 1769.31 Q1406.94 1767.57 1403.84 1767.57 Q1401.64 1767.57 1399.19 1768.34 Q1396.76 1769.1 1393.98 1770.65 L1393.98 1765.93 Q1396.81 1764.79 1399.26 1764.21 Q1401.71 1763.64 1403.75 1763.64 Q1409.12 1763.64 1412.31 1766.32 Q1415.51 1769.01 1415.51 1773.5 Q1415.51 1775.63 1414.7 1777.55 Q1413.91 1779.45 1411.81 1782.04 Q1411.23 1782.71 1408.12 1785.93 Q1405.02 1789.12 1399.37 1794.89 Z" fill="#000000" fill-rule="nonzero" fill-opacity="1" /><path clip-path="url(#clip860)" d="M1425.56 1764.26 L1443.91 1764.26 L1443.91 1768.2 L1429.84 1768.2 L1429.84 1776.67 Q1430.86 1776.32 1431.87 1776.16 Q1432.89 1775.97 1433.91 1775.97 Q1439.7 1775.97 1443.08 1779.15 Q1446.46 1782.32 1446.46 1787.73 Q1446.46 1793.31 1442.99 1796.41 Q1439.51 1799.49 1433.19 1799.49 Q1431.02 1799.49 1428.75 1799.12 Q1426.5 1798.75 1424.1 1798.01 L1424.1 1793.31 Q1426.18 1794.45 1428.4 1795 Q1430.62 1795.56 1433.1 1795.56 Q1437.11 1795.56 1439.44 1793.45 Q1441.78 1791.34 1441.78 1787.73 Q1441.78 1784.12 1439.44 1782.02 Q1437.11 1779.91 1433.1 1779.91 Q1431.23 1779.91 1429.35 1780.33 Q1427.5 1780.74 1425.56 1781.62 L1425.56 1764.26 Z" fill="#000000" fill-rule="nonzero" fill-opacity="1" /><path clip-path="url(#clip860)" d="M1762.09 1767.34 Q1758.48 1767.34 1756.65 1770.9 Q1754.84 1774.45 1754.84 1781.58 Q1754.84 1788.68 1756.65 1792.25 Q1758.48 1795.79 1762.09 1795.79 Q1765.72 1795.79 1767.53 1792.25 Q1769.36 1788.68 1769.36 1781.58 Q1769.36 1774.45 1767.53 1770.9 Q1765.72 1767.34 1762.09 1767.34 M1762.09 1763.64 Q1767.9 1763.64 1770.95 1768.24 Q1774.03 1772.83 1774.03 1781.58 Q1774.03 1790.3 1770.95 1794.91 Q1767.9 1799.49 1762.09 1799.49 Q1756.28 1799.49 1753.2 1794.91 Q1750.14 1790.3 1750.14 1781.58 Q1750.14 1772.83 1753.2 1768.24 Q1756.28 1763.64 1762.09 1763.64 Z" fill="#000000" fill-rule="nonzero" fill-opacity="1" /><path clip-path="url(#clip860)" d="M1782.25 1792.94 L1787.13 1792.94 L1787.13 1798.82 L1782.25 1798.82 L1782.25 1792.94 Z" fill="#000000" fill-rule="nonzero" fill-opacity="1" /><path clip-path="url(#clip860)" d="M1811.48 1780.19 Q1814.84 1780.9 1816.72 1783.17 Q1818.61 1785.44 1818.61 1788.77 Q1818.61 1793.89 1815.1 1796.69 Q1811.58 1799.49 1805.1 1799.49 Q1802.92 1799.49 1800.61 1799.05 Q1798.31 1798.64 1795.86 1797.78 L1795.86 1793.27 Q1797.8 1794.4 1800.12 1794.98 Q1802.43 1795.56 1804.96 1795.56 Q1809.36 1795.56 1811.65 1793.82 Q1813.96 1792.08 1813.96 1788.77 Q1813.96 1785.72 1811.81 1784.01 Q1809.68 1782.27 1805.86 1782.27 L1801.83 1782.27 L1801.83 1778.43 L1806.04 1778.43 Q1809.49 1778.43 1811.32 1777.06 Q1813.15 1775.67 1813.15 1773.08 Q1813.15 1770.42 1811.25 1769.01 Q1809.38 1767.57 1805.86 1767.57 Q1803.94 1767.57 1801.74 1767.99 Q1799.54 1768.4 1796.9 1769.28 L1796.9 1765.12 Q1799.56 1764.38 1801.88 1764.01 Q1804.22 1763.64 1806.28 1763.64 Q1811.6 1763.64 1814.7 1766.07 Q1817.8 1768.47 1817.8 1772.59 Q1817.8 1775.46 1816.16 1777.46 Q1814.52 1779.42 1811.48 1780.19 Z" fill="#000000" fill-rule="nonzero" fill-opacity="1" /><path clip-path="url(#clip860)" d="M1827.53 1764.26 L1845.88 1764.26 L1845.88 1768.2 L1831.81 1768.2 L1831.81 1776.67 Q1832.83 1776.32 1833.85 1776.16 Q1834.86 1775.97 1835.88 1775.97 Q1841.67 1775.97 1845.05 1779.15 Q1848.43 1782.32 1848.43 1787.73 Q1848.43 1793.31 1844.96 1796.41 Q1841.48 1799.49 1835.17 1799.49 Q1832.99 1799.49 1830.72 1799.12 Q1828.48 1798.75 1826.07 1798.01 L1826.07 1793.31 Q1828.15 1794.45 1830.37 1795 Q1832.6 1795.56 1835.07 1795.56 Q1839.08 1795.56 1841.42 1793.45 Q1843.75 1791.34 1843.75 1787.73 Q1843.75 1784.12 1841.42 1782.02 Q1839.08 1779.91 1835.07 1779.91 Q1833.2 1779.91 1831.32 1780.33 Q1829.47 1780.74 1827.53 1781.62 L1827.53 1764.26 Z" fill="#000000" fill-rule="nonzero" fill-opacity="1" /><path clip-path="url(#clip860)" d="M1867.64 1767.34 Q1864.03 1767.34 1862.2 1770.9 Q1860.4 1774.45 1860.4 1781.58 Q1860.4 1788.68 1862.2 1792.25 Q1864.03 1795.79 1867.64 1795.79 Q1871.28 1795.79 1873.08 1792.25 Q1874.91 1788.68 1874.91 1781.58 Q1874.91 1774.45 1873.08 1770.9 Q1871.28 1767.34 1867.64 1767.34 M1867.64 1763.64 Q1873.45 1763.64 1876.51 1768.24 Q1879.59 1772.83 1879.59 1781.58 Q1879.59 1790.3 1876.51 1794.91 Q1873.45 1799.49 1867.64 1799.49 Q1861.83 1799.49 1858.75 1794.91 Q1855.7 1790.3 1855.7 1781.58 Q1855.7 1772.83 1858.75 1768.24 Q1861.83 1763.64 1867.64 1763.64 Z" fill="#000000" fill-rule="nonzero" fill-opacity="1" /><path clip-path="url(#clip860)" d="M2195.21 1767.34 Q2191.6 1767.34 2189.78 1770.9 Q2187.97 1774.45 2187.97 1781.58 Q2187.97 1788.68 2189.78 1792.25 Q2191.6 1795.79 2195.21 1795.79 Q2198.85 1795.79 2200.65 1792.25 Q2202.48 1788.68 2202.48 1781.58 Q2202.48 1774.45 2200.65 1770.9 Q2198.85 1767.34 2195.21 1767.34 M2195.21 1763.64 Q2201.03 1763.64 2204.08 1768.24 Q2207.16 1772.83 2207.16 1781.58 Q2207.16 1790.3 2204.08 1794.91 Q2201.03 1799.49 2195.21 1799.49 Q2189.4 1799.49 2186.33 1794.91 Q2183.27 1790.3 2183.27 1781.58 Q2183.27 1772.83 2186.33 1768.24 Q2189.4 1763.64 2195.21 1763.64 Z" fill="#000000" fill-rule="nonzero" fill-opacity="1" /><path clip-path="url(#clip860)" d="M2215.38 1792.94 L2220.26 1792.94 L2220.26 1798.82 L2215.38 1798.82 L2215.38 1792.94 Z" fill="#000000" fill-rule="nonzero" fill-opacity="1" /><path clip-path="url(#clip860)" d="M2244.61 1780.19 Q2247.97 1780.9 2249.84 1783.17 Q2251.74 1785.44 2251.74 1788.77 Q2251.74 1793.89 2248.22 1796.69 Q2244.71 1799.49 2238.22 1799.49 Q2236.05 1799.49 2233.73 1799.05 Q2231.44 1798.64 2228.99 1797.78 L2228.99 1793.27 Q2230.93 1794.4 2233.25 1794.98 Q2235.56 1795.56 2238.09 1795.56 Q2242.48 1795.56 2244.77 1793.82 Q2247.09 1792.08 2247.09 1788.77 Q2247.09 1785.72 2244.94 1784.01 Q2242.81 1782.27 2238.99 1782.27 L2234.96 1782.27 L2234.96 1778.43 L2239.17 1778.43 Q2242.62 1778.43 2244.45 1777.06 Q2246.28 1775.67 2246.28 1773.08 Q2246.28 1770.42 2244.38 1769.01 Q2242.51 1767.57 2238.99 1767.57 Q2237.07 1767.57 2234.87 1767.99 Q2232.67 1768.4 2230.03 1769.28 L2230.03 1765.12 Q2232.69 1764.38 2235.01 1764.01 Q2237.34 1763.64 2239.4 1763.64 Q2244.73 1763.64 2247.83 1766.07 Q2250.93 1768.47 2250.93 1772.59 Q2250.93 1775.46 2249.29 1777.46 Q2247.65 1779.42 2244.61 1780.19 Z" fill="#000000" fill-rule="nonzero" fill-opacity="1" /><path clip-path="url(#clip860)" d="M2259.43 1764.26 L2281.65 1764.26 L2281.65 1766.25 L2269.1 1798.82 L2264.22 1798.82 L2276.02 1768.2 L2259.43 1768.2 L2259.43 1764.26 Z" fill="#000000" fill-rule="nonzero" fill-opacity="1" /><path clip-path="url(#clip860)" d="M2290.82 1764.26 L2309.17 1764.26 L2309.17 1768.2 L2295.1 1768.2 L2295.1 1776.67 Q2296.12 1776.32 2297.14 1776.16 Q2298.15 1775.97 2299.17 1775.97 Q2304.96 1775.97 2308.34 1779.15 Q2311.72 1782.32 2311.72 1787.73 Q2311.72 1793.31 2308.25 1796.41 Q2304.77 1799.49 2298.46 1799.49 Q2296.28 1799.49 2294.01 1799.12 Q2291.77 1798.75 2289.36 1798.01 L2289.36 1793.31 Q2291.44 1794.45 2293.66 1795 Q2295.89 1795.56 2298.36 1795.56 Q2302.37 1795.56 2304.71 1793.45 Q2307.04 1791.34 2307.04 1787.73 Q2307.04 1784.12 2304.71 1782.02 Q2302.37 1779.91 2298.36 1779.91 Q2296.49 1779.91 2294.61 1780.33 Q2292.76 1780.74 2290.82 1781.62 L2290.82 1764.26 Z" fill="#000000" fill-rule="nonzero" fill-opacity="1" /><path clip-path="url(#clip860)" d="M1350.68 1852.3 Q1345.85 1852.3 1343.24 1855.8 Q1340.5 1859.46 1340.5 1865.51 Q1340.5 1871.91 1343.2 1875.6 Q1345.94 1879.26 1350.68 1879.26 Q1355.36 1879.26 1358.1 1875.57 Q1360.84 1871.87 1360.84 1865.51 Q1360.84 1859.68 1358.1 1855.8 Q1355.59 1852.3 1350.68 1852.3 M1350.68 1847.65 L1370.13 1847.65 L1370.13 1853.51 L1363.57 1853.51 Q1367.04 1858.47 1367.04 1865.51 Q1367.04 1874.26 1362.68 1879.23 Q1358.32 1884.22 1350.68 1884.22 Q1343.01 1884.22 1338.68 1879.23 Q1334.32 1874.26 1334.32 1865.51 Q1334.32 1856.69 1338.68 1851.76 Q1342.28 1847.65 1350.68 1847.65 Z" fill="#000000" fill-rule="nonzero" fill-opacity="1" /><path clip-path="url(#clip860)" d="M1405.27 1894.12 L1405.27 1898.67 L1371.4 1898.67 L1371.4 1894.12 L1405.27 1894.12 Z" fill="#000000" fill-rule="nonzero" fill-opacity="1" /><path clip-path="url(#clip860)" d="M1424.59 1851.76 Q1419.88 1851.76 1417.14 1855.45 Q1414.4 1859.11 1414.4 1865.51 Q1414.4 1871.91 1417.11 1875.6 Q1419.85 1879.26 1424.59 1879.26 Q1429.27 1879.26 1432.01 1875.57 Q1434.74 1871.87 1434.74 1865.51 Q1434.74 1859.17 1432.01 1855.48 Q1429.27 1851.76 1424.59 1851.76 M1424.59 1846.79 Q1432.23 1846.79 1436.59 1851.76 Q1440.95 1856.72 1440.95 1865.51 Q1440.95 1874.26 1436.59 1879.26 Q1432.23 1884.22 1424.59 1884.22 Q1416.92 1884.22 1412.56 1879.26 Q1408.23 1874.26 1408.23 1865.51 Q1408.23 1856.72 1412.56 1851.76 Q1416.92 1846.79 1424.59 1846.79 Z" fill="#000000" fill-rule="nonzero" fill-opacity="1" /><path clip-path="url(#clip860)" d="M1476.25 1865.51 Q1476.25 1859.05 1473.57 1855.39 Q1470.93 1851.7 1466.29 1851.7 Q1461.64 1851.7 1458.96 1855.39 Q1456.32 1859.05 1456.32 1865.51 Q1456.32 1871.97 1458.96 1875.66 Q1461.64 1879.32 1466.29 1879.32 Q1470.93 1879.32 1473.57 1875.66 Q1476.25 1871.97 1476.25 1865.51 M1456.32 1853.06 Q1458.17 1849.88 1460.97 1848.35 Q1463.8 1846.79 1467.72 1846.79 Q1474.21 1846.79 1478.25 1851.95 Q1482.33 1857.11 1482.33 1865.51 Q1482.33 1873.91 1478.25 1879.07 Q1474.21 1884.22 1467.72 1884.22 Q1463.8 1884.22 1460.97 1882.7 Q1458.17 1881.14 1456.32 1877.95 L1456.32 1883.3 L1450.43 1883.3 L1450.43 1833.78 L1456.32 1833.78 L1456.32 1853.06 Z" fill="#000000" fill-rule="nonzero" fill-opacity="1" /><path clip-path="url(#clip860)" d="M1514.76 1848.7 L1514.76 1854.24 Q1512.28 1852.97 1509.6 1852.33 Q1506.93 1851.7 1504.07 1851.7 Q1499.71 1851.7 1497.51 1853.03 Q1495.34 1854.37 1495.34 1857.04 Q1495.34 1859.08 1496.9 1860.26 Q1498.46 1861.4 1503.17 1862.45 L1505.18 1862.9 Q1511.42 1864.24 1514.03 1866.69 Q1516.67 1869.11 1516.67 1873.47 Q1516.67 1878.43 1512.72 1881.33 Q1508.81 1884.22 1501.93 1884.22 Q1499.07 1884.22 1495.95 1883.65 Q1492.86 1883.11 1489.42 1882 L1489.42 1875.95 Q1492.67 1877.64 1495.82 1878.49 Q1498.97 1879.32 1502.06 1879.32 Q1506.2 1879.32 1508.43 1877.92 Q1510.65 1876.49 1510.65 1873.91 Q1510.65 1871.52 1509.03 1870.25 Q1507.44 1868.98 1502 1867.8 L1499.96 1867.32 Q1494.52 1866.18 1492.1 1863.82 Q1489.68 1861.43 1489.68 1857.3 Q1489.68 1852.27 1493.24 1849.53 Q1496.81 1846.79 1503.37 1846.79 Q1506.61 1846.79 1509.48 1847.27 Q1512.34 1847.75 1514.76 1848.7 Z" fill="#000000" fill-rule="nonzero" fill-opacity="1" /><polyline clip-path="url(#clip860)" style="stroke:#000000; stroke-linecap:round; stroke-linejoin:round; stroke-width:4; stroke-opacity:1; fill:none" points="210.238,1734.12 210.238,127.792 "/>
<polyline clip-path="url(#clip860)" style="stroke:#000000; stroke-linecap:round; stroke-linejoin:round; stroke-width:4; stroke-opacity:1; fill:none" points="210.238,1734.12 229.135,1734.12 "/>
<polyline clip-path="url(#clip860)" style="stroke:#000000; stroke-linecap:round; stroke-linejoin:round; stroke-width:4; stroke-opacity:1; fill:none" points="210.238,1420.99 229.135,1420.99 "/>
<polyline clip-path="url(#clip860)" style="stroke:#000000; stroke-linecap:round; stroke-linejoin:round; stroke-width:4; stroke-opacity:1; fill:none" points="210.238,1107.87 229.135,1107.87 "/>
<polyline clip-path="url(#clip860)" style="stroke:#000000; stroke-linecap:round; stroke-linejoin:round; stroke-width:4; stroke-opacity:1; fill:none" points="210.238,794.746 229.135,794.746 "/>
<polyline clip-path="url(#clip860)" style="stroke:#000000; stroke-linecap:round; stroke-linejoin:round; stroke-width:4; stroke-opacity:1; fill:none" points="210.238,481.622 229.135,481.622 "/>
<polyline clip-path="url(#clip860)" style="stroke:#000000; stroke-linecap:round; stroke-linejoin:round; stroke-width:4; stroke-opacity:1; fill:none" points="210.238,168.498 229.135,168.498 "/>
<path clip-path="url(#clip860)" d="M157.973 1719.92 Q154.362 1719.92 152.534 1723.48 Q150.728 1727.02 150.728 1734.15 Q150.728 1741.26 152.534 1744.82 Q154.362 1748.36 157.973 1748.36 Q161.608 1748.36 163.413 1744.82 Q165.242 1741.26 165.242 1734.15 Q165.242 1727.02 163.413 1723.48 Q161.608 1719.92 157.973 1719.92 M157.973 1716.21 Q163.784 1716.21 166.839 1720.82 Q169.918 1725.4 169.918 1734.15 Q169.918 1742.88 166.839 1747.48 Q163.784 1752.07 157.973 1752.07 Q152.163 1752.07 149.085 1747.48 Q146.029 1742.88 146.029 1734.15 Q146.029 1725.4 149.085 1720.82 Q152.163 1716.21 157.973 1716.21 Z" fill="#000000" fill-rule="nonzero" fill-opacity="1" /><path clip-path="url(#clip860)" d="M149.015 1403.71 L167.372 1403.71 L167.372 1407.65 L153.298 1407.65 L153.298 1416.12 Q154.316 1415.77 155.335 1415.61 Q156.353 1415.43 157.372 1415.43 Q163.159 1415.43 166.538 1418.6 Q169.918 1421.77 169.918 1427.19 Q169.918 1432.76 166.446 1435.87 Q162.973 1438.94 156.654 1438.94 Q154.478 1438.94 152.21 1438.57 Q149.964 1438.2 147.557 1437.46 L147.557 1432.76 Q149.64 1433.9 151.862 1434.45 Q154.085 1435.01 156.561 1435.01 Q160.566 1435.01 162.904 1432.9 Q165.242 1430.8 165.242 1427.19 Q165.242 1423.57 162.904 1421.47 Q160.566 1419.36 156.561 1419.36 Q154.686 1419.36 152.811 1419.78 Q150.96 1420.19 149.015 1421.07 L149.015 1403.71 Z" fill="#000000" fill-rule="nonzero" fill-opacity="1" /><path clip-path="url(#clip860)" d="M118.622 1121.21 L126.261 1121.21 L126.261 1094.85 L117.951 1096.52 L117.951 1092.26 L126.214 1090.59 L130.89 1090.59 L130.89 1121.21 L138.529 1121.21 L138.529 1125.15 L118.622 1125.15 L118.622 1121.21 Z" fill="#000000" fill-rule="nonzero" fill-opacity="1" /><path clip-path="url(#clip860)" d="M157.973 1093.67 Q154.362 1093.67 152.534 1097.23 Q150.728 1100.77 150.728 1107.9 Q150.728 1115.01 152.534 1118.58 Q154.362 1122.12 157.973 1122.12 Q161.608 1122.12 163.413 1118.58 Q165.242 1115.01 165.242 1107.9 Q165.242 1100.77 163.413 1097.23 Q161.608 1093.67 157.973 1093.67 M157.973 1089.96 Q163.784 1089.96 166.839 1094.57 Q169.918 1099.15 169.918 1107.9 Q169.918 1116.63 166.839 1121.24 Q163.784 1125.82 157.973 1125.82 Q152.163 1125.82 149.085 1121.24 Q146.029 1116.63 146.029 1107.9 Q146.029 1099.15 149.085 1094.57 Q152.163 1089.96 157.973 1089.96 Z" fill="#000000" fill-rule="nonzero" fill-opacity="1" /><path clip-path="url(#clip860)" d="M119.617 808.091 L127.256 808.091 L127.256 781.725 L118.946 783.392 L118.946 779.132 L127.21 777.466 L131.886 777.466 L131.886 808.091 L139.525 808.091 L139.525 812.026 L119.617 812.026 L119.617 808.091 Z" fill="#000000" fill-rule="nonzero" fill-opacity="1" /><path clip-path="url(#clip860)" d="M149.015 777.466 L167.372 777.466 L167.372 781.401 L153.298 781.401 L153.298 789.873 Q154.316 789.526 155.335 789.364 Q156.353 789.179 157.372 789.179 Q163.159 789.179 166.538 792.35 Q169.918 795.521 169.918 800.938 Q169.918 806.516 166.446 809.618 Q162.973 812.697 156.654 812.697 Q154.478 812.697 152.21 812.327 Q149.964 811.956 147.557 811.216 L147.557 806.516 Q149.64 807.651 151.862 808.206 Q154.085 808.762 156.561 808.762 Q160.566 808.762 162.904 806.655 Q165.242 804.549 165.242 800.938 Q165.242 797.327 162.904 795.22 Q160.566 793.114 156.561 793.114 Q154.686 793.114 152.811 793.53 Q150.96 793.947 149.015 794.827 L149.015 777.466 Z" fill="#000000" fill-rule="nonzero" fill-opacity="1" /><path clip-path="url(#clip860)" d="M121.839 494.967 L138.159 494.967 L138.159 498.902 L116.214 498.902 L116.214 494.967 Q118.876 492.212 123.46 487.583 Q128.066 482.93 129.247 481.587 Q131.492 479.064 132.372 477.328 Q133.275 475.569 133.275 473.879 Q133.275 471.124 131.33 469.388 Q129.409 467.652 126.307 467.652 Q124.108 467.652 121.654 468.416 Q119.224 469.18 116.446 470.731 L116.446 466.009 Q119.27 464.874 121.724 464.296 Q124.177 463.717 126.214 463.717 Q131.585 463.717 134.779 466.402 Q137.974 469.087 137.974 473.578 Q137.974 475.708 137.163 477.629 Q136.376 479.527 134.27 482.12 Q133.691 482.791 130.589 486.009 Q127.488 489.203 121.839 494.967 Z" fill="#000000" fill-rule="nonzero" fill-opacity="1" /><path clip-path="url(#clip860)" d="M157.973 467.421 Q154.362 467.421 152.534 470.985 Q150.728 474.527 150.728 481.657 Q150.728 488.763 152.534 492.328 Q154.362 495.87 157.973 495.87 Q161.608 495.87 163.413 492.328 Q165.242 488.763 165.242 481.657 Q165.242 474.527 163.413 470.985 Q161.608 467.421 157.973 467.421 M157.973 463.717 Q163.784 463.717 166.839 468.323 Q169.918 472.907 169.918 481.657 Q169.918 490.383 166.839 494.99 Q163.784 499.573 157.973 499.573 Q152.163 499.573 149.085 494.99 Q146.029 490.383 146.029 481.657 Q146.029 472.907 149.085 468.323 Q152.163 463.717 157.973 463.717 Z" fill="#000000" fill-rule="nonzero" fill-opacity="1" /><path clip-path="url(#clip860)" d="M122.835 181.843 L139.154 181.843 L139.154 185.778 L117.21 185.778 L117.21 181.843 Q119.872 179.088 124.455 174.459 Q129.062 169.806 130.242 168.463 Q132.488 165.94 133.367 164.204 Q134.27 162.445 134.27 160.755 Q134.27 158.001 132.325 156.264 Q130.404 154.528 127.302 154.528 Q125.103 154.528 122.65 155.292 Q120.219 156.056 117.441 157.607 L117.441 152.885 Q120.265 151.751 122.719 151.172 Q125.173 150.593 127.21 150.593 Q132.58 150.593 135.775 153.278 Q138.969 155.964 138.969 160.454 Q138.969 162.584 138.159 164.505 Q137.372 166.403 135.265 168.996 Q134.687 169.667 131.585 172.885 Q128.483 176.079 122.835 181.843 Z" fill="#000000" fill-rule="nonzero" fill-opacity="1" /><path clip-path="url(#clip860)" d="M149.015 151.218 L167.372 151.218 L167.372 155.153 L153.298 155.153 L153.298 163.626 Q154.316 163.278 155.335 163.116 Q156.353 162.931 157.372 162.931 Q163.159 162.931 166.538 166.102 Q169.918 169.274 169.918 174.69 Q169.918 180.269 166.446 183.371 Q162.973 186.45 156.654 186.45 Q154.478 186.45 152.21 186.079 Q149.964 185.709 147.557 184.968 L147.557 180.269 Q149.64 181.403 151.862 181.959 Q154.085 182.514 156.561 182.514 Q160.566 182.514 162.904 180.408 Q165.242 178.301 165.242 174.69 Q165.242 171.079 162.904 168.973 Q160.566 166.866 156.561 166.866 Q154.686 166.866 152.811 167.283 Q150.96 167.7 149.015 168.579 L149.015 151.218 Z" fill="#000000" fill-rule="nonzero" fill-opacity="1" /><path clip-path="url(#clip860)" d="M31.4013 1021.68 L12.1132 1021.68 L12.1132 1015.83 L61.6384 1015.83 L61.6384 1021.68 L56.2912 1021.68 Q59.4741 1023.53 61.0337 1026.36 Q62.5615 1029.16 62.5615 1033.11 Q62.5615 1039.57 57.4052 1043.64 Q52.249 1047.69 43.8463 1047.69 Q35.4436 1047.69 30.2873 1043.64 Q25.1311 1039.57 25.1311 1033.11 Q25.1311 1029.16 26.6907 1026.36 Q28.2185 1023.53 31.4013 1021.68 M43.8463 1041.64 Q50.3075 1041.64 53.9996 1039 Q57.6599 1036.32 57.6599 1031.68 Q57.6599 1027.03 53.9996 1024.36 Q50.3075 1021.68 43.8463 1021.68 Q37.3851 1021.68 33.7248 1024.36 Q30.0327 1027.03 30.0327 1031.68 Q30.0327 1036.32 33.7248 1039 Q37.3851 1041.64 43.8463 1041.64 Z" fill="#000000" fill-rule="nonzero" fill-opacity="1" /><path clip-path="url(#clip860)" d="M42.3504 973.271 L45.2149 973.271 L45.2149 1000.2 Q51.2623 999.816 54.4452 996.569 Q57.5962 993.291 57.5962 987.466 Q57.5962 984.092 56.7687 980.941 Q55.9411 977.758 54.2861 974.639 L59.8242 974.639 Q61.161 977.79 61.8612 981.1 Q62.5615 984.411 62.5615 987.816 Q62.5615 996.346 57.5962 1001.34 Q52.631 1006.31 44.1646 1006.31 Q35.4117 1006.31 30.2873 1001.6 Q25.1311 996.856 25.1311 988.835 Q25.1311 981.641 29.7781 977.472 Q34.3932 973.271 42.3504 973.271 M40.6316 979.127 Q35.8255 979.191 32.9609 981.832 Q30.0964 984.442 30.0964 988.771 Q30.0964 993.673 32.8654 996.633 Q35.6345 999.561 40.6634 1000.01 L40.6316 979.127 Z" fill="#000000" fill-rule="nonzero" fill-opacity="1" /><path clip-path="url(#clip860)" d="M40.1224 934.026 L61.6384 934.026 L61.6384 939.882 L40.3133 939.882 Q35.2526 939.882 32.7381 941.856 Q30.2237 943.829 30.2237 947.776 Q30.2237 952.518 33.2474 955.256 Q36.2711 957.993 41.491 957.993 L61.6384 957.993 L61.6384 963.881 L25.9905 963.881 L25.9905 957.993 L31.5287 957.993 Q28.314 955.892 26.7225 953.059 Q25.1311 950.195 25.1311 946.471 Q25.1311 940.328 28.9505 937.177 Q32.7381 934.026 40.1224 934.026 Z" fill="#000000" fill-rule="nonzero" fill-opacity="1" /><path clip-path="url(#clip860)" d="M27.0408 899.619 L32.579 899.619 Q31.3059 902.102 30.6693 904.776 Q30.0327 907.449 30.0327 910.314 Q30.0327 914.674 31.3695 916.87 Q32.7063 919.035 35.3799 919.035 Q37.4169 919.035 38.5946 917.475 Q39.7404 915.916 40.7908 911.205 L41.2364 909.2 Q42.5732 902.961 45.0239 900.351 Q47.4429 897.71 51.8034 897.71 Q56.7687 897.71 59.6651 901.656 Q62.5615 905.571 62.5615 912.446 Q62.5615 915.311 61.9886 918.43 Q61.4475 921.517 60.3335 924.955 L54.2861 924.955 Q55.973 921.708 56.8323 918.557 Q57.6599 915.406 57.6599 912.319 Q57.6599 908.181 56.2594 905.953 Q54.8271 903.725 52.249 903.725 Q49.8619 903.725 48.5887 905.349 Q47.3156 906.94 46.1379 912.383 L45.6605 914.42 Q44.5147 919.862 42.1594 922.281 Q39.7722 924.7 35.6345 924.7 Q30.6056 924.7 27.8684 921.135 Q25.1311 917.571 25.1311 911.014 Q25.1311 907.767 25.6085 904.903 Q26.086 902.038 27.0408 899.619 Z" fill="#000000" fill-rule="nonzero" fill-opacity="1" /><path clip-path="url(#clip860)" d="M25.9905 888.384 L25.9905 882.527 L61.6384 882.527 L61.6384 888.384 L25.9905 888.384 M12.1132 888.384 L12.1132 882.527 L19.5293 882.527 L19.5293 888.384 L12.1132 888.384 Z" fill="#000000" fill-rule="nonzero" fill-opacity="1" /><path clip-path="url(#clip860)" d="M15.869 864.481 L25.9905 864.481 L25.9905 852.418 L30.542 852.418 L30.542 864.481 L49.8937 864.481 Q54.2542 864.481 55.4955 863.303 Q56.7368 862.094 56.7368 858.433 L56.7368 852.418 L61.6384 852.418 L61.6384 858.433 Q61.6384 865.213 59.124 867.791 Q56.5777 870.369 49.8937 870.369 L30.542 870.369 L30.542 874.666 L25.9905 874.666 L25.9905 870.369 L15.869 870.369 L15.869 864.481 Z" fill="#000000" fill-rule="nonzero" fill-opacity="1" /><path clip-path="url(#clip860)" d="M64.9486 829.883 Q71.3143 832.366 73.2559 834.721 Q75.1974 837.076 75.1974 841.023 L75.1974 845.702 L70.2958 845.702 L70.2958 842.264 Q70.2958 839.845 69.15 838.509 Q68.0041 837.172 63.7391 835.549 L61.0655 834.498 L25.9905 848.917 L25.9905 842.71 L53.8723 831.57 L25.9905 820.43 L25.9905 814.223 L64.9486 829.883 Z" fill="#000000" fill-rule="nonzero" fill-opacity="1" /><path clip-path="url(#clip860)" d="M527.796 18.8205 L527.796 41.5461 L538.086 41.5461 Q543.797 41.5461 546.917 38.5889 Q550.036 35.6318 550.036 30.163 Q550.036 24.7348 546.917 21.7777 Q543.797 18.8205 538.086 18.8205 L527.796 18.8205 M519.613 12.096 L538.086 12.096 Q548.253 12.096 553.438 16.714 Q558.664 21.2916 558.664 30.163 Q558.664 39.1155 553.438 43.6931 Q548.253 48.2706 538.086 48.2706 L527.796 48.2706 L527.796 72.576 L519.613 72.576 L519.613 12.096 Z" fill="#000000" fill-rule="nonzero" fill-opacity="1" /><path clip-path="url(#clip860)" d="M583.942 32.4315 Q577.946 32.4315 574.463 37.1306 Q570.979 41.7891 570.979 49.9314 Q570.979 58.0738 574.422 62.7728 Q577.906 67.4314 583.942 67.4314 Q589.897 67.4314 593.38 62.7323 Q596.864 58.0333 596.864 49.9314 Q596.864 41.8701 593.38 37.1711 Q589.897 32.4315 583.942 32.4315 M583.942 26.1121 Q593.664 26.1121 599.214 32.4315 Q604.763 38.7509 604.763 49.9314 Q604.763 61.0714 599.214 67.4314 Q593.664 73.7508 583.942 73.7508 Q574.179 73.7508 568.629 67.4314 Q563.12 61.0714 563.12 49.9314 Q563.12 38.7509 568.629 32.4315 Q574.179 26.1121 583.942 26.1121 Z" fill="#000000" fill-rule="nonzero" fill-opacity="1" /><path clip-path="url(#clip860)" d="M646.042 28.5427 L646.042 35.5912 Q642.882 33.9709 639.48 33.1607 Q636.077 32.3505 632.431 32.3505 Q626.881 32.3505 624.086 34.0519 Q621.332 35.7533 621.332 39.156 Q621.332 41.7486 623.317 43.2475 Q625.302 44.7058 631.297 46.0426 L633.849 46.6097 Q641.789 48.3111 645.11 51.4303 Q648.473 54.509 648.473 60.0587 Q648.473 66.3781 643.45 70.0644 Q638.467 73.7508 629.717 73.7508 Q626.071 73.7508 622.101 73.0216 Q618.172 72.3329 613.797 70.9151 L613.797 63.2184 Q617.929 65.3654 621.939 66.4591 Q625.95 67.5124 629.879 67.5124 Q635.145 67.5124 637.981 65.73 Q640.816 63.9071 640.816 60.6258 Q640.816 57.5877 638.751 55.9673 Q636.725 54.3469 629.798 52.8481 L627.205 52.2405 Q620.278 50.7821 617.2 47.7845 Q614.121 44.7463 614.121 39.4801 Q614.121 33.0797 618.658 29.5959 Q623.195 26.1121 631.54 26.1121 Q635.672 26.1121 639.318 26.7198 Q642.963 27.3274 646.042 28.5427 Z" fill="#000000" fill-rule="nonzero" fill-opacity="1" /><path clip-path="url(#clip860)" d="M667.714 14.324 L667.714 27.2059 L683.067 27.2059 L683.067 32.9987 L667.714 32.9987 L667.714 57.6282 Q667.714 63.1779 669.213 64.7578 Q670.753 66.3376 675.411 66.3376 L683.067 66.3376 L683.067 72.576 L675.411 72.576 Q666.783 72.576 663.502 69.3758 Q660.22 66.1351 660.22 57.6282 L660.22 32.9987 L654.752 32.9987 L654.752 27.2059 L660.22 27.2059 L660.22 14.324 L667.714 14.324 Z" fill="#000000" fill-rule="nonzero" fill-opacity="1" /><path clip-path="url(#clip860)" d="M731.678 48.0275 L731.678 51.6733 L697.408 51.6733 Q697.894 59.3701 702.026 63.421 Q706.198 67.4314 713.611 67.4314 Q717.905 67.4314 721.916 66.3781 Q725.966 65.3249 729.936 63.2184 L729.936 70.267 Q725.926 71.9684 721.713 72.8596 Q717.5 73.7508 713.166 73.7508 Q702.309 73.7508 695.949 67.4314 Q689.63 61.1119 689.63 50.3365 Q689.63 39.1965 695.625 32.6746 Q701.661 26.1121 711.869 26.1121 Q721.024 26.1121 726.331 32.0264 Q731.678 37.9003 731.678 48.0275 M724.225 45.84 Q724.144 39.7232 720.781 36.0774 Q717.46 32.4315 711.95 32.4315 Q705.712 32.4315 701.945 35.9558 Q698.218 39.4801 697.651 45.8805 L724.225 45.84 Z" fill="#000000" fill-rule="nonzero" fill-opacity="1" /><path clip-path="url(#clip860)" d="M770.202 34.1734 Q768.947 33.4443 767.448 33.1202 Q765.989 32.7556 764.207 32.7556 Q757.888 32.7556 754.485 36.8875 Q751.123 40.9789 751.123 48.6757 L751.123 72.576 L743.628 72.576 L743.628 27.2059 L751.123 27.2059 L751.123 34.2544 Q753.472 30.1225 757.239 28.1376 Q761.007 26.1121 766.395 26.1121 Q767.164 26.1121 768.096 26.2337 Q769.028 26.3147 770.162 26.5172 L770.202 34.1734 Z" fill="#000000" fill-rule="nonzero" fill-opacity="1" /><path clip-path="url(#clip860)" d="M778.021 27.2059 L785.474 27.2059 L785.474 72.576 L778.021 72.576 L778.021 27.2059 M778.021 9.54393 L785.474 9.54393 L785.474 18.9825 L778.021 18.9825 L778.021 9.54393 Z" fill="#000000" fill-rule="nonzero" fill-opacity="1" /><path clip-path="url(#clip860)" d="M818.651 32.4315 Q812.656 32.4315 809.172 37.1306 Q805.688 41.7891 805.688 49.9314 Q805.688 58.0738 809.132 62.7728 Q812.615 67.4314 818.651 67.4314 Q824.606 67.4314 828.09 62.7323 Q831.574 58.0333 831.574 49.9314 Q831.574 41.8701 828.09 37.1711 Q824.606 32.4315 818.651 32.4315 M818.651 26.1121 Q828.373 26.1121 833.923 32.4315 Q839.473 38.7509 839.473 49.9314 Q839.473 61.0714 833.923 67.4314 Q828.373 73.7508 818.651 73.7508 Q808.888 73.7508 803.339 67.4314 Q797.83 61.0714 797.83 49.9314 Q797.83 38.7509 803.339 32.4315 Q808.888 26.1121 818.651 26.1121 Z" fill="#000000" fill-rule="nonzero" fill-opacity="1" /><path clip-path="url(#clip860)" d="M878.118 34.1734 Q876.863 33.4443 875.364 33.1202 Q873.906 32.7556 872.123 32.7556 Q865.804 32.7556 862.401 36.8875 Q859.039 40.9789 859.039 48.6757 L859.039 72.576 L851.545 72.576 L851.545 27.2059 L859.039 27.2059 L859.039 34.2544 Q861.388 30.1225 865.156 28.1376 Q868.923 26.1121 874.311 26.1121 Q875.08 26.1121 876.012 26.2337 Q876.944 26.3147 878.078 26.5172 L878.118 34.1734 Z" fill="#000000" fill-rule="nonzero" fill-opacity="1" /><path clip-path="url(#clip860)" d="M942.163 34.0924 L942.163 9.54393 L949.617 9.54393 L949.617 72.576 L942.163 72.576 L942.163 65.7705 Q939.814 69.8214 936.208 71.8063 Q932.644 73.7508 927.62 73.7508 Q919.397 73.7508 914.212 67.1883 Q909.067 60.6258 909.067 49.9314 Q909.067 39.2371 914.212 32.6746 Q919.397 26.1121 927.62 26.1121 Q932.644 26.1121 936.208 28.0971 Q939.814 30.0415 942.163 34.0924 M916.764 49.9314 Q916.764 58.1548 920.126 62.8538 Q923.529 67.5124 929.443 67.5124 Q935.358 67.5124 938.76 62.8538 Q942.163 58.1548 942.163 49.9314 Q942.163 41.7081 938.76 37.0496 Q935.358 32.3505 929.443 32.3505 Q923.529 32.3505 920.126 37.0496 Q916.764 41.7081 916.764 49.9314 Z" fill="#000000" fill-rule="nonzero" fill-opacity="1" /><path clip-path="url(#clip860)" d="M1003.78 48.0275 L1003.78 51.6733 L969.507 51.6733 Q969.993 59.3701 974.125 63.421 Q978.297 67.4314 985.71 67.4314 Q990.004 67.4314 994.015 66.3781 Q998.066 65.3249 1002.04 63.2184 L1002.04 70.267 Q998.025 71.9684 993.812 72.8596 Q989.599 73.7508 985.265 73.7508 Q974.408 73.7508 968.049 67.4314 Q961.729 61.1119 961.729 50.3365 Q961.729 39.1965 967.724 32.6746 Q973.76 26.1121 983.969 26.1121 Q993.124 26.1121 998.43 32.0264 Q1003.78 37.9003 1003.78 48.0275 M996.324 45.84 Q996.243 39.7232 992.881 36.0774 Q989.559 32.4315 984.05 32.4315 Q977.811 32.4315 974.044 35.9558 Q970.317 39.4801 969.75 45.8805 L996.324 45.84 Z" fill="#000000" fill-rule="nonzero" fill-opacity="1" /><path clip-path="url(#clip860)" d="M1053.73 45.1919 L1053.73 72.576 L1046.27 72.576 L1046.27 45.4349 Q1046.27 38.994 1043.76 35.7938 Q1041.25 32.5936 1036.23 32.5936 Q1030.19 32.5936 1026.71 36.4419 Q1023.22 40.2903 1023.22 46.9338 L1023.22 72.576 L1015.73 72.576 L1015.73 27.2059 L1023.22 27.2059 L1023.22 34.2544 Q1025.9 30.163 1029.5 28.1376 Q1033.15 26.1121 1037.89 26.1121 Q1045.7 26.1121 1049.71 30.9732 Q1053.73 35.7938 1053.73 45.1919 Z" fill="#000000" fill-rule="nonzero" fill-opacity="1" /><path clip-path="url(#clip860)" d="M1097.52 28.5427 L1097.52 35.5912 Q1094.36 33.9709 1090.95 33.1607 Q1087.55 32.3505 1083.9 32.3505 Q1078.35 32.3505 1075.56 34.0519 Q1072.8 35.7533 1072.8 39.156 Q1072.8 41.7486 1074.79 43.2475 Q1076.77 44.7058 1082.77 46.0426 L1085.32 46.6097 Q1093.26 48.3111 1096.58 51.4303 Q1099.95 54.509 1099.95 60.0587 Q1099.95 66.3781 1094.92 70.0644 Q1089.94 73.7508 1081.19 73.7508 Q1077.54 73.7508 1073.57 73.0216 Q1069.65 72.3329 1065.27 70.9151 L1065.27 63.2184 Q1069.4 65.3654 1073.41 66.4591 Q1077.42 67.5124 1081.35 67.5124 Q1086.62 67.5124 1089.45 65.73 Q1092.29 63.9071 1092.29 60.6258 Q1092.29 57.5877 1090.22 55.9673 Q1088.2 54.3469 1081.27 52.8481 L1078.68 52.2405 Q1071.75 50.7821 1068.67 47.7845 Q1065.59 44.7463 1065.59 39.4801 Q1065.59 33.0797 1070.13 29.5959 Q1074.67 26.1121 1083.01 26.1121 Q1087.15 26.1121 1090.79 26.7198 Q1094.44 27.3274 1097.52 28.5427 Z" fill="#000000" fill-rule="nonzero" fill-opacity="1" /><path clip-path="url(#clip860)" d="M1111.82 27.2059 L1119.27 27.2059 L1119.27 72.576 L1111.82 72.576 L1111.82 27.2059 M1111.82 9.54393 L1119.27 9.54393 L1119.27 18.9825 L1111.82 18.9825 L1111.82 9.54393 Z" fill="#000000" fill-rule="nonzero" fill-opacity="1" /><path clip-path="url(#clip860)" d="M1142.24 14.324 L1142.24 27.2059 L1157.59 27.2059 L1157.59 32.9987 L1142.24 32.9987 L1142.24 57.6282 Q1142.24 63.1779 1143.74 64.7578 Q1145.28 66.3376 1149.93 66.3376 L1157.59 66.3376 L1157.59 72.576 L1149.93 72.576 Q1141.31 72.576 1138.02 69.3758 Q1134.74 66.1351 1134.74 57.6282 L1134.74 32.9987 L1129.27 32.9987 L1129.27 27.2059 L1134.74 27.2059 L1134.74 14.324 L1142.24 14.324 Z" fill="#000000" fill-rule="nonzero" fill-opacity="1" /><path clip-path="url(#clip860)" d="M1186.27 76.7889 Q1183.11 84.8907 1180.11 87.3618 Q1177.12 89.8329 1172.09 89.8329 L1166.14 89.8329 L1166.14 83.5945 L1170.51 83.5945 Q1173.59 83.5945 1175.29 82.1361 Q1176.99 80.6778 1179.06 75.2496 L1180.4 71.8468 L1162.05 27.2059 L1169.95 27.2059 L1184.12 62.6918 L1198.3 27.2059 L1206.2 27.2059 L1186.27 76.7889 Z" fill="#000000" fill-rule="nonzero" fill-opacity="1" /><path clip-path="url(#clip860)" d="M1260.44 32.4315 Q1254.45 32.4315 1250.96 37.1306 Q1247.48 41.7891 1247.48 49.9314 Q1247.48 58.0738 1250.92 62.7728 Q1254.41 67.4314 1260.44 67.4314 Q1266.4 67.4314 1269.88 62.7323 Q1273.37 58.0333 1273.37 49.9314 Q1273.37 41.8701 1269.88 37.1711 Q1266.4 32.4315 1260.44 32.4315 M1260.44 26.1121 Q1270.16 26.1121 1275.71 32.4315 Q1281.26 38.7509 1281.26 49.9314 Q1281.26 61.0714 1275.71 67.4314 Q1270.16 73.7508 1260.44 73.7508 Q1250.68 73.7508 1245.13 67.4314 Q1239.62 61.0714 1239.62 49.9314 Q1239.62 38.7509 1245.13 32.4315 Q1250.68 26.1121 1260.44 26.1121 Z" fill="#000000" fill-rule="nonzero" fill-opacity="1" /><path clip-path="url(#clip860)" d="M1316.59 9.54393 L1316.59 15.7418 L1309.46 15.7418 Q1305.45 15.7418 1303.87 17.3622 Q1302.33 18.9825 1302.33 23.1955 L1302.33 27.2059 L1314.6 27.2059 L1314.6 32.9987 L1302.33 32.9987 L1302.33 72.576 L1294.83 72.576 L1294.83 32.9987 L1287.71 32.9987 L1287.71 27.2059 L1294.83 27.2059 L1294.83 24.0462 Q1294.83 16.471 1298.36 13.0277 Q1301.88 9.54393 1309.54 9.54393 L1316.59 9.54393 Z" fill="#000000" fill-rule="nonzero" fill-opacity="1" /><path clip-path="url(#clip860)" d="M1366.78 33.1202 Q1360.62 33.1202 1357.3 37.5762 Q1353.82 42.2347 1353.82 49.9314 Q1353.82 58.0738 1357.26 62.7728 Q1360.74 67.4314 1366.78 67.4314 Q1372.73 67.4314 1376.22 62.7323 Q1379.7 58.0333 1379.7 49.9314 Q1379.7 42.5183 1376.22 37.5762 Q1373.02 33.1202 1366.78 33.1202 M1366.78 27.2059 L1391.53 27.2059 L1391.53 34.6595 L1383.19 34.6595 Q1387.6 40.9789 1387.6 49.9314 Q1387.6 61.0714 1382.05 67.3908 Q1376.5 73.7508 1366.78 73.7508 Q1357.02 73.7508 1351.51 67.3908 Q1345.96 61.0714 1345.96 49.9314 Q1345.96 38.7104 1351.51 32.4315 Q1356.08 27.2059 1366.78 27.2059 Z" fill="#000000" fill-rule="nonzero" fill-opacity="1" /><path clip-path="url(#clip860)" d="M1436.25 86.3491 L1436.25 92.1419 L1393.15 92.1419 L1393.15 86.3491 L1436.25 86.3491 Z" fill="#000000" fill-rule="nonzero" fill-opacity="1" /><path clip-path="url(#clip860)" d="M1460.84 32.4315 Q1454.85 32.4315 1451.36 37.1306 Q1447.88 41.7891 1447.88 49.9314 Q1447.88 58.0738 1451.32 62.7728 Q1454.81 67.4314 1460.84 67.4314 Q1466.8 67.4314 1470.28 62.7323 Q1473.76 58.0333 1473.76 49.9314 Q1473.76 41.8701 1470.28 37.1711 Q1466.8 32.4315 1460.84 32.4315 M1460.84 26.1121 Q1470.56 26.1121 1476.11 32.4315 Q1481.66 38.7509 1481.66 49.9314 Q1481.66 61.0714 1476.11 67.4314 Q1470.56 73.7508 1460.84 73.7508 Q1451.08 73.7508 1445.53 67.4314 Q1440.02 61.0714 1440.02 49.9314 Q1440.02 38.7509 1445.53 32.4315 Q1451.08 26.1121 1460.84 26.1121 Z" fill="#000000" fill-rule="nonzero" fill-opacity="1" /><path clip-path="url(#clip860)" d="M1526.59 49.9314 Q1526.59 41.7081 1523.18 37.0496 Q1519.82 32.3505 1513.91 32.3505 Q1507.99 32.3505 1504.59 37.0496 Q1501.23 41.7081 1501.23 49.9314 Q1501.23 58.1548 1504.59 62.8538 Q1507.99 67.5124 1513.91 67.5124 Q1519.82 67.5124 1523.18 62.8538 Q1526.59 58.1548 1526.59 49.9314 M1501.23 34.0924 Q1503.58 30.0415 1507.14 28.0971 Q1510.75 26.1121 1515.73 26.1121 Q1523.99 26.1121 1529.14 32.6746 Q1534.32 39.2371 1534.32 49.9314 Q1534.32 60.6258 1529.14 67.1883 Q1523.99 73.7508 1515.73 73.7508 Q1510.75 73.7508 1507.14 71.8063 Q1503.58 69.8214 1501.23 65.7705 L1501.23 72.576 L1493.73 72.576 L1493.73 9.54393 L1501.23 9.54393 L1501.23 34.0924 Z" fill="#000000" fill-rule="nonzero" fill-opacity="1" /><path clip-path="url(#clip860)" d="M1575.6 28.5427 L1575.6 35.5912 Q1572.44 33.9709 1569.04 33.1607 Q1565.64 32.3505 1561.99 32.3505 Q1556.44 32.3505 1553.65 34.0519 Q1550.89 35.7533 1550.89 39.156 Q1550.89 41.7486 1552.88 43.2475 Q1554.86 44.7058 1560.86 46.0426 L1563.41 46.6097 Q1571.35 48.3111 1574.67 51.4303 Q1578.03 54.509 1578.03 60.0587 Q1578.03 66.3781 1573.01 70.0644 Q1568.03 73.7508 1559.28 73.7508 Q1555.63 73.7508 1551.66 73.0216 Q1547.73 72.3329 1543.36 70.9151 L1543.36 63.2184 Q1547.49 65.3654 1551.5 66.4591 Q1555.51 67.5124 1559.44 67.5124 Q1564.71 67.5124 1567.54 65.73 Q1570.38 63.9071 1570.38 60.6258 Q1570.38 57.5877 1568.31 55.9673 Q1566.29 54.3469 1559.36 52.8481 L1556.77 52.2405 Q1549.84 50.7821 1546.76 47.7845 Q1543.68 44.7463 1543.68 39.4801 Q1543.68 33.0797 1548.22 29.5959 Q1552.76 26.1121 1561.1 26.1121 Q1565.23 26.1121 1568.88 26.7198 Q1572.52 27.3274 1575.6 28.5427 Z" fill="#000000" fill-rule="nonzero" fill-opacity="1" /><path clip-path="url(#clip860)" d="M1634.18 9.62495 Q1628.75 18.942 1626.12 28.0566 Q1623.48 37.1711 1623.48 46.5287 Q1623.48 55.8863 1626.12 65.0818 Q1628.79 74.2369 1634.18 83.5134 L1627.7 83.5134 Q1621.62 73.9938 1618.58 64.7983 Q1615.59 55.6027 1615.59 46.5287 Q1615.59 37.4952 1618.58 28.3401 Q1621.58 19.1851 1627.7 9.62495 L1634.18 9.62495 Z" fill="#000000" fill-rule="nonzero" fill-opacity="1" /><path clip-path="url(#clip860)" d="M1690.2 63.9476 L1690.2 47.7034 L1676.84 47.7034 L1676.84 40.9789 L1698.31 40.9789 L1698.31 66.9452 Q1693.57 70.3075 1687.85 72.0494 Q1682.14 73.7508 1675.66 73.7508 Q1661.48 73.7508 1653.46 65.4869 Q1645.48 57.1826 1645.48 42.3968 Q1645.48 27.5705 1653.46 19.3066 Q1661.48 11.0023 1675.66 11.0023 Q1681.57 11.0023 1686.88 12.4606 Q1692.23 13.9189 1696.73 16.7545 L1696.73 25.464 Q1692.19 21.6156 1687.08 19.6712 Q1681.98 17.7268 1676.35 17.7268 Q1665.25 17.7268 1659.66 23.9246 Q1654.11 30.1225 1654.11 42.3968 Q1654.11 54.6305 1659.66 60.8284 Q1665.25 67.0263 1676.35 67.0263 Q1680.68 67.0263 1684.09 66.2971 Q1687.49 65.5274 1690.2 63.9476 Z" fill="#000000" fill-rule="nonzero" fill-opacity="1" /><path clip-path="url(#clip860)" d="M1733.55 49.7694 Q1724.51 49.7694 1721.03 51.8354 Q1717.55 53.9013 1717.55 58.8839 Q1717.55 62.8538 1720.14 65.2034 Q1722.77 67.5124 1727.27 67.5124 Q1733.47 67.5124 1737.19 63.1374 Q1740.96 58.7219 1740.96 51.4303 L1740.96 49.7694 L1733.55 49.7694 M1748.41 46.6907 L1748.41 72.576 L1740.96 72.576 L1740.96 65.6895 Q1738.41 69.8214 1734.6 71.8063 Q1730.79 73.7508 1725.28 73.7508 Q1718.32 73.7508 1714.18 69.8619 Q1710.09 65.9325 1710.09 59.3701 Q1710.09 51.7138 1715.2 47.825 Q1720.34 43.9361 1730.51 43.9361 L1740.96 43.9361 L1740.96 43.2069 Q1740.96 38.0623 1737.56 35.2672 Q1734.2 32.4315 1728.08 32.4315 Q1724.19 32.4315 1720.5 33.3632 Q1716.82 34.295 1713.41 36.1584 L1713.41 29.2718 Q1717.51 27.692 1721.35 26.9223 Q1725.2 26.1121 1728.85 26.1121 Q1738.69 26.1121 1743.55 31.2163 Q1748.41 36.3204 1748.41 46.6907 Z" fill="#000000" fill-rule="nonzero" fill-opacity="1" /><path clip-path="url(#clip860)" d="M1763 54.671 L1763 27.2059 L1770.45 27.2059 L1770.45 54.3874 Q1770.45 60.8284 1772.96 64.0691 Q1775.47 67.2693 1780.5 67.2693 Q1786.53 67.2693 1790.02 63.421 Q1793.54 59.5726 1793.54 52.9291 L1793.54 27.2059 L1801 27.2059 L1801 72.576 L1793.54 72.576 L1793.54 65.6084 Q1790.83 69.7404 1787.22 71.7658 Q1783.66 73.7508 1778.92 73.7508 Q1771.1 73.7508 1767.05 68.8897 Q1763 64.0286 1763 54.671 M1781.75 26.1121 L1781.75 26.1121 Z" fill="#000000" fill-rule="nonzero" fill-opacity="1" /><path clip-path="url(#clip860)" d="M1845.27 28.5427 L1845.27 35.5912 Q1842.11 33.9709 1838.71 33.1607 Q1835.31 32.3505 1831.66 32.3505 Q1826.11 32.3505 1823.32 34.0519 Q1820.56 35.7533 1820.56 39.156 Q1820.56 41.7486 1822.55 43.2475 Q1824.53 44.7058 1830.53 46.0426 L1833.08 46.6097 Q1841.02 48.3111 1844.34 51.4303 Q1847.7 54.509 1847.7 60.0587 Q1847.7 66.3781 1842.68 70.0644 Q1837.7 73.7508 1828.95 73.7508 Q1825.3 73.7508 1821.33 73.0216 Q1817.4 72.3329 1813.03 70.9151 L1813.03 63.2184 Q1817.16 65.3654 1821.17 66.4591 Q1825.18 67.5124 1829.11 67.5124 Q1834.37 67.5124 1837.21 65.73 Q1840.05 63.9071 1840.05 60.6258 Q1840.05 57.5877 1837.98 55.9673 Q1835.95 54.3469 1829.03 52.8481 L1826.44 52.2405 Q1819.51 50.7821 1816.43 47.7845 Q1813.35 44.7463 1813.35 39.4801 Q1813.35 33.0797 1817.89 29.5959 Q1822.42 26.1121 1830.77 26.1121 Q1834.9 26.1121 1838.55 26.7198 Q1842.19 27.3274 1845.27 28.5427 Z" fill="#000000" fill-rule="nonzero" fill-opacity="1" /><path clip-path="url(#clip860)" d="M1888.49 28.5427 L1888.49 35.5912 Q1885.34 33.9709 1881.93 33.1607 Q1878.53 32.3505 1874.88 32.3505 Q1869.33 32.3505 1866.54 34.0519 Q1863.78 35.7533 1863.78 39.156 Q1863.78 41.7486 1865.77 43.2475 Q1867.75 44.7058 1873.75 46.0426 L1876.3 46.6097 Q1884.24 48.3111 1887.56 51.4303 Q1890.93 54.509 1890.93 60.0587 Q1890.93 66.3781 1885.9 70.0644 Q1880.92 73.7508 1872.17 73.7508 Q1868.52 73.7508 1864.55 73.0216 Q1860.62 72.3329 1856.25 70.9151 L1856.25 63.2184 Q1860.38 65.3654 1864.39 66.4591 Q1868.4 67.5124 1872.33 67.5124 Q1877.6 67.5124 1880.43 65.73 Q1883.27 63.9071 1883.27 60.6258 Q1883.27 57.5877 1881.2 55.9673 Q1879.18 54.3469 1872.25 52.8481 L1869.66 52.2405 Q1862.73 50.7821 1859.65 47.7845 Q1856.57 44.7463 1856.57 39.4801 Q1856.57 33.0797 1861.11 29.5959 Q1865.65 26.1121 1873.99 26.1121 Q1878.12 26.1121 1881.77 26.7198 Q1885.42 27.3274 1888.49 28.5427 Z" fill="#000000" fill-rule="nonzero" fill-opacity="1" /><path clip-path="url(#clip860)" d="M1902.79 27.2059 L1910.25 27.2059 L1910.25 72.576 L1902.79 72.576 L1902.79 27.2059 M1902.79 9.54393 L1910.25 9.54393 L1910.25 18.9825 L1902.79 18.9825 L1902.79 9.54393 Z" fill="#000000" fill-rule="nonzero" fill-opacity="1" /><path clip-path="url(#clip860)" d="M1946.46 49.7694 Q1937.43 49.7694 1933.95 51.8354 Q1930.46 53.9013 1930.46 58.8839 Q1930.46 62.8538 1933.05 65.2034 Q1935.69 67.5124 1940.18 67.5124 Q1946.38 67.5124 1950.11 63.1374 Q1953.88 58.7219 1953.88 51.4303 L1953.88 49.7694 L1946.46 49.7694 M1961.33 46.6907 L1961.33 72.576 L1953.88 72.576 L1953.88 65.6895 Q1951.32 69.8214 1947.52 71.8063 Q1943.71 73.7508 1938.2 73.7508 Q1931.23 73.7508 1927.1 69.8619 Q1923.01 65.9325 1923.01 59.3701 Q1923.01 51.7138 1928.11 47.825 Q1933.26 43.9361 1943.43 43.9361 L1953.88 43.9361 L1953.88 43.2069 Q1953.88 38.0623 1950.47 35.2672 Q1947.11 32.4315 1940.99 32.4315 Q1937.11 32.4315 1933.42 33.3632 Q1929.73 34.295 1926.33 36.1584 L1926.33 29.2718 Q1930.42 27.692 1934.27 26.9223 Q1938.12 26.1121 1941.76 26.1121 Q1951.61 26.1121 1956.47 31.2163 Q1961.33 36.3204 1961.33 46.6907 Z" fill="#000000" fill-rule="nonzero" fill-opacity="1" /><path clip-path="url(#clip860)" d="M2014.4 45.1919 L2014.4 72.576 L2006.94 72.576 L2006.94 45.4349 Q2006.94 38.994 2004.43 35.7938 Q2001.92 32.5936 1996.9 32.5936 Q1990.86 32.5936 1987.38 36.4419 Q1983.89 40.2903 1983.89 46.9338 L1983.89 72.576 L1976.4 72.576 L1976.4 27.2059 L1983.89 27.2059 L1983.89 34.2544 Q1986.57 30.163 1990.17 28.1376 Q1993.82 26.1121 1998.56 26.1121 Q2006.38 26.1121 2010.39 30.9732 Q2014.4 35.7938 2014.4 45.1919 Z" fill="#000000" fill-rule="nonzero" fill-opacity="1" /><path clip-path="url(#clip860)" d="M2090.96 35.9153 Q2093.75 30.8922 2097.64 28.5022 Q2101.53 26.1121 2106.8 26.1121 Q2113.89 26.1121 2117.74 31.0947 Q2121.58 36.0368 2121.58 45.1919 L2121.58 72.576 L2114.09 72.576 L2114.09 45.4349 Q2114.09 38.913 2111.78 35.7533 Q2109.47 32.5936 2104.73 32.5936 Q2098.94 32.5936 2095.58 36.4419 Q2092.21 40.2903 2092.21 46.9338 L2092.21 72.576 L2084.72 72.576 L2084.72 45.4349 Q2084.72 38.8725 2082.41 35.7533 Q2080.1 32.5936 2075.28 32.5936 Q2069.57 32.5936 2066.21 36.4824 Q2062.85 40.3308 2062.85 46.9338 L2062.85 72.576 L2055.35 72.576 L2055.35 27.2059 L2062.85 27.2059 L2062.85 34.2544 Q2065.4 30.082 2068.96 28.0971 Q2072.53 26.1121 2077.43 26.1121 Q2082.37 26.1121 2085.81 28.6237 Q2089.3 31.1352 2090.96 35.9153 Z" fill="#000000" fill-rule="nonzero" fill-opacity="1" /><path clip-path="url(#clip860)" d="M2154.03 32.4315 Q2148.04 32.4315 2144.55 37.1306 Q2141.07 41.7891 2141.07 49.9314 Q2141.07 58.0738 2144.51 62.7728 Q2148 67.4314 2154.03 67.4314 Q2159.99 67.4314 2163.47 62.7323 Q2166.95 58.0333 2166.95 49.9314 Q2166.95 41.8701 2163.47 37.1711 Q2159.99 32.4315 2154.03 32.4315 M2154.03 26.1121 Q2163.75 26.1121 2169.3 32.4315 Q2174.85 38.7509 2174.85 49.9314 Q2174.85 61.0714 2169.3 67.4314 Q2163.75 73.7508 2154.03 73.7508 Q2144.27 73.7508 2138.72 67.4314 Q2133.21 61.0714 2133.21 49.9314 Q2133.21 38.7509 2138.72 32.4315 Q2144.27 26.1121 2154.03 26.1121 Z" fill="#000000" fill-rule="nonzero" fill-opacity="1" /><path clip-path="url(#clip860)" d="M2217.06 34.0924 L2217.06 9.54393 L2224.52 9.54393 L2224.52 72.576 L2217.06 72.576 L2217.06 65.7705 Q2214.71 69.8214 2211.11 71.8063 Q2207.54 73.7508 2202.52 73.7508 Q2194.3 73.7508 2189.11 67.1883 Q2183.97 60.6258 2183.97 49.9314 Q2183.97 39.2371 2189.11 32.6746 Q2194.3 26.1121 2202.52 26.1121 Q2207.54 26.1121 2211.11 28.0971 Q2214.71 30.0415 2217.06 34.0924 M2191.66 49.9314 Q2191.66 58.1548 2195.03 62.8538 Q2198.43 67.5124 2204.34 67.5124 Q2210.26 67.5124 2213.66 62.8538 Q2217.06 58.1548 2217.06 49.9314 Q2217.06 41.7081 2213.66 37.0496 Q2210.26 32.3505 2204.34 32.3505 Q2198.43 32.3505 2195.03 37.0496 Q2191.66 41.7081 2191.66 49.9314 Z" fill="#000000" fill-rule="nonzero" fill-opacity="1" /><path clip-path="url(#clip860)" d="M2278.68 48.0275 L2278.68 51.6733 L2244.41 51.6733 Q2244.89 59.3701 2249.03 63.421 Q2253.2 67.4314 2260.61 67.4314 Q2264.91 67.4314 2268.92 66.3781 Q2272.97 65.3249 2276.94 63.2184 L2276.94 70.267 Q2272.93 71.9684 2268.71 72.8596 Q2264.5 73.7508 2260.17 73.7508 Q2249.31 73.7508 2242.95 67.4314 Q2236.63 61.1119 2236.63 50.3365 Q2236.63 39.1965 2242.63 32.6746 Q2248.66 26.1121 2258.87 26.1121 Q2268.02 26.1121 2273.33 32.0264 Q2278.68 37.9003 2278.68 48.0275 M2271.22 45.84 Q2271.14 39.7232 2267.78 36.0774 Q2264.46 32.4315 2258.95 32.4315 Q2252.71 32.4315 2248.94 35.9558 Q2245.22 39.4801 2244.65 45.8805 L2271.22 45.84 Z" fill="#000000" fill-rule="nonzero" fill-opacity="1" /><path clip-path="url(#clip860)" d="M2290.91 9.54393 L2298.37 9.54393 L2298.37 72.576 L2290.91 72.576 L2290.91 9.54393 Z" fill="#000000" fill-rule="nonzero" fill-opacity="1" /><path clip-path="url(#clip860)" d="M2312.79 9.62495 L2319.27 9.62495 Q2325.34 19.1851 2328.34 28.3401 Q2331.38 37.4952 2331.38 46.5287 Q2331.38 55.6027 2328.34 64.7983 Q2325.34 73.9938 2319.27 83.5134 L2312.79 83.5134 Q2318.17 74.2369 2320.81 65.0818 Q2323.48 55.8863 2323.48 46.5287 Q2323.48 37.1711 2320.81 28.0566 Q2318.17 18.942 2312.79 9.62495 Z" fill="#000000" fill-rule="nonzero" fill-opacity="1" /><path clip-path="url(#clip861)" d="M343.921 1724.72 L343.921 1734.12 L430.447 1734.12 L430.447 1724.72 L343.921 1724.72 L343.921 1724.72  Z" fill="#4682b4" fill-rule="evenodd" fill-opacity="0.7"/>
<polyline clip-path="url(#clip861)" style="stroke:#000000; stroke-linecap:round; stroke-linejoin:round; stroke-width:4; stroke-opacity:0.7; fill:none" points="343.921,1724.72 343.921,1734.12 430.447,1734.12 430.447,1724.72 343.921,1724.72 "/>
<path clip-path="url(#clip861)" d="M430.447 1709.07 L430.447 1734.12 L516.973 1734.12 L516.973 1709.07 L430.447 1709.07 L430.447 1709.07  Z" fill="#4682b4" fill-rule="evenodd" fill-opacity="0.7"/>
<polyline clip-path="url(#clip861)" style="stroke:#000000; stroke-linecap:round; stroke-linejoin:round; stroke-width:4; stroke-opacity:0.7; fill:none" points="430.447,1709.07 430.447,1734.12 516.973,1734.12 516.973,1709.07 430.447,1709.07 "/>
<path clip-path="url(#clip861)" d="M516.973 1652.7 L516.973 1734.12 L603.499 1734.12 L603.499 1652.7 L516.973 1652.7 L516.973 1652.7  Z" fill="#4682b4" fill-rule="evenodd" fill-opacity="0.7"/>
<polyline clip-path="url(#clip861)" style="stroke:#000000; stroke-linecap:round; stroke-linejoin:round; stroke-width:4; stroke-opacity:0.7; fill:none" points="516.973,1652.7 516.973,1734.12 603.499,1734.12 603.499,1652.7 516.973,1652.7 "/>
<path clip-path="url(#clip861)" d="M603.499 1608.87 L603.499 1734.12 L690.025 1734.12 L690.025 1608.87 L603.499 1608.87 L603.499 1608.87  Z" fill="#4682b4" fill-rule="evenodd" fill-opacity="0.7"/>
<polyline clip-path="url(#clip861)" style="stroke:#000000; stroke-linecap:round; stroke-linejoin:round; stroke-width:4; stroke-opacity:0.7; fill:none" points="603.499,1608.87 603.499,1734.12 690.025,1734.12 690.025,1608.87 603.499,1608.87 "/>
<path clip-path="url(#clip861)" d="M690.025 1355.24 L690.025 1734.12 L776.551 1734.12 L776.551 1355.24 L690.025 1355.24 L690.025 1355.24  Z" fill="#4682b4" fill-rule="evenodd" fill-opacity="0.7"/>
<polyline clip-path="url(#clip861)" style="stroke:#000000; stroke-linecap:round; stroke-linejoin:round; stroke-width:4; stroke-opacity:0.7; fill:none" points="690.025,1355.24 690.025,1734.12 776.551,1734.12 776.551,1355.24 690.025,1355.24 "/>
<path clip-path="url(#clip861)" d="M776.551 1233.12 L776.551 1734.12 L863.077 1734.12 L863.077 1233.12 L776.551 1233.12 L776.551 1233.12  Z" fill="#4682b4" fill-rule="evenodd" fill-opacity="0.7"/>
<polyline clip-path="url(#clip861)" style="stroke:#000000; stroke-linecap:round; stroke-linejoin:round; stroke-width:4; stroke-opacity:0.7; fill:none" points="776.551,1233.12 776.551,1734.12 863.077,1734.12 863.077,1233.12 776.551,1233.12 "/>
<path clip-path="url(#clip861)" d="M863.077 926.258 L863.077 1734.12 L949.603 1734.12 L949.603 926.258 L863.077 926.258 L863.077 926.258  Z" fill="#4682b4" fill-rule="evenodd" fill-opacity="0.7"/>
<polyline clip-path="url(#clip861)" style="stroke:#000000; stroke-linecap:round; stroke-linejoin:round; stroke-width:4; stroke-opacity:0.7; fill:none" points="863.077,926.258 863.077,1734.12 949.603,1734.12 949.603,926.258 863.077,926.258 "/>
<path clip-path="url(#clip861)" d="M949.603 594.347 L949.603 1734.12 L1036.13 1734.12 L1036.13 594.347 L949.603 594.347 L949.603 594.347  Z" fill="#4682b4" fill-rule="evenodd" fill-opacity="0.7"/>
<polyline clip-path="url(#clip861)" style="stroke:#000000; stroke-linecap:round; stroke-linejoin:round; stroke-width:4; stroke-opacity:0.7; fill:none" points="949.603,594.347 949.603,1734.12 1036.13,1734.12 1036.13,594.347 949.603,594.347 "/>
<path clip-path="url(#clip861)" d="M1036.13 293.748 L1036.13 1734.12 L1122.66 1734.12 L1122.66 293.748 L1036.13 293.748 L1036.13 293.748  Z" fill="#4682b4" fill-rule="evenodd" fill-opacity="0.7"/>
<polyline clip-path="url(#clip861)" style="stroke:#000000; stroke-linecap:round; stroke-linejoin:round; stroke-width:4; stroke-opacity:0.7; fill:none" points="1036.13,293.748 1036.13,1734.12 1122.66,1734.12 1122.66,293.748 1036.13,293.748 "/>
<path clip-path="url(#clip861)" d="M1122.66 199.811 L1122.66 1734.12 L1209.18 1734.12 L1209.18 199.811 L1122.66 199.811 L1122.66 199.811  Z" fill="#4682b4" fill-rule="evenodd" fill-opacity="0.7"/>
<polyline clip-path="url(#clip861)" style="stroke:#000000; stroke-linecap:round; stroke-linejoin:round; stroke-width:4; stroke-opacity:0.7; fill:none" points="1122.66,199.811 1122.66,1734.12 1209.18,1734.12 1209.18,199.811 1122.66,199.811 "/>
<path clip-path="url(#clip861)" d="M1209.18 127.792 L1209.18 1734.12 L1295.71 1734.12 L1295.71 127.792 L1209.18 127.792 L1209.18 127.792  Z" fill="#4682b4" fill-rule="evenodd" fill-opacity="0.7"/>
<polyline clip-path="url(#clip861)" style="stroke:#000000; stroke-linecap:round; stroke-linejoin:round; stroke-width:4; stroke-opacity:0.7; fill:none" points="1209.18,127.792 1209.18,1734.12 1295.71,1734.12 1295.71,127.792 1209.18,127.792 "/>
<path clip-path="url(#clip861)" d="M1295.71 403.341 L1295.71 1734.12 L1382.23 1734.12 L1382.23 403.341 L1295.71 403.341 L1295.71 403.341  Z" fill="#4682b4" fill-rule="evenodd" fill-opacity="0.7"/>
<polyline clip-path="url(#clip861)" style="stroke:#000000; stroke-linecap:round; stroke-linejoin:round; stroke-width:4; stroke-opacity:0.7; fill:none" points="1295.71,403.341 1295.71,1734.12 1382.23,1734.12 1382.23,403.341 1295.71,403.341 "/>
<path clip-path="url(#clip861)" d="M1382.23 569.297 L1382.23 1734.12 L1468.76 1734.12 L1468.76 569.297 L1382.23 569.297 L1382.23 569.297  Z" fill="#4682b4" fill-rule="evenodd" fill-opacity="0.7"/>
<polyline clip-path="url(#clip861)" style="stroke:#000000; stroke-linecap:round; stroke-linejoin:round; stroke-width:4; stroke-opacity:0.7; fill:none" points="1382.23,569.297 1382.23,1734.12 1468.76,1734.12 1468.76,569.297 1382.23,569.297 "/>
<path clip-path="url(#clip861)" d="M1468.76 916.864 L1468.76 1734.12 L1555.29 1734.12 L1555.29 916.864 L1468.76 916.864 L1468.76 916.864  Z" fill="#4682b4" fill-rule="evenodd" fill-opacity="0.7"/>
<polyline clip-path="url(#clip861)" style="stroke:#000000; stroke-linecap:round; stroke-linejoin:round; stroke-width:4; stroke-opacity:0.7; fill:none" points="1468.76,916.864 1468.76,1734.12 1555.29,1734.12 1555.29,916.864 1468.76,916.864 "/>
<path clip-path="url(#clip861)" d="M1555.29 1073.43 L1555.29 1734.12 L1641.81 1734.12 L1641.81 1073.43 L1555.29 1073.43 L1555.29 1073.43  Z" fill="#4682b4" fill-rule="evenodd" fill-opacity="0.7"/>
<polyline clip-path="url(#clip861)" style="stroke:#000000; stroke-linecap:round; stroke-linejoin:round; stroke-width:4; stroke-opacity:0.7; fill:none" points="1555.29,1073.43 1555.29,1734.12 1641.81,1734.12 1641.81,1073.43 1555.29,1073.43 "/>
<path clip-path="url(#clip861)" d="M1641.81 1330.19 L1641.81 1734.12 L1728.34 1734.12 L1728.34 1330.19 L1641.81 1330.19 L1641.81 1330.19  Z" fill="#4682b4" fill-rule="evenodd" fill-opacity="0.7"/>
<polyline clip-path="url(#clip861)" style="stroke:#000000; stroke-linecap:round; stroke-linejoin:round; stroke-width:4; stroke-opacity:0.7; fill:none" points="1641.81,1330.19 1641.81,1734.12 1728.34,1734.12 1728.34,1330.19 1641.81,1330.19 "/>
<path clip-path="url(#clip861)" d="M1728.34 1546.24 L1728.34 1734.12 L1814.86 1734.12 L1814.86 1546.24 L1728.34 1546.24 L1728.34 1546.24  Z" fill="#4682b4" fill-rule="evenodd" fill-opacity="0.7"/>
<polyline clip-path="url(#clip861)" style="stroke:#000000; stroke-linecap:round; stroke-linejoin:round; stroke-width:4; stroke-opacity:0.7; fill:none" points="1728.34,1546.24 1728.34,1734.12 1814.86,1734.12 1814.86,1546.24 1728.34,1546.24 "/>
<path clip-path="url(#clip861)" d="M1814.86 1583.82 L1814.86 1734.12 L1901.39 1734.12 L1901.39 1583.82 L1814.86 1583.82 L1814.86 1583.82  Z" fill="#4682b4" fill-rule="evenodd" fill-opacity="0.7"/>
<polyline clip-path="url(#clip861)" style="stroke:#000000; stroke-linecap:round; stroke-linejoin:round; stroke-width:4; stroke-opacity:0.7; fill:none" points="1814.86,1583.82 1814.86,1734.12 1901.39,1734.12 1901.39,1583.82 1814.86,1583.82 "/>
<path clip-path="url(#clip861)" d="M1901.39 1655.84 L1901.39 1734.12 L1987.92 1734.12 L1987.92 1655.84 L1901.39 1655.84 L1901.39 1655.84  Z" fill="#4682b4" fill-rule="evenodd" fill-opacity="0.7"/>
<polyline clip-path="url(#clip861)" style="stroke:#000000; stroke-linecap:round; stroke-linejoin:round; stroke-width:4; stroke-opacity:0.7; fill:none" points="1901.39,1655.84 1901.39,1734.12 1987.92,1734.12 1987.92,1655.84 1901.39,1655.84 "/>
<path clip-path="url(#clip861)" d="M1987.92 1693.41 L1987.92 1734.12 L2074.44 1734.12 L2074.44 1693.41 L1987.92 1693.41 L1987.92 1693.41  Z" fill="#4682b4" fill-rule="evenodd" fill-opacity="0.7"/>
<polyline clip-path="url(#clip861)" style="stroke:#000000; stroke-linecap:round; stroke-linejoin:round; stroke-width:4; stroke-opacity:0.7; fill:none" points="1987.92,1693.41 1987.92,1734.12 2074.44,1734.12 2074.44,1693.41 1987.92,1693.41 "/>
<path clip-path="url(#clip861)" d="M2074.44 1712.2 L2074.44 1734.12 L2160.97 1734.12 L2160.97 1712.2 L2074.44 1712.2 L2074.44 1712.2  Z" fill="#4682b4" fill-rule="evenodd" fill-opacity="0.7"/>
<polyline clip-path="url(#clip861)" style="stroke:#000000; stroke-linecap:round; stroke-linejoin:round; stroke-width:4; stroke-opacity:0.7; fill:none" points="2074.44,1712.2 2074.44,1734.12 2160.97,1734.12 2160.97,1712.2 2074.44,1712.2 "/>
<path clip-path="url(#clip861)" d="M2160.97 1724.72 L2160.97 1734.12 L2247.49 1734.12 L2247.49 1724.72 L2160.97 1724.72 L2160.97 1724.72  Z" fill="#4682b4" fill-rule="evenodd" fill-opacity="0.7"/>
<polyline clip-path="url(#clip861)" style="stroke:#000000; stroke-linecap:round; stroke-linejoin:round; stroke-width:4; stroke-opacity:0.7; fill:none" points="2160.97,1724.72 2160.97,1734.12 2247.49,1734.12 2247.49,1724.72 2160.97,1724.72 "/>
<path clip-path="url(#clip861)" d="M2247.49 1730.99 L2247.49 1734.12 L2334.02 1734.12 L2334.02 1730.99 L2247.49 1730.99 L2247.49 1730.99  Z" fill="#4682b4" fill-rule="evenodd" fill-opacity="0.7"/>
<polyline clip-path="url(#clip861)" style="stroke:#000000; stroke-linecap:round; stroke-linejoin:round; stroke-width:4; stroke-opacity:0.7; fill:none" points="2247.49,1730.99 2247.49,1734.12 2334.02,1734.12 2334.02,1730.99 2247.49,1730.99 "/>
<path clip-path="url(#clip861)" d="M2334.02 1734.12 L2334.02 1734.12 L2420.55 1734.12 L2420.55 1734.12 L2334.02 1734.12 L2334.02 1734.12  Z" fill="#4682b4" fill-rule="evenodd" fill-opacity="0.7"/>
<polyline clip-path="url(#clip861)" style="stroke:#000000; stroke-linecap:round; stroke-linejoin:round; stroke-width:4; stroke-opacity:0.7; fill:none" points="2334.02,1734.12 2334.02,1734.12 2420.55,1734.12 2334.02,1734.12 "/>
<path clip-path="url(#clip861)" d="M2420.55 1727.85 L2420.55 1734.12 L2507.07 1734.12 L2507.07 1727.85 L2420.55 1727.85 L2420.55 1727.85  Z" fill="#4682b4" fill-rule="evenodd" fill-opacity="0.7"/>
<polyline clip-path="url(#clip861)" style="stroke:#000000; stroke-linecap:round; stroke-linejoin:round; stroke-width:4; stroke-opacity:0.7; fill:none" points="2420.55,1727.85 2420.55,1734.12 2507.07,1734.12 2507.07,1727.85 2420.55,1727.85 "/>
<circle clip-path="url(#clip861)" style="fill:#4682b4; stroke:none; fill-opacity:0" cx="387.184" cy="1724.72" r="2"/>
<circle clip-path="url(#clip861)" style="fill:#4682b4; stroke:none; fill-opacity:0" cx="473.71" cy="1709.07" r="2"/>
<circle clip-path="url(#clip861)" style="fill:#4682b4; stroke:none; fill-opacity:0" cx="560.236" cy="1652.7" r="2"/>
<circle clip-path="url(#clip861)" style="fill:#4682b4; stroke:none; fill-opacity:0" cx="646.762" cy="1608.87" r="2"/>
<circle clip-path="url(#clip861)" style="fill:#4682b4; stroke:none; fill-opacity:0" cx="733.288" cy="1355.24" r="2"/>
<circle clip-path="url(#clip861)" style="fill:#4682b4; stroke:none; fill-opacity:0" cx="819.814" cy="1233.12" r="2"/>
<circle clip-path="url(#clip861)" style="fill:#4682b4; stroke:none; fill-opacity:0" cx="906.34" cy="926.258" r="2"/>
<circle clip-path="url(#clip861)" style="fill:#4682b4; stroke:none; fill-opacity:0" cx="992.866" cy="594.347" r="2"/>
<circle clip-path="url(#clip861)" style="fill:#4682b4; stroke:none; fill-opacity:0" cx="1079.39" cy="293.748" r="2"/>
<circle clip-path="url(#clip861)" style="fill:#4682b4; stroke:none; fill-opacity:0" cx="1165.92" cy="199.811" r="2"/>
<circle clip-path="url(#clip861)" style="fill:#4682b4; stroke:none; fill-opacity:0" cx="1338.97" cy="403.341" r="2"/>
<circle clip-path="url(#clip861)" style="fill:#4682b4; stroke:none; fill-opacity:0" cx="1425.5" cy="569.297" r="2"/>
<circle clip-path="url(#clip861)" style="fill:#4682b4; stroke:none; fill-opacity:0" cx="1512.02" cy="916.864" r="2"/>
<circle clip-path="url(#clip861)" style="fill:#4682b4; stroke:none; fill-opacity:0" cx="1598.55" cy="1073.43" r="2"/>
<circle clip-path="url(#clip861)" style="fill:#4682b4; stroke:none; fill-opacity:0" cx="1685.08" cy="1330.19" r="2"/>
<circle clip-path="url(#clip861)" style="fill:#4682b4; stroke:none; fill-opacity:0" cx="1771.6" cy="1546.24" r="2"/>
<circle clip-path="url(#clip861)" style="fill:#4682b4; stroke:none; fill-opacity:0" cx="1858.13" cy="1583.82" r="2"/>
<circle clip-path="url(#clip861)" style="fill:#4682b4; stroke:none; fill-opacity:0" cx="1944.65" cy="1655.84" r="2"/>
<circle clip-path="url(#clip861)" style="fill:#4682b4; stroke:none; fill-opacity:0" cx="2031.18" cy="1693.41" r="2"/>
<circle clip-path="url(#clip861)" style="fill:#4682b4; stroke:none; fill-opacity:0" cx="2117.71" cy="1712.2" r="2"/>
<circle clip-path="url(#clip861)" style="fill:#4682b4; stroke:none; fill-opacity:0" cx="2204.23" cy="1724.72" r="2"/>
<circle clip-path="url(#clip861)" style="fill:#4682b4; stroke:none; fill-opacity:0" cx="2290.76" cy="1730.99" r="2"/>
<circle clip-path="url(#clip861)" style="fill:#4682b4; stroke:none; fill-opacity:0" cx="2377.28" cy="1734.12" r="2"/>
<circle clip-path="url(#clip861)" style="fill:#4682b4; stroke:none; fill-opacity:0" cx="2463.81" cy="1727.85" r="2"/>
<polyline clip-path="url(#clip861)" style="stroke:#ff0000; stroke-linecap:round; stroke-linejoin:round; stroke-width:8; stroke-opacity:1; fill:none" points="1180.85,3340.44 1180.85,-1478.53 "/>
<path clip-path="url(#clip860)" d="M2015.35 336.856 L2559.74 336.856 L2559.74 181.336 L2015.35 181.336  Z" fill="#ffffff" fill-rule="evenodd" fill-opacity="1"/>
<polyline clip-path="url(#clip860)" style="stroke:#000000; stroke-linecap:round; stroke-linejoin:round; stroke-width:4; stroke-opacity:1; fill:none" points="2015.35,336.856 2559.74,336.856 2559.74,181.336 2015.35,181.336 2015.35,336.856 "/>
<path clip-path="url(#clip860)" d="M2042.35 253.912 L2204.39 253.912 L2204.39 212.44 L2042.35 212.44 L2042.35 253.912  Z" fill="#4682b4" fill-rule="evenodd" fill-opacity="0.7"/>
<polyline clip-path="url(#clip860)" style="stroke:#000000; stroke-linecap:round; stroke-linejoin:round; stroke-width:4; stroke-opacity:1; fill:none" points="2042.35,253.912 2204.39,253.912 2204.39,212.44 2042.35,212.44 2042.35,253.912 "/>
<path clip-path="url(#clip860)" d="M2235.67 246.567 L2235.67 260.317 L2231.39 260.317 L2231.39 224.531 L2235.67 224.531 L2235.67 228.466 Q2237.02 226.151 2239.05 225.04 Q2241.11 223.906 2243.96 223.906 Q2248.68 223.906 2251.62 227.655 Q2254.59 231.405 2254.59 237.517 Q2254.59 243.628 2251.62 247.378 Q2248.68 251.128 2243.96 251.128 Q2241.11 251.128 2239.05 250.016 Q2237.02 248.882 2235.67 246.567 M2250.16 237.517 Q2250.16 232.817 2248.22 230.155 Q2246.3 227.47 2242.92 227.47 Q2239.54 227.47 2237.6 230.155 Q2235.67 232.817 2235.67 237.517 Q2235.67 242.216 2237.6 244.901 Q2239.54 247.563 2242.92 247.563 Q2246.3 247.563 2248.22 244.901 Q2250.16 242.216 2250.16 237.517 Z" fill="#000000" fill-rule="nonzero" fill-opacity="1" /><path clip-path="url(#clip860)" d="M2271.69 227.517 Q2268.27 227.517 2266.28 230.202 Q2264.29 232.864 2264.29 237.517 Q2264.29 242.169 2266.25 244.854 Q2268.24 247.516 2271.69 247.516 Q2275.1 247.516 2277.09 244.831 Q2279.08 242.146 2279.08 237.517 Q2279.08 232.91 2277.09 230.225 Q2275.1 227.517 2271.69 227.517 M2271.69 223.906 Q2277.25 223.906 2280.42 227.517 Q2283.59 231.128 2283.59 237.517 Q2283.59 243.882 2280.42 247.516 Q2277.25 251.128 2271.69 251.128 Q2266.11 251.128 2262.94 247.516 Q2259.79 243.882 2259.79 237.517 Q2259.79 231.128 2262.94 227.517 Q2266.11 223.906 2271.69 223.906 Z" fill="#000000" fill-rule="nonzero" fill-opacity="1" /><path clip-path="url(#clip860)" d="M2307.18 225.294 L2307.18 229.322 Q2305.37 228.396 2303.43 227.933 Q2301.48 227.47 2299.4 227.47 Q2296.23 227.47 2294.63 228.443 Q2293.06 229.415 2293.06 231.359 Q2293.06 232.841 2294.19 233.697 Q2295.33 234.53 2298.75 235.294 L2300.21 235.618 Q2304.75 236.591 2306.65 238.373 Q2308.57 240.132 2308.57 243.304 Q2308.57 246.915 2305.7 249.021 Q2302.85 251.128 2297.85 251.128 Q2295.77 251.128 2293.5 250.711 Q2291.25 250.317 2288.75 249.507 L2288.75 245.109 Q2291.11 246.336 2293.41 246.961 Q2295.7 247.563 2297.94 247.563 Q2300.95 247.563 2302.57 246.544 Q2304.19 245.503 2304.19 243.628 Q2304.19 241.892 2303.01 240.966 Q2301.85 240.04 2297.9 239.183 L2296.41 238.836 Q2292.46 238.003 2290.7 236.29 Q2288.94 234.554 2288.94 231.544 Q2288.94 227.887 2291.53 225.896 Q2294.12 223.906 2298.89 223.906 Q2301.25 223.906 2303.34 224.253 Q2305.42 224.6 2307.18 225.294 Z" fill="#000000" fill-rule="nonzero" fill-opacity="1" /><path clip-path="url(#clip860)" d="M2319.56 217.169 L2319.56 224.531 L2328.34 224.531 L2328.34 227.841 L2319.56 227.841 L2319.56 241.915 Q2319.56 245.086 2320.42 245.989 Q2321.3 246.891 2323.96 246.891 L2328.34 246.891 L2328.34 250.456 L2323.96 250.456 Q2319.03 250.456 2317.16 248.628 Q2315.28 246.776 2315.28 241.915 L2315.28 227.841 L2312.16 227.841 L2312.16 224.531 L2315.28 224.531 L2315.28 217.169 L2319.56 217.169 Z" fill="#000000" fill-rule="nonzero" fill-opacity="1" /><path clip-path="url(#clip860)" d="M2356.11 236.429 L2356.11 238.512 L2336.53 238.512 Q2336.81 242.91 2339.17 245.225 Q2341.55 247.516 2345.79 247.516 Q2348.24 247.516 2350.53 246.915 Q2352.85 246.313 2355.12 245.109 L2355.12 249.137 Q2352.83 250.109 2350.42 250.618 Q2348.01 251.128 2345.53 251.128 Q2339.33 251.128 2335.7 247.516 Q2332.09 243.905 2332.09 237.748 Q2332.09 231.382 2335.51 227.655 Q2338.96 223.906 2344.79 223.906 Q2350.03 223.906 2353.06 227.285 Q2356.11 230.642 2356.11 236.429 M2351.85 235.179 Q2351.81 231.683 2349.89 229.6 Q2347.99 227.517 2344.84 227.517 Q2341.28 227.517 2339.12 229.53 Q2336.99 231.544 2336.67 235.202 L2351.85 235.179 Z" fill="#000000" fill-rule="nonzero" fill-opacity="1" /><path clip-path="url(#clip860)" d="M2378.13 228.512 Q2377.41 228.095 2376.55 227.91 Q2375.72 227.702 2374.7 227.702 Q2371.09 227.702 2369.15 230.063 Q2367.22 232.401 2367.22 236.799 L2367.22 250.456 L2362.94 250.456 L2362.94 224.531 L2367.22 224.531 L2367.22 228.558 Q2368.57 226.197 2370.72 225.063 Q2372.87 223.906 2375.95 223.906 Q2376.39 223.906 2376.92 223.975 Q2377.46 224.021 2378.1 224.137 L2378.13 228.512 Z" fill="#000000" fill-rule="nonzero" fill-opacity="1" /><path clip-path="url(#clip860)" d="M2382.59 224.531 L2386.85 224.531 L2386.85 250.456 L2382.59 250.456 L2382.59 224.531 M2382.59 214.438 L2386.85 214.438 L2386.85 219.831 L2382.59 219.831 L2382.59 214.438 Z" fill="#000000" fill-rule="nonzero" fill-opacity="1" /><path clip-path="url(#clip860)" d="M2405.81 227.517 Q2402.39 227.517 2400.4 230.202 Q2398.4 232.864 2398.4 237.517 Q2398.4 242.169 2400.37 244.854 Q2402.36 247.516 2405.81 247.516 Q2409.22 247.516 2411.21 244.831 Q2413.2 242.146 2413.2 237.517 Q2413.2 232.91 2411.21 230.225 Q2409.22 227.517 2405.81 227.517 M2405.81 223.906 Q2411.37 223.906 2414.54 227.517 Q2417.71 231.128 2417.71 237.517 Q2417.71 243.882 2414.54 247.516 Q2411.37 251.128 2405.81 251.128 Q2400.23 251.128 2397.06 247.516 Q2393.91 243.882 2393.91 237.517 Q2393.91 231.128 2397.06 227.517 Q2400.23 223.906 2405.81 223.906 Z" fill="#000000" fill-rule="nonzero" fill-opacity="1" /><path clip-path="url(#clip860)" d="M2439.79 228.512 Q2439.08 228.095 2438.22 227.91 Q2437.39 227.702 2436.37 227.702 Q2432.76 227.702 2430.81 230.063 Q2428.89 232.401 2428.89 236.799 L2428.89 250.456 L2424.61 250.456 L2424.61 224.531 L2428.89 224.531 L2428.89 228.558 Q2430.23 226.197 2432.39 225.063 Q2434.54 223.906 2437.62 223.906 Q2438.06 223.906 2438.59 223.975 Q2439.12 224.021 2439.77 224.137 L2439.79 228.512 Z" fill="#000000" fill-rule="nonzero" fill-opacity="1" /><polyline clip-path="url(#clip860)" style="stroke:#ff0000; stroke-linecap:round; stroke-linejoin:round; stroke-width:8; stroke-opacity:1; fill:none" points="2042.35,285.016 2204.39,285.016 "/>
<path clip-path="url(#clip860)" d="M2247.9 266.278 L2247.9 269.82 L2243.82 269.82 Q2241.53 269.82 2240.63 270.746 Q2239.75 271.671 2239.75 274.079 L2239.75 276.371 L2246.76 276.371 L2246.76 279.681 L2239.75 279.681 L2239.75 302.296 L2235.47 302.296 L2235.47 279.681 L2231.39 279.681 L2231.39 276.371 L2235.47 276.371 L2235.47 274.565 Q2235.47 270.236 2237.48 268.269 Q2239.49 266.278 2243.87 266.278 L2247.9 266.278 Z" fill="#000000" fill-rule="nonzero" fill-opacity="1" /><path clip-path="url(#clip860)" d="M2266.48 280.352 Q2265.77 279.935 2264.91 279.75 Q2264.08 279.542 2263.06 279.542 Q2259.45 279.542 2257.5 281.903 Q2255.58 284.241 2255.58 288.639 L2255.58 302.296 L2251.3 302.296 L2251.3 276.371 L2255.58 276.371 L2255.58 280.398 Q2256.92 278.037 2259.08 276.903 Q2261.23 275.746 2264.31 275.746 Q2264.75 275.746 2265.28 275.815 Q2265.81 275.861 2266.46 275.977 L2266.48 280.352 Z" fill="#000000" fill-rule="nonzero" fill-opacity="1" /><path clip-path="url(#clip860)" d="M2292.09 288.269 L2292.09 290.352 L2272.5 290.352 Q2272.78 294.75 2275.14 297.065 Q2277.53 299.356 2281.76 299.356 Q2284.22 299.356 2286.51 298.755 Q2288.82 298.153 2291.09 296.949 L2291.09 300.977 Q2288.8 301.949 2286.39 302.458 Q2283.98 302.968 2281.51 302.968 Q2275.3 302.968 2271.67 299.356 Q2268.06 295.745 2268.06 289.588 Q2268.06 283.222 2271.48 279.495 Q2274.93 275.746 2280.77 275.746 Q2286 275.746 2289.03 279.125 Q2292.09 282.482 2292.09 288.269 M2287.83 287.019 Q2287.78 283.523 2285.86 281.44 Q2283.96 279.357 2280.81 279.357 Q2277.25 279.357 2275.1 281.37 Q2272.97 283.384 2272.64 287.042 L2287.83 287.019 Z" fill="#000000" fill-rule="nonzero" fill-opacity="1" /><path clip-path="url(#clip860)" d="M2301.62 289.357 Q2301.62 294.056 2303.54 296.741 Q2305.49 299.403 2308.87 299.403 Q2312.25 299.403 2314.19 296.741 Q2316.14 294.056 2316.14 289.357 Q2316.14 284.657 2314.19 281.995 Q2312.25 279.31 2308.87 279.31 Q2305.49 279.31 2303.54 281.995 Q2301.62 284.657 2301.62 289.357 M2316.14 298.407 Q2314.79 300.722 2312.73 301.856 Q2310.7 302.968 2307.83 302.968 Q2303.13 302.968 2300.16 299.218 Q2297.22 295.468 2297.22 289.357 Q2297.22 283.245 2300.16 279.495 Q2303.13 275.746 2307.83 275.746 Q2310.7 275.746 2312.73 276.88 Q2314.79 277.991 2316.14 280.306 L2316.14 276.371 L2320.4 276.371 L2320.4 312.157 L2316.14 312.157 L2316.14 298.407 Z" fill="#000000" fill-rule="nonzero" fill-opacity="1" /><path clip-path="url(#clip860)" d="M2328.73 292.065 L2328.73 276.371 L2332.99 276.371 L2332.99 291.903 Q2332.99 295.583 2334.42 297.435 Q2335.86 299.264 2338.73 299.264 Q2342.18 299.264 2344.17 297.065 Q2346.18 294.866 2346.18 291.069 L2346.18 276.371 L2350.44 276.371 L2350.44 302.296 L2346.18 302.296 L2346.18 298.315 Q2344.63 300.676 2342.57 301.833 Q2340.53 302.968 2337.83 302.968 Q2333.36 302.968 2331.04 300.19 Q2328.73 297.412 2328.73 292.065 M2339.45 275.746 L2339.45 275.746 Z" fill="#000000" fill-rule="nonzero" fill-opacity="1" /><path clip-path="url(#clip860)" d="M2381.39 288.269 L2381.39 290.352 L2361.81 290.352 Q2362.09 294.75 2364.45 297.065 Q2366.83 299.356 2371.07 299.356 Q2373.52 299.356 2375.81 298.755 Q2378.13 298.153 2380.4 296.949 L2380.4 300.977 Q2378.1 301.949 2375.7 302.458 Q2373.29 302.968 2370.81 302.968 Q2364.61 302.968 2360.97 299.356 Q2357.36 295.745 2357.36 289.588 Q2357.36 283.222 2360.79 279.495 Q2364.24 275.746 2370.07 275.746 Q2375.3 275.746 2378.34 279.125 Q2381.39 282.482 2381.39 288.269 M2377.13 287.019 Q2377.09 283.523 2375.16 281.44 Q2373.27 279.357 2370.12 279.357 Q2366.55 279.357 2364.4 281.37 Q2362.27 283.384 2361.95 287.042 L2377.13 287.019 Z" fill="#000000" fill-rule="nonzero" fill-opacity="1" /><path clip-path="url(#clip860)" d="M2409.93 286.648 L2409.93 302.296 L2405.67 302.296 L2405.67 286.787 Q2405.67 283.107 2404.24 281.278 Q2402.8 279.449 2399.93 279.449 Q2396.48 279.449 2394.49 281.648 Q2392.5 283.847 2392.5 287.644 L2392.5 302.296 L2388.22 302.296 L2388.22 276.371 L2392.5 276.371 L2392.5 280.398 Q2394.03 278.06 2396.09 276.903 Q2398.17 275.746 2400.88 275.746 Q2405.35 275.746 2407.64 278.523 Q2409.93 281.278 2409.93 286.648 Z" fill="#000000" fill-rule="nonzero" fill-opacity="1" /><path clip-path="url(#clip860)" d="M2422.64 269.009 L2422.64 276.371 L2431.41 276.371 L2431.41 279.681 L2422.64 279.681 L2422.64 293.755 Q2422.64 296.926 2423.5 297.829 Q2424.38 298.731 2427.04 298.731 L2431.41 298.731 L2431.41 302.296 L2427.04 302.296 Q2422.11 302.296 2420.23 300.468 Q2418.36 298.616 2418.36 293.755 L2418.36 279.681 L2415.23 279.681 L2415.23 276.371 L2418.36 276.371 L2418.36 269.009 L2422.64 269.009 Z" fill="#000000" fill-rule="nonzero" fill-opacity="1" /><path clip-path="url(#clip860)" d="M2437.02 276.371 L2441.28 276.371 L2441.28 302.296 L2437.02 302.296 L2437.02 276.371 M2437.02 266.278 L2441.28 266.278 L2441.28 271.671 L2437.02 271.671 L2437.02 266.278 Z" fill="#000000" fill-rule="nonzero" fill-opacity="1" /><path clip-path="url(#clip860)" d="M2466.71 277.134 L2466.71 281.162 Q2464.91 280.236 2462.96 279.773 Q2461.02 279.31 2458.94 279.31 Q2455.77 279.31 2454.17 280.283 Q2452.59 281.255 2452.59 283.199 Q2452.59 284.681 2453.73 285.537 Q2454.86 286.37 2458.29 287.134 L2459.75 287.458 Q2464.28 288.431 2466.18 290.213 Q2468.1 291.972 2468.1 295.144 Q2468.1 298.755 2465.23 300.861 Q2462.39 302.968 2457.39 302.968 Q2455.3 302.968 2453.03 302.551 Q2450.79 302.157 2448.29 301.347 L2448.29 296.949 Q2450.65 298.176 2452.94 298.801 Q2455.23 299.403 2457.48 299.403 Q2460.49 299.403 2462.11 298.384 Q2463.73 297.343 2463.73 295.468 Q2463.73 293.732 2462.55 292.806 Q2461.39 291.88 2457.43 291.023 L2455.95 290.676 Q2451.99 289.843 2450.23 288.13 Q2448.47 286.394 2448.47 283.384 Q2448.47 279.727 2451.07 277.736 Q2453.66 275.746 2458.43 275.746 Q2460.79 275.746 2462.87 276.093 Q2464.96 276.44 2466.71 277.134 Z" fill="#000000" fill-rule="nonzero" fill-opacity="1" /><path clip-path="url(#clip860)" d="M2479.1 269.009 L2479.1 276.371 L2487.87 276.371 L2487.87 279.681 L2479.1 279.681 L2479.1 293.755 Q2479.1 296.926 2479.96 297.829 Q2480.84 298.731 2483.5 298.731 L2487.87 298.731 L2487.87 302.296 L2483.5 302.296 Q2478.57 302.296 2476.69 300.468 Q2474.82 298.616 2474.82 293.755 L2474.82 279.681 L2471.69 279.681 L2471.69 276.371 L2474.82 276.371 L2474.82 269.009 L2479.1 269.009 Z" fill="#000000" fill-rule="nonzero" fill-opacity="1" /><path clip-path="url(#clip860)" d="M2518.59 279.75 Q2515.07 279.75 2513.17 282.296 Q2511.18 284.958 2511.18 289.357 Q2511.18 294.009 2513.15 296.694 Q2515.14 299.356 2518.59 299.356 Q2521.99 299.356 2523.98 296.671 Q2525.97 293.986 2525.97 289.357 Q2525.97 285.12 2523.98 282.296 Q2522.15 279.75 2518.59 279.75 M2518.59 276.371 L2532.73 276.371 L2532.73 280.63 L2527.96 280.63 Q2530.49 284.241 2530.49 289.357 Q2530.49 295.722 2527.32 299.333 Q2524.14 302.968 2518.59 302.968 Q2513.01 302.968 2509.86 299.333 Q2506.69 295.722 2506.69 289.357 Q2506.69 282.945 2509.86 279.357 Q2512.48 276.371 2518.59 276.371 Z" fill="#000000" fill-rule="nonzero" fill-opacity="1" /></svg>
