<?xml version="1.0" encoding="utf-8"?>
<svg xmlns="http://www.w3.org/2000/svg" xmlns:xlink="http://www.w3.org/1999/xlink" width="672" height="480" viewBox="0 0 2688 1920">
<defs>
  <clipPath id="clip890">
    <rect x="0" y="0" width="2688" height="1920"/>
  </clipPath>
</defs>
<path clip-path="url(#clip890)" d="M0 1920 L2688 1920 L2688 -4.26326e-14 L0 -4.26326e-14  Z" fill="#ffffff" fill-rule="evenodd" fill-opacity="1"/>
<defs>
  <clipPath id="clip891">
    <rect x="208" y="127" width="2433" height="1607"/>
  </clipPath>
</defs>
<path clip-path="url(#clip890)" d="M208.409 1734.12 L2640.76 1734.12 L2640.76 127.792 L208.409 127.792  Z" fill="#ffffff" fill-rule="evenodd" fill-opacity="1"/>
<polyline clip-path="url(#clip891)" style="stroke:#000000; stroke-linecap:round; stroke-linejoin:round; stroke-width:2; stroke-opacity:0.1; fill:none" points="276.593,1734.12 276.593,127.792 "/>
<polyline clip-path="url(#clip891)" style="stroke:#000000; stroke-linecap:round; stroke-linejoin:round; stroke-width:2; stroke-opacity:0.1; fill:none" points="932.587,1734.12 932.587,127.792 "/>
<polyline clip-path="url(#clip891)" style="stroke:#000000; stroke-linecap:round; stroke-linejoin:round; stroke-width:2; stroke-opacity:0.1; fill:none" points="1588.58,1734.12 1588.58,127.792 "/>
<polyline clip-path="url(#clip891)" style="stroke:#000000; stroke-linecap:round; stroke-linejoin:round; stroke-width:2; stroke-opacity:0.1; fill:none" points="2244.57,1734.12 2244.57,127.792 "/>
<polyline clip-path="url(#clip891)" style="stroke:#000000; stroke-linecap:round; stroke-linejoin:round; stroke-width:2; stroke-opacity:0.1; fill:none" points="208.409,1734.12 2640.76,1734.12 "/>
<polyline clip-path="url(#clip891)" style="stroke:#000000; stroke-linecap:round; stroke-linejoin:round; stroke-width:2; stroke-opacity:0.1; fill:none" points="208.409,1466.4 2640.76,1466.4 "/>
<polyline clip-path="url(#clip891)" style="stroke:#000000; stroke-linecap:round; stroke-linejoin:round; stroke-width:2; stroke-opacity:0.1; fill:none" points="208.409,1198.68 2640.76,1198.68 "/>
<polyline clip-path="url(#clip891)" style="stroke:#000000; stroke-linecap:round; stroke-linejoin:round; stroke-width:2; stroke-opacity:0.1; fill:none" points="208.409,930.955 2640.76,930.955 "/>
<polyline clip-path="url(#clip891)" style="stroke:#000000; stroke-linecap:round; stroke-linejoin:round; stroke-width:2; stroke-opacity:0.1; fill:none" points="208.409,663.234 2640.76,663.234 "/>
<polyline clip-path="url(#clip891)" style="stroke:#000000; stroke-linecap:round; stroke-linejoin:round; stroke-width:2; stroke-opacity:0.1; fill:none" points="208.409,395.513 2640.76,395.513 "/>
<polyline clip-path="url(#clip891)" style="stroke:#000000; stroke-linecap:round; stroke-linejoin:round; stroke-width:2; stroke-opacity:0.1; fill:none" points="208.409,127.792 2640.76,127.792 "/>
<polyline clip-path="url(#clip890)" style="stroke:#000000; stroke-linecap:round; stroke-linejoin:round; stroke-width:4; stroke-opacity:1; fill:none" points="208.409,1734.12 2640.76,1734.12 "/>
<polyline clip-path="url(#clip890)" style="stroke:#000000; stroke-linecap:round; stroke-linejoin:round; stroke-width:4; stroke-opacity:1; fill:none" points="276.593,1734.12 276.593,1715.22 "/>
<polyline clip-path="url(#clip890)" style="stroke:#000000; stroke-linecap:round; stroke-linejoin:round; stroke-width:4; stroke-opacity:1; fill:none" points="932.587,1734.12 932.587,1715.22 "/>
<polyline clip-path="url(#clip890)" style="stroke:#000000; stroke-linecap:round; stroke-linejoin:round; stroke-width:4; stroke-opacity:1; fill:none" points="1588.58,1734.12 1588.58,1715.22 "/>
<polyline clip-path="url(#clip890)" style="stroke:#000000; stroke-linecap:round; stroke-linejoin:round; stroke-width:4; stroke-opacity:1; fill:none" points="2244.57,1734.12 2244.57,1715.22 "/>
<path clip-path="url(#clip890)" d="M208.04 1781.99 L237.716 1781.99 L237.716 1785.93 L208.04 1785.93 L208.04 1781.99 Z" fill="#000000" fill-rule="nonzero" fill-opacity="1" /><path clip-path="url(#clip890)" d="M257.809 1767.34 Q254.197 1767.34 252.369 1770.9 Q250.563 1774.45 250.563 1781.58 Q250.563 1788.68 252.369 1792.25 Q254.197 1795.79 257.809 1795.79 Q261.443 1795.79 263.248 1792.25 Q265.077 1788.68 265.077 1781.58 Q265.077 1774.45 263.248 1770.9 Q261.443 1767.34 257.809 1767.34 M257.809 1763.64 Q263.619 1763.64 266.674 1768.24 Q269.753 1772.83 269.753 1781.58 Q269.753 1790.3 266.674 1794.91 Q263.619 1799.49 257.809 1799.49 Q251.998 1799.49 248.92 1794.91 Q245.864 1790.3 245.864 1781.58 Q245.864 1772.83 248.92 1768.24 Q251.998 1763.64 257.809 1763.64 Z" fill="#000000" fill-rule="nonzero" fill-opacity="1" /><path clip-path="url(#clip890)" d="M277.97 1792.94 L282.855 1792.94 L282.855 1798.82 L277.97 1798.82 L277.97 1792.94 Z" fill="#000000" fill-rule="nonzero" fill-opacity="1" /><path clip-path="url(#clip890)" d="M297.068 1794.89 L313.387 1794.89 L313.387 1798.82 L291.443 1798.82 L291.443 1794.89 Q294.105 1792.13 298.688 1787.5 Q303.294 1782.85 304.475 1781.51 Q306.72 1778.98 307.6 1777.25 Q308.503 1775.49 308.503 1773.8 Q308.503 1771.04 306.558 1769.31 Q304.637 1767.57 301.535 1767.57 Q299.336 1767.57 296.882 1768.34 Q294.452 1769.1 291.674 1770.65 L291.674 1765.93 Q294.498 1764.79 296.952 1764.21 Q299.406 1763.64 301.443 1763.64 Q306.813 1763.64 310.007 1766.32 Q313.202 1769.01 313.202 1773.5 Q313.202 1775.63 312.392 1777.55 Q311.605 1779.45 309.498 1782.04 Q308.919 1782.71 305.818 1785.93 Q302.716 1789.12 297.068 1794.89 Z" fill="#000000" fill-rule="nonzero" fill-opacity="1" /><path clip-path="url(#clip890)" d="M333.202 1767.34 Q329.591 1767.34 327.762 1770.9 Q325.956 1774.45 325.956 1781.58 Q325.956 1788.68 327.762 1792.25 Q329.591 1795.79 333.202 1795.79 Q336.836 1795.79 338.641 1792.25 Q340.47 1788.68 340.47 1781.58 Q340.47 1774.45 338.641 1770.9 Q336.836 1767.34 333.202 1767.34 M333.202 1763.64 Q339.012 1763.64 342.067 1768.24 Q345.146 1772.83 345.146 1781.58 Q345.146 1790.3 342.067 1794.91 Q339.012 1799.49 333.202 1799.49 Q327.392 1799.49 324.313 1794.91 Q321.257 1790.3 321.257 1781.58 Q321.257 1772.83 324.313 1768.24 Q327.392 1763.64 333.202 1763.64 Z" fill="#000000" fill-rule="nonzero" fill-opacity="1" /><path clip-path="url(#clip890)" d="M864.532 1781.99 L894.208 1781.99 L894.208 1785.93 L864.532 1785.93 L864.532 1781.99 Z" fill="#000000" fill-rule="nonzero" fill-opacity="1" /><path clip-path="url(#clip890)" d="M914.3 1767.34 Q910.689 1767.34 908.86 1770.9 Q907.055 1774.45 907.055 1781.58 Q907.055 1788.68 908.86 1792.25 Q910.689 1795.79 914.3 1795.79 Q917.934 1795.79 919.74 1792.25 Q921.569 1788.68 921.569 1781.58 Q921.569 1774.45 919.74 1770.9 Q917.934 1767.34 914.3 1767.34 M914.3 1763.64 Q920.11 1763.64 923.166 1768.24 Q926.245 1772.83 926.245 1781.58 Q926.245 1790.3 923.166 1794.91 Q920.11 1799.49 914.3 1799.49 Q908.49 1799.49 905.411 1794.91 Q902.356 1790.3 902.356 1781.58 Q902.356 1772.83 905.411 1768.24 Q908.49 1763.64 914.3 1763.64 Z" fill="#000000" fill-rule="nonzero" fill-opacity="1" /><path clip-path="url(#clip890)" d="M934.462 1792.94 L939.346 1792.94 L939.346 1798.82 L934.462 1798.82 L934.462 1792.94 Z" fill="#000000" fill-rule="nonzero" fill-opacity="1" /><path clip-path="url(#clip890)" d="M950.342 1794.89 L957.98 1794.89 L957.98 1768.52 L949.67 1770.19 L949.67 1765.93 L957.934 1764.26 L962.61 1764.26 L962.61 1794.89 L970.249 1794.89 L970.249 1798.82 L950.342 1798.82 L950.342 1794.89 Z" fill="#000000" fill-rule="nonzero" fill-opacity="1" /><path clip-path="url(#clip890)" d="M979.74 1764.26 L998.096 1764.26 L998.096 1768.2 L984.022 1768.2 L984.022 1776.67 Q985.041 1776.32 986.059 1776.16 Q987.078 1775.97 988.096 1775.97 Q993.883 1775.97 997.263 1779.15 Q1000.64 1782.32 1000.64 1787.73 Q1000.64 1793.31 997.17 1796.41 Q993.698 1799.49 987.378 1799.49 Q985.203 1799.49 982.934 1799.12 Q980.689 1798.75 978.281 1798.01 L978.281 1793.31 Q980.365 1794.45 982.587 1795 Q984.809 1795.56 987.286 1795.56 Q991.29 1795.56 993.628 1793.45 Q995.966 1791.34 995.966 1787.73 Q995.966 1784.12 993.628 1782.02 Q991.29 1779.91 987.286 1779.91 Q985.411 1779.91 983.536 1780.33 Q981.684 1780.74 979.74 1781.62 L979.74 1764.26 Z" fill="#000000" fill-rule="nonzero" fill-opacity="1" /><path clip-path="url(#clip890)" d="M1520.03 1781.99 L1549.7 1781.99 L1549.7 1785.93 L1520.03 1785.93 L1520.03 1781.99 Z" fill="#000000" fill-rule="nonzero" fill-opacity="1" /><path clip-path="url(#clip890)" d="M1569.8 1767.34 Q1566.19 1767.34 1564.36 1770.9 Q1562.55 1774.45 1562.55 1781.58 Q1562.55 1788.68 1564.36 1792.25 Q1566.19 1795.79 1569.8 1795.79 Q1573.43 1795.79 1575.24 1792.25 Q1577.06 1788.68 1577.06 1781.58 Q1577.06 1774.45 1575.24 1770.9 Q1573.43 1767.34 1569.8 1767.34 M1569.8 1763.64 Q1575.61 1763.64 1578.66 1768.24 Q1581.74 1772.83 1581.74 1781.58 Q1581.74 1790.3 1578.66 1794.91 Q1575.61 1799.49 1569.8 1799.49 Q1563.99 1799.49 1560.91 1794.91 Q1557.85 1790.3 1557.85 1781.58 Q1557.85 1772.83 1560.91 1768.24 Q1563.99 1763.64 1569.8 1763.64 Z" fill="#000000" fill-rule="nonzero" fill-opacity="1" /><path clip-path="url(#clip890)" d="M1589.96 1792.94 L1594.84 1792.94 L1594.84 1798.82 L1589.96 1798.82 L1589.96 1792.94 Z" fill="#000000" fill-rule="nonzero" fill-opacity="1" /><path clip-path="url(#clip890)" d="M1605.84 1794.89 L1613.48 1794.89 L1613.48 1768.52 L1605.17 1770.19 L1605.17 1765.93 L1613.43 1764.26 L1618.11 1764.26 L1618.11 1794.89 L1625.75 1794.89 L1625.75 1798.82 L1605.84 1798.82 L1605.84 1794.89 Z" fill="#000000" fill-rule="nonzero" fill-opacity="1" /><path clip-path="url(#clip890)" d="M1645.19 1767.34 Q1641.58 1767.34 1639.75 1770.9 Q1637.94 1774.45 1637.94 1781.58 Q1637.94 1788.68 1639.75 1792.25 Q1641.58 1795.79 1645.19 1795.79 Q1648.82 1795.79 1650.63 1792.25 Q1652.46 1788.68 1652.46 1781.58 Q1652.46 1774.45 1650.63 1770.9 Q1648.82 1767.34 1645.19 1767.34 M1645.19 1763.64 Q1651 1763.64 1654.06 1768.24 Q1657.13 1772.83 1657.13 1781.58 Q1657.13 1790.3 1654.06 1794.91 Q1651 1799.49 1645.19 1799.49 Q1639.38 1799.49 1636.3 1794.91 Q1633.25 1790.3 1633.25 1781.58 Q1633.25 1772.83 1636.3 1768.24 Q1639.38 1763.64 1645.19 1763.64 Z" fill="#000000" fill-rule="nonzero" fill-opacity="1" /><path clip-path="url(#clip890)" d="M2176.52 1781.99 L2206.2 1781.99 L2206.2 1785.93 L2176.52 1785.93 L2176.52 1781.99 Z" fill="#000000" fill-rule="nonzero" fill-opacity="1" /><path clip-path="url(#clip890)" d="M2226.29 1767.34 Q2222.68 1767.34 2220.85 1770.9 Q2219.04 1774.45 2219.04 1781.58 Q2219.04 1788.68 2220.85 1792.25 Q2222.68 1795.79 2226.29 1795.79 Q2229.92 1795.79 2231.73 1792.25 Q2233.56 1788.68 2233.56 1781.58 Q2233.56 1774.45 2231.73 1770.9 Q2229.92 1767.34 2226.29 1767.34 M2226.29 1763.64 Q2232.1 1763.64 2235.15 1768.24 Q2238.23 1772.83 2238.23 1781.58 Q2238.23 1790.3 2235.15 1794.91 Q2232.1 1799.49 2226.29 1799.49 Q2220.48 1799.49 2217.4 1794.91 Q2214.34 1790.3 2214.34 1781.58 Q2214.34 1772.83 2217.4 1768.24 Q2220.48 1763.64 2226.29 1763.64 Z" fill="#000000" fill-rule="nonzero" fill-opacity="1" /><path clip-path="url(#clip890)" d="M2246.45 1792.94 L2251.33 1792.94 L2251.33 1798.82 L2246.45 1798.82 L2246.45 1792.94 Z" fill="#000000" fill-rule="nonzero" fill-opacity="1" /><path clip-path="url(#clip890)" d="M2271.52 1767.34 Q2267.91 1767.34 2266.08 1770.9 Q2264.27 1774.45 2264.27 1781.58 Q2264.27 1788.68 2266.08 1792.25 Q2267.91 1795.79 2271.52 1795.79 Q2275.15 1795.79 2276.96 1792.25 Q2278.79 1788.68 2278.79 1781.58 Q2278.79 1774.45 2276.96 1770.9 Q2275.15 1767.34 2271.52 1767.34 M2271.52 1763.64 Q2277.33 1763.64 2280.38 1768.24 Q2283.46 1772.83 2283.46 1781.58 Q2283.46 1790.3 2280.38 1794.91 Q2277.33 1799.49 2271.52 1799.49 Q2265.71 1799.49 2262.63 1794.91 Q2259.57 1790.3 2259.57 1781.58 Q2259.57 1772.83 2262.63 1768.24 Q2265.71 1763.64 2271.52 1763.64 Z" fill="#000000" fill-rule="nonzero" fill-opacity="1" /><path clip-path="url(#clip890)" d="M2291.73 1764.26 L2310.08 1764.26 L2310.08 1768.2 L2296.01 1768.2 L2296.01 1776.67 Q2297.03 1776.32 2298.05 1776.16 Q2299.07 1775.97 2300.08 1775.97 Q2305.87 1775.97 2309.25 1779.15 Q2312.63 1782.32 2312.63 1787.73 Q2312.63 1793.31 2309.16 1796.41 Q2305.69 1799.49 2299.37 1799.49 Q2297.19 1799.49 2294.92 1799.12 Q2292.68 1798.75 2290.27 1798.01 L2290.27 1793.31 Q2292.35 1794.45 2294.57 1795 Q2296.8 1795.56 2299.27 1795.56 Q2303.28 1795.56 2305.62 1793.45 Q2307.95 1791.34 2307.95 1787.73 Q2307.95 1784.12 2305.62 1782.02 Q2303.28 1779.91 2299.27 1779.91 Q2297.4 1779.91 2295.52 1780.33 Q2293.67 1780.74 2291.73 1781.62 L2291.73 1764.26 Z" fill="#000000" fill-rule="nonzero" fill-opacity="1" /><path clip-path="url(#clip890)" d="M1186.9 1881.1 L1186.9 1896.86 L1181.01 1896.86 L1181.01 1847.88 Q1181.01 1833.36 1194.57 1833.36 Q1208.39 1833.36 1208.39 1845.62 Q1208.39 1854.34 1202.91 1857.52 Q1211.82 1860.38 1211.82 1868.88 Q1211.82 1883.97 1196.48 1883.97 Q1189.74 1883.97 1186.9 1881.1 M1186.9 1873.47 Q1190.44 1878.97 1196.71 1878.97 Q1205.87 1878.97 1205.87 1868.98 Q1205.87 1860 1191.1 1860.7 L1191.1 1855.29 Q1202.66 1855.29 1202.66 1845.11 Q1202.66 1838.14 1195.21 1838.14 Q1186.9 1838.14 1186.9 1848.07 L1186.9 1873.47 Z" fill="#000000" fill-rule="nonzero" fill-opacity="1" /><path clip-path="url(#clip890)" d="M1222.11 1833.78 L1235.6 1833.78 L1235.6 1838.33 L1227.96 1838.33 L1227.96 1887.34 L1235.6 1887.34 L1235.6 1891.89 L1222.11 1891.89 L1222.11 1833.78 Z" fill="#000000" fill-rule="nonzero" fill-opacity="1" /><path clip-path="url(#clip890)" d="M1250.02 1877.89 L1260.52 1877.89 L1260.52 1841.64 L1249.1 1843.93 L1249.1 1838.07 L1260.46 1835.78 L1266.89 1835.78 L1266.89 1877.89 L1277.39 1877.89 L1277.39 1883.3 L1250.02 1883.3 L1250.02 1877.89 Z" fill="#000000" fill-rule="nonzero" fill-opacity="1" /><path clip-path="url(#clip890)" d="M1303.24 1833.78 L1303.24 1891.89 L1289.74 1891.89 L1289.74 1887.34 L1297.35 1887.34 L1297.35 1838.33 L1289.74 1838.33 L1289.74 1833.78 L1303.24 1833.78 Z" fill="#000000" fill-rule="nonzero" fill-opacity="1" /><path clip-path="url(#clip890)" d="M1349.77 1833.84 Q1345.5 1841.16 1343.44 1848.32 Q1341.37 1855.48 1341.37 1862.84 Q1341.37 1870.19 1343.44 1877.41 Q1345.54 1884.61 1349.77 1891.89 L1344.68 1891.89 Q1339.9 1884.41 1337.52 1877.19 Q1335.16 1869.96 1335.16 1862.84 Q1335.16 1855.74 1337.52 1848.54 Q1339.87 1841.35 1344.68 1833.84 L1349.77 1833.84 Z" fill="#000000" fill-rule="nonzero" fill-opacity="1" /><path clip-path="url(#clip890)" d="M1361.13 1847.65 L1366.99 1847.65 L1366.99 1883.3 L1361.13 1883.3 L1361.13 1847.65 M1361.13 1833.78 L1366.99 1833.78 L1366.99 1841.19 L1361.13 1841.19 L1361.13 1833.78 Z" fill="#000000" fill-rule="nonzero" fill-opacity="1" /><path clip-path="url(#clip890)" d="M1408.88 1861.78 L1408.88 1883.3 L1403.02 1883.3 L1403.02 1861.98 Q1403.02 1856.92 1401.05 1854.4 Q1399.07 1851.89 1395.13 1851.89 Q1390.38 1851.89 1387.65 1854.91 Q1384.91 1857.93 1384.91 1863.15 L1384.91 1883.3 L1379.02 1883.3 L1379.02 1847.65 L1384.91 1847.65 L1384.91 1853.19 Q1387.01 1849.98 1389.84 1848.39 Q1392.71 1846.79 1396.43 1846.79 Q1402.57 1846.79 1405.72 1850.61 Q1408.88 1854.4 1408.88 1861.78 Z" fill="#000000" fill-rule="nonzero" fill-opacity="1" /><path clip-path="url(#clip890)" d="M1426.35 1837.53 L1426.35 1847.65 L1438.41 1847.65 L1438.41 1852.2 L1426.35 1852.2 L1426.35 1871.56 Q1426.35 1875.92 1427.53 1877.16 Q1428.74 1878.4 1432.4 1878.4 L1438.41 1878.4 L1438.41 1883.3 L1432.4 1883.3 Q1425.62 1883.3 1423.04 1880.79 Q1420.46 1878.24 1420.46 1871.56 L1420.46 1852.2 L1416.16 1852.2 L1416.16 1847.65 L1420.46 1847.65 L1420.46 1837.53 L1426.35 1837.53 Z" fill="#000000" fill-rule="nonzero" fill-opacity="1" /><path clip-path="url(#clip890)" d="M1476.61 1864.01 L1476.61 1866.88 L1449.68 1866.88 Q1450.06 1872.92 1453.31 1876.11 Q1456.59 1879.26 1462.41 1879.26 Q1465.78 1879.26 1468.94 1878.43 Q1472.12 1877.6 1475.24 1875.95 L1475.24 1881.49 Q1472.09 1882.82 1468.78 1883.52 Q1465.47 1884.22 1462.06 1884.22 Q1453.53 1884.22 1448.53 1879.26 Q1443.57 1874.29 1443.57 1865.83 Q1443.57 1857.07 1448.28 1851.95 Q1453.02 1846.79 1461.04 1846.79 Q1468.24 1846.79 1472.4 1851.44 Q1476.61 1856.06 1476.61 1864.01 M1470.75 1862.29 Q1470.69 1857.49 1468.04 1854.62 Q1465.43 1851.76 1461.11 1851.76 Q1456.2 1851.76 1453.24 1854.53 Q1450.32 1857.3 1449.87 1862.33 L1470.75 1862.29 Z" fill="#000000" fill-rule="nonzero" fill-opacity="1" /><path clip-path="url(#clip890)" d="M1506.88 1853.13 Q1505.89 1852.55 1504.71 1852.3 Q1503.57 1852.01 1502.16 1852.01 Q1497.2 1852.01 1494.53 1855.26 Q1491.88 1858.47 1491.88 1864.52 L1491.88 1883.3 L1486 1883.3 L1486 1847.65 L1491.88 1847.65 L1491.88 1853.19 Q1493.73 1849.94 1496.69 1848.39 Q1499.65 1846.79 1503.88 1846.79 Q1504.49 1846.79 1505.22 1846.89 Q1505.95 1846.95 1506.84 1847.11 L1506.88 1853.13 Z" fill="#000000" fill-rule="nonzero" fill-opacity="1" /><path clip-path="url(#clip890)" d="M1537.24 1849.02 L1537.24 1854.5 Q1534.76 1853.13 1532.24 1852.46 Q1529.76 1851.76 1527.21 1851.76 Q1521.52 1851.76 1518.37 1855.39 Q1515.21 1858.98 1515.21 1865.51 Q1515.21 1872.03 1518.37 1875.66 Q1521.52 1879.26 1527.21 1879.26 Q1529.76 1879.26 1532.24 1878.59 Q1534.76 1877.89 1537.24 1876.52 L1537.24 1881.93 Q1534.79 1883.08 1532.15 1883.65 Q1529.54 1884.22 1526.58 1884.22 Q1518.52 1884.22 1513.78 1879.16 Q1509.04 1874.1 1509.04 1865.51 Q1509.04 1856.79 1513.81 1851.79 Q1518.62 1846.79 1526.96 1846.79 Q1529.66 1846.79 1532.24 1847.37 Q1534.82 1847.91 1537.24 1849.02 Z" fill="#000000" fill-rule="nonzero" fill-opacity="1" /><path clip-path="url(#clip890)" d="M1577.92 1864.01 L1577.92 1866.88 L1550.99 1866.88 Q1551.37 1872.92 1554.62 1876.11 Q1557.9 1879.26 1563.72 1879.26 Q1567.09 1879.26 1570.25 1878.43 Q1573.43 1877.6 1576.55 1875.95 L1576.55 1881.49 Q1573.4 1882.82 1570.09 1883.52 Q1566.78 1884.22 1563.37 1884.22 Q1554.84 1884.22 1549.84 1879.26 Q1544.88 1874.29 1544.88 1865.83 Q1544.88 1857.07 1549.59 1851.95 Q1554.33 1846.79 1562.35 1846.79 Q1569.55 1846.79 1573.72 1851.44 Q1577.92 1856.06 1577.92 1864.01 M1572.06 1862.29 Q1572 1857.49 1569.35 1854.62 Q1566.74 1851.76 1562.42 1851.76 Q1557.51 1851.76 1554.55 1854.53 Q1551.63 1857.3 1551.18 1862.33 L1572.06 1862.29 Z" fill="#000000" fill-rule="nonzero" fill-opacity="1" /><path clip-path="url(#clip890)" d="M1593.19 1877.95 L1593.19 1896.86 L1587.31 1896.86 L1587.31 1847.65 L1593.19 1847.65 L1593.19 1853.06 Q1595.04 1849.88 1597.84 1848.35 Q1600.67 1846.79 1604.59 1846.79 Q1611.08 1846.79 1615.12 1851.95 Q1619.2 1857.11 1619.2 1865.51 Q1619.2 1873.91 1615.12 1879.07 Q1611.08 1884.22 1604.59 1884.22 Q1600.67 1884.22 1597.84 1882.7 Q1595.04 1881.14 1593.19 1877.95 M1613.12 1865.51 Q1613.12 1859.05 1610.45 1855.39 Q1607.8 1851.7 1603.16 1851.7 Q1598.51 1851.7 1595.84 1855.39 Q1593.19 1859.05 1593.19 1865.51 Q1593.19 1871.97 1595.84 1875.66 Q1598.51 1879.32 1603.16 1879.32 Q1607.8 1879.32 1610.45 1875.66 Q1613.12 1871.97 1613.12 1865.51 Z" fill="#000000" fill-rule="nonzero" fill-opacity="1" /><path clip-path="url(#clip890)" d="M1634.7 1837.53 L1634.7 1847.65 L1646.76 1847.65 L1646.76 1852.2 L1634.7 1852.2 L1634.7 1871.56 Q1634.7 1875.92 1635.88 1877.16 Q1637.09 1878.4 1640.75 1878.4 L1646.76 1878.4 L1646.76 1883.3 L1640.75 1883.3 Q1633.97 1883.3 1631.39 1880.79 Q1628.81 1878.24 1628.81 1871.56 L1628.81 1852.2 L1624.51 1852.2 L1624.51 1847.65 L1628.81 1847.65 L1628.81 1837.53 L1634.7 1837.53 Z" fill="#000000" fill-rule="nonzero" fill-opacity="1" /><path clip-path="url(#clip890)" d="M1653.54 1833.84 L1658.63 1833.84 Q1663.41 1841.35 1665.76 1848.54 Q1668.15 1855.74 1668.15 1862.84 Q1668.15 1869.96 1665.76 1877.19 Q1663.41 1884.41 1658.63 1891.89 L1653.54 1891.89 Q1657.77 1884.61 1659.84 1877.41 Q1661.94 1870.19 1661.94 1862.84 Q1661.94 1855.48 1659.84 1848.32 Q1657.77 1841.16 1653.54 1833.84 Z" fill="#000000" fill-rule="nonzero" fill-opacity="1" /><polyline clip-path="url(#clip890)" style="stroke:#000000; stroke-linecap:round; stroke-linejoin:round; stroke-width:4; stroke-opacity:1; fill:none" points="208.409,1734.12 208.409,127.792 "/>
<polyline clip-path="url(#clip890)" style="stroke:#000000; stroke-linecap:round; stroke-linejoin:round; stroke-width:4; stroke-opacity:1; fill:none" points="208.409,1734.12 227.307,1734.12 "/>
<polyline clip-path="url(#clip890)" style="stroke:#000000; stroke-linecap:round; stroke-linejoin:round; stroke-width:4; stroke-opacity:1; fill:none" points="208.409,1466.4 227.307,1466.4 "/>
<polyline clip-path="url(#clip890)" style="stroke:#000000; stroke-linecap:round; stroke-linejoin:round; stroke-width:4; stroke-opacity:1; fill:none" points="208.409,1198.68 227.307,1198.68 "/>
<polyline clip-path="url(#clip890)" style="stroke:#000000; stroke-linecap:round; stroke-linejoin:round; stroke-width:4; stroke-opacity:1; fill:none" points="208.409,930.955 227.307,930.955 "/>
<polyline clip-path="url(#clip890)" style="stroke:#000000; stroke-linecap:round; stroke-linejoin:round; stroke-width:4; stroke-opacity:1; fill:none" points="208.409,663.234 227.307,663.234 "/>
<polyline clip-path="url(#clip890)" style="stroke:#000000; stroke-linecap:round; stroke-linejoin:round; stroke-width:4; stroke-opacity:1; fill:none" points="208.409,395.513 227.307,395.513 "/>
<polyline clip-path="url(#clip890)" style="stroke:#000000; stroke-linecap:round; stroke-linejoin:round; stroke-width:4; stroke-opacity:1; fill:none" points="208.409,127.792 227.307,127.792 "/>
<path clip-path="url(#clip890)" d="M156.145 1719.92 Q152.534 1719.92 150.705 1723.48 Q148.899 1727.02 148.899 1734.15 Q148.899 1741.26 150.705 1744.82 Q152.534 1748.36 156.145 1748.36 Q159.779 1748.36 161.585 1744.82 Q163.413 1741.26 163.413 1734.15 Q163.413 1727.02 161.585 1723.48 Q159.779 1719.92 156.145 1719.92 M156.145 1716.21 Q161.955 1716.21 165.01 1720.82 Q168.089 1725.4 168.089 1734.15 Q168.089 1742.88 165.01 1747.48 Q161.955 1752.07 156.145 1752.07 Q150.335 1752.07 147.256 1747.48 Q144.2 1742.88 144.2 1734.15 Q144.2 1725.4 147.256 1720.82 Q150.335 1716.21 156.145 1716.21 Z" fill="#000000" fill-rule="nonzero" fill-opacity="1" /><path clip-path="url(#clip890)" d="M160.96 1465.04 Q164.316 1465.76 166.191 1468.03 Q168.089 1470.3 168.089 1473.63 Q168.089 1478.75 164.571 1481.55 Q161.052 1484.35 154.571 1484.35 Q152.395 1484.35 150.08 1483.91 Q147.788 1483.49 145.335 1482.63 L145.335 1478.12 Q147.279 1479.25 149.594 1479.83 Q151.909 1480.41 154.432 1480.41 Q158.83 1480.41 161.122 1478.68 Q163.436 1476.94 163.436 1473.63 Q163.436 1470.57 161.284 1468.86 Q159.154 1467.13 155.335 1467.13 L151.307 1467.13 L151.307 1463.28 L155.52 1463.28 Q158.969 1463.28 160.798 1461.92 Q162.626 1460.53 162.626 1457.94 Q162.626 1455.27 160.728 1453.86 Q158.853 1452.43 155.335 1452.43 Q153.413 1452.43 151.214 1452.84 Q149.015 1453.26 146.376 1454.14 L146.376 1449.97 Q149.038 1449.23 151.353 1448.86 Q153.691 1448.49 155.751 1448.49 Q161.075 1448.49 164.177 1450.92 Q167.279 1453.33 167.279 1457.45 Q167.279 1460.32 165.635 1462.31 Q163.992 1464.28 160.96 1465.04 Z" fill="#000000" fill-rule="nonzero" fill-opacity="1" /><path clip-path="url(#clip890)" d="M156.561 1196.81 Q153.413 1196.81 151.561 1198.96 Q149.733 1201.12 149.733 1204.87 Q149.733 1208.59 151.561 1210.77 Q153.413 1212.92 156.561 1212.92 Q159.71 1212.92 161.538 1210.77 Q163.39 1208.59 163.39 1204.87 Q163.39 1201.12 161.538 1198.96 Q159.71 1196.81 156.561 1196.81 M165.844 1182.16 L165.844 1186.42 Q164.085 1185.59 162.279 1185.15 Q160.497 1184.71 158.737 1184.71 Q154.108 1184.71 151.654 1187.83 Q149.224 1190.96 148.876 1197.27 Q150.242 1195.26 152.302 1194.2 Q154.362 1193.11 156.839 1193.11 Q162.048 1193.11 165.057 1196.28 Q168.089 1199.43 168.089 1204.87 Q168.089 1210.19 164.941 1213.41 Q161.793 1216.63 156.561 1216.63 Q150.566 1216.63 147.395 1212.04 Q144.224 1207.44 144.224 1198.71 Q144.224 1190.52 148.112 1185.65 Q152.001 1180.77 158.552 1180.77 Q160.311 1180.77 162.094 1181.12 Q163.899 1181.46 165.844 1182.16 Z" fill="#000000" fill-rule="nonzero" fill-opacity="1" /><path clip-path="url(#clip890)" d="M146.469 947.517 L146.469 943.258 Q148.228 944.091 150.034 944.531 Q151.839 944.971 153.575 944.971 Q158.205 944.971 160.636 941.869 Q163.089 938.744 163.436 932.401 Q162.094 934.392 160.034 935.457 Q157.973 936.522 155.473 936.522 Q150.288 936.522 147.256 933.397 Q144.247 930.249 144.247 924.809 Q144.247 919.485 147.395 916.267 Q150.543 913.05 155.774 913.05 Q161.77 913.05 164.918 917.656 Q168.089 922.239 168.089 930.989 Q168.089 939.161 164.2 944.045 Q160.335 948.906 153.784 948.906 Q152.024 948.906 150.219 948.559 Q148.413 948.211 146.469 947.517 M155.774 932.864 Q158.923 932.864 160.751 930.712 Q162.603 928.559 162.603 924.809 Q162.603 921.082 160.751 918.929 Q158.923 916.753 155.774 916.753 Q152.626 916.753 150.774 918.929 Q148.946 921.082 148.946 924.809 Q148.946 928.559 150.774 930.712 Q152.626 932.864 155.774 932.864 Z" fill="#000000" fill-rule="nonzero" fill-opacity="1" /><path clip-path="url(#clip890)" d="M118.39 676.579 L126.029 676.579 L126.029 650.213 L117.719 651.88 L117.719 647.62 L125.983 645.954 L130.659 645.954 L130.659 676.579 L138.298 676.579 L138.298 680.514 L118.39 680.514 L118.39 676.579 Z" fill="#000000" fill-rule="nonzero" fill-opacity="1" /><path clip-path="url(#clip890)" d="M151.77 676.579 L168.089 676.579 L168.089 680.514 L146.145 680.514 L146.145 676.579 Q148.807 673.824 153.39 669.194 Q157.997 664.542 159.177 663.199 Q161.423 660.676 162.302 658.94 Q163.205 657.181 163.205 655.491 Q163.205 652.736 161.26 651 Q159.339 649.264 156.237 649.264 Q154.038 649.264 151.585 650.028 Q149.154 650.792 146.376 652.343 L146.376 647.62 Q149.2 646.486 151.654 645.907 Q154.108 645.329 156.145 645.329 Q161.515 645.329 164.71 648.014 Q167.904 650.699 167.904 655.19 Q167.904 657.319 167.094 659.241 Q166.307 661.139 164.2 663.731 Q163.622 664.403 160.52 667.62 Q157.418 670.815 151.77 676.579 Z" fill="#000000" fill-rule="nonzero" fill-opacity="1" /><path clip-path="url(#clip890)" d="M117.789 408.858 L125.427 408.858 L125.427 382.492 L117.117 384.159 L117.117 379.9 L125.381 378.233 L130.057 378.233 L130.057 408.858 L137.696 408.858 L137.696 412.793 L117.789 412.793 L117.789 408.858 Z" fill="#000000" fill-rule="nonzero" fill-opacity="1" /><path clip-path="url(#clip890)" d="M147.186 378.233 L165.543 378.233 L165.543 382.168 L151.469 382.168 L151.469 390.64 Q152.487 390.293 153.506 390.131 Q154.524 389.946 155.543 389.946 Q161.33 389.946 164.71 393.117 Q168.089 396.288 168.089 401.705 Q168.089 407.284 164.617 410.386 Q161.145 413.464 154.825 413.464 Q152.649 413.464 150.381 413.094 Q148.136 412.723 145.728 411.983 L145.728 407.284 Q147.811 408.418 150.034 408.974 Q152.256 409.529 154.733 409.529 Q158.737 409.529 161.075 407.423 Q163.413 405.316 163.413 401.705 Q163.413 398.094 161.075 395.987 Q158.737 393.881 154.733 393.881 Q152.858 393.881 150.983 394.298 Q149.131 394.714 147.186 395.594 L147.186 378.233 Z" fill="#000000" fill-rule="nonzero" fill-opacity="1" /><path clip-path="url(#clip890)" d="M116.886 141.137 L124.525 141.137 L124.525 114.771 L116.214 116.438 L116.214 112.179 L124.478 110.512 L129.154 110.512 L129.154 141.137 L136.793 141.137 L136.793 145.072 L116.886 145.072 L116.886 141.137 Z" fill="#000000" fill-rule="nonzero" fill-opacity="1" /><path clip-path="url(#clip890)" d="M156.237 128.66 Q152.904 128.66 150.983 130.443 Q149.085 132.225 149.085 135.35 Q149.085 138.475 150.983 140.257 Q152.904 142.04 156.237 142.04 Q159.571 142.04 161.492 140.257 Q163.413 138.452 163.413 135.35 Q163.413 132.225 161.492 130.443 Q159.594 128.66 156.237 128.66 M151.561 126.669 Q148.552 125.929 146.862 123.869 Q145.196 121.808 145.196 118.845 Q145.196 114.702 148.136 112.295 Q151.099 109.887 156.237 109.887 Q161.399 109.887 164.339 112.295 Q167.279 114.702 167.279 118.845 Q167.279 121.808 165.589 123.869 Q163.923 125.929 160.936 126.669 Q164.316 127.456 166.191 129.748 Q168.089 132.04 168.089 135.35 Q168.089 140.373 165.01 143.058 Q161.955 145.743 156.237 145.743 Q150.52 145.743 147.441 143.058 Q144.386 140.373 144.386 135.35 Q144.386 132.04 146.284 129.748 Q148.182 127.456 151.561 126.669 M149.849 119.285 Q149.849 121.97 151.515 123.475 Q153.205 124.98 156.237 124.98 Q159.247 124.98 160.936 123.475 Q162.649 121.97 162.649 119.285 Q162.649 116.6 160.936 115.095 Q159.247 113.591 156.237 113.591 Q153.205 113.591 151.515 115.095 Q149.849 116.6 149.849 119.285 Z" fill="#000000" fill-rule="nonzero" fill-opacity="1" /><path clip-path="url(#clip890)" d="M31.4013 1021.68 L12.1132 1021.68 L12.1132 1015.83 L61.6384 1015.83 L61.6384 1021.68 L56.2912 1021.68 Q59.4741 1023.53 61.0337 1026.36 Q62.5615 1029.16 62.5615 1033.11 Q62.5615 1039.57 57.4052 1043.64 Q52.249 1047.69 43.8463 1047.69 Q35.4436 1047.69 30.2873 1043.64 Q25.1311 1039.57 25.1311 1033.11 Q25.1311 1029.16 26.6907 1026.36 Q28.2185 1023.53 31.4013 1021.68 M43.8463 1041.64 Q50.3075 1041.64 53.9996 1039 Q57.6599 1036.32 57.6599 1031.68 Q57.6599 1027.03 53.9996 1024.36 Q50.3075 1021.68 43.8463 1021.68 Q37.3851 1021.68 33.7248 1024.36 Q30.0327 1027.03 30.0327 1031.68 Q30.0327 1036.32 33.7248 1039 Q37.3851 1041.64 43.8463 1041.64 Z" fill="#000000" fill-rule="nonzero" fill-opacity="1" /><path clip-path="url(#clip890)" d="M42.3504 973.271 L45.2149 973.271 L45.2149 1000.2 Q51.2623 999.816 54.4452 996.569 Q57.5962 993.291 57.5962 987.466 Q57.5962 984.092 56.7687 980.941 Q55.9411 977.758 54.2861 974.639 L59.8242 974.639 Q61.161 977.79 61.8612 981.1 Q62.5615 984.411 62.5615 987.816 Q62.5615 996.346 57.5962 1001.34 Q52.631 1006.31 44.1646 1006.31 Q35.4117 1006.31 30.2873 1001.6 Q25.1311 996.856 25.1311 988.835 Q25.1311 981.641 29.7781 977.472 Q34.3932 973.271 42.3504 973.271 M40.6316 979.127 Q35.8255 979.191 32.9609 981.832 Q30.0964 984.442 30.0964 988.771 Q30.0964 993.673 32.8654 996.633 Q35.6345 999.561 40.6634 1000.01 L40.6316 979.127 Z" fill="#000000" fill-rule="nonzero" fill-opacity="1" /><path clip-path="url(#clip890)" d="M40.1224 934.026 L61.6384 934.026 L61.6384 939.882 L40.3133 939.882 Q35.2526 939.882 32.7381 941.856 Q30.2237 943.829 30.2237 947.776 Q30.2237 952.518 33.2474 955.256 Q36.2711 957.993 41.491 957.993 L61.6384 957.993 L61.6384 963.881 L25.9905 963.881 L25.9905 957.993 L31.5287 957.993 Q28.314 955.892 26.7225 953.059 Q25.1311 950.195 25.1311 946.471 Q25.1311 940.328 28.9505 937.177 Q32.7381 934.026 40.1224 934.026 Z" fill="#000000" fill-rule="nonzero" fill-opacity="1" /><path clip-path="url(#clip890)" d="M27.0408 899.619 L32.579 899.619 Q31.3059 902.102 30.6693 904.776 Q30.0327 907.449 30.0327 910.314 Q30.0327 914.674 31.3695 916.87 Q32.7063 919.035 35.3799 919.035 Q37.4169 919.035 38.5946 917.475 Q39.7404 915.916 40.7908 911.205 L41.2364 909.2 Q42.5732 902.961 45.0239 900.351 Q47.4429 897.71 51.8034 897.71 Q56.7687 897.71 59.6651 901.656 Q62.5615 905.571 62.5615 912.446 Q62.5615 915.311 61.9886 918.43 Q61.4475 921.517 60.3335 924.955 L54.2861 924.955 Q55.973 921.708 56.8323 918.557 Q57.6599 915.406 57.6599 912.319 Q57.6599 908.181 56.2594 905.953 Q54.8271 903.725 52.249 903.725 Q49.8619 903.725 48.5887 905.349 Q47.3156 906.94 46.1379 912.383 L45.6605 914.42 Q44.5147 919.862 42.1594 922.281 Q39.7722 924.7 35.6345 924.7 Q30.6056 924.7 27.8684 921.135 Q25.1311 917.571 25.1311 911.014 Q25.1311 907.767 25.6085 904.903 Q26.086 902.038 27.0408 899.619 Z" fill="#000000" fill-rule="nonzero" fill-opacity="1" /><path clip-path="url(#clip890)" d="M25.9905 888.384 L25.9905 882.527 L61.6384 882.527 L61.6384 888.384 L25.9905 888.384 M12.1132 888.384 L12.1132 882.527 L19.5293 882.527 L19.5293 888.384 L12.1132 888.384 Z" fill="#000000" fill-rule="nonzero" fill-opacity="1" /><path clip-path="url(#clip890)" d="M15.869 864.481 L25.9905 864.481 L25.9905 852.418 L30.542 852.418 L30.542 864.481 L49.8937 864.481 Q54.2542 864.481 55.4955 863.303 Q56.7368 862.094 56.7368 858.433 L56.7368 852.418 L61.6384 852.418 L61.6384 858.433 Q61.6384 865.213 59.124 867.791 Q56.5777 870.369 49.8937 870.369 L30.542 870.369 L30.542 874.666 L25.9905 874.666 L25.9905 870.369 L15.869 870.369 L15.869 864.481 Z" fill="#000000" fill-rule="nonzero" fill-opacity="1" /><path clip-path="url(#clip890)" d="M64.9486 829.883 Q71.3143 832.366 73.2559 834.721 Q75.1974 837.076 75.1974 841.023 L75.1974 845.702 L70.2958 845.702 L70.2958 842.264 Q70.2958 839.845 69.15 838.509 Q68.0041 837.172 63.7391 835.549 L61.0655 834.498 L25.9905 848.917 L25.9905 842.71 L53.8723 831.57 L25.9905 820.43 L25.9905 814.223 L64.9486 829.883 Z" fill="#000000" fill-rule="nonzero" fill-opacity="1" /><path clip-path="url(#clip890)" d="M460.569 18.8205 L460.569 41.5461 L470.858 41.5461 Q476.57 41.5461 479.689 38.5889 Q482.808 35.6318 482.808 30.163 Q482.808 24.7348 479.689 21.7777 Q476.57 18.8205 470.858 18.8205 L460.569 18.8205 M452.386 12.096 L470.858 12.096 Q481.026 12.096 486.211 16.714 Q491.436 21.2916 491.436 30.163 Q491.436 39.1155 486.211 43.6931 Q481.026 48.2706 470.858 48.2706 L460.569 48.2706 L460.569 72.576 L452.386 72.576 L452.386 12.096 Z" fill="#000000" fill-rule="nonzero" fill-opacity="1" /><path clip-path="url(#clip890)" d="M516.714 32.4315 Q510.719 32.4315 507.235 37.1306 Q503.751 41.7891 503.751 49.9314 Q503.751 58.0738 507.195 62.7728 Q510.678 67.4314 516.714 67.4314 Q522.669 67.4314 526.153 62.7323 Q529.637 58.0333 529.637 49.9314 Q529.637 41.8701 526.153 37.1711 Q522.669 32.4315 516.714 32.4315 M516.714 26.1121 Q526.436 26.1121 531.986 32.4315 Q537.536 38.7509 537.536 49.9314 Q537.536 61.0714 531.986 67.4314 Q526.436 73.7508 516.714 73.7508 Q506.951 73.7508 501.402 67.4314 Q495.892 61.0714 495.892 49.9314 Q495.892 38.7509 501.402 32.4315 Q506.951 26.1121 516.714 26.1121 Z" fill="#000000" fill-rule="nonzero" fill-opacity="1" /><path clip-path="url(#clip890)" d="M578.814 28.5427 L578.814 35.5912 Q575.655 33.9709 572.252 33.1607 Q568.849 32.3505 565.203 32.3505 Q559.654 32.3505 556.859 34.0519 Q554.104 35.7533 554.104 39.156 Q554.104 41.7486 556.089 43.2475 Q558.074 44.7058 564.069 46.0426 L566.621 46.6097 Q574.561 48.3111 577.883 51.4303 Q581.245 54.509 581.245 60.0587 Q581.245 66.3781 576.222 70.0644 Q571.239 73.7508 562.489 73.7508 Q558.844 73.7508 554.874 73.0216 Q550.944 72.3329 546.569 70.9151 L546.569 63.2184 Q550.701 65.3654 554.712 66.4591 Q558.722 67.5124 562.651 67.5124 Q567.918 67.5124 570.753 65.73 Q573.589 63.9071 573.589 60.6258 Q573.589 57.5877 571.523 55.9673 Q569.497 54.3469 562.57 52.8481 L559.978 52.2405 Q553.051 50.7821 549.972 47.7845 Q546.893 44.7463 546.893 39.4801 Q546.893 33.0797 551.43 29.5959 Q555.967 26.1121 564.312 26.1121 Q568.444 26.1121 572.09 26.7198 Q575.736 27.3274 578.814 28.5427 Z" fill="#000000" fill-rule="nonzero" fill-opacity="1" /><path clip-path="url(#clip890)" d="M600.487 14.324 L600.487 27.2059 L615.84 27.2059 L615.84 32.9987 L600.487 32.9987 L600.487 57.6282 Q600.487 63.1779 601.986 64.7578 Q603.525 66.3376 608.184 66.3376 L615.84 66.3376 L615.84 72.576 L608.184 72.576 Q599.555 72.576 596.274 69.3758 Q592.993 66.1351 592.993 57.6282 L592.993 32.9987 L587.524 32.9987 L587.524 27.2059 L592.993 27.2059 L592.993 14.324 L600.487 14.324 Z" fill="#000000" fill-rule="nonzero" fill-opacity="1" /><path clip-path="url(#clip890)" d="M664.451 48.0275 L664.451 51.6733 L630.18 51.6733 Q630.666 59.3701 634.798 63.421 Q638.97 67.4314 646.384 67.4314 Q650.678 67.4314 654.688 66.3781 Q658.739 65.3249 662.709 63.2184 L662.709 70.267 Q658.698 71.9684 654.485 72.8596 Q650.272 73.7508 645.938 73.7508 Q635.082 73.7508 628.722 67.4314 Q622.402 61.1119 622.402 50.3365 Q622.402 39.1965 628.398 32.6746 Q634.433 26.1121 644.642 26.1121 Q653.797 26.1121 659.103 32.0264 Q664.451 37.9003 664.451 48.0275 M656.997 45.84 Q656.916 39.7232 653.554 36.0774 Q650.232 32.4315 644.723 32.4315 Q638.484 32.4315 634.717 35.9558 Q630.99 39.4801 630.423 45.8805 L656.997 45.84 Z" fill="#000000" fill-rule="nonzero" fill-opacity="1" /><path clip-path="url(#clip890)" d="M702.975 34.1734 Q701.719 33.4443 700.22 33.1202 Q698.762 32.7556 696.979 32.7556 Q690.66 32.7556 687.257 36.8875 Q683.895 40.9789 683.895 48.6757 L683.895 72.576 L676.401 72.576 L676.401 27.2059 L683.895 27.2059 L683.895 34.2544 Q686.244 30.1225 690.012 28.1376 Q693.779 26.1121 699.167 26.1121 Q699.937 26.1121 700.868 26.2337 Q701.8 26.3147 702.934 26.5172 L702.975 34.1734 Z" fill="#000000" fill-rule="nonzero" fill-opacity="1" /><path clip-path="url(#clip890)" d="M710.793 27.2059 L718.247 27.2059 L718.247 72.576 L710.793 72.576 L710.793 27.2059 M710.793 9.54393 L718.247 9.54393 L718.247 18.9825 L710.793 18.9825 L710.793 9.54393 Z" fill="#000000" fill-rule="nonzero" fill-opacity="1" /><path clip-path="url(#clip890)" d="M751.424 32.4315 Q745.428 32.4315 741.944 37.1306 Q738.461 41.7891 738.461 49.9314 Q738.461 58.0738 741.904 62.7728 Q745.388 67.4314 751.424 67.4314 Q757.378 67.4314 760.862 62.7323 Q764.346 58.0333 764.346 49.9314 Q764.346 41.8701 760.862 37.1711 Q757.378 32.4315 751.424 32.4315 M751.424 26.1121 Q761.146 26.1121 766.695 32.4315 Q772.245 38.7509 772.245 49.9314 Q772.245 61.0714 766.695 67.4314 Q761.146 73.7508 751.424 73.7508 Q741.661 73.7508 736.111 67.4314 Q730.602 61.0714 730.602 49.9314 Q730.602 38.7509 736.111 32.4315 Q741.661 26.1121 751.424 26.1121 Z" fill="#000000" fill-rule="nonzero" fill-opacity="1" /><path clip-path="url(#clip890)" d="M810.891 34.1734 Q809.635 33.4443 808.136 33.1202 Q806.678 32.7556 804.895 32.7556 Q798.576 32.7556 795.173 36.8875 Q791.811 40.9789 791.811 48.6757 L791.811 72.576 L784.317 72.576 L784.317 27.2059 L791.811 27.2059 L791.811 34.2544 Q794.161 30.1225 797.928 28.1376 Q801.695 26.1121 807.083 26.1121 Q807.853 26.1121 808.784 26.2337 Q809.716 26.3147 810.85 26.5172 L810.891 34.1734 Z" fill="#000000" fill-rule="nonzero" fill-opacity="1" /><path clip-path="url(#clip890)" d="M874.936 34.0924 L874.936 9.54393 L882.389 9.54393 L882.389 72.576 L874.936 72.576 L874.936 65.7705 Q872.586 69.8214 868.981 71.8063 Q865.416 73.7508 860.393 73.7508 Q852.17 73.7508 846.984 67.1883 Q841.84 60.6258 841.84 49.9314 Q841.84 39.2371 846.984 32.6746 Q852.17 26.1121 860.393 26.1121 Q865.416 26.1121 868.981 28.0971 Q872.586 30.0415 874.936 34.0924 M849.536 49.9314 Q849.536 58.1548 852.899 62.8538 Q856.301 67.5124 862.216 67.5124 Q868.13 67.5124 871.533 62.8538 Q874.936 58.1548 874.936 49.9314 Q874.936 41.7081 871.533 37.0496 Q868.13 32.3505 862.216 32.3505 Q856.301 32.3505 852.899 37.0496 Q849.536 41.7081 849.536 49.9314 Z" fill="#000000" fill-rule="nonzero" fill-opacity="1" /><path clip-path="url(#clip890)" d="M936.55 48.0275 L936.55 51.6733 L902.279 51.6733 Q902.765 59.3701 906.897 63.421 Q911.07 67.4314 918.483 67.4314 Q922.777 67.4314 926.787 66.3781 Q930.838 65.3249 934.808 63.2184 L934.808 70.267 Q930.798 71.9684 926.585 72.8596 Q922.372 73.7508 918.037 73.7508 Q907.181 73.7508 900.821 67.4314 Q894.501 61.1119 894.501 50.3365 Q894.501 39.1965 900.497 32.6746 Q906.533 26.1121 916.741 26.1121 Q925.896 26.1121 931.203 32.0264 Q936.55 37.9003 936.55 48.0275 M929.096 45.84 Q929.015 39.7232 925.653 36.0774 Q922.331 32.4315 916.822 32.4315 Q910.584 32.4315 906.816 35.9558 Q903.089 39.4801 902.522 45.8805 L929.096 45.84 Z" fill="#000000" fill-rule="nonzero" fill-opacity="1" /><path clip-path="url(#clip890)" d="M986.497 45.1919 L986.497 72.576 L979.044 72.576 L979.044 45.4349 Q979.044 38.994 976.532 35.7938 Q974.021 32.5936 968.998 32.5936 Q962.962 32.5936 959.478 36.4419 Q955.994 40.2903 955.994 46.9338 L955.994 72.576 L948.5 72.576 L948.5 27.2059 L955.994 27.2059 L955.994 34.2544 Q958.668 30.163 962.273 28.1376 Q965.919 26.1121 970.658 26.1121 Q978.477 26.1121 982.487 30.9732 Q986.497 35.7938 986.497 45.1919 Z" fill="#000000" fill-rule="nonzero" fill-opacity="1" /><path clip-path="url(#clip890)" d="M1030.29 28.5427 L1030.29 35.5912 Q1027.13 33.9709 1023.73 33.1607 Q1020.32 32.3505 1016.68 32.3505 Q1011.13 32.3505 1008.33 34.0519 Q1005.58 35.7533 1005.58 39.156 Q1005.58 41.7486 1007.56 43.2475 Q1009.55 44.7058 1015.54 46.0426 L1018.09 46.6097 Q1026.03 48.3111 1029.36 51.4303 Q1032.72 54.509 1032.72 60.0587 Q1032.72 66.3781 1027.7 70.0644 Q1022.71 73.7508 1013.96 73.7508 Q1010.32 73.7508 1006.35 73.0216 Q1002.42 72.3329 998.043 70.9151 L998.043 63.2184 Q1002.17 65.3654 1006.18 66.4591 Q1010.2 67.5124 1014.12 67.5124 Q1019.39 67.5124 1022.23 65.73 Q1025.06 63.9071 1025.06 60.6258 Q1025.06 57.5877 1023 55.9673 Q1020.97 54.3469 1014.04 52.8481 L1011.45 52.2405 Q1004.52 50.7821 1001.45 47.7845 Q998.367 44.7463 998.367 39.4801 Q998.367 33.0797 1002.9 29.5959 Q1007.44 26.1121 1015.79 26.1121 Q1019.92 26.1121 1023.56 26.7198 Q1027.21 27.3274 1030.29 28.5427 Z" fill="#000000" fill-rule="nonzero" fill-opacity="1" /><path clip-path="url(#clip890)" d="M1044.59 27.2059 L1052.04 27.2059 L1052.04 72.576 L1044.59 72.576 L1044.59 27.2059 M1044.59 9.54393 L1052.04 9.54393 L1052.04 18.9825 L1044.59 18.9825 L1044.59 9.54393 Z" fill="#000000" fill-rule="nonzero" fill-opacity="1" /><path clip-path="url(#clip890)" d="M1075.01 14.324 L1075.01 27.2059 L1090.36 27.2059 L1090.36 32.9987 L1075.01 32.9987 L1075.01 57.6282 Q1075.01 63.1779 1076.51 64.7578 Q1078.05 66.3376 1082.71 66.3376 L1090.36 66.3376 L1090.36 72.576 L1082.71 72.576 Q1074.08 72.576 1070.8 69.3758 Q1067.52 66.1351 1067.52 57.6282 L1067.52 32.9987 L1062.05 32.9987 L1062.05 27.2059 L1067.52 27.2059 L1067.52 14.324 L1075.01 14.324 Z" fill="#000000" fill-rule="nonzero" fill-opacity="1" /><path clip-path="url(#clip890)" d="M1119.04 76.7889 Q1115.88 84.8907 1112.89 87.3618 Q1109.89 89.8329 1104.86 89.8329 L1098.91 89.8329 L1098.91 83.5945 L1103.29 83.5945 Q1106.36 83.5945 1108.07 82.1361 Q1109.77 80.6778 1111.83 75.2496 L1113.17 71.8468 L1094.82 27.2059 L1102.72 27.2059 L1116.9 62.6918 L1131.07 27.2059 L1138.97 27.2059 L1119.04 76.7889 Z" fill="#000000" fill-rule="nonzero" fill-opacity="1" /><path clip-path="url(#clip890)" d="M1193.22 32.4315 Q1187.22 32.4315 1183.74 37.1306 Q1180.25 41.7891 1180.25 49.9314 Q1180.25 58.0738 1183.7 62.7728 Q1187.18 67.4314 1193.22 67.4314 Q1199.17 67.4314 1202.65 62.7323 Q1206.14 58.0333 1206.14 49.9314 Q1206.14 41.8701 1202.65 37.1711 Q1199.17 32.4315 1193.22 32.4315 M1193.22 26.1121 Q1202.94 26.1121 1208.49 32.4315 Q1214.04 38.7509 1214.04 49.9314 Q1214.04 61.0714 1208.49 67.4314 Q1202.94 73.7508 1193.22 73.7508 Q1183.45 73.7508 1177.9 67.4314 Q1172.39 61.0714 1172.39 49.9314 Q1172.39 38.7509 1177.9 32.4315 Q1183.45 26.1121 1193.22 26.1121 Z" fill="#000000" fill-rule="nonzero" fill-opacity="1" /><path clip-path="url(#clip890)" d="M1249.36 9.54393 L1249.36 15.7418 L1242.23 15.7418 Q1238.22 15.7418 1236.64 17.3622 Q1235.1 18.9825 1235.1 23.1955 L1235.1 27.2059 L1247.38 27.2059 L1247.38 32.9987 L1235.1 32.9987 L1235.1 72.576 L1227.61 72.576 L1227.61 32.9987 L1220.48 32.9987 L1220.48 27.2059 L1227.61 27.2059 L1227.61 24.0462 Q1227.61 16.471 1231.13 13.0277 Q1234.66 9.54393 1242.31 9.54393 L1249.36 9.54393 Z" fill="#000000" fill-rule="nonzero" fill-opacity="1" /><path clip-path="url(#clip890)" d="M1281.97 27.2059 L1289.42 27.2059 L1289.42 72.576 L1281.97 72.576 L1281.97 27.2059 M1281.97 9.54393 L1289.42 9.54393 L1289.42 18.9825 L1281.97 18.9825 L1281.97 9.54393 Z" fill="#000000" fill-rule="nonzero" fill-opacity="1" /><path clip-path="url(#clip890)" d="M1342.73 45.1919 L1342.73 72.576 L1335.28 72.576 L1335.28 45.4349 Q1335.28 38.994 1332.77 35.7938 Q1330.26 32.5936 1325.23 32.5936 Q1319.2 32.5936 1315.71 36.4419 Q1312.23 40.2903 1312.23 46.9338 L1312.23 72.576 L1304.74 72.576 L1304.74 27.2059 L1312.23 27.2059 L1312.23 34.2544 Q1314.9 30.163 1318.51 28.1376 Q1322.16 26.1121 1326.89 26.1121 Q1334.71 26.1121 1338.72 30.9732 Q1342.73 35.7938 1342.73 45.1919 Z" fill="#000000" fill-rule="nonzero" fill-opacity="1" /><path clip-path="url(#clip890)" d="M1364.97 14.324 L1364.97 27.2059 L1380.33 27.2059 L1380.33 32.9987 L1364.97 32.9987 L1364.97 57.6282 Q1364.97 63.1779 1366.47 64.7578 Q1368.01 66.3376 1372.67 66.3376 L1380.33 66.3376 L1380.33 72.576 L1372.67 72.576 Q1364.04 72.576 1360.76 69.3758 Q1357.48 66.1351 1357.48 57.6282 L1357.48 32.9987 L1352.01 32.9987 L1352.01 27.2059 L1357.48 27.2059 L1357.48 14.324 L1364.97 14.324 Z" fill="#000000" fill-rule="nonzero" fill-opacity="1" /><path clip-path="url(#clip890)" d="M1428.94 48.0275 L1428.94 51.6733 L1394.67 51.6733 Q1395.15 59.3701 1399.28 63.421 Q1403.46 67.4314 1410.87 67.4314 Q1415.16 67.4314 1419.17 66.3781 Q1423.23 65.3249 1427.2 63.2184 L1427.2 70.267 Q1423.18 71.9684 1418.97 72.8596 Q1414.76 73.7508 1410.42 73.7508 Q1399.57 73.7508 1393.21 67.4314 Q1386.89 61.1119 1386.89 50.3365 Q1386.89 39.1965 1392.88 32.6746 Q1398.92 26.1121 1409.13 26.1121 Q1418.28 26.1121 1423.59 32.0264 Q1428.94 37.9003 1428.94 48.0275 M1421.48 45.84 Q1421.4 39.7232 1418.04 36.0774 Q1414.72 32.4315 1409.21 32.4315 Q1402.97 32.4315 1399.2 35.9558 Q1395.48 39.4801 1394.91 45.8805 L1421.48 45.84 Z" fill="#000000" fill-rule="nonzero" fill-opacity="1" /><path clip-path="url(#clip890)" d="M1467.46 34.1734 Q1466.21 33.4443 1464.71 33.1202 Q1463.25 32.7556 1461.47 32.7556 Q1455.15 32.7556 1451.74 36.8875 Q1448.38 40.9789 1448.38 48.6757 L1448.38 72.576 L1440.89 72.576 L1440.89 27.2059 L1448.38 27.2059 L1448.38 34.2544 Q1450.73 30.1225 1454.5 28.1376 Q1458.27 26.1121 1463.65 26.1121 Q1464.42 26.1121 1465.35 26.2337 Q1466.29 26.3147 1467.42 26.5172 L1467.46 34.1734 Z" fill="#000000" fill-rule="nonzero" fill-opacity="1" /><path clip-path="url(#clip890)" d="M1506.11 28.9478 L1506.11 35.9153 Q1502.95 34.1734 1499.75 33.3227 Q1496.59 32.4315 1493.35 32.4315 Q1486.1 32.4315 1482.09 37.0496 Q1478.07 41.6271 1478.07 49.9314 Q1478.07 58.2358 1482.09 62.8538 Q1486.1 67.4314 1493.35 67.4314 Q1496.59 67.4314 1499.75 66.5807 Q1502.95 65.6895 1506.11 63.9476 L1506.11 70.8341 Q1502.99 72.2924 1499.63 73.0216 Q1496.3 73.7508 1492.54 73.7508 Q1482.29 73.7508 1476.25 67.3098 Q1470.22 60.8689 1470.22 49.9314 Q1470.22 38.832 1476.29 32.472 Q1482.41 26.1121 1493.02 26.1121 Q1496.47 26.1121 1499.75 26.8413 Q1503.03 27.5299 1506.11 28.9478 Z" fill="#000000" fill-rule="nonzero" fill-opacity="1" /><path clip-path="url(#clip890)" d="M1557.88 48.0275 L1557.88 51.6733 L1523.61 51.6733 Q1524.09 59.3701 1528.22 63.421 Q1532.4 67.4314 1539.81 67.4314 Q1544.1 67.4314 1548.11 66.3781 Q1552.17 65.3249 1556.14 63.2184 L1556.14 70.267 Q1552.13 71.9684 1547.91 72.8596 Q1543.7 73.7508 1539.36 73.7508 Q1528.51 73.7508 1522.15 67.4314 Q1515.83 61.1119 1515.83 50.3365 Q1515.83 39.1965 1521.82 32.6746 Q1527.86 26.1121 1538.07 26.1121 Q1547.22 26.1121 1552.53 32.0264 Q1557.88 37.9003 1557.88 48.0275 M1550.42 45.84 Q1550.34 39.7232 1546.98 36.0774 Q1543.66 32.4315 1538.15 32.4315 Q1531.91 32.4315 1528.14 35.9558 Q1524.42 39.4801 1523.85 45.8805 L1550.42 45.84 Z" fill="#000000" fill-rule="nonzero" fill-opacity="1" /><path clip-path="url(#clip890)" d="M1577.32 65.7705 L1577.32 89.8329 L1569.83 89.8329 L1569.83 27.2059 L1577.32 27.2059 L1577.32 34.0924 Q1579.67 30.0415 1583.24 28.0971 Q1586.84 26.1121 1591.82 26.1121 Q1600.09 26.1121 1605.23 32.6746 Q1610.42 39.2371 1610.42 49.9314 Q1610.42 60.6258 1605.23 67.1883 Q1600.09 73.7508 1591.82 73.7508 Q1586.84 73.7508 1583.24 71.8063 Q1579.67 69.8214 1577.32 65.7705 M1602.68 49.9314 Q1602.68 41.7081 1599.28 37.0496 Q1595.92 32.3505 1590 32.3505 Q1584.09 32.3505 1580.68 37.0496 Q1577.32 41.7081 1577.32 49.9314 Q1577.32 58.1548 1580.68 62.8538 Q1584.09 67.5124 1590 67.5124 Q1595.92 67.5124 1599.28 62.8538 Q1602.68 58.1548 1602.68 49.9314 Z" fill="#000000" fill-rule="nonzero" fill-opacity="1" /><path clip-path="url(#clip890)" d="M1630.15 14.324 L1630.15 27.2059 L1645.5 27.2059 L1645.5 32.9987 L1630.15 32.9987 L1630.15 57.6282 Q1630.15 63.1779 1631.64 64.7578 Q1633.18 66.3376 1637.84 66.3376 L1645.5 66.3376 L1645.5 72.576 L1637.84 72.576 Q1629.21 72.576 1625.93 69.3758 Q1622.65 66.1351 1622.65 57.6282 L1622.65 32.9987 L1617.18 32.9987 L1617.18 27.2059 L1622.65 27.2059 L1622.65 14.324 L1630.15 14.324 Z" fill="#000000" fill-rule="nonzero" fill-opacity="1" /><path clip-path="url(#clip890)" d="M1699.58 9.62495 Q1694.15 18.942 1691.52 28.0566 Q1688.88 37.1711 1688.88 46.5287 Q1688.88 55.8863 1691.52 65.0818 Q1694.19 74.2369 1699.58 83.5134 L1693.1 83.5134 Q1687.02 73.9938 1683.98 64.7983 Q1680.98 55.6027 1680.98 46.5287 Q1680.98 37.4952 1683.98 28.3401 Q1686.98 19.1851 1693.1 9.62495 L1699.58 9.62495 Z" fill="#000000" fill-rule="nonzero" fill-opacity="1" /><path clip-path="url(#clip890)" d="M1755.6 63.9476 L1755.6 47.7034 L1742.23 47.7034 L1742.23 40.9789 L1763.7 40.9789 L1763.7 66.9452 Q1758.96 70.3075 1753.25 72.0494 Q1747.54 73.7508 1741.06 73.7508 Q1726.88 73.7508 1718.86 65.4869 Q1710.88 57.1826 1710.88 42.3968 Q1710.88 27.5705 1718.86 19.3066 Q1726.88 11.0023 1741.06 11.0023 Q1746.97 11.0023 1752.28 12.4606 Q1757.63 13.9189 1762.12 16.7545 L1762.12 25.464 Q1757.59 21.6156 1752.48 19.6712 Q1747.38 17.7268 1741.75 17.7268 Q1730.65 17.7268 1725.06 23.9246 Q1719.51 30.1225 1719.51 42.3968 Q1719.51 54.6305 1725.06 60.8284 Q1730.65 67.0263 1741.75 67.0263 Q1746.08 67.0263 1749.49 66.2971 Q1752.89 65.5274 1755.6 63.9476 Z" fill="#000000" fill-rule="nonzero" fill-opacity="1" /><path clip-path="url(#clip890)" d="M1798.95 49.7694 Q1789.91 49.7694 1786.43 51.8354 Q1782.95 53.9013 1782.95 58.8839 Q1782.95 62.8538 1785.54 65.2034 Q1788.17 67.5124 1792.67 67.5124 Q1798.87 67.5124 1802.59 63.1374 Q1806.36 58.7219 1806.36 51.4303 L1806.36 49.7694 L1798.95 49.7694 M1813.81 46.6907 L1813.81 72.576 L1806.36 72.576 L1806.36 65.6895 Q1803.81 69.8214 1800 71.8063 Q1796.19 73.7508 1790.68 73.7508 Q1783.72 73.7508 1779.58 69.8619 Q1775.49 65.9325 1775.49 59.3701 Q1775.49 51.7138 1780.6 47.825 Q1785.74 43.9361 1795.91 43.9361 L1806.36 43.9361 L1806.36 43.2069 Q1806.36 38.0623 1802.96 35.2672 Q1799.59 32.4315 1793.48 32.4315 Q1789.59 32.4315 1785.9 33.3632 Q1782.22 34.295 1778.81 36.1584 L1778.81 29.2718 Q1782.91 27.692 1786.75 26.9223 Q1790.6 26.1121 1794.25 26.1121 Q1804.09 26.1121 1808.95 31.2163 Q1813.81 36.3204 1813.81 46.6907 Z" fill="#000000" fill-rule="nonzero" fill-opacity="1" /><path clip-path="url(#clip890)" d="M1828.4 54.671 L1828.4 27.2059 L1835.85 27.2059 L1835.85 54.3874 Q1835.85 60.8284 1838.36 64.0691 Q1840.87 67.2693 1845.9 67.2693 Q1851.93 67.2693 1855.42 63.421 Q1858.94 59.5726 1858.94 52.9291 L1858.94 27.2059 L1866.39 27.2059 L1866.39 72.576 L1858.94 72.576 L1858.94 65.6084 Q1856.23 69.7404 1852.62 71.7658 Q1849.06 73.7508 1844.32 73.7508 Q1836.5 73.7508 1832.45 68.8897 Q1828.4 64.0286 1828.4 54.671 M1847.15 26.1121 L1847.15 26.1121 Z" fill="#000000" fill-rule="nonzero" fill-opacity="1" /><path clip-path="url(#clip890)" d="M1910.67 28.5427 L1910.67 35.5912 Q1907.51 33.9709 1904.11 33.1607 Q1900.71 32.3505 1897.06 32.3505 Q1891.51 32.3505 1888.71 34.0519 Q1885.96 35.7533 1885.96 39.156 Q1885.96 41.7486 1887.95 43.2475 Q1889.93 44.7058 1895.93 46.0426 L1898.48 46.6097 Q1906.42 48.3111 1909.74 51.4303 Q1913.1 54.509 1913.1 60.0587 Q1913.1 66.3781 1908.08 70.0644 Q1903.1 73.7508 1894.35 73.7508 Q1890.7 73.7508 1886.73 73.0216 Q1882.8 72.3329 1878.43 70.9151 L1878.43 63.2184 Q1882.56 65.3654 1886.57 66.4591 Q1890.58 67.5124 1894.51 67.5124 Q1899.77 67.5124 1902.61 65.73 Q1905.45 63.9071 1905.45 60.6258 Q1905.45 57.5877 1903.38 55.9673 Q1901.35 54.3469 1894.43 52.8481 L1891.83 52.2405 Q1884.91 50.7821 1881.83 47.7845 Q1878.75 44.7463 1878.75 39.4801 Q1878.75 33.0797 1883.29 29.5959 Q1887.82 26.1121 1896.17 26.1121 Q1900.3 26.1121 1903.95 26.7198 Q1907.59 27.3274 1910.67 28.5427 Z" fill="#000000" fill-rule="nonzero" fill-opacity="1" /><path clip-path="url(#clip890)" d="M1953.89 28.5427 L1953.89 35.5912 Q1950.73 33.9709 1947.33 33.1607 Q1943.93 32.3505 1940.28 32.3505 Q1934.73 32.3505 1931.94 34.0519 Q1929.18 35.7533 1929.18 39.156 Q1929.18 41.7486 1931.17 43.2475 Q1933.15 44.7058 1939.15 46.0426 L1941.7 46.6097 Q1949.64 48.3111 1952.96 51.4303 Q1956.32 54.509 1956.32 60.0587 Q1956.32 66.3781 1951.3 70.0644 Q1946.32 73.7508 1937.57 73.7508 Q1933.92 73.7508 1929.95 73.0216 Q1926.02 72.3329 1921.65 70.9151 L1921.65 63.2184 Q1925.78 65.3654 1929.79 66.4591 Q1933.8 67.5124 1937.73 67.5124 Q1943 67.5124 1945.83 65.73 Q1948.67 63.9071 1948.67 60.6258 Q1948.67 57.5877 1946.6 55.9673 Q1944.58 54.3469 1937.65 52.8481 L1935.06 52.2405 Q1928.13 50.7821 1925.05 47.7845 Q1921.97 44.7463 1921.97 39.4801 Q1921.97 33.0797 1926.51 29.5959 Q1931.05 26.1121 1939.39 26.1121 Q1943.52 26.1121 1947.17 26.7198 Q1950.82 27.3274 1953.89 28.5427 Z" fill="#000000" fill-rule="nonzero" fill-opacity="1" /><path clip-path="url(#clip890)" d="M1968.19 27.2059 L1975.65 27.2059 L1975.65 72.576 L1968.19 72.576 L1968.19 27.2059 M1968.19 9.54393 L1975.65 9.54393 L1975.65 18.9825 L1968.19 18.9825 L1968.19 9.54393 Z" fill="#000000" fill-rule="nonzero" fill-opacity="1" /><path clip-path="url(#clip890)" d="M2011.86 49.7694 Q2002.83 49.7694 1999.35 51.8354 Q1995.86 53.9013 1995.86 58.8839 Q1995.86 62.8538 1998.45 65.2034 Q2001.09 67.5124 2005.58 67.5124 Q2011.78 67.5124 2015.51 63.1374 Q2019.28 58.7219 2019.28 51.4303 L2019.28 49.7694 L2011.86 49.7694 M2026.73 46.6907 L2026.73 72.576 L2019.28 72.576 L2019.28 65.6895 Q2016.72 69.8214 2012.92 71.8063 Q2009.11 73.7508 2003.6 73.7508 Q1996.63 73.7508 1992.5 69.8619 Q1988.41 65.9325 1988.41 59.3701 Q1988.41 51.7138 1993.51 47.825 Q1998.66 43.9361 2008.82 43.9361 L2019.28 43.9361 L2019.28 43.2069 Q2019.28 38.0623 2015.87 35.2672 Q2012.51 32.4315 2006.39 32.4315 Q2002.5 32.4315 1998.82 33.3632 Q1995.13 34.295 1991.73 36.1584 L1991.73 29.2718 Q1995.82 27.692 1999.67 26.9223 Q2003.52 26.1121 2007.16 26.1121 Q2017.01 26.1121 2021.87 31.2163 Q2026.73 36.3204 2026.73 46.6907 Z" fill="#000000" fill-rule="nonzero" fill-opacity="1" /><path clip-path="url(#clip890)" d="M2079.8 45.1919 L2079.8 72.576 L2072.34 72.576 L2072.34 45.4349 Q2072.34 38.994 2069.83 35.7938 Q2067.32 32.5936 2062.3 32.5936 Q2056.26 32.5936 2052.78 36.4419 Q2049.29 40.2903 2049.29 46.9338 L2049.29 72.576 L2041.8 72.576 L2041.8 27.2059 L2049.29 27.2059 L2049.29 34.2544 Q2051.97 30.163 2055.57 28.1376 Q2059.22 26.1121 2063.96 26.1121 Q2071.78 26.1121 2075.79 30.9732 Q2079.8 35.7938 2079.8 45.1919 Z" fill="#000000" fill-rule="nonzero" fill-opacity="1" /><path clip-path="url(#clip890)" d="M2156.36 35.9153 Q2159.15 30.8922 2163.04 28.5022 Q2166.93 26.1121 2172.2 26.1121 Q2179.29 26.1121 2183.13 31.0947 Q2186.98 36.0368 2186.98 45.1919 L2186.98 72.576 L2179.49 72.576 L2179.49 45.4349 Q2179.49 38.913 2177.18 35.7533 Q2174.87 32.5936 2170.13 32.5936 Q2164.34 32.5936 2160.98 36.4419 Q2157.61 40.2903 2157.61 46.9338 L2157.61 72.576 L2150.12 72.576 L2150.12 45.4349 Q2150.12 38.8725 2147.81 35.7533 Q2145.5 32.5936 2140.68 32.5936 Q2134.97 32.5936 2131.61 36.4824 Q2128.24 40.3308 2128.24 46.9338 L2128.24 72.576 L2120.75 72.576 L2120.75 27.2059 L2128.24 27.2059 L2128.24 34.2544 Q2130.8 30.082 2134.36 28.0971 Q2137.93 26.1121 2142.83 26.1121 Q2147.77 26.1121 2151.21 28.6237 Q2154.7 31.1352 2156.36 35.9153 Z" fill="#000000" fill-rule="nonzero" fill-opacity="1" /><path clip-path="url(#clip890)" d="M2219.43 32.4315 Q2213.44 32.4315 2209.95 37.1306 Q2206.47 41.7891 2206.47 49.9314 Q2206.47 58.0738 2209.91 62.7728 Q2213.39 67.4314 2219.43 67.4314 Q2225.39 67.4314 2228.87 62.7323 Q2232.35 58.0333 2232.35 49.9314 Q2232.35 41.8701 2228.87 37.1711 Q2225.39 32.4315 2219.43 32.4315 M2219.43 26.1121 Q2229.15 26.1121 2234.7 32.4315 Q2240.25 38.7509 2240.25 49.9314 Q2240.25 61.0714 2234.7 67.4314 Q2229.15 73.7508 2219.43 73.7508 Q2209.67 73.7508 2204.12 67.4314 Q2198.61 61.0714 2198.61 49.9314 Q2198.61 38.7509 2204.12 32.4315 Q2209.67 26.1121 2219.43 26.1121 Z" fill="#000000" fill-rule="nonzero" fill-opacity="1" /><path clip-path="url(#clip890)" d="M2282.46 34.0924 L2282.46 9.54393 L2289.92 9.54393 L2289.92 72.576 L2282.46 72.576 L2282.46 65.7705 Q2280.11 69.8214 2276.51 71.8063 Q2272.94 73.7508 2267.92 73.7508 Q2259.7 73.7508 2254.51 67.1883 Q2249.37 60.6258 2249.37 49.9314 Q2249.37 39.2371 2254.51 32.6746 Q2259.7 26.1121 2267.92 26.1121 Q2272.94 26.1121 2276.51 28.0971 Q2280.11 30.0415 2282.46 34.0924 M2257.06 49.9314 Q2257.06 58.1548 2260.43 62.8538 Q2263.83 67.5124 2269.74 67.5124 Q2275.66 67.5124 2279.06 62.8538 Q2282.46 58.1548 2282.46 49.9314 Q2282.46 41.7081 2279.06 37.0496 Q2275.66 32.3505 2269.74 32.3505 Q2263.83 32.3505 2260.43 37.0496 Q2257.06 41.7081 2257.06 49.9314 Z" fill="#000000" fill-rule="nonzero" fill-opacity="1" /><path clip-path="url(#clip890)" d="M2344.08 48.0275 L2344.08 51.6733 L2309.81 51.6733 Q2310.29 59.3701 2314.42 63.421 Q2318.6 67.4314 2326.01 67.4314 Q2330.3 67.4314 2334.31 66.3781 Q2338.37 65.3249 2342.34 63.2184 L2342.34 70.267 Q2338.32 71.9684 2334.11 72.8596 Q2329.9 73.7508 2325.56 73.7508 Q2314.71 73.7508 2308.35 67.4314 Q2302.03 61.1119 2302.03 50.3365 Q2302.03 39.1965 2308.02 32.6746 Q2314.06 26.1121 2324.27 26.1121 Q2333.42 26.1121 2338.73 32.0264 Q2344.08 37.9003 2344.08 48.0275 M2336.62 45.84 Q2336.54 39.7232 2333.18 36.0774 Q2329.86 32.4315 2324.35 32.4315 Q2318.11 32.4315 2314.34 35.9558 Q2310.62 39.4801 2310.05 45.8805 L2336.62 45.84 Z" fill="#000000" fill-rule="nonzero" fill-opacity="1" /><path clip-path="url(#clip890)" d="M2356.31 9.54393 L2363.76 9.54393 L2363.76 72.576 L2356.31 72.576 L2356.31 9.54393 Z" fill="#000000" fill-rule="nonzero" fill-opacity="1" /><path clip-path="url(#clip890)" d="M2378.19 9.62495 L2384.67 9.62495 Q2390.74 19.1851 2393.74 28.3401 Q2396.78 37.4952 2396.78 46.5287 Q2396.78 55.6027 2393.74 64.7983 Q2390.74 73.9938 2384.67 83.5134 L2378.19 83.5134 Q2383.57 74.2369 2386.21 65.0818 Q2388.88 55.8863 2388.88 46.5287 Q2388.88 37.1711 2386.21 28.0566 Q2383.57 18.942 2378.19 9.62495 Z" fill="#000000" fill-rule="nonzero" fill-opacity="1" /><path clip-path="url(#clip891)" d="M342.193 1729.65 L342.193 1734.12 L407.792 1734.12 L407.792 1729.65 L342.193 1729.65 L342.193 1729.65  Z" fill="#4682b4" fill-rule="evenodd" fill-opacity="0.7"/>
<polyline clip-path="url(#clip891)" style="stroke:#000000; stroke-linecap:round; stroke-linejoin:round; stroke-width:4; stroke-opacity:0.7; fill:none" points="342.193,1729.65 342.193,1734.12 407.792,1734.12 407.792,1729.65 342.193,1729.65 "/>
<path clip-path="url(#clip891)" d="M407.792 1729.65 L407.792 1734.12 L473.391 1734.12 L473.391 1729.65 L407.792 1729.65 L407.792 1729.65  Z" fill="#4682b4" fill-rule="evenodd" fill-opacity="0.7"/>
<polyline clip-path="url(#clip891)" style="stroke:#000000; stroke-linecap:round; stroke-linejoin:round; stroke-width:4; stroke-opacity:0.7; fill:none" points="407.792,1729.65 407.792,1734.12 473.391,1734.12 473.391,1729.65 407.792,1729.65 "/>
<path clip-path="url(#clip891)" d="M473.391 1716.27 L473.391 1734.12 L538.991 1734.12 L538.991 1716.27 L473.391 1716.27 L473.391 1716.27  Z" fill="#4682b4" fill-rule="evenodd" fill-opacity="0.7"/>
<polyline clip-path="url(#clip891)" style="stroke:#000000; stroke-linecap:round; stroke-linejoin:round; stroke-width:4; stroke-opacity:0.7; fill:none" points="473.391,1716.27 473.391,1734.12 538.991,1734.12 538.991,1716.27 473.391,1716.27 "/>
<path clip-path="url(#clip891)" d="M538.991 1702.88 L538.991 1734.12 L604.59 1734.12 L604.59 1702.88 L538.991 1702.88 L538.991 1702.88  Z" fill="#4682b4" fill-rule="evenodd" fill-opacity="0.7"/>
<polyline clip-path="url(#clip891)" style="stroke:#000000; stroke-linecap:round; stroke-linejoin:round; stroke-width:4; stroke-opacity:0.7; fill:none" points="538.991,1702.88 538.991,1734.12 604.59,1734.12 604.59,1702.88 538.991,1702.88 "/>
<path clip-path="url(#clip891)" d="M604.59 1698.42 L604.59 1734.12 L670.19 1734.12 L670.19 1698.42 L604.59 1698.42 L604.59 1698.42  Z" fill="#4682b4" fill-rule="evenodd" fill-opacity="0.7"/>
<polyline clip-path="url(#clip891)" style="stroke:#000000; stroke-linecap:round; stroke-linejoin:round; stroke-width:4; stroke-opacity:0.7; fill:none" points="604.59,1698.42 604.59,1734.12 670.19,1734.12 670.19,1698.42 604.59,1698.42 "/>
<path clip-path="url(#clip891)" d="M670.19 1653.8 L670.19 1734.12 L735.789 1734.12 L735.789 1653.8 L670.19 1653.8 L670.19 1653.8  Z" fill="#4682b4" fill-rule="evenodd" fill-opacity="0.7"/>
<polyline clip-path="url(#clip891)" style="stroke:#000000; stroke-linecap:round; stroke-linejoin:round; stroke-width:4; stroke-opacity:0.7; fill:none" points="670.19,1653.8 670.19,1734.12 735.789,1734.12 735.789,1653.8 670.19,1653.8 "/>
<path clip-path="url(#clip891)" d="M735.789 1627.03 L735.789 1734.12 L801.388 1734.12 L801.388 1627.03 L735.789 1627.03 L735.789 1627.03  Z" fill="#4682b4" fill-rule="evenodd" fill-opacity="0.7"/>
<polyline clip-path="url(#clip891)" style="stroke:#000000; stroke-linecap:round; stroke-linejoin:round; stroke-width:4; stroke-opacity:0.7; fill:none" points="735.789,1627.03 735.789,1734.12 801.388,1734.12 801.388,1627.03 735.789,1627.03 "/>
<path clip-path="url(#clip891)" d="M801.388 1560.1 L801.388 1734.12 L866.988 1734.12 L866.988 1560.1 L801.388 1560.1 L801.388 1560.1  Z" fill="#4682b4" fill-rule="evenodd" fill-opacity="0.7"/>
<polyline clip-path="url(#clip891)" style="stroke:#000000; stroke-linecap:round; stroke-linejoin:round; stroke-width:4; stroke-opacity:0.7; fill:none" points="801.388,1560.1 801.388,1734.12 866.988,1734.12 866.988,1560.1 801.388,1560.1 "/>
<path clip-path="url(#clip891)" d="M866.988 1430.7 L866.988 1734.12 L932.587 1734.12 L932.587 1430.7 L866.988 1430.7 L866.988 1430.7  Z" fill="#4682b4" fill-rule="evenodd" fill-opacity="0.7"/>
<polyline clip-path="url(#clip891)" style="stroke:#000000; stroke-linecap:round; stroke-linejoin:round; stroke-width:4; stroke-opacity:0.7; fill:none" points="866.988,1430.7 866.988,1734.12 932.587,1734.12 932.587,1430.7 866.988,1430.7 "/>
<path clip-path="url(#clip891)" d="M932.587 1243.3 L932.587 1734.12 L998.186 1734.12 L998.186 1243.3 L932.587 1243.3 L932.587 1243.3  Z" fill="#4682b4" fill-rule="evenodd" fill-opacity="0.7"/>
<polyline clip-path="url(#clip891)" style="stroke:#000000; stroke-linecap:round; stroke-linejoin:round; stroke-width:4; stroke-opacity:0.7; fill:none" points="932.587,1243.3 932.587,1734.12 998.186,1734.12 998.186,1243.3 932.587,1243.3 "/>
<path clip-path="url(#clip891)" d="M998.186 1051.43 L998.186 1734.12 L1063.79 1734.12 L1063.79 1051.43 L998.186 1051.43 L998.186 1051.43  Z" fill="#4682b4" fill-rule="evenodd" fill-opacity="0.7"/>
<polyline clip-path="url(#clip891)" style="stroke:#000000; stroke-linecap:round; stroke-linejoin:round; stroke-width:4; stroke-opacity:0.7; fill:none" points="998.186,1051.43 998.186,1734.12 1063.79,1734.12 1063.79,1051.43 998.186,1051.43 "/>
<path clip-path="url(#clip891)" d="M1063.79 877.41 L1063.79 1734.12 L1129.39 1734.12 L1129.39 877.41 L1063.79 877.41 L1063.79 877.41  Z" fill="#4682b4" fill-rule="evenodd" fill-opacity="0.7"/>
<polyline clip-path="url(#clip891)" style="stroke:#000000; stroke-linecap:round; stroke-linejoin:round; stroke-width:4; stroke-opacity:0.7; fill:none" points="1063.79,877.41 1063.79,1734.12 1129.39,1734.12 1129.39,877.41 1063.79,877.41 "/>
<path clip-path="url(#clip891)" d="M1129.39 591.842 L1129.39 1734.12 L1194.98 1734.12 L1194.98 591.842 L1129.39 591.842 L1129.39 591.842  Z" fill="#4682b4" fill-rule="evenodd" fill-opacity="0.7"/>
<polyline clip-path="url(#clip891)" style="stroke:#000000; stroke-linecap:round; stroke-linejoin:round; stroke-width:4; stroke-opacity:0.7; fill:none" points="1129.39,591.842 1129.39,1734.12 1194.98,1734.12 1194.98,591.842 1129.39,591.842 "/>
<path clip-path="url(#clip891)" d="M1194.98 462.443 L1194.98 1734.12 L1260.58 1734.12 L1260.58 462.443 L1194.98 462.443 L1194.98 462.443  Z" fill="#4682b4" fill-rule="evenodd" fill-opacity="0.7"/>
<polyline clip-path="url(#clip891)" style="stroke:#000000; stroke-linecap:round; stroke-linejoin:round; stroke-width:4; stroke-opacity:0.7; fill:none" points="1194.98,462.443 1194.98,1734.12 1260.58,1734.12 1260.58,462.443 1194.98,462.443 "/>
<path clip-path="url(#clip891)" d="M1260.58 243.804 L1260.58 1734.12 L1326.18 1734.12 L1326.18 243.804 L1260.58 243.804 L1260.58 243.804  Z" fill="#4682b4" fill-rule="evenodd" fill-opacity="0.7"/>
<polyline clip-path="url(#clip891)" style="stroke:#000000; stroke-linecap:round; stroke-linejoin:round; stroke-width:4; stroke-opacity:0.7; fill:none" points="1260.58,243.804 1260.58,1734.12 1326.18,1734.12 1326.18,243.804 1260.58,243.804 "/>
<path clip-path="url(#clip891)" d="M1326.18 127.792 L1326.18 1734.12 L1391.78 1734.12 L1391.78 127.792 L1326.18 127.792 L1326.18 127.792  Z" fill="#4682b4" fill-rule="evenodd" fill-opacity="0.7"/>
<polyline clip-path="url(#clip891)" style="stroke:#000000; stroke-linecap:round; stroke-linejoin:round; stroke-width:4; stroke-opacity:0.7; fill:none" points="1326.18,127.792 1326.18,1734.12 1391.78,1734.12 1391.78,127.792 1326.18,127.792 "/>
<path clip-path="url(#clip891)" d="M1391.78 194.722 L1391.78 1734.12 L1457.38 1734.12 L1457.38 194.722 L1391.78 194.722 L1391.78 194.722  Z" fill="#4682b4" fill-rule="evenodd" fill-opacity="0.7"/>
<polyline clip-path="url(#clip891)" style="stroke:#000000; stroke-linecap:round; stroke-linejoin:round; stroke-width:4; stroke-opacity:0.7; fill:none" points="1391.78,194.722 1391.78,1734.12 1457.38,1734.12 1457.38,194.722 1391.78,194.722 "/>
<path clip-path="url(#clip891)" d="M1457.38 221.494 L1457.38 1734.12 L1522.98 1734.12 L1522.98 221.494 L1457.38 221.494 L1457.38 221.494  Z" fill="#4682b4" fill-rule="evenodd" fill-opacity="0.7"/>
<polyline clip-path="url(#clip891)" style="stroke:#000000; stroke-linecap:round; stroke-linejoin:round; stroke-width:4; stroke-opacity:0.7; fill:none" points="1457.38,221.494 1457.38,1734.12 1522.98,1734.12 1522.98,221.494 1457.38,221.494 "/>
<path clip-path="url(#clip891)" d="M1522.98 315.197 L1522.98 1734.12 L1588.58 1734.12 L1588.58 315.197 L1522.98 315.197 L1522.98 315.197  Z" fill="#4682b4" fill-rule="evenodd" fill-opacity="0.7"/>
<polyline clip-path="url(#clip891)" style="stroke:#000000; stroke-linecap:round; stroke-linejoin:round; stroke-width:4; stroke-opacity:0.7; fill:none" points="1522.98,315.197 1522.98,1734.12 1588.58,1734.12 1588.58,315.197 1522.98,315.197 "/>
<path clip-path="url(#clip891)" d="M1588.58 533.835 L1588.58 1734.12 L1654.18 1734.12 L1654.18 533.835 L1588.58 533.835 L1588.58 533.835  Z" fill="#4682b4" fill-rule="evenodd" fill-opacity="0.7"/>
<polyline clip-path="url(#clip891)" style="stroke:#000000; stroke-linecap:round; stroke-linejoin:round; stroke-width:4; stroke-opacity:0.7; fill:none" points="1588.58,533.835 1588.58,1734.12 1654.18,1734.12 1654.18,533.835 1588.58,533.835 "/>
<path clip-path="url(#clip891)" d="M1654.18 690.006 L1654.18 1734.12 L1719.78 1734.12 L1719.78 690.006 L1654.18 690.006 L1654.18 690.006  Z" fill="#4682b4" fill-rule="evenodd" fill-opacity="0.7"/>
<polyline clip-path="url(#clip891)" style="stroke:#000000; stroke-linecap:round; stroke-linejoin:round; stroke-width:4; stroke-opacity:0.7; fill:none" points="1654.18,690.006 1654.18,1734.12 1719.78,1734.12 1719.78,690.006 1654.18,690.006 "/>
<path clip-path="url(#clip891)" d="M1719.78 841.714 L1719.78 1734.12 L1785.38 1734.12 L1785.38 841.714 L1719.78 841.714 L1719.78 841.714  Z" fill="#4682b4" fill-rule="evenodd" fill-opacity="0.7"/>
<polyline clip-path="url(#clip891)" style="stroke:#000000; stroke-linecap:round; stroke-linejoin:round; stroke-width:4; stroke-opacity:0.7; fill:none" points="1719.78,841.714 1719.78,1734.12 1785.38,1734.12 1785.38,841.714 1719.78,841.714 "/>
<path clip-path="url(#clip891)" d="M1785.38 1091.59 L1785.38 1734.12 L1850.98 1734.12 L1850.98 1091.59 L1785.38 1091.59 L1785.38 1091.59  Z" fill="#4682b4" fill-rule="evenodd" fill-opacity="0.7"/>
<polyline clip-path="url(#clip891)" style="stroke:#000000; stroke-linecap:round; stroke-linejoin:round; stroke-width:4; stroke-opacity:0.7; fill:none" points="1785.38,1091.59 1785.38,1734.12 1850.98,1734.12 1850.98,1091.59 1785.38,1091.59 "/>
<path clip-path="url(#clip891)" d="M1850.98 1314.69 L1850.98 1734.12 L1916.58 1734.12 L1916.58 1314.69 L1850.98 1314.69 L1850.98 1314.69  Z" fill="#4682b4" fill-rule="evenodd" fill-opacity="0.7"/>
<polyline clip-path="url(#clip891)" style="stroke:#000000; stroke-linecap:round; stroke-linejoin:round; stroke-width:4; stroke-opacity:0.7; fill:none" points="1850.98,1314.69 1850.98,1734.12 1916.58,1734.12 1916.58,1314.69 1850.98,1314.69 "/>
<path clip-path="url(#clip891)" d="M1916.58 1412.85 L1916.58 1734.12 L1982.18 1734.12 L1982.18 1412.85 L1916.58 1412.85 L1916.58 1412.85  Z" fill="#4682b4" fill-rule="evenodd" fill-opacity="0.7"/>
<polyline clip-path="url(#clip891)" style="stroke:#000000; stroke-linecap:round; stroke-linejoin:round; stroke-width:4; stroke-opacity:0.7; fill:none" points="1916.58,1412.85 1916.58,1734.12 1982.18,1734.12 1982.18,1412.85 1916.58,1412.85 "/>
<path clip-path="url(#clip891)" d="M1982.18 1528.86 L1982.18 1734.12 L2047.78 1734.12 L2047.78 1528.86 L1982.18 1528.86 L1982.18 1528.86  Z" fill="#4682b4" fill-rule="evenodd" fill-opacity="0.7"/>
<polyline clip-path="url(#clip891)" style="stroke:#000000; stroke-linecap:round; stroke-linejoin:round; stroke-width:4; stroke-opacity:0.7; fill:none" points="1982.18,1528.86 1982.18,1734.12 2047.78,1734.12 2047.78,1528.86 1982.18,1528.86 "/>
<path clip-path="url(#clip891)" d="M2047.78 1582.41 L2047.78 1734.12 L2113.38 1734.12 L2113.38 1582.41 L2047.78 1582.41 L2047.78 1582.41  Z" fill="#4682b4" fill-rule="evenodd" fill-opacity="0.7"/>
<polyline clip-path="url(#clip891)" style="stroke:#000000; stroke-linecap:round; stroke-linejoin:round; stroke-width:4; stroke-opacity:0.7; fill:none" points="2047.78,1582.41 2047.78,1734.12 2113.38,1734.12 2113.38,1582.41 2047.78,1582.41 "/>
<path clip-path="url(#clip891)" d="M2113.38 1622.57 L2113.38 1734.12 L2178.98 1734.12 L2178.98 1622.57 L2113.38 1622.57 L2113.38 1622.57  Z" fill="#4682b4" fill-rule="evenodd" fill-opacity="0.7"/>
<polyline clip-path="url(#clip891)" style="stroke:#000000; stroke-linecap:round; stroke-linejoin:round; stroke-width:4; stroke-opacity:0.7; fill:none" points="2113.38,1622.57 2113.38,1734.12 2178.98,1734.12 2178.98,1622.57 2113.38,1622.57 "/>
<path clip-path="url(#clip891)" d="M2178.98 1702.88 L2178.98 1734.12 L2244.57 1734.12 L2244.57 1702.88 L2178.98 1702.88 L2178.98 1702.88  Z" fill="#4682b4" fill-rule="evenodd" fill-opacity="0.7"/>
<polyline clip-path="url(#clip891)" style="stroke:#000000; stroke-linecap:round; stroke-linejoin:round; stroke-width:4; stroke-opacity:0.7; fill:none" points="2178.98,1702.88 2178.98,1734.12 2244.57,1734.12 2244.57,1702.88 2178.98,1702.88 "/>
<path clip-path="url(#clip891)" d="M2244.57 1720.73 L2244.57 1734.12 L2310.17 1734.12 L2310.17 1720.73 L2244.57 1720.73 L2244.57 1720.73  Z" fill="#4682b4" fill-rule="evenodd" fill-opacity="0.7"/>
<polyline clip-path="url(#clip891)" style="stroke:#000000; stroke-linecap:round; stroke-linejoin:round; stroke-width:4; stroke-opacity:0.7; fill:none" points="2244.57,1720.73 2244.57,1734.12 2310.17,1734.12 2310.17,1720.73 2244.57,1720.73 "/>
<path clip-path="url(#clip891)" d="M2310.17 1707.34 L2310.17 1734.12 L2375.77 1734.12 L2375.77 1707.34 L2310.17 1707.34 L2310.17 1707.34  Z" fill="#4682b4" fill-rule="evenodd" fill-opacity="0.7"/>
<polyline clip-path="url(#clip891)" style="stroke:#000000; stroke-linecap:round; stroke-linejoin:round; stroke-width:4; stroke-opacity:0.7; fill:none" points="2310.17,1707.34 2310.17,1734.12 2375.77,1734.12 2375.77,1707.34 2310.17,1707.34 "/>
<path clip-path="url(#clip891)" d="M2375.77 1720.73 L2375.77 1734.12 L2441.37 1734.12 L2441.37 1720.73 L2375.77 1720.73 L2375.77 1720.73  Z" fill="#4682b4" fill-rule="evenodd" fill-opacity="0.7"/>
<polyline clip-path="url(#clip891)" style="stroke:#000000; stroke-linecap:round; stroke-linejoin:round; stroke-width:4; stroke-opacity:0.7; fill:none" points="2375.77,1720.73 2375.77,1734.12 2441.37,1734.12 2441.37,1720.73 2375.77,1720.73 "/>
<path clip-path="url(#clip891)" d="M2441.37 1729.65 L2441.37 1734.12 L2506.97 1734.12 L2506.97 1729.65 L2441.37 1729.65 L2441.37 1729.65  Z" fill="#4682b4" fill-rule="evenodd" fill-opacity="0.7"/>
<polyline clip-path="url(#clip891)" style="stroke:#000000; stroke-linecap:round; stroke-linejoin:round; stroke-width:4; stroke-opacity:0.7; fill:none" points="2441.37,1729.65 2441.37,1734.12 2506.97,1734.12 2506.97,1729.65 2441.37,1729.65 "/>
<circle clip-path="url(#clip891)" style="fill:#4682b4; stroke:none; fill-opacity:0" cx="374.992" cy="1729.65" r="2"/>
<circle clip-path="url(#clip891)" style="fill:#4682b4; stroke:none; fill-opacity:0" cx="440.592" cy="1729.65" r="2"/>
<circle clip-path="url(#clip891)" style="fill:#4682b4; stroke:none; fill-opacity:0" cx="506.191" cy="1716.27" r="2"/>
<circle clip-path="url(#clip891)" style="fill:#4682b4; stroke:none; fill-opacity:0" cx="571.79" cy="1702.88" r="2"/>
<circle clip-path="url(#clip891)" style="fill:#4682b4; stroke:none; fill-opacity:0" cx="637.39" cy="1698.42" r="2"/>
<circle clip-path="url(#clip891)" style="fill:#4682b4; stroke:none; fill-opacity:0" cx="702.989" cy="1653.8" r="2"/>
<circle clip-path="url(#clip891)" style="fill:#4682b4; stroke:none; fill-opacity:0" cx="768.589" cy="1627.03" r="2"/>
<circle clip-path="url(#clip891)" style="fill:#4682b4; stroke:none; fill-opacity:0" cx="834.188" cy="1560.1" r="2"/>
<circle clip-path="url(#clip891)" style="fill:#4682b4; stroke:none; fill-opacity:0" cx="899.787" cy="1430.7" r="2"/>
<circle clip-path="url(#clip891)" style="fill:#4682b4; stroke:none; fill-opacity:0" cx="965.387" cy="1243.3" r="2"/>
<circle clip-path="url(#clip891)" style="fill:#4682b4; stroke:none; fill-opacity:0" cx="1030.99" cy="1051.43" r="2"/>
<circle clip-path="url(#clip891)" style="fill:#4682b4; stroke:none; fill-opacity:0" cx="1096.59" cy="877.41" r="2"/>
<circle clip-path="url(#clip891)" style="fill:#4682b4; stroke:none; fill-opacity:0" cx="1162.18" cy="591.842" r="2"/>
<circle clip-path="url(#clip891)" style="fill:#4682b4; stroke:none; fill-opacity:0" cx="1227.78" cy="462.443" r="2"/>
<circle clip-path="url(#clip891)" style="fill:#4682b4; stroke:none; fill-opacity:0" cx="1293.38" cy="243.804" r="2"/>
<circle clip-path="url(#clip891)" style="fill:#4682b4; stroke:none; fill-opacity:0" cx="1424.58" cy="194.722" r="2"/>
<circle clip-path="url(#clip891)" style="fill:#4682b4; stroke:none; fill-opacity:0" cx="1490.18" cy="221.494" r="2"/>
<circle clip-path="url(#clip891)" style="fill:#4682b4; stroke:none; fill-opacity:0" cx="1555.78" cy="315.197" r="2"/>
<circle clip-path="url(#clip891)" style="fill:#4682b4; stroke:none; fill-opacity:0" cx="1621.38" cy="533.835" r="2"/>
<circle clip-path="url(#clip891)" style="fill:#4682b4; stroke:none; fill-opacity:0" cx="1686.98" cy="690.006" r="2"/>
<circle clip-path="url(#clip891)" style="fill:#4682b4; stroke:none; fill-opacity:0" cx="1752.58" cy="841.714" r="2"/>
<circle clip-path="url(#clip891)" style="fill:#4682b4; stroke:none; fill-opacity:0" cx="1818.18" cy="1091.59" r="2"/>
<circle clip-path="url(#clip891)" style="fill:#4682b4; stroke:none; fill-opacity:0" cx="1883.78" cy="1314.69" r="2"/>
<circle clip-path="url(#clip891)" style="fill:#4682b4; stroke:none; fill-opacity:0" cx="1949.38" cy="1412.85" r="2"/>
<circle clip-path="url(#clip891)" style="fill:#4682b4; stroke:none; fill-opacity:0" cx="2014.98" cy="1528.86" r="2"/>
<circle clip-path="url(#clip891)" style="fill:#4682b4; stroke:none; fill-opacity:0" cx="2080.58" cy="1582.41" r="2"/>
<circle clip-path="url(#clip891)" style="fill:#4682b4; stroke:none; fill-opacity:0" cx="2146.18" cy="1622.57" r="2"/>
<circle clip-path="url(#clip891)" style="fill:#4682b4; stroke:none; fill-opacity:0" cx="2211.78" cy="1702.88" r="2"/>
<circle clip-path="url(#clip891)" style="fill:#4682b4; stroke:none; fill-opacity:0" cx="2277.37" cy="1720.73" r="2"/>
<circle clip-path="url(#clip891)" style="fill:#4682b4; stroke:none; fill-opacity:0" cx="2342.97" cy="1707.34" r="2"/>
<circle clip-path="url(#clip891)" style="fill:#4682b4; stroke:none; fill-opacity:0" cx="2408.57" cy="1720.73" r="2"/>
<circle clip-path="url(#clip891)" style="fill:#4682b4; stroke:none; fill-opacity:0" cx="2474.17" cy="1729.65" r="2"/>
<polyline clip-path="url(#clip891)" style="stroke:#ff0000; stroke-linecap:round; stroke-linejoin:round; stroke-width:8; stroke-opacity:1; fill:none" points="1419.94,3340.44 1419.94,-1478.53 "/>
<path clip-path="url(#clip890)" d="M2059.96 336.856 L2559.68 336.856 L2559.68 181.336 L2059.96 181.336  Z" fill="#ffffff" fill-rule="evenodd" fill-opacity="1"/>
<polyline clip-path="url(#clip890)" style="stroke:#000000; stroke-linecap:round; stroke-linejoin:round; stroke-width:4; stroke-opacity:1; fill:none" points="2059.96,336.856 2559.68,336.856 2559.68,181.336 2059.96,181.336 2059.96,336.856 "/>
<path clip-path="url(#clip890)" d="M2086.99 253.912 L2249.15 253.912 L2249.15 212.44 L2086.99 212.44 L2086.99 253.912  Z" fill="#4682b4" fill-rule="evenodd" fill-opacity="0.7"/>
<polyline clip-path="url(#clip890)" style="stroke:#000000; stroke-linecap:round; stroke-linejoin:round; stroke-width:4; stroke-opacity:1; fill:none" points="2086.99,253.912 2249.15,253.912 2249.15,212.44 2086.99,212.44 2086.99,253.912 "/>
<path clip-path="url(#clip890)" d="M2280.45 246.567 L2280.45 260.317 L2276.17 260.317 L2276.17 224.531 L2280.45 224.531 L2280.45 228.466 Q2281.8 226.151 2283.83 225.04 Q2285.89 223.906 2288.74 223.906 Q2293.46 223.906 2296.4 227.655 Q2299.37 231.405 2299.37 237.517 Q2299.37 243.628 2296.4 247.378 Q2293.46 251.128 2288.74 251.128 Q2285.89 251.128 2283.83 250.016 Q2281.8 248.882 2280.45 246.567 M2294.94 237.517 Q2294.94 232.817 2293 230.155 Q2291.08 227.47 2287.7 227.47 Q2284.32 227.47 2282.38 230.155 Q2280.45 232.817 2280.45 237.517 Q2280.45 242.216 2282.38 244.901 Q2284.32 247.563 2287.7 247.563 Q2291.08 247.563 2293 244.901 Q2294.94 242.216 2294.94 237.517 Z" fill="#000000" fill-rule="nonzero" fill-opacity="1" /><path clip-path="url(#clip890)" d="M2316.47 227.517 Q2313.05 227.517 2311.06 230.202 Q2309.06 232.864 2309.06 237.517 Q2309.06 242.169 2311.03 244.854 Q2313.02 247.516 2316.47 247.516 Q2319.87 247.516 2321.87 244.831 Q2323.86 242.146 2323.86 237.517 Q2323.86 232.91 2321.87 230.225 Q2319.87 227.517 2316.47 227.517 M2316.47 223.906 Q2322.03 223.906 2325.2 227.517 Q2328.37 231.128 2328.37 237.517 Q2328.37 243.882 2325.2 247.516 Q2322.03 251.128 2316.47 251.128 Q2310.89 251.128 2307.72 247.516 Q2304.57 243.882 2304.57 237.517 Q2304.57 231.128 2307.72 227.517 Q2310.89 223.906 2316.47 223.906 Z" fill="#000000" fill-rule="nonzero" fill-opacity="1" /><path clip-path="url(#clip890)" d="M2351.96 225.294 L2351.96 229.322 Q2350.15 228.396 2348.21 227.933 Q2346.26 227.47 2344.18 227.47 Q2341.01 227.47 2339.41 228.443 Q2337.84 229.415 2337.84 231.359 Q2337.84 232.841 2338.97 233.697 Q2340.11 234.53 2343.53 235.294 L2344.99 235.618 Q2349.53 236.591 2351.43 238.373 Q2353.35 240.132 2353.35 243.304 Q2353.35 246.915 2350.48 249.021 Q2347.63 251.128 2342.63 251.128 Q2340.55 251.128 2338.28 250.711 Q2336.03 250.317 2333.53 249.507 L2333.53 245.109 Q2335.89 246.336 2338.19 246.961 Q2340.48 247.563 2342.72 247.563 Q2345.73 247.563 2347.35 246.544 Q2348.97 245.503 2348.97 243.628 Q2348.97 241.892 2347.79 240.966 Q2346.63 240.04 2342.68 239.183 L2341.19 238.836 Q2337.24 238.003 2335.48 236.29 Q2333.72 234.554 2333.72 231.544 Q2333.72 227.887 2336.31 225.896 Q2338.9 223.906 2343.67 223.906 Q2346.03 223.906 2348.12 224.253 Q2350.2 224.6 2351.96 225.294 Z" fill="#000000" fill-rule="nonzero" fill-opacity="1" /><path clip-path="url(#clip890)" d="M2364.34 217.169 L2364.34 224.531 L2373.12 224.531 L2373.12 227.841 L2364.34 227.841 L2364.34 241.915 Q2364.34 245.086 2365.2 245.989 Q2366.08 246.891 2368.74 246.891 L2373.12 246.891 L2373.12 250.456 L2368.74 250.456 Q2363.81 250.456 2361.93 248.628 Q2360.06 246.776 2360.06 241.915 L2360.06 227.841 L2356.93 227.841 L2356.93 224.531 L2360.06 224.531 L2360.06 217.169 L2364.34 217.169 Z" fill="#000000" fill-rule="nonzero" fill-opacity="1" /><path clip-path="url(#clip890)" d="M2400.89 236.429 L2400.89 238.512 L2381.31 238.512 Q2381.59 242.91 2383.95 245.225 Q2386.33 247.516 2390.57 247.516 Q2393.02 247.516 2395.31 246.915 Q2397.63 246.313 2399.9 245.109 L2399.9 249.137 Q2397.61 250.109 2395.2 250.618 Q2392.79 251.128 2390.31 251.128 Q2384.11 251.128 2380.48 247.516 Q2376.87 243.905 2376.87 237.748 Q2376.87 231.382 2380.29 227.655 Q2383.74 223.906 2389.57 223.906 Q2394.81 223.906 2397.84 227.285 Q2400.89 230.642 2400.89 236.429 M2396.63 235.179 Q2396.59 231.683 2394.67 229.6 Q2392.77 227.517 2389.62 227.517 Q2386.06 227.517 2383.9 229.53 Q2381.77 231.544 2381.45 235.202 L2396.63 235.179 Z" fill="#000000" fill-rule="nonzero" fill-opacity="1" /><path clip-path="url(#clip890)" d="M2422.91 228.512 Q2422.19 228.095 2421.33 227.91 Q2420.5 227.702 2419.48 227.702 Q2415.87 227.702 2413.93 230.063 Q2412 232.401 2412 236.799 L2412 250.456 L2407.72 250.456 L2407.72 224.531 L2412 224.531 L2412 228.558 Q2413.35 226.197 2415.5 225.063 Q2417.65 223.906 2420.73 223.906 Q2421.17 223.906 2421.7 223.975 Q2422.24 224.021 2422.88 224.137 L2422.91 228.512 Z" fill="#000000" fill-rule="nonzero" fill-opacity="1" /><path clip-path="url(#clip890)" d="M2427.37 224.531 L2431.63 224.531 L2431.63 250.456 L2427.37 250.456 L2427.37 224.531 M2427.37 214.438 L2431.63 214.438 L2431.63 219.831 L2427.37 219.831 L2427.37 214.438 Z" fill="#000000" fill-rule="nonzero" fill-opacity="1" /><path clip-path="url(#clip890)" d="M2450.59 227.517 Q2447.17 227.517 2445.18 230.202 Q2443.18 232.864 2443.18 237.517 Q2443.18 242.169 2445.15 244.854 Q2447.14 247.516 2450.59 247.516 Q2453.99 247.516 2455.99 244.831 Q2457.98 242.146 2457.98 237.517 Q2457.98 232.91 2455.99 230.225 Q2453.99 227.517 2450.59 227.517 M2450.59 223.906 Q2456.15 223.906 2459.32 227.517 Q2462.49 231.128 2462.49 237.517 Q2462.49 243.882 2459.32 247.516 Q2456.15 251.128 2450.59 251.128 Q2445.01 251.128 2441.84 247.516 Q2438.69 243.882 2438.69 237.517 Q2438.69 231.128 2441.84 227.517 Q2445.01 223.906 2450.59 223.906 Z" fill="#000000" fill-rule="nonzero" fill-opacity="1" /><path clip-path="url(#clip890)" d="M2484.57 228.512 Q2483.86 228.095 2483 227.91 Q2482.17 227.702 2481.15 227.702 Q2477.54 227.702 2475.59 230.063 Q2473.67 232.401 2473.67 236.799 L2473.67 250.456 L2469.39 250.456 L2469.39 224.531 L2473.67 224.531 L2473.67 228.558 Q2475.01 226.197 2477.17 225.063 Q2479.32 223.906 2482.4 223.906 Q2482.84 223.906 2483.37 223.975 Q2483.9 224.021 2484.55 224.137 L2484.57 228.512 Z" fill="#000000" fill-rule="nonzero" fill-opacity="1" /><polyline clip-path="url(#clip890)" style="stroke:#ff0000; stroke-linecap:round; stroke-linejoin:round; stroke-width:8; stroke-opacity:1; fill:none" points="2086.99,285.016 2249.15,285.016 "/>
<path clip-path="url(#clip890)" d="M2292.68 266.278 L2292.68 269.82 L2288.6 269.82 Q2286.31 269.82 2285.41 270.746 Q2284.53 271.671 2284.53 274.079 L2284.53 276.371 L2291.54 276.371 L2291.54 279.681 L2284.53 279.681 L2284.53 302.296 L2280.25 302.296 L2280.25 279.681 L2276.17 279.681 L2276.17 276.371 L2280.25 276.371 L2280.25 274.565 Q2280.25 270.236 2282.26 268.269 Q2284.27 266.278 2288.65 266.278 L2292.68 266.278 Z" fill="#000000" fill-rule="nonzero" fill-opacity="1" /><path clip-path="url(#clip890)" d="M2311.26 280.352 Q2310.55 279.935 2309.69 279.75 Q2308.86 279.542 2307.84 279.542 Q2304.23 279.542 2302.28 281.903 Q2300.36 284.241 2300.36 288.639 L2300.36 302.296 L2296.08 302.296 L2296.08 276.371 L2300.36 276.371 L2300.36 280.398 Q2301.7 278.037 2303.86 276.903 Q2306.01 275.746 2309.09 275.746 Q2309.53 275.746 2310.06 275.815 Q2310.59 275.861 2311.24 275.977 L2311.26 280.352 Z" fill="#000000" fill-rule="nonzero" fill-opacity="1" /><path clip-path="url(#clip890)" d="M2336.87 288.269 L2336.87 290.352 L2317.28 290.352 Q2317.56 294.75 2319.92 297.065 Q2322.31 299.356 2326.54 299.356 Q2329 299.356 2331.29 298.755 Q2333.6 298.153 2335.87 296.949 L2335.87 300.977 Q2333.58 301.949 2331.17 302.458 Q2328.76 302.968 2326.29 302.968 Q2320.08 302.968 2316.45 299.356 Q2312.84 295.745 2312.84 289.588 Q2312.84 283.222 2316.26 279.495 Q2319.71 275.746 2325.55 275.746 Q2330.78 275.746 2333.81 279.125 Q2336.87 282.482 2336.87 288.269 M2332.61 287.019 Q2332.56 283.523 2330.64 281.44 Q2328.74 279.357 2325.59 279.357 Q2322.03 279.357 2319.87 281.37 Q2317.75 283.384 2317.42 287.042 L2332.61 287.019 Z" fill="#000000" fill-rule="nonzero" fill-opacity="1" /><path clip-path="url(#clip890)" d="M2346.4 289.357 Q2346.4 294.056 2348.32 296.741 Q2350.27 299.403 2353.65 299.403 Q2357.03 299.403 2358.97 296.741 Q2360.92 294.056 2360.92 289.357 Q2360.92 284.657 2358.97 281.995 Q2357.03 279.31 2353.65 279.31 Q2350.27 279.31 2348.32 281.995 Q2346.4 284.657 2346.4 289.357 M2360.92 298.407 Q2359.57 300.722 2357.51 301.856 Q2355.48 302.968 2352.61 302.968 Q2347.91 302.968 2344.94 299.218 Q2342 295.468 2342 289.357 Q2342 283.245 2344.94 279.495 Q2347.91 275.746 2352.61 275.746 Q2355.48 275.746 2357.51 276.88 Q2359.57 277.991 2360.92 280.306 L2360.92 276.371 L2365.18 276.371 L2365.18 312.157 L2360.92 312.157 L2360.92 298.407 Z" fill="#000000" fill-rule="nonzero" fill-opacity="1" /><path clip-path="url(#clip890)" d="M2373.51 292.065 L2373.51 276.371 L2377.77 276.371 L2377.77 291.903 Q2377.77 295.583 2379.2 297.435 Q2380.64 299.264 2383.51 299.264 Q2386.96 299.264 2388.95 297.065 Q2390.96 294.866 2390.96 291.069 L2390.96 276.371 L2395.22 276.371 L2395.22 302.296 L2390.96 302.296 L2390.96 298.315 Q2389.41 300.676 2387.35 301.833 Q2385.31 302.968 2382.61 302.968 Q2378.14 302.968 2375.82 300.19 Q2373.51 297.412 2373.51 292.065 M2384.23 275.746 L2384.23 275.746 Z" fill="#000000" fill-rule="nonzero" fill-opacity="1" /><path clip-path="url(#clip890)" d="M2426.17 288.269 L2426.17 290.352 L2406.59 290.352 Q2406.87 294.75 2409.23 297.065 Q2411.61 299.356 2415.85 299.356 Q2418.3 299.356 2420.59 298.755 Q2422.91 298.153 2425.18 296.949 L2425.18 300.977 Q2422.88 301.949 2420.48 302.458 Q2418.07 302.968 2415.59 302.968 Q2409.39 302.968 2405.75 299.356 Q2402.14 295.745 2402.14 289.588 Q2402.14 283.222 2405.57 279.495 Q2409.02 275.746 2414.85 275.746 Q2420.08 275.746 2423.12 279.125 Q2426.17 282.482 2426.17 288.269 M2421.91 287.019 Q2421.87 283.523 2419.94 281.44 Q2418.05 279.357 2414.9 279.357 Q2411.33 279.357 2409.18 281.37 Q2407.05 283.384 2406.73 287.042 L2421.91 287.019 Z" fill="#000000" fill-rule="nonzero" fill-opacity="1" /><path clip-path="url(#clip890)" d="M2454.71 286.648 L2454.71 302.296 L2450.45 302.296 L2450.45 286.787 Q2450.45 283.107 2449.02 281.278 Q2447.58 279.449 2444.71 279.449 Q2441.26 279.449 2439.27 281.648 Q2437.28 283.847 2437.28 287.644 L2437.28 302.296 L2433 302.296 L2433 276.371 L2437.28 276.371 L2437.28 280.398 Q2438.81 278.06 2440.87 276.903 Q2442.95 275.746 2445.66 275.746 Q2450.13 275.746 2452.42 278.523 Q2454.71 281.278 2454.71 286.648 Z" fill="#000000" fill-rule="nonzero" fill-opacity="1" /><path clip-path="url(#clip890)" d="M2467.42 269.009 L2467.42 276.371 L2476.19 276.371 L2476.19 279.681 L2467.42 279.681 L2467.42 293.755 Q2467.42 296.926 2468.28 297.829 Q2469.16 298.731 2471.82 298.731 L2476.19 298.731 L2476.19 302.296 L2471.82 302.296 Q2466.89 302.296 2465.01 300.468 Q2463.14 298.616 2463.14 293.755 L2463.14 279.681 L2460.01 279.681 L2460.01 276.371 L2463.14 276.371 L2463.14 269.009 L2467.42 269.009 Z" fill="#000000" fill-rule="nonzero" fill-opacity="1" /><path clip-path="url(#clip890)" d="M2481.8 276.371 L2486.05 276.371 L2486.05 302.296 L2481.8 302.296 L2481.8 276.371 M2481.8 266.278 L2486.05 266.278 L2486.05 271.671 L2481.8 271.671 L2481.8 266.278 Z" fill="#000000" fill-rule="nonzero" fill-opacity="1" /><path clip-path="url(#clip890)" d="M2511.49 277.134 L2511.49 281.162 Q2509.69 280.236 2507.74 279.773 Q2505.8 279.31 2503.72 279.31 Q2500.55 279.31 2498.95 280.283 Q2497.37 281.255 2497.37 283.199 Q2497.37 284.681 2498.51 285.537 Q2499.64 286.37 2503.07 287.134 L2504.53 287.458 Q2509.06 288.431 2510.96 290.213 Q2512.88 291.972 2512.88 295.144 Q2512.88 298.755 2510.01 300.861 Q2507.17 302.968 2502.17 302.968 Q2500.08 302.968 2497.81 302.551 Q2495.57 302.157 2493.07 301.347 L2493.07 296.949 Q2495.43 298.176 2497.72 298.801 Q2500.01 299.403 2502.26 299.403 Q2505.27 299.403 2506.89 298.384 Q2508.51 297.343 2508.51 295.468 Q2508.51 293.732 2507.33 292.806 Q2506.17 291.88 2502.21 291.023 L2500.73 290.676 Q2496.77 289.843 2495.01 288.13 Q2493.25 286.394 2493.25 283.384 Q2493.25 279.727 2495.85 277.736 Q2498.44 275.746 2503.21 275.746 Q2505.57 275.746 2507.65 276.093 Q2509.74 276.44 2511.49 277.134 Z" fill="#000000" fill-rule="nonzero" fill-opacity="1" /><path clip-path="url(#clip890)" d="M2523.88 269.009 L2523.88 276.371 L2532.65 276.371 L2532.65 279.681 L2523.88 279.681 L2523.88 293.755 Q2523.88 296.926 2524.73 297.829 Q2525.61 298.731 2528.28 298.731 L2532.65 298.731 L2532.65 302.296 L2528.28 302.296 Q2523.35 302.296 2521.47 300.468 Q2519.6 298.616 2519.6 293.755 L2519.6 279.681 L2516.47 279.681 L2516.47 276.371 L2519.6 276.371 L2519.6 269.009 L2523.88 269.009 Z" fill="#000000" fill-rule="nonzero" fill-opacity="1" /></svg>
