<?xml version="1.0" encoding="utf-8"?>
<svg xmlns="http://www.w3.org/2000/svg" xmlns:xlink="http://www.w3.org/1999/xlink" width="672" height="480" viewBox="0 0 2688 1920">
<defs>
  <clipPath id="clip170">
    <rect x="0" y="0" width="2688" height="1920"/>
  </clipPath>
</defs>
<path clip-path="url(#clip170)" d="M0 1920 L2688 1920 L2688 -4.26326e-14 L0 -4.26326e-14  Z" fill="#ffffff" fill-rule="evenodd" fill-opacity="1"/>
<defs>
  <clipPath id="clip171">
    <rect x="210" y="127" width="2432" height="1607"/>
  </clipPath>
</defs>
<path clip-path="url(#clip170)" d="M210.238 1734.12 L2640.76 1734.12 L2640.76 127.792 L210.238 127.792  Z" fill="#ffffff" fill-rule="evenodd" fill-opacity="1"/>
<polyline clip-path="url(#clip171)" style="stroke:#000000; stroke-linecap:round; stroke-linejoin:round; stroke-width:2; stroke-opacity:0.1; fill:none" points="532.021,1734.12 532.021,127.792 "/>
<polyline clip-path="url(#clip171)" style="stroke:#000000; stroke-linecap:round; stroke-linejoin:round; stroke-width:2; stroke-opacity:0.1; fill:none" points="1002.27,1734.12 1002.27,127.792 "/>
<polyline clip-path="url(#clip171)" style="stroke:#000000; stroke-linecap:round; stroke-linejoin:round; stroke-width:2; stroke-opacity:0.1; fill:none" points="1472.52,1734.12 1472.52,127.792 "/>
<polyline clip-path="url(#clip171)" style="stroke:#000000; stroke-linecap:round; stroke-linejoin:round; stroke-width:2; stroke-opacity:0.1; fill:none" points="1942.77,1734.12 1942.77,127.792 "/>
<polyline clip-path="url(#clip171)" style="stroke:#000000; stroke-linecap:round; stroke-linejoin:round; stroke-width:2; stroke-opacity:0.1; fill:none" points="2413.02,1734.12 2413.02,127.792 "/>
<polyline clip-path="url(#clip171)" style="stroke:#000000; stroke-linecap:round; stroke-linejoin:round; stroke-width:2; stroke-opacity:0.1; fill:none" points="210.238,1734.12 2640.76,1734.12 "/>
<polyline clip-path="url(#clip171)" style="stroke:#000000; stroke-linecap:round; stroke-linejoin:round; stroke-width:2; stroke-opacity:0.1; fill:none" points="210.238,1417.91 2640.76,1417.91 "/>
<polyline clip-path="url(#clip171)" style="stroke:#000000; stroke-linecap:round; stroke-linejoin:round; stroke-width:2; stroke-opacity:0.1; fill:none" points="210.238,1101.71 2640.76,1101.71 "/>
<polyline clip-path="url(#clip171)" style="stroke:#000000; stroke-linecap:round; stroke-linejoin:round; stroke-width:2; stroke-opacity:0.1; fill:none" points="210.238,785.5 2640.76,785.5 "/>
<polyline clip-path="url(#clip171)" style="stroke:#000000; stroke-linecap:round; stroke-linejoin:round; stroke-width:2; stroke-opacity:0.1; fill:none" points="210.238,469.294 2640.76,469.294 "/>
<polyline clip-path="url(#clip171)" style="stroke:#000000; stroke-linecap:round; stroke-linejoin:round; stroke-width:2; stroke-opacity:0.1; fill:none" points="210.238,153.089 2640.76,153.089 "/>
<polyline clip-path="url(#clip170)" style="stroke:#000000; stroke-linecap:round; stroke-linejoin:round; stroke-width:4; stroke-opacity:1; fill:none" points="210.238,1734.12 2640.76,1734.12 "/>
<polyline clip-path="url(#clip170)" style="stroke:#000000; stroke-linecap:round; stroke-linejoin:round; stroke-width:4; stroke-opacity:1; fill:none" points="532.021,1734.12 532.021,1715.22 "/>
<polyline clip-path="url(#clip170)" style="stroke:#000000; stroke-linecap:round; stroke-linejoin:round; stroke-width:4; stroke-opacity:1; fill:none" points="1002.27,1734.12 1002.27,1715.22 "/>
<polyline clip-path="url(#clip170)" style="stroke:#000000; stroke-linecap:round; stroke-linejoin:round; stroke-width:4; stroke-opacity:1; fill:none" points="1472.52,1734.12 1472.52,1715.22 "/>
<polyline clip-path="url(#clip170)" style="stroke:#000000; stroke-linecap:round; stroke-linejoin:round; stroke-width:4; stroke-opacity:1; fill:none" points="1942.77,1734.12 1942.77,1715.22 "/>
<polyline clip-path="url(#clip170)" style="stroke:#000000; stroke-linecap:round; stroke-linejoin:round; stroke-width:4; stroke-opacity:1; fill:none" points="2413.02,1734.12 2413.02,1715.22 "/>
<path clip-path="url(#clip170)" d="M479.741 1767.34 Q476.13 1767.34 474.301 1770.9 Q472.496 1774.45 472.496 1781.58 Q472.496 1788.68 474.301 1792.25 Q476.13 1795.79 479.741 1795.79 Q483.375 1795.79 485.181 1792.25 Q487.01 1788.68 487.01 1781.58 Q487.01 1774.45 485.181 1770.9 Q483.375 1767.34 479.741 1767.34 M479.741 1763.64 Q485.551 1763.64 488.607 1768.24 Q491.685 1772.83 491.685 1781.58 Q491.685 1790.3 488.607 1794.91 Q485.551 1799.49 479.741 1799.49 Q473.931 1799.49 470.852 1794.91 Q467.797 1790.3 467.797 1781.58 Q467.797 1772.83 470.852 1768.24 Q473.931 1763.64 479.741 1763.64 Z" fill="#000000" fill-rule="nonzero" fill-opacity="1" /><path clip-path="url(#clip170)" d="M499.903 1792.94 L504.787 1792.94 L504.787 1798.82 L499.903 1798.82 L499.903 1792.94 Z" fill="#000000" fill-rule="nonzero" fill-opacity="1" /><path clip-path="url(#clip170)" d="M519 1794.89 L535.319 1794.89 L535.319 1798.82 L513.375 1798.82 L513.375 1794.89 Q516.037 1792.13 520.62 1787.5 Q525.227 1782.85 526.407 1781.51 Q528.653 1778.98 529.532 1777.25 Q530.435 1775.49 530.435 1773.8 Q530.435 1771.04 528.491 1769.31 Q526.57 1767.57 523.468 1767.57 Q521.269 1767.57 518.815 1768.34 Q516.384 1769.1 513.607 1770.65 L513.607 1765.93 Q516.431 1764.79 518.884 1764.21 Q521.338 1763.64 523.375 1763.64 Q528.745 1763.64 531.94 1766.32 Q535.134 1769.01 535.134 1773.5 Q535.134 1775.63 534.324 1777.55 Q533.537 1779.45 531.431 1782.04 Q530.852 1782.71 527.75 1785.93 Q524.648 1789.12 519 1794.89 Z" fill="#000000" fill-rule="nonzero" fill-opacity="1" /><path clip-path="url(#clip170)" d="M543.954 1764.26 L566.176 1764.26 L566.176 1766.25 L553.63 1798.82 L548.745 1798.82 L560.551 1768.2 L543.954 1768.2 L543.954 1764.26 Z" fill="#000000" fill-rule="nonzero" fill-opacity="1" /><path clip-path="url(#clip170)" d="M575.342 1764.26 L593.699 1764.26 L593.699 1768.2 L579.625 1768.2 L579.625 1776.67 Q580.643 1776.32 581.662 1776.16 Q582.68 1775.97 583.699 1775.97 Q589.486 1775.97 592.865 1779.15 Q596.245 1782.32 596.245 1787.73 Q596.245 1793.31 592.773 1796.41 Q589.301 1799.49 582.981 1799.49 Q580.805 1799.49 578.537 1799.12 Q576.291 1798.75 573.884 1798.01 L573.884 1793.31 Q575.967 1794.45 578.19 1795 Q580.412 1795.56 582.889 1795.56 Q586.893 1795.56 589.231 1793.45 Q591.569 1791.34 591.569 1787.73 Q591.569 1784.12 589.231 1782.02 Q586.893 1779.91 582.889 1779.91 Q581.014 1779.91 579.139 1780.33 Q577.287 1780.74 575.342 1781.62 L575.342 1764.26 Z" fill="#000000" fill-rule="nonzero" fill-opacity="1" /><path clip-path="url(#clip170)" d="M949.494 1767.34 Q945.883 1767.34 944.054 1770.9 Q942.249 1774.45 942.249 1781.58 Q942.249 1788.68 944.054 1792.25 Q945.883 1795.79 949.494 1795.79 Q953.128 1795.79 954.934 1792.25 Q956.762 1788.68 956.762 1781.58 Q956.762 1774.45 954.934 1770.9 Q953.128 1767.34 949.494 1767.34 M949.494 1763.64 Q955.304 1763.64 958.36 1768.24 Q961.438 1772.83 961.438 1781.58 Q961.438 1790.3 958.36 1794.91 Q955.304 1799.49 949.494 1799.49 Q943.684 1799.49 940.605 1794.91 Q937.55 1790.3 937.55 1781.58 Q937.55 1772.83 940.605 1768.24 Q943.684 1763.64 949.494 1763.64 Z" fill="#000000" fill-rule="nonzero" fill-opacity="1" /><path clip-path="url(#clip170)" d="M969.656 1792.94 L974.54 1792.94 L974.54 1798.82 L969.656 1798.82 L969.656 1792.94 Z" fill="#000000" fill-rule="nonzero" fill-opacity="1" /><path clip-path="url(#clip170)" d="M998.892 1780.19 Q1002.25 1780.9 1004.12 1783.17 Q1006.02 1785.44 1006.02 1788.77 Q1006.02 1793.89 1002.5 1796.69 Q998.984 1799.49 992.503 1799.49 Q990.327 1799.49 988.012 1799.05 Q985.721 1798.64 983.267 1797.78 L983.267 1793.27 Q985.211 1794.4 987.526 1794.98 Q989.841 1795.56 992.364 1795.56 Q996.762 1795.56 999.054 1793.82 Q1001.37 1792.08 1001.37 1788.77 Q1001.37 1785.72 999.216 1784.01 Q997.086 1782.27 993.267 1782.27 L989.239 1782.27 L989.239 1778.43 L993.452 1778.43 Q996.901 1778.43 998.73 1777.06 Q1000.56 1775.67 1000.56 1773.08 Q1000.56 1770.42 998.66 1769.01 Q996.785 1767.57 993.267 1767.57 Q991.346 1767.57 989.146 1767.99 Q986.947 1768.4 984.309 1769.28 L984.309 1765.12 Q986.971 1764.38 989.285 1764.01 Q991.623 1763.64 993.683 1763.64 Q999.008 1763.64 1002.11 1766.07 Q1005.21 1768.47 1005.21 1772.59 Q1005.21 1775.46 1003.57 1777.46 Q1001.92 1779.42 998.892 1780.19 Z" fill="#000000" fill-rule="nonzero" fill-opacity="1" /><path clip-path="url(#clip170)" d="M1024.89 1767.34 Q1021.28 1767.34 1019.45 1770.9 Q1017.64 1774.45 1017.64 1781.58 Q1017.64 1788.68 1019.45 1792.25 Q1021.28 1795.79 1024.89 1795.79 Q1028.52 1795.79 1030.33 1792.25 Q1032.16 1788.68 1032.16 1781.58 Q1032.16 1774.45 1030.33 1770.9 Q1028.52 1767.34 1024.89 1767.34 M1024.89 1763.64 Q1030.7 1763.64 1033.75 1768.24 Q1036.83 1772.83 1036.83 1781.58 Q1036.83 1790.3 1033.75 1794.91 Q1030.7 1799.49 1024.89 1799.49 Q1019.08 1799.49 1016 1794.91 Q1012.94 1790.3 1012.94 1781.58 Q1012.94 1772.83 1016 1768.24 Q1019.08 1763.64 1024.89 1763.64 Z" fill="#000000" fill-rule="nonzero" fill-opacity="1" /><path clip-path="url(#clip170)" d="M1055.05 1767.34 Q1051.44 1767.34 1049.61 1770.9 Q1047.8 1774.45 1047.8 1781.58 Q1047.8 1788.68 1049.61 1792.25 Q1051.44 1795.79 1055.05 1795.79 Q1058.68 1795.79 1060.49 1792.25 Q1062.32 1788.68 1062.32 1781.58 Q1062.32 1774.45 1060.49 1770.9 Q1058.68 1767.34 1055.05 1767.34 M1055.05 1763.64 Q1060.86 1763.64 1063.91 1768.24 Q1066.99 1772.83 1066.99 1781.58 Q1066.99 1790.3 1063.91 1794.91 Q1060.86 1799.49 1055.05 1799.49 Q1049.24 1799.49 1046.16 1794.91 Q1043.1 1790.3 1043.1 1781.58 Q1043.1 1772.83 1046.16 1768.24 Q1049.24 1763.64 1055.05 1763.64 Z" fill="#000000" fill-rule="nonzero" fill-opacity="1" /><path clip-path="url(#clip170)" d="M1420.24 1767.34 Q1416.63 1767.34 1414.8 1770.9 Q1413 1774.45 1413 1781.58 Q1413 1788.68 1414.8 1792.25 Q1416.63 1795.79 1420.24 1795.79 Q1423.88 1795.79 1425.68 1792.25 Q1427.51 1788.68 1427.51 1781.58 Q1427.51 1774.45 1425.68 1770.9 Q1423.88 1767.34 1420.24 1767.34 M1420.24 1763.64 Q1426.05 1763.64 1429.11 1768.24 Q1432.19 1772.83 1432.19 1781.58 Q1432.19 1790.3 1429.11 1794.91 Q1426.05 1799.49 1420.24 1799.49 Q1414.43 1799.49 1411.35 1794.91 Q1408.3 1790.3 1408.3 1781.58 Q1408.3 1772.83 1411.35 1768.24 Q1414.43 1763.64 1420.24 1763.64 Z" fill="#000000" fill-rule="nonzero" fill-opacity="1" /><path clip-path="url(#clip170)" d="M1440.4 1792.94 L1445.29 1792.94 L1445.29 1798.82 L1440.4 1798.82 L1440.4 1792.94 Z" fill="#000000" fill-rule="nonzero" fill-opacity="1" /><path clip-path="url(#clip170)" d="M1469.64 1780.19 Q1473 1780.9 1474.87 1783.17 Q1476.77 1785.44 1476.77 1788.77 Q1476.77 1793.89 1473.25 1796.69 Q1469.73 1799.49 1463.25 1799.49 Q1461.08 1799.49 1458.76 1799.05 Q1456.47 1798.64 1454.02 1797.78 L1454.02 1793.27 Q1455.96 1794.4 1458.27 1794.98 Q1460.59 1795.56 1463.11 1795.56 Q1467.51 1795.56 1469.8 1793.82 Q1472.12 1792.08 1472.12 1788.77 Q1472.12 1785.72 1469.96 1784.01 Q1467.83 1782.27 1464.02 1782.27 L1459.99 1782.27 L1459.99 1778.43 L1464.2 1778.43 Q1467.65 1778.43 1469.48 1777.06 Q1471.31 1775.67 1471.31 1773.08 Q1471.31 1770.42 1469.41 1769.01 Q1467.53 1767.57 1464.02 1767.57 Q1462.09 1767.57 1459.89 1767.99 Q1457.7 1768.4 1455.06 1769.28 L1455.06 1765.12 Q1457.72 1764.38 1460.03 1764.01 Q1462.37 1763.64 1464.43 1763.64 Q1469.76 1763.64 1472.86 1766.07 Q1475.96 1768.47 1475.96 1772.59 Q1475.96 1775.46 1474.32 1777.46 Q1472.67 1779.42 1469.64 1780.19 Z" fill="#000000" fill-rule="nonzero" fill-opacity="1" /><path clip-path="url(#clip170)" d="M1489.66 1794.89 L1505.98 1794.89 L1505.98 1798.82 L1484.04 1798.82 L1484.04 1794.89 Q1486.7 1792.13 1491.28 1787.5 Q1495.89 1782.85 1497.07 1781.51 Q1499.32 1778.98 1500.2 1777.25 Q1501.1 1775.49 1501.1 1773.8 Q1501.1 1771.04 1499.15 1769.31 Q1497.23 1767.57 1494.13 1767.57 Q1491.93 1767.57 1489.48 1768.34 Q1487.05 1769.1 1484.27 1770.65 L1484.27 1765.93 Q1487.09 1764.79 1489.55 1764.21 Q1492 1763.64 1494.04 1763.64 Q1499.41 1763.64 1502.6 1766.32 Q1505.8 1769.01 1505.8 1773.5 Q1505.8 1775.63 1504.99 1777.55 Q1504.2 1779.45 1502.09 1782.04 Q1501.51 1782.71 1498.41 1785.93 Q1495.31 1789.12 1489.66 1794.89 Z" fill="#000000" fill-rule="nonzero" fill-opacity="1" /><path clip-path="url(#clip170)" d="M1515.84 1764.26 L1534.2 1764.26 L1534.2 1768.2 L1520.13 1768.2 L1520.13 1776.67 Q1521.14 1776.32 1522.16 1776.16 Q1523.18 1775.97 1524.2 1775.97 Q1529.99 1775.97 1533.37 1779.15 Q1536.75 1782.32 1536.75 1787.73 Q1536.75 1793.31 1533.27 1796.41 Q1529.8 1799.49 1523.48 1799.49 Q1521.31 1799.49 1519.04 1799.12 Q1516.79 1798.75 1514.39 1798.01 L1514.39 1793.31 Q1516.47 1794.45 1518.69 1795 Q1520.91 1795.56 1523.39 1795.56 Q1527.39 1795.56 1529.73 1793.45 Q1532.07 1791.34 1532.07 1787.73 Q1532.07 1784.12 1529.73 1782.02 Q1527.39 1779.91 1523.39 1779.91 Q1521.51 1779.91 1519.64 1780.33 Q1517.79 1780.74 1515.84 1781.62 L1515.84 1764.26 Z" fill="#000000" fill-rule="nonzero" fill-opacity="1" /><path clip-path="url(#clip170)" d="M1889.99 1767.34 Q1886.38 1767.34 1884.56 1770.9 Q1882.75 1774.45 1882.75 1781.58 Q1882.75 1788.68 1884.56 1792.25 Q1886.38 1795.79 1889.99 1795.79 Q1893.63 1795.79 1895.43 1792.25 Q1897.26 1788.68 1897.26 1781.58 Q1897.26 1774.45 1895.43 1770.9 Q1893.63 1767.34 1889.99 1767.34 M1889.99 1763.64 Q1895.81 1763.64 1898.86 1768.24 Q1901.94 1772.83 1901.94 1781.58 Q1901.94 1790.3 1898.86 1794.91 Q1895.81 1799.49 1889.99 1799.49 Q1884.18 1799.49 1881.11 1794.91 Q1878.05 1790.3 1878.05 1781.58 Q1878.05 1772.83 1881.11 1768.24 Q1884.18 1763.64 1889.99 1763.64 Z" fill="#000000" fill-rule="nonzero" fill-opacity="1" /><path clip-path="url(#clip170)" d="M1910.16 1792.94 L1915.04 1792.94 L1915.04 1798.82 L1910.16 1798.82 L1910.16 1792.94 Z" fill="#000000" fill-rule="nonzero" fill-opacity="1" /><path clip-path="url(#clip170)" d="M1939.39 1780.19 Q1942.75 1780.9 1944.62 1783.17 Q1946.52 1785.44 1946.52 1788.77 Q1946.52 1793.89 1943 1796.69 Q1939.49 1799.49 1933 1799.49 Q1930.83 1799.49 1928.51 1799.05 Q1926.22 1798.64 1923.77 1797.78 L1923.77 1793.27 Q1925.71 1794.4 1928.03 1794.98 Q1930.34 1795.56 1932.87 1795.56 Q1937.26 1795.56 1939.55 1793.82 Q1941.87 1792.08 1941.87 1788.77 Q1941.87 1785.72 1939.72 1784.01 Q1937.59 1782.27 1933.77 1782.27 L1929.74 1782.27 L1929.74 1778.43 L1933.95 1778.43 Q1937.4 1778.43 1939.23 1777.06 Q1941.06 1775.67 1941.06 1773.08 Q1941.06 1770.42 1939.16 1769.01 Q1937.29 1767.57 1933.77 1767.57 Q1931.85 1767.57 1929.65 1767.99 Q1927.45 1768.4 1924.81 1769.28 L1924.81 1765.12 Q1927.47 1764.38 1929.79 1764.01 Q1932.12 1763.64 1934.18 1763.64 Q1939.51 1763.64 1942.61 1766.07 Q1945.71 1768.47 1945.71 1772.59 Q1945.71 1775.46 1944.07 1777.46 Q1942.43 1779.42 1939.39 1780.19 Z" fill="#000000" fill-rule="nonzero" fill-opacity="1" /><path clip-path="url(#clip170)" d="M1955.43 1764.26 L1973.79 1764.26 L1973.79 1768.2 L1959.72 1768.2 L1959.72 1776.67 Q1960.74 1776.32 1961.75 1776.16 Q1962.77 1775.97 1963.79 1775.97 Q1969.58 1775.97 1972.96 1779.15 Q1976.34 1782.32 1976.34 1787.73 Q1976.34 1793.31 1972.86 1796.41 Q1969.39 1799.49 1963.07 1799.49 Q1960.9 1799.49 1958.63 1799.12 Q1956.38 1798.75 1953.98 1798.01 L1953.98 1793.31 Q1956.06 1794.45 1958.28 1795 Q1960.5 1795.56 1962.98 1795.56 Q1966.99 1795.56 1969.32 1793.45 Q1971.66 1791.34 1971.66 1787.73 Q1971.66 1784.12 1969.32 1782.02 Q1966.99 1779.91 1962.98 1779.91 Q1961.11 1779.91 1959.23 1780.33 Q1957.38 1780.74 1955.43 1781.62 L1955.43 1764.26 Z" fill="#000000" fill-rule="nonzero" fill-opacity="1" /><path clip-path="url(#clip170)" d="M1995.55 1767.34 Q1991.94 1767.34 1990.11 1770.9 Q1988.3 1774.45 1988.3 1781.58 Q1988.3 1788.68 1990.11 1792.25 Q1991.94 1795.79 1995.55 1795.79 Q1999.18 1795.79 2000.99 1792.25 Q2002.82 1788.68 2002.82 1781.58 Q2002.82 1774.45 2000.99 1770.9 Q1999.18 1767.34 1995.55 1767.34 M1995.55 1763.64 Q2001.36 1763.64 2004.42 1768.24 Q2007.49 1772.83 2007.49 1781.58 Q2007.49 1790.3 2004.42 1794.91 Q2001.36 1799.49 1995.55 1799.49 Q1989.74 1799.49 1986.66 1794.91 Q1983.61 1790.3 1983.61 1781.58 Q1983.61 1772.83 1986.66 1768.24 Q1989.74 1763.64 1995.55 1763.64 Z" fill="#000000" fill-rule="nonzero" fill-opacity="1" /><path clip-path="url(#clip170)" d="M2360.74 1767.34 Q2357.13 1767.34 2355.3 1770.9 Q2353.5 1774.45 2353.5 1781.58 Q2353.5 1788.68 2355.3 1792.25 Q2357.13 1795.79 2360.74 1795.79 Q2364.38 1795.79 2366.18 1792.25 Q2368.01 1788.68 2368.01 1781.58 Q2368.01 1774.45 2366.18 1770.9 Q2364.38 1767.34 2360.74 1767.34 M2360.74 1763.64 Q2366.55 1763.64 2369.61 1768.24 Q2372.69 1772.83 2372.69 1781.58 Q2372.69 1790.3 2369.61 1794.91 Q2366.55 1799.49 2360.74 1799.49 Q2354.93 1799.49 2351.85 1794.91 Q2348.8 1790.3 2348.8 1781.58 Q2348.8 1772.83 2351.85 1768.24 Q2354.93 1763.64 2360.74 1763.64 Z" fill="#000000" fill-rule="nonzero" fill-opacity="1" /><path clip-path="url(#clip170)" d="M2380.91 1792.94 L2385.79 1792.94 L2385.79 1798.82 L2380.91 1798.82 L2380.91 1792.94 Z" fill="#000000" fill-rule="nonzero" fill-opacity="1" /><path clip-path="url(#clip170)" d="M2410.14 1780.19 Q2413.5 1780.9 2415.37 1783.17 Q2417.27 1785.44 2417.27 1788.77 Q2417.27 1793.89 2413.75 1796.69 Q2410.23 1799.49 2403.75 1799.49 Q2401.58 1799.49 2399.26 1799.05 Q2396.97 1798.64 2394.52 1797.78 L2394.52 1793.27 Q2396.46 1794.4 2398.78 1794.98 Q2401.09 1795.56 2403.61 1795.56 Q2408.01 1795.56 2410.3 1793.82 Q2412.62 1792.08 2412.62 1788.77 Q2412.62 1785.72 2410.47 1784.01 Q2408.34 1782.27 2404.52 1782.27 L2400.49 1782.27 L2400.49 1778.43 L2404.7 1778.43 Q2408.15 1778.43 2409.98 1777.06 Q2411.81 1775.67 2411.81 1773.08 Q2411.81 1770.42 2409.91 1769.01 Q2408.03 1767.57 2404.52 1767.57 Q2402.59 1767.57 2400.4 1767.99 Q2398.2 1768.4 2395.56 1769.28 L2395.56 1765.12 Q2398.22 1764.38 2400.53 1764.01 Q2402.87 1763.64 2404.93 1763.64 Q2410.26 1763.64 2413.36 1766.07 Q2416.46 1768.47 2416.46 1772.59 Q2416.46 1775.46 2414.82 1777.46 Q2413.17 1779.42 2410.14 1780.19 Z" fill="#000000" fill-rule="nonzero" fill-opacity="1" /><path clip-path="url(#clip170)" d="M2424.96 1764.26 L2447.18 1764.26 L2447.18 1766.25 L2434.63 1798.82 L2429.75 1798.82 L2441.55 1768.2 L2424.96 1768.2 L2424.96 1764.26 Z" fill="#000000" fill-rule="nonzero" fill-opacity="1" /><path clip-path="url(#clip170)" d="M2456.34 1764.26 L2474.7 1764.26 L2474.7 1768.2 L2460.63 1768.2 L2460.63 1776.67 Q2461.65 1776.32 2462.66 1776.16 Q2463.68 1775.97 2464.7 1775.97 Q2470.49 1775.97 2473.87 1779.15 Q2477.25 1782.32 2477.25 1787.73 Q2477.25 1793.31 2473.77 1796.41 Q2470.3 1799.49 2463.98 1799.49 Q2461.81 1799.49 2459.54 1799.12 Q2457.29 1798.75 2454.89 1798.01 L2454.89 1793.31 Q2456.97 1794.45 2459.19 1795 Q2461.41 1795.56 2463.89 1795.56 Q2467.9 1795.56 2470.23 1793.45 Q2472.57 1791.34 2472.57 1787.73 Q2472.57 1784.12 2470.23 1782.02 Q2467.9 1779.91 2463.89 1779.91 Q2462.02 1779.91 2460.14 1780.33 Q2458.29 1780.74 2456.34 1781.62 L2456.34 1764.26 Z" fill="#000000" fill-rule="nonzero" fill-opacity="1" /><path clip-path="url(#clip170)" d="M1350.68 1852.3 Q1345.85 1852.3 1343.24 1855.8 Q1340.5 1859.46 1340.5 1865.51 Q1340.5 1871.91 1343.2 1875.6 Q1345.94 1879.26 1350.68 1879.26 Q1355.36 1879.26 1358.1 1875.57 Q1360.84 1871.87 1360.84 1865.51 Q1360.84 1859.68 1358.1 1855.8 Q1355.59 1852.3 1350.68 1852.3 M1350.68 1847.65 L1370.13 1847.65 L1370.13 1853.51 L1363.57 1853.51 Q1367.04 1858.47 1367.04 1865.51 Q1367.04 1874.26 1362.68 1879.23 Q1358.32 1884.22 1350.68 1884.22 Q1343.01 1884.22 1338.68 1879.23 Q1334.32 1874.26 1334.32 1865.51 Q1334.32 1856.69 1338.68 1851.76 Q1342.28 1847.65 1350.68 1847.65 Z" fill="#000000" fill-rule="nonzero" fill-opacity="1" /><path clip-path="url(#clip170)" d="M1405.27 1894.12 L1405.27 1898.67 L1371.4 1898.67 L1371.4 1894.12 L1405.27 1894.12 Z" fill="#000000" fill-rule="nonzero" fill-opacity="1" /><path clip-path="url(#clip170)" d="M1424.59 1851.76 Q1419.88 1851.76 1417.14 1855.45 Q1414.4 1859.11 1414.4 1865.51 Q1414.4 1871.91 1417.11 1875.6 Q1419.85 1879.26 1424.59 1879.26 Q1429.27 1879.26 1432.01 1875.57 Q1434.74 1871.87 1434.74 1865.51 Q1434.74 1859.17 1432.01 1855.48 Q1429.27 1851.76 1424.59 1851.76 M1424.59 1846.79 Q1432.23 1846.79 1436.59 1851.76 Q1440.95 1856.72 1440.95 1865.51 Q1440.95 1874.26 1436.59 1879.26 Q1432.23 1884.22 1424.59 1884.22 Q1416.92 1884.22 1412.56 1879.26 Q1408.23 1874.26 1408.23 1865.51 Q1408.23 1856.72 1412.56 1851.76 Q1416.92 1846.79 1424.59 1846.79 Z" fill="#000000" fill-rule="nonzero" fill-opacity="1" /><path clip-path="url(#clip170)" d="M1476.25 1865.51 Q1476.25 1859.05 1473.57 1855.39 Q1470.93 1851.7 1466.29 1851.7 Q1461.64 1851.7 1458.96 1855.39 Q1456.32 1859.05 1456.32 1865.51 Q1456.32 1871.97 1458.96 1875.66 Q1461.64 1879.32 1466.29 1879.32 Q1470.93 1879.32 1473.57 1875.66 Q1476.25 1871.97 1476.25 1865.51 M1456.32 1853.06 Q1458.17 1849.88 1460.97 1848.35 Q1463.8 1846.79 1467.72 1846.79 Q1474.21 1846.79 1478.25 1851.95 Q1482.33 1857.11 1482.33 1865.51 Q1482.33 1873.91 1478.25 1879.07 Q1474.21 1884.22 1467.72 1884.22 Q1463.8 1884.22 1460.97 1882.7 Q1458.17 1881.14 1456.32 1877.95 L1456.32 1883.3 L1450.43 1883.3 L1450.43 1833.78 L1456.32 1833.78 L1456.32 1853.06 Z" fill="#000000" fill-rule="nonzero" fill-opacity="1" /><path clip-path="url(#clip170)" d="M1514.76 1848.7 L1514.76 1854.24 Q1512.28 1852.97 1509.6 1852.33 Q1506.93 1851.7 1504.07 1851.7 Q1499.71 1851.7 1497.51 1853.03 Q1495.34 1854.37 1495.34 1857.04 Q1495.34 1859.08 1496.9 1860.26 Q1498.46 1861.4 1503.17 1862.45 L1505.18 1862.9 Q1511.42 1864.24 1514.03 1866.69 Q1516.67 1869.11 1516.67 1873.47 Q1516.67 1878.43 1512.72 1881.33 Q1508.81 1884.22 1501.93 1884.22 Q1499.07 1884.22 1495.95 1883.65 Q1492.86 1883.11 1489.42 1882 L1489.42 1875.95 Q1492.67 1877.64 1495.82 1878.49 Q1498.97 1879.32 1502.06 1879.32 Q1506.2 1879.32 1508.43 1877.92 Q1510.65 1876.49 1510.65 1873.91 Q1510.65 1871.52 1509.03 1870.25 Q1507.44 1868.98 1502 1867.8 L1499.96 1867.32 Q1494.52 1866.18 1492.1 1863.82 Q1489.68 1861.43 1489.68 1857.3 Q1489.68 1852.27 1493.24 1849.53 Q1496.81 1846.79 1503.37 1846.79 Q1506.61 1846.79 1509.48 1847.27 Q1512.34 1847.75 1514.76 1848.7 Z" fill="#000000" fill-rule="nonzero" fill-opacity="1" /><polyline clip-path="url(#clip170)" style="stroke:#000000; stroke-linecap:round; stroke-linejoin:round; stroke-width:4; stroke-opacity:1; fill:none" points="210.238,1734.12 210.238,127.792 "/>
<polyline clip-path="url(#clip170)" style="stroke:#000000; stroke-linecap:round; stroke-linejoin:round; stroke-width:4; stroke-opacity:1; fill:none" points="210.238,1734.12 229.135,1734.12 "/>
<polyline clip-path="url(#clip170)" style="stroke:#000000; stroke-linecap:round; stroke-linejoin:round; stroke-width:4; stroke-opacity:1; fill:none" points="210.238,1417.91 229.135,1417.91 "/>
<polyline clip-path="url(#clip170)" style="stroke:#000000; stroke-linecap:round; stroke-linejoin:round; stroke-width:4; stroke-opacity:1; fill:none" points="210.238,1101.71 229.135,1101.71 "/>
<polyline clip-path="url(#clip170)" style="stroke:#000000; stroke-linecap:round; stroke-linejoin:round; stroke-width:4; stroke-opacity:1; fill:none" points="210.238,785.5 229.135,785.5 "/>
<polyline clip-path="url(#clip170)" style="stroke:#000000; stroke-linecap:round; stroke-linejoin:round; stroke-width:4; stroke-opacity:1; fill:none" points="210.238,469.294 229.135,469.294 "/>
<polyline clip-path="url(#clip170)" style="stroke:#000000; stroke-linecap:round; stroke-linejoin:round; stroke-width:4; stroke-opacity:1; fill:none" points="210.238,153.089 229.135,153.089 "/>
<path clip-path="url(#clip170)" d="M157.973 1719.92 Q154.362 1719.92 152.534 1723.48 Q150.728 1727.02 150.728 1734.15 Q150.728 1741.26 152.534 1744.82 Q154.362 1748.36 157.973 1748.36 Q161.608 1748.36 163.413 1744.82 Q165.242 1741.26 165.242 1734.15 Q165.242 1727.02 163.413 1723.48 Q161.608 1719.92 157.973 1719.92 M157.973 1716.21 Q163.784 1716.21 166.839 1720.82 Q169.918 1725.4 169.918 1734.15 Q169.918 1742.88 166.839 1747.48 Q163.784 1752.07 157.973 1752.07 Q152.163 1752.07 149.085 1747.48 Q146.029 1742.88 146.029 1734.15 Q146.029 1725.4 149.085 1720.82 Q152.163 1716.21 157.973 1716.21 Z" fill="#000000" fill-rule="nonzero" fill-opacity="1" /><path clip-path="url(#clip170)" d="M149.015 1400.63 L167.372 1400.63 L167.372 1404.57 L153.298 1404.57 L153.298 1413.04 Q154.316 1412.69 155.335 1412.53 Q156.353 1412.34 157.372 1412.34 Q163.159 1412.34 166.538 1415.52 Q169.918 1418.69 169.918 1424.1 Q169.918 1429.68 166.446 1432.78 Q162.973 1435.86 156.654 1435.86 Q154.478 1435.86 152.21 1435.49 Q149.964 1435.12 147.557 1434.38 L147.557 1429.68 Q149.64 1430.82 151.862 1431.37 Q154.085 1431.93 156.561 1431.93 Q160.566 1431.93 162.904 1429.82 Q165.242 1427.71 165.242 1424.1 Q165.242 1420.49 162.904 1418.39 Q160.566 1416.28 156.561 1416.28 Q154.686 1416.28 152.811 1416.7 Q150.96 1417.11 149.015 1417.99 L149.015 1400.63 Z" fill="#000000" fill-rule="nonzero" fill-opacity="1" /><path clip-path="url(#clip170)" d="M118.622 1115.05 L126.261 1115.05 L126.261 1088.68 L117.951 1090.35 L117.951 1086.09 L126.214 1084.43 L130.89 1084.43 L130.89 1115.05 L138.529 1115.05 L138.529 1118.99 L118.622 1118.99 L118.622 1115.05 Z" fill="#000000" fill-rule="nonzero" fill-opacity="1" /><path clip-path="url(#clip170)" d="M157.973 1087.5 Q154.362 1087.5 152.534 1091.07 Q150.728 1094.61 150.728 1101.74 Q150.728 1108.85 152.534 1112.41 Q154.362 1115.95 157.973 1115.95 Q161.608 1115.95 163.413 1112.41 Q165.242 1108.85 165.242 1101.74 Q165.242 1094.61 163.413 1091.07 Q161.608 1087.5 157.973 1087.5 M157.973 1083.8 Q163.784 1083.8 166.839 1088.41 Q169.918 1092.99 169.918 1101.74 Q169.918 1110.47 166.839 1115.07 Q163.784 1119.66 157.973 1119.66 Q152.163 1119.66 149.085 1115.07 Q146.029 1110.47 146.029 1101.74 Q146.029 1092.99 149.085 1088.41 Q152.163 1083.8 157.973 1083.8 Z" fill="#000000" fill-rule="nonzero" fill-opacity="1" /><path clip-path="url(#clip170)" d="M119.617 798.845 L127.256 798.845 L127.256 772.479 L118.946 774.146 L118.946 769.887 L127.21 768.22 L131.886 768.22 L131.886 798.845 L139.525 798.845 L139.525 802.78 L119.617 802.78 L119.617 798.845 Z" fill="#000000" fill-rule="nonzero" fill-opacity="1" /><path clip-path="url(#clip170)" d="M149.015 768.22 L167.372 768.22 L167.372 772.155 L153.298 772.155 L153.298 780.627 Q154.316 780.28 155.335 780.118 Q156.353 779.933 157.372 779.933 Q163.159 779.933 166.538 783.104 Q169.918 786.275 169.918 791.692 Q169.918 797.271 166.446 800.373 Q162.973 803.451 156.654 803.451 Q154.478 803.451 152.21 803.081 Q149.964 802.71 147.557 801.97 L147.557 797.271 Q149.64 798.405 151.862 798.961 Q154.085 799.516 156.561 799.516 Q160.566 799.516 162.904 797.41 Q165.242 795.303 165.242 791.692 Q165.242 788.081 162.904 785.974 Q160.566 783.868 156.561 783.868 Q154.686 783.868 152.811 784.285 Q150.96 784.701 149.015 785.581 L149.015 768.22 Z" fill="#000000" fill-rule="nonzero" fill-opacity="1" /><path clip-path="url(#clip170)" d="M121.839 482.639 L138.159 482.639 L138.159 486.574 L116.214 486.574 L116.214 482.639 Q118.876 479.884 123.46 475.255 Q128.066 470.602 129.247 469.26 Q131.492 466.736 132.372 465 Q133.275 463.241 133.275 461.551 Q133.275 458.797 131.33 457.061 Q129.409 455.324 126.307 455.324 Q124.108 455.324 121.654 456.088 Q119.224 456.852 116.446 458.403 L116.446 453.681 Q119.27 452.547 121.724 451.968 Q124.177 451.389 126.214 451.389 Q131.585 451.389 134.779 454.074 Q137.974 456.76 137.974 461.25 Q137.974 463.38 137.163 465.301 Q136.376 467.199 134.27 469.792 Q133.691 470.463 130.589 473.681 Q127.488 476.875 121.839 482.639 Z" fill="#000000" fill-rule="nonzero" fill-opacity="1" /><path clip-path="url(#clip170)" d="M157.973 455.093 Q154.362 455.093 152.534 458.658 Q150.728 462.199 150.728 469.329 Q150.728 476.435 152.534 480 Q154.362 483.542 157.973 483.542 Q161.608 483.542 163.413 480 Q165.242 476.435 165.242 469.329 Q165.242 462.199 163.413 458.658 Q161.608 455.093 157.973 455.093 M157.973 451.389 Q163.784 451.389 166.839 455.996 Q169.918 460.579 169.918 469.329 Q169.918 478.056 166.839 482.662 Q163.784 487.246 157.973 487.246 Q152.163 487.246 149.085 482.662 Q146.029 478.056 146.029 469.329 Q146.029 460.579 149.085 455.996 Q152.163 451.389 157.973 451.389 Z" fill="#000000" fill-rule="nonzero" fill-opacity="1" /><path clip-path="url(#clip170)" d="M122.835 166.433 L139.154 166.433 L139.154 170.369 L117.21 170.369 L117.21 166.433 Q119.872 163.679 124.455 159.049 Q129.062 154.396 130.242 153.054 Q132.488 150.531 133.367 148.795 Q134.27 147.035 134.27 145.346 Q134.27 142.591 132.325 140.855 Q130.404 139.119 127.302 139.119 Q125.103 139.119 122.65 139.883 Q120.219 140.647 117.441 142.197 L117.441 137.475 Q120.265 136.341 122.719 135.762 Q125.173 135.184 127.21 135.184 Q132.58 135.184 135.775 137.869 Q138.969 140.554 138.969 145.045 Q138.969 147.174 138.159 149.096 Q137.372 150.994 135.265 153.586 Q134.687 154.258 131.585 157.475 Q128.483 160.67 122.835 166.433 Z" fill="#000000" fill-rule="nonzero" fill-opacity="1" /><path clip-path="url(#clip170)" d="M149.015 135.809 L167.372 135.809 L167.372 139.744 L153.298 139.744 L153.298 148.216 Q154.316 147.869 155.335 147.707 Q156.353 147.521 157.372 147.521 Q163.159 147.521 166.538 150.693 Q169.918 153.864 169.918 159.281 Q169.918 164.859 166.446 167.961 Q162.973 171.04 156.654 171.04 Q154.478 171.04 152.21 170.67 Q149.964 170.299 147.557 169.558 L147.557 164.859 Q149.64 165.994 151.862 166.549 Q154.085 167.105 156.561 167.105 Q160.566 167.105 162.904 164.998 Q165.242 162.892 165.242 159.281 Q165.242 155.67 162.904 153.563 Q160.566 151.457 156.561 151.457 Q154.686 151.457 152.811 151.873 Q150.96 152.29 149.015 153.17 L149.015 135.809 Z" fill="#000000" fill-rule="nonzero" fill-opacity="1" /><path clip-path="url(#clip170)" d="M31.4013 1021.68 L12.1132 1021.68 L12.1132 1015.83 L61.6384 1015.83 L61.6384 1021.68 L56.2912 1021.68 Q59.4741 1023.53 61.0337 1026.36 Q62.5615 1029.16 62.5615 1033.11 Q62.5615 1039.57 57.4052 1043.64 Q52.249 1047.69 43.8463 1047.69 Q35.4436 1047.69 30.2873 1043.64 Q25.1311 1039.57 25.1311 1033.11 Q25.1311 1029.16 26.6907 1026.36 Q28.2185 1023.53 31.4013 1021.68 M43.8463 1041.64 Q50.3075 1041.64 53.9996 1039 Q57.6599 1036.32 57.6599 1031.68 Q57.6599 1027.03 53.9996 1024.36 Q50.3075 1021.68 43.8463 1021.68 Q37.3851 1021.68 33.7248 1024.36 Q30.0327 1027.03 30.0327 1031.68 Q30.0327 1036.32 33.7248 1039 Q37.3851 1041.64 43.8463 1041.64 Z" fill="#000000" fill-rule="nonzero" fill-opacity="1" /><path clip-path="url(#clip170)" d="M42.3504 973.271 L45.2149 973.271 L45.2149 1000.2 Q51.2623 999.816 54.4452 996.569 Q57.5962 993.291 57.5962 987.466 Q57.5962 984.092 56.7687 980.941 Q55.9411 977.758 54.2861 974.639 L59.8242 974.639 Q61.161 977.79 61.8612 981.1 Q62.5615 984.411 62.5615 987.816 Q62.5615 996.346 57.5962 1001.34 Q52.631 1006.31 44.1646 1006.31 Q35.4117 1006.31 30.2873 1001.6 Q25.1311 996.856 25.1311 988.835 Q25.1311 981.641 29.7781 977.472 Q34.3932 973.271 42.3504 973.271 M40.6316 979.127 Q35.8255 979.191 32.9609 981.832 Q30.0964 984.442 30.0964 988.771 Q30.0964 993.673 32.8654 996.633 Q35.6345 999.561 40.6634 1000.01 L40.6316 979.127 Z" fill="#000000" fill-rule="nonzero" fill-opacity="1" /><path clip-path="url(#clip170)" d="M40.1224 934.026 L61.6384 934.026 L61.6384 939.882 L40.3133 939.882 Q35.2526 939.882 32.7381 941.856 Q30.2237 943.829 30.2237 947.776 Q30.2237 952.518 33.2474 955.256 Q36.2711 957.993 41.491 957.993 L61.6384 957.993 L61.6384 963.881 L25.9905 963.881 L25.9905 957.993 L31.5287 957.993 Q28.314 955.892 26.7225 953.059 Q25.1311 950.195 25.1311 946.471 Q25.1311 940.328 28.9505 937.177 Q32.7381 934.026 40.1224 934.026 Z" fill="#000000" fill-rule="nonzero" fill-opacity="1" /><path clip-path="url(#clip170)" d="M27.0408 899.619 L32.579 899.619 Q31.3059 902.102 30.6693 904.776 Q30.0327 907.449 30.0327 910.314 Q30.0327 914.674 31.3695 916.87 Q32.7063 919.035 35.3799 919.035 Q37.4169 919.035 38.5946 917.475 Q39.7404 915.916 40.7908 911.205 L41.2364 909.2 Q42.5732 902.961 45.0239 900.351 Q47.4429 897.71 51.8034 897.71 Q56.7687 897.71 59.6651 901.656 Q62.5615 905.571 62.5615 912.446 Q62.5615 915.311 61.9886 918.43 Q61.4475 921.517 60.3335 924.955 L54.2861 924.955 Q55.973 921.708 56.8323 918.557 Q57.6599 915.406 57.6599 912.319 Q57.6599 908.181 56.2594 905.953 Q54.8271 903.725 52.249 903.725 Q49.8619 903.725 48.5887 905.349 Q47.3156 906.94 46.1379 912.383 L45.6605 914.42 Q44.5147 919.862 42.1594 922.281 Q39.7722 924.7 35.6345 924.7 Q30.6056 924.7 27.8684 921.135 Q25.1311 917.571 25.1311 911.014 Q25.1311 907.767 25.6085 904.903 Q26.086 902.038 27.0408 899.619 Z" fill="#000000" fill-rule="nonzero" fill-opacity="1" /><path clip-path="url(#clip170)" d="M25.9905 888.384 L25.9905 882.527 L61.6384 882.527 L61.6384 888.384 L25.9905 888.384 M12.1132 888.384 L12.1132 882.527 L19.5293 882.527 L19.5293 888.384 L12.1132 888.384 Z" fill="#000000" fill-rule="nonzero" fill-opacity="1" /><path clip-path="url(#clip170)" d="M15.869 864.481 L25.9905 864.481 L25.9905 852.418 L30.542 852.418 L30.542 864.481 L49.8937 864.481 Q54.2542 864.481 55.4955 863.303 Q56.7368 862.094 56.7368 858.433 L56.7368 852.418 L61.6384 852.418 L61.6384 858.433 Q61.6384 865.213 59.124 867.791 Q56.5777 870.369 49.8937 870.369 L30.542 870.369 L30.542 874.666 L25.9905 874.666 L25.9905 870.369 L15.869 870.369 L15.869 864.481 Z" fill="#000000" fill-rule="nonzero" fill-opacity="1" /><path clip-path="url(#clip170)" d="M64.9486 829.883 Q71.3143 832.366 73.2559 834.721 Q75.1974 837.076 75.1974 841.023 L75.1974 845.702 L70.2958 845.702 L70.2958 842.264 Q70.2958 839.845 69.15 838.509 Q68.0041 837.172 63.7391 835.549 L61.0655 834.498 L25.9905 848.917 L25.9905 842.71 L53.8723 831.57 L25.9905 820.43 L25.9905 814.223 L64.9486 829.883 Z" fill="#000000" fill-rule="nonzero" fill-opacity="1" /><path clip-path="url(#clip170)" d="M527.796 18.8205 L527.796 41.5461 L538.086 41.5461 Q543.797 41.5461 546.917 38.5889 Q550.036 35.6318 550.036 30.163 Q550.036 24.7348 546.917 21.7777 Q543.797 18.8205 538.086 18.8205 L527.796 18.8205 M519.613 12.096 L538.086 12.096 Q548.253 12.096 553.438 16.714 Q558.664 21.2916 558.664 30.163 Q558.664 39.1155 553.438 43.6931 Q548.253 48.2706 538.086 48.2706 L527.796 48.2706 L527.796 72.576 L519.613 72.576 L519.613 12.096 Z" fill="#000000" fill-rule="nonzero" fill-opacity="1" /><path clip-path="url(#clip170)" d="M583.942 32.4315 Q577.946 32.4315 574.463 37.1306 Q570.979 41.7891 570.979 49.9314 Q570.979 58.0738 574.422 62.7728 Q577.906 67.4314 583.942 67.4314 Q589.897 67.4314 593.38 62.7323 Q596.864 58.0333 596.864 49.9314 Q596.864 41.8701 593.38 37.1711 Q589.897 32.4315 583.942 32.4315 M583.942 26.1121 Q593.664 26.1121 599.214 32.4315 Q604.763 38.7509 604.763 49.9314 Q604.763 61.0714 599.214 67.4314 Q593.664 73.7508 583.942 73.7508 Q574.179 73.7508 568.629 67.4314 Q563.12 61.0714 563.12 49.9314 Q563.12 38.7509 568.629 32.4315 Q574.179 26.1121 583.942 26.1121 Z" fill="#000000" fill-rule="nonzero" fill-opacity="1" /><path clip-path="url(#clip170)" d="M646.042 28.5427 L646.042 35.5912 Q642.882 33.9709 639.48 33.1607 Q636.077 32.3505 632.431 32.3505 Q626.881 32.3505 624.086 34.0519 Q621.332 35.7533 621.332 39.156 Q621.332 41.7486 623.317 43.2475 Q625.302 44.7058 631.297 46.0426 L633.849 46.6097 Q641.789 48.3111 645.11 51.4303 Q648.473 54.509 648.473 60.0587 Q648.473 66.3781 643.45 70.0644 Q638.467 73.7508 629.717 73.7508 Q626.071 73.7508 622.101 73.0216 Q618.172 72.3329 613.797 70.9151 L613.797 63.2184 Q617.929 65.3654 621.939 66.4591 Q625.95 67.5124 629.879 67.5124 Q635.145 67.5124 637.981 65.73 Q640.816 63.9071 640.816 60.6258 Q640.816 57.5877 638.751 55.9673 Q636.725 54.3469 629.798 52.8481 L627.205 52.2405 Q620.278 50.7821 617.2 47.7845 Q614.121 44.7463 614.121 39.4801 Q614.121 33.0797 618.658 29.5959 Q623.195 26.1121 631.54 26.1121 Q635.672 26.1121 639.318 26.7198 Q642.963 27.3274 646.042 28.5427 Z" fill="#000000" fill-rule="nonzero" fill-opacity="1" /><path clip-path="url(#clip170)" d="M667.714 14.324 L667.714 27.2059 L683.067 27.2059 L683.067 32.9987 L667.714 32.9987 L667.714 57.6282 Q667.714 63.1779 669.213 64.7578 Q670.753 66.3376 675.411 66.3376 L683.067 66.3376 L683.067 72.576 L675.411 72.576 Q666.783 72.576 663.502 69.3758 Q660.22 66.1351 660.22 57.6282 L660.22 32.9987 L654.752 32.9987 L654.752 27.2059 L660.22 27.2059 L660.22 14.324 L667.714 14.324 Z" fill="#000000" fill-rule="nonzero" fill-opacity="1" /><path clip-path="url(#clip170)" d="M731.678 48.0275 L731.678 51.6733 L697.408 51.6733 Q697.894 59.3701 702.026 63.421 Q706.198 67.4314 713.611 67.4314 Q717.905 67.4314 721.916 66.3781 Q725.966 65.3249 729.936 63.2184 L729.936 70.267 Q725.926 71.9684 721.713 72.8596 Q717.5 73.7508 713.166 73.7508 Q702.309 73.7508 695.949 67.4314 Q689.63 61.1119 689.63 50.3365 Q689.63 39.1965 695.625 32.6746 Q701.661 26.1121 711.869 26.1121 Q721.024 26.1121 726.331 32.0264 Q731.678 37.9003 731.678 48.0275 M724.225 45.84 Q724.144 39.7232 720.781 36.0774 Q717.46 32.4315 711.95 32.4315 Q705.712 32.4315 701.945 35.9558 Q698.218 39.4801 697.651 45.8805 L724.225 45.84 Z" fill="#000000" fill-rule="nonzero" fill-opacity="1" /><path clip-path="url(#clip170)" d="M770.202 34.1734 Q768.947 33.4443 767.448 33.1202 Q765.989 32.7556 764.207 32.7556 Q757.888 32.7556 754.485 36.8875 Q751.123 40.9789 751.123 48.6757 L751.123 72.576 L743.628 72.576 L743.628 27.2059 L751.123 27.2059 L751.123 34.2544 Q753.472 30.1225 757.239 28.1376 Q761.007 26.1121 766.395 26.1121 Q767.164 26.1121 768.096 26.2337 Q769.028 26.3147 770.162 26.5172 L770.202 34.1734 Z" fill="#000000" fill-rule="nonzero" fill-opacity="1" /><path clip-path="url(#clip170)" d="M778.021 27.2059 L785.474 27.2059 L785.474 72.576 L778.021 72.576 L778.021 27.2059 M778.021 9.54393 L785.474 9.54393 L785.474 18.9825 L778.021 18.9825 L778.021 9.54393 Z" fill="#000000" fill-rule="nonzero" fill-opacity="1" /><path clip-path="url(#clip170)" d="M818.651 32.4315 Q812.656 32.4315 809.172 37.1306 Q805.688 41.7891 805.688 49.9314 Q805.688 58.0738 809.132 62.7728 Q812.615 67.4314 818.651 67.4314 Q824.606 67.4314 828.09 62.7323 Q831.574 58.0333 831.574 49.9314 Q831.574 41.8701 828.09 37.1711 Q824.606 32.4315 818.651 32.4315 M818.651 26.1121 Q828.373 26.1121 833.923 32.4315 Q839.473 38.7509 839.473 49.9314 Q839.473 61.0714 833.923 67.4314 Q828.373 73.7508 818.651 73.7508 Q808.888 73.7508 803.339 67.4314 Q797.83 61.0714 797.83 49.9314 Q797.83 38.7509 803.339 32.4315 Q808.888 26.1121 818.651 26.1121 Z" fill="#000000" fill-rule="nonzero" fill-opacity="1" /><path clip-path="url(#clip170)" d="M878.118 34.1734 Q876.863 33.4443 875.364 33.1202 Q873.906 32.7556 872.123 32.7556 Q865.804 32.7556 862.401 36.8875 Q859.039 40.9789 859.039 48.6757 L859.039 72.576 L851.545 72.576 L851.545 27.2059 L859.039 27.2059 L859.039 34.2544 Q861.388 30.1225 865.156 28.1376 Q868.923 26.1121 874.311 26.1121 Q875.08 26.1121 876.012 26.2337 Q876.944 26.3147 878.078 26.5172 L878.118 34.1734 Z" fill="#000000" fill-rule="nonzero" fill-opacity="1" /><path clip-path="url(#clip170)" d="M942.163 34.0924 L942.163 9.54393 L949.617 9.54393 L949.617 72.576 L942.163 72.576 L942.163 65.7705 Q939.814 69.8214 936.208 71.8063 Q932.644 73.7508 927.62 73.7508 Q919.397 73.7508 914.212 67.1883 Q909.067 60.6258 909.067 49.9314 Q909.067 39.2371 914.212 32.6746 Q919.397 26.1121 927.62 26.1121 Q932.644 26.1121 936.208 28.0971 Q939.814 30.0415 942.163 34.0924 M916.764 49.9314 Q916.764 58.1548 920.126 62.8538 Q923.529 67.5124 929.443 67.5124 Q935.358 67.5124 938.76 62.8538 Q942.163 58.1548 942.163 49.9314 Q942.163 41.7081 938.76 37.0496 Q935.358 32.3505 929.443 32.3505 Q923.529 32.3505 920.126 37.0496 Q916.764 41.7081 916.764 49.9314 Z" fill="#000000" fill-rule="nonzero" fill-opacity="1" /><path clip-path="url(#clip170)" d="M1003.78 48.0275 L1003.78 51.6733 L969.507 51.6733 Q969.993 59.3701 974.125 63.421 Q978.297 67.4314 985.71 67.4314 Q990.004 67.4314 994.015 66.3781 Q998.066 65.3249 1002.04 63.2184 L1002.04 70.267 Q998.025 71.9684 993.812 72.8596 Q989.599 73.7508 985.265 73.7508 Q974.408 73.7508 968.049 67.4314 Q961.729 61.1119 961.729 50.3365 Q961.729 39.1965 967.724 32.6746 Q973.76 26.1121 983.969 26.1121 Q993.124 26.1121 998.43 32.0264 Q1003.78 37.9003 1003.78 48.0275 M996.324 45.84 Q996.243 39.7232 992.881 36.0774 Q989.559 32.4315 984.05 32.4315 Q977.811 32.4315 974.044 35.9558 Q970.317 39.4801 969.75 45.8805 L996.324 45.84 Z" fill="#000000" fill-rule="nonzero" fill-opacity="1" /><path clip-path="url(#clip170)" d="M1053.73 45.1919 L1053.73 72.576 L1046.27 72.576 L1046.27 45.4349 Q1046.27 38.994 1043.76 35.7938 Q1041.25 32.5936 1036.23 32.5936 Q1030.19 32.5936 1026.71 36.4419 Q1023.22 40.2903 1023.22 46.9338 L1023.22 72.576 L1015.73 72.576 L1015.73 27.2059 L1023.22 27.2059 L1023.22 34.2544 Q1025.9 30.163 1029.5 28.1376 Q1033.15 26.1121 1037.89 26.1121 Q1045.7 26.1121 1049.71 30.9732 Q1053.73 35.7938 1053.73 45.1919 Z" fill="#000000" fill-rule="nonzero" fill-opacity="1" /><path clip-path="url(#clip170)" d="M1097.52 28.5427 L1097.52 35.5912 Q1094.36 33.9709 1090.95 33.1607 Q1087.55 32.3505 1083.9 32.3505 Q1078.35 32.3505 1075.56 34.0519 Q1072.8 35.7533 1072.8 39.156 Q1072.8 41.7486 1074.79 43.2475 Q1076.77 44.7058 1082.77 46.0426 L1085.32 46.6097 Q1093.26 48.3111 1096.58 51.4303 Q1099.95 54.509 1099.95 60.0587 Q1099.95 66.3781 1094.92 70.0644 Q1089.94 73.7508 1081.19 73.7508 Q1077.54 73.7508 1073.57 73.0216 Q1069.65 72.3329 1065.27 70.9151 L1065.27 63.2184 Q1069.4 65.3654 1073.41 66.4591 Q1077.42 67.5124 1081.35 67.5124 Q1086.62 67.5124 1089.45 65.73 Q1092.29 63.9071 1092.29 60.6258 Q1092.29 57.5877 1090.22 55.9673 Q1088.2 54.3469 1081.27 52.8481 L1078.68 52.2405 Q1071.75 50.7821 1068.67 47.7845 Q1065.59 44.7463 1065.59 39.4801 Q1065.59 33.0797 1070.13 29.5959 Q1074.67 26.1121 1083.01 26.1121 Q1087.15 26.1121 1090.79 26.7198 Q1094.44 27.3274 1097.52 28.5427 Z" fill="#000000" fill-rule="nonzero" fill-opacity="1" /><path clip-path="url(#clip170)" d="M1111.82 27.2059 L1119.27 27.2059 L1119.27 72.576 L1111.82 72.576 L1111.82 27.2059 M1111.82 9.54393 L1119.27 9.54393 L1119.27 18.9825 L1111.82 18.9825 L1111.82 9.54393 Z" fill="#000000" fill-rule="nonzero" fill-opacity="1" /><path clip-path="url(#clip170)" d="M1142.24 14.324 L1142.24 27.2059 L1157.59 27.2059 L1157.59 32.9987 L1142.24 32.9987 L1142.24 57.6282 Q1142.24 63.1779 1143.74 64.7578 Q1145.28 66.3376 1149.93 66.3376 L1157.59 66.3376 L1157.59 72.576 L1149.93 72.576 Q1141.31 72.576 1138.02 69.3758 Q1134.74 66.1351 1134.74 57.6282 L1134.74 32.9987 L1129.27 32.9987 L1129.27 27.2059 L1134.74 27.2059 L1134.74 14.324 L1142.24 14.324 Z" fill="#000000" fill-rule="nonzero" fill-opacity="1" /><path clip-path="url(#clip170)" d="M1186.27 76.7889 Q1183.11 84.8907 1180.11 87.3618 Q1177.12 89.8329 1172.09 89.8329 L1166.14 89.8329 L1166.14 83.5945 L1170.51 83.5945 Q1173.59 83.5945 1175.29 82.1361 Q1176.99 80.6778 1179.06 75.2496 L1180.4 71.8468 L1162.05 27.2059 L1169.95 27.2059 L1184.12 62.6918 L1198.3 27.2059 L1206.2 27.2059 L1186.27 76.7889 Z" fill="#000000" fill-rule="nonzero" fill-opacity="1" /><path clip-path="url(#clip170)" d="M1260.44 32.4315 Q1254.45 32.4315 1250.96 37.1306 Q1247.48 41.7891 1247.48 49.9314 Q1247.48 58.0738 1250.92 62.7728 Q1254.41 67.4314 1260.44 67.4314 Q1266.4 67.4314 1269.88 62.7323 Q1273.37 58.0333 1273.37 49.9314 Q1273.37 41.8701 1269.88 37.1711 Q1266.4 32.4315 1260.44 32.4315 M1260.44 26.1121 Q1270.16 26.1121 1275.71 32.4315 Q1281.26 38.7509 1281.26 49.9314 Q1281.26 61.0714 1275.71 67.4314 Q1270.16 73.7508 1260.44 73.7508 Q1250.68 73.7508 1245.13 67.4314 Q1239.62 61.0714 1239.62 49.9314 Q1239.62 38.7509 1245.13 32.4315 Q1250.68 26.1121 1260.44 26.1121 Z" fill="#000000" fill-rule="nonzero" fill-opacity="1" /><path clip-path="url(#clip170)" d="M1316.59 9.54393 L1316.59 15.7418 L1309.46 15.7418 Q1305.45 15.7418 1303.87 17.3622 Q1302.33 18.9825 1302.33 23.1955 L1302.33 27.2059 L1314.6 27.2059 L1314.6 32.9987 L1302.33 32.9987 L1302.33 72.576 L1294.83 72.576 L1294.83 32.9987 L1287.71 32.9987 L1287.71 27.2059 L1294.83 27.2059 L1294.83 24.0462 Q1294.83 16.471 1298.36 13.0277 Q1301.88 9.54393 1309.54 9.54393 L1316.59 9.54393 Z" fill="#000000" fill-rule="nonzero" fill-opacity="1" /><path clip-path="url(#clip170)" d="M1366.78 33.1202 Q1360.62 33.1202 1357.3 37.5762 Q1353.82 42.2347 1353.82 49.9314 Q1353.82 58.0738 1357.26 62.7728 Q1360.74 67.4314 1366.78 67.4314 Q1372.73 67.4314 1376.22 62.7323 Q1379.7 58.0333 1379.7 49.9314 Q1379.7 42.5183 1376.22 37.5762 Q1373.02 33.1202 1366.78 33.1202 M1366.78 27.2059 L1391.53 27.2059 L1391.53 34.6595 L1383.19 34.6595 Q1387.6 40.9789 1387.6 49.9314 Q1387.6 61.0714 1382.05 67.3908 Q1376.5 73.7508 1366.78 73.7508 Q1357.02 73.7508 1351.51 67.3908 Q1345.96 61.0714 1345.96 49.9314 Q1345.96 38.7104 1351.51 32.4315 Q1356.08 27.2059 1366.78 27.2059 Z" fill="#000000" fill-rule="nonzero" fill-opacity="1" /><path clip-path="url(#clip170)" d="M1436.25 86.3491 L1436.25 92.1419 L1393.15 92.1419 L1393.15 86.3491 L1436.25 86.3491 Z" fill="#000000" fill-rule="nonzero" fill-opacity="1" /><path clip-path="url(#clip170)" d="M1460.84 32.4315 Q1454.85 32.4315 1451.36 37.1306 Q1447.88 41.7891 1447.88 49.9314 Q1447.88 58.0738 1451.32 62.7728 Q1454.81 67.4314 1460.84 67.4314 Q1466.8 67.4314 1470.28 62.7323 Q1473.76 58.0333 1473.76 49.9314 Q1473.76 41.8701 1470.28 37.1711 Q1466.8 32.4315 1460.84 32.4315 M1460.84 26.1121 Q1470.56 26.1121 1476.11 32.4315 Q1481.66 38.7509 1481.66 49.9314 Q1481.66 61.0714 1476.11 67.4314 Q1470.56 73.7508 1460.84 73.7508 Q1451.08 73.7508 1445.53 67.4314 Q1440.02 61.0714 1440.02 49.9314 Q1440.02 38.7509 1445.53 32.4315 Q1451.08 26.1121 1460.84 26.1121 Z" fill="#000000" fill-rule="nonzero" fill-opacity="1" /><path clip-path="url(#clip170)" d="M1526.59 49.9314 Q1526.59 41.7081 1523.18 37.0496 Q1519.82 32.3505 1513.91 32.3505 Q1507.99 32.3505 1504.59 37.0496 Q1501.23 41.7081 1501.23 49.9314 Q1501.23 58.1548 1504.59 62.8538 Q1507.99 67.5124 1513.91 67.5124 Q1519.82 67.5124 1523.18 62.8538 Q1526.59 58.1548 1526.59 49.9314 M1501.23 34.0924 Q1503.58 30.0415 1507.14 28.0971 Q1510.75 26.1121 1515.73 26.1121 Q1523.99 26.1121 1529.14 32.6746 Q1534.32 39.2371 1534.32 49.9314 Q1534.32 60.6258 1529.14 67.1883 Q1523.99 73.7508 1515.73 73.7508 Q1510.75 73.7508 1507.14 71.8063 Q1503.58 69.8214 1501.23 65.7705 L1501.23 72.576 L1493.73 72.576 L1493.73 9.54393 L1501.23 9.54393 L1501.23 34.0924 Z" fill="#000000" fill-rule="nonzero" fill-opacity="1" /><path clip-path="url(#clip170)" d="M1575.6 28.5427 L1575.6 35.5912 Q1572.44 33.9709 1569.04 33.1607 Q1565.64 32.3505 1561.99 32.3505 Q1556.44 32.3505 1553.65 34.0519 Q1550.89 35.7533 1550.89 39.156 Q1550.89 41.7486 1552.88 43.2475 Q1554.86 44.7058 1560.86 46.0426 L1563.41 46.6097 Q1571.35 48.3111 1574.67 51.4303 Q1578.03 54.509 1578.03 60.0587 Q1578.03 66.3781 1573.01 70.0644 Q1568.03 73.7508 1559.28 73.7508 Q1555.63 73.7508 1551.66 73.0216 Q1547.73 72.3329 1543.36 70.9151 L1543.36 63.2184 Q1547.49 65.3654 1551.5 66.4591 Q1555.51 67.5124 1559.44 67.5124 Q1564.71 67.5124 1567.54 65.73 Q1570.38 63.9071 1570.38 60.6258 Q1570.38 57.5877 1568.31 55.9673 Q1566.29 54.3469 1559.36 52.8481 L1556.77 52.2405 Q1549.84 50.7821 1546.76 47.7845 Q1543.68 44.7463 1543.68 39.4801 Q1543.68 33.0797 1548.22 29.5959 Q1552.76 26.1121 1561.1 26.1121 Q1565.23 26.1121 1568.88 26.7198 Q1572.52 27.3274 1575.6 28.5427 Z" fill="#000000" fill-rule="nonzero" fill-opacity="1" /><path clip-path="url(#clip170)" d="M1634.18 9.62495 Q1628.75 18.942 1626.12 28.0566 Q1623.48 37.1711 1623.48 46.5287 Q1623.48 55.8863 1626.12 65.0818 Q1628.79 74.2369 1634.18 83.5134 L1627.7 83.5134 Q1621.62 73.9938 1618.58 64.7983 Q1615.59 55.6027 1615.59 46.5287 Q1615.59 37.4952 1618.58 28.3401 Q1621.58 19.1851 1627.7 9.62495 L1634.18 9.62495 Z" fill="#000000" fill-rule="nonzero" fill-opacity="1" /><path clip-path="url(#clip170)" d="M1690.2 63.9476 L1690.2 47.7034 L1676.84 47.7034 L1676.84 40.9789 L1698.31 40.9789 L1698.31 66.9452 Q1693.57 70.3075 1687.85 72.0494 Q1682.14 73.7508 1675.66 73.7508 Q1661.48 73.7508 1653.46 65.4869 Q1645.48 57.1826 1645.48 42.3968 Q1645.48 27.5705 1653.46 19.3066 Q1661.48 11.0023 1675.66 11.0023 Q1681.57 11.0023 1686.88 12.4606 Q1692.23 13.9189 1696.73 16.7545 L1696.73 25.464 Q1692.19 21.6156 1687.08 19.6712 Q1681.98 17.7268 1676.35 17.7268 Q1665.25 17.7268 1659.66 23.9246 Q1654.11 30.1225 1654.11 42.3968 Q1654.11 54.6305 1659.66 60.8284 Q1665.25 67.0263 1676.35 67.0263 Q1680.68 67.0263 1684.09 66.2971 Q1687.49 65.5274 1690.2 63.9476 Z" fill="#000000" fill-rule="nonzero" fill-opacity="1" /><path clip-path="url(#clip170)" d="M1733.55 49.7694 Q1724.51 49.7694 1721.03 51.8354 Q1717.55 53.9013 1717.55 58.8839 Q1717.55 62.8538 1720.14 65.2034 Q1722.77 67.5124 1727.27 67.5124 Q1733.47 67.5124 1737.19 63.1374 Q1740.96 58.7219 1740.96 51.4303 L1740.96 49.7694 L1733.55 49.7694 M1748.41 46.6907 L1748.41 72.576 L1740.96 72.576 L1740.96 65.6895 Q1738.41 69.8214 1734.6 71.8063 Q1730.79 73.7508 1725.28 73.7508 Q1718.32 73.7508 1714.18 69.8619 Q1710.09 65.9325 1710.09 59.3701 Q1710.09 51.7138 1715.2 47.825 Q1720.34 43.9361 1730.51 43.9361 L1740.96 43.9361 L1740.96 43.2069 Q1740.96 38.0623 1737.56 35.2672 Q1734.2 32.4315 1728.08 32.4315 Q1724.19 32.4315 1720.5 33.3632 Q1716.82 34.295 1713.41 36.1584 L1713.41 29.2718 Q1717.51 27.692 1721.35 26.9223 Q1725.2 26.1121 1728.85 26.1121 Q1738.69 26.1121 1743.55 31.2163 Q1748.41 36.3204 1748.41 46.6907 Z" fill="#000000" fill-rule="nonzero" fill-opacity="1" /><path clip-path="url(#clip170)" d="M1763 54.671 L1763 27.2059 L1770.45 27.2059 L1770.45 54.3874 Q1770.45 60.8284 1772.96 64.0691 Q1775.47 67.2693 1780.5 67.2693 Q1786.53 67.2693 1790.02 63.421 Q1793.54 59.5726 1793.54 52.9291 L1793.54 27.2059 L1801 27.2059 L1801 72.576 L1793.54 72.576 L1793.54 65.6084 Q1790.83 69.7404 1787.22 71.7658 Q1783.66 73.7508 1778.92 73.7508 Q1771.1 73.7508 1767.05 68.8897 Q1763 64.0286 1763 54.671 M1781.75 26.1121 L1781.75 26.1121 Z" fill="#000000" fill-rule="nonzero" fill-opacity="1" /><path clip-path="url(#clip170)" d="M1845.27 28.5427 L1845.27 35.5912 Q1842.11 33.9709 1838.71 33.1607 Q1835.31 32.3505 1831.66 32.3505 Q1826.11 32.3505 1823.32 34.0519 Q1820.56 35.7533 1820.56 39.156 Q1820.56 41.7486 1822.55 43.2475 Q1824.53 44.7058 1830.53 46.0426 L1833.08 46.6097 Q1841.02 48.3111 1844.34 51.4303 Q1847.7 54.509 1847.7 60.0587 Q1847.7 66.3781 1842.68 70.0644 Q1837.7 73.7508 1828.95 73.7508 Q1825.3 73.7508 1821.33 73.0216 Q1817.4 72.3329 1813.03 70.9151 L1813.03 63.2184 Q1817.16 65.3654 1821.17 66.4591 Q1825.18 67.5124 1829.11 67.5124 Q1834.37 67.5124 1837.21 65.73 Q1840.05 63.9071 1840.05 60.6258 Q1840.05 57.5877 1837.98 55.9673 Q1835.95 54.3469 1829.03 52.8481 L1826.44 52.2405 Q1819.51 50.7821 1816.43 47.7845 Q1813.35 44.7463 1813.35 39.4801 Q1813.35 33.0797 1817.89 29.5959 Q1822.42 26.1121 1830.77 26.1121 Q1834.9 26.1121 1838.55 26.7198 Q1842.19 27.3274 1845.27 28.5427 Z" fill="#000000" fill-rule="nonzero" fill-opacity="1" /><path clip-path="url(#clip170)" d="M1888.49 28.5427 L1888.49 35.5912 Q1885.34 33.9709 1881.93 33.1607 Q1878.53 32.3505 1874.88 32.3505 Q1869.33 32.3505 1866.54 34.0519 Q1863.78 35.7533 1863.78 39.156 Q1863.78 41.7486 1865.77 43.2475 Q1867.75 44.7058 1873.75 46.0426 L1876.3 46.6097 Q1884.24 48.3111 1887.56 51.4303 Q1890.93 54.509 1890.93 60.0587 Q1890.93 66.3781 1885.9 70.0644 Q1880.92 73.7508 1872.17 73.7508 Q1868.52 73.7508 1864.55 73.0216 Q1860.62 72.3329 1856.25 70.9151 L1856.25 63.2184 Q1860.38 65.3654 1864.39 66.4591 Q1868.4 67.5124 1872.33 67.5124 Q1877.6 67.5124 1880.43 65.73 Q1883.27 63.9071 1883.27 60.6258 Q1883.27 57.5877 1881.2 55.9673 Q1879.18 54.3469 1872.25 52.8481 L1869.66 52.2405 Q1862.73 50.7821 1859.65 47.7845 Q1856.57 44.7463 1856.57 39.4801 Q1856.57 33.0797 1861.11 29.5959 Q1865.65 26.1121 1873.99 26.1121 Q1878.12 26.1121 1881.77 26.7198 Q1885.42 27.3274 1888.49 28.5427 Z" fill="#000000" fill-rule="nonzero" fill-opacity="1" /><path clip-path="url(#clip170)" d="M1902.79 27.2059 L1910.25 27.2059 L1910.25 72.576 L1902.79 72.576 L1902.79 27.2059 M1902.79 9.54393 L1910.25 9.54393 L1910.25 18.9825 L1902.79 18.9825 L1902.79 9.54393 Z" fill="#000000" fill-rule="nonzero" fill-opacity="1" /><path clip-path="url(#clip170)" d="M1946.46 49.7694 Q1937.43 49.7694 1933.95 51.8354 Q1930.46 53.9013 1930.46 58.8839 Q1930.46 62.8538 1933.05 65.2034 Q1935.69 67.5124 1940.18 67.5124 Q1946.38 67.5124 1950.11 63.1374 Q1953.88 58.7219 1953.88 51.4303 L1953.88 49.7694 L1946.46 49.7694 M1961.33 46.6907 L1961.33 72.576 L1953.88 72.576 L1953.88 65.6895 Q1951.32 69.8214 1947.52 71.8063 Q1943.71 73.7508 1938.2 73.7508 Q1931.23 73.7508 1927.1 69.8619 Q1923.01 65.9325 1923.01 59.3701 Q1923.01 51.7138 1928.11 47.825 Q1933.26 43.9361 1943.43 43.9361 L1953.88 43.9361 L1953.88 43.2069 Q1953.88 38.0623 1950.47 35.2672 Q1947.11 32.4315 1940.99 32.4315 Q1937.11 32.4315 1933.42 33.3632 Q1929.73 34.295 1926.33 36.1584 L1926.33 29.2718 Q1930.42 27.692 1934.27 26.9223 Q1938.12 26.1121 1941.76 26.1121 Q1951.61 26.1121 1956.47 31.2163 Q1961.33 36.3204 1961.33 46.6907 Z" fill="#000000" fill-rule="nonzero" fill-opacity="1" /><path clip-path="url(#clip170)" d="M2014.4 45.1919 L2014.4 72.576 L2006.94 72.576 L2006.94 45.4349 Q2006.94 38.994 2004.43 35.7938 Q2001.92 32.5936 1996.9 32.5936 Q1990.86 32.5936 1987.38 36.4419 Q1983.89 40.2903 1983.89 46.9338 L1983.89 72.576 L1976.4 72.576 L1976.4 27.2059 L1983.89 27.2059 L1983.89 34.2544 Q1986.57 30.163 1990.17 28.1376 Q1993.82 26.1121 1998.56 26.1121 Q2006.38 26.1121 2010.39 30.9732 Q2014.4 35.7938 2014.4 45.1919 Z" fill="#000000" fill-rule="nonzero" fill-opacity="1" /><path clip-path="url(#clip170)" d="M2090.96 35.9153 Q2093.75 30.8922 2097.64 28.5022 Q2101.53 26.1121 2106.8 26.1121 Q2113.89 26.1121 2117.74 31.0947 Q2121.58 36.0368 2121.58 45.1919 L2121.58 72.576 L2114.09 72.576 L2114.09 45.4349 Q2114.09 38.913 2111.78 35.7533 Q2109.47 32.5936 2104.73 32.5936 Q2098.94 32.5936 2095.58 36.4419 Q2092.21 40.2903 2092.21 46.9338 L2092.21 72.576 L2084.72 72.576 L2084.72 45.4349 Q2084.72 38.8725 2082.41 35.7533 Q2080.1 32.5936 2075.28 32.5936 Q2069.57 32.5936 2066.21 36.4824 Q2062.85 40.3308 2062.85 46.9338 L2062.85 72.576 L2055.35 72.576 L2055.35 27.2059 L2062.85 27.2059 L2062.85 34.2544 Q2065.4 30.082 2068.96 28.0971 Q2072.53 26.1121 2077.43 26.1121 Q2082.37 26.1121 2085.81 28.6237 Q2089.3 31.1352 2090.96 35.9153 Z" fill="#000000" fill-rule="nonzero" fill-opacity="1" /><path clip-path="url(#clip170)" d="M2154.03 32.4315 Q2148.04 32.4315 2144.55 37.1306 Q2141.07 41.7891 2141.07 49.9314 Q2141.07 58.0738 2144.51 62.7728 Q2148 67.4314 2154.03 67.4314 Q2159.99 67.4314 2163.47 62.7323 Q2166.95 58.0333 2166.95 49.9314 Q2166.95 41.8701 2163.47 37.1711 Q2159.99 32.4315 2154.03 32.4315 M2154.03 26.1121 Q2163.75 26.1121 2169.3 32.4315 Q2174.85 38.7509 2174.85 49.9314 Q2174.85 61.0714 2169.3 67.4314 Q2163.75 73.7508 2154.03 73.7508 Q2144.27 73.7508 2138.72 67.4314 Q2133.21 61.0714 2133.21 49.9314 Q2133.21 38.7509 2138.72 32.4315 Q2144.27 26.1121 2154.03 26.1121 Z" fill="#000000" fill-rule="nonzero" fill-opacity="1" /><path clip-path="url(#clip170)" d="M2217.06 34.0924 L2217.06 9.54393 L2224.52 9.54393 L2224.52 72.576 L2217.06 72.576 L2217.06 65.7705 Q2214.71 69.8214 2211.11 71.8063 Q2207.54 73.7508 2202.52 73.7508 Q2194.3 73.7508 2189.11 67.1883 Q2183.97 60.6258 2183.97 49.9314 Q2183.97 39.2371 2189.11 32.6746 Q2194.3 26.1121 2202.52 26.1121 Q2207.54 26.1121 2211.11 28.0971 Q2214.71 30.0415 2217.06 34.0924 M2191.66 49.9314 Q2191.66 58.1548 2195.03 62.8538 Q2198.43 67.5124 2204.34 67.5124 Q2210.26 67.5124 2213.66 62.8538 Q2217.06 58.1548 2217.06 49.9314 Q2217.06 41.7081 2213.66 37.0496 Q2210.26 32.3505 2204.34 32.3505 Q2198.43 32.3505 2195.03 37.0496 Q2191.66 41.7081 2191.66 49.9314 Z" fill="#000000" fill-rule="nonzero" fill-opacity="1" /><path clip-path="url(#clip170)" d="M2278.68 48.0275 L2278.68 51.6733 L2244.41 51.6733 Q2244.89 59.3701 2249.03 63.421 Q2253.2 67.4314 2260.61 67.4314 Q2264.91 67.4314 2268.92 66.3781 Q2272.97 65.3249 2276.94 63.2184 L2276.94 70.267 Q2272.93 71.9684 2268.71 72.8596 Q2264.5 73.7508 2260.17 73.7508 Q2249.31 73.7508 2242.95 67.4314 Q2236.63 61.1119 2236.63 50.3365 Q2236.63 39.1965 2242.63 32.6746 Q2248.66 26.1121 2258.87 26.1121 Q2268.02 26.1121 2273.33 32.0264 Q2278.68 37.9003 2278.68 48.0275 M2271.22 45.84 Q2271.14 39.7232 2267.78 36.0774 Q2264.46 32.4315 2258.95 32.4315 Q2252.71 32.4315 2248.94 35.9558 Q2245.22 39.4801 2244.65 45.8805 L2271.22 45.84 Z" fill="#000000" fill-rule="nonzero" fill-opacity="1" /><path clip-path="url(#clip170)" d="M2290.91 9.54393 L2298.37 9.54393 L2298.37 72.576 L2290.91 72.576 L2290.91 9.54393 Z" fill="#000000" fill-rule="nonzero" fill-opacity="1" /><path clip-path="url(#clip170)" d="M2312.79 9.62495 L2319.27 9.62495 Q2325.34 19.1851 2328.34 28.3401 Q2331.38 37.4952 2331.38 46.5287 Q2331.38 55.6027 2328.34 64.7983 Q2325.34 73.9938 2319.27 83.5134 L2312.79 83.5134 Q2318.17 74.2369 2320.81 65.0818 Q2323.48 55.8863 2323.48 46.5287 Q2323.48 37.1711 2320.81 28.0566 Q2318.17 18.942 2312.79 9.62495 Z" fill="#000000" fill-rule="nonzero" fill-opacity="1" /><path clip-path="url(#clip171)" d="M343.921 1730.95 L343.921 1734.12 L437.971 1734.12 L437.971 1730.95 L343.921 1730.95 L343.921 1730.95  Z" fill="#4682b4" fill-rule="evenodd" fill-opacity="0.7"/>
<polyline clip-path="url(#clip171)" style="stroke:#000000; stroke-linecap:round; stroke-linejoin:round; stroke-width:4; stroke-opacity:0.7; fill:none" points="343.921,1730.95 343.921,1734.12 437.971,1734.12 437.971,1730.95 343.921,1730.95 "/>
<path clip-path="url(#clip171)" d="M437.971 1715.14 L437.971 1734.12 L532.021 1734.12 L532.021 1715.14 L437.971 1715.14 L437.971 1715.14  Z" fill="#4682b4" fill-rule="evenodd" fill-opacity="0.7"/>
<polyline clip-path="url(#clip171)" style="stroke:#000000; stroke-linecap:round; stroke-linejoin:round; stroke-width:4; stroke-opacity:0.7; fill:none" points="437.971,1715.14 437.971,1734.12 532.021,1734.12 532.021,1715.14 437.971,1715.14 "/>
<path clip-path="url(#clip171)" d="M532.021 1655.07 L532.021 1734.12 L626.071 1734.12 L626.071 1655.07 L532.021 1655.07 L532.021 1655.07  Z" fill="#4682b4" fill-rule="evenodd" fill-opacity="0.7"/>
<polyline clip-path="url(#clip171)" style="stroke:#000000; stroke-linecap:round; stroke-linejoin:round; stroke-width:4; stroke-opacity:0.7; fill:none" points="532.021,1655.07 532.021,1734.12 626.071,1734.12 626.071,1655.07 532.021,1655.07 "/>
<path clip-path="url(#clip171)" d="M626.071 1585.5 L626.071 1734.12 L720.121 1734.12 L720.121 1585.5 L626.071 1585.5 L626.071 1585.5  Z" fill="#4682b4" fill-rule="evenodd" fill-opacity="0.7"/>
<polyline clip-path="url(#clip171)" style="stroke:#000000; stroke-linecap:round; stroke-linejoin:round; stroke-width:4; stroke-opacity:0.7; fill:none" points="626.071,1585.5 626.071,1734.12 720.121,1734.12 720.121,1585.5 626.071,1585.5 "/>
<path clip-path="url(#clip171)" d="M720.121 1342.02 L720.121 1734.12 L814.171 1734.12 L814.171 1342.02 L720.121 1342.02 L720.121 1342.02  Z" fill="#4682b4" fill-rule="evenodd" fill-opacity="0.7"/>
<polyline clip-path="url(#clip171)" style="stroke:#000000; stroke-linecap:round; stroke-linejoin:round; stroke-width:4; stroke-opacity:0.7; fill:none" points="720.121,1342.02 720.121,1734.12 814.171,1734.12 814.171,1342.02 720.121,1342.02 "/>
<path clip-path="url(#clip171)" d="M814.171 1114.35 L814.171 1734.12 L908.221 1734.12 L908.221 1114.35 L814.171 1114.35 L814.171 1114.35  Z" fill="#4682b4" fill-rule="evenodd" fill-opacity="0.7"/>
<polyline clip-path="url(#clip171)" style="stroke:#000000; stroke-linecap:round; stroke-linejoin:round; stroke-width:4; stroke-opacity:0.7; fill:none" points="814.171,1114.35 814.171,1734.12 908.221,1734.12 908.221,1114.35 814.171,1114.35 "/>
<path clip-path="url(#clip171)" d="M908.221 813.958 L908.221 1734.12 L1002.27 1734.12 L1002.27 813.958 L908.221 813.958 L908.221 813.958  Z" fill="#4682b4" fill-rule="evenodd" fill-opacity="0.7"/>
<polyline clip-path="url(#clip171)" style="stroke:#000000; stroke-linecap:round; stroke-linejoin:round; stroke-width:4; stroke-opacity:0.7; fill:none" points="908.221,813.958 908.221,1734.12 1002.27,1734.12 1002.27,813.958 908.221,813.958 "/>
<path clip-path="url(#clip171)" d="M1002.27 560.994 L1002.27 1734.12 L1096.32 1734.12 L1096.32 560.994 L1002.27 560.994 L1002.27 560.994  Z" fill="#4682b4" fill-rule="evenodd" fill-opacity="0.7"/>
<polyline clip-path="url(#clip171)" style="stroke:#000000; stroke-linecap:round; stroke-linejoin:round; stroke-width:4; stroke-opacity:0.7; fill:none" points="1002.27,560.994 1002.27,1734.12 1096.32,1734.12 1096.32,560.994 1002.27,560.994 "/>
<path clip-path="url(#clip171)" d="M1096.32 311.191 L1096.32 1734.12 L1190.37 1734.12 L1190.37 311.191 L1096.32 311.191 L1096.32 311.191  Z" fill="#4682b4" fill-rule="evenodd" fill-opacity="0.7"/>
<polyline clip-path="url(#clip171)" style="stroke:#000000; stroke-linecap:round; stroke-linejoin:round; stroke-width:4; stroke-opacity:0.7; fill:none" points="1096.32,311.191 1096.32,1734.12 1190.37,1734.12 1190.37,311.191 1096.32,311.191 "/>
<path clip-path="url(#clip171)" d="M1190.37 127.792 L1190.37 1734.12 L1284.42 1734.12 L1284.42 127.792 L1190.37 127.792 L1190.37 127.792  Z" fill="#4682b4" fill-rule="evenodd" fill-opacity="0.7"/>
<polyline clip-path="url(#clip171)" style="stroke:#000000; stroke-linecap:round; stroke-linejoin:round; stroke-width:4; stroke-opacity:0.7; fill:none" points="1190.37,127.792 1190.37,1734.12 1284.42,1734.12 1284.42,127.792 1190.37,127.792 "/>
<path clip-path="url(#clip171)" d="M1284.42 216.33 L1284.42 1734.12 L1378.47 1734.12 L1378.47 216.33 L1284.42 216.33 L1284.42 216.33  Z" fill="#4682b4" fill-rule="evenodd" fill-opacity="0.7"/>
<polyline clip-path="url(#clip171)" style="stroke:#000000; stroke-linecap:round; stroke-linejoin:round; stroke-width:4; stroke-opacity:0.7; fill:none" points="1284.42,216.33 1284.42,1734.12 1378.47,1734.12 1378.47,216.33 1284.42,216.33 "/>
<path clip-path="url(#clip171)" d="M1378.47 257.436 L1378.47 1734.12 L1472.52 1734.12 L1472.52 257.436 L1378.47 257.436 L1378.47 257.436  Z" fill="#4682b4" fill-rule="evenodd" fill-opacity="0.7"/>
<polyline clip-path="url(#clip171)" style="stroke:#000000; stroke-linecap:round; stroke-linejoin:round; stroke-width:4; stroke-opacity:0.7; fill:none" points="1378.47,257.436 1378.47,1734.12 1472.52,1734.12 1472.52,257.436 1378.47,257.436 "/>
<path clip-path="url(#clip171)" d="M1472.52 674.828 L1472.52 1734.12 L1566.57 1734.12 L1566.57 674.828 L1472.52 674.828 L1472.52 674.828  Z" fill="#4682b4" fill-rule="evenodd" fill-opacity="0.7"/>
<polyline clip-path="url(#clip171)" style="stroke:#000000; stroke-linecap:round; stroke-linejoin:round; stroke-width:4; stroke-opacity:0.7; fill:none" points="1472.52,674.828 1472.52,1734.12 1566.57,1734.12 1566.57,674.828 1472.52,674.828 "/>
<path clip-path="url(#clip171)" d="M1566.57 883.524 L1566.57 1734.12 L1660.62 1734.12 L1660.62 883.524 L1566.57 883.524 L1566.57 883.524  Z" fill="#4682b4" fill-rule="evenodd" fill-opacity="0.7"/>
<polyline clip-path="url(#clip171)" style="stroke:#000000; stroke-linecap:round; stroke-linejoin:round; stroke-width:4; stroke-opacity:0.7; fill:none" points="1566.57,883.524 1566.57,1734.12 1660.62,1734.12 1660.62,883.524 1566.57,883.524 "/>
<path clip-path="url(#clip171)" d="M1660.62 1168.11 L1660.62 1734.12 L1754.67 1734.12 L1754.67 1168.11 L1660.62 1168.11 L1660.62 1168.11  Z" fill="#4682b4" fill-rule="evenodd" fill-opacity="0.7"/>
<polyline clip-path="url(#clip171)" style="stroke:#000000; stroke-linecap:round; stroke-linejoin:round; stroke-width:4; stroke-opacity:0.7; fill:none" points="1660.62,1168.11 1660.62,1734.12 1754.67,1734.12 1754.67,1168.11 1660.62,1168.11 "/>
<path clip-path="url(#clip171)" d="M1754.67 1392.61 L1754.67 1734.12 L1848.72 1734.12 L1848.72 1392.61 L1754.67 1392.61 L1754.67 1392.61  Z" fill="#4682b4" fill-rule="evenodd" fill-opacity="0.7"/>
<polyline clip-path="url(#clip171)" style="stroke:#000000; stroke-linecap:round; stroke-linejoin:round; stroke-width:4; stroke-opacity:0.7; fill:none" points="1754.67,1392.61 1754.67,1734.12 1848.72,1734.12 1848.72,1392.61 1754.67,1392.61 "/>
<path clip-path="url(#clip171)" d="M1848.72 1512.77 L1848.72 1734.12 L1942.77 1734.12 L1942.77 1512.77 L1848.72 1512.77 L1848.72 1512.77  Z" fill="#4682b4" fill-rule="evenodd" fill-opacity="0.7"/>
<polyline clip-path="url(#clip171)" style="stroke:#000000; stroke-linecap:round; stroke-linejoin:round; stroke-width:4; stroke-opacity:0.7; fill:none" points="1848.72,1512.77 1848.72,1734.12 1942.77,1734.12 1942.77,1512.77 1848.72,1512.77 "/>
<path clip-path="url(#clip171)" d="M1942.77 1604.47 L1942.77 1734.12 L2036.82 1734.12 L2036.82 1604.47 L1942.77 1604.47 L1942.77 1604.47  Z" fill="#4682b4" fill-rule="evenodd" fill-opacity="0.7"/>
<polyline clip-path="url(#clip171)" style="stroke:#000000; stroke-linecap:round; stroke-linejoin:round; stroke-width:4; stroke-opacity:0.7; fill:none" points="1942.77,1604.47 1942.77,1734.12 2036.82,1734.12 2036.82,1604.47 1942.77,1604.47 "/>
<path clip-path="url(#clip171)" d="M2036.82 1677.2 L2036.82 1734.12 L2130.87 1734.12 L2130.87 1677.2 L2036.82 1677.2 L2036.82 1677.2  Z" fill="#4682b4" fill-rule="evenodd" fill-opacity="0.7"/>
<polyline clip-path="url(#clip171)" style="stroke:#000000; stroke-linecap:round; stroke-linejoin:round; stroke-width:4; stroke-opacity:0.7; fill:none" points="2036.82,1677.2 2036.82,1734.12 2130.87,1734.12 2130.87,1677.2 2036.82,1677.2 "/>
<path clip-path="url(#clip171)" d="M2130.87 1705.66 L2130.87 1734.12 L2224.92 1734.12 L2224.92 1705.66 L2130.87 1705.66 L2130.87 1705.66  Z" fill="#4682b4" fill-rule="evenodd" fill-opacity="0.7"/>
<polyline clip-path="url(#clip171)" style="stroke:#000000; stroke-linecap:round; stroke-linejoin:round; stroke-width:4; stroke-opacity:0.7; fill:none" points="2130.87,1705.66 2130.87,1734.12 2224.92,1734.12 2224.92,1705.66 2130.87,1705.66 "/>
<path clip-path="url(#clip171)" d="M2224.92 1724.63 L2224.92 1734.12 L2318.97 1734.12 L2318.97 1724.63 L2224.92 1724.63 L2224.92 1724.63  Z" fill="#4682b4" fill-rule="evenodd" fill-opacity="0.7"/>
<polyline clip-path="url(#clip171)" style="stroke:#000000; stroke-linecap:round; stroke-linejoin:round; stroke-width:4; stroke-opacity:0.7; fill:none" points="2224.92,1724.63 2224.92,1734.12 2318.97,1734.12 2318.97,1724.63 2224.92,1724.63 "/>
<path clip-path="url(#clip171)" d="M2318.97 1730.95 L2318.97 1734.12 L2413.02 1734.12 L2413.02 1730.95 L2318.97 1730.95 L2318.97 1730.95  Z" fill="#4682b4" fill-rule="evenodd" fill-opacity="0.7"/>
<polyline clip-path="url(#clip171)" style="stroke:#000000; stroke-linecap:round; stroke-linejoin:round; stroke-width:4; stroke-opacity:0.7; fill:none" points="2318.97,1730.95 2318.97,1734.12 2413.02,1734.12 2413.02,1730.95 2318.97,1730.95 "/>
<path clip-path="url(#clip171)" d="M2413.02 1730.95 L2413.02 1734.12 L2507.07 1734.12 L2507.07 1730.95 L2413.02 1730.95 L2413.02 1730.95  Z" fill="#4682b4" fill-rule="evenodd" fill-opacity="0.7"/>
<polyline clip-path="url(#clip171)" style="stroke:#000000; stroke-linecap:round; stroke-linejoin:round; stroke-width:4; stroke-opacity:0.7; fill:none" points="2413.02,1730.95 2413.02,1734.12 2507.07,1734.12 2507.07,1730.95 2413.02,1730.95 "/>
<circle clip-path="url(#clip171)" style="fill:#4682b4; stroke:none; fill-opacity:0" cx="390.946" cy="1730.95" r="2"/>
<circle clip-path="url(#clip171)" style="fill:#4682b4; stroke:none; fill-opacity:0" cx="484.996" cy="1715.14" r="2"/>
<circle clip-path="url(#clip171)" style="fill:#4682b4; stroke:none; fill-opacity:0" cx="579.046" cy="1655.07" r="2"/>
<circle clip-path="url(#clip171)" style="fill:#4682b4; stroke:none; fill-opacity:0" cx="673.096" cy="1585.5" r="2"/>
<circle clip-path="url(#clip171)" style="fill:#4682b4; stroke:none; fill-opacity:0" cx="767.146" cy="1342.02" r="2"/>
<circle clip-path="url(#clip171)" style="fill:#4682b4; stroke:none; fill-opacity:0" cx="861.196" cy="1114.35" r="2"/>
<circle clip-path="url(#clip171)" style="fill:#4682b4; stroke:none; fill-opacity:0" cx="955.246" cy="813.958" r="2"/>
<circle clip-path="url(#clip171)" style="fill:#4682b4; stroke:none; fill-opacity:0" cx="1049.3" cy="560.994" r="2"/>
<circle clip-path="url(#clip171)" style="fill:#4682b4; stroke:none; fill-opacity:0" cx="1143.35" cy="311.191" r="2"/>
<circle clip-path="url(#clip171)" style="fill:#4682b4; stroke:none; fill-opacity:0" cx="1237.4" cy="127.792" r="2"/>
<circle clip-path="url(#clip171)" style="fill:#4682b4; stroke:none; fill-opacity:0" cx="1331.45" cy="216.33" r="2"/>
<circle clip-path="url(#clip171)" style="fill:#4682b4; stroke:none; fill-opacity:0" cx="1425.5" cy="257.436" r="2"/>
<circle clip-path="url(#clip171)" style="fill:#4682b4; stroke:none; fill-opacity:0" cx="1519.55" cy="674.828" r="2"/>
<circle clip-path="url(#clip171)" style="fill:#4682b4; stroke:none; fill-opacity:0" cx="1613.6" cy="883.524" r="2"/>
<circle clip-path="url(#clip171)" style="fill:#4682b4; stroke:none; fill-opacity:0" cx="1707.65" cy="1168.11" r="2"/>
<circle clip-path="url(#clip171)" style="fill:#4682b4; stroke:none; fill-opacity:0" cx="1801.7" cy="1392.61" r="2"/>
<circle clip-path="url(#clip171)" style="fill:#4682b4; stroke:none; fill-opacity:0" cx="1895.75" cy="1512.77" r="2"/>
<circle clip-path="url(#clip171)" style="fill:#4682b4; stroke:none; fill-opacity:0" cx="1989.8" cy="1604.47" r="2"/>
<circle clip-path="url(#clip171)" style="fill:#4682b4; stroke:none; fill-opacity:0" cx="2083.85" cy="1677.2" r="2"/>
<circle clip-path="url(#clip171)" style="fill:#4682b4; stroke:none; fill-opacity:0" cx="2177.9" cy="1705.66" r="2"/>
<circle clip-path="url(#clip171)" style="fill:#4682b4; stroke:none; fill-opacity:0" cx="2271.95" cy="1724.63" r="2"/>
<circle clip-path="url(#clip171)" style="fill:#4682b4; stroke:none; fill-opacity:0" cx="2366" cy="1730.95" r="2"/>
<circle clip-path="url(#clip171)" style="fill:#4682b4; stroke:none; fill-opacity:0" cx="2460.05" cy="1730.95" r="2"/>
<polyline clip-path="url(#clip171)" style="stroke:#ff0000; stroke-linecap:round; stroke-linejoin:round; stroke-width:8; stroke-opacity:1; fill:none" points="1253.63,3340.44 1253.63,-1478.53 "/>
<path clip-path="url(#clip170)" d="M2015.35 336.856 L2559.74 336.856 L2559.74 181.336 L2015.35 181.336  Z" fill="#ffffff" fill-rule="evenodd" fill-opacity="1"/>
<polyline clip-path="url(#clip170)" style="stroke:#000000; stroke-linecap:round; stroke-linejoin:round; stroke-width:4; stroke-opacity:1; fill:none" points="2015.35,336.856 2559.74,336.856 2559.74,181.336 2015.35,181.336 2015.35,336.856 "/>
<path clip-path="url(#clip170)" d="M2042.35 253.912 L2204.39 253.912 L2204.39 212.44 L2042.35 212.44 L2042.35 253.912  Z" fill="#4682b4" fill-rule="evenodd" fill-opacity="0.7"/>
<polyline clip-path="url(#clip170)" style="stroke:#000000; stroke-linecap:round; stroke-linejoin:round; stroke-width:4; stroke-opacity:1; fill:none" points="2042.35,253.912 2204.39,253.912 2204.39,212.44 2042.35,212.44 2042.35,253.912 "/>
<path clip-path="url(#clip170)" d="M2235.67 246.567 L2235.67 260.317 L2231.39 260.317 L2231.39 224.531 L2235.67 224.531 L2235.67 228.466 Q2237.02 226.151 2239.05 225.04 Q2241.11 223.906 2243.96 223.906 Q2248.68 223.906 2251.62 227.655 Q2254.59 231.405 2254.59 237.517 Q2254.59 243.628 2251.62 247.378 Q2248.68 251.128 2243.96 251.128 Q2241.11 251.128 2239.05 250.016 Q2237.02 248.882 2235.67 246.567 M2250.16 237.517 Q2250.16 232.817 2248.22 230.155 Q2246.3 227.47 2242.92 227.47 Q2239.54 227.47 2237.6 230.155 Q2235.67 232.817 2235.67 237.517 Q2235.67 242.216 2237.6 244.901 Q2239.54 247.563 2242.92 247.563 Q2246.3 247.563 2248.22 244.901 Q2250.16 242.216 2250.16 237.517 Z" fill="#000000" fill-rule="nonzero" fill-opacity="1" /><path clip-path="url(#clip170)" d="M2271.69 227.517 Q2268.27 227.517 2266.28 230.202 Q2264.29 232.864 2264.29 237.517 Q2264.29 242.169 2266.25 244.854 Q2268.24 247.516 2271.69 247.516 Q2275.1 247.516 2277.09 244.831 Q2279.08 242.146 2279.08 237.517 Q2279.08 232.91 2277.09 230.225 Q2275.1 227.517 2271.69 227.517 M2271.69 223.906 Q2277.25 223.906 2280.42 227.517 Q2283.59 231.128 2283.59 237.517 Q2283.59 243.882 2280.42 247.516 Q2277.25 251.128 2271.69 251.128 Q2266.11 251.128 2262.94 247.516 Q2259.79 243.882 2259.79 237.517 Q2259.79 231.128 2262.94 227.517 Q2266.11 223.906 2271.69 223.906 Z" fill="#000000" fill-rule="nonzero" fill-opacity="1" /><path clip-path="url(#clip170)" d="M2307.18 225.294 L2307.18 229.322 Q2305.37 228.396 2303.43 227.933 Q2301.48 227.47 2299.4 227.47 Q2296.23 227.47 2294.63 228.443 Q2293.06 229.415 2293.06 231.359 Q2293.06 232.841 2294.19 233.697 Q2295.33 234.53 2298.75 235.294 L2300.21 235.618 Q2304.75 236.591 2306.65 238.373 Q2308.57 240.132 2308.57 243.304 Q2308.57 246.915 2305.7 249.021 Q2302.85 251.128 2297.85 251.128 Q2295.77 251.128 2293.5 250.711 Q2291.25 250.317 2288.75 249.507 L2288.75 245.109 Q2291.11 246.336 2293.41 246.961 Q2295.7 247.563 2297.94 247.563 Q2300.95 247.563 2302.57 246.544 Q2304.19 245.503 2304.19 243.628 Q2304.19 241.892 2303.01 240.966 Q2301.85 240.04 2297.9 239.183 L2296.41 238.836 Q2292.46 238.003 2290.7 236.29 Q2288.94 234.554 2288.94 231.544 Q2288.94 227.887 2291.53 225.896 Q2294.12 223.906 2298.89 223.906 Q2301.25 223.906 2303.34 224.253 Q2305.42 224.6 2307.18 225.294 Z" fill="#000000" fill-rule="nonzero" fill-opacity="1" /><path clip-path="url(#clip170)" d="M2319.56 217.169 L2319.56 224.531 L2328.34 224.531 L2328.34 227.841 L2319.56 227.841 L2319.56 241.915 Q2319.56 245.086 2320.42 245.989 Q2321.3 246.891 2323.96 246.891 L2328.34 246.891 L2328.34 250.456 L2323.96 250.456 Q2319.03 250.456 2317.16 248.628 Q2315.28 246.776 2315.28 241.915 L2315.28 227.841 L2312.16 227.841 L2312.16 224.531 L2315.28 224.531 L2315.28 217.169 L2319.56 217.169 Z" fill="#000000" fill-rule="nonzero" fill-opacity="1" /><path clip-path="url(#clip170)" d="M2356.11 236.429 L2356.11 238.512 L2336.53 238.512 Q2336.81 242.91 2339.17 245.225 Q2341.55 247.516 2345.79 247.516 Q2348.24 247.516 2350.53 246.915 Q2352.85 246.313 2355.12 245.109 L2355.12 249.137 Q2352.83 250.109 2350.42 250.618 Q2348.01 251.128 2345.53 251.128 Q2339.33 251.128 2335.7 247.516 Q2332.09 243.905 2332.09 237.748 Q2332.09 231.382 2335.51 227.655 Q2338.96 223.906 2344.79 223.906 Q2350.03 223.906 2353.06 227.285 Q2356.11 230.642 2356.11 236.429 M2351.85 235.179 Q2351.81 231.683 2349.89 229.6 Q2347.99 227.517 2344.84 227.517 Q2341.28 227.517 2339.12 229.53 Q2336.99 231.544 2336.67 235.202 L2351.85 235.179 Z" fill="#000000" fill-rule="nonzero" fill-opacity="1" /><path clip-path="url(#clip170)" d="M2378.13 228.512 Q2377.41 228.095 2376.55 227.91 Q2375.72 227.702 2374.7 227.702 Q2371.09 227.702 2369.15 230.063 Q2367.22 232.401 2367.22 236.799 L2367.22 250.456 L2362.94 250.456 L2362.94 224.531 L2367.22 224.531 L2367.22 228.558 Q2368.57 226.197 2370.72 225.063 Q2372.87 223.906 2375.95 223.906 Q2376.39 223.906 2376.92 223.975 Q2377.46 224.021 2378.1 224.137 L2378.13 228.512 Z" fill="#000000" fill-rule="nonzero" fill-opacity="1" /><path clip-path="url(#clip170)" d="M2382.59 224.531 L2386.85 224.531 L2386.85 250.456 L2382.59 250.456 L2382.59 224.531 M2382.59 214.438 L2386.85 214.438 L2386.85 219.831 L2382.59 219.831 L2382.59 214.438 Z" fill="#000000" fill-rule="nonzero" fill-opacity="1" /><path clip-path="url(#clip170)" d="M2405.81 227.517 Q2402.39 227.517 2400.4 230.202 Q2398.4 232.864 2398.4 237.517 Q2398.4 242.169 2400.37 244.854 Q2402.36 247.516 2405.81 247.516 Q2409.22 247.516 2411.21 244.831 Q2413.2 242.146 2413.2 237.517 Q2413.2 232.91 2411.21 230.225 Q2409.22 227.517 2405.81 227.517 M2405.81 223.906 Q2411.37 223.906 2414.54 227.517 Q2417.71 231.128 2417.71 237.517 Q2417.71 243.882 2414.54 247.516 Q2411.37 251.128 2405.81 251.128 Q2400.23 251.128 2397.06 247.516 Q2393.91 243.882 2393.91 237.517 Q2393.91 231.128 2397.06 227.517 Q2400.23 223.906 2405.81 223.906 Z" fill="#000000" fill-rule="nonzero" fill-opacity="1" /><path clip-path="url(#clip170)" d="M2439.79 228.512 Q2439.08 228.095 2438.22 227.91 Q2437.39 227.702 2436.37 227.702 Q2432.76 227.702 2430.81 230.063 Q2428.89 232.401 2428.89 236.799 L2428.89 250.456 L2424.61 250.456 L2424.61 224.531 L2428.89 224.531 L2428.89 228.558 Q2430.23 226.197 2432.39 225.063 Q2434.54 223.906 2437.62 223.906 Q2438.06 223.906 2438.59 223.975 Q2439.12 224.021 2439.77 224.137 L2439.79 228.512 Z" fill="#000000" fill-rule="nonzero" fill-opacity="1" /><polyline clip-path="url(#clip170)" style="stroke:#ff0000; stroke-linecap:round; stroke-linejoin:round; stroke-width:8; stroke-opacity:1; fill:none" points="2042.35,285.016 2204.39,285.016 "/>
<path clip-path="url(#clip170)" d="M2247.9 266.278 L2247.9 269.82 L2243.82 269.82 Q2241.53 269.82 2240.63 270.746 Q2239.75 271.671 2239.75 274.079 L2239.75 276.371 L2246.76 276.371 L2246.76 279.681 L2239.75 279.681 L2239.75 302.296 L2235.47 302.296 L2235.47 279.681 L2231.39 279.681 L2231.39 276.371 L2235.47 276.371 L2235.47 274.565 Q2235.47 270.236 2237.48 268.269 Q2239.49 266.278 2243.87 266.278 L2247.9 266.278 Z" fill="#000000" fill-rule="nonzero" fill-opacity="1" /><path clip-path="url(#clip170)" d="M2266.48 280.352 Q2265.77 279.935 2264.91 279.75 Q2264.08 279.542 2263.06 279.542 Q2259.45 279.542 2257.5 281.903 Q2255.58 284.241 2255.58 288.639 L2255.58 302.296 L2251.3 302.296 L2251.3 276.371 L2255.58 276.371 L2255.58 280.398 Q2256.92 278.037 2259.08 276.903 Q2261.23 275.746 2264.31 275.746 Q2264.75 275.746 2265.28 275.815 Q2265.81 275.861 2266.46 275.977 L2266.48 280.352 Z" fill="#000000" fill-rule="nonzero" fill-opacity="1" /><path clip-path="url(#clip170)" d="M2292.09 288.269 L2292.09 290.352 L2272.5 290.352 Q2272.78 294.75 2275.14 297.065 Q2277.53 299.356 2281.76 299.356 Q2284.22 299.356 2286.51 298.755 Q2288.82 298.153 2291.09 296.949 L2291.09 300.977 Q2288.8 301.949 2286.39 302.458 Q2283.98 302.968 2281.51 302.968 Q2275.3 302.968 2271.67 299.356 Q2268.06 295.745 2268.06 289.588 Q2268.06 283.222 2271.48 279.495 Q2274.93 275.746 2280.77 275.746 Q2286 275.746 2289.03 279.125 Q2292.09 282.482 2292.09 288.269 M2287.83 287.019 Q2287.78 283.523 2285.86 281.44 Q2283.96 279.357 2280.81 279.357 Q2277.25 279.357 2275.1 281.37 Q2272.97 283.384 2272.64 287.042 L2287.83 287.019 Z" fill="#000000" fill-rule="nonzero" fill-opacity="1" /><path clip-path="url(#clip170)" d="M2301.62 289.357 Q2301.62 294.056 2303.54 296.741 Q2305.49 299.403 2308.87 299.403 Q2312.25 299.403 2314.19 296.741 Q2316.14 294.056 2316.14 289.357 Q2316.14 284.657 2314.19 281.995 Q2312.25 279.31 2308.87 279.31 Q2305.49 279.31 2303.54 281.995 Q2301.62 284.657 2301.62 289.357 M2316.14 298.407 Q2314.79 300.722 2312.73 301.856 Q2310.7 302.968 2307.83 302.968 Q2303.13 302.968 2300.16 299.218 Q2297.22 295.468 2297.22 289.357 Q2297.22 283.245 2300.16 279.495 Q2303.13 275.746 2307.83 275.746 Q2310.7 275.746 2312.73 276.88 Q2314.79 277.991 2316.14 280.306 L2316.14 276.371 L2320.4 276.371 L2320.4 312.157 L2316.14 312.157 L2316.14 298.407 Z" fill="#000000" fill-rule="nonzero" fill-opacity="1" /><path clip-path="url(#clip170)" d="M2328.73 292.065 L2328.73 276.371 L2332.99 276.371 L2332.99 291.903 Q2332.99 295.583 2334.42 297.435 Q2335.86 299.264 2338.73 299.264 Q2342.18 299.264 2344.17 297.065 Q2346.18 294.866 2346.18 291.069 L2346.18 276.371 L2350.44 276.371 L2350.44 302.296 L2346.18 302.296 L2346.18 298.315 Q2344.63 300.676 2342.57 301.833 Q2340.53 302.968 2337.83 302.968 Q2333.36 302.968 2331.04 300.19 Q2328.73 297.412 2328.73 292.065 M2339.45 275.746 L2339.45 275.746 Z" fill="#000000" fill-rule="nonzero" fill-opacity="1" /><path clip-path="url(#clip170)" d="M2381.39 288.269 L2381.39 290.352 L2361.81 290.352 Q2362.09 294.75 2364.45 297.065 Q2366.83 299.356 2371.07 299.356 Q2373.52 299.356 2375.81 298.755 Q2378.13 298.153 2380.4 296.949 L2380.4 300.977 Q2378.1 301.949 2375.7 302.458 Q2373.29 302.968 2370.81 302.968 Q2364.61 302.968 2360.97 299.356 Q2357.36 295.745 2357.36 289.588 Q2357.36 283.222 2360.79 279.495 Q2364.24 275.746 2370.07 275.746 Q2375.3 275.746 2378.34 279.125 Q2381.39 282.482 2381.39 288.269 M2377.13 287.019 Q2377.09 283.523 2375.16 281.44 Q2373.27 279.357 2370.12 279.357 Q2366.55 279.357 2364.4 281.37 Q2362.27 283.384 2361.95 287.042 L2377.13 287.019 Z" fill="#000000" fill-rule="nonzero" fill-opacity="1" /><path clip-path="url(#clip170)" d="M2409.93 286.648 L2409.93 302.296 L2405.67 302.296 L2405.67 286.787 Q2405.67 283.107 2404.24 281.278 Q2402.8 279.449 2399.93 279.449 Q2396.48 279.449 2394.49 281.648 Q2392.5 283.847 2392.5 287.644 L2392.5 302.296 L2388.22 302.296 L2388.22 276.371 L2392.5 276.371 L2392.5 280.398 Q2394.03 278.06 2396.09 276.903 Q2398.17 275.746 2400.88 275.746 Q2405.35 275.746 2407.64 278.523 Q2409.93 281.278 2409.93 286.648 Z" fill="#000000" fill-rule="nonzero" fill-opacity="1" /><path clip-path="url(#clip170)" d="M2422.64 269.009 L2422.64 276.371 L2431.41 276.371 L2431.41 279.681 L2422.64 279.681 L2422.64 293.755 Q2422.64 296.926 2423.5 297.829 Q2424.38 298.731 2427.04 298.731 L2431.41 298.731 L2431.41 302.296 L2427.04 302.296 Q2422.11 302.296 2420.23 300.468 Q2418.36 298.616 2418.36 293.755 L2418.36 279.681 L2415.23 279.681 L2415.23 276.371 L2418.36 276.371 L2418.36 269.009 L2422.64 269.009 Z" fill="#000000" fill-rule="nonzero" fill-opacity="1" /><path clip-path="url(#clip170)" d="M2437.02 276.371 L2441.28 276.371 L2441.28 302.296 L2437.02 302.296 L2437.02 276.371 M2437.02 266.278 L2441.28 266.278 L2441.28 271.671 L2437.02 271.671 L2437.02 266.278 Z" fill="#000000" fill-rule="nonzero" fill-opacity="1" /><path clip-path="url(#clip170)" d="M2466.71 277.134 L2466.71 281.162 Q2464.91 280.236 2462.96 279.773 Q2461.02 279.31 2458.94 279.31 Q2455.77 279.31 2454.17 280.283 Q2452.59 281.255 2452.59 283.199 Q2452.59 284.681 2453.73 285.537 Q2454.86 286.37 2458.29 287.134 L2459.75 287.458 Q2464.28 288.431 2466.18 290.213 Q2468.1 291.972 2468.1 295.144 Q2468.1 298.755 2465.23 300.861 Q2462.39 302.968 2457.39 302.968 Q2455.3 302.968 2453.03 302.551 Q2450.79 302.157 2448.29 301.347 L2448.29 296.949 Q2450.65 298.176 2452.94 298.801 Q2455.23 299.403 2457.48 299.403 Q2460.49 299.403 2462.11 298.384 Q2463.73 297.343 2463.73 295.468 Q2463.73 293.732 2462.55 292.806 Q2461.39 291.88 2457.43 291.023 L2455.95 290.676 Q2451.99 289.843 2450.23 288.13 Q2448.47 286.394 2448.47 283.384 Q2448.47 279.727 2451.07 277.736 Q2453.66 275.746 2458.43 275.746 Q2460.79 275.746 2462.87 276.093 Q2464.96 276.44 2466.71 277.134 Z" fill="#000000" fill-rule="nonzero" fill-opacity="1" /><path clip-path="url(#clip170)" d="M2479.1 269.009 L2479.1 276.371 L2487.87 276.371 L2487.87 279.681 L2479.1 279.681 L2479.1 293.755 Q2479.1 296.926 2479.96 297.829 Q2480.84 298.731 2483.5 298.731 L2487.87 298.731 L2487.87 302.296 L2483.5 302.296 Q2478.57 302.296 2476.69 300.468 Q2474.82 298.616 2474.82 293.755 L2474.82 279.681 L2471.69 279.681 L2471.69 276.371 L2474.82 276.371 L2474.82 269.009 L2479.1 269.009 Z" fill="#000000" fill-rule="nonzero" fill-opacity="1" /><path clip-path="url(#clip170)" d="M2518.59 279.75 Q2515.07 279.75 2513.17 282.296 Q2511.18 284.958 2511.18 289.357 Q2511.18 294.009 2513.15 296.694 Q2515.14 299.356 2518.59 299.356 Q2521.99 299.356 2523.98 296.671 Q2525.97 293.986 2525.97 289.357 Q2525.97 285.12 2523.98 282.296 Q2522.15 279.75 2518.59 279.75 M2518.59 276.371 L2532.73 276.371 L2532.73 280.63 L2527.96 280.63 Q2530.49 284.241 2530.49 289.357 Q2530.49 295.722 2527.32 299.333 Q2524.14 302.968 2518.59 302.968 Q2513.01 302.968 2509.86 299.333 Q2506.69 295.722 2506.69 289.357 Q2506.69 282.945 2509.86 279.357 Q2512.48 276.371 2518.59 276.371 Z" fill="#000000" fill-rule="nonzero" fill-opacity="1" /></svg>
