<?xml version="1.0" encoding="utf-8"?>
<svg xmlns="http://www.w3.org/2000/svg" xmlns:xlink="http://www.w3.org/1999/xlink" width="528" height="336" viewBox="0 0 2112 1344">
<defs>
  <clipPath id="clip650">
    <rect x="0" y="0" width="2112" height="1344"/>
  </clipPath>
</defs>
<path clip-path="url(#clip650)" d="M0 1344 L2112 1344 L2112 2.13163e-14 L0 2.13163e-14  Z" fill="#ffffff" fill-rule="evenodd" fill-opacity="1"/>
<defs>
  <clipPath id="clip651">
    <rect x="252" y="120" width="1814" height="1054"/>
  </clipPath>
</defs>
<path clip-path="url(#clip650)" d="M252.164 1173.47 L2064.76 1173.47 L2064.76 120.723 L252.164 120.723  Z" fill="#ffffff" fill-rule="evenodd" fill-opacity="1"/>
<polyline clip-path="url(#clip651)" style="stroke:#000000; stroke-linecap:round; stroke-linejoin:round; stroke-width:2; stroke-opacity:0.1; fill:none" points="302.238,1173.47 302.238,120.723 "/>
<polyline clip-path="url(#clip651)" style="stroke:#000000; stroke-linecap:round; stroke-linejoin:round; stroke-width:2; stroke-opacity:0.1; fill:none" points="730.574,1173.47 730.574,120.723 "/>
<polyline clip-path="url(#clip651)" style="stroke:#000000; stroke-linecap:round; stroke-linejoin:round; stroke-width:2; stroke-opacity:0.1; fill:none" points="1158.91,1173.47 1158.91,120.723 "/>
<polyline clip-path="url(#clip651)" style="stroke:#000000; stroke-linecap:round; stroke-linejoin:round; stroke-width:2; stroke-opacity:0.1; fill:none" points="1587.24,1173.47 1587.24,120.723 "/>
<polyline clip-path="url(#clip651)" style="stroke:#000000; stroke-linecap:round; stroke-linejoin:round; stroke-width:2; stroke-opacity:0.1; fill:none" points="2015.58,1173.47 2015.58,120.723 "/>
<polyline clip-path="url(#clip651)" style="stroke:#000000; stroke-linecap:round; stroke-linejoin:round; stroke-width:2; stroke-opacity:0.1; fill:none" points="252.164,1108.49 2064.76,1108.49 "/>
<polyline clip-path="url(#clip651)" style="stroke:#000000; stroke-linecap:round; stroke-linejoin:round; stroke-width:2; stroke-opacity:0.1; fill:none" points="252.164,877.742 2064.76,877.742 "/>
<polyline clip-path="url(#clip651)" style="stroke:#000000; stroke-linecap:round; stroke-linejoin:round; stroke-width:2; stroke-opacity:0.1; fill:none" points="252.164,646.998 2064.76,646.998 "/>
<polyline clip-path="url(#clip651)" style="stroke:#000000; stroke-linecap:round; stroke-linejoin:round; stroke-width:2; stroke-opacity:0.1; fill:none" points="252.164,416.255 2064.76,416.255 "/>
<polyline clip-path="url(#clip651)" style="stroke:#000000; stroke-linecap:round; stroke-linejoin:round; stroke-width:2; stroke-opacity:0.1; fill:none" points="252.164,185.511 2064.76,185.511 "/>
<polyline clip-path="url(#clip650)" style="stroke:#000000; stroke-linecap:round; stroke-linejoin:round; stroke-width:4; stroke-opacity:1; fill:none" points="252.164,1173.47 2064.76,1173.47 "/>
<polyline clip-path="url(#clip650)" style="stroke:#000000; stroke-linecap:round; stroke-linejoin:round; stroke-width:4; stroke-opacity:1; fill:none" points="302.238,1173.47 302.238,1154.57 "/>
<polyline clip-path="url(#clip650)" style="stroke:#000000; stroke-linecap:round; stroke-linejoin:round; stroke-width:4; stroke-opacity:1; fill:none" points="730.574,1173.47 730.574,1154.57 "/>
<polyline clip-path="url(#clip650)" style="stroke:#000000; stroke-linecap:round; stroke-linejoin:round; stroke-width:4; stroke-opacity:1; fill:none" points="1158.91,1173.47 1158.91,1154.57 "/>
<polyline clip-path="url(#clip650)" style="stroke:#000000; stroke-linecap:round; stroke-linejoin:round; stroke-width:4; stroke-opacity:1; fill:none" points="1587.24,1173.47 1587.24,1154.57 "/>
<polyline clip-path="url(#clip650)" style="stroke:#000000; stroke-linecap:round; stroke-linejoin:round; stroke-width:4; stroke-opacity:1; fill:none" points="2015.58,1173.47 2015.58,1154.57 "/>
<path clip-path="url(#clip650)" d="M264.542 1202.09 Q260.931 1202.09 259.102 1205.65 Q257.296 1209.19 257.296 1216.32 Q257.296 1223.43 259.102 1226.99 Q260.931 1230.53 264.542 1230.53 Q268.176 1230.53 269.982 1226.99 Q271.81 1223.43 271.81 1216.32 Q271.81 1209.19 269.982 1205.65 Q268.176 1202.09 264.542 1202.09 M264.542 1198.38 Q270.352 1198.38 273.407 1202.99 Q276.486 1207.57 276.486 1216.32 Q276.486 1225.05 273.407 1229.65 Q270.352 1234.24 264.542 1234.24 Q258.732 1234.24 255.653 1229.65 Q252.597 1225.05 252.597 1216.32 Q252.597 1207.57 255.653 1202.99 Q258.732 1198.38 264.542 1198.38 Z" fill="#000000" fill-rule="nonzero" fill-opacity="1" /><path clip-path="url(#clip650)" d="M284.704 1227.69 L289.588 1227.69 L289.588 1233.57 L284.704 1233.57 L284.704 1227.69 Z" fill="#000000" fill-rule="nonzero" fill-opacity="1" /><path clip-path="url(#clip650)" d="M309.773 1202.09 Q306.162 1202.09 304.333 1205.65 Q302.528 1209.19 302.528 1216.32 Q302.528 1223.43 304.333 1226.99 Q306.162 1230.53 309.773 1230.53 Q313.407 1230.53 315.213 1226.99 Q317.041 1223.43 317.041 1216.32 Q317.041 1209.19 315.213 1205.65 Q313.407 1202.09 309.773 1202.09 M309.773 1198.38 Q315.583 1198.38 318.639 1202.99 Q321.717 1207.57 321.717 1216.32 Q321.717 1225.05 318.639 1229.65 Q315.583 1234.24 309.773 1234.24 Q303.963 1234.24 300.884 1229.65 Q297.829 1225.05 297.829 1216.32 Q297.829 1207.57 300.884 1202.99 Q303.963 1198.38 309.773 1198.38 Z" fill="#000000" fill-rule="nonzero" fill-opacity="1" /><path clip-path="url(#clip650)" d="M339.935 1202.09 Q336.324 1202.09 334.495 1205.65 Q332.69 1209.19 332.69 1216.32 Q332.69 1223.43 334.495 1226.99 Q336.324 1230.53 339.935 1230.53 Q343.569 1230.53 345.375 1226.99 Q347.203 1223.43 347.203 1216.32 Q347.203 1209.19 345.375 1205.65 Q343.569 1202.09 339.935 1202.09 M339.935 1198.38 Q345.745 1198.38 348.801 1202.99 Q351.879 1207.57 351.879 1216.32 Q351.879 1225.05 348.801 1229.65 Q345.745 1234.24 339.935 1234.24 Q334.125 1234.24 331.046 1229.65 Q327.991 1225.05 327.991 1216.32 Q327.991 1207.57 331.046 1202.99 Q334.125 1198.38 339.935 1198.38 Z" fill="#000000" fill-rule="nonzero" fill-opacity="1" /><path clip-path="url(#clip650)" d="M693.375 1202.09 Q689.764 1202.09 687.935 1205.65 Q686.13 1209.19 686.13 1216.32 Q686.13 1223.43 687.935 1226.99 Q689.764 1230.53 693.375 1230.53 Q697.009 1230.53 698.815 1226.99 Q700.643 1223.43 700.643 1216.32 Q700.643 1209.19 698.815 1205.65 Q697.009 1202.09 693.375 1202.09 M693.375 1198.38 Q699.185 1198.38 702.241 1202.99 Q705.319 1207.57 705.319 1216.32 Q705.319 1225.05 702.241 1229.65 Q699.185 1234.24 693.375 1234.24 Q687.565 1234.24 684.486 1229.65 Q681.431 1225.05 681.431 1216.32 Q681.431 1207.57 684.486 1202.99 Q687.565 1198.38 693.375 1198.38 Z" fill="#000000" fill-rule="nonzero" fill-opacity="1" /><path clip-path="url(#clip650)" d="M713.537 1227.69 L718.421 1227.69 L718.421 1233.57 L713.537 1233.57 L713.537 1227.69 Z" fill="#000000" fill-rule="nonzero" fill-opacity="1" /><path clip-path="url(#clip650)" d="M732.634 1229.63 L748.953 1229.63 L748.953 1233.57 L727.009 1233.57 L727.009 1229.63 Q729.671 1226.88 734.254 1222.25 Q738.861 1217.59 740.041 1216.25 Q742.287 1213.73 743.166 1211.99 Q744.069 1210.23 744.069 1208.54 Q744.069 1205.79 742.125 1204.05 Q740.203 1202.32 737.102 1202.32 Q734.902 1202.32 732.449 1203.08 Q730.018 1203.84 727.24 1205.4 L727.24 1200.67 Q730.065 1199.54 732.518 1198.96 Q734.972 1198.38 737.009 1198.38 Q742.379 1198.38 745.574 1201.07 Q748.768 1203.75 748.768 1208.24 Q748.768 1210.37 747.958 1212.29 Q747.171 1214.19 745.064 1216.78 Q744.486 1217.46 741.384 1220.67 Q738.282 1223.87 732.634 1229.63 Z" fill="#000000" fill-rule="nonzero" fill-opacity="1" /><path clip-path="url(#clip650)" d="M758.814 1199.01 L777.171 1199.01 L777.171 1202.94 L763.097 1202.94 L763.097 1211.41 Q764.115 1211.07 765.134 1210.9 Q766.152 1210.72 767.171 1210.72 Q772.958 1210.72 776.337 1213.89 Q779.717 1217.06 779.717 1222.48 Q779.717 1228.06 776.245 1231.16 Q772.773 1234.24 766.453 1234.24 Q764.277 1234.24 762.009 1233.87 Q759.763 1233.5 757.356 1232.76 L757.356 1228.06 Q759.439 1229.19 761.662 1229.75 Q763.884 1230.3 766.361 1230.3 Q770.365 1230.3 772.703 1228.2 Q775.041 1226.09 775.041 1222.48 Q775.041 1218.87 772.703 1216.76 Q770.365 1214.65 766.361 1214.65 Q764.486 1214.65 762.611 1215.07 Q760.759 1215.49 758.814 1216.37 L758.814 1199.01 Z" fill="#000000" fill-rule="nonzero" fill-opacity="1" /><path clip-path="url(#clip650)" d="M1121.21 1202.09 Q1117.6 1202.09 1115.77 1205.65 Q1113.97 1209.19 1113.97 1216.32 Q1113.97 1223.43 1115.77 1226.99 Q1117.6 1230.53 1121.21 1230.53 Q1124.85 1230.53 1126.65 1226.99 Q1128.48 1223.43 1128.48 1216.32 Q1128.48 1209.19 1126.65 1205.65 Q1124.85 1202.09 1121.21 1202.09 M1121.21 1198.38 Q1127.02 1198.38 1130.08 1202.99 Q1133.16 1207.57 1133.16 1216.32 Q1133.16 1225.05 1130.08 1229.65 Q1127.02 1234.24 1121.21 1234.24 Q1115.4 1234.24 1112.32 1229.65 Q1109.27 1225.05 1109.27 1216.32 Q1109.27 1207.57 1112.32 1202.99 Q1115.4 1198.38 1121.21 1198.38 Z" fill="#000000" fill-rule="nonzero" fill-opacity="1" /><path clip-path="url(#clip650)" d="M1141.37 1227.69 L1146.26 1227.69 L1146.26 1233.57 L1141.37 1233.57 L1141.37 1227.69 Z" fill="#000000" fill-rule="nonzero" fill-opacity="1" /><path clip-path="url(#clip650)" d="M1156.49 1199.01 L1174.85 1199.01 L1174.85 1202.94 L1160.77 1202.94 L1160.77 1211.41 Q1161.79 1211.07 1162.81 1210.9 Q1163.83 1210.72 1164.85 1210.72 Q1170.63 1210.72 1174.01 1213.89 Q1177.39 1217.06 1177.39 1222.48 Q1177.39 1228.06 1173.92 1231.16 Q1170.45 1234.24 1164.13 1234.24 Q1161.95 1234.24 1159.68 1233.87 Q1157.44 1233.5 1155.03 1232.76 L1155.03 1228.06 Q1157.12 1229.19 1159.34 1229.75 Q1161.56 1230.3 1164.04 1230.3 Q1168.04 1230.3 1170.38 1228.2 Q1172.72 1226.09 1172.72 1222.48 Q1172.72 1218.87 1170.38 1216.76 Q1168.04 1214.65 1164.04 1214.65 Q1162.16 1214.65 1160.29 1215.07 Q1158.43 1215.49 1156.49 1216.37 L1156.49 1199.01 Z" fill="#000000" fill-rule="nonzero" fill-opacity="1" /><path clip-path="url(#clip650)" d="M1196.61 1202.09 Q1192.99 1202.09 1191.17 1205.65 Q1189.36 1209.19 1189.36 1216.32 Q1189.36 1223.43 1191.17 1226.99 Q1192.99 1230.53 1196.61 1230.53 Q1200.24 1230.53 1202.05 1226.99 Q1203.87 1223.43 1203.87 1216.32 Q1203.87 1209.19 1202.05 1205.65 Q1200.24 1202.09 1196.61 1202.09 M1196.61 1198.38 Q1202.42 1198.38 1205.47 1202.99 Q1208.55 1207.57 1208.55 1216.32 Q1208.55 1225.05 1205.47 1229.65 Q1202.42 1234.24 1196.61 1234.24 Q1190.8 1234.24 1187.72 1229.65 Q1184.66 1225.05 1184.66 1216.32 Q1184.66 1207.57 1187.72 1202.99 Q1190.8 1198.38 1196.61 1198.38 Z" fill="#000000" fill-rule="nonzero" fill-opacity="1" /><path clip-path="url(#clip650)" d="M1550.05 1202.09 Q1546.43 1202.09 1544.61 1205.65 Q1542.8 1209.19 1542.8 1216.32 Q1542.8 1223.43 1544.61 1226.99 Q1546.43 1230.53 1550.05 1230.53 Q1553.68 1230.53 1555.49 1226.99 Q1557.31 1223.43 1557.31 1216.32 Q1557.31 1209.19 1555.49 1205.65 Q1553.68 1202.09 1550.05 1202.09 M1550.05 1198.38 Q1555.86 1198.38 1558.91 1202.99 Q1561.99 1207.57 1561.99 1216.32 Q1561.99 1225.05 1558.91 1229.65 Q1555.86 1234.24 1550.05 1234.24 Q1544.24 1234.24 1541.16 1229.65 Q1538.1 1225.05 1538.1 1216.32 Q1538.1 1207.57 1541.16 1202.99 Q1544.24 1198.38 1550.05 1198.38 Z" fill="#000000" fill-rule="nonzero" fill-opacity="1" /><path clip-path="url(#clip650)" d="M1570.21 1227.69 L1575.09 1227.69 L1575.09 1233.57 L1570.21 1233.57 L1570.21 1227.69 Z" fill="#000000" fill-rule="nonzero" fill-opacity="1" /><path clip-path="url(#clip650)" d="M1584.1 1199.01 L1606.32 1199.01 L1606.32 1201 L1593.77 1233.57 L1588.89 1233.57 L1600.69 1202.94 L1584.1 1202.94 L1584.1 1199.01 Z" fill="#000000" fill-rule="nonzero" fill-opacity="1" /><path clip-path="url(#clip650)" d="M1615.49 1199.01 L1633.84 1199.01 L1633.84 1202.94 L1619.77 1202.94 L1619.77 1211.41 Q1620.79 1211.07 1621.8 1210.9 Q1622.82 1210.72 1623.84 1210.72 Q1629.63 1210.72 1633.01 1213.89 Q1636.39 1217.06 1636.39 1222.48 Q1636.39 1228.06 1632.92 1231.16 Q1629.44 1234.24 1623.12 1234.24 Q1620.95 1234.24 1618.68 1233.87 Q1616.43 1233.5 1614.03 1232.76 L1614.03 1228.06 Q1616.11 1229.19 1618.33 1229.75 Q1620.55 1230.3 1623.03 1230.3 Q1627.04 1230.3 1629.37 1228.2 Q1631.71 1226.09 1631.71 1222.48 Q1631.71 1218.87 1629.37 1216.76 Q1627.04 1214.65 1623.03 1214.65 Q1621.16 1214.65 1619.28 1215.07 Q1617.43 1215.49 1615.49 1216.37 L1615.49 1199.01 Z" fill="#000000" fill-rule="nonzero" fill-opacity="1" /><path clip-path="url(#clip650)" d="M1967.65 1229.63 L1975.29 1229.63 L1975.29 1203.27 L1966.98 1204.93 L1966.98 1200.67 L1975.24 1199.01 L1979.92 1199.01 L1979.92 1229.63 L1987.56 1229.63 L1987.56 1233.57 L1967.65 1233.57 L1967.65 1229.63 Z" fill="#000000" fill-rule="nonzero" fill-opacity="1" /><path clip-path="url(#clip650)" d="M1997 1227.69 L2001.89 1227.69 L2001.89 1233.57 L1997 1233.57 L1997 1227.69 Z" fill="#000000" fill-rule="nonzero" fill-opacity="1" /><path clip-path="url(#clip650)" d="M2022.07 1202.09 Q2018.46 1202.09 2016.63 1205.65 Q2014.83 1209.19 2014.83 1216.32 Q2014.83 1223.43 2016.63 1226.99 Q2018.46 1230.53 2022.07 1230.53 Q2025.71 1230.53 2027.51 1226.99 Q2029.34 1223.43 2029.34 1216.32 Q2029.34 1209.19 2027.51 1205.65 Q2025.71 1202.09 2022.07 1202.09 M2022.07 1198.38 Q2027.88 1198.38 2030.94 1202.99 Q2034.02 1207.57 2034.02 1216.32 Q2034.02 1225.05 2030.94 1229.65 Q2027.88 1234.24 2022.07 1234.24 Q2016.26 1234.24 2013.18 1229.65 Q2010.13 1225.05 2010.13 1216.32 Q2010.13 1207.57 2013.18 1202.99 Q2016.26 1198.38 2022.07 1198.38 Z" fill="#000000" fill-rule="nonzero" fill-opacity="1" /><path clip-path="url(#clip650)" d="M2052.24 1202.09 Q2048.62 1202.09 2046.8 1205.65 Q2044.99 1209.19 2044.99 1216.32 Q2044.99 1223.43 2046.8 1226.99 Q2048.62 1230.53 2052.24 1230.53 Q2055.87 1230.53 2057.67 1226.99 Q2059.5 1223.43 2059.5 1216.32 Q2059.5 1209.19 2057.67 1205.65 Q2055.87 1202.09 2052.24 1202.09 M2052.24 1198.38 Q2058.05 1198.38 2061.1 1202.99 Q2064.18 1207.57 2064.18 1216.32 Q2064.18 1225.05 2061.1 1229.65 Q2058.05 1234.24 2052.24 1234.24 Q2046.42 1234.24 2043.35 1229.65 Q2040.29 1225.05 2040.29 1216.32 Q2040.29 1207.57 2043.35 1202.99 Q2046.42 1198.38 2052.24 1198.38 Z" fill="#000000" fill-rule="nonzero" fill-opacity="1" /><path clip-path="url(#clip650)" d="M1175.07 1278.37 L1162.18 1295.71 L1175.74 1314.01 L1168.84 1314.01 L1158.46 1300.01 L1148.08 1314.01 L1141.18 1314.01 L1155.02 1295.36 L1142.35 1278.37 L1149.26 1278.37 L1158.71 1291.07 L1168.17 1278.37 L1175.07 1278.37 Z" fill="#000000" fill-rule="nonzero" fill-opacity="1" /><polyline clip-path="url(#clip650)" style="stroke:#000000; stroke-linecap:round; stroke-linejoin:round; stroke-width:4; stroke-opacity:1; fill:none" points="252.164,1173.47 252.164,120.723 "/>
<polyline clip-path="url(#clip650)" style="stroke:#000000; stroke-linecap:round; stroke-linejoin:round; stroke-width:4; stroke-opacity:1; fill:none" points="252.164,1108.49 271.062,1108.49 "/>
<polyline clip-path="url(#clip650)" style="stroke:#000000; stroke-linecap:round; stroke-linejoin:round; stroke-width:4; stroke-opacity:1; fill:none" points="252.164,877.742 271.062,877.742 "/>
<polyline clip-path="url(#clip650)" style="stroke:#000000; stroke-linecap:round; stroke-linejoin:round; stroke-width:4; stroke-opacity:1; fill:none" points="252.164,646.998 271.062,646.998 "/>
<polyline clip-path="url(#clip650)" style="stroke:#000000; stroke-linecap:round; stroke-linejoin:round; stroke-width:4; stroke-opacity:1; fill:none" points="252.164,416.255 271.062,416.255 "/>
<polyline clip-path="url(#clip650)" style="stroke:#000000; stroke-linecap:round; stroke-linejoin:round; stroke-width:4; stroke-opacity:1; fill:none" points="252.164,185.511 271.062,185.511 "/>
<path clip-path="url(#clip650)" d="M113.54 1108.94 L143.216 1108.94 L143.216 1112.87 L113.54 1112.87 L113.54 1108.94 Z" fill="#000000" fill-rule="nonzero" fill-opacity="1" /><path clip-path="url(#clip650)" d="M154.119 1121.83 L161.757 1121.83 L161.757 1095.47 L153.447 1097.13 L153.447 1092.87 L161.711 1091.21 L166.387 1091.21 L166.387 1121.83 L174.026 1121.83 L174.026 1125.77 L154.119 1125.77 L154.119 1121.83 Z" fill="#000000" fill-rule="nonzero" fill-opacity="1" /><path clip-path="url(#clip650)" d="M183.47 1119.89 L188.355 1119.89 L188.355 1125.77 L183.47 1125.77 L183.47 1119.89 Z" fill="#000000" fill-rule="nonzero" fill-opacity="1" /><path clip-path="url(#clip650)" d="M208.54 1094.28 Q204.929 1094.28 203.1 1097.85 Q201.294 1101.39 201.294 1108.52 Q201.294 1115.63 203.1 1119.19 Q204.929 1122.73 208.54 1122.73 Q212.174 1122.73 213.979 1119.19 Q215.808 1115.63 215.808 1108.52 Q215.808 1101.39 213.979 1097.85 Q212.174 1094.28 208.54 1094.28 M208.54 1090.58 Q214.35 1090.58 217.405 1095.19 Q220.484 1099.77 220.484 1108.52 Q220.484 1117.25 217.405 1121.85 Q214.35 1126.44 208.54 1126.44 Q202.729 1126.44 199.651 1121.85 Q196.595 1117.25 196.595 1108.52 Q196.595 1099.77 199.651 1095.19 Q202.729 1090.58 208.54 1090.58 Z" fill="#000000" fill-rule="nonzero" fill-opacity="1" /><path clip-path="url(#clip650)" d="M114.536 878.194 L144.211 878.194 L144.211 882.129 L114.536 882.129 L114.536 878.194 Z" fill="#000000" fill-rule="nonzero" fill-opacity="1" /><path clip-path="url(#clip650)" d="M164.304 863.541 Q160.693 863.541 158.864 867.106 Q157.058 870.647 157.058 877.777 Q157.058 884.883 158.864 888.448 Q160.693 891.99 164.304 891.99 Q167.938 891.99 169.744 888.448 Q171.572 884.883 171.572 877.777 Q171.572 870.647 169.744 867.106 Q167.938 863.541 164.304 863.541 M164.304 859.837 Q170.114 859.837 173.169 864.444 Q176.248 869.027 176.248 877.777 Q176.248 886.504 173.169 891.11 Q170.114 895.693 164.304 895.693 Q158.494 895.693 155.415 891.11 Q152.359 886.504 152.359 877.777 Q152.359 869.027 155.415 864.444 Q158.494 859.837 164.304 859.837 Z" fill="#000000" fill-rule="nonzero" fill-opacity="1" /><path clip-path="url(#clip650)" d="M184.466 889.143 L189.35 889.143 L189.35 895.022 L184.466 895.022 L184.466 889.143 Z" fill="#000000" fill-rule="nonzero" fill-opacity="1" /><path clip-path="url(#clip650)" d="M199.581 860.462 L217.938 860.462 L217.938 864.397 L203.864 864.397 L203.864 872.869 Q204.882 872.522 205.901 872.36 Q206.919 872.175 207.938 872.175 Q213.725 872.175 217.104 875.346 Q220.484 878.518 220.484 883.934 Q220.484 889.513 217.012 892.615 Q213.54 895.693 207.22 895.693 Q205.044 895.693 202.776 895.323 Q200.53 894.953 198.123 894.212 L198.123 889.513 Q200.206 890.647 202.429 891.203 Q204.651 891.758 207.128 891.758 Q211.132 891.758 213.47 889.652 Q215.808 887.545 215.808 883.934 Q215.808 880.323 213.47 878.217 Q211.132 876.11 207.128 876.11 Q205.253 876.11 203.378 876.527 Q201.526 876.944 199.581 877.823 L199.581 860.462 Z" fill="#000000" fill-rule="nonzero" fill-opacity="1" /><path clip-path="url(#clip650)" d="M163.308 632.797 Q159.697 632.797 157.869 636.362 Q156.063 639.904 156.063 647.033 Q156.063 654.14 157.869 657.704 Q159.697 661.246 163.308 661.246 Q166.943 661.246 168.748 657.704 Q170.577 654.14 170.577 647.033 Q170.577 639.904 168.748 636.362 Q166.943 632.797 163.308 632.797 M163.308 629.093 Q169.119 629.093 172.174 633.7 Q175.253 638.283 175.253 647.033 Q175.253 655.76 172.174 660.366 Q169.119 664.95 163.308 664.95 Q157.498 664.95 154.42 660.366 Q151.364 655.76 151.364 647.033 Q151.364 638.283 154.42 633.7 Q157.498 629.093 163.308 629.093 Z" fill="#000000" fill-rule="nonzero" fill-opacity="1" /><path clip-path="url(#clip650)" d="M183.47 658.399 L188.355 658.399 L188.355 664.278 L183.47 664.278 L183.47 658.399 Z" fill="#000000" fill-rule="nonzero" fill-opacity="1" /><path clip-path="url(#clip650)" d="M208.54 632.797 Q204.929 632.797 203.1 636.362 Q201.294 639.904 201.294 647.033 Q201.294 654.14 203.1 657.704 Q204.929 661.246 208.54 661.246 Q212.174 661.246 213.979 657.704 Q215.808 654.14 215.808 647.033 Q215.808 639.904 213.979 636.362 Q212.174 632.797 208.54 632.797 M208.54 629.093 Q214.35 629.093 217.405 633.7 Q220.484 638.283 220.484 647.033 Q220.484 655.76 217.405 660.366 Q214.35 664.95 208.54 664.95 Q202.729 664.95 199.651 660.366 Q196.595 655.76 196.595 647.033 Q196.595 638.283 199.651 633.7 Q202.729 629.093 208.54 629.093 Z" fill="#000000" fill-rule="nonzero" fill-opacity="1" /><path clip-path="url(#clip650)" d="M164.304 402.053 Q160.693 402.053 158.864 405.618 Q157.058 409.16 157.058 416.289 Q157.058 423.396 158.864 426.961 Q160.693 430.502 164.304 430.502 Q167.938 430.502 169.744 426.961 Q171.572 423.396 171.572 416.289 Q171.572 409.16 169.744 405.618 Q167.938 402.053 164.304 402.053 M164.304 398.35 Q170.114 398.35 173.169 402.956 Q176.248 407.54 176.248 416.289 Q176.248 425.016 173.169 429.623 Q170.114 434.206 164.304 434.206 Q158.494 434.206 155.415 429.623 Q152.359 425.016 152.359 416.289 Q152.359 407.54 155.415 402.956 Q158.494 398.35 164.304 398.35 Z" fill="#000000" fill-rule="nonzero" fill-opacity="1" /><path clip-path="url(#clip650)" d="M184.466 427.655 L189.35 427.655 L189.35 433.535 L184.466 433.535 L184.466 427.655 Z" fill="#000000" fill-rule="nonzero" fill-opacity="1" /><path clip-path="url(#clip650)" d="M199.581 398.975 L217.938 398.975 L217.938 402.91 L203.864 402.91 L203.864 411.382 Q204.882 411.035 205.901 410.873 Q206.919 410.688 207.938 410.688 Q213.725 410.688 217.104 413.859 Q220.484 417.03 220.484 422.447 Q220.484 428.026 217.012 431.127 Q213.54 434.206 207.22 434.206 Q205.044 434.206 202.776 433.836 Q200.53 433.465 198.123 432.725 L198.123 428.026 Q200.206 429.16 202.429 429.715 Q204.651 430.271 207.128 430.271 Q211.132 430.271 213.47 428.164 Q215.808 426.058 215.808 422.447 Q215.808 418.836 213.47 416.729 Q211.132 414.623 207.128 414.623 Q205.253 414.623 203.378 415.039 Q201.526 415.456 199.581 416.336 L199.581 398.975 Z" fill="#000000" fill-rule="nonzero" fill-opacity="1" /><path clip-path="url(#clip650)" d="M154.119 198.856 L161.757 198.856 L161.757 172.49 L153.447 174.157 L153.447 169.898 L161.711 168.231 L166.387 168.231 L166.387 198.856 L174.026 198.856 L174.026 202.791 L154.119 202.791 L154.119 198.856 Z" fill="#000000" fill-rule="nonzero" fill-opacity="1" /><path clip-path="url(#clip650)" d="M183.47 196.911 L188.355 196.911 L188.355 202.791 L183.47 202.791 L183.47 196.911 Z" fill="#000000" fill-rule="nonzero" fill-opacity="1" /><path clip-path="url(#clip650)" d="M208.54 171.31 Q204.929 171.31 203.1 174.875 Q201.294 178.416 201.294 185.546 Q201.294 192.652 203.1 196.217 Q204.929 199.759 208.54 199.759 Q212.174 199.759 213.979 196.217 Q215.808 192.652 215.808 185.546 Q215.808 178.416 213.979 174.875 Q212.174 171.31 208.54 171.31 M208.54 167.606 Q214.35 167.606 217.405 172.213 Q220.484 176.796 220.484 185.546 Q220.484 194.273 217.405 198.879 Q214.35 203.462 208.54 203.462 Q202.729 203.462 199.651 198.879 Q196.595 194.273 196.595 185.546 Q196.595 176.796 199.651 172.213 Q202.729 167.606 208.54 167.606 Z" fill="#000000" fill-rule="nonzero" fill-opacity="1" /><path clip-path="url(#clip650)" d="M18.079 677.048 L22.9487 677.048 L22.9487 682.649 Q22.9487 685.8 24.2219 687.042 Q25.495 688.251 28.8052 688.251 L31.9562 688.251 L31.9562 678.607 L36.5077 678.607 L36.5077 688.251 L67.6042 688.251 L67.6042 694.139 L36.5077 694.139 L36.5077 699.741 L31.9562 699.741 L31.9562 694.139 L29.4736 694.139 Q23.5216 694.139 20.8162 691.37 Q18.079 688.601 18.079 682.586 L18.079 677.048 Z" fill="#000000" fill-rule="nonzero" fill-opacity="1" /><path clip-path="url(#clip650)" d="M18.1426 658.078 Q25.4632 662.343 32.6246 664.412 Q39.786 666.48 47.1384 666.48 Q54.4908 666.48 61.7159 664.412 Q68.9091 662.311 76.1979 658.078 L76.1979 663.17 Q68.7182 667.945 61.4931 670.332 Q54.268 672.687 47.1384 672.687 Q40.0406 672.687 32.8474 670.332 Q25.6542 667.976 18.1426 663.17 L18.1426 658.078 Z" fill="#000000" fill-rule="nonzero" fill-opacity="1" /><path clip-path="url(#clip650)" d="M31.9562 617.083 L49.3028 629.973 L67.6042 616.414 L67.6042 623.321 L53.5996 633.697 L67.6042 644.073 L67.6042 650.98 L48.9526 637.135 L31.9562 649.802 L31.9562 642.896 L44.6558 633.442 L31.9562 623.989 L31.9562 617.083 Z" fill="#000000" fill-rule="nonzero" fill-opacity="1" /><path clip-path="url(#clip650)" d="M18.1426 609.062 L18.1426 603.969 Q25.6542 599.195 32.8474 596.84 Q40.0406 594.452 47.1384 594.452 Q54.268 594.452 61.4931 596.84 Q68.7182 599.195 76.1979 603.969 L76.1979 609.062 Q68.9091 604.829 61.7159 602.76 Q54.4908 600.659 47.1384 600.659 Q39.786 600.659 32.6246 602.76 Q25.4632 604.829 18.1426 609.062 Z" fill="#000000" fill-rule="nonzero" fill-opacity="1" /><path clip-path="url(#clip650)" d="M535.35 14.0809 L535.35 22.0612 Q530.691 19.8332 526.559 18.7395 Q522.427 17.6457 518.579 17.6457 Q511.895 17.6457 508.249 20.2383 Q504.644 22.8309 504.644 27.611 Q504.644 31.6214 507.034 33.6873 Q509.465 35.7128 516.189 36.9686 L521.131 37.9813 Q530.286 39.7232 534.621 44.1387 Q538.996 48.5136 538.996 55.8863 Q538.996 64.6767 533.081 69.2137 Q527.208 73.7508 515.825 73.7508 Q511.531 73.7508 506.669 72.7785 Q501.849 71.8063 496.664 69.9024 L496.664 61.4765 Q501.646 64.2716 506.426 65.6895 Q511.206 67.1073 515.825 67.1073 Q522.833 67.1073 526.64 64.3527 Q530.448 61.598 530.448 56.4939 Q530.448 52.0379 527.694 49.5264 Q524.98 47.0148 518.741 45.759 L513.759 44.7868 Q504.604 42.9639 500.512 39.075 Q496.421 35.1862 496.421 28.2591 Q496.421 20.2383 502.051 15.6203 Q507.723 11.0023 517.647 11.0023 Q521.901 11.0023 526.316 11.7719 Q530.732 12.5416 535.35 14.0809 Z" fill="#000000" fill-rule="nonzero" fill-opacity="1" /><path clip-path="url(#clip650)" d="M586.756 35.9153 Q589.551 30.8922 593.44 28.5022 Q597.329 26.1121 602.595 26.1121 Q609.684 26.1121 613.532 31.0947 Q617.381 36.0368 617.381 45.1919 L617.381 72.576 L609.887 72.576 L609.887 45.4349 Q609.887 38.913 607.578 35.7533 Q605.268 32.5936 600.529 32.5936 Q594.736 32.5936 591.374 36.4419 Q588.012 40.2903 588.012 46.9338 L588.012 72.576 L580.517 72.576 L580.517 45.4349 Q580.517 38.8725 578.208 35.7533 Q575.899 32.5936 571.079 32.5936 Q565.367 32.5936 562.005 36.4824 Q558.643 40.3308 558.643 46.9338 L558.643 72.576 L551.148 72.576 L551.148 27.2059 L558.643 27.2059 L558.643 34.2544 Q561.195 30.082 564.759 28.0971 Q568.324 26.1121 573.226 26.1121 Q578.168 26.1121 581.611 28.6237 Q585.095 31.1352 586.756 35.9153 Z" fill="#000000" fill-rule="nonzero" fill-opacity="1" /><path clip-path="url(#clip650)" d="M649.828 32.4315 Q643.833 32.4315 640.349 37.1306 Q636.866 41.7891 636.866 49.9314 Q636.866 58.0738 640.309 62.7728 Q643.793 67.4314 649.828 67.4314 Q655.783 67.4314 659.267 62.7323 Q662.751 58.0333 662.751 49.9314 Q662.751 41.8701 659.267 37.1711 Q655.783 32.4315 649.828 32.4315 M649.828 26.1121 Q659.551 26.1121 665.1 32.4315 Q670.65 38.7509 670.65 49.9314 Q670.65 61.0714 665.1 67.4314 Q659.551 73.7508 649.828 73.7508 Q640.066 73.7508 634.516 67.4314 Q629.007 61.0714 629.007 49.9314 Q629.007 38.7509 634.516 32.4315 Q640.066 26.1121 649.828 26.1121 Z" fill="#000000" fill-rule="nonzero" fill-opacity="1" /><path clip-path="url(#clip650)" d="M700.586 32.4315 Q694.591 32.4315 691.107 37.1306 Q687.623 41.7891 687.623 49.9314 Q687.623 58.0738 691.067 62.7728 Q694.55 67.4314 700.586 67.4314 Q706.541 67.4314 710.025 62.7323 Q713.509 58.0333 713.509 49.9314 Q713.509 41.8701 710.025 37.1711 Q706.541 32.4315 700.586 32.4315 M700.586 26.1121 Q710.308 26.1121 715.858 32.4315 Q721.408 38.7509 721.408 49.9314 Q721.408 61.0714 715.858 67.4314 Q710.308 73.7508 700.586 73.7508 Q690.824 73.7508 685.274 67.4314 Q679.765 61.0714 679.765 49.9314 Q679.765 38.7509 685.274 32.4315 Q690.824 26.1121 700.586 26.1121 Z" fill="#000000" fill-rule="nonzero" fill-opacity="1" /><path clip-path="url(#clip650)" d="M741.136 14.324 L741.136 27.2059 L756.489 27.2059 L756.489 32.9987 L741.136 32.9987 L741.136 57.6282 Q741.136 63.1779 742.635 64.7578 Q744.174 66.3376 748.833 66.3376 L756.489 66.3376 L756.489 72.576 L748.833 72.576 Q740.204 72.576 736.923 69.3758 Q733.642 66.1351 733.642 57.6282 L733.642 32.9987 L728.173 32.9987 L728.173 27.2059 L733.642 27.2059 L733.642 14.324 L741.136 14.324 Z" fill="#000000" fill-rule="nonzero" fill-opacity="1" /><path clip-path="url(#clip650)" d="M804.006 45.1919 L804.006 72.576 L796.552 72.576 L796.552 45.4349 Q796.552 38.994 794.041 35.7938 Q791.529 32.5936 786.506 32.5936 Q780.47 32.5936 776.986 36.4419 Q773.503 40.2903 773.503 46.9338 L773.503 72.576 L766.008 72.576 L766.008 9.54393 L773.503 9.54393 L773.503 34.2544 Q776.176 30.163 779.781 28.1376 Q783.427 26.1121 788.167 26.1121 Q795.985 26.1121 799.995 30.9732 Q804.006 35.7938 804.006 45.1919 Z" fill="#000000" fill-rule="nonzero" fill-opacity="1" /><path clip-path="url(#clip650)" d="M884.052 48.0275 L884.052 51.6733 L849.781 51.6733 Q850.267 59.3701 854.399 63.421 Q858.572 67.4314 865.985 67.4314 Q870.279 67.4314 874.289 66.3781 Q878.34 65.3249 882.31 63.2184 L882.31 70.267 Q878.299 71.9684 874.086 72.8596 Q869.874 73.7508 865.539 73.7508 Q854.683 73.7508 848.323 67.4314 Q842.003 61.1119 842.003 50.3365 Q842.003 39.1965 847.999 32.6746 Q854.035 26.1121 864.243 26.1121 Q873.398 26.1121 878.705 32.0264 Q884.052 37.9003 884.052 48.0275 M876.598 45.84 Q876.517 39.7232 873.155 36.0774 Q869.833 32.4315 864.324 32.4315 Q858.085 32.4315 854.318 35.9558 Q850.591 39.4801 850.024 45.8805 L876.598 45.84 Z" fill="#000000" fill-rule="nonzero" fill-opacity="1" /><path clip-path="url(#clip650)" d="M925.209 28.5427 L925.209 35.5912 Q922.049 33.9709 918.646 33.1607 Q915.244 32.3505 911.598 32.3505 Q906.048 32.3505 903.253 34.0519 Q900.498 35.7533 900.498 39.156 Q900.498 41.7486 902.483 43.2475 Q904.468 44.7058 910.464 46.0426 L913.016 46.6097 Q920.955 48.3111 924.277 51.4303 Q927.639 54.509 927.639 60.0587 Q927.639 66.3781 922.616 70.0644 Q917.634 73.7508 908.884 73.7508 Q905.238 73.7508 901.268 73.0216 Q897.339 72.3329 892.964 70.9151 L892.964 63.2184 Q897.096 65.3654 901.106 66.4591 Q905.116 67.5124 909.046 67.5124 Q914.312 67.5124 917.148 65.73 Q919.983 63.9071 919.983 60.6258 Q919.983 57.5877 917.917 55.9673 Q915.892 54.3469 908.965 52.8481 L906.372 52.2405 Q899.445 50.7821 896.366 47.7845 Q893.288 44.7463 893.288 39.4801 Q893.288 33.0797 897.825 29.5959 Q902.362 26.1121 910.707 26.1121 Q914.839 26.1121 918.484 26.7198 Q922.13 27.3274 925.209 28.5427 Z" fill="#000000" fill-rule="nonzero" fill-opacity="1" /><path clip-path="url(#clip650)" d="M946.881 14.324 L946.881 27.2059 L962.234 27.2059 L962.234 32.9987 L946.881 32.9987 L946.881 57.6282 Q946.881 63.1779 948.38 64.7578 Q949.919 66.3376 954.578 66.3376 L962.234 66.3376 L962.234 72.576 L954.578 72.576 Q945.95 72.576 942.668 69.3758 Q939.387 66.1351 939.387 57.6282 L939.387 32.9987 L933.918 32.9987 L933.918 27.2059 L939.387 27.2059 L939.387 14.324 L946.881 14.324 Z" fill="#000000" fill-rule="nonzero" fill-opacity="1" /><path clip-path="url(#clip650)" d="M972.037 27.2059 L979.491 27.2059 L979.491 72.576 L972.037 72.576 L972.037 27.2059 M972.037 9.54393 L979.491 9.54393 L979.491 18.9825 L972.037 18.9825 L972.037 9.54393 Z" fill="#000000" fill-rule="nonzero" fill-opacity="1" /><path clip-path="url(#clip650)" d="M1030.41 35.9153 Q1033.21 30.8922 1037.09 28.5022 Q1040.98 26.1121 1046.25 26.1121 Q1053.34 26.1121 1057.19 31.0947 Q1061.04 36.0368 1061.04 45.1919 L1061.04 72.576 L1053.54 72.576 L1053.54 45.4349 Q1053.54 38.913 1051.23 35.7533 Q1048.92 32.5936 1044.18 32.5936 Q1038.39 32.5936 1035.03 36.4419 Q1031.67 40.2903 1031.67 46.9338 L1031.67 72.576 L1024.17 72.576 L1024.17 45.4349 Q1024.17 38.8725 1021.86 35.7533 Q1019.55 32.5936 1014.73 32.5936 Q1009.02 32.5936 1005.66 36.4824 Q1002.3 40.3308 1002.3 46.9338 L1002.3 72.576 L994.803 72.576 L994.803 27.2059 L1002.3 27.2059 L1002.3 34.2544 Q1004.85 30.082 1008.41 28.0971 Q1011.98 26.1121 1016.88 26.1121 Q1021.82 26.1121 1025.27 28.6237 Q1028.75 31.1352 1030.41 35.9153 Z" fill="#000000" fill-rule="nonzero" fill-opacity="1" /><path clip-path="url(#clip650)" d="M1096.52 49.7694 Q1087.49 49.7694 1084 51.8354 Q1080.52 53.9013 1080.52 58.8839 Q1080.52 62.8538 1083.11 65.2034 Q1085.75 67.5124 1090.24 67.5124 Q1096.44 67.5124 1100.17 63.1374 Q1103.93 58.7219 1103.93 51.4303 L1103.93 49.7694 L1096.52 49.7694 M1111.39 46.6907 L1111.39 72.576 L1103.93 72.576 L1103.93 65.6895 Q1101.38 69.8214 1097.57 71.8063 Q1093.77 73.7508 1088.26 73.7508 Q1081.29 73.7508 1077.16 69.8619 Q1073.07 65.9325 1073.07 59.3701 Q1073.07 51.7138 1078.17 47.825 Q1083.32 43.9361 1093.48 43.9361 L1103.93 43.9361 L1103.93 43.2069 Q1103.93 38.0623 1100.53 35.2672 Q1097.17 32.4315 1091.05 32.4315 Q1087.16 32.4315 1083.48 33.3632 Q1079.79 34.295 1076.39 36.1584 L1076.39 29.2718 Q1080.48 27.692 1084.33 26.9223 Q1088.18 26.1121 1091.82 26.1121 Q1101.67 26.1121 1106.53 31.2163 Q1111.39 36.3204 1111.39 46.6907 Z" fill="#000000" fill-rule="nonzero" fill-opacity="1" /><path clip-path="url(#clip650)" d="M1134.11 14.324 L1134.11 27.2059 L1149.47 27.2059 L1149.47 32.9987 L1134.11 32.9987 L1134.11 57.6282 Q1134.11 63.1779 1135.61 64.7578 Q1137.15 66.3376 1141.81 66.3376 L1149.47 66.3376 L1149.47 72.576 L1141.81 72.576 Q1133.18 72.576 1129.9 69.3758 Q1126.62 66.1351 1126.62 57.6282 L1126.62 32.9987 L1121.15 32.9987 L1121.15 27.2059 L1126.62 27.2059 L1126.62 14.324 L1134.11 14.324 Z" fill="#000000" fill-rule="nonzero" fill-opacity="1" /><path clip-path="url(#clip650)" d="M1198.08 48.0275 L1198.08 51.6733 L1163.81 51.6733 Q1164.29 59.3701 1168.43 63.421 Q1172.6 67.4314 1180.01 67.4314 Q1184.3 67.4314 1188.32 66.3781 Q1192.37 65.3249 1196.34 63.2184 L1196.34 70.267 Q1192.33 71.9684 1188.11 72.8596 Q1183.9 73.7508 1179.57 73.7508 Q1168.71 73.7508 1162.35 67.4314 Q1156.03 61.1119 1156.03 50.3365 Q1156.03 39.1965 1162.02 32.6746 Q1168.06 26.1121 1178.27 26.1121 Q1187.42 26.1121 1192.73 32.0264 Q1198.08 37.9003 1198.08 48.0275 M1190.62 45.84 Q1190.54 39.7232 1187.18 36.0774 Q1183.86 32.4315 1178.35 32.4315 Q1172.11 32.4315 1168.34 35.9558 Q1164.62 39.4801 1164.05 45.8805 L1190.62 45.84 Z" fill="#000000" fill-rule="nonzero" fill-opacity="1" /><path clip-path="url(#clip650)" d="M1239.23 28.5427 L1239.23 35.5912 Q1236.08 33.9709 1232.67 33.1607 Q1229.27 32.3505 1225.62 32.3505 Q1220.07 32.3505 1217.28 34.0519 Q1214.52 35.7533 1214.52 39.156 Q1214.52 41.7486 1216.51 43.2475 Q1218.49 44.7058 1224.49 46.0426 L1227.04 46.6097 Q1234.98 48.3111 1238.3 51.4303 Q1241.67 54.509 1241.67 60.0587 Q1241.67 66.3781 1236.64 70.0644 Q1231.66 73.7508 1222.91 73.7508 Q1219.26 73.7508 1215.29 73.0216 Q1211.36 72.3329 1206.99 70.9151 L1206.99 63.2184 Q1211.12 65.3654 1215.13 66.4591 Q1219.14 67.5124 1223.07 67.5124 Q1228.34 67.5124 1231.17 65.73 Q1234.01 63.9071 1234.01 60.6258 Q1234.01 57.5877 1231.94 55.9673 Q1229.92 54.3469 1222.99 52.8481 L1220.4 52.2405 Q1213.47 50.7821 1210.39 47.7845 Q1207.31 44.7463 1207.31 39.4801 Q1207.31 33.0797 1211.85 29.5959 Q1216.39 26.1121 1224.73 26.1121 Q1228.86 26.1121 1232.51 26.7198 Q1236.16 27.3274 1239.23 28.5427 Z" fill="#000000" fill-rule="nonzero" fill-opacity="1" /><path clip-path="url(#clip650)" d="M1312.48 49.9314 Q1312.48 41.7081 1309.07 37.0496 Q1305.71 32.3505 1299.8 32.3505 Q1293.88 32.3505 1290.48 37.0496 Q1287.12 41.7081 1287.12 49.9314 Q1287.12 58.1548 1290.48 62.8538 Q1293.88 67.5124 1299.8 67.5124 Q1305.71 67.5124 1309.07 62.8538 Q1312.48 58.1548 1312.48 49.9314 M1287.12 34.0924 Q1289.47 30.0415 1293.03 28.0971 Q1296.64 26.1121 1301.62 26.1121 Q1309.88 26.1121 1315.03 32.6746 Q1320.21 39.2371 1320.21 49.9314 Q1320.21 60.6258 1315.03 67.1883 Q1309.88 73.7508 1301.62 73.7508 Q1296.64 73.7508 1293.03 71.8063 Q1289.47 69.8214 1287.12 65.7705 L1287.12 72.576 L1279.62 72.576 L1279.62 9.54393 L1287.12 9.54393 L1287.12 34.0924 Z" fill="#000000" fill-rule="nonzero" fill-opacity="1" /><path clip-path="url(#clip650)" d="M1351.45 76.7889 Q1348.29 84.8907 1345.29 87.3618 Q1342.29 89.8329 1337.27 89.8329 L1331.31 89.8329 L1331.31 83.5945 L1335.69 83.5945 Q1338.77 83.5945 1340.47 82.1361 Q1342.17 80.6778 1344.23 75.2496 L1345.57 71.8468 L1327.22 27.2059 L1335.12 27.2059 L1349.3 62.6918 L1363.48 27.2059 L1371.38 27.2059 L1351.45 76.7889 Z" fill="#000000" fill-rule="nonzero" fill-opacity="1" /><path clip-path="url(#clip650)" d="M1440.61 49.9314 Q1440.61 41.7081 1437.2 37.0496 Q1433.84 32.3505 1427.93 32.3505 Q1422.01 32.3505 1418.61 37.0496 Q1415.25 41.7081 1415.25 49.9314 Q1415.25 58.1548 1418.61 62.8538 Q1422.01 67.5124 1427.93 67.5124 Q1433.84 67.5124 1437.2 62.8538 Q1440.61 58.1548 1440.61 49.9314 M1415.25 34.0924 Q1417.6 30.0415 1421.16 28.0971 Q1424.77 26.1121 1429.75 26.1121 Q1438.01 26.1121 1443.16 32.6746 Q1448.34 39.2371 1448.34 49.9314 Q1448.34 60.6258 1443.16 67.1883 Q1438.01 73.7508 1429.75 73.7508 Q1424.77 73.7508 1421.16 71.8063 Q1417.6 69.8214 1415.25 65.7705 L1415.25 72.576 L1407.75 72.576 L1407.75 9.54393 L1415.25 9.54393 L1415.25 34.0924 Z" fill="#000000" fill-rule="nonzero" fill-opacity="1" /><path clip-path="url(#clip650)" d="M1481.32 49.7694 Q1472.28 49.7694 1468.8 51.8354 Q1465.32 53.9013 1465.32 58.8839 Q1465.32 62.8538 1467.91 65.2034 Q1470.54 67.5124 1475.04 67.5124 Q1481.24 67.5124 1484.96 63.1374 Q1488.73 58.7219 1488.73 51.4303 L1488.73 49.7694 L1481.32 49.7694 M1496.18 46.6907 L1496.18 72.576 L1488.73 72.576 L1488.73 65.6895 Q1486.18 69.8214 1482.37 71.8063 Q1478.56 73.7508 1473.05 73.7508 Q1466.09 73.7508 1461.95 69.8619 Q1457.86 65.9325 1457.86 59.3701 Q1457.86 51.7138 1462.97 47.825 Q1468.11 43.9361 1478.28 43.9361 L1488.73 43.9361 L1488.73 43.2069 Q1488.73 38.0623 1485.33 35.2672 Q1481.97 32.4315 1475.85 32.4315 Q1471.96 32.4315 1468.27 33.3632 Q1464.59 34.295 1461.18 36.1584 L1461.18 29.2718 Q1465.28 27.692 1469.12 26.9223 Q1472.97 26.1121 1476.62 26.1121 Q1486.46 26.1121 1491.32 31.2163 Q1496.18 36.3204 1496.18 46.6907 Z" fill="#000000" fill-rule="nonzero" fill-opacity="1" /><path clip-path="url(#clip650)" d="M1540.46 28.5427 L1540.46 35.5912 Q1537.3 33.9709 1533.9 33.1607 Q1530.5 32.3505 1526.85 32.3505 Q1521.3 32.3505 1518.5 34.0519 Q1515.75 35.7533 1515.75 39.156 Q1515.75 41.7486 1517.73 43.2475 Q1519.72 44.7058 1525.71 46.0426 L1528.27 46.6097 Q1536.21 48.3111 1539.53 51.4303 Q1542.89 54.509 1542.89 60.0587 Q1542.89 66.3781 1537.87 70.0644 Q1532.89 73.7508 1524.14 73.7508 Q1520.49 73.7508 1516.52 73.0216 Q1512.59 72.3329 1508.22 70.9151 L1508.22 63.2184 Q1512.35 65.3654 1516.36 66.4591 Q1520.37 67.5124 1524.3 67.5124 Q1529.56 67.5124 1532.4 65.73 Q1535.23 63.9071 1535.23 60.6258 Q1535.23 57.5877 1533.17 55.9673 Q1531.14 54.3469 1524.22 52.8481 L1521.62 52.2405 Q1514.7 50.7821 1511.62 47.7845 Q1508.54 44.7463 1508.54 39.4801 Q1508.54 33.0797 1513.08 29.5959 Q1517.61 26.1121 1525.96 26.1121 Q1530.09 26.1121 1533.74 26.7198 Q1537.38 27.3274 1540.46 28.5427 Z" fill="#000000" fill-rule="nonzero" fill-opacity="1" /><path clip-path="url(#clip650)" d="M1554.76 27.2059 L1562.21 27.2059 L1562.21 72.576 L1554.76 72.576 L1554.76 27.2059 M1554.76 9.54393 L1562.21 9.54393 L1562.21 18.9825 L1554.76 18.9825 L1554.76 9.54393 Z" fill="#000000" fill-rule="nonzero" fill-opacity="1" /><path clip-path="url(#clip650)" d="M1606.73 28.5427 L1606.73 35.5912 Q1603.57 33.9709 1600.17 33.1607 Q1596.77 32.3505 1593.12 32.3505 Q1587.57 32.3505 1584.78 34.0519 Q1582.02 35.7533 1582.02 39.156 Q1582.02 41.7486 1584.01 43.2475 Q1585.99 44.7058 1591.99 46.0426 L1594.54 46.6097 Q1602.48 48.3111 1605.8 51.4303 Q1609.16 54.509 1609.16 60.0587 Q1609.16 66.3781 1604.14 70.0644 Q1599.16 73.7508 1590.41 73.7508 Q1586.76 73.7508 1582.79 73.0216 Q1578.86 72.3329 1574.49 70.9151 L1574.49 63.2184 Q1578.62 65.3654 1582.63 66.4591 Q1586.64 67.5124 1590.57 67.5124 Q1595.84 67.5124 1598.67 65.73 Q1601.51 63.9071 1601.51 60.6258 Q1601.51 57.5877 1599.44 55.9673 Q1597.42 54.3469 1590.49 52.8481 L1587.9 52.2405 Q1580.97 50.7821 1577.89 47.7845 Q1574.81 44.7463 1574.81 39.4801 Q1574.81 33.0797 1579.35 29.5959 Q1583.89 26.1121 1592.23 26.1121 Q1596.36 26.1121 1600.01 26.7198 Q1603.65 27.3274 1606.73 28.5427 Z" fill="#000000" fill-rule="nonzero" fill-opacity="1" /><path clip-path="url(#clip650)" d="M1654.78 14.324 L1654.78 27.2059 L1670.13 27.2059 L1670.13 32.9987 L1654.78 32.9987 L1654.78 57.6282 Q1654.78 63.1779 1656.28 64.7578 Q1657.81 66.3376 1662.47 66.3376 L1670.13 66.3376 L1670.13 72.576 L1662.47 72.576 Q1653.85 72.576 1650.56 69.3758 Q1647.28 66.1351 1647.28 57.6282 L1647.28 32.9987 L1641.81 32.9987 L1641.81 27.2059 L1647.28 27.2059 L1647.28 14.324 L1654.78 14.324 Z" fill="#000000" fill-rule="nonzero" fill-opacity="1" /><path clip-path="url(#clip650)" d="M1698.81 76.7889 Q1695.65 84.8907 1692.65 87.3618 Q1689.66 89.8329 1684.63 89.8329 L1678.68 89.8329 L1678.68 83.5945 L1683.05 83.5945 Q1686.13 83.5945 1687.83 82.1361 Q1689.53 80.6778 1691.6 75.2496 L1692.94 71.8468 L1674.59 27.2059 L1682.48 27.2059 L1696.66 62.6918 L1710.84 27.2059 L1718.74 27.2059 L1698.81 76.7889 Z" fill="#000000" fill-rule="nonzero" fill-opacity="1" /><path clip-path="url(#clip650)" d="M1736.24 65.7705 L1736.24 89.8329 L1728.75 89.8329 L1728.75 27.2059 L1736.24 27.2059 L1736.24 34.0924 Q1738.59 30.0415 1742.15 28.0971 Q1745.76 26.1121 1750.74 26.1121 Q1759.01 26.1121 1764.15 32.6746 Q1769.34 39.2371 1769.34 49.9314 Q1769.34 60.6258 1764.15 67.1883 Q1759.01 73.7508 1750.74 73.7508 Q1745.76 73.7508 1742.15 71.8063 Q1738.59 69.8214 1736.24 65.7705 M1761.6 49.9314 Q1761.6 41.7081 1758.2 37.0496 Q1754.83 32.3505 1748.92 32.3505 Q1743.01 32.3505 1739.6 37.0496 Q1736.24 41.7081 1736.24 49.9314 Q1736.24 58.1548 1739.6 62.8538 Q1743.01 67.5124 1748.92 67.5124 Q1754.83 67.5124 1758.2 62.8538 Q1761.6 58.1548 1761.6 49.9314 Z" fill="#000000" fill-rule="nonzero" fill-opacity="1" /><path clip-path="url(#clip650)" d="M1820.5 48.0275 L1820.5 51.6733 L1786.23 51.6733 Q1786.71 59.3701 1790.85 63.421 Q1795.02 67.4314 1802.43 67.4314 Q1806.73 67.4314 1810.74 66.3781 Q1814.79 65.3249 1818.76 63.2184 L1818.76 70.267 Q1814.75 71.9684 1810.53 72.8596 Q1806.32 73.7508 1801.99 73.7508 Q1791.13 73.7508 1784.77 67.4314 Q1778.45 61.1119 1778.45 50.3365 Q1778.45 39.1965 1784.45 32.6746 Q1790.48 26.1121 1800.69 26.1121 Q1809.85 26.1121 1815.15 32.0264 Q1820.5 37.9003 1820.5 48.0275 M1813.05 45.84 Q1812.96 39.7232 1809.6 36.0774 Q1806.28 32.4315 1800.77 32.4315 Q1794.53 32.4315 1790.77 35.9558 Q1787.04 39.4801 1786.47 45.8805 L1813.05 45.84 Z" fill="#000000" fill-rule="nonzero" fill-opacity="1" /><polyline clip-path="url(#clip651)" style="stroke:#4682b4; stroke-linecap:round; stroke-linejoin:round; stroke-width:8; stroke-opacity:1; fill:none" points="303.464,546.449 312.057,517.28 320.65,488.548 329.243,460.367 337.836,432.85 346.428,406.109 355.021,380.258 363.614,355.409 372.207,331.675 380.8,309.169 389.393,288.004 397.986,268.292 406.579,250.147 415.172,233.662 423.765,218.919 432.358,206 440.951,194.984 449.544,185.954 458.136,178.988 466.729,174.17 475.322,171.579 483.915,171.295 492.508,173.3 501.101,177.382 509.694,183.304 518.287,190.833 526.88,199.732 535.473,209.766 544.066,220.7 552.659,232.299 561.252,244.328 569.845,256.551 578.437,268.733 587.03,280.642 595.623,292.119 604.216,303.102 612.809,313.535 621.402,323.362 629.995,332.526 638.588,340.971 647.181,348.649 655.774,355.568 664.367,361.757 672.96,367.243 681.553,372.053 690.145,376.217 698.738,379.762 707.331,382.716 715.924,385.106 724.517,386.903 733.11,387.983 741.703,388.213 750.296,387.459 758.889,385.589 767.482,382.469 776.075,377.967 784.668,371.95 793.261,364.288 801.854,355.023 810.446,344.42 819.039,332.758 827.632,320.318 836.225,307.381 844.818,294.227 853.411,281.137 862.004,268.391 870.597,256.269 879.19,245.052 887.783,235.021 896.376,226.438 904.969,219.398 913.562,213.887 922.154,209.892 930.747,207.401 939.34,206.4 947.933,206.877 956.526,208.818 965.119,212.209 973.712,217.039 982.305,223.294 990.898,230.96 999.491,240.024 1008.08,250.469 1016.68,262.283 1025.27,275.451 1033.86,289.957 1042.46,305.789 1051.05,322.93 1059.64,341.368 1068.23,361.086 1076.83,382.072 1085.42,404.31 1094.01,427.786 1102.61,452.485 1111.2,478.394 1119.79,505.497 1128.38,533.78 1136.98,563.227 1145.57,593.728 1154.16,625.04 1162.76,656.909 1171.35,689.081 1179.94,721.302 1188.54,753.32 1197.13,784.88 1205.72,815.728 1214.31,845.612 1222.91,874.276 1231.5,901.468 1240.09,926.94 1248.69,950.561 1257.28,972.31 1265.87,992.17 1274.46,1010.12 1283.06,1026.15 1291.65,1040.24 1300.24,1052.38 1308.84,1062.53 1317.43,1070.7 1326.02,1076.86 1334.61,1081.01 1343.21,1083.27 1351.8,1083.78 1360.39,1082.65 1368.99,1080.02 1377.58,1076.02 1386.17,1070.79 1394.77,1064.45 1403.36,1057.14 1411.95,1048.99 1420.54,1040.12 1429.14,1030.65 1437.73,1020.65 1446.32,1010.22 1454.92,999.458 1463.51,988.444 1472.1,977.272 1480.69,966.033 1489.29,954.818 1497.88,943.718 1506.47,932.842 1515.07,922.334 1523.66,912.344 1532.25,903.024 1540.85,894.523 1549.44,886.991 1558.03,880.579 1566.62,875.437 1575.22,871.715 1583.81,869.563 1592.4,869.049 1601,870.086 1609.59,872.571 1618.18,876.398 1626.77,881.463 1635.37,887.663 1643.96,894.893 1652.55,903.048 1661.15,912.024 1669.74,921.717 1678.33,932.023 1686.92,942.837 1695.52,954.055 1704.11,965.579 1712.7,977.326 1721.3,989.213 1729.89,1001.16 1738.48,1013.09 1747.08,1024.91 1755.67,1036.55 1764.26,1047.93 1772.85,1058.96 1781.45,1069.56 1790.04,1079.65 1798.63,1089.15 1807.23,1097.98 1815.82,1105.98 1824.41,1112.88 1833,1118.42 1841.6,1122.35 1850.19,1124.39 1858.78,1124.28 1867.38,1121.76 1875.97,1116.56 1884.56,1108.42 1893.16,1097.08 1901.75,1082.27 1910.34,1063.83 1918.93,1042.14 1927.53,1017.82 1936.12,991.465 1944.71,963.679 1953.31,935.065 1961.9,906.011 1970.49,876.555 1979.08,846.704 1987.68,816.461 1996.27,785.833 2004.86,754.825 2013.46,723.441 "/>
<polyline clip-path="url(#clip651)" style="stroke:#ff8c00; stroke-linecap:round; stroke-linejoin:round; stroke-width:8; stroke-opacity:1; fill:none" points="303.464,540.049 312.057,512.64 320.65,485.369 329.243,458.376 337.836,431.798 346.428,405.776 355.021,380.446 363.614,355.948 372.207,332.42 380.8,310.002 389.393,288.831 397.986,269.047 406.579,250.786 415.172,234.16 423.765,219.259 432.358,206.172 440.951,194.988 449.544,185.797 458.136,178.687 466.729,173.747 475.322,171.068 483.915,170.737 492.508,172.739 501.101,176.856 509.694,182.847 518.287,190.47 526.88,199.483 535.473,209.644 544.066,220.713 552.659,232.446 561.252,244.603 569.845,256.941 578.437,269.22 587.03,281.199 595.623,292.718 604.216,303.72 612.809,314.151 621.402,323.958 629.995,333.089 638.588,341.49 647.181,349.118 655.774,355.986 664.367,362.127 672.96,367.574 681.553,372.36 690.145,376.519 698.738,380.084 707.331,383.089 715.924,385.566 724.517,387.484 733.11,388.709 741.703,389.096 750.296,388.499 758.889,386.774 767.482,383.777 776.075,379.362 784.668,373.384 793.261,365.703 801.854,356.357 810.446,345.62 819.039,333.782 827.632,321.134 836.225,307.965 844.818,294.566 853.411,281.227 862.004,268.239 870.597,255.891 879.19,244.475 887.783,234.28 896.376,225.579 904.969,218.464 913.562,212.916 922.154,208.915 930.747,206.441 939.34,205.474 947.933,205.994 956.526,207.982 965.119,211.417 973.712,216.28 982.305,222.551 990.898,230.212 999.491,239.252 1008.08,249.659 1016.68,261.423 1025.27,274.531 1033.86,288.974 1042.46,304.738 1051.05,321.813 1059.64,340.188 1068.23,359.852 1076.83,380.792 1085.42,402.998 1094.01,426.458 1102.61,451.161 1111.2,477.096 1119.79,504.251 1128.38,532.616 1136.98,562.176 1145.57,592.822 1154.16,624.305 1162.76,656.365 1171.35,688.745 1179.94,721.184 1188.54,753.423 1197.13,785.204 1205.72,816.266 1214.31,846.35 1222.91,875.198 1231.5,902.55 1240.09,928.153 1248.69,951.874 1257.28,973.695 1265.87,993.601 1274.46,1011.58 1283.06,1027.6 1291.65,1041.67 1300.24,1053.76 1308.84,1063.87 1317.43,1071.96 1326.02,1078.04 1334.61,1082.1 1343.21,1084.26 1351.8,1084.65 1360.39,1083.42 1368.99,1080.68 1377.58,1076.57 1386.17,1071.24 1394.77,1064.8 1403.36,1057.41 1411.95,1049.18 1420.54,1040.25 1429.14,1030.72 1437.73,1020.69 1446.32,1010.22 1454.92,999.418 1463.51,988.366 1472.1,977.151 1480.69,965.86 1489.29,954.582 1497.88,943.403 1506.47,932.431 1515.07,921.815 1523.66,911.711 1532.25,902.273 1540.85,893.656 1549.44,886.017 1558.03,879.509 1566.62,874.287 1575.22,870.508 1583.81,868.324 1592.4,867.807 1601,868.867 1609.59,871.395 1618.18,875.284 1626.77,880.425 1635.37,886.71 1643.96,894.031 1652.55,902.28 1661.15,911.349 1669.74,921.129 1678.33,931.513 1686.92,942.393 1695.52,953.66 1704.11,965.214 1712.7,976.975 1721.3,988.865 1729.89,1000.81 1738.48,1012.72 1747.08,1024.53 1755.67,1036.15 1764.26,1047.51 1772.85,1058.54 1781.45,1069.14 1790.04,1079.25 1798.63,1088.79 1807.23,1097.67 1815.82,1105.74 1824.41,1112.72 1833,1118.34 1841.6,1122.33 1850.19,1124.42 1858.78,1124.33 1867.38,1121.79 1875.97,1116.52 1884.56,1108.26 1893.16,1096.72 1901.75,1081.64 1910.34,1062.85 1918.93,1040.78 1927.53,1016.11 1936.12,989.502 1944.71,961.632 1953.31,933.163 1961.9,904.531 1970.49,875.789 1979.08,846.956 1987.68,818.051 1996.27,789.09 2004.86,760.094 2013.46,731.079 "/>
<polyline clip-path="url(#clip651)" style="stroke:#008b00; stroke-linecap:round; stroke-linejoin:round; stroke-width:8; stroke-opacity:1; fill:none" points="303.464,585.151 312.057,546.698 320.65,509.682 329.243,474.193 337.836,440.317 346.428,408.142 355.021,377.756 363.614,349.246 372.207,322.701 380.8,298.208 389.393,275.854 397.986,255.728 406.579,237.917 415.172,222.46 423.765,209.294 432.358,198.34 440.951,189.521 449.544,182.761 458.136,177.981 466.729,175.105 475.322,174.054 483.915,174.752 492.508,177.121 501.101,181.081 509.694,186.513 518.287,193.271 526.88,201.206 535.473,210.17 544.066,220.017 552.659,230.596 561.252,241.762 569.845,253.365 578.437,265.259 587.03,277.294 595.623,289.323 604.216,301.199 612.809,312.773 621.402,323.907 629.995,334.498 638.588,344.448 647.181,353.661 655.774,362.042 664.367,369.492 672.96,375.936 681.553,381.336 690.145,385.658 698.738,388.868 707.331,390.934 715.924,391.821 724.517,391.495 733.11,389.924 741.703,387.073 750.296,382.909 758.889,377.411 767.482,370.677 776.075,362.87 784.668,354.155 793.261,344.695 801.854,334.653 810.446,324.195 819.039,313.483 827.632,302.682 836.225,291.955 844.818,281.467 853.411,271.382 862.004,261.863 870.597,253.071 879.19,245.116 887.783,238.059 896.376,231.96 904.969,226.879 913.562,222.876 922.154,220.01 930.747,218.342 939.34,217.931 947.933,218.837 956.526,221.121 965.119,224.841 973.712,230.056 982.305,236.772 990.898,244.955 999.491,254.565 1008.08,265.566 1016.68,277.92 1025.27,291.589 1033.86,306.535 1042.46,322.722 1051.05,340.11 1059.64,358.663 1068.23,378.343 1076.83,399.113 1085.42,420.934 1094.01,443.769 1102.61,467.58 1111.2,492.33 1119.79,517.981 1128.38,544.495 1136.98,571.831 1145.57,599.882 1154.16,628.484 1162.76,657.474 1171.35,686.686 1179.94,715.956 1188.54,745.118 1197.13,774.009 1205.72,802.463 1214.31,830.316 1222.91,857.403 1231.5,883.559 1240.09,908.622 1248.69,932.46 1257.28,954.98 1265.87,976.088 1274.46,995.693 1283.06,1013.7 1291.65,1030.02 1300.24,1044.56 1308.84,1057.22 1317.43,1067.91 1326.02,1076.55 1334.61,1083.03 1343.21,1087.27 1351.8,1089.24 1360.39,1089.1 1368.99,1087.01 1377.58,1083.16 1386.17,1077.71 1394.77,1070.84 1403.36,1062.72 1411.95,1053.52 1420.54,1043.41 1429.14,1032.58 1437.73,1021.19 1446.32,1009.39 1454.92,997.324 1463.51,985.149 1472.1,973.009 1480.69,961.051 1489.29,949.423 1497.88,938.272 1506.47,927.746 1515.07,917.992 1523.66,909.158 1532.25,901.391 1540.85,894.79 1549.44,889.346 1558.03,885.034 1566.62,881.83 1575.22,879.709 1583.81,878.646 1592.4,878.617 1601,879.598 1609.59,881.563 1618.18,884.488 1626.77,888.349 1635.37,893.121 1643.96,898.767 1652.55,905.239 1661.15,912.484 1669.74,920.451 1678.33,929.089 1686.92,938.346 1695.52,948.172 1704.11,958.515 1712.7,969.323 1721.3,980.546 1729.89,992.133 1738.48,1004.03 1747.08,1016.19 1755.67,1028.55 1764.26,1040.98 1772.85,1053.26 1781.45,1065.19 1790.04,1076.57 1798.63,1087.18 1807.23,1096.84 1815.82,1105.32 1824.41,1112.42 1833,1117.94 1841.6,1121.68 1850.19,1123.41 1858.78,1122.95 1867.38,1120.13 1875.97,1114.91 1884.56,1107.28 1893.16,1097.25 1901.75,1084.81 1910.34,1069.95 1918.93,1052.67 1927.53,1032.96 1936.12,1010.82 1944.71,986.234 1953.31,959.046 1961.9,928.852 1970.49,895.233 1979.08,857.768 1987.68,816.038 1996.27,769.624 2004.86,718.105 2013.46,661.062 "/>
<polyline clip-path="url(#clip651)" style="stroke:#800080; stroke-linecap:round; stroke-linejoin:round; stroke-width:8; stroke-opacity:1; fill:none" points="303.464,531.958 312.057,516.299 320.65,498.942 329.243,479.825 337.836,458.93 346.428,436.302 355.021,412.069 363.614,386.479 372.207,359.943 380.8,333.082 389.393,306.805 397.986,282.387 406.579,260.8 415.172,241.143 423.765,222.574 432.358,204.753 440.951,187.84 449.544,172.521 458.136,160.073 466.729,152.462 475.322,152.303 483.915,159.41 492.508,171.005 501.101,184.982 509.694,199.892 518.287,214.837 526.88,229.396 535.473,243.58 544.066,257.817 552.659,272.693 561.252,287.534 569.845,301.408 578.437,313.701 587.03,324.061 595.623,332.363 604.216,338.692 612.809,343.335 621.402,346.798 629.995,349.833 638.588,353.16 647.181,356.83 655.774,361.027 664.367,366.279 672.96,373.335 681.553,381.75 690.145,390.473 698.738,398.743 707.331,406.04 715.924,412.044 724.517,416.605 733.11,419.729 741.703,421.574 750.296,422.402 758.889,422.033 767.482,420.042 776.075,416.131 784.668,410.115 793.261,401.918 801.854,391.571 810.446,379.228 819.039,365.182 827.632,349.898 836.225,334.05 844.818,317.978 853.411,301.371 862.004,284.148 870.597,266.553 879.19,249.193 887.783,233.09 896.376,219.772 904.969,211.346 913.562,208.409 922.154,208.851 930.747,210.945 939.34,213.537 947.933,215.968 956.526,218.028 965.119,219.937 973.712,222.363 982.305,226.458 990.898,233.934 999.491,246.967 1008.08,265.262 1016.68,286.617 1025.27,309.356 1033.86,332.275 1042.46,354.54 1051.05,375.609 1059.64,395.17 1068.23,413.101 1076.83,429.442 1085.42,444.374 1094.01,458.222 1102.61,471.449 1111.2,484.683 1119.79,498.736 1128.38,514.644 1136.98,533.723 1145.57,557.606 1154.16,586.821 1162.76,620.102 1171.35,656.335 1179.94,694.629 1188.54,734.214 1197.13,774.356 1205.72,814.265 1214.31,853 1222.91,889.365 1231.5,921.793 1240.09,948.465 1248.69,969.929 1257.28,988.031 1265.87,1004.09 1274.46,1018.92 1283.06,1032.9 1291.65,1045.94 1300.24,1057.47 1308.84,1066.44 1317.43,1071.33 1326.02,1072.61 1334.61,1072 1343.21,1070.69 1351.8,1069.38 1360.39,1068.34 1368.99,1067.38 1377.58,1065.89 1386.17,1062.77 1394.77,1056.44 1403.36,1046.82 1411.95,1035.52 1420.54,1023.74 1429.14,1012.22 1437.73,1001.32 1446.32,991.065 1454.92,981.144 1463.51,970.896 1472.1,959.302 1480.69,945.965 1489.29,931.94 1497.88,918.121 1506.47,905.112 1515.07,893.283 1523.66,882.806 1532.25,873.684 1540.85,865.769 1549.44,859.124 1558.03,854.029 1566.62,850.658 1575.22,849.076 1583.81,849.248 1592.4,851.041 1601,854.213 1609.59,858.395 1618.18,863.063 1626.77,867.503 1635.37,871.065 1643.96,874.3 1652.55,877.949 1661.15,882.539 1669.74,888.412 1678.33,895.745 1686.92,904.554 1695.52,914.688 1704.11,925.808 1712.7,937.359 1721.3,948.514 1729.89,958.39 1738.48,967.631 1747.08,977.329 1755.67,988.267 1764.26,1000.96 1772.85,1015.68 1781.45,1032.45 1790.04,1051.04 1798.63,1070.92 1807.23,1091.23 1815.82,1110.69 1824.41,1127.47 1833,1139.1 1841.6,1143.68 1850.19,1143 1858.78,1138.99 1867.38,1132.8 1875.97,1124.95 1884.56,1115.32 1893.16,1103.15 1901.75,1087.06 1910.34,1064.95 1918.93,1036.5 1927.53,1004.19 1936.12,970.099 1944.71,935.819 1953.31,902.588 1961.9,871.405 1970.49,843.116 1979.08,818.031 1987.68,795.887 1996.27,776.396 2004.86,759.284 2013.46,744.298 "/>
<polyline clip-path="url(#clip651)" style="stroke:#000000; stroke-linecap:round; stroke-linejoin:round; stroke-width:8; stroke-opacity:1; fill:none" stroke-dasharray="32, 20" points="303.464,641.814 304.287,638.331 319.453,574.445 329.815,531.474 348.472,456.756 353.956,435.677 365.576,392.682 367.338,386.382 371.134,373.016 375.025,359.623 382.309,335.452 382.416,335.106 385.307,325.856 390.164,310.772 396.983,290.594 398.131,287.317 402.997,273.807 403.238,273.156 405.799,266.32 413.924,245.851 416.47,239.823 426.731,217.464 437.018,198.225 438.164,196.281 454.852,172.599 459.155,167.895 464.032,163.256 465.032,162.396 468.055,159.98 473.882,156.113 474.575,155.722 481.573,152.575 482.066,152.408 483.027,152.103 493.352,150.518 494.297,150.524 503.126,151.775 503.267,151.812 508.111,153.403 530.626,168.365 531.635,169.305 537.526,175.202 543.214,181.535 546.137,185.019 549.757,189.535 570.666,219.385 575.287,226.686 582.428,238.34 587.405,246.678 590.801,252.449 597.294,263.614 599.631,267.664 605.218,277.379 614.576,293.645 614.581,293.653 615.02,294.412 616.515,296.996 629.953,319.799 630.173,320.164 630.996,321.526 633.587,325.784 633.762,326.07 637.726,332.477 639.878,335.9 641.617,338.634 643.355,341.337 643.566,341.664 649.242,350.26 655.219,358.91 659.075,364.247 661.151,367.038 664.145,370.954 679.396,388.74 686.393,395.573 696.429,403.778 702.778,407.945 704.058,408.686 708.059,410.785 710.271,411.801 714.663,413.514 715.102,413.663 729.858,416.249 733.005,416.191 733.231,416.178 740.684,415.146 744.577,414.13 744.725,414.085 745.284,413.911 753.1,410.779 757.972,408.179 764.777,403.736 764.835,403.694 776.905,393.568 782.39,388.073 785.157,385.101 796.396,371.732 819.543,338.614 823.855,331.783 825.347,329.381 830.759,320.521 834.739,313.874 842.621,300.459 844.447,297.316 852.192,283.887 853.355,281.863 865.136,261.398 866.733,258.644 869.026,254.706 878.053,239.447 879.605,236.873 889.832,220.399 893.555,214.65 897.639,208.524 900.199,204.789 902.287,201.806 902.62,201.336 904.417,198.826 933.854,165.417 935.045,164.423 940.195,160.484 942.484,158.929 944.473,157.679 963.214,150.781 968.676,150.534 971.578,150.744 974.694,151.236 980.387,152.865 988.215,156.673 991.379,158.736 1013.41,181.637 1013.94,182.372 1017.21,187.118 1026.55,202.458 1026.74,202.804 1045.68,242.178 1051.69,256.878 1077.96,332.617 1099.62,407.387 1110.9,449.876 1116.98,473.631 1129.82,525.273 1133.1,538.762 1134.3,543.68 1155.84,634.007 1156.37,636.266 1158.91,647.006 1163.77,667.552 1165.8,676.125 1166.52,679.186 1178.19,728.201 1178.62,729.98 1185.03,756.519 1202.8,828.082 1205.2,837.443 1210.3,857.086 1211.1,860.117 1232.46,936.97 1235.53,947.252 1235.6,947.461 1236.88,951.713 1238.36,956.544 1242.45,969.627 1247.05,983.868 1262.25,1027.11 1266.41,1037.83 1272.68,1053.1 1279.96,1069.38 1296.34,1100.2 1300.22,1106.3 1302.09,1109.08 1304.92,1113.06 1313.36,1123.47 1318.23,1128.48 1325.1,1134.3 1333.36,1139.38 1337.08,1141 1342.17,1142.55 1357,1142.85 1360.54,1142.02 1364.05,1140.87 1369.05,1138.69 1372.13,1137.04 1376.11,1134.55 1380.25,1131.58 1384.39,1128.22 1390.18,1122.9 1396.33,1116.49 1402.58,1109.25 1412.08,1096.98 1413.8,1094.61 1416.79,1090.41 1417.27,1089.71 1418.83,1087.45 1429.57,1071.12 1430.49,1069.66 1431.32,1068.33 1432.98,1065.68 1436.5,1059.94 1457.28,1024.64 1467.82,1006.3 1473.5,996.467 1475.62,992.805 1475.74,992.608 1481.29,983.134 1492.64,964.344 1498.54,954.961 1499.15,954.019 1501.51,950.381 1512.54,934.167 1524.71,918.148 1524.95,917.849 1530.46,911.359 1532.72,908.836 1532.93,908.605 1539.24,902.047 1547.34,894.689 1549.38,893.035 1551.22,891.605 1557.08,887.512 1571.27,880.504 1577.34,878.806 1590.87,877.885 1594.62,878.333 1599.75,879.438 1600.32,879.595 1600.79,879.73 1620.26,889.42 1622.66,891.148 1628.39,895.742 1634.02,900.858 1666.76,941.06 1676.43,955.716 1677.32,957.112 1677.64,957.63 1678.35,958.75 1680.43,962.059 1693.5,983.657 1702.42,998.935 1712.44,1016.33 1713.52,1018.23 1718.86,1027.5 1720.44,1030.24 1722.32,1033.48 1733.67,1052.8 1736.88,1058.12 1741.96,1066.4 1748.26,1076.34 1757.22,1089.72 1763.39,1098.33 1770.83,1107.94 1778.95,1117.36 1791.21,1129.16 1806.96,1139.42 1808.95,1140.29 1813.47,1141.88 1821.1,1143.34 1830.81,1142.87 1836.6,1141.3 1837.11,1141.11 1838.92,1140.39 1848.22,1135.14 1853.34,1131.13 1855.33,1129.35 1856.72,1128.04 1858.51,1126.26 1876.05,1103.55 1884.13,1089.91 1901.07,1054.81 1904.5,1046.69 1905.04,1045.38 1906.06,1042.87 1908.13,1037.7 1912.53,1026.34 1914.42,1021.28 1916.15,1016.56 1918.14,1011.03 1918.37,1010.39 1923.01,997.084 1927.63,983.291 1929.09,978.826 1939.07,946.88 1940.67,941.534 1943.23,932.877 1947.99,916.418 1958.09,879.991 1969.47,836.77 1976.7,808.308 1977.4,805.485 1978.02,803.038 1978.98,799.172 1979.48,797.184 1982.61,784.528 1982.71,784.135 1989.83,754.997 1993.69,739.022 1996.05,729.207 1997.27,724.141 2012.69,659.219 2013.09,657.553 2013.46,655.984 "/>
<path clip-path="url(#clip650)" d="M312.584 466.855 L682.592 466.855 L682.592 155.815 L312.584 155.815  Z" fill="#ffffff" fill-rule="evenodd" fill-opacity="1"/>
<polyline clip-path="url(#clip650)" style="stroke:#000000; stroke-linecap:round; stroke-linejoin:round; stroke-width:4; stroke-opacity:1; fill:none" points="312.584,466.855 682.592,466.855 682.592,155.815 312.584,155.815 312.584,466.855 "/>
<polyline clip-path="url(#clip650)" style="stroke:#4682b4; stroke-linecap:round; stroke-linejoin:round; stroke-width:8; stroke-opacity:1; fill:none" points="332.724,207.655 453.563,207.655 "/>
<path clip-path="url(#clip650)" d="M481.11 191.648 L481.11 199.009 L489.884 199.009 L489.884 202.319 L481.11 202.319 L481.11 216.393 Q481.11 219.564 481.967 220.467 Q482.847 221.37 485.509 221.37 L489.884 221.37 L489.884 224.935 L485.509 224.935 Q480.578 224.935 478.703 223.106 Q476.828 221.254 476.828 216.393 L476.828 202.319 L473.703 202.319 L473.703 199.009 L476.828 199.009 L476.828 191.648 L481.11 191.648 Z" fill="#000000" fill-rule="nonzero" fill-opacity="1" /><path clip-path="url(#clip650)" d="M499.606 221.046 L499.606 234.796 L495.323 234.796 L495.323 199.009 L499.606 199.009 L499.606 202.944 Q500.948 200.629 502.985 199.518 Q505.045 198.384 507.893 198.384 Q512.615 198.384 515.555 202.134 Q518.518 205.884 518.518 211.995 Q518.518 218.106 515.555 221.856 Q512.615 225.606 507.893 225.606 Q505.045 225.606 502.985 224.495 Q500.948 223.361 499.606 221.046 M514.096 211.995 Q514.096 207.296 512.152 204.634 Q510.231 201.949 506.851 201.949 Q503.471 201.949 501.527 204.634 Q499.606 207.296 499.606 211.995 Q499.606 216.694 501.527 219.379 Q503.471 222.041 506.851 222.041 Q510.231 222.041 512.152 219.379 Q514.096 216.694 514.096 211.995 Z" fill="#000000" fill-rule="nonzero" fill-opacity="1" /><polyline clip-path="url(#clip650)" style="stroke:#ff8c00; stroke-linecap:round; stroke-linejoin:round; stroke-width:8; stroke-opacity:1; fill:none" points="332.724,259.495 453.563,259.495 "/>
<path clip-path="url(#clip650)" d="M494.212 251.844 L494.212 255.826 Q492.407 254.83 490.578 254.344 Q488.772 253.835 486.921 253.835 Q482.777 253.835 480.485 256.474 Q478.194 259.09 478.194 263.835 Q478.194 268.58 480.485 271.219 Q482.777 273.835 486.921 273.835 Q488.772 273.835 490.578 273.349 Q492.407 272.839 494.212 271.844 L494.212 275.779 Q492.43 276.613 490.509 277.029 Q488.61 277.446 486.458 277.446 Q480.601 277.446 477.152 273.765 Q473.703 270.085 473.703 263.835 Q473.703 257.492 477.175 253.858 Q480.671 250.224 486.735 250.224 Q488.703 250.224 490.578 250.641 Q492.453 251.034 494.212 251.844 Z" fill="#000000" fill-rule="nonzero" fill-opacity="1" /><path clip-path="url(#clip650)" d="M516.643 254.83 Q515.925 254.414 515.069 254.228 Q514.235 254.02 513.217 254.02 Q509.606 254.02 507.661 256.381 Q505.74 258.719 505.74 263.117 L505.74 276.775 L501.458 276.775 L501.458 250.849 L505.74 250.849 L505.74 254.877 Q507.082 252.515 509.235 251.381 Q511.388 250.224 514.467 250.224 Q514.907 250.224 515.439 250.293 Q515.971 250.34 516.619 250.455 L516.643 254.83 Z" fill="#000000" fill-rule="nonzero" fill-opacity="1" /><polyline clip-path="url(#clip650)" style="stroke:#008b00; stroke-linecap:round; stroke-linejoin:round; stroke-width:8; stroke-opacity:1; fill:none" points="332.724,311.335 453.563,311.335 "/>
<path clip-path="url(#clip650)" d="M477.985 324.726 L477.985 338.476 L473.703 338.476 L473.703 302.689 L477.985 302.689 L477.985 306.624 Q479.328 304.309 481.365 303.198 Q483.425 302.064 486.272 302.064 Q490.995 302.064 493.934 305.814 Q496.897 309.564 496.897 315.675 Q496.897 321.786 493.934 325.536 Q490.995 329.286 486.272 329.286 Q483.425 329.286 481.365 328.175 Q479.328 327.041 477.985 324.726 M492.476 315.675 Q492.476 310.976 490.532 308.314 Q488.61 305.629 485.231 305.629 Q481.851 305.629 479.907 308.314 Q477.985 310.976 477.985 315.675 Q477.985 320.374 479.907 323.059 Q481.851 325.721 485.231 325.721 Q488.61 325.721 490.532 323.059 Q492.476 320.374 492.476 315.675 Z" fill="#000000" fill-rule="nonzero" fill-opacity="1" /><path clip-path="url(#clip650)" d="M520.485 303.453 L520.485 307.48 Q518.68 306.555 516.735 306.092 Q514.791 305.629 512.707 305.629 Q509.536 305.629 507.939 306.601 Q506.365 307.573 506.365 309.518 Q506.365 310.999 507.499 311.855 Q508.633 312.689 512.059 313.453 L513.518 313.777 Q518.055 314.749 519.953 316.531 Q521.874 318.291 521.874 321.462 Q521.874 325.073 519.004 327.179 Q516.157 329.286 511.157 329.286 Q509.073 329.286 506.805 328.869 Q504.559 328.476 502.059 327.666 L502.059 323.267 Q504.42 324.494 506.712 325.119 Q509.004 325.721 511.249 325.721 Q514.258 325.721 515.879 324.703 Q517.499 323.661 517.499 321.786 Q517.499 320.05 516.319 319.124 Q515.161 318.198 511.203 317.342 L509.721 316.994 Q505.763 316.161 504.004 314.448 Q502.245 312.712 502.245 309.703 Q502.245 306.045 504.837 304.055 Q507.43 302.064 512.198 302.064 Q514.559 302.064 516.643 302.411 Q518.726 302.758 520.485 303.453 Z" fill="#000000" fill-rule="nonzero" fill-opacity="1" /><polyline clip-path="url(#clip650)" style="stroke:#800080; stroke-linecap:round; stroke-linejoin:round; stroke-width:8; stroke-opacity:1; fill:none" points="332.724,363.175 453.563,363.175 "/>
<path clip-path="url(#clip650)" d="M492.615 367.191 Q492.615 362.561 490.694 360.015 Q488.796 357.469 485.346 357.469 Q481.921 357.469 479.999 360.015 Q478.101 362.561 478.101 367.191 Q478.101 371.797 479.999 374.344 Q481.921 376.89 485.346 376.89 Q488.796 376.89 490.694 374.344 Q492.615 371.797 492.615 367.191 M496.874 377.237 Q496.874 383.857 493.934 387.075 Q490.995 390.316 484.93 390.316 Q482.684 390.316 480.694 389.968 Q478.703 389.644 476.828 388.95 L476.828 384.806 Q478.703 385.825 480.532 386.311 Q482.36 386.797 484.259 386.797 Q488.448 386.797 490.532 384.598 Q492.615 382.422 492.615 378.001 L492.615 375.894 Q491.296 378.186 489.235 379.32 Q487.175 380.455 484.305 380.455 Q479.536 380.455 476.62 376.82 Q473.703 373.186 473.703 367.191 Q473.703 361.172 476.62 357.538 Q479.536 353.904 484.305 353.904 Q487.175 353.904 489.235 355.038 Q491.296 356.172 492.615 358.464 L492.615 354.529 L496.874 354.529 L496.874 377.237 Z" fill="#000000" fill-rule="nonzero" fill-opacity="1" /><path clip-path="url(#clip650)" d="M509.768 376.566 L509.768 390.316 L505.485 390.316 L505.485 354.529 L509.768 354.529 L509.768 358.464 Q511.11 356.149 513.147 355.038 Q515.207 353.904 518.055 353.904 Q522.777 353.904 525.717 357.654 Q528.68 361.404 528.68 367.515 Q528.68 373.626 525.717 377.376 Q522.777 381.126 518.055 381.126 Q515.207 381.126 513.147 380.015 Q511.11 378.881 509.768 376.566 M524.258 367.515 Q524.258 362.816 522.314 360.154 Q520.393 357.469 517.013 357.469 Q513.633 357.469 511.689 360.154 Q509.768 362.816 509.768 367.515 Q509.768 372.214 511.689 374.899 Q513.633 377.561 517.013 377.561 Q520.393 377.561 522.314 374.899 Q524.258 372.214 524.258 367.515 Z" fill="#000000" fill-rule="nonzero" fill-opacity="1" /><polyline clip-path="url(#clip650)" style="stroke:#000000; stroke-linecap:round; stroke-linejoin:round; stroke-width:8; stroke-opacity:1; fill:none" stroke-dasharray="32, 20" points="332.724,415.015 453.563,415.015 "/>
<path clip-path="url(#clip650)" d="M481.11 399.008 L481.11 406.369 L489.884 406.369 L489.884 409.679 L481.11 409.679 L481.11 423.753 Q481.11 426.924 481.967 427.827 Q482.847 428.73 485.509 428.73 L489.884 428.73 L489.884 432.295 L485.509 432.295 Q480.578 432.295 478.703 430.466 Q476.828 428.614 476.828 423.753 L476.828 409.679 L473.703 409.679 L473.703 406.369 L476.828 406.369 L476.828 399.008 L481.11 399.008 Z" fill="#000000" fill-rule="nonzero" fill-opacity="1" /><path clip-path="url(#clip650)" d="M510.508 410.35 Q509.791 409.934 508.934 409.748 Q508.101 409.54 507.082 409.54 Q503.471 409.54 501.527 411.901 Q499.606 414.239 499.606 418.637 L499.606 432.295 L495.323 432.295 L495.323 406.369 L499.606 406.369 L499.606 410.397 Q500.948 408.035 503.101 406.901 Q505.254 405.744 508.332 405.744 Q508.772 405.744 509.305 405.813 Q509.837 405.86 510.485 405.975 L510.508 410.35 Z" fill="#000000" fill-rule="nonzero" fill-opacity="1" /><path clip-path="url(#clip650)" d="M514.536 422.063 L514.536 406.369 L518.795 406.369 L518.795 421.901 Q518.795 425.582 520.231 427.434 Q521.666 429.262 524.536 429.262 Q527.985 429.262 529.976 427.063 Q531.99 424.864 531.99 421.068 L531.99 406.369 L536.249 406.369 L536.249 432.295 L531.99 432.295 L531.99 428.313 Q530.439 430.674 528.379 431.832 Q526.342 432.966 523.633 432.966 Q519.166 432.966 516.851 430.188 Q514.536 427.41 514.536 422.063 M525.254 405.744 L525.254 405.744 Z" fill="#000000" fill-rule="nonzero" fill-opacity="1" /><path clip-path="url(#clip650)" d="M567.198 418.267 L567.198 420.35 L547.615 420.35 Q547.892 424.748 550.254 427.063 Q552.638 429.355 556.874 429.355 Q559.328 429.355 561.619 428.753 Q563.934 428.151 566.203 426.947 L566.203 430.975 Q563.911 431.947 561.503 432.457 Q559.096 432.966 556.619 432.966 Q550.416 432.966 546.781 429.355 Q543.17 425.744 543.17 419.586 Q543.17 413.221 546.596 409.494 Q550.045 405.744 555.879 405.744 Q561.11 405.744 564.142 409.123 Q567.198 412.48 567.198 418.267 M562.939 417.017 Q562.892 413.522 560.971 411.438 Q559.073 409.355 555.925 409.355 Q552.36 409.355 550.207 411.369 Q548.078 413.383 547.754 417.04 L562.939 417.017 Z" fill="#000000" fill-rule="nonzero" fill-opacity="1" /><path clip-path="url(#clip650)" d="M602.383 396.276 L602.383 399.818 L598.309 399.818 Q596.017 399.818 595.114 400.744 Q594.235 401.67 594.235 404.077 L594.235 406.369 L601.249 406.369 L601.249 409.679 L594.235 409.679 L594.235 432.295 L589.952 432.295 L589.952 409.679 L585.878 409.679 L585.878 406.369 L589.952 406.369 L589.952 404.563 Q589.952 400.235 591.966 398.267 Q593.98 396.276 598.355 396.276 L602.383 396.276 Z" fill="#000000" fill-rule="nonzero" fill-opacity="1" /><path clip-path="url(#clip650)" d="M616.179 396.323 Q613.077 401.647 611.573 406.855 Q610.068 412.063 610.068 417.41 Q610.068 422.758 611.573 428.012 Q613.1 433.244 616.179 438.545 L612.475 438.545 Q609.003 433.105 607.267 427.85 Q605.554 422.596 605.554 417.41 Q605.554 412.248 607.267 407.017 Q608.98 401.786 612.475 396.323 L616.179 396.323 Z" fill="#000000" fill-rule="nonzero" fill-opacity="1" /><path clip-path="url(#clip650)" d="M645.994 406.369 L636.619 418.985 L646.48 432.295 L641.457 432.295 L633.911 422.109 L626.364 432.295 L621.341 432.295 L631.411 418.73 L622.198 406.369 L627.221 406.369 L634.096 415.605 L640.971 406.369 L645.994 406.369 Z" fill="#000000" fill-rule="nonzero" fill-opacity="1" /><path clip-path="url(#clip650)" d="M651.827 396.323 L655.531 396.323 Q659.003 401.786 660.716 407.017 Q662.452 412.248 662.452 417.41 Q662.452 422.596 660.716 427.85 Q659.003 433.105 655.531 438.545 L651.827 438.545 Q654.906 433.244 656.41 428.012 Q657.938 422.758 657.938 417.41 Q657.938 412.063 656.41 406.855 Q654.906 401.647 651.827 396.323 Z" fill="#000000" fill-rule="nonzero" fill-opacity="1" /></svg>
