<?xml version="1.0" encoding="utf-8"?>
<svg xmlns="http://www.w3.org/2000/svg" xmlns:xlink="http://www.w3.org/1999/xlink" width="528" height="336" viewBox="0 0 2112 1344">
<defs>
  <clipPath id="clip000">
    <rect x="0" y="0" width="2112" height="1344"/>
  </clipPath>
</defs>
<path clip-path="url(#clip000)" d="M0 1344 L2112 1344 L2112 2.13163e-14 L0 2.13163e-14  Z" fill="#ffffff" fill-rule="evenodd" fill-opacity="1"/>
<defs>
  <clipPath id="clip001">
    <rect x="252" y="120" width="1814" height="1054"/>
  </clipPath>
</defs>
<path clip-path="url(#clip000)" d="M252.164 1173.47 L2064.76 1173.47 L2064.76 120.723 L252.164 120.723  Z" fill="#ffffff" fill-rule="evenodd" fill-opacity="1"/>
<polyline clip-path="url(#clip001)" style="stroke:#000000; stroke-linecap:round; stroke-linejoin:round; stroke-width:2; stroke-opacity:0.1; fill:none" points="303.054,1173.47 303.054,120.723 "/>
<polyline clip-path="url(#clip001)" style="stroke:#000000; stroke-linecap:round; stroke-linejoin:round; stroke-width:2; stroke-opacity:0.1; fill:none" points="732.134,1173.47 732.134,120.723 "/>
<polyline clip-path="url(#clip001)" style="stroke:#000000; stroke-linecap:round; stroke-linejoin:round; stroke-width:2; stroke-opacity:0.1; fill:none" points="1161.21,1173.47 1161.21,120.723 "/>
<polyline clip-path="url(#clip001)" style="stroke:#000000; stroke-linecap:round; stroke-linejoin:round; stroke-width:2; stroke-opacity:0.1; fill:none" points="1590.29,1173.47 1590.29,120.723 "/>
<polyline clip-path="url(#clip001)" style="stroke:#000000; stroke-linecap:round; stroke-linejoin:round; stroke-width:2; stroke-opacity:0.1; fill:none" points="2019.37,1173.47 2019.37,120.723 "/>
<polyline clip-path="url(#clip001)" style="stroke:#000000; stroke-linecap:round; stroke-linejoin:round; stroke-width:2; stroke-opacity:0.1; fill:none" points="252.164,1111.72 2064.76,1111.72 "/>
<polyline clip-path="url(#clip001)" style="stroke:#000000; stroke-linecap:round; stroke-linejoin:round; stroke-width:2; stroke-opacity:0.1; fill:none" points="252.164,858.172 2064.76,858.172 "/>
<polyline clip-path="url(#clip001)" style="stroke:#000000; stroke-linecap:round; stroke-linejoin:round; stroke-width:2; stroke-opacity:0.1; fill:none" points="252.164,604.62 2064.76,604.62 "/>
<polyline clip-path="url(#clip001)" style="stroke:#000000; stroke-linecap:round; stroke-linejoin:round; stroke-width:2; stroke-opacity:0.1; fill:none" points="252.164,351.068 2064.76,351.068 "/>
<polyline clip-path="url(#clip000)" style="stroke:#000000; stroke-linecap:round; stroke-linejoin:round; stroke-width:4; stroke-opacity:1; fill:none" points="252.164,1173.47 2064.76,1173.47 "/>
<polyline clip-path="url(#clip000)" style="stroke:#000000; stroke-linecap:round; stroke-linejoin:round; stroke-width:4; stroke-opacity:1; fill:none" points="303.054,1173.47 303.054,1154.57 "/>
<polyline clip-path="url(#clip000)" style="stroke:#000000; stroke-linecap:round; stroke-linejoin:round; stroke-width:4; stroke-opacity:1; fill:none" points="732.134,1173.47 732.134,1154.57 "/>
<polyline clip-path="url(#clip000)" style="stroke:#000000; stroke-linecap:round; stroke-linejoin:round; stroke-width:4; stroke-opacity:1; fill:none" points="1161.21,1173.47 1161.21,1154.57 "/>
<polyline clip-path="url(#clip000)" style="stroke:#000000; stroke-linecap:round; stroke-linejoin:round; stroke-width:4; stroke-opacity:1; fill:none" points="1590.29,1173.47 1590.29,1154.57 "/>
<polyline clip-path="url(#clip000)" style="stroke:#000000; stroke-linecap:round; stroke-linejoin:round; stroke-width:4; stroke-opacity:1; fill:none" points="2019.37,1173.47 2019.37,1154.57 "/>
<path clip-path="url(#clip000)" d="M265.357 1202.09 Q261.746 1202.09 259.917 1205.65 Q258.112 1209.19 258.112 1216.32 Q258.112 1223.43 259.917 1226.99 Q261.746 1230.53 265.357 1230.53 Q268.991 1230.53 270.797 1226.99 Q272.626 1223.43 272.626 1216.32 Q272.626 1209.19 270.797 1205.65 Q268.991 1202.09 265.357 1202.09 M265.357 1198.38 Q271.167 1198.38 274.223 1202.99 Q277.302 1207.57 277.302 1216.32 Q277.302 1225.05 274.223 1229.65 Q271.167 1234.24 265.357 1234.24 Q259.547 1234.24 256.468 1229.65 Q253.413 1225.05 253.413 1216.32 Q253.413 1207.57 256.468 1202.99 Q259.547 1198.38 265.357 1198.38 Z" fill="#000000" fill-rule="nonzero" fill-opacity="1" /><path clip-path="url(#clip000)" d="M285.519 1227.69 L290.403 1227.69 L290.403 1233.57 L285.519 1233.57 L285.519 1227.69 Z" fill="#000000" fill-rule="nonzero" fill-opacity="1" /><path clip-path="url(#clip000)" d="M310.588 1202.09 Q306.977 1202.09 305.149 1205.65 Q303.343 1209.19 303.343 1216.32 Q303.343 1223.43 305.149 1226.99 Q306.977 1230.53 310.588 1230.53 Q314.223 1230.53 316.028 1226.99 Q317.857 1223.43 317.857 1216.32 Q317.857 1209.19 316.028 1205.65 Q314.223 1202.09 310.588 1202.09 M310.588 1198.38 Q316.399 1198.38 319.454 1202.99 Q322.533 1207.57 322.533 1216.32 Q322.533 1225.05 319.454 1229.65 Q316.399 1234.24 310.588 1234.24 Q304.778 1234.24 301.7 1229.65 Q298.644 1225.05 298.644 1216.32 Q298.644 1207.57 301.7 1202.99 Q304.778 1198.38 310.588 1198.38 Z" fill="#000000" fill-rule="nonzero" fill-opacity="1" /><path clip-path="url(#clip000)" d="M340.75 1202.09 Q337.139 1202.09 335.311 1205.65 Q333.505 1209.19 333.505 1216.32 Q333.505 1223.43 335.311 1226.99 Q337.139 1230.53 340.75 1230.53 Q344.385 1230.53 346.19 1226.99 Q348.019 1223.43 348.019 1216.32 Q348.019 1209.19 346.19 1205.65 Q344.385 1202.09 340.75 1202.09 M340.75 1198.38 Q346.56 1198.38 349.616 1202.99 Q352.695 1207.57 352.695 1216.32 Q352.695 1225.05 349.616 1229.65 Q346.56 1234.24 340.75 1234.24 Q334.94 1234.24 331.861 1229.65 Q328.806 1225.05 328.806 1216.32 Q328.806 1207.57 331.861 1202.99 Q334.94 1198.38 340.75 1198.38 Z" fill="#000000" fill-rule="nonzero" fill-opacity="1" /><path clip-path="url(#clip000)" d="M694.935 1202.09 Q691.324 1202.09 689.495 1205.65 Q687.689 1209.19 687.689 1216.32 Q687.689 1223.43 689.495 1226.99 Q691.324 1230.53 694.935 1230.53 Q698.569 1230.53 700.374 1226.99 Q702.203 1223.43 702.203 1216.32 Q702.203 1209.19 700.374 1205.65 Q698.569 1202.09 694.935 1202.09 M694.935 1198.38 Q700.745 1198.38 703.8 1202.99 Q706.879 1207.57 706.879 1216.32 Q706.879 1225.05 703.8 1229.65 Q700.745 1234.24 694.935 1234.24 Q689.125 1234.24 686.046 1229.65 Q682.99 1225.05 682.99 1216.32 Q682.99 1207.57 686.046 1202.99 Q689.125 1198.38 694.935 1198.38 Z" fill="#000000" fill-rule="nonzero" fill-opacity="1" /><path clip-path="url(#clip000)" d="M715.097 1227.69 L719.981 1227.69 L719.981 1233.57 L715.097 1233.57 L715.097 1227.69 Z" fill="#000000" fill-rule="nonzero" fill-opacity="1" /><path clip-path="url(#clip000)" d="M734.194 1229.63 L750.513 1229.63 L750.513 1233.57 L728.569 1233.57 L728.569 1229.63 Q731.231 1226.88 735.814 1222.25 Q740.421 1217.59 741.601 1216.25 Q743.846 1213.73 744.726 1211.99 Q745.629 1210.23 745.629 1208.54 Q745.629 1205.79 743.684 1204.05 Q741.763 1202.32 738.661 1202.32 Q736.462 1202.32 734.009 1203.08 Q731.578 1203.84 728.8 1205.4 L728.8 1200.67 Q731.624 1199.54 734.078 1198.96 Q736.532 1198.38 738.569 1198.38 Q743.939 1198.38 747.133 1201.07 Q750.328 1203.75 750.328 1208.24 Q750.328 1210.37 749.518 1212.29 Q748.731 1214.19 746.624 1216.78 Q746.046 1217.46 742.944 1220.67 Q739.842 1223.87 734.194 1229.63 Z" fill="#000000" fill-rule="nonzero" fill-opacity="1" /><path clip-path="url(#clip000)" d="M760.374 1199.01 L778.731 1199.01 L778.731 1202.94 L764.657 1202.94 L764.657 1211.41 Q765.675 1211.07 766.694 1210.9 Q767.712 1210.72 768.731 1210.72 Q774.518 1210.72 777.897 1213.89 Q781.277 1217.06 781.277 1222.48 Q781.277 1228.06 777.805 1231.16 Q774.332 1234.24 768.013 1234.24 Q765.837 1234.24 763.569 1233.87 Q761.323 1233.5 758.916 1232.76 L758.916 1228.06 Q760.999 1229.19 763.221 1229.75 Q765.444 1230.3 767.92 1230.3 Q771.925 1230.3 774.263 1228.2 Q776.601 1226.09 776.601 1222.48 Q776.601 1218.87 774.263 1216.76 Q771.925 1214.65 767.92 1214.65 Q766.045 1214.65 764.17 1215.07 Q762.319 1215.49 760.374 1216.37 L760.374 1199.01 Z" fill="#000000" fill-rule="nonzero" fill-opacity="1" /><path clip-path="url(#clip000)" d="M1123.52 1202.09 Q1119.91 1202.09 1118.08 1205.65 Q1116.27 1209.19 1116.27 1216.32 Q1116.27 1223.43 1118.08 1226.99 Q1119.91 1230.53 1123.52 1230.53 Q1127.15 1230.53 1128.96 1226.99 Q1130.79 1223.43 1130.79 1216.32 Q1130.79 1209.19 1128.96 1205.65 Q1127.15 1202.09 1123.52 1202.09 M1123.52 1198.38 Q1129.33 1198.38 1132.38 1202.99 Q1135.46 1207.57 1135.46 1216.32 Q1135.46 1225.05 1132.38 1229.65 Q1129.33 1234.24 1123.52 1234.24 Q1117.71 1234.24 1114.63 1229.65 Q1111.57 1225.05 1111.57 1216.32 Q1111.57 1207.57 1114.63 1202.99 Q1117.71 1198.38 1123.52 1198.38 Z" fill="#000000" fill-rule="nonzero" fill-opacity="1" /><path clip-path="url(#clip000)" d="M1143.68 1227.69 L1148.56 1227.69 L1148.56 1233.57 L1143.68 1233.57 L1143.68 1227.69 Z" fill="#000000" fill-rule="nonzero" fill-opacity="1" /><path clip-path="url(#clip000)" d="M1158.79 1199.01 L1177.15 1199.01 L1177.15 1202.94 L1163.08 1202.94 L1163.08 1211.41 Q1164.1 1211.07 1165.11 1210.9 Q1166.13 1210.72 1167.15 1210.72 Q1172.94 1210.72 1176.32 1213.89 Q1179.7 1217.06 1179.7 1222.48 Q1179.7 1228.06 1176.22 1231.16 Q1172.75 1234.24 1166.43 1234.24 Q1164.26 1234.24 1161.99 1233.87 Q1159.74 1233.5 1157.34 1232.76 L1157.34 1228.06 Q1159.42 1229.19 1161.64 1229.75 Q1163.86 1230.3 1166.34 1230.3 Q1170.35 1230.3 1172.68 1228.2 Q1175.02 1226.09 1175.02 1222.48 Q1175.02 1218.87 1172.68 1216.76 Q1170.35 1214.65 1166.34 1214.65 Q1164.47 1214.65 1162.59 1215.07 Q1160.74 1215.49 1158.79 1216.37 L1158.79 1199.01 Z" fill="#000000" fill-rule="nonzero" fill-opacity="1" /><path clip-path="url(#clip000)" d="M1198.91 1202.09 Q1195.3 1202.09 1193.47 1205.65 Q1191.66 1209.19 1191.66 1216.32 Q1191.66 1223.43 1193.47 1226.99 Q1195.3 1230.53 1198.91 1230.53 Q1202.54 1230.53 1204.35 1226.99 Q1206.18 1223.43 1206.18 1216.32 Q1206.18 1209.19 1204.35 1205.65 Q1202.54 1202.09 1198.91 1202.09 M1198.91 1198.38 Q1204.72 1198.38 1207.78 1202.99 Q1210.85 1207.57 1210.85 1216.32 Q1210.85 1225.05 1207.78 1229.65 Q1204.72 1234.24 1198.91 1234.24 Q1193.1 1234.24 1190.02 1229.65 Q1186.97 1225.05 1186.97 1216.32 Q1186.97 1207.57 1190.02 1202.99 Q1193.1 1198.38 1198.91 1198.38 Z" fill="#000000" fill-rule="nonzero" fill-opacity="1" /><path clip-path="url(#clip000)" d="M1553.09 1202.09 Q1549.48 1202.09 1547.65 1205.65 Q1545.85 1209.19 1545.85 1216.32 Q1545.85 1223.43 1547.65 1226.99 Q1549.48 1230.53 1553.09 1230.53 Q1556.73 1230.53 1558.53 1226.99 Q1560.36 1223.43 1560.36 1216.32 Q1560.36 1209.19 1558.53 1205.65 Q1556.73 1202.09 1553.09 1202.09 M1553.09 1198.38 Q1558.9 1198.38 1561.96 1202.99 Q1565.04 1207.57 1565.04 1216.32 Q1565.04 1225.05 1561.96 1229.65 Q1558.9 1234.24 1553.09 1234.24 Q1547.28 1234.24 1544.21 1229.65 Q1541.15 1225.05 1541.15 1216.32 Q1541.15 1207.57 1544.21 1202.99 Q1547.28 1198.38 1553.09 1198.38 Z" fill="#000000" fill-rule="nonzero" fill-opacity="1" /><path clip-path="url(#clip000)" d="M1573.26 1227.69 L1578.14 1227.69 L1578.14 1233.57 L1573.26 1233.57 L1573.26 1227.69 Z" fill="#000000" fill-rule="nonzero" fill-opacity="1" /><path clip-path="url(#clip000)" d="M1587.14 1199.01 L1609.37 1199.01 L1609.37 1201 L1596.82 1233.57 L1591.94 1233.57 L1603.74 1202.94 L1587.14 1202.94 L1587.14 1199.01 Z" fill="#000000" fill-rule="nonzero" fill-opacity="1" /><path clip-path="url(#clip000)" d="M1618.53 1199.01 L1636.89 1199.01 L1636.89 1202.94 L1622.82 1202.94 L1622.82 1211.41 Q1623.83 1211.07 1624.85 1210.9 Q1625.87 1210.72 1626.89 1210.72 Q1632.68 1210.72 1636.06 1213.89 Q1639.44 1217.06 1639.44 1222.48 Q1639.44 1228.06 1635.96 1231.16 Q1632.49 1234.24 1626.17 1234.24 Q1624 1234.24 1621.73 1233.87 Q1619.48 1233.5 1617.08 1232.76 L1617.08 1228.06 Q1619.16 1229.19 1621.38 1229.75 Q1623.6 1230.3 1626.08 1230.3 Q1630.08 1230.3 1632.42 1228.2 Q1634.76 1226.09 1634.76 1222.48 Q1634.76 1218.87 1632.42 1216.76 Q1630.08 1214.65 1626.08 1214.65 Q1624.2 1214.65 1622.33 1215.07 Q1620.48 1215.49 1618.53 1216.37 L1618.53 1199.01 Z" fill="#000000" fill-rule="nonzero" fill-opacity="1" /><path clip-path="url(#clip000)" d="M1971.44 1229.63 L1979.08 1229.63 L1979.08 1203.27 L1970.77 1204.93 L1970.77 1200.67 L1979.04 1199.01 L1983.71 1199.01 L1983.71 1229.63 L1991.35 1229.63 L1991.35 1233.57 L1971.44 1233.57 L1971.44 1229.63 Z" fill="#000000" fill-rule="nonzero" fill-opacity="1" /><path clip-path="url(#clip000)" d="M2000.8 1227.69 L2005.68 1227.69 L2005.68 1233.57 L2000.8 1233.57 L2000.8 1227.69 Z" fill="#000000" fill-rule="nonzero" fill-opacity="1" /><path clip-path="url(#clip000)" d="M2025.87 1202.09 Q2022.25 1202.09 2020.43 1205.65 Q2018.62 1209.19 2018.62 1216.32 Q2018.62 1223.43 2020.43 1226.99 Q2022.25 1230.53 2025.87 1230.53 Q2029.5 1230.53 2031.31 1226.99 Q2033.13 1223.43 2033.13 1216.32 Q2033.13 1209.19 2031.31 1205.65 Q2029.5 1202.09 2025.87 1202.09 M2025.87 1198.38 Q2031.68 1198.38 2034.73 1202.99 Q2037.81 1207.57 2037.81 1216.32 Q2037.81 1225.05 2034.73 1229.65 Q2031.68 1234.24 2025.87 1234.24 Q2020.06 1234.24 2016.98 1229.65 Q2013.92 1225.05 2013.92 1216.32 Q2013.92 1207.57 2016.98 1202.99 Q2020.06 1198.38 2025.87 1198.38 Z" fill="#000000" fill-rule="nonzero" fill-opacity="1" /><path clip-path="url(#clip000)" d="M2056.03 1202.09 Q2052.42 1202.09 2050.59 1205.65 Q2048.78 1209.19 2048.78 1216.32 Q2048.78 1223.43 2050.59 1226.99 Q2052.42 1230.53 2056.03 1230.53 Q2059.66 1230.53 2061.47 1226.99 Q2063.3 1223.43 2063.3 1216.32 Q2063.3 1209.19 2061.47 1205.65 Q2059.66 1202.09 2056.03 1202.09 M2056.03 1198.38 Q2061.84 1198.38 2064.89 1202.99 Q2067.97 1207.57 2067.97 1216.32 Q2067.97 1225.05 2064.89 1229.65 Q2061.84 1234.24 2056.03 1234.24 Q2050.22 1234.24 2047.14 1229.65 Q2044.08 1225.05 2044.08 1216.32 Q2044.08 1207.57 2047.14 1202.99 Q2050.22 1198.38 2056.03 1198.38 Z" fill="#000000" fill-rule="nonzero" fill-opacity="1" /><path clip-path="url(#clip000)" d="M1175.07 1278.37 L1162.18 1295.71 L1175.74 1314.01 L1168.84 1314.01 L1158.46 1300.01 L1148.08 1314.01 L1141.18 1314.01 L1155.02 1295.36 L1142.35 1278.37 L1149.26 1278.37 L1158.71 1291.07 L1168.17 1278.37 L1175.07 1278.37 Z" fill="#000000" fill-rule="nonzero" fill-opacity="1" /><polyline clip-path="url(#clip000)" style="stroke:#000000; stroke-linecap:round; stroke-linejoin:round; stroke-width:4; stroke-opacity:1; fill:none" points="252.164,1173.47 252.164,120.723 "/>
<polyline clip-path="url(#clip000)" style="stroke:#000000; stroke-linecap:round; stroke-linejoin:round; stroke-width:4; stroke-opacity:1; fill:none" points="252.164,1111.72 271.062,1111.72 "/>
<polyline clip-path="url(#clip000)" style="stroke:#000000; stroke-linecap:round; stroke-linejoin:round; stroke-width:4; stroke-opacity:1; fill:none" points="252.164,858.172 271.062,858.172 "/>
<polyline clip-path="url(#clip000)" style="stroke:#000000; stroke-linecap:round; stroke-linejoin:round; stroke-width:4; stroke-opacity:1; fill:none" points="252.164,604.62 271.062,604.62 "/>
<polyline clip-path="url(#clip000)" style="stroke:#000000; stroke-linecap:round; stroke-linejoin:round; stroke-width:4; stroke-opacity:1; fill:none" points="252.164,351.068 271.062,351.068 "/>
<path clip-path="url(#clip000)" d="M114.536 1112.18 L144.211 1112.18 L144.211 1116.11 L114.536 1116.11 L114.536 1112.18 Z" fill="#000000" fill-rule="nonzero" fill-opacity="1" /><path clip-path="url(#clip000)" d="M153.123 1094.44 L175.345 1094.44 L175.345 1096.43 L162.799 1129 L157.915 1129 L169.72 1098.38 L153.123 1098.38 L153.123 1094.44 Z" fill="#000000" fill-rule="nonzero" fill-opacity="1" /><path clip-path="url(#clip000)" d="M184.466 1123.12 L189.35 1123.12 L189.35 1129 L184.466 1129 L184.466 1123.12 Z" fill="#000000" fill-rule="nonzero" fill-opacity="1" /><path clip-path="url(#clip000)" d="M199.581 1094.44 L217.938 1094.44 L217.938 1098.38 L203.864 1098.38 L203.864 1106.85 Q204.882 1106.5 205.901 1106.34 Q206.919 1106.16 207.938 1106.16 Q213.725 1106.16 217.104 1109.33 Q220.484 1112.5 220.484 1117.92 Q220.484 1123.49 217.012 1126.6 Q213.54 1129.68 207.22 1129.68 Q205.044 1129.68 202.776 1129.3 Q200.53 1128.93 198.123 1128.19 L198.123 1123.49 Q200.206 1124.63 202.429 1125.18 Q204.651 1125.74 207.128 1125.74 Q211.132 1125.74 213.47 1123.63 Q215.808 1121.53 215.808 1117.92 Q215.808 1114.3 213.47 1112.2 Q211.132 1110.09 207.128 1110.09 Q205.253 1110.09 203.378 1110.51 Q201.526 1110.93 199.581 1111.8 L199.581 1094.44 Z" fill="#000000" fill-rule="nonzero" fill-opacity="1" /><path clip-path="url(#clip000)" d="M113.54 858.623 L143.216 858.623 L143.216 862.558 L113.54 862.558 L113.54 858.623 Z" fill="#000000" fill-rule="nonzero" fill-opacity="1" /><path clip-path="url(#clip000)" d="M153.355 840.892 L171.711 840.892 L171.711 844.827 L157.637 844.827 L157.637 853.299 Q158.656 852.952 159.674 852.79 Q160.693 852.605 161.711 852.605 Q167.498 852.605 170.878 855.776 Q174.257 858.947 174.257 864.364 Q174.257 869.943 170.785 873.044 Q167.313 876.123 160.994 876.123 Q158.818 876.123 156.549 875.753 Q154.304 875.382 151.896 874.642 L151.896 869.943 Q153.98 871.077 156.202 871.632 Q158.424 872.188 160.901 872.188 Q164.906 872.188 167.244 870.081 Q169.582 867.975 169.582 864.364 Q169.582 860.753 167.244 858.646 Q164.906 856.54 160.901 856.54 Q159.026 856.54 157.151 856.957 Q155.299 857.373 153.355 858.253 L153.355 840.892 Z" fill="#000000" fill-rule="nonzero" fill-opacity="1" /><path clip-path="url(#clip000)" d="M183.47 869.572 L188.355 869.572 L188.355 875.452 L183.47 875.452 L183.47 869.572 Z" fill="#000000" fill-rule="nonzero" fill-opacity="1" /><path clip-path="url(#clip000)" d="M208.54 843.97 Q204.929 843.97 203.1 847.535 Q201.294 851.077 201.294 858.207 Q201.294 865.313 203.1 868.878 Q204.929 872.419 208.54 872.419 Q212.174 872.419 213.979 868.878 Q215.808 865.313 215.808 858.207 Q215.808 851.077 213.979 847.535 Q212.174 843.97 208.54 843.97 M208.54 840.267 Q214.35 840.267 217.405 844.873 Q220.484 849.457 220.484 858.207 Q220.484 866.933 217.405 871.54 Q214.35 876.123 208.54 876.123 Q202.729 876.123 199.651 871.54 Q196.595 866.933 196.595 858.207 Q196.595 849.457 199.651 844.873 Q202.729 840.267 208.54 840.267 Z" fill="#000000" fill-rule="nonzero" fill-opacity="1" /><path clip-path="url(#clip000)" d="M114.536 605.071 L144.211 605.071 L144.211 609.006 L114.536 609.006 L114.536 605.071 Z" fill="#000000" fill-rule="nonzero" fill-opacity="1" /><path clip-path="url(#clip000)" d="M158.332 617.965 L174.651 617.965 L174.651 621.9 L152.707 621.9 L152.707 617.965 Q155.369 615.21 159.952 610.58 Q164.558 605.928 165.739 604.585 Q167.984 602.062 168.864 600.326 Q169.767 598.567 169.767 596.877 Q169.767 594.122 167.822 592.386 Q165.901 590.65 162.799 590.65 Q160.6 590.65 158.146 591.414 Q155.716 592.178 152.938 593.729 L152.938 589.006 Q155.762 587.872 158.216 587.294 Q160.67 586.715 162.707 586.715 Q168.077 586.715 171.271 589.4 Q174.466 592.085 174.466 596.576 Q174.466 598.705 173.656 600.627 Q172.869 602.525 170.762 605.117 Q170.183 605.789 167.082 609.006 Q163.98 612.201 158.332 617.965 Z" fill="#000000" fill-rule="nonzero" fill-opacity="1" /><path clip-path="url(#clip000)" d="M184.466 616.02 L189.35 616.02 L189.35 621.9 L184.466 621.9 L184.466 616.02 Z" fill="#000000" fill-rule="nonzero" fill-opacity="1" /><path clip-path="url(#clip000)" d="M199.581 587.34 L217.938 587.34 L217.938 591.275 L203.864 591.275 L203.864 599.747 Q204.882 599.4 205.901 599.238 Q206.919 599.053 207.938 599.053 Q213.725 599.053 217.104 602.224 Q220.484 605.395 220.484 610.812 Q220.484 616.391 217.012 619.492 Q213.54 622.571 207.22 622.571 Q205.044 622.571 202.776 622.201 Q200.53 621.83 198.123 621.09 L198.123 616.391 Q200.206 617.525 202.429 618.08 Q204.651 618.636 207.128 618.636 Q211.132 618.636 213.47 616.529 Q215.808 614.423 215.808 610.812 Q215.808 607.201 213.47 605.094 Q211.132 602.988 207.128 602.988 Q205.253 602.988 203.378 603.405 Q201.526 603.821 199.581 604.701 L199.581 587.34 Z" fill="#000000" fill-rule="nonzero" fill-opacity="1" /><path clip-path="url(#clip000)" d="M163.308 336.867 Q159.697 336.867 157.869 340.431 Q156.063 343.973 156.063 351.103 Q156.063 358.209 157.869 361.774 Q159.697 365.315 163.308 365.315 Q166.943 365.315 168.748 361.774 Q170.577 358.209 170.577 351.103 Q170.577 343.973 168.748 340.431 Q166.943 336.867 163.308 336.867 M163.308 333.163 Q169.119 333.163 172.174 337.769 Q175.253 342.353 175.253 351.103 Q175.253 359.829 172.174 364.436 Q169.119 369.019 163.308 369.019 Q157.498 369.019 154.42 364.436 Q151.364 359.829 151.364 351.103 Q151.364 342.353 154.42 337.769 Q157.498 333.163 163.308 333.163 Z" fill="#000000" fill-rule="nonzero" fill-opacity="1" /><path clip-path="url(#clip000)" d="M183.47 362.468 L188.355 362.468 L188.355 368.348 L183.47 368.348 L183.47 362.468 Z" fill="#000000" fill-rule="nonzero" fill-opacity="1" /><path clip-path="url(#clip000)" d="M208.54 336.867 Q204.929 336.867 203.1 340.431 Q201.294 343.973 201.294 351.103 Q201.294 358.209 203.1 361.774 Q204.929 365.315 208.54 365.315 Q212.174 365.315 213.979 361.774 Q215.808 358.209 215.808 351.103 Q215.808 343.973 213.979 340.431 Q212.174 336.867 208.54 336.867 M208.54 333.163 Q214.35 333.163 217.405 337.769 Q220.484 342.353 220.484 351.103 Q220.484 359.829 217.405 364.436 Q214.35 369.019 208.54 369.019 Q202.729 369.019 199.651 364.436 Q196.595 359.829 196.595 351.103 Q196.595 342.353 199.651 337.769 Q202.729 333.163 208.54 333.163 Z" fill="#000000" fill-rule="nonzero" fill-opacity="1" /><path clip-path="url(#clip000)" d="M18.079 677.048 L22.9487 677.048 L22.9487 682.649 Q22.9487 685.8 24.2219 687.042 Q25.495 688.251 28.8052 688.251 L31.9562 688.251 L31.9562 678.607 L36.5077 678.607 L36.5077 688.251 L67.6042 688.251 L67.6042 694.139 L36.5077 694.139 L36.5077 699.741 L31.9562 699.741 L31.9562 694.139 L29.4736 694.139 Q23.5216 694.139 20.8162 691.37 Q18.079 688.601 18.079 682.586 L18.079 677.048 Z" fill="#000000" fill-rule="nonzero" fill-opacity="1" /><path clip-path="url(#clip000)" d="M18.1426 658.078 Q25.4632 662.343 32.6246 664.412 Q39.786 666.48 47.1384 666.48 Q54.4908 666.48 61.7159 664.412 Q68.9091 662.311 76.1979 658.078 L76.1979 663.17 Q68.7182 667.945 61.4931 670.332 Q54.268 672.687 47.1384 672.687 Q40.0406 672.687 32.8474 670.332 Q25.6542 667.976 18.1426 663.17 L18.1426 658.078 Z" fill="#000000" fill-rule="nonzero" fill-opacity="1" /><path clip-path="url(#clip000)" d="M31.9562 617.083 L49.3028 629.973 L67.6042 616.414 L67.6042 623.321 L53.5996 633.697 L67.6042 644.073 L67.6042 650.98 L48.9526 637.135 L31.9562 649.802 L31.9562 642.896 L44.6558 633.442 L31.9562 623.989 L31.9562 617.083 Z" fill="#000000" fill-rule="nonzero" fill-opacity="1" /><path clip-path="url(#clip000)" d="M18.1426 609.062 L18.1426 603.969 Q25.6542 599.195 32.8474 596.84 Q40.0406 594.452 47.1384 594.452 Q54.268 594.452 61.4931 596.84 Q68.7182 599.195 76.1979 603.969 L76.1979 609.062 Q68.9091 604.829 61.7159 602.76 Q54.4908 600.659 47.1384 600.659 Q39.786 600.659 32.6246 602.76 Q25.4632 604.829 18.1426 609.062 Z" fill="#000000" fill-rule="nonzero" fill-opacity="1" /><path clip-path="url(#clip000)" d="M535.35 14.0809 L535.35 22.0612 Q530.691 19.8332 526.559 18.7395 Q522.427 17.6457 518.579 17.6457 Q511.895 17.6457 508.249 20.2383 Q504.644 22.8309 504.644 27.611 Q504.644 31.6214 507.034 33.6873 Q509.465 35.7128 516.189 36.9686 L521.131 37.9813 Q530.286 39.7232 534.621 44.1387 Q538.996 48.5136 538.996 55.8863 Q538.996 64.6767 533.081 69.2137 Q527.208 73.7508 515.825 73.7508 Q511.531 73.7508 506.669 72.7785 Q501.849 71.8063 496.664 69.9024 L496.664 61.4765 Q501.646 64.2716 506.426 65.6895 Q511.206 67.1073 515.825 67.1073 Q522.833 67.1073 526.64 64.3527 Q530.448 61.598 530.448 56.4939 Q530.448 52.0379 527.694 49.5264 Q524.98 47.0148 518.741 45.759 L513.759 44.7868 Q504.604 42.9639 500.512 39.075 Q496.421 35.1862 496.421 28.2591 Q496.421 20.2383 502.051 15.6203 Q507.723 11.0023 517.647 11.0023 Q521.901 11.0023 526.316 11.7719 Q530.732 12.5416 535.35 14.0809 Z" fill="#000000" fill-rule="nonzero" fill-opacity="1" /><path clip-path="url(#clip000)" d="M586.756 35.9153 Q589.551 30.8922 593.44 28.5022 Q597.329 26.1121 602.595 26.1121 Q609.684 26.1121 613.532 31.0947 Q617.381 36.0368 617.381 45.1919 L617.381 72.576 L609.887 72.576 L609.887 45.4349 Q609.887 38.913 607.578 35.7533 Q605.268 32.5936 600.529 32.5936 Q594.736 32.5936 591.374 36.4419 Q588.012 40.2903 588.012 46.9338 L588.012 72.576 L580.517 72.576 L580.517 45.4349 Q580.517 38.8725 578.208 35.7533 Q575.899 32.5936 571.079 32.5936 Q565.367 32.5936 562.005 36.4824 Q558.643 40.3308 558.643 46.9338 L558.643 72.576 L551.148 72.576 L551.148 27.2059 L558.643 27.2059 L558.643 34.2544 Q561.195 30.082 564.759 28.0971 Q568.324 26.1121 573.226 26.1121 Q578.168 26.1121 581.611 28.6237 Q585.095 31.1352 586.756 35.9153 Z" fill="#000000" fill-rule="nonzero" fill-opacity="1" /><path clip-path="url(#clip000)" d="M649.828 32.4315 Q643.833 32.4315 640.349 37.1306 Q636.866 41.7891 636.866 49.9314 Q636.866 58.0738 640.309 62.7728 Q643.793 67.4314 649.828 67.4314 Q655.783 67.4314 659.267 62.7323 Q662.751 58.0333 662.751 49.9314 Q662.751 41.8701 659.267 37.1711 Q655.783 32.4315 649.828 32.4315 M649.828 26.1121 Q659.551 26.1121 665.1 32.4315 Q670.65 38.7509 670.65 49.9314 Q670.65 61.0714 665.1 67.4314 Q659.551 73.7508 649.828 73.7508 Q640.066 73.7508 634.516 67.4314 Q629.007 61.0714 629.007 49.9314 Q629.007 38.7509 634.516 32.4315 Q640.066 26.1121 649.828 26.1121 Z" fill="#000000" fill-rule="nonzero" fill-opacity="1" /><path clip-path="url(#clip000)" d="M700.586 32.4315 Q694.591 32.4315 691.107 37.1306 Q687.623 41.7891 687.623 49.9314 Q687.623 58.0738 691.067 62.7728 Q694.55 67.4314 700.586 67.4314 Q706.541 67.4314 710.025 62.7323 Q713.509 58.0333 713.509 49.9314 Q713.509 41.8701 710.025 37.1711 Q706.541 32.4315 700.586 32.4315 M700.586 26.1121 Q710.308 26.1121 715.858 32.4315 Q721.408 38.7509 721.408 49.9314 Q721.408 61.0714 715.858 67.4314 Q710.308 73.7508 700.586 73.7508 Q690.824 73.7508 685.274 67.4314 Q679.765 61.0714 679.765 49.9314 Q679.765 38.7509 685.274 32.4315 Q690.824 26.1121 700.586 26.1121 Z" fill="#000000" fill-rule="nonzero" fill-opacity="1" /><path clip-path="url(#clip000)" d="M741.136 14.324 L741.136 27.2059 L756.489 27.2059 L756.489 32.9987 L741.136 32.9987 L741.136 57.6282 Q741.136 63.1779 742.635 64.7578 Q744.174 66.3376 748.833 66.3376 L756.489 66.3376 L756.489 72.576 L748.833 72.576 Q740.204 72.576 736.923 69.3758 Q733.642 66.1351 733.642 57.6282 L733.642 32.9987 L728.173 32.9987 L728.173 27.2059 L733.642 27.2059 L733.642 14.324 L741.136 14.324 Z" fill="#000000" fill-rule="nonzero" fill-opacity="1" /><path clip-path="url(#clip000)" d="M804.006 45.1919 L804.006 72.576 L796.552 72.576 L796.552 45.4349 Q796.552 38.994 794.041 35.7938 Q791.529 32.5936 786.506 32.5936 Q780.47 32.5936 776.986 36.4419 Q773.503 40.2903 773.503 46.9338 L773.503 72.576 L766.008 72.576 L766.008 9.54393 L773.503 9.54393 L773.503 34.2544 Q776.176 30.163 779.781 28.1376 Q783.427 26.1121 788.167 26.1121 Q795.985 26.1121 799.995 30.9732 Q804.006 35.7938 804.006 45.1919 Z" fill="#000000" fill-rule="nonzero" fill-opacity="1" /><path clip-path="url(#clip000)" d="M884.052 48.0275 L884.052 51.6733 L849.781 51.6733 Q850.267 59.3701 854.399 63.421 Q858.572 67.4314 865.985 67.4314 Q870.279 67.4314 874.289 66.3781 Q878.34 65.3249 882.31 63.2184 L882.31 70.267 Q878.299 71.9684 874.086 72.8596 Q869.874 73.7508 865.539 73.7508 Q854.683 73.7508 848.323 67.4314 Q842.003 61.1119 842.003 50.3365 Q842.003 39.1965 847.999 32.6746 Q854.035 26.1121 864.243 26.1121 Q873.398 26.1121 878.705 32.0264 Q884.052 37.9003 884.052 48.0275 M876.598 45.84 Q876.517 39.7232 873.155 36.0774 Q869.833 32.4315 864.324 32.4315 Q858.085 32.4315 854.318 35.9558 Q850.591 39.4801 850.024 45.8805 L876.598 45.84 Z" fill="#000000" fill-rule="nonzero" fill-opacity="1" /><path clip-path="url(#clip000)" d="M925.209 28.5427 L925.209 35.5912 Q922.049 33.9709 918.646 33.1607 Q915.244 32.3505 911.598 32.3505 Q906.048 32.3505 903.253 34.0519 Q900.498 35.7533 900.498 39.156 Q900.498 41.7486 902.483 43.2475 Q904.468 44.7058 910.464 46.0426 L913.016 46.6097 Q920.955 48.3111 924.277 51.4303 Q927.639 54.509 927.639 60.0587 Q927.639 66.3781 922.616 70.0644 Q917.634 73.7508 908.884 73.7508 Q905.238 73.7508 901.268 73.0216 Q897.339 72.3329 892.964 70.9151 L892.964 63.2184 Q897.096 65.3654 901.106 66.4591 Q905.116 67.5124 909.046 67.5124 Q914.312 67.5124 917.148 65.73 Q919.983 63.9071 919.983 60.6258 Q919.983 57.5877 917.917 55.9673 Q915.892 54.3469 908.965 52.8481 L906.372 52.2405 Q899.445 50.7821 896.366 47.7845 Q893.288 44.7463 893.288 39.4801 Q893.288 33.0797 897.825 29.5959 Q902.362 26.1121 910.707 26.1121 Q914.839 26.1121 918.484 26.7198 Q922.13 27.3274 925.209 28.5427 Z" fill="#000000" fill-rule="nonzero" fill-opacity="1" /><path clip-path="url(#clip000)" d="M946.881 14.324 L946.881 27.2059 L962.234 27.2059 L962.234 32.9987 L946.881 32.9987 L946.881 57.6282 Q946.881 63.1779 948.38 64.7578 Q949.919 66.3376 954.578 66.3376 L962.234 66.3376 L962.234 72.576 L954.578 72.576 Q945.95 72.576 942.668 69.3758 Q939.387 66.1351 939.387 57.6282 L939.387 32.9987 L933.918 32.9987 L933.918 27.2059 L939.387 27.2059 L939.387 14.324 L946.881 14.324 Z" fill="#000000" fill-rule="nonzero" fill-opacity="1" /><path clip-path="url(#clip000)" d="M972.037 27.2059 L979.491 27.2059 L979.491 72.576 L972.037 72.576 L972.037 27.2059 M972.037 9.54393 L979.491 9.54393 L979.491 18.9825 L972.037 18.9825 L972.037 9.54393 Z" fill="#000000" fill-rule="nonzero" fill-opacity="1" /><path clip-path="url(#clip000)" d="M1030.41 35.9153 Q1033.21 30.8922 1037.09 28.5022 Q1040.98 26.1121 1046.25 26.1121 Q1053.34 26.1121 1057.19 31.0947 Q1061.04 36.0368 1061.04 45.1919 L1061.04 72.576 L1053.54 72.576 L1053.54 45.4349 Q1053.54 38.913 1051.23 35.7533 Q1048.92 32.5936 1044.18 32.5936 Q1038.39 32.5936 1035.03 36.4419 Q1031.67 40.2903 1031.67 46.9338 L1031.67 72.576 L1024.17 72.576 L1024.17 45.4349 Q1024.17 38.8725 1021.86 35.7533 Q1019.55 32.5936 1014.73 32.5936 Q1009.02 32.5936 1005.66 36.4824 Q1002.3 40.3308 1002.3 46.9338 L1002.3 72.576 L994.803 72.576 L994.803 27.2059 L1002.3 27.2059 L1002.3 34.2544 Q1004.85 30.082 1008.41 28.0971 Q1011.98 26.1121 1016.88 26.1121 Q1021.82 26.1121 1025.27 28.6237 Q1028.75 31.1352 1030.41 35.9153 Z" fill="#000000" fill-rule="nonzero" fill-opacity="1" /><path clip-path="url(#clip000)" d="M1096.52 49.7694 Q1087.49 49.7694 1084 51.8354 Q1080.52 53.9013 1080.52 58.8839 Q1080.52 62.8538 1083.11 65.2034 Q1085.75 67.5124 1090.24 67.5124 Q1096.44 67.5124 1100.17 63.1374 Q1103.93 58.7219 1103.93 51.4303 L1103.93 49.7694 L1096.52 49.7694 M1111.39 46.6907 L1111.39 72.576 L1103.93 72.576 L1103.93 65.6895 Q1101.38 69.8214 1097.57 71.8063 Q1093.77 73.7508 1088.26 73.7508 Q1081.29 73.7508 1077.16 69.8619 Q1073.07 65.9325 1073.07 59.3701 Q1073.07 51.7138 1078.17 47.825 Q1083.32 43.9361 1093.48 43.9361 L1103.93 43.9361 L1103.93 43.2069 Q1103.93 38.0623 1100.53 35.2672 Q1097.17 32.4315 1091.05 32.4315 Q1087.16 32.4315 1083.48 33.3632 Q1079.79 34.295 1076.39 36.1584 L1076.39 29.2718 Q1080.48 27.692 1084.33 26.9223 Q1088.18 26.1121 1091.82 26.1121 Q1101.67 26.1121 1106.53 31.2163 Q1111.39 36.3204 1111.39 46.6907 Z" fill="#000000" fill-rule="nonzero" fill-opacity="1" /><path clip-path="url(#clip000)" d="M1134.11 14.324 L1134.11 27.2059 L1149.47 27.2059 L1149.47 32.9987 L1134.11 32.9987 L1134.11 57.6282 Q1134.11 63.1779 1135.61 64.7578 Q1137.15 66.3376 1141.81 66.3376 L1149.47 66.3376 L1149.47 72.576 L1141.81 72.576 Q1133.18 72.576 1129.9 69.3758 Q1126.62 66.1351 1126.62 57.6282 L1126.62 32.9987 L1121.15 32.9987 L1121.15 27.2059 L1126.62 27.2059 L1126.62 14.324 L1134.11 14.324 Z" fill="#000000" fill-rule="nonzero" fill-opacity="1" /><path clip-path="url(#clip000)" d="M1198.08 48.0275 L1198.08 51.6733 L1163.81 51.6733 Q1164.29 59.3701 1168.43 63.421 Q1172.6 67.4314 1180.01 67.4314 Q1184.3 67.4314 1188.32 66.3781 Q1192.37 65.3249 1196.34 63.2184 L1196.34 70.267 Q1192.33 71.9684 1188.11 72.8596 Q1183.9 73.7508 1179.57 73.7508 Q1168.71 73.7508 1162.35 67.4314 Q1156.03 61.1119 1156.03 50.3365 Q1156.03 39.1965 1162.02 32.6746 Q1168.06 26.1121 1178.27 26.1121 Q1187.42 26.1121 1192.73 32.0264 Q1198.08 37.9003 1198.08 48.0275 M1190.62 45.84 Q1190.54 39.7232 1187.18 36.0774 Q1183.86 32.4315 1178.35 32.4315 Q1172.11 32.4315 1168.34 35.9558 Q1164.62 39.4801 1164.05 45.8805 L1190.62 45.84 Z" fill="#000000" fill-rule="nonzero" fill-opacity="1" /><path clip-path="url(#clip000)" d="M1239.23 28.5427 L1239.23 35.5912 Q1236.08 33.9709 1232.67 33.1607 Q1229.27 32.3505 1225.62 32.3505 Q1220.07 32.3505 1217.28 34.0519 Q1214.52 35.7533 1214.52 39.156 Q1214.52 41.7486 1216.51 43.2475 Q1218.49 44.7058 1224.49 46.0426 L1227.04 46.6097 Q1234.98 48.3111 1238.3 51.4303 Q1241.67 54.509 1241.67 60.0587 Q1241.67 66.3781 1236.64 70.0644 Q1231.66 73.7508 1222.91 73.7508 Q1219.26 73.7508 1215.29 73.0216 Q1211.36 72.3329 1206.99 70.9151 L1206.99 63.2184 Q1211.12 65.3654 1215.13 66.4591 Q1219.14 67.5124 1223.07 67.5124 Q1228.34 67.5124 1231.17 65.73 Q1234.01 63.9071 1234.01 60.6258 Q1234.01 57.5877 1231.94 55.9673 Q1229.92 54.3469 1222.99 52.8481 L1220.4 52.2405 Q1213.47 50.7821 1210.39 47.7845 Q1207.31 44.7463 1207.31 39.4801 Q1207.31 33.0797 1211.85 29.5959 Q1216.39 26.1121 1224.73 26.1121 Q1228.86 26.1121 1232.51 26.7198 Q1236.16 27.3274 1239.23 28.5427 Z" fill="#000000" fill-rule="nonzero" fill-opacity="1" /><path clip-path="url(#clip000)" d="M1312.48 49.9314 Q1312.48 41.7081 1309.07 37.0496 Q1305.71 32.3505 1299.8 32.3505 Q1293.88 32.3505 1290.48 37.0496 Q1287.12 41.7081 1287.12 49.9314 Q1287.12 58.1548 1290.48 62.8538 Q1293.88 67.5124 1299.8 67.5124 Q1305.71 67.5124 1309.07 62.8538 Q1312.48 58.1548 1312.48 49.9314 M1287.12 34.0924 Q1289.47 30.0415 1293.03 28.0971 Q1296.64 26.1121 1301.62 26.1121 Q1309.88 26.1121 1315.03 32.6746 Q1320.21 39.2371 1320.21 49.9314 Q1320.21 60.6258 1315.03 67.1883 Q1309.88 73.7508 1301.62 73.7508 Q1296.64 73.7508 1293.03 71.8063 Q1289.47 69.8214 1287.12 65.7705 L1287.12 72.576 L1279.62 72.576 L1279.62 9.54393 L1287.12 9.54393 L1287.12 34.0924 Z" fill="#000000" fill-rule="nonzero" fill-opacity="1" /><path clip-path="url(#clip000)" d="M1351.45 76.7889 Q1348.29 84.8907 1345.29 87.3618 Q1342.29 89.8329 1337.27 89.8329 L1331.31 89.8329 L1331.31 83.5945 L1335.69 83.5945 Q1338.77 83.5945 1340.47 82.1361 Q1342.17 80.6778 1344.23 75.2496 L1345.57 71.8468 L1327.22 27.2059 L1335.12 27.2059 L1349.3 62.6918 L1363.48 27.2059 L1371.38 27.2059 L1351.45 76.7889 Z" fill="#000000" fill-rule="nonzero" fill-opacity="1" /><path clip-path="url(#clip000)" d="M1440.61 49.9314 Q1440.61 41.7081 1437.2 37.0496 Q1433.84 32.3505 1427.93 32.3505 Q1422.01 32.3505 1418.61 37.0496 Q1415.25 41.7081 1415.25 49.9314 Q1415.25 58.1548 1418.61 62.8538 Q1422.01 67.5124 1427.93 67.5124 Q1433.84 67.5124 1437.2 62.8538 Q1440.61 58.1548 1440.61 49.9314 M1415.25 34.0924 Q1417.6 30.0415 1421.16 28.0971 Q1424.77 26.1121 1429.75 26.1121 Q1438.01 26.1121 1443.16 32.6746 Q1448.34 39.2371 1448.34 49.9314 Q1448.34 60.6258 1443.16 67.1883 Q1438.01 73.7508 1429.75 73.7508 Q1424.77 73.7508 1421.16 71.8063 Q1417.6 69.8214 1415.25 65.7705 L1415.25 72.576 L1407.75 72.576 L1407.75 9.54393 L1415.25 9.54393 L1415.25 34.0924 Z" fill="#000000" fill-rule="nonzero" fill-opacity="1" /><path clip-path="url(#clip000)" d="M1481.32 49.7694 Q1472.28 49.7694 1468.8 51.8354 Q1465.32 53.9013 1465.32 58.8839 Q1465.32 62.8538 1467.91 65.2034 Q1470.54 67.5124 1475.04 67.5124 Q1481.24 67.5124 1484.96 63.1374 Q1488.73 58.7219 1488.73 51.4303 L1488.73 49.7694 L1481.32 49.7694 M1496.18 46.6907 L1496.18 72.576 L1488.73 72.576 L1488.73 65.6895 Q1486.18 69.8214 1482.37 71.8063 Q1478.56 73.7508 1473.05 73.7508 Q1466.09 73.7508 1461.95 69.8619 Q1457.86 65.9325 1457.86 59.3701 Q1457.86 51.7138 1462.97 47.825 Q1468.11 43.9361 1478.28 43.9361 L1488.73 43.9361 L1488.73 43.2069 Q1488.73 38.0623 1485.33 35.2672 Q1481.97 32.4315 1475.85 32.4315 Q1471.96 32.4315 1468.27 33.3632 Q1464.59 34.295 1461.18 36.1584 L1461.18 29.2718 Q1465.28 27.692 1469.12 26.9223 Q1472.97 26.1121 1476.62 26.1121 Q1486.46 26.1121 1491.32 31.2163 Q1496.18 36.3204 1496.18 46.6907 Z" fill="#000000" fill-rule="nonzero" fill-opacity="1" /><path clip-path="url(#clip000)" d="M1540.46 28.5427 L1540.46 35.5912 Q1537.3 33.9709 1533.9 33.1607 Q1530.5 32.3505 1526.85 32.3505 Q1521.3 32.3505 1518.5 34.0519 Q1515.75 35.7533 1515.75 39.156 Q1515.75 41.7486 1517.73 43.2475 Q1519.72 44.7058 1525.71 46.0426 L1528.27 46.6097 Q1536.21 48.3111 1539.53 51.4303 Q1542.89 54.509 1542.89 60.0587 Q1542.89 66.3781 1537.87 70.0644 Q1532.89 73.7508 1524.14 73.7508 Q1520.49 73.7508 1516.52 73.0216 Q1512.59 72.3329 1508.22 70.9151 L1508.22 63.2184 Q1512.35 65.3654 1516.36 66.4591 Q1520.37 67.5124 1524.3 67.5124 Q1529.56 67.5124 1532.4 65.73 Q1535.23 63.9071 1535.23 60.6258 Q1535.23 57.5877 1533.17 55.9673 Q1531.14 54.3469 1524.22 52.8481 L1521.62 52.2405 Q1514.7 50.7821 1511.62 47.7845 Q1508.54 44.7463 1508.54 39.4801 Q1508.54 33.0797 1513.08 29.5959 Q1517.61 26.1121 1525.96 26.1121 Q1530.09 26.1121 1533.74 26.7198 Q1537.38 27.3274 1540.46 28.5427 Z" fill="#000000" fill-rule="nonzero" fill-opacity="1" /><path clip-path="url(#clip000)" d="M1554.76 27.2059 L1562.21 27.2059 L1562.21 72.576 L1554.76 72.576 L1554.76 27.2059 M1554.76 9.54393 L1562.21 9.54393 L1562.21 18.9825 L1554.76 18.9825 L1554.76 9.54393 Z" fill="#000000" fill-rule="nonzero" fill-opacity="1" /><path clip-path="url(#clip000)" d="M1606.73 28.5427 L1606.73 35.5912 Q1603.57 33.9709 1600.17 33.1607 Q1596.77 32.3505 1593.12 32.3505 Q1587.57 32.3505 1584.78 34.0519 Q1582.02 35.7533 1582.02 39.156 Q1582.02 41.7486 1584.01 43.2475 Q1585.99 44.7058 1591.99 46.0426 L1594.54 46.6097 Q1602.48 48.3111 1605.8 51.4303 Q1609.16 54.509 1609.16 60.0587 Q1609.16 66.3781 1604.14 70.0644 Q1599.16 73.7508 1590.41 73.7508 Q1586.76 73.7508 1582.79 73.0216 Q1578.86 72.3329 1574.49 70.9151 L1574.49 63.2184 Q1578.62 65.3654 1582.63 66.4591 Q1586.64 67.5124 1590.57 67.5124 Q1595.84 67.5124 1598.67 65.73 Q1601.51 63.9071 1601.51 60.6258 Q1601.51 57.5877 1599.44 55.9673 Q1597.42 54.3469 1590.49 52.8481 L1587.9 52.2405 Q1580.97 50.7821 1577.89 47.7845 Q1574.81 44.7463 1574.81 39.4801 Q1574.81 33.0797 1579.35 29.5959 Q1583.89 26.1121 1592.23 26.1121 Q1596.36 26.1121 1600.01 26.7198 Q1603.65 27.3274 1606.73 28.5427 Z" fill="#000000" fill-rule="nonzero" fill-opacity="1" /><path clip-path="url(#clip000)" d="M1654.78 14.324 L1654.78 27.2059 L1670.13 27.2059 L1670.13 32.9987 L1654.78 32.9987 L1654.78 57.6282 Q1654.78 63.1779 1656.28 64.7578 Q1657.81 66.3376 1662.47 66.3376 L1670.13 66.3376 L1670.13 72.576 L1662.47 72.576 Q1653.85 72.576 1650.56 69.3758 Q1647.28 66.1351 1647.28 57.6282 L1647.28 32.9987 L1641.81 32.9987 L1641.81 27.2059 L1647.28 27.2059 L1647.28 14.324 L1654.78 14.324 Z" fill="#000000" fill-rule="nonzero" fill-opacity="1" /><path clip-path="url(#clip000)" d="M1698.81 76.7889 Q1695.65 84.8907 1692.65 87.3618 Q1689.66 89.8329 1684.63 89.8329 L1678.68 89.8329 L1678.68 83.5945 L1683.05 83.5945 Q1686.13 83.5945 1687.83 82.1361 Q1689.53 80.6778 1691.6 75.2496 L1692.94 71.8468 L1674.59 27.2059 L1682.48 27.2059 L1696.66 62.6918 L1710.84 27.2059 L1718.74 27.2059 L1698.81 76.7889 Z" fill="#000000" fill-rule="nonzero" fill-opacity="1" /><path clip-path="url(#clip000)" d="M1736.24 65.7705 L1736.24 89.8329 L1728.75 89.8329 L1728.75 27.2059 L1736.24 27.2059 L1736.24 34.0924 Q1738.59 30.0415 1742.15 28.0971 Q1745.76 26.1121 1750.74 26.1121 Q1759.01 26.1121 1764.15 32.6746 Q1769.34 39.2371 1769.34 49.9314 Q1769.34 60.6258 1764.15 67.1883 Q1759.01 73.7508 1750.74 73.7508 Q1745.76 73.7508 1742.15 71.8063 Q1738.59 69.8214 1736.24 65.7705 M1761.6 49.9314 Q1761.6 41.7081 1758.2 37.0496 Q1754.83 32.3505 1748.92 32.3505 Q1743.01 32.3505 1739.6 37.0496 Q1736.24 41.7081 1736.24 49.9314 Q1736.24 58.1548 1739.6 62.8538 Q1743.01 67.5124 1748.92 67.5124 Q1754.83 67.5124 1758.2 62.8538 Q1761.6 58.1548 1761.6 49.9314 Z" fill="#000000" fill-rule="nonzero" fill-opacity="1" /><path clip-path="url(#clip000)" d="M1820.5 48.0275 L1820.5 51.6733 L1786.23 51.6733 Q1786.71 59.3701 1790.85 63.421 Q1795.02 67.4314 1802.43 67.4314 Q1806.73 67.4314 1810.74 66.3781 Q1814.79 65.3249 1818.76 63.2184 L1818.76 70.267 Q1814.75 71.9684 1810.53 72.8596 Q1806.32 73.7508 1801.99 73.7508 Q1791.13 73.7508 1784.77 67.4314 Q1778.45 61.1119 1778.45 50.3365 Q1778.45 39.1965 1784.45 32.6746 Q1790.48 26.1121 1800.69 26.1121 Q1809.85 26.1121 1815.15 32.0264 Q1820.5 37.9003 1820.5 48.0275 M1813.05 45.84 Q1812.96 39.7232 1809.6 36.0774 Q1806.28 32.4315 1800.77 32.4315 Q1794.53 32.4315 1790.77 35.9558 Q1787.04 39.4801 1786.47 45.8805 L1813.05 45.84 Z" fill="#000000" fill-rule="nonzero" fill-opacity="1" /><polyline clip-path="url(#clip001)" style="stroke:#4682b4; stroke-linecap:round; stroke-linejoin:round; stroke-width:8; stroke-opacity:1; fill:none" points="303.464,1143.68 312.057,1138.58 320.65,1133.48 329.243,1128.39 337.836,1123.29 346.428,1118.19 355.021,1113.1 363.614,1108 372.207,1102.91 380.8,1097.81 389.393,1092.71 397.986,1087.62 406.579,1082.53 415.172,1077.43 423.765,1072.34 432.358,1067.25 440.951,1062.15 449.544,1057.06 458.136,1051.97 466.729,1046.88 475.322,1041.79 483.915,1036.71 492.508,1031.62 501.101,1026.53 509.694,1021.45 518.287,1016.36 526.88,1011.28 535.473,1006.2 544.066,1001.11 552.659,996.035 561.252,990.956 569.845,985.879 578.437,980.803 587.03,975.728 595.623,970.654 604.216,965.582 612.809,960.511 621.402,955.442 629.995,950.374 638.588,945.308 647.181,940.243 655.774,935.18 664.367,930.118 672.96,925.058 681.553,919.999 690.145,914.942 698.738,909.887 707.331,904.833 715.924,899.782 724.517,894.731 733.11,889.683 741.703,884.636 750.296,879.591 758.889,874.548 767.482,869.507 776.075,864.468 784.668,859.43 793.261,854.394 801.854,849.36 810.446,844.328 819.039,839.298 827.632,834.27 836.225,829.244 844.818,824.219 853.411,819.197 862.004,814.176 870.597,809.158 879.19,804.141 887.783,799.127 896.376,794.114 904.969,789.103 913.562,784.095 922.154,779.088 930.747,774.083 939.34,769.08 947.933,764.079 956.526,759.08 965.119,754.083 973.712,749.088 982.305,744.095 990.898,739.103 999.491,734.113 1008.08,729.125 1016.68,724.139 1025.27,719.155 1033.86,714.172 1042.46,709.191 1051.05,704.212 1059.64,699.234 1068.23,694.258 1076.83,689.283 1085.42,684.311 1094.01,679.339 1102.61,674.369 1111.2,669.401 1119.79,664.433 1128.38,659.468 1136.98,654.503 1145.57,649.54 1154.16,644.578 1162.76,639.617 1171.35,634.658 1179.94,629.699 1188.54,624.742 1197.13,619.786 1205.72,614.83 1214.31,609.876 1222.91,604.923 1231.5,599.97 1240.09,595.018 1248.69,590.067 1257.28,585.117 1265.87,580.168 1274.46,575.219 1283.06,570.271 1291.65,565.323 1300.24,560.376 1308.84,555.43 1317.43,550.484 1326.02,545.539 1334.61,540.594 1343.21,535.65 1351.8,530.706 1360.39,525.763 1368.99,520.82 1377.58,515.878 1386.17,510.936 1394.77,505.994 1403.36,501.052 1411.95,496.111 1420.54,491.17 1429.14,486.23 1437.73,481.29 1446.32,476.35 1454.92,471.41 1463.51,466.471 1472.1,461.532 1480.69,456.593 1489.29,451.655 1497.88,446.717 1506.47,441.779 1515.07,436.841 1523.66,431.903 1532.25,426.966 1540.85,422.028 1549.44,417.091 1558.03,412.154 1566.62,407.218 1575.22,402.281 1583.81,397.345 1592.4,392.408 1601,387.472 1609.59,382.536 1618.18,377.6 1626.77,372.665 1635.37,367.729 1643.96,362.793 1652.55,357.858 1661.15,352.922 1669.74,347.987 1678.33,343.052 1686.92,338.116 1695.52,333.181 1704.11,328.246 1712.7,323.31 1721.3,318.375 1729.89,313.44 1738.48,308.504 1747.08,303.569 1755.67,298.633 1764.26,293.698 1772.85,288.762 1781.45,283.826 1790.04,278.891 1798.63,273.955 1807.23,269.019 1815.82,264.082 1824.41,259.146 1833,254.21 1841.6,249.273 1850.19,244.336 1858.78,239.4 1867.38,234.463 1875.97,229.525 1884.56,224.588 1893.16,219.651 1901.75,214.713 1910.34,209.776 1918.93,204.838 1927.53,199.9 1936.12,194.962 1944.71,190.024 1953.31,185.086 1961.9,180.148 1970.49,175.209 1979.08,170.271 1987.68,165.333 1996.27,160.395 2004.86,155.456 2013.46,150.518 "/>
<polyline clip-path="url(#clip001)" style="stroke:#ff8c00; stroke-linecap:round; stroke-linejoin:round; stroke-width:8; stroke-opacity:1; fill:none" points="303.464,361.727 312.057,352.133 320.65,342.608 329.243,333.22 337.836,324.037 346.428,315.128 355.021,306.562 363.614,298.406 372.207,290.73 380.8,283.601 389.393,277.085 397.986,271.196 406.579,265.921 415.172,261.244 423.765,257.15 432.358,253.623 440.951,250.649 449.544,248.212 458.136,246.298 466.729,244.89 475.322,243.974 483.915,243.534 492.508,243.556 501.101,244.023 509.694,244.918 518.287,246.21 526.88,247.866 535.473,249.854 544.066,252.143 552.659,254.699 561.252,257.49 569.845,260.477 578.437,263.612 587.03,266.846 595.623,270.13 604.216,273.415 612.809,276.652 621.402,279.793 629.995,282.789 638.588,285.602 647.181,288.212 655.774,290.598 664.367,292.74 672.96,294.616 681.553,296.206 690.145,297.49 698.738,298.446 707.331,299.055 715.924,299.295 724.517,299.146 733.11,298.587 741.703,297.611 750.296,296.254 758.889,294.565 767.482,292.589 776.075,290.374 784.668,287.966 793.261,285.412 801.854,282.76 810.446,280.056 819.039,277.346 827.632,274.679 836.225,272.101 844.818,269.658 853.411,267.387 862.004,265.274 870.597,263.289 879.19,261.402 887.783,259.583 896.376,257.802 904.969,256.03 913.562,254.236 922.154,252.406 930.747,250.586 939.34,248.842 947.933,247.238 956.526,245.839 965.119,244.709 973.712,243.913 982.305,243.515 990.898,243.579 999.491,244.171 1008.08,245.356 1016.68,247.195 1025.27,249.713 1033.86,252.877 1042.46,256.652 1051.05,261.003 1059.64,265.895 1068.23,271.291 1076.83,277.157 1085.42,283.457 1094.01,290.155 1102.61,297.217 1111.2,304.608 1119.79,312.288 1128.38,320.209 1136.98,328.316 1145.57,336.552 1154.16,344.863 1162.76,353.194 1171.35,361.489 1179.94,369.693 1188.54,377.752 1197.13,385.61 1205.72,393.213 1214.31,400.525 1222.91,407.53 1231.5,414.212 1240.09,420.557 1248.69,426.547 1257.28,432.167 1265.87,437.402 1274.46,442.235 1283.06,446.654 1291.65,450.645 1300.24,454.198 1308.84,457.3 1317.43,459.94 1326.02,462.106 1334.61,463.786 1343.21,464.969 1351.8,465.642 1360.39,465.794 1368.99,465.415 1377.58,464.517 1386.17,463.147 1394.77,461.352 1403.36,459.178 1411.95,456.672 1420.54,453.881 1429.14,450.852 1437.73,447.633 1446.32,444.27 1454.92,440.81 1463.51,437.3 1472.1,433.787 1480.69,430.318 1489.29,426.94 1497.88,423.684 1506.47,420.55 1515.07,417.539 1523.66,414.646 1532.25,411.872 1540.85,409.213 1549.44,406.668 1558.03,404.235 1566.62,401.912 1575.22,399.7 1583.81,397.642 1592.4,395.811 1601,394.286 1609.59,393.143 1618.18,392.458 1626.77,392.307 1635.37,392.768 1643.96,393.917 1652.55,395.828 1661.15,398.501 1669.74,401.847 1678.33,405.771 1686.92,410.179 1695.52,414.974 1704.11,420.062 1712.7,425.349 1721.3,430.738 1729.89,436.136 1738.48,441.448 1747.08,446.588 1755.67,451.495 1764.26,456.11 1772.85,460.373 1781.45,464.227 1790.04,467.611 1798.63,470.467 1807.23,472.736 1815.82,474.359 1824.41,475.277 1833,475.431 1841.6,474.763 1850.19,473.213 1858.78,470.726 1867.38,467.327 1875.97,463.117 1884.56,458.201 1893.16,452.684 1901.75,446.669 1910.34,440.261 1918.93,433.564 1927.53,426.665 1936.12,419.592 1944.71,412.363 1953.31,404.994 1961.9,397.504 1970.49,389.909 1979.08,382.227 1987.68,374.476 1996.27,366.672 2004.86,358.834 2013.46,350.978 "/>
<polyline clip-path="url(#clip001)" style="stroke:#008b00; stroke-linecap:round; stroke-linejoin:round; stroke-width:8; stroke-opacity:1; fill:none" points="303.464,362.356 312.057,352.553 320.65,342.911 329.243,333.475 337.836,324.292 346.428,315.408 355.021,306.868 363.614,298.719 372.207,291.007 380.8,283.777 389.393,277.077 397.986,270.952 406.579,265.448 415.172,260.589 423.765,256.359 432.358,252.74 440.951,249.712 449.544,247.257 458.136,245.357 466.729,243.991 475.322,243.142 483.915,242.791 492.508,242.918 501.101,243.505 509.694,244.533 518.287,245.969 526.88,247.772 535.473,249.9 544.066,252.311 552.659,254.964 561.252,257.817 569.845,260.828 578.437,263.955 587.03,267.156 595.623,270.39 604.216,273.615 612.809,276.79 621.402,279.881 629.995,282.855 638.588,285.679 647.181,288.322 655.774,290.751 664.367,292.933 672.96,294.837 681.553,296.429 690.145,297.678 698.738,298.55 707.331,299.014 715.924,299.055 724.517,298.702 733.11,297.988 741.703,296.947 750.296,295.616 758.889,294.026 767.482,292.214 776.075,290.212 784.668,288.057 793.261,285.781 801.854,283.42 810.446,281.006 819.039,278.563 827.632,276.101 836.225,273.629 844.818,271.155 853.411,268.69 862.004,266.243 870.597,263.822 879.19,261.438 887.783,259.099 896.376,256.816 904.969,254.596 913.562,252.453 922.154,250.419 930.747,248.54 939.34,246.859 947.933,245.422 956.526,244.273 965.119,243.457 973.712,243.017 982.305,242.999 990.898,243.447 999.491,244.405 1008.08,245.919 1016.68,248.019 1025.27,250.694 1033.86,253.92 1042.46,257.678 1051.05,261.944 1059.64,266.697 1068.23,271.915 1076.83,277.576 1085.42,283.66 1094.01,290.143 1102.61,297.004 1111.2,304.222 1119.79,311.761 1128.38,319.569 1136.98,327.592 1145.57,335.776 1154.16,344.066 1162.76,352.408 1171.35,360.749 1179.94,369.033 1188.54,377.206 1197.13,385.215 1205.72,393.005 1214.31,400.524 1222.91,407.736 1231.5,414.619 1240.09,421.15 1248.69,427.308 1257.28,433.068 1265.87,438.41 1274.46,443.309 1283.06,447.745 1291.65,451.694 1300.24,455.134 1308.84,458.042 1317.43,460.403 1326.02,462.232 1334.61,463.554 1343.21,464.396 1351.8,464.781 1360.39,464.736 1368.99,464.285 1377.58,463.454 1386.17,462.268 1394.77,460.753 1403.36,458.933 1411.95,456.833 1420.54,454.48 1429.14,451.895 1437.73,449.104 1446.32,446.13 1454.92,442.997 1463.51,439.728 1472.1,436.348 1480.69,432.879 1489.29,429.347 1497.88,425.774 1506.47,422.185 1515.07,418.604 1523.66,415.067 1532.25,411.623 1540.85,408.318 1549.44,405.201 1558.03,402.32 1566.62,399.723 1575.22,397.458 1583.81,395.573 1592.4,394.116 1601,393.135 1609.59,392.679 1618.18,392.787 1626.77,393.455 1635.37,394.655 1643.96,396.361 1652.55,398.548 1661.15,401.189 1669.74,404.257 1678.33,407.727 1686.92,411.572 1695.52,415.766 1704.11,420.282 1712.7,425.095 1721.3,430.161 1729.89,435.388 1738.48,440.679 1747.08,445.932 1755.67,451.048 1764.26,455.928 1772.85,460.472 1781.45,464.581 1790.04,468.154 1798.63,471.094 1807.23,473.299 1815.82,474.672 1824.41,475.176 1833,474.846 1841.6,473.725 1850.19,471.855 1858.78,469.277 1867.38,466.034 1875.97,462.167 1884.56,457.719 1893.16,452.73 1901.75,447.243 1910.34,441.3 1918.93,434.942 1927.53,428.205 1936.12,421.123 1944.71,413.73 1953.31,406.059 1961.9,398.143 1970.49,390.015 1979.08,381.71 1987.68,373.26 1996.27,364.7 2004.86,356.062 2013.46,347.38 "/>
<polyline clip-path="url(#clip001)" style="stroke:#800080; stroke-linecap:round; stroke-linejoin:round; stroke-width:8; stroke-opacity:1; fill:none" points="303.464,332.756 312.057,330.224 320.65,327.41 329.243,324.303 337.836,320.901 346.428,317.207 355.021,313.241 363.614,309.043 372.207,304.678 380.8,300.188 389.393,295.475 397.986,290.442 406.579,285.036 415.172,279.246 423.765,273.106 432.358,266.709 440.951,260.216 449.544,253.876 458.136,248.047 466.729,243.231 475.322,240.108 483.915,239.11 492.508,239.643 501.101,241.129 509.694,243.18 518.287,245.563 526.88,248.192 535.473,251.11 544.066,254.438 552.659,258.018 561.252,261.622 569.845,265.129 578.437,268.509 587.03,271.819 595.623,275.205 604.216,278.852 612.809,282.649 621.402,286.373 629.995,289.877 638.588,293.065 647.181,295.892 655.774,298.352 664.367,300.475 672.96,302.319 681.553,303.855 690.145,305.006 698.738,305.716 707.331,305.954 715.924,305.706 724.517,304.976 733.11,303.786 741.703,302.178 750.296,300.22 758.889,298.01 767.482,295.686 776.075,293.436 784.668,291.493 793.261,289.819 801.854,288.177 810.446,286.396 819.039,284.362 827.632,282.02 836.225,279.363 844.818,276.445 853.411,273.378 862.004,270.35 870.597,267.634 879.19,265.498 887.783,263.736 896.376,262.078 904.969,260.353 913.562,258.488 922.154,256.499 930.747,254.498 939.34,252.698 947.933,251.435 956.526,250.889 965.119,250.719 973.712,250.628 982.305,250.435 990.898,250.062 999.491,249.531 1008.08,248.968 1016.68,248.605 1025.27,248.805 1033.86,250.079 1042.46,253.077 1051.05,257.785 1059.64,263.608 1068.23,270.101 1076.83,276.959 1085.42,283.992 1094.01,291.104 1102.61,298.277 1111.2,305.566 1119.79,313.09 1128.38,320.988 1136.98,329.181 1145.57,337.534 1154.16,345.947 1162.76,354.342 1171.35,362.641 1179.94,370.758 1188.54,378.584 1197.13,385.977 1205.72,392.956 1214.31,399.687 1222.91,406.281 1231.5,412.787 1240.09,419.186 1248.69,425.383 1257.28,431.195 1265.87,436.335 1274.46,440.711 1283.06,444.655 1291.65,448.429 1300.24,452.179 1308.84,455.94 1317.43,459.637 1326.02,463.075 1334.61,465.921 1343.21,467.679 1351.8,467.667 1360.39,465.743 1368.99,462.62 1377.58,458.888 1386.17,454.974 1394.77,451.172 1403.36,447.668 1411.95,444.559 1420.54,441.86 1429.14,439.509 1437.73,437.368 1446.32,435.214 1454.92,432.728 1463.51,429.731 1472.1,426.5 1480.69,423.285 1489.29,420.258 1497.88,417.52 1506.47,415.116 1515.07,413.04 1523.66,411.235 1532.25,409.596 1540.85,407.96 1549.44,406.1 1558.03,403.712 1566.62,400.611 1575.22,397.12 1583.81,393.591 1592.4,390.321 1601,387.581 1609.59,385.57 1618.18,384.3 1626.77,383.744 1635.37,383.892 1643.96,384.739 1652.55,386.295 1661.15,388.576 1669.74,391.609 1678.33,395.43 1686.92,400.081 1695.52,405.554 1704.11,411.747 1712.7,418.542 1721.3,425.789 1729.89,433.297 1738.48,440.807 1747.08,447.971 1755.67,454.317 1764.26,459.212 1772.85,462.223 1781.45,463.921 1790.04,464.902 1798.63,465.588 1807.23,466.258 1815.82,467.06 1824.41,468.025 1833,469.065 1841.6,469.968 1850.19,470.384 1858.78,469.794 1867.38,467.486 1875.97,462.974 1884.56,456.887 1893.16,449.87 1901.75,442.393 1910.34,434.784 1918.93,427.26 1927.53,419.955 1936.12,412.97 1944.71,406.402 1953.31,400.304 1961.9,394.702 1970.49,389.6 1979.08,384.988 1987.68,380.842 1996.27,377.137 2004.86,373.84 2013.46,370.918 "/>
<polyline clip-path="url(#clip001)" style="stroke:#000000; stroke-linecap:round; stroke-linejoin:round; stroke-width:8; stroke-opacity:1; fill:none" stroke-dasharray="32, 20" points="303.464,350.687 305.424,348.868 305.749,348.566 306.955,347.447 309.83,344.781 315.642,339.408 316.587,338.536 333.172,323.438 335.127,321.691 339.869,317.491 352.974,306.206 353.966,305.374 358.864,301.318 367.297,294.551 369.881,292.537 376.836,287.265 386.032,280.654 388.685,278.828 394.241,275.125 407.663,266.907 419.14,260.745 424.435,258.185 427.063,256.982 440.813,251.435 444.543,250.149 449.991,248.441 451.654,247.961 457.141,246.507 457.489,246.421 492.424,241.973 495.811,241.96 498.231,241.994 502.447,242.137 504.7,242.257 514.677,243.135 524.24,244.482 524.612,244.544 531.89,245.889 534.185,246.365 535.152,246.573 535.982,246.754 536.031,246.765 536.981,246.977 537.315,247.052 541.125,247.945 544.161,248.7 552.607,250.986 557.836,252.527 558.909,252.854 559.779,253.122 574.026,257.806 574.069,257.821 575.987,258.489 576.755,258.759 595.107,265.481 596.538,266.022 596.998,266.196 597.629,266.435 611.229,271.62 621.351,275.459 622.464,275.877 624.618,276.682 625.497,277.009 626.467,277.369 628.252,278.028 637.18,281.26 641.159,282.656 641.873,282.903 654.984,287.236 659.463,288.614 661.026,289.081 665.87,290.481 674.44,292.768 674.752,292.846 675.766,293.098 703.855,298.474 704.163,298.515 715.905,299.733 724.709,300.226 736.353,300.315 741.451,300.151 748.028,299.758 748.765,299.702 751.164,299.5 765.973,297.673 768.668,297.236 794.161,291.643 796.924,290.892 807.006,287.944 824.983,282.002 826.906,281.324 830.057,280.199 836.914,277.697 841.435,276.014 844.142,274.997 847.084,273.885 847.218,273.834 851.03,272.386 859.289,269.233 866.477,266.496 873.637,263.802 874.712,263.402 875.321,263.175 876.701,262.664 880.456,261.287 880.962,261.103 885.718,259.393 898.184,255.129 905.665,252.76 909.516,251.607 913.49,250.468 915.303,249.968 919.261,248.917 934.491,245.473 947.514,243.386 954.499,242.633 966.332,241.988 969.171,241.957 970.608,241.96 972.767,241.989 980.04,242.3 980.954,242.363 986.982,242.915 996.074,244.199 1007.83,246.683 1009.96,247.231 1013.7,248.271 1026.27,252.469 1036.77,256.788 1044.08,260.223 1050.98,263.783 1062.22,270.219 1063.03,270.712 1070.2,275.236 1077.65,280.246 1078.64,280.933 1080.09,281.95 1081.07,282.644 1088.68,288.199 1096.5,294.179 1099.55,296.587 1102.33,298.817 1118.3,312.176 1125.3,318.288 1125.85,318.775 1127.42,320.161 1130.29,322.716 1134.76,326.736 1141.05,332.455 1144.03,335.183 1159.97,349.909 1161.26,351.108 1185.61,373.535 1185.94,373.84 1185.95,373.848 1187.07,374.858 1190.58,378.025 1193.99,381.069 1213.98,398.308 1215.92,399.912 1221.69,404.598 1222.59,405.318 1222.64,405.357 1225.36,407.512 1229.52,410.738 1233.33,413.625 1235.07,414.924 1242.61,420.376 1246.38,422.99 1247.88,424.009 1254.9,428.62 1264.76,434.619 1266.66,435.706 1270.45,437.813 1275.33,440.391 1283.47,444.358 1287.32,446.082 1289.31,446.937 1298.21,450.427 1301.27,451.504 1315.13,455.587 1319.64,456.633 1335.88,459.268 1337.94,459.478 1338.81,459.558 1348.18,460.111 1353.06,460.179 1353.67,460.177 1365.18,459.725 1365.37,459.711 1365.73,459.684 1373.37,458.938 1377.89,458.348 1386.92,456.856 1401.46,453.653 1404.49,452.873 1411.16,451.036 1418.45,448.856 1430.66,444.854 1448.57,438.416 1462.61,433.104 1465.48,432.009 1467.74,431.147 1470.43,430.117 1479.02,426.86 1492.81,421.777 1513.17,414.891 1529.97,410.042 1537.28,408.229 1537.7,408.131 1537.74,408.122 1538.22,408.011 1546.52,406.226 1555.5,404.613 1558.22,404.193 1558.9,404.094 1561.54,403.725 1562.02,403.66 1562.99,403.534 1567.27,403.03 1569,402.85 1572.88,402.497 1577.02,402.196 1578.6,402.103 1579.95,402.032 1585.76,401.827 1588.23,401.788 1592.91,401.794 1602.4,402.126 1606.67,402.414 1615.19,403.241 1622.96,404.282 1634.61,406.336 1634.62,406.337 1639.74,407.416 1640.7,407.63 1648.84,409.583 1649.84,409.84 1650.96,410.134 1664.42,413.964 1666.49,414.602 1673.98,417.009 1683.65,420.312 1695.08,424.442 1705.68,428.417 1711.32,430.562 1712.84,431.145 1718.47,433.292 1724.44,435.564 1725.78,436.074 1728.37,437.049 1732.6,438.635 1737.9,440.589 1739.27,441.088 1742.63,442.296 1761.39,448.623 1762.75,449.046 1765.24,449.805 1783.6,454.737 1791.49,456.438 1794.98,457.098 1796.14,457.304 1822.2,460.087 1822.38,460.093 1825.01,460.157 1826.72,460.176 1835.24,460.003 1853.98,457.98 1854.66,457.863 1857.59,457.323 1859.07,457.028 1873.15,453.481 1878.47,451.79 1878.73,451.702 1880.7,451.024 1890.73,447.165 1891.76,446.731 1904.44,440.81 1907.25,439.356 1907.51,439.22 1911.37,437.134 1911.91,436.839 1916.42,434.273 1917.36,433.72 1920.61,431.78 1924.5,429.375 1926.24,428.264 1927.84,427.236 1946.56,414.148 1953.24,409.061 1955.13,407.583 1955.2,407.532 1963.99,400.465 1969.54,395.854 1973.96,392.109 1982,385.133 1989.61,378.378 1989.88,378.135 2000.31,368.681 2013.46,356.557 "/>
<path clip-path="url(#clip000)" d="M312.584 466.855 L682.592 466.855 L682.592 155.815 L312.584 155.815  Z" fill="#ffffff" fill-rule="evenodd" fill-opacity="1"/>
<polyline clip-path="url(#clip000)" style="stroke:#000000; stroke-linecap:round; stroke-linejoin:round; stroke-width:4; stroke-opacity:1; fill:none" points="312.584,466.855 682.592,466.855 682.592,155.815 312.584,155.815 312.584,466.855 "/>
<polyline clip-path="url(#clip000)" style="stroke:#4682b4; stroke-linecap:round; stroke-linejoin:round; stroke-width:8; stroke-opacity:1; fill:none" points="332.724,207.655 453.563,207.655 "/>
<path clip-path="url(#clip000)" d="M481.11 191.648 L481.11 199.009 L489.884 199.009 L489.884 202.319 L481.11 202.319 L481.11 216.393 Q481.11 219.564 481.967 220.467 Q482.847 221.37 485.509 221.37 L489.884 221.37 L489.884 224.935 L485.509 224.935 Q480.578 224.935 478.703 223.106 Q476.828 221.254 476.828 216.393 L476.828 202.319 L473.703 202.319 L473.703 199.009 L476.828 199.009 L476.828 191.648 L481.11 191.648 Z" fill="#000000" fill-rule="nonzero" fill-opacity="1" /><path clip-path="url(#clip000)" d="M499.606 221.046 L499.606 234.796 L495.323 234.796 L495.323 199.009 L499.606 199.009 L499.606 202.944 Q500.948 200.629 502.985 199.518 Q505.045 198.384 507.893 198.384 Q512.615 198.384 515.555 202.134 Q518.518 205.884 518.518 211.995 Q518.518 218.106 515.555 221.856 Q512.615 225.606 507.893 225.606 Q505.045 225.606 502.985 224.495 Q500.948 223.361 499.606 221.046 M514.096 211.995 Q514.096 207.296 512.152 204.634 Q510.231 201.949 506.851 201.949 Q503.471 201.949 501.527 204.634 Q499.606 207.296 499.606 211.995 Q499.606 216.694 501.527 219.379 Q503.471 222.041 506.851 222.041 Q510.231 222.041 512.152 219.379 Q514.096 216.694 514.096 211.995 Z" fill="#000000" fill-rule="nonzero" fill-opacity="1" /><polyline clip-path="url(#clip000)" style="stroke:#ff8c00; stroke-linecap:round; stroke-linejoin:round; stroke-width:8; stroke-opacity:1; fill:none" points="332.724,259.495 453.563,259.495 "/>
<path clip-path="url(#clip000)" d="M494.212 251.844 L494.212 255.826 Q492.407 254.83 490.578 254.344 Q488.772 253.835 486.921 253.835 Q482.777 253.835 480.485 256.474 Q478.194 259.09 478.194 263.835 Q478.194 268.58 480.485 271.219 Q482.777 273.835 486.921 273.835 Q488.772 273.835 490.578 273.349 Q492.407 272.839 494.212 271.844 L494.212 275.779 Q492.43 276.613 490.509 277.029 Q488.61 277.446 486.458 277.446 Q480.601 277.446 477.152 273.765 Q473.703 270.085 473.703 263.835 Q473.703 257.492 477.175 253.858 Q480.671 250.224 486.735 250.224 Q488.703 250.224 490.578 250.641 Q492.453 251.034 494.212 251.844 Z" fill="#000000" fill-rule="nonzero" fill-opacity="1" /><path clip-path="url(#clip000)" d="M516.643 254.83 Q515.925 254.414 515.069 254.228 Q514.235 254.02 513.217 254.02 Q509.606 254.02 507.661 256.381 Q505.74 258.719 505.74 263.117 L505.74 276.775 L501.458 276.775 L501.458 250.849 L505.74 250.849 L505.74 254.877 Q507.082 252.515 509.235 251.381 Q511.388 250.224 514.467 250.224 Q514.907 250.224 515.439 250.293 Q515.971 250.34 516.619 250.455 L516.643 254.83 Z" fill="#000000" fill-rule="nonzero" fill-opacity="1" /><polyline clip-path="url(#clip000)" style="stroke:#008b00; stroke-linecap:round; stroke-linejoin:round; stroke-width:8; stroke-opacity:1; fill:none" points="332.724,311.335 453.563,311.335 "/>
<path clip-path="url(#clip000)" d="M477.985 324.726 L477.985 338.476 L473.703 338.476 L473.703 302.689 L477.985 302.689 L477.985 306.624 Q479.328 304.309 481.365 303.198 Q483.425 302.064 486.272 302.064 Q490.995 302.064 493.934 305.814 Q496.897 309.564 496.897 315.675 Q496.897 321.786 493.934 325.536 Q490.995 329.286 486.272 329.286 Q483.425 329.286 481.365 328.175 Q479.328 327.041 477.985 324.726 M492.476 315.675 Q492.476 310.976 490.532 308.314 Q488.61 305.629 485.231 305.629 Q481.851 305.629 479.907 308.314 Q477.985 310.976 477.985 315.675 Q477.985 320.374 479.907 323.059 Q481.851 325.721 485.231 325.721 Q488.61 325.721 490.532 323.059 Q492.476 320.374 492.476 315.675 Z" fill="#000000" fill-rule="nonzero" fill-opacity="1" /><path clip-path="url(#clip000)" d="M520.485 303.453 L520.485 307.48 Q518.68 306.555 516.735 306.092 Q514.791 305.629 512.707 305.629 Q509.536 305.629 507.939 306.601 Q506.365 307.573 506.365 309.518 Q506.365 310.999 507.499 311.855 Q508.633 312.689 512.059 313.453 L513.518 313.777 Q518.055 314.749 519.953 316.531 Q521.874 318.291 521.874 321.462 Q521.874 325.073 519.004 327.179 Q516.157 329.286 511.157 329.286 Q509.073 329.286 506.805 328.869 Q504.559 328.476 502.059 327.666 L502.059 323.267 Q504.42 324.494 506.712 325.119 Q509.004 325.721 511.249 325.721 Q514.258 325.721 515.879 324.703 Q517.499 323.661 517.499 321.786 Q517.499 320.05 516.319 319.124 Q515.161 318.198 511.203 317.342 L509.721 316.994 Q505.763 316.161 504.004 314.448 Q502.245 312.712 502.245 309.703 Q502.245 306.045 504.837 304.055 Q507.43 302.064 512.198 302.064 Q514.559 302.064 516.643 302.411 Q518.726 302.758 520.485 303.453 Z" fill="#000000" fill-rule="nonzero" fill-opacity="1" /><polyline clip-path="url(#clip000)" style="stroke:#800080; stroke-linecap:round; stroke-linejoin:round; stroke-width:8; stroke-opacity:1; fill:none" points="332.724,363.175 453.563,363.175 "/>
<path clip-path="url(#clip000)" d="M492.615 367.191 Q492.615 362.561 490.694 360.015 Q488.796 357.469 485.346 357.469 Q481.921 357.469 479.999 360.015 Q478.101 362.561 478.101 367.191 Q478.101 371.797 479.999 374.344 Q481.921 376.89 485.346 376.89 Q488.796 376.89 490.694 374.344 Q492.615 371.797 492.615 367.191 M496.874 377.237 Q496.874 383.857 493.934 387.075 Q490.995 390.316 484.93 390.316 Q482.684 390.316 480.694 389.968 Q478.703 389.644 476.828 388.95 L476.828 384.806 Q478.703 385.825 480.532 386.311 Q482.36 386.797 484.259 386.797 Q488.448 386.797 490.532 384.598 Q492.615 382.422 492.615 378.001 L492.615 375.894 Q491.296 378.186 489.235 379.32 Q487.175 380.455 484.305 380.455 Q479.536 380.455 476.62 376.82 Q473.703 373.186 473.703 367.191 Q473.703 361.172 476.62 357.538 Q479.536 353.904 484.305 353.904 Q487.175 353.904 489.235 355.038 Q491.296 356.172 492.615 358.464 L492.615 354.529 L496.874 354.529 L496.874 377.237 Z" fill="#000000" fill-rule="nonzero" fill-opacity="1" /><path clip-path="url(#clip000)" d="M509.768 376.566 L509.768 390.316 L505.485 390.316 L505.485 354.529 L509.768 354.529 L509.768 358.464 Q511.11 356.149 513.147 355.038 Q515.207 353.904 518.055 353.904 Q522.777 353.904 525.717 357.654 Q528.68 361.404 528.68 367.515 Q528.68 373.626 525.717 377.376 Q522.777 381.126 518.055 381.126 Q515.207 381.126 513.147 380.015 Q511.11 378.881 509.768 376.566 M524.258 367.515 Q524.258 362.816 522.314 360.154 Q520.393 357.469 517.013 357.469 Q513.633 357.469 511.689 360.154 Q509.768 362.816 509.768 367.515 Q509.768 372.214 511.689 374.899 Q513.633 377.561 517.013 377.561 Q520.393 377.561 522.314 374.899 Q524.258 372.214 524.258 367.515 Z" fill="#000000" fill-rule="nonzero" fill-opacity="1" /><polyline clip-path="url(#clip000)" style="stroke:#000000; stroke-linecap:round; stroke-linejoin:round; stroke-width:8; stroke-opacity:1; fill:none" stroke-dasharray="32, 20" points="332.724,415.015 453.563,415.015 "/>
<path clip-path="url(#clip000)" d="M481.11 399.008 L481.11 406.369 L489.884 406.369 L489.884 409.679 L481.11 409.679 L481.11 423.753 Q481.11 426.924 481.967 427.827 Q482.847 428.73 485.509 428.73 L489.884 428.73 L489.884 432.295 L485.509 432.295 Q480.578 432.295 478.703 430.466 Q476.828 428.614 476.828 423.753 L476.828 409.679 L473.703 409.679 L473.703 406.369 L476.828 406.369 L476.828 399.008 L481.11 399.008 Z" fill="#000000" fill-rule="nonzero" fill-opacity="1" /><path clip-path="url(#clip000)" d="M510.508 410.35 Q509.791 409.934 508.934 409.748 Q508.101 409.54 507.082 409.54 Q503.471 409.54 501.527 411.901 Q499.606 414.239 499.606 418.637 L499.606 432.295 L495.323 432.295 L495.323 406.369 L499.606 406.369 L499.606 410.397 Q500.948 408.035 503.101 406.901 Q505.254 405.744 508.332 405.744 Q508.772 405.744 509.305 405.813 Q509.837 405.86 510.485 405.975 L510.508 410.35 Z" fill="#000000" fill-rule="nonzero" fill-opacity="1" /><path clip-path="url(#clip000)" d="M514.536 422.063 L514.536 406.369 L518.795 406.369 L518.795 421.901 Q518.795 425.582 520.231 427.434 Q521.666 429.262 524.536 429.262 Q527.985 429.262 529.976 427.063 Q531.99 424.864 531.99 421.068 L531.99 406.369 L536.249 406.369 L536.249 432.295 L531.99 432.295 L531.99 428.313 Q530.439 430.674 528.379 431.832 Q526.342 432.966 523.633 432.966 Q519.166 432.966 516.851 430.188 Q514.536 427.41 514.536 422.063 M525.254 405.744 L525.254 405.744 Z" fill="#000000" fill-rule="nonzero" fill-opacity="1" /><path clip-path="url(#clip000)" d="M567.198 418.267 L567.198 420.35 L547.615 420.35 Q547.892 424.748 550.254 427.063 Q552.638 429.355 556.874 429.355 Q559.328 429.355 561.619 428.753 Q563.934 428.151 566.203 426.947 L566.203 430.975 Q563.911 431.947 561.503 432.457 Q559.096 432.966 556.619 432.966 Q550.416 432.966 546.781 429.355 Q543.17 425.744 543.17 419.586 Q543.17 413.221 546.596 409.494 Q550.045 405.744 555.879 405.744 Q561.11 405.744 564.142 409.123 Q567.198 412.48 567.198 418.267 M562.939 417.017 Q562.892 413.522 560.971 411.438 Q559.073 409.355 555.925 409.355 Q552.36 409.355 550.207 411.369 Q548.078 413.383 547.754 417.04 L562.939 417.017 Z" fill="#000000" fill-rule="nonzero" fill-opacity="1" /><path clip-path="url(#clip000)" d="M602.383 396.276 L602.383 399.818 L598.309 399.818 Q596.017 399.818 595.114 400.744 Q594.235 401.67 594.235 404.077 L594.235 406.369 L601.249 406.369 L601.249 409.679 L594.235 409.679 L594.235 432.295 L589.952 432.295 L589.952 409.679 L585.878 409.679 L585.878 406.369 L589.952 406.369 L589.952 404.563 Q589.952 400.235 591.966 398.267 Q593.98 396.276 598.355 396.276 L602.383 396.276 Z" fill="#000000" fill-rule="nonzero" fill-opacity="1" /><path clip-path="url(#clip000)" d="M616.179 396.323 Q613.077 401.647 611.573 406.855 Q610.068 412.063 610.068 417.41 Q610.068 422.758 611.573 428.012 Q613.1 433.244 616.179 438.545 L612.475 438.545 Q609.003 433.105 607.267 427.85 Q605.554 422.596 605.554 417.41 Q605.554 412.248 607.267 407.017 Q608.98 401.786 612.475 396.323 L616.179 396.323 Z" fill="#000000" fill-rule="nonzero" fill-opacity="1" /><path clip-path="url(#clip000)" d="M645.994 406.369 L636.619 418.985 L646.48 432.295 L641.457 432.295 L633.911 422.109 L626.364 432.295 L621.341 432.295 L631.411 418.73 L622.198 406.369 L627.221 406.369 L634.096 415.605 L640.971 406.369 L645.994 406.369 Z" fill="#000000" fill-rule="nonzero" fill-opacity="1" /><path clip-path="url(#clip000)" d="M651.827 396.323 L655.531 396.323 Q659.003 401.786 660.716 407.017 Q662.452 412.248 662.452 417.41 Q662.452 422.596 660.716 427.85 Q659.003 433.105 655.531 438.545 L651.827 438.545 Q654.906 433.244 656.41 428.012 Q657.938 422.758 657.938 417.41 Q657.938 412.063 656.41 406.855 Q654.906 401.647 651.827 396.323 Z" fill="#000000" fill-rule="nonzero" fill-opacity="1" /></svg>
